M48
; DRILL file {KiCad 9.0.7-9.0.7~ubuntu24.04.1} date 2026-01-13T16:30:17+0100
; FORMAT={-:-/ absolute / metric / decimal}
; #@! TF.CreationDate,2026-01-13T16:30:17+01:00
; #@! TF.GenerationSoftware,Kicad,Pcbnew,9.0.7-9.0.7~ubuntu24.04.1
; #@! TF.FileFunction,Plated,1,4,PTH
FMAT,2
METRIC
; #@! TA.AperFunction,Plated,PTH,ViaDrill
T1C0.300
; #@! TA.AperFunction,Plated,PTH,ComponentDrill
T2C1.020
; #@! TA.AperFunction,Plated,PTH,ComponentDrill
T3C1.100
%
G90
G05
T1
X125.4Y-62.25
X126.337Y-98.862
X126.6Y-67.2
X129.12Y-84.08
X129.25Y-102.55
X130.15Y-86.75
X132.2Y-62.25
X132.838Y-99.0
X133.2Y-67.2
X135.5Y-102.6
X135.72Y-84.08
X136.0Y-86.75
X139.0Y-62.25
X139.088Y-99.0
X139.8Y-67.2
X141.75Y-102.45
X142.32Y-84.08
X142.65Y-86.75
X145.338Y-99.062
X145.4Y-62.25
X146.4Y-67.2
X148.0Y-102.4
X148.92Y-84.28
X149.25Y-86.75
X151.588Y-99.012
X152.0Y-62.24
X153.0Y-67.2
X154.25Y-102.55
X155.52Y-84.28
X155.65Y-86.75
X157.838Y-99.0
X158.6Y-62.25
X159.6Y-67.2
X160.5Y-102.5
X162.05Y-86.75
X162.12Y-84.2
X164.088Y-99.112
X165.2Y-62.25
X166.3Y-67.2
X166.75Y-102.45
X168.4Y-86.75
X168.82Y-84.18
X170.338Y-99.062
X171.6Y-62.25
X172.9Y-67.2
X173.0Y-102.4
X174.85Y-86.75
X175.42Y-84.2
T2
X119.26Y-52.6
X119.26Y-55.14
X119.26Y-57.68
X119.26Y-60.22
X119.26Y-62.76
X119.26Y-65.3
X119.26Y-67.84
X119.26Y-70.38
X119.26Y-72.92
X119.26Y-75.46
X119.26Y-78.0
X119.26Y-80.54
X119.26Y-83.08
X119.26Y-85.62
X119.26Y-88.16
X119.26Y-90.7
X119.26Y-93.24
X119.26Y-95.78
X119.26Y-98.32
X119.26Y-100.86
X119.26Y-103.4
X119.26Y-105.94
X119.26Y-108.48
X121.8Y-52.6
X121.8Y-55.14
X121.8Y-57.68
X121.8Y-60.22
X121.8Y-62.76
X121.8Y-65.3
X121.8Y-67.84
X121.8Y-70.38
X121.8Y-72.92
X121.8Y-75.46
X121.8Y-78.0
X121.8Y-80.54
X121.8Y-83.08
X121.8Y-85.62
X121.8Y-88.16
X121.8Y-90.7
X121.8Y-93.24
X121.8Y-95.78
X121.8Y-98.32
X121.8Y-100.86
X121.8Y-103.4
X121.8Y-105.94
X121.8Y-108.48
X180.21Y-52.6
X180.21Y-55.14
X180.21Y-57.68
X180.21Y-60.22
X180.21Y-62.76
X180.21Y-65.3
X180.21Y-67.84
X180.21Y-70.38
X180.21Y-72.92
X180.21Y-75.46
X180.21Y-78.0
X180.21Y-80.54
X180.21Y-83.08
X180.21Y-85.62
X180.21Y-88.16
X180.21Y-90.7
X180.21Y-93.24
X180.21Y-95.78
X180.21Y-98.32
X180.21Y-100.86
X180.21Y-103.4
X180.21Y-105.94
X180.21Y-108.48
X182.75Y-52.6
X182.75Y-55.14
X182.75Y-57.68
X182.75Y-60.22
X182.75Y-62.76
X182.75Y-65.3
X182.75Y-67.84
X182.75Y-70.38
X182.75Y-72.92
X182.75Y-75.46
X182.75Y-78.0
X182.75Y-80.54
X182.75Y-83.08
X182.75Y-85.62
X182.75Y-88.16
X182.75Y-90.7
X182.75Y-93.24
X182.75Y-95.78
X182.75Y-98.32
X182.75Y-100.86
X182.75Y-103.4
X182.75Y-105.94
X182.75Y-108.48
T3
X134.88Y-111.0
X137.42Y-111.0
X139.96Y-111.0
X142.5Y-111.0
X145.04Y-111.0
X147.58Y-111.0
X150.12Y-111.0
X152.66Y-111.0
X155.2Y-111.0
M30
