%TF.GenerationSoftware,KiCad,Pcbnew,9.0.7-9.0.7~ubuntu24.04.1*%
%TF.CreationDate,2026-01-13T16:30:03+01:00*%
%TF.ProjectId,digital_input,64696769-7461-46c5-9f69-6e7075742e6b,1.0*%
%TF.SameCoordinates,Original*%
%TF.FileFunction,Paste,Top*%
%TF.FilePolarity,Positive*%
%FSLAX46Y46*%
G04 Gerber Fmt 4.6, Leading zero omitted, Abs format (unit mm)*
G04 Created by KiCad (PCBNEW 9.0.7-9.0.7~ubuntu24.04.1) date 2026-01-13 16:30:03*
%MOMM*%
%LPD*%
G01*
G04 APERTURE LIST*
G04 Aperture macros list*
%AMRoundRect*
0 Rectangle with rounded corners*
0 $1 Rounding radius*
0 $2 $3 $4 $5 $6 $7 $8 $9 X,Y pos of 4 corners*
0 Add a 4 corners polygon primitive as box body*
4,1,4,$2,$3,$4,$5,$6,$7,$8,$9,$2,$3,0*
0 Add four circle primitives for the rounded corners*
1,1,$1+$1,$2,$3*
1,1,$1+$1,$4,$5*
1,1,$1+$1,$6,$7*
1,1,$1+$1,$8,$9*
0 Add four rect primitives between the rounded corners*
20,1,$1+$1,$2,$3,$4,$5,0*
20,1,$1+$1,$4,$5,$6,$7,0*
20,1,$1+$1,$6,$7,$8,$9,0*
20,1,$1+$1,$8,$9,$2,$3,0*%
G04 Aperture macros list end*
%ADD10RoundRect,0.237500X0.237500X-0.250000X0.237500X0.250000X-0.237500X0.250000X-0.237500X-0.250000X0*%
%ADD11RoundRect,0.237500X-0.250000X-0.237500X0.250000X-0.237500X0.250000X0.237500X-0.250000X0.237500X0*%
%ADD12RoundRect,0.250000X0.650000X-1.000000X0.650000X1.000000X-0.650000X1.000000X-0.650000X-1.000000X0*%
%ADD13RoundRect,0.250000X-0.250000X-0.250000X0.250000X-0.250000X0.250000X0.250000X-0.250000X0.250000X0*%
%ADD14RoundRect,0.237500X-0.287500X-0.237500X0.287500X-0.237500X0.287500X0.237500X-0.287500X0.237500X0*%
%ADD15RoundRect,0.150000X0.150000X-0.512500X0.150000X0.512500X-0.150000X0.512500X-0.150000X-0.512500X0*%
%ADD16RoundRect,0.250000X0.550000X-1.300000X0.550000X1.300000X-0.550000X1.300000X-0.550000X-1.300000X0*%
%ADD17RoundRect,0.237500X0.300000X0.237500X-0.300000X0.237500X-0.300000X-0.237500X0.300000X-0.237500X0*%
G04 APERTURE END LIST*
D10*
%TO.C,R18*%
X133180000Y-70292500D03*
X133180000Y-68467500D03*
%TD*%
D11*
%TO.C,R13*%
X152775000Y-89000000D03*
X154600000Y-89000000D03*
%TD*%
%TO.C,R16*%
X172162500Y-89000000D03*
X173987500Y-89000000D03*
%TD*%
D12*
%TO.C,D23*%
X135500000Y-104750000D03*
X135500000Y-100750000D03*
%TD*%
D13*
%TO.C,D1*%
X125650000Y-91000000D03*
X128150000Y-91000000D03*
%TD*%
D11*
%TO.C,R15*%
X165737500Y-89000000D03*
X167562500Y-89000000D03*
%TD*%
D10*
%TO.C,R24*%
X172880000Y-70292500D03*
X172880000Y-68467500D03*
%TD*%
D12*
%TO.C,D20*%
X154250000Y-104750000D03*
X154250000Y-100750000D03*
%TD*%
D14*
%TO.C,D11*%
X159597500Y-62250000D03*
X161347500Y-62250000D03*
%TD*%
D11*
%TO.C,R30*%
X139825000Y-64500000D03*
X141650000Y-64500000D03*
%TD*%
D10*
%TO.C,R19*%
X139780000Y-70292500D03*
X139780000Y-68467500D03*
%TD*%
D15*
%TO.C,Q1*%
X126250000Y-95550000D03*
X128150000Y-95550000D03*
X127200000Y-93275000D03*
%TD*%
D13*
%TO.C,D7*%
X163400000Y-91000000D03*
X165900000Y-91000000D03*
%TD*%
D12*
%TO.C,D18*%
X166750000Y-104750000D03*
X166750000Y-100750000D03*
%TD*%
D16*
%TO.C,U2*%
X133180000Y-82145000D03*
X135720000Y-82145000D03*
X135720000Y-73255000D03*
X133180000Y-73255000D03*
%TD*%
D11*
%TO.C,R28*%
X152925000Y-64500000D03*
X154750000Y-64500000D03*
%TD*%
D10*
%TO.C,R23*%
X166280000Y-70292500D03*
X166280000Y-68467500D03*
%TD*%
D16*
%TO.C,U8*%
X172880000Y-82145000D03*
X175420000Y-82145000D03*
X175420000Y-73255000D03*
X172880000Y-73255000D03*
%TD*%
D17*
%TO.C,C7*%
X167512500Y-86750000D03*
X165787500Y-86750000D03*
%TD*%
D16*
%TO.C,U1*%
X126580000Y-82145000D03*
X129120000Y-82145000D03*
X129120000Y-73255000D03*
X126580000Y-73255000D03*
%TD*%
D11*
%TO.C,R8*%
X170337500Y-98000000D03*
X172162500Y-98000000D03*
%TD*%
%TO.C,R32*%
X126385000Y-64500000D03*
X128210000Y-64500000D03*
%TD*%
D14*
%TO.C,D9*%
X172475000Y-62250000D03*
X174225000Y-62250000D03*
%TD*%
D12*
%TO.C,D19*%
X160500000Y-104750000D03*
X160500000Y-100750000D03*
%TD*%
D17*
%TO.C,C5*%
X154537500Y-86750000D03*
X152812500Y-86750000D03*
%TD*%
D14*
%TO.C,D13*%
X146405000Y-62250000D03*
X148155000Y-62250000D03*
%TD*%
D11*
%TO.C,R25*%
X172400000Y-64500000D03*
X174225000Y-64500000D03*
%TD*%
D13*
%TO.C,D3*%
X138400000Y-91000000D03*
X140900000Y-91000000D03*
%TD*%
D10*
%TO.C,R20*%
X146380000Y-70292500D03*
X146380000Y-68467500D03*
%TD*%
D12*
%TO.C,D17*%
X173000000Y-104750000D03*
X173000000Y-100750000D03*
%TD*%
D13*
%TO.C,D5*%
X150900000Y-91000000D03*
X153400000Y-91000000D03*
%TD*%
D16*
%TO.C,U7*%
X166280000Y-82145000D03*
X168820000Y-82145000D03*
X168820000Y-73255000D03*
X166280000Y-73255000D03*
%TD*%
D17*
%TO.C,C8*%
X173937500Y-86750000D03*
X172212500Y-86750000D03*
%TD*%
D16*
%TO.C,U5*%
X152980000Y-82145000D03*
X155520000Y-82145000D03*
X155520000Y-73255000D03*
X152980000Y-73255000D03*
%TD*%
D17*
%TO.C,C3*%
X141512500Y-86750000D03*
X139787500Y-86750000D03*
%TD*%
D11*
%TO.C,R10*%
X133237500Y-89000000D03*
X135062500Y-89000000D03*
%TD*%
D16*
%TO.C,U6*%
X159580000Y-82145000D03*
X162120000Y-82145000D03*
X162120000Y-73255000D03*
X159580000Y-73255000D03*
%TD*%
D10*
%TO.C,R21*%
X152980000Y-70292500D03*
X152980000Y-68467500D03*
%TD*%
D11*
%TO.C,R6*%
X157837500Y-98000000D03*
X159662500Y-98000000D03*
%TD*%
%TO.C,R2*%
X132837500Y-98000000D03*
X134662500Y-98000000D03*
%TD*%
D15*
%TO.C,Q5*%
X151500000Y-95537500D03*
X153400000Y-95537500D03*
X152450000Y-93262500D03*
%TD*%
%TO.C,Q3*%
X139000000Y-95537500D03*
X140900000Y-95537500D03*
X139950000Y-93262500D03*
%TD*%
D14*
%TO.C,D15*%
X133165000Y-62250000D03*
X134915000Y-62250000D03*
%TD*%
D16*
%TO.C,U3*%
X139780000Y-82145000D03*
X142320000Y-82145000D03*
X142320000Y-73255000D03*
X139780000Y-73255000D03*
%TD*%
D17*
%TO.C,C4*%
X148037500Y-86750000D03*
X146312500Y-86750000D03*
%TD*%
%TO.C,C2*%
X135012500Y-86750000D03*
X133287500Y-86750000D03*
%TD*%
D11*
%TO.C,R27*%
X159525000Y-64500000D03*
X161350000Y-64500000D03*
%TD*%
D15*
%TO.C,Q2*%
X132750000Y-95550000D03*
X134650000Y-95550000D03*
X133700000Y-93275000D03*
%TD*%
D11*
%TO.C,R9*%
X127387500Y-89000000D03*
X129212500Y-89000000D03*
%TD*%
D15*
%TO.C,Q4*%
X145250000Y-95537500D03*
X147150000Y-95537500D03*
X146200000Y-93262500D03*
%TD*%
D11*
%TO.C,R31*%
X133087500Y-64500000D03*
X134912500Y-64500000D03*
%TD*%
%TO.C,R26*%
X166087500Y-64500000D03*
X167912500Y-64500000D03*
%TD*%
D13*
%TO.C,D6*%
X157150000Y-91000000D03*
X159650000Y-91000000D03*
%TD*%
D11*
%TO.C,R5*%
X151587500Y-98000000D03*
X153412500Y-98000000D03*
%TD*%
D10*
%TO.C,R17*%
X126580000Y-70292500D03*
X126580000Y-68467500D03*
%TD*%
D13*
%TO.C,D2*%
X132150000Y-91000000D03*
X134650000Y-91000000D03*
%TD*%
D17*
%TO.C,C1*%
X129162500Y-86750000D03*
X127437500Y-86750000D03*
%TD*%
D11*
%TO.C,R7*%
X164087500Y-98000000D03*
X165912500Y-98000000D03*
%TD*%
%TO.C,R1*%
X126337500Y-98000000D03*
X128162500Y-98000000D03*
%TD*%
%TO.C,R3*%
X139087500Y-98000000D03*
X140912500Y-98000000D03*
%TD*%
D15*
%TO.C,Q7*%
X164000000Y-95550000D03*
X165900000Y-95550000D03*
X164950000Y-93275000D03*
%TD*%
D13*
%TO.C,D4*%
X144650000Y-91000000D03*
X147150000Y-91000000D03*
%TD*%
D12*
%TO.C,D24*%
X129250000Y-104750000D03*
X129250000Y-100750000D03*
%TD*%
D15*
%TO.C,Q8*%
X170250000Y-95537500D03*
X172150000Y-95537500D03*
X171200000Y-93262500D03*
%TD*%
D12*
%TO.C,D22*%
X141750000Y-104750000D03*
X141750000Y-100750000D03*
%TD*%
D15*
%TO.C,Q6*%
X157750000Y-95537500D03*
X159650000Y-95537500D03*
X158700000Y-93262500D03*
%TD*%
D11*
%TO.C,R14*%
X159262500Y-89000000D03*
X161087500Y-89000000D03*
%TD*%
%TO.C,R11*%
X139737500Y-89000000D03*
X141562500Y-89000000D03*
%TD*%
D14*
%TO.C,D14*%
X139905000Y-62250000D03*
X141655000Y-62250000D03*
%TD*%
D17*
%TO.C,C6*%
X161037500Y-86750000D03*
X159312500Y-86750000D03*
%TD*%
D14*
%TO.C,D12*%
X152995000Y-62240000D03*
X154745000Y-62240000D03*
%TD*%
D11*
%TO.C,R29*%
X146325000Y-64500000D03*
X148150000Y-64500000D03*
%TD*%
D14*
%TO.C,D10*%
X166165000Y-62250000D03*
X167915000Y-62250000D03*
%TD*%
D11*
%TO.C,R4*%
X145337500Y-98000000D03*
X147162500Y-98000000D03*
%TD*%
D13*
%TO.C,D8*%
X169650000Y-91000000D03*
X172150000Y-91000000D03*
%TD*%
D10*
%TO.C,R22*%
X159580000Y-70292500D03*
X159580000Y-68467500D03*
%TD*%
D14*
%TO.C,D16*%
X126462500Y-62250000D03*
X128212500Y-62250000D03*
%TD*%
D11*
%TO.C,R12*%
X146262500Y-89000000D03*
X148087500Y-89000000D03*
%TD*%
D16*
%TO.C,U4*%
X146380000Y-82145000D03*
X148920000Y-82145000D03*
X148920000Y-73255000D03*
X146380000Y-73255000D03*
%TD*%
D12*
%TO.C,D21*%
X148000000Y-104750000D03*
X148000000Y-100750000D03*
%TD*%
M02*
