%TF.GenerationSoftware,KiCad,Pcbnew,9.0.7-9.0.7~ubuntu24.04.1*%
%TF.CreationDate,2026-01-13T16:30:02+01:00*%
%TF.ProjectId,digital_input,64696769-7461-46c5-9f69-6e7075742e6b,1.0*%
%TF.SameCoordinates,Original*%
%TF.FileFunction,Copper,L3,Inr*%
%TF.FilePolarity,Positive*%
%FSLAX46Y46*%
G04 Gerber Fmt 4.6, Leading zero omitted, Abs format (unit mm)*
G04 Created by KiCad (PCBNEW 9.0.7-9.0.7~ubuntu24.04.1) date 2026-01-13 16:30:02*
%MOMM*%
%LPD*%
G01*
G04 APERTURE LIST*
%TA.AperFunction,ComponentPad*%
%ADD10R,1.530000X1.530000*%
%TD*%
%TA.AperFunction,ComponentPad*%
%ADD11C,1.530000*%
%TD*%
%TA.AperFunction,ComponentPad*%
%ADD12R,1.650000X1.650000*%
%TD*%
%TA.AperFunction,ComponentPad*%
%ADD13C,1.650000*%
%TD*%
%TA.AperFunction,ViaPad*%
%ADD14C,0.500000*%
%TD*%
G04 APERTURE END LIST*
D10*
%TO.N,unconnected-(J3-Pin_1-Pad1)*%
%TO.C,J3*%
X180210000Y-52600000D03*
D11*
%TO.N,DI_4*%
X182750000Y-52600000D03*
%TO.N,unconnected-(J3-Pin_3-Pad3)*%
X180210000Y-55140000D03*
%TO.N,DI_5*%
X182750000Y-55140000D03*
%TO.N,unconnected-(J3-Pin_5-Pad5)*%
X180210000Y-57680000D03*
%TO.N,DI_6*%
X182750000Y-57680000D03*
%TO.N,unconnected-(J3-Pin_7-Pad7)*%
X180210000Y-60220000D03*
%TO.N,unconnected-(J3-Pin_8-Pad8)*%
X182750000Y-60220000D03*
%TO.N,GND*%
X180210000Y-62760000D03*
%TO.N,unconnected-(J3-Pin_10-Pad10)*%
X182750000Y-62760000D03*
%TO.N,unconnected-(J3-Pin_11-Pad11)*%
X180210000Y-65300000D03*
%TO.N,unconnected-(J3-Pin_12-Pad12)*%
X182750000Y-65300000D03*
%TO.N,unconnected-(J3-Pin_13-Pad13)*%
X180210000Y-67840000D03*
%TO.N,unconnected-(J3-Pin_14-Pad14)*%
X182750000Y-67840000D03*
%TO.N,unconnected-(J3-Pin_15-Pad15)*%
X180210000Y-70380000D03*
%TO.N,unconnected-(J3-Pin_16-Pad16)*%
X182750000Y-70380000D03*
%TO.N,unconnected-(J3-Pin_17-Pad17)*%
X180210000Y-72920000D03*
%TO.N,unconnected-(J3-Pin_18-Pad18)*%
X182750000Y-72920000D03*
%TO.N,unconnected-(J3-Pin_19-Pad19)*%
X180210000Y-75460000D03*
%TO.N,GND*%
X182750000Y-75460000D03*
%TO.N,unconnected-(J3-Pin_21-Pad21)*%
X180210000Y-78000000D03*
%TO.N,DI_7*%
X182750000Y-78000000D03*
%TO.N,unconnected-(J3-Pin_23-Pad23)*%
X180210000Y-80540000D03*
%TO.N,unconnected-(J3-Pin_24-Pad24)*%
X182750000Y-80540000D03*
%TO.N,unconnected-(J3-Pin_25-Pad25)*%
X180210000Y-83080000D03*
%TO.N,unconnected-(J3-Pin_26-Pad26)*%
X182750000Y-83080000D03*
%TO.N,unconnected-(J3-Pin_27-Pad27)*%
X180210000Y-85620000D03*
%TO.N,unconnected-(J3-Pin_28-Pad28)*%
X182750000Y-85620000D03*
%TO.N,unconnected-(J3-Pin_29-Pad29)*%
X180210000Y-88160000D03*
%TO.N,unconnected-(J3-Pin_30-Pad30)*%
X182750000Y-88160000D03*
%TO.N,unconnected-(J3-Pin_31-Pad31)*%
X180210000Y-90700000D03*
%TO.N,unconnected-(J3-Pin_32-Pad32)*%
X182750000Y-90700000D03*
%TO.N,unconnected-(J3-Pin_33-Pad33)*%
X180210000Y-93240000D03*
%TO.N,unconnected-(J3-Pin_34-Pad34)*%
X182750000Y-93240000D03*
%TO.N,unconnected-(J3-Pin_35-Pad35)*%
X180210000Y-95780000D03*
%TO.N,unconnected-(J3-Pin_36-Pad36)*%
X182750000Y-95780000D03*
%TO.N,unconnected-(J3-Pin_37-Pad37)*%
X180210000Y-98320000D03*
%TO.N,unconnected-(J3-Pin_38-Pad38)*%
X182750000Y-98320000D03*
%TO.N,unconnected-(J3-Pin_39-Pad39)*%
X180210000Y-100860000D03*
%TO.N,unconnected-(J3-Pin_40-Pad40)*%
X182750000Y-100860000D03*
%TO.N,unconnected-(J3-Pin_41-Pad41)*%
X180210000Y-103400000D03*
%TO.N,unconnected-(J3-Pin_42-Pad42)*%
X182750000Y-103400000D03*
%TO.N,unconnected-(J3-Pin_43-Pad43)*%
X180210000Y-105940000D03*
%TO.N,unconnected-(J3-Pin_44-Pad44)*%
X182750000Y-105940000D03*
%TO.N,unconnected-(J3-Pin_45-Pad45)*%
X180210000Y-108480000D03*
%TO.N,unconnected-(J3-Pin_46-Pad46)*%
X182750000Y-108480000D03*
%TD*%
D12*
%TO.N,DI_IN0*%
%TO.C,J1*%
X134880000Y-111000000D03*
D13*
%TO.N,DI_IN1*%
X137420000Y-111000000D03*
%TO.N,DI_IN2*%
X139960000Y-111000000D03*
%TO.N,DI_IN3*%
X142500000Y-111000000D03*
%TO.N,DI_IN4*%
X145040000Y-111000000D03*
%TO.N,DI_IN5*%
X147580000Y-111000000D03*
%TO.N,DI_IN6*%
X150120000Y-111000000D03*
%TO.N,DI_IN7*%
X152660000Y-111000000D03*
%TO.N,GNDREF*%
X155200000Y-111000000D03*
%TD*%
D10*
%TO.N,unconnected-(J2-Pin_1-Pad1)*%
%TO.C,J2*%
X119260000Y-52600000D03*
D11*
%TO.N,unconnected-(J2-Pin_2-Pad2)*%
X121800000Y-52600000D03*
%TO.N,unconnected-(J2-Pin_3-Pad3)*%
X119260000Y-55140000D03*
%TO.N,unconnected-(J2-Pin_4-Pad4)*%
X121800000Y-55140000D03*
%TO.N,unconnected-(J2-Pin_5-Pad5)*%
X119260000Y-57680000D03*
%TO.N,unconnected-(J2-Pin_6-Pad6)*%
X121800000Y-57680000D03*
%TO.N,unconnected-(J2-Pin_7-Pad7)*%
X119260000Y-60220000D03*
%TO.N,GND*%
X121800000Y-60220000D03*
%TO.N,unconnected-(J2-Pin_9-Pad9)*%
X119260000Y-62760000D03*
%TO.N,unconnected-(J2-Pin_10-Pad10)*%
X121800000Y-62760000D03*
%TO.N,unconnected-(J2-Pin_11-Pad11)*%
X119260000Y-65300000D03*
%TO.N,unconnected-(J2-Pin_12-Pad12)*%
X121800000Y-65300000D03*
%TO.N,unconnected-(J2-Pin_13-Pad13)*%
X119260000Y-67840000D03*
%TO.N,unconnected-(J2-Pin_14-Pad14)*%
X121800000Y-67840000D03*
%TO.N,unconnected-(J2-Pin_15-Pad15)*%
X119260000Y-70380000D03*
%TO.N,unconnected-(J2-Pin_16-Pad16)*%
X121800000Y-70380000D03*
%TO.N,unconnected-(J2-Pin_17-Pad17)*%
X119260000Y-72920000D03*
%TO.N,unconnected-(J2-Pin_18-Pad18)*%
X121800000Y-72920000D03*
%TO.N,GND*%
X119260000Y-75460000D03*
X121800000Y-75460000D03*
%TO.N,unconnected-(J2-Pin_21-Pad21)*%
X119260000Y-78000000D03*
%TO.N,GND*%
X121800000Y-78000000D03*
%TO.N,unconnected-(J2-Pin_23-Pad23)*%
X119260000Y-80540000D03*
%TO.N,unconnected-(J2-Pin_24-Pad24)*%
X121800000Y-80540000D03*
%TO.N,+3V3*%
X119260000Y-83080000D03*
%TO.N,unconnected-(J2-Pin_26-Pad26)*%
X121800000Y-83080000D03*
%TO.N,unconnected-(J2-Pin_27-Pad27)*%
X119260000Y-85620000D03*
%TO.N,unconnected-(J2-Pin_28-Pad28)*%
X121800000Y-85620000D03*
%TO.N,unconnected-(J2-Pin_29-Pad29)*%
X119260000Y-88160000D03*
%TO.N,unconnected-(J2-Pin_30-Pad30)*%
X121800000Y-88160000D03*
%TO.N,unconnected-(J2-Pin_31-Pad31)*%
X119260000Y-90700000D03*
%TO.N,unconnected-(J2-Pin_32-Pad32)*%
X121800000Y-90700000D03*
%TO.N,unconnected-(J2-Pin_33-Pad33)*%
X119260000Y-93240000D03*
%TO.N,unconnected-(J2-Pin_34-Pad34)*%
X121800000Y-93240000D03*
%TO.N,DI_1*%
X119260000Y-95780000D03*
%TO.N,DI_0*%
X121800000Y-95780000D03*
%TO.N,DI_3*%
X119260000Y-98320000D03*
%TO.N,DI_2*%
X121800000Y-98320000D03*
%TO.N,unconnected-(J2-Pin_39-Pad39)*%
X119260000Y-100860000D03*
%TO.N,unconnected-(J2-Pin_40-Pad40)*%
X121800000Y-100860000D03*
%TO.N,unconnected-(J2-Pin_41-Pad41)*%
X119260000Y-103400000D03*
%TO.N,unconnected-(J2-Pin_42-Pad42)*%
X121800000Y-103400000D03*
%TO.N,unconnected-(J2-Pin_43-Pad43)*%
X119260000Y-105940000D03*
%TO.N,unconnected-(J2-Pin_44-Pad44)*%
X121800000Y-105940000D03*
%TO.N,unconnected-(J2-Pin_45-Pad45)*%
X119260000Y-108480000D03*
%TO.N,unconnected-(J2-Pin_46-Pad46)*%
X121800000Y-108480000D03*
%TD*%
D14*
%TO.N,+3V3*%
X126600000Y-67200000D03*
X159600000Y-67200000D03*
X166300000Y-67200000D03*
X146400000Y-67200000D03*
X139800000Y-67200000D03*
X133200000Y-67200000D03*
X172900000Y-67200000D03*
X153000000Y-67200000D03*
%TO.N,GND*%
X165200000Y-62250000D03*
X139000000Y-62250000D03*
X158600000Y-62250000D03*
X152000000Y-62240000D03*
X145400000Y-62250000D03*
X132200000Y-62250000D03*
X125400000Y-62250000D03*
X171600000Y-62250000D03*
%TO.N,GNDREF*%
X142650000Y-86750000D03*
X129120000Y-84080000D03*
X166750000Y-102450000D03*
X139087500Y-99000000D03*
X157837500Y-99000000D03*
X135720000Y-84080000D03*
X151587500Y-99012500D03*
X149250000Y-86750000D03*
X132837500Y-99000000D03*
X148920000Y-84280000D03*
X148000000Y-102400000D03*
X168820000Y-84180000D03*
X168400000Y-86750000D03*
X135500000Y-102600000D03*
X136000000Y-86750000D03*
X141750000Y-102450000D03*
X164087500Y-99112500D03*
X130150000Y-86750000D03*
X160500000Y-102500000D03*
X170337500Y-99062500D03*
X145337500Y-99062500D03*
X154250000Y-102550000D03*
X173000000Y-102400000D03*
X162120000Y-84200000D03*
X175420000Y-84200000D03*
X155650000Y-86750000D03*
X129250000Y-102550000D03*
X174850000Y-86750000D03*
X162050000Y-86750000D03*
X142320000Y-84080000D03*
X126337500Y-98862500D03*
X155520000Y-84280000D03*
%TD*%
%TA.AperFunction,Conductor*%
%TO.N,GND*%
G36*
X121324755Y-78196853D02*
G01*
X121391898Y-78313147D01*
X121486853Y-78408102D01*
X121603147Y-78475245D01*
X121662425Y-78491128D01*
X121099134Y-79054417D01*
X121136994Y-79081924D01*
X121288722Y-79159234D01*
X121339518Y-79207209D01*
X121356313Y-79275030D01*
X121333776Y-79341165D01*
X121288723Y-79380203D01*
X121136735Y-79457645D01*
X121023997Y-79539555D01*
X120975582Y-79574731D01*
X120975580Y-79574733D01*
X120975579Y-79574733D01*
X120834733Y-79715579D01*
X120834733Y-79715580D01*
X120834731Y-79715582D01*
X120784447Y-79784790D01*
X120717647Y-79876733D01*
X120640485Y-80028172D01*
X120592510Y-80078968D01*
X120524689Y-80095763D01*
X120458554Y-80073225D01*
X120419515Y-80028172D01*
X120342352Y-79876733D01*
X120225269Y-79715582D01*
X120084418Y-79574731D01*
X119923266Y-79457647D01*
X119771827Y-79380485D01*
X119721031Y-79332510D01*
X119704236Y-79264689D01*
X119726773Y-79198554D01*
X119771827Y-79159515D01*
X119781116Y-79154781D01*
X119923266Y-79082353D01*
X120084418Y-78965269D01*
X120225269Y-78824418D01*
X120342353Y-78663266D01*
X120419795Y-78511276D01*
X120467769Y-78460481D01*
X120535590Y-78443686D01*
X120601725Y-78466223D01*
X120640765Y-78511277D01*
X120718077Y-78663008D01*
X120745580Y-78700863D01*
X120745581Y-78700864D01*
X121308871Y-78137574D01*
X121324755Y-78196853D01*
G37*
%TD.AperFunction*%
%TA.AperFunction,Conductor*%
G36*
X121324755Y-75656853D02*
G01*
X121391898Y-75773147D01*
X121486853Y-75868102D01*
X121603147Y-75935245D01*
X121662425Y-75951128D01*
X121099134Y-76514417D01*
X121136999Y-76541928D01*
X121289272Y-76619516D01*
X121340068Y-76667490D01*
X121356863Y-76735311D01*
X121334325Y-76801446D01*
X121289272Y-76840484D01*
X121136996Y-76918073D01*
X121136995Y-76918074D01*
X121099135Y-76945580D01*
X121099135Y-76945581D01*
X121662425Y-77508871D01*
X121603147Y-77524755D01*
X121486853Y-77591898D01*
X121391898Y-77686853D01*
X121324755Y-77803147D01*
X121308871Y-77862425D01*
X120745581Y-77299135D01*
X120745580Y-77299135D01*
X120718075Y-77336993D01*
X120640764Y-77488723D01*
X120592790Y-77539518D01*
X120524969Y-77556313D01*
X120458834Y-77533775D01*
X120419795Y-77488722D01*
X120342485Y-77336994D01*
X120342353Y-77336734D01*
X120225269Y-77175582D01*
X120084418Y-77034731D01*
X119923266Y-76917647D01*
X119923262Y-76917645D01*
X119771277Y-76840204D01*
X119720481Y-76792229D01*
X119703686Y-76724408D01*
X119726224Y-76658273D01*
X119771277Y-76619234D01*
X119923005Y-76541924D01*
X119960863Y-76514418D01*
X119960863Y-76514417D01*
X119397574Y-75951128D01*
X119456853Y-75935245D01*
X119573147Y-75868102D01*
X119668102Y-75773147D01*
X119735245Y-75656853D01*
X119751128Y-75597574D01*
X120314417Y-76160863D01*
X120314418Y-76160863D01*
X120341924Y-76123005D01*
X120419515Y-75970727D01*
X120467490Y-75919931D01*
X120535311Y-75903136D01*
X120601446Y-75925674D01*
X120640485Y-75970727D01*
X120718077Y-76123008D01*
X120745580Y-76160863D01*
X120745581Y-76160864D01*
X121308871Y-75597574D01*
X121324755Y-75656853D01*
G37*
%TD.AperFunction*%
%TA.AperFunction,Conductor*%
G36*
X120601446Y-73386773D02*
G01*
X120640485Y-73431827D01*
X120717647Y-73583266D01*
X120834731Y-73744418D01*
X120975582Y-73885269D01*
X121136734Y-74002353D01*
X121226909Y-74048299D01*
X121288722Y-74079795D01*
X121339518Y-74127770D01*
X121356313Y-74195591D01*
X121333776Y-74261726D01*
X121288723Y-74300764D01*
X121136993Y-74378075D01*
X121099135Y-74405580D01*
X121099135Y-74405581D01*
X121662425Y-74968871D01*
X121603147Y-74984755D01*
X121486853Y-75051898D01*
X121391898Y-75146853D01*
X121324755Y-75263147D01*
X121308871Y-75322425D01*
X120745581Y-74759135D01*
X120745580Y-74759135D01*
X120718074Y-74796995D01*
X120718073Y-74796996D01*
X120640484Y-74949272D01*
X120592510Y-75000068D01*
X120524689Y-75016863D01*
X120458554Y-74994325D01*
X120419516Y-74949272D01*
X120341928Y-74796999D01*
X120314417Y-74759135D01*
X120314417Y-74759134D01*
X119751128Y-75322424D01*
X119735245Y-75263147D01*
X119668102Y-75146853D01*
X119573147Y-75051898D01*
X119456853Y-74984755D01*
X119397574Y-74968871D01*
X119960864Y-74405581D01*
X119960863Y-74405580D01*
X119923008Y-74378077D01*
X119771277Y-74300765D01*
X119720481Y-74252790D01*
X119703686Y-74184969D01*
X119726224Y-74118834D01*
X119771277Y-74079795D01*
X119771827Y-74079515D01*
X119923266Y-74002353D01*
X120084418Y-73885269D01*
X120225269Y-73744418D01*
X120342353Y-73583266D01*
X120419515Y-73431827D01*
X120467490Y-73381031D01*
X120535311Y-73364236D01*
X120601446Y-73386773D01*
G37*
%TD.AperFunction*%
%TA.AperFunction,Conductor*%
G36*
X121324755Y-60416853D02*
G01*
X121391898Y-60533147D01*
X121486853Y-60628102D01*
X121603147Y-60695245D01*
X121662425Y-60711128D01*
X121099134Y-61274417D01*
X121136994Y-61301924D01*
X121288722Y-61379234D01*
X121339518Y-61427209D01*
X121356313Y-61495030D01*
X121333776Y-61561165D01*
X121288723Y-61600203D01*
X121136735Y-61677645D01*
X121023997Y-61759555D01*
X120975582Y-61794731D01*
X120975580Y-61794733D01*
X120975579Y-61794733D01*
X120834733Y-61935579D01*
X120834733Y-61935580D01*
X120834731Y-61935582D01*
X120784447Y-62004790D01*
X120717647Y-62096733D01*
X120640485Y-62248172D01*
X120592510Y-62298968D01*
X120524689Y-62315763D01*
X120458554Y-62293225D01*
X120419515Y-62248172D01*
X120342483Y-62096990D01*
X120342353Y-62096734D01*
X120225269Y-61935582D01*
X120084418Y-61794731D01*
X119923266Y-61677647D01*
X119923262Y-61677645D01*
X119771827Y-61600485D01*
X119721031Y-61552510D01*
X119704236Y-61484689D01*
X119726773Y-61418554D01*
X119771827Y-61379515D01*
X119781116Y-61374781D01*
X119923266Y-61302353D01*
X120084418Y-61185269D01*
X120225269Y-61044418D01*
X120342353Y-60883266D01*
X120419795Y-60731276D01*
X120467769Y-60680481D01*
X120535590Y-60663686D01*
X120601725Y-60686223D01*
X120640765Y-60731277D01*
X120718077Y-60883008D01*
X120745580Y-60920863D01*
X120745581Y-60920864D01*
X121308871Y-60357574D01*
X121324755Y-60416853D01*
G37*
%TD.AperFunction*%
%TA.AperFunction,Conductor*%
G36*
X120601446Y-58146773D02*
G01*
X120640485Y-58191827D01*
X120717647Y-58343266D01*
X120834731Y-58504418D01*
X120975582Y-58645269D01*
X121136734Y-58762353D01*
X121226909Y-58808299D01*
X121288722Y-58839795D01*
X121339518Y-58887770D01*
X121356313Y-58955591D01*
X121333776Y-59021726D01*
X121288723Y-59060764D01*
X121136993Y-59138075D01*
X121099135Y-59165580D01*
X121099135Y-59165581D01*
X121662425Y-59728871D01*
X121603147Y-59744755D01*
X121486853Y-59811898D01*
X121391898Y-59906853D01*
X121324755Y-60023147D01*
X121308871Y-60082425D01*
X120745581Y-59519135D01*
X120745580Y-59519135D01*
X120718075Y-59556993D01*
X120640764Y-59708723D01*
X120592790Y-59759518D01*
X120524969Y-59776313D01*
X120458834Y-59753775D01*
X120419795Y-59708722D01*
X120342485Y-59556994D01*
X120342353Y-59556734D01*
X120225269Y-59395582D01*
X120084418Y-59254731D01*
X119923266Y-59137647D01*
X119771827Y-59060485D01*
X119721031Y-59012510D01*
X119704236Y-58944689D01*
X119726773Y-58878554D01*
X119771827Y-58839515D01*
X119781116Y-58834781D01*
X119923266Y-58762353D01*
X120084418Y-58645269D01*
X120225269Y-58504418D01*
X120342353Y-58343266D01*
X120419515Y-58191827D01*
X120467490Y-58141031D01*
X120535311Y-58124236D01*
X120601446Y-58146773D01*
G37*
%TD.AperFunction*%
%TA.AperFunction,Conductor*%
G36*
X182274755Y-75656853D02*
G01*
X182341898Y-75773147D01*
X182436853Y-75868102D01*
X182553147Y-75935245D01*
X182612425Y-75951128D01*
X182049134Y-76514417D01*
X182086994Y-76541924D01*
X182238722Y-76619234D01*
X182289518Y-76667209D01*
X182306313Y-76735030D01*
X182283776Y-76801165D01*
X182238723Y-76840203D01*
X182086735Y-76917645D01*
X181973997Y-76999555D01*
X181925582Y-77034731D01*
X181925580Y-77034733D01*
X181925579Y-77034733D01*
X181784733Y-77175579D01*
X181784733Y-77175580D01*
X181784731Y-77175582D01*
X181734447Y-77244790D01*
X181667647Y-77336733D01*
X181590485Y-77488172D01*
X181542510Y-77538968D01*
X181474689Y-77555763D01*
X181408554Y-77533225D01*
X181369515Y-77488172D01*
X181292485Y-77336994D01*
X181292353Y-77336734D01*
X181175269Y-77175582D01*
X181034418Y-77034731D01*
X180873266Y-76917647D01*
X180721827Y-76840485D01*
X180671031Y-76792510D01*
X180654236Y-76724689D01*
X180676773Y-76658554D01*
X180721827Y-76619515D01*
X180731116Y-76614781D01*
X180873266Y-76542353D01*
X181034418Y-76425269D01*
X181175269Y-76284418D01*
X181292353Y-76123266D01*
X181369795Y-75971276D01*
X181417769Y-75920481D01*
X181485590Y-75903686D01*
X181551725Y-75926223D01*
X181590765Y-75971277D01*
X181668077Y-76123008D01*
X181695580Y-76160863D01*
X181695581Y-76160864D01*
X182258871Y-75597574D01*
X182274755Y-75656853D01*
G37*
%TD.AperFunction*%
%TA.AperFunction,Conductor*%
G36*
X181551446Y-73386773D02*
G01*
X181590485Y-73431827D01*
X181667647Y-73583266D01*
X181784731Y-73744418D01*
X181925582Y-73885269D01*
X182086734Y-74002353D01*
X182176909Y-74048299D01*
X182238722Y-74079795D01*
X182289518Y-74127770D01*
X182306313Y-74195591D01*
X182283776Y-74261726D01*
X182238723Y-74300764D01*
X182086993Y-74378075D01*
X182049135Y-74405580D01*
X182049135Y-74405581D01*
X182612425Y-74968871D01*
X182553147Y-74984755D01*
X182436853Y-75051898D01*
X182341898Y-75146853D01*
X182274755Y-75263147D01*
X182258871Y-75322425D01*
X181695581Y-74759135D01*
X181695580Y-74759135D01*
X181668075Y-74796993D01*
X181590764Y-74948723D01*
X181542790Y-74999518D01*
X181474969Y-75016313D01*
X181408834Y-74993775D01*
X181369795Y-74948722D01*
X181292486Y-74796996D01*
X181292353Y-74796734D01*
X181175269Y-74635582D01*
X181034418Y-74494731D01*
X180873266Y-74377647D01*
X180721827Y-74300485D01*
X180671031Y-74252510D01*
X180654236Y-74184689D01*
X180676773Y-74118554D01*
X180721827Y-74079515D01*
X180731116Y-74074781D01*
X180873266Y-74002353D01*
X181034418Y-73885269D01*
X181175269Y-73744418D01*
X181292353Y-73583266D01*
X181369515Y-73431827D01*
X181417490Y-73381031D01*
X181485311Y-73364236D01*
X181551446Y-73386773D01*
G37*
%TD.AperFunction*%
%TA.AperFunction,Conductor*%
G36*
X181264417Y-63460863D02*
G01*
X181264418Y-63460863D01*
X181291924Y-63423005D01*
X181369234Y-63271277D01*
X181417208Y-63220481D01*
X181485029Y-63203686D01*
X181551164Y-63226223D01*
X181590204Y-63271277D01*
X181667514Y-63423005D01*
X181667647Y-63423266D01*
X181784731Y-63584418D01*
X181925582Y-63725269D01*
X182086734Y-63842353D01*
X182156453Y-63877877D01*
X182238172Y-63919515D01*
X182288968Y-63967490D01*
X182305763Y-64035311D01*
X182283225Y-64101446D01*
X182238172Y-64140485D01*
X182086733Y-64217647D01*
X181994790Y-64284447D01*
X181925582Y-64334731D01*
X181925580Y-64334733D01*
X181925579Y-64334733D01*
X181784733Y-64475579D01*
X181784733Y-64475580D01*
X181784731Y-64475582D01*
X181734447Y-64544790D01*
X181667647Y-64636733D01*
X181590485Y-64788172D01*
X181542510Y-64838968D01*
X181474689Y-64855763D01*
X181408554Y-64833225D01*
X181369515Y-64788172D01*
X181292352Y-64636733D01*
X181175269Y-64475582D01*
X181034418Y-64334731D01*
X180873266Y-64217647D01*
X180873262Y-64217645D01*
X180721277Y-64140204D01*
X180670481Y-64092229D01*
X180653686Y-64024408D01*
X180676224Y-63958273D01*
X180721277Y-63919234D01*
X180873005Y-63841924D01*
X180910863Y-63814418D01*
X180910863Y-63814417D01*
X180347574Y-63251128D01*
X180406853Y-63235245D01*
X180523147Y-63168102D01*
X180618102Y-63073147D01*
X180685245Y-62956853D01*
X180701128Y-62897574D01*
X181264417Y-63460863D01*
G37*
%TD.AperFunction*%
%TA.AperFunction,Conductor*%
G36*
X181551446Y-60686773D02*
G01*
X181590485Y-60731827D01*
X181667647Y-60883266D01*
X181784731Y-61044418D01*
X181925582Y-61185269D01*
X182086734Y-61302353D01*
X182156453Y-61337877D01*
X182238172Y-61379515D01*
X182288968Y-61427490D01*
X182305763Y-61495311D01*
X182283225Y-61561446D01*
X182238172Y-61600485D01*
X182086733Y-61677647D01*
X182048286Y-61705581D01*
X181925582Y-61794731D01*
X181925580Y-61794733D01*
X181925579Y-61794733D01*
X181784733Y-61935579D01*
X181784733Y-61935580D01*
X181784731Y-61935582D01*
X181749555Y-61983997D01*
X181667645Y-62096735D01*
X181590203Y-62248723D01*
X181542229Y-62299518D01*
X181474408Y-62316313D01*
X181408273Y-62293775D01*
X181369234Y-62248722D01*
X181291924Y-62096994D01*
X181264417Y-62059135D01*
X181264417Y-62059134D01*
X180701128Y-62622424D01*
X180685245Y-62563147D01*
X180618102Y-62446853D01*
X180523147Y-62351898D01*
X180406853Y-62284755D01*
X180347574Y-62268871D01*
X180910864Y-61705581D01*
X180910863Y-61705580D01*
X180873008Y-61678077D01*
X180721277Y-61600765D01*
X180670481Y-61552790D01*
X180653686Y-61484969D01*
X180676224Y-61418834D01*
X180721277Y-61379795D01*
X180722378Y-61379234D01*
X180873266Y-61302353D01*
X181034418Y-61185269D01*
X181175269Y-61044418D01*
X181292353Y-60883266D01*
X181369515Y-60731827D01*
X181417490Y-60681031D01*
X181485311Y-60664236D01*
X181551446Y-60686773D01*
G37*
%TD.AperFunction*%
%TA.AperFunction,Conductor*%
G36*
X134996061Y-48761097D02*
G01*
X135006051Y-48762080D01*
X135133824Y-48774665D01*
X135157652Y-48779404D01*
X135284277Y-48817815D01*
X135306725Y-48827114D01*
X135423406Y-48889482D01*
X135443616Y-48902986D01*
X135545891Y-48986920D01*
X135563079Y-49004108D01*
X135647012Y-49106381D01*
X135660517Y-49126593D01*
X135722883Y-49243271D01*
X135732186Y-49265728D01*
X135770593Y-49392338D01*
X135775335Y-49416180D01*
X135788903Y-49553938D01*
X135789500Y-49566092D01*
X135789500Y-56324486D01*
X135819059Y-56511118D01*
X135877454Y-56690836D01*
X135907854Y-56750498D01*
X135963240Y-56859199D01*
X136074310Y-57012073D01*
X136207927Y-57145690D01*
X136360801Y-57256760D01*
X136440347Y-57297290D01*
X136529163Y-57342545D01*
X136529165Y-57342545D01*
X136529168Y-57342547D01*
X136625497Y-57373846D01*
X136708881Y-57400940D01*
X136895514Y-57430500D01*
X136895519Y-57430500D01*
X165084486Y-57430500D01*
X165271118Y-57400940D01*
X165450832Y-57342547D01*
X165619199Y-57256760D01*
X165772073Y-57145690D01*
X165905690Y-57012073D01*
X166016760Y-56859199D01*
X166102547Y-56690832D01*
X166160940Y-56511118D01*
X166171106Y-56446934D01*
X166190500Y-56324486D01*
X166190500Y-54810684D01*
X173299500Y-54810684D01*
X173299500Y-55049315D01*
X173299501Y-55049332D01*
X173324549Y-55239596D01*
X173330649Y-55285924D01*
X173330739Y-55286260D01*
X173392415Y-55516436D01*
X173483734Y-55736902D01*
X173483740Y-55736914D01*
X173603062Y-55943586D01*
X173603064Y-55943589D01*
X173603065Y-55943590D01*
X173748337Y-56132912D01*
X173748343Y-56132919D01*
X173917080Y-56301656D01*
X173917086Y-56301661D01*
X174106414Y-56446938D01*
X174313086Y-56566260D01*
X174313091Y-56566262D01*
X174313097Y-56566265D01*
X174388861Y-56597647D01*
X174533564Y-56657585D01*
X174764076Y-56719351D01*
X175000678Y-56750500D01*
X175000685Y-56750500D01*
X175239315Y-56750500D01*
X175239322Y-56750500D01*
X175475924Y-56719351D01*
X175706436Y-56657585D01*
X175926914Y-56566260D01*
X176133586Y-56446938D01*
X176322914Y-56301661D01*
X176491661Y-56132914D01*
X176636938Y-55943586D01*
X176756260Y-55736914D01*
X176847585Y-55516436D01*
X176909351Y-55285924D01*
X176940500Y-55049322D01*
X176940500Y-54810678D01*
X176909351Y-54574076D01*
X176847585Y-54343564D01*
X176756260Y-54123086D01*
X176636938Y-53916414D01*
X176524065Y-53769315D01*
X176491662Y-53727087D01*
X176491656Y-53727080D01*
X176322919Y-53558343D01*
X176322912Y-53558337D01*
X176133590Y-53413065D01*
X176133589Y-53413064D01*
X176133586Y-53413062D01*
X175926914Y-53293740D01*
X175926902Y-53293734D01*
X175706436Y-53202415D01*
X175475920Y-53140648D01*
X175239332Y-53109501D01*
X175239327Y-53109500D01*
X175239322Y-53109500D01*
X175000678Y-53109500D01*
X175000672Y-53109500D01*
X175000667Y-53109501D01*
X174764079Y-53140648D01*
X174533563Y-53202415D01*
X174313097Y-53293734D01*
X174313083Y-53293741D01*
X174162927Y-53380434D01*
X174106742Y-53412873D01*
X174106409Y-53413065D01*
X173917087Y-53558337D01*
X173917080Y-53558343D01*
X173748343Y-53727080D01*
X173748337Y-53727087D01*
X173603065Y-53916409D01*
X173483741Y-54123083D01*
X173483734Y-54123097D01*
X173392415Y-54343563D01*
X173330648Y-54574079D01*
X173299501Y-54810667D01*
X173299500Y-54810684D01*
X166190500Y-54810684D01*
X166190500Y-51787135D01*
X178944500Y-51787135D01*
X178944500Y-53412870D01*
X178944501Y-53412876D01*
X178950908Y-53472483D01*
X179001202Y-53607328D01*
X179001206Y-53607335D01*
X179087452Y-53722544D01*
X179087455Y-53722547D01*
X179202664Y-53808793D01*
X179202671Y-53808797D01*
X179337517Y-53859091D01*
X179337516Y-53859091D01*
X179344444Y-53859835D01*
X179397127Y-53865500D01*
X179429568Y-53865499D01*
X179496605Y-53885182D01*
X179542361Y-53937984D01*
X179552306Y-54007143D01*
X179523283Y-54070699D01*
X179502455Y-54089816D01*
X179385582Y-54174730D01*
X179244733Y-54315579D01*
X179244733Y-54315580D01*
X179244731Y-54315582D01*
X179224402Y-54343563D01*
X179127647Y-54476733D01*
X179037213Y-54654219D01*
X178975661Y-54843656D01*
X178975661Y-54843659D01*
X178973022Y-54860323D01*
X178944500Y-55040403D01*
X178944500Y-55239597D01*
X178951837Y-55285920D01*
X178975661Y-55436340D01*
X178975661Y-55436343D01*
X179037213Y-55625780D01*
X179050485Y-55651827D01*
X179127647Y-55803266D01*
X179244731Y-55964418D01*
X179385582Y-56105269D01*
X179546734Y-56222353D01*
X179616453Y-56257877D01*
X179698172Y-56299515D01*
X179748968Y-56347490D01*
X179765763Y-56415311D01*
X179743225Y-56481446D01*
X179698172Y-56520485D01*
X179546733Y-56597647D01*
X179454790Y-56664447D01*
X179385582Y-56714731D01*
X179385580Y-56714733D01*
X179385579Y-56714733D01*
X179244733Y-56855579D01*
X179244733Y-56855580D01*
X179244731Y-56855582D01*
X179194447Y-56924790D01*
X179127647Y-57016733D01*
X179037213Y-57194219D01*
X178975661Y-57383656D01*
X178975661Y-57383659D01*
X178944500Y-57580403D01*
X178944500Y-57779596D01*
X178975661Y-57976340D01*
X178975661Y-57976343D01*
X179037213Y-58165780D01*
X179037215Y-58165783D01*
X179127647Y-58343266D01*
X179244731Y-58504418D01*
X179385582Y-58645269D01*
X179546734Y-58762353D01*
X179616453Y-58797877D01*
X179698172Y-58839515D01*
X179748968Y-58887490D01*
X179765763Y-58955311D01*
X179743225Y-59021446D01*
X179698172Y-59060485D01*
X179546733Y-59137647D01*
X179508286Y-59165581D01*
X179385582Y-59254731D01*
X179385580Y-59254733D01*
X179385579Y-59254733D01*
X179244733Y-59395579D01*
X179244733Y-59395580D01*
X179244731Y-59395582D01*
X179194447Y-59464790D01*
X179127647Y-59556733D01*
X179037213Y-59734219D01*
X178975661Y-59923656D01*
X178975661Y-59923659D01*
X178944500Y-60120403D01*
X178944500Y-60319596D01*
X178975661Y-60516340D01*
X178975661Y-60516343D01*
X179037213Y-60705780D01*
X179050485Y-60731827D01*
X179127647Y-60883266D01*
X179244731Y-61044418D01*
X179385582Y-61185269D01*
X179546734Y-61302353D01*
X179636909Y-61348299D01*
X179698722Y-61379795D01*
X179749518Y-61427770D01*
X179766313Y-61495591D01*
X179743776Y-61561726D01*
X179698723Y-61600764D01*
X179546993Y-61678075D01*
X179509135Y-61705580D01*
X179509135Y-61705581D01*
X180072425Y-62268871D01*
X180013147Y-62284755D01*
X179896853Y-62351898D01*
X179801898Y-62446853D01*
X179734755Y-62563147D01*
X179718871Y-62622425D01*
X179155581Y-62059135D01*
X179155580Y-62059135D01*
X179128077Y-62096990D01*
X179037679Y-62274405D01*
X178976147Y-62463777D01*
X178945000Y-62660436D01*
X178945000Y-62859563D01*
X178976147Y-63056222D01*
X179037679Y-63245594D01*
X179128077Y-63423008D01*
X179155580Y-63460863D01*
X179155581Y-63460864D01*
X179718871Y-62897574D01*
X179734755Y-62956853D01*
X179801898Y-63073147D01*
X179896853Y-63168102D01*
X180013147Y-63235245D01*
X180072425Y-63251128D01*
X179509134Y-63814417D01*
X179546994Y-63841924D01*
X179698722Y-63919234D01*
X179749518Y-63967209D01*
X179766313Y-64035030D01*
X179743776Y-64101165D01*
X179698723Y-64140203D01*
X179546735Y-64217645D01*
X179433997Y-64299555D01*
X179385582Y-64334731D01*
X179385580Y-64334733D01*
X179385579Y-64334733D01*
X179244733Y-64475579D01*
X179244733Y-64475580D01*
X179244731Y-64475582D01*
X179194447Y-64544790D01*
X179127647Y-64636733D01*
X179037213Y-64814219D01*
X178975661Y-65003656D01*
X178975661Y-65003659D01*
X178944500Y-65200403D01*
X178944500Y-65399596D01*
X178975661Y-65596340D01*
X178975661Y-65596343D01*
X179037213Y-65785780D01*
X179050485Y-65811827D01*
X179127647Y-65963266D01*
X179244731Y-66124418D01*
X179385582Y-66265269D01*
X179546734Y-66382353D01*
X179616453Y-66417877D01*
X179698172Y-66459515D01*
X179748968Y-66507490D01*
X179765763Y-66575311D01*
X179743225Y-66641446D01*
X179698172Y-66680485D01*
X179546733Y-66757647D01*
X179454790Y-66824447D01*
X179385582Y-66874731D01*
X179385580Y-66874733D01*
X179385579Y-66874733D01*
X179244733Y-67015579D01*
X179244733Y-67015580D01*
X179244731Y-67015582D01*
X179194447Y-67084790D01*
X179127647Y-67176733D01*
X179037213Y-67354219D01*
X178975661Y-67543656D01*
X178975661Y-67543659D01*
X178944500Y-67740403D01*
X178944500Y-67939596D01*
X178975661Y-68136340D01*
X178975661Y-68136343D01*
X179037213Y-68325780D01*
X179050485Y-68351827D01*
X179127647Y-68503266D01*
X179244731Y-68664418D01*
X179385582Y-68805269D01*
X179546734Y-68922353D01*
X179616453Y-68957877D01*
X179698172Y-68999515D01*
X179748968Y-69047490D01*
X179765763Y-69115311D01*
X179743225Y-69181446D01*
X179698172Y-69220485D01*
X179546733Y-69297647D01*
X179454790Y-69364447D01*
X179385582Y-69414731D01*
X179385580Y-69414733D01*
X179385579Y-69414733D01*
X179244733Y-69555579D01*
X179244733Y-69555580D01*
X179244731Y-69555582D01*
X179194447Y-69624790D01*
X179127647Y-69716733D01*
X179037213Y-69894219D01*
X178975661Y-70083656D01*
X178975661Y-70083659D01*
X178944500Y-70280403D01*
X178944500Y-70479596D01*
X178975661Y-70676340D01*
X178975661Y-70676343D01*
X179037213Y-70865780D01*
X179050485Y-70891827D01*
X179127647Y-71043266D01*
X179244731Y-71204418D01*
X179385582Y-71345269D01*
X179546734Y-71462353D01*
X179616453Y-71497877D01*
X179698172Y-71539515D01*
X179748968Y-71587490D01*
X179765763Y-71655311D01*
X179743225Y-71721446D01*
X179698172Y-71760485D01*
X179546733Y-71837647D01*
X179454790Y-71904447D01*
X179385582Y-71954731D01*
X179385580Y-71954733D01*
X179385579Y-71954733D01*
X179244733Y-72095579D01*
X179244733Y-72095580D01*
X179244731Y-72095582D01*
X179194447Y-72164790D01*
X179127647Y-72256733D01*
X179037213Y-72434219D01*
X178975661Y-72623656D01*
X178975661Y-72623659D01*
X178944500Y-72820403D01*
X178944500Y-73019596D01*
X178975661Y-73216340D01*
X178975661Y-73216343D01*
X179037213Y-73405780D01*
X179037215Y-73405783D01*
X179127647Y-73583266D01*
X179244731Y-73744418D01*
X179385582Y-73885269D01*
X179546734Y-74002353D01*
X179616453Y-74037877D01*
X179698172Y-74079515D01*
X179748968Y-74127490D01*
X179765763Y-74195311D01*
X179743225Y-74261446D01*
X179698172Y-74300485D01*
X179546733Y-74377647D01*
X179508286Y-74405581D01*
X179385582Y-74494731D01*
X179385580Y-74494733D01*
X179385579Y-74494733D01*
X179244733Y-74635579D01*
X179244733Y-74635580D01*
X179244731Y-74635582D01*
X179194447Y-74704790D01*
X179127647Y-74796733D01*
X179037213Y-74974219D01*
X178975661Y-75163656D01*
X178975661Y-75163659D01*
X178944500Y-75360403D01*
X178944500Y-75559596D01*
X178975661Y-75756340D01*
X178975661Y-75756343D01*
X179037213Y-75945780D01*
X179127514Y-76123005D01*
X179127647Y-76123266D01*
X179244731Y-76284418D01*
X179385582Y-76425269D01*
X179546734Y-76542353D01*
X179616453Y-76577877D01*
X179698172Y-76619515D01*
X179748968Y-76667490D01*
X179765763Y-76735311D01*
X179743225Y-76801446D01*
X179698172Y-76840485D01*
X179546733Y-76917647D01*
X179508286Y-76945581D01*
X179385582Y-77034731D01*
X179385580Y-77034733D01*
X179385579Y-77034733D01*
X179244733Y-77175579D01*
X179244733Y-77175580D01*
X179244731Y-77175582D01*
X179194447Y-77244790D01*
X179127647Y-77336733D01*
X179037213Y-77514219D01*
X178975661Y-77703656D01*
X178975661Y-77703659D01*
X178944500Y-77900403D01*
X178944500Y-78099596D01*
X178975661Y-78296340D01*
X178975661Y-78296343D01*
X179037213Y-78485780D01*
X179107645Y-78624010D01*
X179127647Y-78663266D01*
X179244731Y-78824418D01*
X179385582Y-78965269D01*
X179546734Y-79082353D01*
X179616453Y-79117877D01*
X179698172Y-79159515D01*
X179748968Y-79207490D01*
X179765763Y-79275311D01*
X179743225Y-79341446D01*
X179698172Y-79380485D01*
X179546733Y-79457647D01*
X179454790Y-79524447D01*
X179385582Y-79574731D01*
X179385580Y-79574733D01*
X179385579Y-79574733D01*
X179244733Y-79715579D01*
X179244733Y-79715580D01*
X179244731Y-79715582D01*
X179194447Y-79784790D01*
X179127647Y-79876733D01*
X179037213Y-80054219D01*
X178975661Y-80243656D01*
X178975661Y-80243659D01*
X178944500Y-80440403D01*
X178944500Y-80639596D01*
X178975661Y-80836340D01*
X178975661Y-80836343D01*
X179037213Y-81025780D01*
X179050485Y-81051827D01*
X179127647Y-81203266D01*
X179244731Y-81364418D01*
X179385582Y-81505269D01*
X179546734Y-81622353D01*
X179616453Y-81657877D01*
X179698172Y-81699515D01*
X179748968Y-81747490D01*
X179765763Y-81815311D01*
X179743225Y-81881446D01*
X179698172Y-81920485D01*
X179546733Y-81997647D01*
X179454790Y-82064447D01*
X179385582Y-82114731D01*
X179385580Y-82114733D01*
X179385579Y-82114733D01*
X179244733Y-82255579D01*
X179244733Y-82255580D01*
X179244731Y-82255582D01*
X179194447Y-82324790D01*
X179127647Y-82416733D01*
X179037213Y-82594219D01*
X178975661Y-82783656D01*
X178975661Y-82783659D01*
X178944500Y-82980403D01*
X178944500Y-83179596D01*
X178975661Y-83376340D01*
X178975661Y-83376343D01*
X179037213Y-83565780D01*
X179050485Y-83591827D01*
X179127647Y-83743266D01*
X179244731Y-83904418D01*
X179385582Y-84045269D01*
X179546734Y-84162353D01*
X179616453Y-84197877D01*
X179698172Y-84239515D01*
X179748968Y-84287490D01*
X179765763Y-84355311D01*
X179743225Y-84421446D01*
X179698172Y-84460485D01*
X179546733Y-84537647D01*
X179454790Y-84604447D01*
X179385582Y-84654731D01*
X179385580Y-84654733D01*
X179385579Y-84654733D01*
X179244733Y-84795579D01*
X179244733Y-84795580D01*
X179244731Y-84795582D01*
X179194447Y-84864790D01*
X179127647Y-84956733D01*
X179037213Y-85134219D01*
X178975661Y-85323656D01*
X178975661Y-85323659D01*
X178944500Y-85520403D01*
X178944500Y-85719596D01*
X178975661Y-85916340D01*
X178975661Y-85916343D01*
X179037213Y-86105780D01*
X179050485Y-86131827D01*
X179127647Y-86283266D01*
X179244731Y-86444418D01*
X179385582Y-86585269D01*
X179546734Y-86702353D01*
X179616453Y-86737877D01*
X179698172Y-86779515D01*
X179748968Y-86827490D01*
X179765763Y-86895311D01*
X179743225Y-86961446D01*
X179698172Y-87000485D01*
X179546733Y-87077647D01*
X179454790Y-87144447D01*
X179385582Y-87194731D01*
X179385580Y-87194733D01*
X179385579Y-87194733D01*
X179244733Y-87335579D01*
X179244733Y-87335580D01*
X179244731Y-87335582D01*
X179194447Y-87404790D01*
X179127647Y-87496733D01*
X179037213Y-87674219D01*
X178975661Y-87863656D01*
X178975661Y-87863659D01*
X178944500Y-88060403D01*
X178944500Y-88259596D01*
X178975661Y-88456340D01*
X178975661Y-88456343D01*
X179037213Y-88645780D01*
X179050485Y-88671827D01*
X179127647Y-88823266D01*
X179244731Y-88984418D01*
X179385582Y-89125269D01*
X179546734Y-89242353D01*
X179616453Y-89277877D01*
X179698172Y-89319515D01*
X179748968Y-89367490D01*
X179765763Y-89435311D01*
X179743225Y-89501446D01*
X179698172Y-89540485D01*
X179546733Y-89617647D01*
X179454790Y-89684447D01*
X179385582Y-89734731D01*
X179385580Y-89734733D01*
X179385579Y-89734733D01*
X179244733Y-89875579D01*
X179244733Y-89875580D01*
X179244731Y-89875582D01*
X179194447Y-89944790D01*
X179127647Y-90036733D01*
X179037213Y-90214219D01*
X178975661Y-90403656D01*
X178975661Y-90403659D01*
X178944500Y-90600403D01*
X178944500Y-90799596D01*
X178975661Y-90996340D01*
X178975661Y-90996343D01*
X179037213Y-91185780D01*
X179050485Y-91211827D01*
X179127647Y-91363266D01*
X179244731Y-91524418D01*
X179385582Y-91665269D01*
X179546734Y-91782353D01*
X179616453Y-91817877D01*
X179698172Y-91859515D01*
X179748968Y-91907490D01*
X179765763Y-91975311D01*
X179743225Y-92041446D01*
X179698172Y-92080485D01*
X179546733Y-92157647D01*
X179454790Y-92224447D01*
X179385582Y-92274731D01*
X179385580Y-92274733D01*
X179385579Y-92274733D01*
X179244733Y-92415579D01*
X179244733Y-92415580D01*
X179244731Y-92415582D01*
X179194447Y-92484790D01*
X179127647Y-92576733D01*
X179037213Y-92754219D01*
X178975661Y-92943656D01*
X178975661Y-92943659D01*
X178944500Y-93140403D01*
X178944500Y-93339596D01*
X178975661Y-93536340D01*
X178975661Y-93536343D01*
X179037213Y-93725780D01*
X179050485Y-93751827D01*
X179127647Y-93903266D01*
X179244731Y-94064418D01*
X179385582Y-94205269D01*
X179546734Y-94322353D01*
X179616453Y-94357877D01*
X179698172Y-94399515D01*
X179748968Y-94447490D01*
X179765763Y-94515311D01*
X179743225Y-94581446D01*
X179698172Y-94620485D01*
X179546733Y-94697647D01*
X179454790Y-94764447D01*
X179385582Y-94814731D01*
X179385580Y-94814733D01*
X179385579Y-94814733D01*
X179244733Y-94955579D01*
X179244733Y-94955580D01*
X179244731Y-94955582D01*
X179194447Y-95024790D01*
X179127647Y-95116733D01*
X179037213Y-95294219D01*
X178975661Y-95483656D01*
X178975661Y-95483659D01*
X178944500Y-95680403D01*
X178944500Y-95879596D01*
X178975661Y-96076340D01*
X178975661Y-96076343D01*
X179037213Y-96265780D01*
X179050485Y-96291827D01*
X179127647Y-96443266D01*
X179244731Y-96604418D01*
X179385582Y-96745269D01*
X179546734Y-96862353D01*
X179616453Y-96897877D01*
X179698172Y-96939515D01*
X179748968Y-96987490D01*
X179765763Y-97055311D01*
X179743225Y-97121446D01*
X179698172Y-97160485D01*
X179546733Y-97237647D01*
X179454790Y-97304447D01*
X179385582Y-97354731D01*
X179385580Y-97354733D01*
X179385579Y-97354733D01*
X179244733Y-97495579D01*
X179244733Y-97495580D01*
X179244731Y-97495582D01*
X179194447Y-97564790D01*
X179127647Y-97656733D01*
X179037213Y-97834219D01*
X178975661Y-98023656D01*
X178975661Y-98023659D01*
X178944500Y-98220403D01*
X178944500Y-98419596D01*
X178975661Y-98616340D01*
X178975661Y-98616343D01*
X179037213Y-98805780D01*
X179050485Y-98831827D01*
X179127647Y-98983266D01*
X179244731Y-99144418D01*
X179385582Y-99285269D01*
X179546734Y-99402353D01*
X179616453Y-99437877D01*
X179698172Y-99479515D01*
X179748968Y-99527490D01*
X179765763Y-99595311D01*
X179743225Y-99661446D01*
X179698172Y-99700485D01*
X179546733Y-99777647D01*
X179454790Y-99844447D01*
X179385582Y-99894731D01*
X179385580Y-99894733D01*
X179385579Y-99894733D01*
X179244733Y-100035579D01*
X179244733Y-100035580D01*
X179244731Y-100035582D01*
X179194447Y-100104790D01*
X179127647Y-100196733D01*
X179037213Y-100374219D01*
X178975661Y-100563656D01*
X178975661Y-100563659D01*
X178944500Y-100760403D01*
X178944500Y-100959596D01*
X178975661Y-101156340D01*
X178975661Y-101156343D01*
X179037213Y-101345780D01*
X179050485Y-101371827D01*
X179127647Y-101523266D01*
X179244731Y-101684418D01*
X179385582Y-101825269D01*
X179546734Y-101942353D01*
X179616453Y-101977877D01*
X179698172Y-102019515D01*
X179748968Y-102067490D01*
X179765763Y-102135311D01*
X179743225Y-102201446D01*
X179698172Y-102240485D01*
X179546733Y-102317647D01*
X179454790Y-102384447D01*
X179385582Y-102434731D01*
X179385580Y-102434733D01*
X179385579Y-102434733D01*
X179244733Y-102575579D01*
X179244733Y-102575580D01*
X179244731Y-102575582D01*
X179194447Y-102644790D01*
X179127647Y-102736733D01*
X179037213Y-102914219D01*
X178975661Y-103103656D01*
X178975661Y-103103659D01*
X178944500Y-103300403D01*
X178944500Y-103499596D01*
X178975661Y-103696340D01*
X178975661Y-103696343D01*
X179037213Y-103885780D01*
X179050485Y-103911827D01*
X179127647Y-104063266D01*
X179244731Y-104224418D01*
X179385582Y-104365269D01*
X179546734Y-104482353D01*
X179616453Y-104517877D01*
X179698172Y-104559515D01*
X179748968Y-104607490D01*
X179765763Y-104675311D01*
X179743225Y-104741446D01*
X179698172Y-104780485D01*
X179546733Y-104857647D01*
X179454790Y-104924447D01*
X179385582Y-104974731D01*
X179385580Y-104974733D01*
X179385579Y-104974733D01*
X179244733Y-105115579D01*
X179244733Y-105115580D01*
X179244731Y-105115582D01*
X179194447Y-105184790D01*
X179127647Y-105276733D01*
X179037213Y-105454219D01*
X178975661Y-105643656D01*
X178975661Y-105643659D01*
X178944500Y-105840403D01*
X178944500Y-106039596D01*
X178975661Y-106236340D01*
X178975661Y-106236343D01*
X179037213Y-106425780D01*
X179050485Y-106451827D01*
X179127647Y-106603266D01*
X179244731Y-106764418D01*
X179385582Y-106905269D01*
X179546734Y-107022353D01*
X179616453Y-107057877D01*
X179698172Y-107099515D01*
X179748968Y-107147490D01*
X179765763Y-107215311D01*
X179743225Y-107281446D01*
X179698172Y-107320485D01*
X179546733Y-107397647D01*
X179454790Y-107464447D01*
X179385582Y-107514731D01*
X179385580Y-107514733D01*
X179385579Y-107514733D01*
X179244733Y-107655579D01*
X179244733Y-107655580D01*
X179244731Y-107655582D01*
X179194447Y-107724790D01*
X179127647Y-107816733D01*
X179037213Y-107994219D01*
X178975661Y-108183656D01*
X178975661Y-108183659D01*
X178944500Y-108380403D01*
X178944500Y-108579596D01*
X178975661Y-108776340D01*
X178975661Y-108776343D01*
X179037213Y-108965780D01*
X179037215Y-108965783D01*
X179127647Y-109143266D01*
X179244731Y-109304418D01*
X179385582Y-109445269D01*
X179546734Y-109562353D01*
X179724217Y-109652785D01*
X179724219Y-109652786D01*
X179913657Y-109714338D01*
X179913658Y-109714338D01*
X179913661Y-109714339D01*
X180110403Y-109745500D01*
X180110404Y-109745500D01*
X180309596Y-109745500D01*
X180309597Y-109745500D01*
X180506339Y-109714339D01*
X180506342Y-109714338D01*
X180506343Y-109714338D01*
X180695780Y-109652786D01*
X180695780Y-109652785D01*
X180695783Y-109652785D01*
X180873266Y-109562353D01*
X181034418Y-109445269D01*
X181175269Y-109304418D01*
X181292353Y-109143266D01*
X181369515Y-108991827D01*
X181417490Y-108941031D01*
X181485311Y-108924236D01*
X181551446Y-108946773D01*
X181590485Y-108991827D01*
X181667647Y-109143266D01*
X181784731Y-109304418D01*
X181925582Y-109445269D01*
X182086734Y-109562353D01*
X182264217Y-109652785D01*
X182264219Y-109652786D01*
X182453657Y-109714338D01*
X182453658Y-109714338D01*
X182453661Y-109714339D01*
X182650403Y-109745500D01*
X182650404Y-109745500D01*
X182849596Y-109745500D01*
X182849597Y-109745500D01*
X183046339Y-109714339D01*
X183046342Y-109714338D01*
X183046343Y-109714338D01*
X183235780Y-109652786D01*
X183235780Y-109652785D01*
X183235783Y-109652785D01*
X183413266Y-109562353D01*
X183574418Y-109445269D01*
X183715269Y-109304418D01*
X183832353Y-109143266D01*
X183922785Y-108965783D01*
X183930827Y-108941031D01*
X183984338Y-108776343D01*
X183984338Y-108776342D01*
X183984339Y-108776339D01*
X184015500Y-108579597D01*
X184015500Y-108380403D01*
X183984339Y-108183661D01*
X183984338Y-108183657D01*
X183984338Y-108183656D01*
X183922786Y-107994219D01*
X183832352Y-107816733D01*
X183715269Y-107655582D01*
X183574418Y-107514731D01*
X183413266Y-107397647D01*
X183261827Y-107320485D01*
X183211031Y-107272510D01*
X183194236Y-107204689D01*
X183216773Y-107138554D01*
X183261827Y-107099515D01*
X183271116Y-107094781D01*
X183413266Y-107022353D01*
X183574418Y-106905269D01*
X183715269Y-106764418D01*
X183832353Y-106603266D01*
X183922785Y-106425783D01*
X183935140Y-106387758D01*
X183984338Y-106236343D01*
X183984338Y-106236342D01*
X183984339Y-106236339D01*
X184015500Y-106039597D01*
X184015500Y-105840403D01*
X183984339Y-105643661D01*
X183984338Y-105643657D01*
X183984338Y-105643656D01*
X183922786Y-105454219D01*
X183832352Y-105276733D01*
X183715269Y-105115582D01*
X183574418Y-104974731D01*
X183413266Y-104857647D01*
X183261827Y-104780485D01*
X183211031Y-104732510D01*
X183194236Y-104664689D01*
X183216773Y-104598554D01*
X183261827Y-104559515D01*
X183271116Y-104554781D01*
X183413266Y-104482353D01*
X183574418Y-104365269D01*
X183715269Y-104224418D01*
X183832353Y-104063266D01*
X183922785Y-103885783D01*
X183935140Y-103847758D01*
X183984338Y-103696343D01*
X183984338Y-103696342D01*
X183984339Y-103696339D01*
X184015500Y-103499597D01*
X184015500Y-103300403D01*
X183984339Y-103103661D01*
X183984338Y-103103657D01*
X183984338Y-103103656D01*
X183922786Y-102914219D01*
X183832352Y-102736733D01*
X183715269Y-102575582D01*
X183574418Y-102434731D01*
X183413266Y-102317647D01*
X183261827Y-102240485D01*
X183211031Y-102192510D01*
X183194236Y-102124689D01*
X183216773Y-102058554D01*
X183261827Y-102019515D01*
X183271116Y-102014781D01*
X183413266Y-101942353D01*
X183574418Y-101825269D01*
X183715269Y-101684418D01*
X183832353Y-101523266D01*
X183922785Y-101345783D01*
X183935140Y-101307758D01*
X183984338Y-101156343D01*
X183984338Y-101156342D01*
X183984339Y-101156339D01*
X184015500Y-100959597D01*
X184015500Y-100760403D01*
X183984339Y-100563661D01*
X183984338Y-100563657D01*
X183984338Y-100563656D01*
X183922786Y-100374219D01*
X183832352Y-100196733D01*
X183715269Y-100035582D01*
X183574418Y-99894731D01*
X183413266Y-99777647D01*
X183261827Y-99700485D01*
X183211031Y-99652510D01*
X183194236Y-99584689D01*
X183216773Y-99518554D01*
X183261827Y-99479515D01*
X183271116Y-99474781D01*
X183413266Y-99402353D01*
X183574418Y-99285269D01*
X183715269Y-99144418D01*
X183832353Y-98983266D01*
X183922785Y-98805783D01*
X183935140Y-98767758D01*
X183984338Y-98616343D01*
X183984338Y-98616342D01*
X183984339Y-98616339D01*
X184015500Y-98419597D01*
X184015500Y-98220403D01*
X183984339Y-98023661D01*
X183984338Y-98023657D01*
X183984338Y-98023656D01*
X183922786Y-97834219D01*
X183832352Y-97656733D01*
X183715269Y-97495582D01*
X183574418Y-97354731D01*
X183413266Y-97237647D01*
X183261827Y-97160485D01*
X183211031Y-97112510D01*
X183194236Y-97044689D01*
X183216773Y-96978554D01*
X183261827Y-96939515D01*
X183271116Y-96934781D01*
X183413266Y-96862353D01*
X183574418Y-96745269D01*
X183715269Y-96604418D01*
X183832353Y-96443266D01*
X183922785Y-96265783D01*
X183935140Y-96227758D01*
X183984338Y-96076343D01*
X183984338Y-96076342D01*
X183984339Y-96076339D01*
X184015500Y-95879597D01*
X184015500Y-95680403D01*
X183984339Y-95483661D01*
X183984338Y-95483657D01*
X183984338Y-95483656D01*
X183922786Y-95294219D01*
X183832352Y-95116733D01*
X183715269Y-94955582D01*
X183574418Y-94814731D01*
X183413266Y-94697647D01*
X183261827Y-94620485D01*
X183211031Y-94572510D01*
X183194236Y-94504689D01*
X183216773Y-94438554D01*
X183261827Y-94399515D01*
X183271116Y-94394781D01*
X183413266Y-94322353D01*
X183574418Y-94205269D01*
X183715269Y-94064418D01*
X183832353Y-93903266D01*
X183922785Y-93725783D01*
X183935140Y-93687758D01*
X183984338Y-93536343D01*
X183984338Y-93536342D01*
X183984339Y-93536339D01*
X184015500Y-93339597D01*
X184015500Y-93140403D01*
X183984339Y-92943661D01*
X183984338Y-92943657D01*
X183984338Y-92943656D01*
X183922786Y-92754219D01*
X183832352Y-92576733D01*
X183715269Y-92415582D01*
X183574418Y-92274731D01*
X183413266Y-92157647D01*
X183261827Y-92080485D01*
X183211031Y-92032510D01*
X183194236Y-91964689D01*
X183216773Y-91898554D01*
X183261827Y-91859515D01*
X183271116Y-91854781D01*
X183413266Y-91782353D01*
X183574418Y-91665269D01*
X183715269Y-91524418D01*
X183832353Y-91363266D01*
X183922785Y-91185783D01*
X183935140Y-91147758D01*
X183984338Y-90996343D01*
X183984338Y-90996342D01*
X183984339Y-90996339D01*
X184015500Y-90799597D01*
X184015500Y-90600403D01*
X183984339Y-90403661D01*
X183984338Y-90403657D01*
X183984338Y-90403656D01*
X183922786Y-90214219D01*
X183832352Y-90036733D01*
X183715269Y-89875582D01*
X183574418Y-89734731D01*
X183413266Y-89617647D01*
X183261827Y-89540485D01*
X183211031Y-89492510D01*
X183194236Y-89424689D01*
X183216773Y-89358554D01*
X183261827Y-89319515D01*
X183271116Y-89314781D01*
X183413266Y-89242353D01*
X183574418Y-89125269D01*
X183715269Y-88984418D01*
X183832353Y-88823266D01*
X183922785Y-88645783D01*
X183935140Y-88607758D01*
X183984338Y-88456343D01*
X183984338Y-88456342D01*
X183984339Y-88456339D01*
X184015500Y-88259597D01*
X184015500Y-88060403D01*
X183984339Y-87863661D01*
X183984338Y-87863657D01*
X183984338Y-87863656D01*
X183922786Y-87674219D01*
X183832352Y-87496733D01*
X183715269Y-87335582D01*
X183574418Y-87194731D01*
X183413266Y-87077647D01*
X183261827Y-87000485D01*
X183211031Y-86952510D01*
X183194236Y-86884689D01*
X183216773Y-86818554D01*
X183261827Y-86779515D01*
X183271116Y-86774781D01*
X183413266Y-86702353D01*
X183574418Y-86585269D01*
X183715269Y-86444418D01*
X183832353Y-86283266D01*
X183922785Y-86105783D01*
X183935140Y-86067758D01*
X183984338Y-85916343D01*
X183984338Y-85916342D01*
X183984339Y-85916339D01*
X184015500Y-85719597D01*
X184015500Y-85520403D01*
X183984339Y-85323661D01*
X183984338Y-85323657D01*
X183984338Y-85323656D01*
X183922786Y-85134219D01*
X183832352Y-84956733D01*
X183715269Y-84795582D01*
X183574418Y-84654731D01*
X183413266Y-84537647D01*
X183261827Y-84460485D01*
X183211031Y-84412510D01*
X183194236Y-84344689D01*
X183216773Y-84278554D01*
X183261827Y-84239515D01*
X183271116Y-84234781D01*
X183413266Y-84162353D01*
X183574418Y-84045269D01*
X183715269Y-83904418D01*
X183832353Y-83743266D01*
X183922785Y-83565783D01*
X183935140Y-83527758D01*
X183984338Y-83376343D01*
X183984338Y-83376342D01*
X183984339Y-83376339D01*
X184015500Y-83179597D01*
X184015500Y-82980403D01*
X183984339Y-82783661D01*
X183984338Y-82783657D01*
X183984338Y-82783656D01*
X183922786Y-82594219D01*
X183832352Y-82416733D01*
X183715269Y-82255582D01*
X183574418Y-82114731D01*
X183413266Y-81997647D01*
X183261827Y-81920485D01*
X183211031Y-81872510D01*
X183194236Y-81804689D01*
X183216773Y-81738554D01*
X183261827Y-81699515D01*
X183271116Y-81694781D01*
X183413266Y-81622353D01*
X183574418Y-81505269D01*
X183715269Y-81364418D01*
X183832353Y-81203266D01*
X183922785Y-81025783D01*
X183935140Y-80987758D01*
X183984338Y-80836343D01*
X183984338Y-80836342D01*
X183984339Y-80836339D01*
X184015500Y-80639597D01*
X184015500Y-80440403D01*
X183984339Y-80243661D01*
X183984338Y-80243657D01*
X183984338Y-80243656D01*
X183922786Y-80054219D01*
X183832352Y-79876733D01*
X183715269Y-79715582D01*
X183574418Y-79574731D01*
X183413266Y-79457647D01*
X183261827Y-79380485D01*
X183211031Y-79332510D01*
X183194236Y-79264689D01*
X183216773Y-79198554D01*
X183261827Y-79159515D01*
X183271116Y-79154781D01*
X183413266Y-79082353D01*
X183574418Y-78965269D01*
X183715269Y-78824418D01*
X183832353Y-78663266D01*
X183922785Y-78485783D01*
X183931006Y-78460481D01*
X183984338Y-78296343D01*
X183984338Y-78296342D01*
X183984339Y-78296339D01*
X184015500Y-78099597D01*
X184015500Y-77900403D01*
X183984339Y-77703661D01*
X183984338Y-77703657D01*
X183984338Y-77703656D01*
X183922786Y-77514219D01*
X183832485Y-77336994D01*
X183832353Y-77336734D01*
X183715269Y-77175582D01*
X183574418Y-77034731D01*
X183413266Y-76917647D01*
X183413262Y-76917645D01*
X183261277Y-76840204D01*
X183210481Y-76792229D01*
X183193686Y-76724408D01*
X183216224Y-76658273D01*
X183261277Y-76619234D01*
X183413005Y-76541924D01*
X183450863Y-76514418D01*
X183450863Y-76514417D01*
X182887574Y-75951128D01*
X182946853Y-75935245D01*
X183063147Y-75868102D01*
X183158102Y-75773147D01*
X183225245Y-75656853D01*
X183241128Y-75597574D01*
X183804417Y-76160863D01*
X183804418Y-76160863D01*
X183831924Y-76123005D01*
X183922320Y-75945594D01*
X183983852Y-75756222D01*
X184015000Y-75559563D01*
X184015000Y-75360436D01*
X183983852Y-75163777D01*
X183922320Y-74974405D01*
X183831924Y-74796994D01*
X183804417Y-74759135D01*
X183804417Y-74759134D01*
X183241128Y-75322424D01*
X183225245Y-75263147D01*
X183158102Y-75146853D01*
X183063147Y-75051898D01*
X182946853Y-74984755D01*
X182887574Y-74968871D01*
X183450864Y-74405581D01*
X183450863Y-74405580D01*
X183413008Y-74378077D01*
X183261277Y-74300765D01*
X183210481Y-74252790D01*
X183193686Y-74184969D01*
X183216224Y-74118834D01*
X183261277Y-74079795D01*
X183261827Y-74079515D01*
X183413266Y-74002353D01*
X183574418Y-73885269D01*
X183715269Y-73744418D01*
X183832353Y-73583266D01*
X183922785Y-73405783D01*
X183930827Y-73381031D01*
X183984338Y-73216343D01*
X183984338Y-73216342D01*
X183984339Y-73216339D01*
X184015500Y-73019597D01*
X184015500Y-72820403D01*
X183984339Y-72623661D01*
X183984338Y-72623657D01*
X183984338Y-72623656D01*
X183922786Y-72434219D01*
X183832352Y-72256733D01*
X183715269Y-72095582D01*
X183574418Y-71954731D01*
X183413266Y-71837647D01*
X183261827Y-71760485D01*
X183211031Y-71712510D01*
X183194236Y-71644689D01*
X183216773Y-71578554D01*
X183261827Y-71539515D01*
X183271116Y-71534781D01*
X183413266Y-71462353D01*
X183574418Y-71345269D01*
X183715269Y-71204418D01*
X183832353Y-71043266D01*
X183922785Y-70865783D01*
X183935140Y-70827758D01*
X183984338Y-70676343D01*
X183984338Y-70676342D01*
X183984339Y-70676339D01*
X184015500Y-70479597D01*
X184015500Y-70280403D01*
X183984339Y-70083661D01*
X183984338Y-70083657D01*
X183984338Y-70083656D01*
X183922786Y-69894219D01*
X183832352Y-69716733D01*
X183715269Y-69555582D01*
X183574418Y-69414731D01*
X183413266Y-69297647D01*
X183261827Y-69220485D01*
X183211031Y-69172510D01*
X183194236Y-69104689D01*
X183216773Y-69038554D01*
X183261827Y-68999515D01*
X183271116Y-68994781D01*
X183413266Y-68922353D01*
X183574418Y-68805269D01*
X183715269Y-68664418D01*
X183832353Y-68503266D01*
X183922785Y-68325783D01*
X183935140Y-68287758D01*
X183984338Y-68136343D01*
X183984338Y-68136342D01*
X183984339Y-68136339D01*
X184015500Y-67939597D01*
X184015500Y-67740403D01*
X183984339Y-67543661D01*
X183984338Y-67543657D01*
X183984338Y-67543656D01*
X183922786Y-67354219D01*
X183909514Y-67328172D01*
X183832353Y-67176734D01*
X183715269Y-67015582D01*
X183574418Y-66874731D01*
X183413266Y-66757647D01*
X183342488Y-66721584D01*
X183261827Y-66680485D01*
X183211031Y-66632510D01*
X183194236Y-66564689D01*
X183216773Y-66498554D01*
X183261827Y-66459515D01*
X183281482Y-66449500D01*
X183413266Y-66382353D01*
X183574418Y-66265269D01*
X183715269Y-66124418D01*
X183832353Y-65963266D01*
X183922785Y-65785783D01*
X183935140Y-65747758D01*
X183984338Y-65596343D01*
X183984338Y-65596342D01*
X183984339Y-65596339D01*
X184015500Y-65399597D01*
X184015500Y-65200403D01*
X183984339Y-65003661D01*
X183984338Y-65003657D01*
X183984338Y-65003656D01*
X183922786Y-64814219D01*
X183832352Y-64636733D01*
X183715269Y-64475582D01*
X183574418Y-64334731D01*
X183413266Y-64217647D01*
X183261827Y-64140485D01*
X183211031Y-64092510D01*
X183194236Y-64024689D01*
X183216773Y-63958554D01*
X183261827Y-63919515D01*
X183271116Y-63914781D01*
X183413266Y-63842353D01*
X183574418Y-63725269D01*
X183715269Y-63584418D01*
X183832353Y-63423266D01*
X183922785Y-63245783D01*
X183935140Y-63207758D01*
X183984338Y-63056343D01*
X183984338Y-63056342D01*
X183984339Y-63056339D01*
X184015500Y-62859597D01*
X184015500Y-62660403D01*
X183984339Y-62463661D01*
X183984338Y-62463657D01*
X183984338Y-62463656D01*
X183922786Y-62274219D01*
X183832483Y-62096990D01*
X183832353Y-62096734D01*
X183715269Y-61935582D01*
X183574418Y-61794731D01*
X183413266Y-61677647D01*
X183413262Y-61677645D01*
X183261827Y-61600485D01*
X183211031Y-61552510D01*
X183194236Y-61484689D01*
X183216773Y-61418554D01*
X183261827Y-61379515D01*
X183271116Y-61374781D01*
X183413266Y-61302353D01*
X183574418Y-61185269D01*
X183715269Y-61044418D01*
X183832353Y-60883266D01*
X183922785Y-60705783D01*
X183931006Y-60680481D01*
X183984338Y-60516343D01*
X183984338Y-60516342D01*
X183984339Y-60516339D01*
X184015500Y-60319597D01*
X184015500Y-60120403D01*
X183984339Y-59923661D01*
X183984338Y-59923657D01*
X183984338Y-59923656D01*
X183922786Y-59734219D01*
X183832485Y-59556994D01*
X183832353Y-59556734D01*
X183715269Y-59395582D01*
X183574418Y-59254731D01*
X183413266Y-59137647D01*
X183261827Y-59060485D01*
X183211031Y-59012510D01*
X183194236Y-58944689D01*
X183216773Y-58878554D01*
X183261827Y-58839515D01*
X183271116Y-58834781D01*
X183413266Y-58762353D01*
X183574418Y-58645269D01*
X183715269Y-58504418D01*
X183832353Y-58343266D01*
X183922785Y-58165783D01*
X183930827Y-58141031D01*
X183984338Y-57976343D01*
X183984338Y-57976342D01*
X183984339Y-57976339D01*
X184015500Y-57779597D01*
X184015500Y-57580403D01*
X183984339Y-57383661D01*
X183984338Y-57383657D01*
X183984338Y-57383656D01*
X183922786Y-57194219D01*
X183898058Y-57145687D01*
X183832353Y-57016734D01*
X183715269Y-56855582D01*
X183574418Y-56714731D01*
X183413266Y-56597647D01*
X183351675Y-56566265D01*
X183261827Y-56520485D01*
X183211031Y-56472510D01*
X183194236Y-56404689D01*
X183216773Y-56338554D01*
X183261827Y-56299515D01*
X183271116Y-56294781D01*
X183413266Y-56222353D01*
X183574418Y-56105269D01*
X183715269Y-55964418D01*
X183832353Y-55803266D01*
X183922785Y-55625783D01*
X183935140Y-55587758D01*
X183984338Y-55436343D01*
X183984338Y-55436342D01*
X183984339Y-55436339D01*
X184015500Y-55239597D01*
X184015500Y-55040403D01*
X183984339Y-54843661D01*
X183984338Y-54843657D01*
X183984338Y-54843656D01*
X183922786Y-54654219D01*
X183894459Y-54598624D01*
X183832353Y-54476734D01*
X183715269Y-54315582D01*
X183574418Y-54174731D01*
X183413266Y-54057647D01*
X183261827Y-53980485D01*
X183211031Y-53932510D01*
X183194236Y-53864689D01*
X183216773Y-53798554D01*
X183261827Y-53759515D01*
X183325472Y-53727086D01*
X183413266Y-53682353D01*
X183574418Y-53565269D01*
X183715269Y-53424418D01*
X183832353Y-53263266D01*
X183922785Y-53085783D01*
X183930005Y-53063563D01*
X183984338Y-52896343D01*
X183984338Y-52896342D01*
X183984339Y-52896339D01*
X184015500Y-52699597D01*
X184015500Y-52500403D01*
X183984339Y-52303661D01*
X183984338Y-52303657D01*
X183984338Y-52303656D01*
X183922786Y-52114219D01*
X183871586Y-52013734D01*
X183832353Y-51936734D01*
X183715269Y-51775582D01*
X183574418Y-51634731D01*
X183413266Y-51517647D01*
X183334379Y-51477452D01*
X183235780Y-51427213D01*
X183046342Y-51365661D01*
X182898782Y-51342290D01*
X182849597Y-51334500D01*
X182650403Y-51334500D01*
X182584822Y-51344887D01*
X182453659Y-51365661D01*
X182453656Y-51365661D01*
X182264219Y-51427213D01*
X182086733Y-51517647D01*
X181994790Y-51584447D01*
X181925582Y-51634731D01*
X181925580Y-51634733D01*
X181925579Y-51634733D01*
X181784733Y-51775579D01*
X181784733Y-51775580D01*
X181784731Y-51775582D01*
X181732367Y-51847655D01*
X181699817Y-51892456D01*
X181644487Y-51935121D01*
X181574873Y-51941100D01*
X181513078Y-51908494D01*
X181478721Y-51847655D01*
X181475499Y-51819570D01*
X181475499Y-51787129D01*
X181475498Y-51787123D01*
X181475497Y-51787116D01*
X181469091Y-51727517D01*
X181418796Y-51592669D01*
X181418795Y-51592668D01*
X181418793Y-51592664D01*
X181332547Y-51477455D01*
X181332544Y-51477452D01*
X181217335Y-51391206D01*
X181217328Y-51391202D01*
X181082482Y-51340908D01*
X181082483Y-51340908D01*
X181022883Y-51334501D01*
X181022881Y-51334500D01*
X181022873Y-51334500D01*
X181022864Y-51334500D01*
X179397129Y-51334500D01*
X179397123Y-51334501D01*
X179337516Y-51340908D01*
X179202671Y-51391202D01*
X179202664Y-51391206D01*
X179087455Y-51477452D01*
X179087452Y-51477455D01*
X179001206Y-51592664D01*
X179001202Y-51592671D01*
X178950908Y-51727517D01*
X178945741Y-51775580D01*
X178944501Y-51787123D01*
X178944500Y-51787135D01*
X166190500Y-51787135D01*
X166190500Y-49566092D01*
X166191097Y-49553939D01*
X166199805Y-49465519D01*
X166204665Y-49416171D01*
X166209403Y-49392349D01*
X166247816Y-49265719D01*
X166257113Y-49243278D01*
X166319485Y-49126587D01*
X166332982Y-49106387D01*
X166416924Y-49004103D01*
X166434103Y-48986924D01*
X166536387Y-48902982D01*
X166556587Y-48889485D01*
X166673278Y-48827113D01*
X166695719Y-48817816D01*
X166822349Y-48779403D01*
X166846173Y-48774665D01*
X166975170Y-48761960D01*
X166983939Y-48761097D01*
X166996092Y-48760500D01*
X167029882Y-48760500D01*
X184950118Y-48760500D01*
X184983908Y-48760500D01*
X184996061Y-48761097D01*
X185006051Y-48762080D01*
X185133824Y-48774665D01*
X185157652Y-48779404D01*
X185284277Y-48817815D01*
X185306725Y-48827114D01*
X185423406Y-48889482D01*
X185443616Y-48902986D01*
X185545891Y-48986920D01*
X185563079Y-49004108D01*
X185647012Y-49106381D01*
X185660517Y-49126593D01*
X185722883Y-49243271D01*
X185732186Y-49265728D01*
X185770593Y-49392338D01*
X185775335Y-49416180D01*
X185788903Y-49553938D01*
X185789500Y-49566092D01*
X185789500Y-112055933D01*
X185789235Y-112064043D01*
X185774636Y-112286778D01*
X185772518Y-112302859D01*
X185729769Y-112517771D01*
X185725571Y-112533438D01*
X185655133Y-112740942D01*
X185648926Y-112755928D01*
X185552007Y-112952460D01*
X185543897Y-112966507D01*
X185422154Y-113148708D01*
X185412280Y-113161576D01*
X185267797Y-113326328D01*
X185256328Y-113337797D01*
X185091576Y-113482280D01*
X185078708Y-113492154D01*
X184896507Y-113613897D01*
X184882460Y-113622007D01*
X184685928Y-113718926D01*
X184670942Y-113725133D01*
X184463438Y-113795571D01*
X184447771Y-113799769D01*
X184232859Y-113842518D01*
X184216778Y-113844636D01*
X183994043Y-113859235D01*
X183985933Y-113859500D01*
X178429500Y-113859500D01*
X178362461Y-113839815D01*
X178316706Y-113787011D01*
X178305500Y-113735500D01*
X178305500Y-78624010D01*
X178305500Y-78624000D01*
X178300710Y-78579446D01*
X178300000Y-78566193D01*
X178300000Y-76500000D01*
X123700000Y-76500000D01*
X123700000Y-78576877D01*
X123698738Y-78594523D01*
X123694500Y-78623998D01*
X123694500Y-113735500D01*
X123674815Y-113802539D01*
X123622011Y-113848294D01*
X123570500Y-113859500D01*
X117994067Y-113859500D01*
X117985957Y-113859235D01*
X117763221Y-113844636D01*
X117747140Y-113842518D01*
X117532228Y-113799769D01*
X117516561Y-113795571D01*
X117309057Y-113725133D01*
X117294071Y-113718926D01*
X117097539Y-113622007D01*
X117083492Y-113613897D01*
X116901291Y-113492154D01*
X116888423Y-113482280D01*
X116723671Y-113337797D01*
X116712202Y-113326328D01*
X116659730Y-113266495D01*
X116567716Y-113161573D01*
X116557845Y-113148708D01*
X116547470Y-113133181D01*
X116436102Y-112966507D01*
X116427992Y-112952460D01*
X116425196Y-112946791D01*
X116331070Y-112755921D01*
X116324866Y-112740942D01*
X116254428Y-112533438D01*
X116250230Y-112517771D01*
X116237931Y-112455938D01*
X116207479Y-112302848D01*
X116205364Y-112286790D01*
X116190765Y-112064043D01*
X116190500Y-112055933D01*
X116190500Y-51787135D01*
X117994500Y-51787135D01*
X117994500Y-53412870D01*
X117994501Y-53412876D01*
X118000908Y-53472483D01*
X118051202Y-53607328D01*
X118051206Y-53607335D01*
X118137452Y-53722544D01*
X118137455Y-53722547D01*
X118252664Y-53808793D01*
X118252671Y-53808797D01*
X118387517Y-53859091D01*
X118387516Y-53859091D01*
X118394444Y-53859835D01*
X118447127Y-53865500D01*
X118479568Y-53865499D01*
X118546605Y-53885182D01*
X118592361Y-53937984D01*
X118602306Y-54007143D01*
X118573283Y-54070699D01*
X118552455Y-54089816D01*
X118435582Y-54174730D01*
X118294733Y-54315579D01*
X118294733Y-54315580D01*
X118294731Y-54315582D01*
X118274402Y-54343563D01*
X118177647Y-54476733D01*
X118087213Y-54654219D01*
X118025661Y-54843656D01*
X118025661Y-54843659D01*
X118023022Y-54860323D01*
X117994500Y-55040403D01*
X117994500Y-55239597D01*
X118001837Y-55285920D01*
X118025661Y-55436340D01*
X118025661Y-55436343D01*
X118087213Y-55625780D01*
X118100485Y-55651827D01*
X118177647Y-55803266D01*
X118294731Y-55964418D01*
X118435582Y-56105269D01*
X118596734Y-56222353D01*
X118666453Y-56257877D01*
X118748172Y-56299515D01*
X118798968Y-56347490D01*
X118815763Y-56415311D01*
X118793225Y-56481446D01*
X118748172Y-56520485D01*
X118596733Y-56597647D01*
X118504790Y-56664447D01*
X118435582Y-56714731D01*
X118435580Y-56714733D01*
X118435579Y-56714733D01*
X118294733Y-56855579D01*
X118294733Y-56855580D01*
X118294731Y-56855582D01*
X118244447Y-56924790D01*
X118177647Y-57016733D01*
X118087213Y-57194219D01*
X118025661Y-57383656D01*
X118025661Y-57383659D01*
X117994500Y-57580403D01*
X117994500Y-57779596D01*
X118025661Y-57976340D01*
X118025661Y-57976343D01*
X118087213Y-58165780D01*
X118087215Y-58165783D01*
X118177647Y-58343266D01*
X118294731Y-58504418D01*
X118435582Y-58645269D01*
X118596734Y-58762353D01*
X118666453Y-58797877D01*
X118748172Y-58839515D01*
X118798968Y-58887490D01*
X118815763Y-58955311D01*
X118793225Y-59021446D01*
X118748172Y-59060485D01*
X118596733Y-59137647D01*
X118558286Y-59165581D01*
X118435582Y-59254731D01*
X118435580Y-59254733D01*
X118435579Y-59254733D01*
X118294733Y-59395579D01*
X118294733Y-59395580D01*
X118294731Y-59395582D01*
X118244447Y-59464790D01*
X118177647Y-59556733D01*
X118087213Y-59734219D01*
X118025661Y-59923656D01*
X118025661Y-59923659D01*
X117994500Y-60120403D01*
X117994500Y-60319596D01*
X118025661Y-60516340D01*
X118025661Y-60516343D01*
X118087213Y-60705780D01*
X118100485Y-60731827D01*
X118177647Y-60883266D01*
X118294731Y-61044418D01*
X118435582Y-61185269D01*
X118596734Y-61302353D01*
X118666453Y-61337877D01*
X118748172Y-61379515D01*
X118798968Y-61427490D01*
X118815763Y-61495311D01*
X118793225Y-61561446D01*
X118748172Y-61600485D01*
X118596733Y-61677647D01*
X118558286Y-61705581D01*
X118435582Y-61794731D01*
X118435580Y-61794733D01*
X118435579Y-61794733D01*
X118294733Y-61935579D01*
X118294733Y-61935580D01*
X118294731Y-61935582D01*
X118244447Y-62004790D01*
X118177647Y-62096733D01*
X118087213Y-62274219D01*
X118025661Y-62463656D01*
X118025661Y-62463659D01*
X117994500Y-62660403D01*
X117994500Y-62859596D01*
X118025661Y-63056340D01*
X118025661Y-63056343D01*
X118087213Y-63245780D01*
X118100485Y-63271827D01*
X118177647Y-63423266D01*
X118294731Y-63584418D01*
X118435582Y-63725269D01*
X118596734Y-63842353D01*
X118666453Y-63877877D01*
X118748172Y-63919515D01*
X118798968Y-63967490D01*
X118815763Y-64035311D01*
X118793225Y-64101446D01*
X118748172Y-64140485D01*
X118596733Y-64217647D01*
X118504790Y-64284447D01*
X118435582Y-64334731D01*
X118435580Y-64334733D01*
X118435579Y-64334733D01*
X118294733Y-64475579D01*
X118294733Y-64475580D01*
X118294731Y-64475582D01*
X118244447Y-64544790D01*
X118177647Y-64636733D01*
X118087213Y-64814219D01*
X118025661Y-65003656D01*
X118025661Y-65003659D01*
X117994500Y-65200403D01*
X117994500Y-65399596D01*
X118025661Y-65596340D01*
X118025661Y-65596343D01*
X118087213Y-65785780D01*
X118100485Y-65811827D01*
X118177647Y-65963266D01*
X118294731Y-66124418D01*
X118435582Y-66265269D01*
X118596734Y-66382353D01*
X118666453Y-66417877D01*
X118748172Y-66459515D01*
X118798968Y-66507490D01*
X118815763Y-66575311D01*
X118793225Y-66641446D01*
X118748172Y-66680485D01*
X118596733Y-66757647D01*
X118504790Y-66824447D01*
X118435582Y-66874731D01*
X118435580Y-66874733D01*
X118435579Y-66874733D01*
X118294733Y-67015579D01*
X118294733Y-67015580D01*
X118294731Y-67015582D01*
X118244447Y-67084790D01*
X118177647Y-67176733D01*
X118087213Y-67354219D01*
X118025661Y-67543656D01*
X118025661Y-67543659D01*
X117994500Y-67740403D01*
X117994500Y-67939596D01*
X118025661Y-68136340D01*
X118025661Y-68136343D01*
X118087213Y-68325780D01*
X118100485Y-68351827D01*
X118177647Y-68503266D01*
X118294731Y-68664418D01*
X118435582Y-68805269D01*
X118596734Y-68922353D01*
X118666453Y-68957877D01*
X118748172Y-68999515D01*
X118798968Y-69047490D01*
X118815763Y-69115311D01*
X118793225Y-69181446D01*
X118748172Y-69220485D01*
X118596733Y-69297647D01*
X118504790Y-69364447D01*
X118435582Y-69414731D01*
X118435580Y-69414733D01*
X118435579Y-69414733D01*
X118294733Y-69555579D01*
X118294733Y-69555580D01*
X118294731Y-69555582D01*
X118244447Y-69624790D01*
X118177647Y-69716733D01*
X118087213Y-69894219D01*
X118025661Y-70083656D01*
X118025661Y-70083659D01*
X117994500Y-70280403D01*
X117994500Y-70479596D01*
X118025661Y-70676340D01*
X118025661Y-70676343D01*
X118087213Y-70865780D01*
X118100485Y-70891827D01*
X118177647Y-71043266D01*
X118294731Y-71204418D01*
X118435582Y-71345269D01*
X118596734Y-71462353D01*
X118666453Y-71497877D01*
X118748172Y-71539515D01*
X118798968Y-71587490D01*
X118815763Y-71655311D01*
X118793225Y-71721446D01*
X118748172Y-71760485D01*
X118596733Y-71837647D01*
X118504790Y-71904447D01*
X118435582Y-71954731D01*
X118435580Y-71954733D01*
X118435579Y-71954733D01*
X118294733Y-72095579D01*
X118294733Y-72095580D01*
X118294731Y-72095582D01*
X118244447Y-72164790D01*
X118177647Y-72256733D01*
X118087213Y-72434219D01*
X118025661Y-72623656D01*
X118025661Y-72623659D01*
X117994500Y-72820403D01*
X117994500Y-73019596D01*
X118025661Y-73216340D01*
X118025661Y-73216343D01*
X118087213Y-73405780D01*
X118087215Y-73405783D01*
X118177647Y-73583266D01*
X118294731Y-73744418D01*
X118435582Y-73885269D01*
X118596734Y-74002353D01*
X118686909Y-74048299D01*
X118748722Y-74079795D01*
X118799518Y-74127770D01*
X118816313Y-74195591D01*
X118793776Y-74261726D01*
X118748723Y-74300764D01*
X118596993Y-74378075D01*
X118559135Y-74405580D01*
X118559135Y-74405581D01*
X119122425Y-74968871D01*
X119063147Y-74984755D01*
X118946853Y-75051898D01*
X118851898Y-75146853D01*
X118784755Y-75263147D01*
X118768871Y-75322425D01*
X118205581Y-74759135D01*
X118205580Y-74759135D01*
X118178077Y-74796990D01*
X118087679Y-74974405D01*
X118026147Y-75163777D01*
X117995000Y-75360436D01*
X117995000Y-75559563D01*
X118026147Y-75756222D01*
X118087679Y-75945594D01*
X118178077Y-76123008D01*
X118205580Y-76160863D01*
X118205581Y-76160864D01*
X118768871Y-75597574D01*
X118784755Y-75656853D01*
X118851898Y-75773147D01*
X118946853Y-75868102D01*
X119063147Y-75935245D01*
X119122425Y-75951128D01*
X118559134Y-76514417D01*
X118596994Y-76541924D01*
X118748722Y-76619234D01*
X118799518Y-76667209D01*
X118816313Y-76735030D01*
X118793776Y-76801165D01*
X118748723Y-76840203D01*
X118596735Y-76917645D01*
X118483997Y-76999555D01*
X118435582Y-77034731D01*
X118435580Y-77034733D01*
X118435579Y-77034733D01*
X118294733Y-77175579D01*
X118294733Y-77175580D01*
X118294731Y-77175582D01*
X118244447Y-77244790D01*
X118177647Y-77336733D01*
X118087213Y-77514219D01*
X118025661Y-77703656D01*
X118025661Y-77703659D01*
X117994500Y-77900403D01*
X117994500Y-78099596D01*
X118025661Y-78296340D01*
X118025661Y-78296343D01*
X118087213Y-78485780D01*
X118157645Y-78624010D01*
X118177647Y-78663266D01*
X118294731Y-78824418D01*
X118435582Y-78965269D01*
X118596734Y-79082353D01*
X118666453Y-79117877D01*
X118748172Y-79159515D01*
X118798968Y-79207490D01*
X118815763Y-79275311D01*
X118793225Y-79341446D01*
X118748172Y-79380485D01*
X118596733Y-79457647D01*
X118504790Y-79524447D01*
X118435582Y-79574731D01*
X118435580Y-79574733D01*
X118435579Y-79574733D01*
X118294733Y-79715579D01*
X118294733Y-79715580D01*
X118294731Y-79715582D01*
X118244447Y-79784790D01*
X118177647Y-79876733D01*
X118087213Y-80054219D01*
X118025661Y-80243656D01*
X118025661Y-80243659D01*
X117994500Y-80440403D01*
X117994500Y-80639596D01*
X118025661Y-80836340D01*
X118025661Y-80836343D01*
X118087213Y-81025780D01*
X118100485Y-81051827D01*
X118177647Y-81203266D01*
X118294731Y-81364418D01*
X118435582Y-81505269D01*
X118596734Y-81622353D01*
X118666453Y-81657877D01*
X118748172Y-81699515D01*
X118798968Y-81747490D01*
X118815763Y-81815311D01*
X118793225Y-81881446D01*
X118748172Y-81920485D01*
X118596733Y-81997647D01*
X118504790Y-82064447D01*
X118435582Y-82114731D01*
X118435580Y-82114733D01*
X118435579Y-82114733D01*
X118294733Y-82255579D01*
X118294733Y-82255580D01*
X118294731Y-82255582D01*
X118244447Y-82324790D01*
X118177647Y-82416733D01*
X118087213Y-82594219D01*
X118025661Y-82783656D01*
X118025661Y-82783659D01*
X117994500Y-82980403D01*
X117994500Y-83179596D01*
X118025661Y-83376340D01*
X118025661Y-83376343D01*
X118087213Y-83565780D01*
X118100485Y-83591827D01*
X118177647Y-83743266D01*
X118294731Y-83904418D01*
X118435582Y-84045269D01*
X118596734Y-84162353D01*
X118666453Y-84197877D01*
X118748172Y-84239515D01*
X118798968Y-84287490D01*
X118815763Y-84355311D01*
X118793225Y-84421446D01*
X118748172Y-84460485D01*
X118596733Y-84537647D01*
X118504790Y-84604447D01*
X118435582Y-84654731D01*
X118435580Y-84654733D01*
X118435579Y-84654733D01*
X118294733Y-84795579D01*
X118294733Y-84795580D01*
X118294731Y-84795582D01*
X118244447Y-84864790D01*
X118177647Y-84956733D01*
X118087213Y-85134219D01*
X118025661Y-85323656D01*
X118025661Y-85323659D01*
X117994500Y-85520403D01*
X117994500Y-85719596D01*
X118025661Y-85916340D01*
X118025661Y-85916343D01*
X118087213Y-86105780D01*
X118100485Y-86131827D01*
X118177647Y-86283266D01*
X118294731Y-86444418D01*
X118435582Y-86585269D01*
X118596734Y-86702353D01*
X118666453Y-86737877D01*
X118748172Y-86779515D01*
X118798968Y-86827490D01*
X118815763Y-86895311D01*
X118793225Y-86961446D01*
X118748172Y-87000485D01*
X118596733Y-87077647D01*
X118504790Y-87144447D01*
X118435582Y-87194731D01*
X118435580Y-87194733D01*
X118435579Y-87194733D01*
X118294733Y-87335579D01*
X118294733Y-87335580D01*
X118294731Y-87335582D01*
X118244447Y-87404790D01*
X118177647Y-87496733D01*
X118087213Y-87674219D01*
X118025661Y-87863656D01*
X118025661Y-87863659D01*
X117994500Y-88060403D01*
X117994500Y-88259596D01*
X118025661Y-88456340D01*
X118025661Y-88456343D01*
X118087213Y-88645780D01*
X118100485Y-88671827D01*
X118177647Y-88823266D01*
X118294731Y-88984418D01*
X118435582Y-89125269D01*
X118596734Y-89242353D01*
X118666453Y-89277877D01*
X118748172Y-89319515D01*
X118798968Y-89367490D01*
X118815763Y-89435311D01*
X118793225Y-89501446D01*
X118748172Y-89540485D01*
X118596733Y-89617647D01*
X118504790Y-89684447D01*
X118435582Y-89734731D01*
X118435580Y-89734733D01*
X118435579Y-89734733D01*
X118294733Y-89875579D01*
X118294733Y-89875580D01*
X118294731Y-89875582D01*
X118244447Y-89944790D01*
X118177647Y-90036733D01*
X118087213Y-90214219D01*
X118025661Y-90403656D01*
X118025661Y-90403659D01*
X117994500Y-90600403D01*
X117994500Y-90799596D01*
X118025661Y-90996340D01*
X118025661Y-90996343D01*
X118087213Y-91185780D01*
X118100485Y-91211827D01*
X118177647Y-91363266D01*
X118294731Y-91524418D01*
X118435582Y-91665269D01*
X118596734Y-91782353D01*
X118666453Y-91817877D01*
X118748172Y-91859515D01*
X118798968Y-91907490D01*
X118815763Y-91975311D01*
X118793225Y-92041446D01*
X118748172Y-92080485D01*
X118596733Y-92157647D01*
X118504790Y-92224447D01*
X118435582Y-92274731D01*
X118435580Y-92274733D01*
X118435579Y-92274733D01*
X118294733Y-92415579D01*
X118294733Y-92415580D01*
X118294731Y-92415582D01*
X118244447Y-92484790D01*
X118177647Y-92576733D01*
X118087213Y-92754219D01*
X118025661Y-92943656D01*
X118025661Y-92943659D01*
X117994500Y-93140403D01*
X117994500Y-93339596D01*
X118025661Y-93536340D01*
X118025661Y-93536343D01*
X118087213Y-93725780D01*
X118100485Y-93751827D01*
X118177647Y-93903266D01*
X118294731Y-94064418D01*
X118435582Y-94205269D01*
X118596734Y-94322353D01*
X118666453Y-94357877D01*
X118748172Y-94399515D01*
X118798968Y-94447490D01*
X118815763Y-94515311D01*
X118793225Y-94581446D01*
X118748172Y-94620485D01*
X118596733Y-94697647D01*
X118504790Y-94764447D01*
X118435582Y-94814731D01*
X118435580Y-94814733D01*
X118435579Y-94814733D01*
X118294733Y-94955579D01*
X118294733Y-94955580D01*
X118294731Y-94955582D01*
X118244447Y-95024790D01*
X118177647Y-95116733D01*
X118087213Y-95294219D01*
X118025661Y-95483656D01*
X118025661Y-95483659D01*
X117994500Y-95680403D01*
X117994500Y-95879596D01*
X118025661Y-96076340D01*
X118025661Y-96076343D01*
X118087213Y-96265780D01*
X118100485Y-96291827D01*
X118177647Y-96443266D01*
X118294731Y-96604418D01*
X118435582Y-96745269D01*
X118596734Y-96862353D01*
X118666453Y-96897877D01*
X118748172Y-96939515D01*
X118798968Y-96987490D01*
X118815763Y-97055311D01*
X118793225Y-97121446D01*
X118748172Y-97160485D01*
X118596733Y-97237647D01*
X118504790Y-97304447D01*
X118435582Y-97354731D01*
X118435580Y-97354733D01*
X118435579Y-97354733D01*
X118294733Y-97495579D01*
X118294733Y-97495580D01*
X118294731Y-97495582D01*
X118244447Y-97564790D01*
X118177647Y-97656733D01*
X118087213Y-97834219D01*
X118025661Y-98023656D01*
X118025661Y-98023659D01*
X117994500Y-98220403D01*
X117994500Y-98419596D01*
X118025661Y-98616340D01*
X118025661Y-98616343D01*
X118087213Y-98805780D01*
X118100485Y-98831827D01*
X118177647Y-98983266D01*
X118294731Y-99144418D01*
X118435582Y-99285269D01*
X118596734Y-99402353D01*
X118666453Y-99437877D01*
X118748172Y-99479515D01*
X118798968Y-99527490D01*
X118815763Y-99595311D01*
X118793225Y-99661446D01*
X118748172Y-99700485D01*
X118596733Y-99777647D01*
X118504790Y-99844447D01*
X118435582Y-99894731D01*
X118435580Y-99894733D01*
X118435579Y-99894733D01*
X118294733Y-100035579D01*
X118294733Y-100035580D01*
X118294731Y-100035582D01*
X118244447Y-100104790D01*
X118177647Y-100196733D01*
X118087213Y-100374219D01*
X118025661Y-100563656D01*
X118025661Y-100563659D01*
X117994500Y-100760403D01*
X117994500Y-100959596D01*
X118025661Y-101156340D01*
X118025661Y-101156343D01*
X118087213Y-101345780D01*
X118100485Y-101371827D01*
X118177647Y-101523266D01*
X118294731Y-101684418D01*
X118435582Y-101825269D01*
X118596734Y-101942353D01*
X118666453Y-101977877D01*
X118748172Y-102019515D01*
X118798968Y-102067490D01*
X118815763Y-102135311D01*
X118793225Y-102201446D01*
X118748172Y-102240485D01*
X118596733Y-102317647D01*
X118504790Y-102384447D01*
X118435582Y-102434731D01*
X118435580Y-102434733D01*
X118435579Y-102434733D01*
X118294733Y-102575579D01*
X118294733Y-102575580D01*
X118294731Y-102575582D01*
X118244447Y-102644790D01*
X118177647Y-102736733D01*
X118087213Y-102914219D01*
X118025661Y-103103656D01*
X118025661Y-103103659D01*
X117994500Y-103300403D01*
X117994500Y-103499596D01*
X118025661Y-103696340D01*
X118025661Y-103696343D01*
X118087213Y-103885780D01*
X118100485Y-103911827D01*
X118177647Y-104063266D01*
X118294731Y-104224418D01*
X118435582Y-104365269D01*
X118596734Y-104482353D01*
X118666453Y-104517877D01*
X118748172Y-104559515D01*
X118798968Y-104607490D01*
X118815763Y-104675311D01*
X118793225Y-104741446D01*
X118748172Y-104780485D01*
X118596733Y-104857647D01*
X118504790Y-104924447D01*
X118435582Y-104974731D01*
X118435580Y-104974733D01*
X118435579Y-104974733D01*
X118294733Y-105115579D01*
X118294733Y-105115580D01*
X118294731Y-105115582D01*
X118244447Y-105184790D01*
X118177647Y-105276733D01*
X118087213Y-105454219D01*
X118025661Y-105643656D01*
X118025661Y-105643659D01*
X117994500Y-105840403D01*
X117994500Y-106039596D01*
X118025661Y-106236340D01*
X118025661Y-106236343D01*
X118087213Y-106425780D01*
X118100485Y-106451827D01*
X118177647Y-106603266D01*
X118294731Y-106764418D01*
X118435582Y-106905269D01*
X118596734Y-107022353D01*
X118666453Y-107057877D01*
X118748172Y-107099515D01*
X118798968Y-107147490D01*
X118815763Y-107215311D01*
X118793225Y-107281446D01*
X118748172Y-107320485D01*
X118596733Y-107397647D01*
X118504790Y-107464447D01*
X118435582Y-107514731D01*
X118435580Y-107514733D01*
X118435579Y-107514733D01*
X118294733Y-107655579D01*
X118294733Y-107655580D01*
X118294731Y-107655582D01*
X118244447Y-107724790D01*
X118177647Y-107816733D01*
X118087213Y-107994219D01*
X118025661Y-108183656D01*
X118025661Y-108183659D01*
X117994500Y-108380403D01*
X117994500Y-108579596D01*
X118025661Y-108776340D01*
X118025661Y-108776343D01*
X118087213Y-108965780D01*
X118087215Y-108965783D01*
X118177647Y-109143266D01*
X118294731Y-109304418D01*
X118435582Y-109445269D01*
X118596734Y-109562353D01*
X118774217Y-109652785D01*
X118774219Y-109652786D01*
X118963657Y-109714338D01*
X118963658Y-109714338D01*
X118963661Y-109714339D01*
X119160403Y-109745500D01*
X119160404Y-109745500D01*
X119359596Y-109745500D01*
X119359597Y-109745500D01*
X119556339Y-109714339D01*
X119556342Y-109714338D01*
X119556343Y-109714338D01*
X119745780Y-109652786D01*
X119745780Y-109652785D01*
X119745783Y-109652785D01*
X119923266Y-109562353D01*
X120084418Y-109445269D01*
X120225269Y-109304418D01*
X120342353Y-109143266D01*
X120419515Y-108991827D01*
X120467490Y-108941031D01*
X120535311Y-108924236D01*
X120601446Y-108946773D01*
X120640485Y-108991827D01*
X120717647Y-109143266D01*
X120834731Y-109304418D01*
X120975582Y-109445269D01*
X121136734Y-109562353D01*
X121314217Y-109652785D01*
X121314219Y-109652786D01*
X121503657Y-109714338D01*
X121503658Y-109714338D01*
X121503661Y-109714339D01*
X121700403Y-109745500D01*
X121700404Y-109745500D01*
X121899596Y-109745500D01*
X121899597Y-109745500D01*
X122096339Y-109714339D01*
X122096342Y-109714338D01*
X122096343Y-109714338D01*
X122285780Y-109652786D01*
X122285780Y-109652785D01*
X122285783Y-109652785D01*
X122463266Y-109562353D01*
X122624418Y-109445269D01*
X122765269Y-109304418D01*
X122882353Y-109143266D01*
X122972785Y-108965783D01*
X122980827Y-108941031D01*
X123034338Y-108776343D01*
X123034338Y-108776342D01*
X123034339Y-108776339D01*
X123065500Y-108579597D01*
X123065500Y-108380403D01*
X123034339Y-108183661D01*
X123034338Y-108183657D01*
X123034338Y-108183656D01*
X122972786Y-107994219D01*
X122882352Y-107816733D01*
X122765269Y-107655582D01*
X122624418Y-107514731D01*
X122463266Y-107397647D01*
X122311827Y-107320485D01*
X122261031Y-107272510D01*
X122244236Y-107204689D01*
X122266773Y-107138554D01*
X122311827Y-107099515D01*
X122321116Y-107094781D01*
X122463266Y-107022353D01*
X122624418Y-106905269D01*
X122765269Y-106764418D01*
X122882353Y-106603266D01*
X122972785Y-106425783D01*
X122985140Y-106387758D01*
X123034338Y-106236343D01*
X123034338Y-106236342D01*
X123034339Y-106236339D01*
X123065500Y-106039597D01*
X123065500Y-105840403D01*
X123034339Y-105643661D01*
X123034338Y-105643657D01*
X123034338Y-105643656D01*
X122972786Y-105454219D01*
X122882352Y-105276733D01*
X122765269Y-105115582D01*
X122624418Y-104974731D01*
X122463266Y-104857647D01*
X122311827Y-104780485D01*
X122261031Y-104732510D01*
X122244236Y-104664689D01*
X122266773Y-104598554D01*
X122311827Y-104559515D01*
X122321116Y-104554781D01*
X122463266Y-104482353D01*
X122624418Y-104365269D01*
X122765269Y-104224418D01*
X122882353Y-104063266D01*
X122972785Y-103885783D01*
X122985140Y-103847758D01*
X123034338Y-103696343D01*
X123034338Y-103696342D01*
X123034339Y-103696339D01*
X123065500Y-103499597D01*
X123065500Y-103300403D01*
X123034339Y-103103661D01*
X123034338Y-103103657D01*
X123034338Y-103103656D01*
X122972786Y-102914219D01*
X122882352Y-102736733D01*
X122765269Y-102575582D01*
X122624418Y-102434731D01*
X122463266Y-102317647D01*
X122311827Y-102240485D01*
X122261031Y-102192510D01*
X122244236Y-102124689D01*
X122266773Y-102058554D01*
X122311827Y-102019515D01*
X122321116Y-102014781D01*
X122463266Y-101942353D01*
X122624418Y-101825269D01*
X122765269Y-101684418D01*
X122882353Y-101523266D01*
X122972785Y-101345783D01*
X122985140Y-101307758D01*
X123034338Y-101156343D01*
X123034338Y-101156342D01*
X123034339Y-101156339D01*
X123065500Y-100959597D01*
X123065500Y-100760403D01*
X123034339Y-100563661D01*
X123034338Y-100563657D01*
X123034338Y-100563656D01*
X122972786Y-100374219D01*
X122882352Y-100196733D01*
X122765269Y-100035582D01*
X122624418Y-99894731D01*
X122463266Y-99777647D01*
X122311827Y-99700485D01*
X122261031Y-99652510D01*
X122244236Y-99584689D01*
X122266773Y-99518554D01*
X122311827Y-99479515D01*
X122321116Y-99474781D01*
X122463266Y-99402353D01*
X122624418Y-99285269D01*
X122765269Y-99144418D01*
X122882353Y-98983266D01*
X122972785Y-98805783D01*
X122985140Y-98767758D01*
X123034338Y-98616343D01*
X123034338Y-98616342D01*
X123034339Y-98616339D01*
X123065500Y-98419597D01*
X123065500Y-98220403D01*
X123034339Y-98023661D01*
X123034338Y-98023657D01*
X123034338Y-98023656D01*
X122972786Y-97834219D01*
X122882352Y-97656733D01*
X122765269Y-97495582D01*
X122624418Y-97354731D01*
X122463266Y-97237647D01*
X122311827Y-97160485D01*
X122261031Y-97112510D01*
X122244236Y-97044689D01*
X122266773Y-96978554D01*
X122311827Y-96939515D01*
X122321116Y-96934781D01*
X122463266Y-96862353D01*
X122624418Y-96745269D01*
X122765269Y-96604418D01*
X122882353Y-96443266D01*
X122972785Y-96265783D01*
X122985140Y-96227758D01*
X123034338Y-96076343D01*
X123034338Y-96076342D01*
X123034339Y-96076339D01*
X123065500Y-95879597D01*
X123065500Y-95680403D01*
X123034339Y-95483661D01*
X123034338Y-95483657D01*
X123034338Y-95483656D01*
X122972786Y-95294219D01*
X122882352Y-95116733D01*
X122765269Y-94955582D01*
X122624418Y-94814731D01*
X122463266Y-94697647D01*
X122311827Y-94620485D01*
X122261031Y-94572510D01*
X122244236Y-94504689D01*
X122266773Y-94438554D01*
X122311827Y-94399515D01*
X122321116Y-94394781D01*
X122463266Y-94322353D01*
X122624418Y-94205269D01*
X122765269Y-94064418D01*
X122882353Y-93903266D01*
X122972785Y-93725783D01*
X122985140Y-93687758D01*
X123034338Y-93536343D01*
X123034338Y-93536342D01*
X123034339Y-93536339D01*
X123065500Y-93339597D01*
X123065500Y-93140403D01*
X123034339Y-92943661D01*
X123034338Y-92943657D01*
X123034338Y-92943656D01*
X122972786Y-92754219D01*
X122882352Y-92576733D01*
X122765269Y-92415582D01*
X122624418Y-92274731D01*
X122463266Y-92157647D01*
X122311827Y-92080485D01*
X122261031Y-92032510D01*
X122244236Y-91964689D01*
X122266773Y-91898554D01*
X122311827Y-91859515D01*
X122321116Y-91854781D01*
X122463266Y-91782353D01*
X122624418Y-91665269D01*
X122765269Y-91524418D01*
X122882353Y-91363266D01*
X122972785Y-91185783D01*
X122985140Y-91147758D01*
X123034338Y-90996343D01*
X123034338Y-90996342D01*
X123034339Y-90996339D01*
X123065500Y-90799597D01*
X123065500Y-90600403D01*
X123034339Y-90403661D01*
X123034338Y-90403657D01*
X123034338Y-90403656D01*
X122972786Y-90214219D01*
X122882352Y-90036733D01*
X122765269Y-89875582D01*
X122624418Y-89734731D01*
X122463266Y-89617647D01*
X122311827Y-89540485D01*
X122261031Y-89492510D01*
X122244236Y-89424689D01*
X122266773Y-89358554D01*
X122311827Y-89319515D01*
X122321116Y-89314781D01*
X122463266Y-89242353D01*
X122624418Y-89125269D01*
X122765269Y-88984418D01*
X122882353Y-88823266D01*
X122972785Y-88645783D01*
X122985140Y-88607758D01*
X123034338Y-88456343D01*
X123034338Y-88456342D01*
X123034339Y-88456339D01*
X123065500Y-88259597D01*
X123065500Y-88060403D01*
X123034339Y-87863661D01*
X123034338Y-87863657D01*
X123034338Y-87863656D01*
X122972786Y-87674219D01*
X122882352Y-87496733D01*
X122765269Y-87335582D01*
X122624418Y-87194731D01*
X122463266Y-87077647D01*
X122311827Y-87000485D01*
X122261031Y-86952510D01*
X122244236Y-86884689D01*
X122266773Y-86818554D01*
X122311827Y-86779515D01*
X122321116Y-86774781D01*
X122463266Y-86702353D01*
X122624418Y-86585269D01*
X122765269Y-86444418D01*
X122882353Y-86283266D01*
X122972785Y-86105783D01*
X122985140Y-86067758D01*
X123034338Y-85916343D01*
X123034338Y-85916342D01*
X123034339Y-85916339D01*
X123065500Y-85719597D01*
X123065500Y-85520403D01*
X123034339Y-85323661D01*
X123034338Y-85323657D01*
X123034338Y-85323656D01*
X122972786Y-85134219D01*
X122882352Y-84956733D01*
X122765269Y-84795582D01*
X122624418Y-84654731D01*
X122463266Y-84537647D01*
X122311827Y-84460485D01*
X122261031Y-84412510D01*
X122244236Y-84344689D01*
X122266773Y-84278554D01*
X122311827Y-84239515D01*
X122321116Y-84234781D01*
X122463266Y-84162353D01*
X122624418Y-84045269D01*
X122765269Y-83904418D01*
X122882353Y-83743266D01*
X122972785Y-83565783D01*
X122985140Y-83527758D01*
X123034338Y-83376343D01*
X123034338Y-83376342D01*
X123034339Y-83376339D01*
X123065500Y-83179597D01*
X123065500Y-82980403D01*
X123034339Y-82783661D01*
X123034338Y-82783657D01*
X123034338Y-82783656D01*
X122972786Y-82594219D01*
X122882352Y-82416733D01*
X122765269Y-82255582D01*
X122624418Y-82114731D01*
X122463266Y-81997647D01*
X122311827Y-81920485D01*
X122261031Y-81872510D01*
X122244236Y-81804689D01*
X122266773Y-81738554D01*
X122311827Y-81699515D01*
X122321116Y-81694781D01*
X122463266Y-81622353D01*
X122624418Y-81505269D01*
X122765269Y-81364418D01*
X122882353Y-81203266D01*
X122972785Y-81025783D01*
X122985140Y-80987758D01*
X123034338Y-80836343D01*
X123034338Y-80836342D01*
X123034339Y-80836339D01*
X123065500Y-80639597D01*
X123065500Y-80440403D01*
X123034339Y-80243661D01*
X123034338Y-80243657D01*
X123034338Y-80243656D01*
X122972786Y-80054219D01*
X122882352Y-79876733D01*
X122765269Y-79715582D01*
X122624418Y-79574731D01*
X122463266Y-79457647D01*
X122463262Y-79457645D01*
X122311277Y-79380204D01*
X122260481Y-79332229D01*
X122243686Y-79264408D01*
X122266224Y-79198273D01*
X122311277Y-79159234D01*
X122463005Y-79081924D01*
X122500863Y-79054418D01*
X122500863Y-79054417D01*
X121937574Y-78491128D01*
X121996853Y-78475245D01*
X122113147Y-78408102D01*
X122208102Y-78313147D01*
X122275245Y-78196853D01*
X122291128Y-78137574D01*
X122854417Y-78700863D01*
X122854418Y-78700863D01*
X122881924Y-78663005D01*
X122972320Y-78485594D01*
X123033852Y-78296222D01*
X123065000Y-78099563D01*
X123065000Y-77900436D01*
X123033852Y-77703777D01*
X122972320Y-77514405D01*
X122881924Y-77336994D01*
X122854417Y-77299135D01*
X122854417Y-77299134D01*
X122291128Y-77862424D01*
X122275245Y-77803147D01*
X122208102Y-77686853D01*
X122113147Y-77591898D01*
X121996853Y-77524755D01*
X121937574Y-77508871D01*
X122500864Y-76945581D01*
X122500863Y-76945580D01*
X122463008Y-76918077D01*
X122310727Y-76840485D01*
X122259931Y-76792510D01*
X122243136Y-76724689D01*
X122265674Y-76658554D01*
X122310727Y-76619515D01*
X122463005Y-76541924D01*
X122500863Y-76514418D01*
X122500863Y-76514417D01*
X121937574Y-75951128D01*
X121996853Y-75935245D01*
X122113147Y-75868102D01*
X122208102Y-75773147D01*
X122275245Y-75656853D01*
X122291128Y-75597574D01*
X122854417Y-76160863D01*
X122854418Y-76160863D01*
X122881924Y-76123005D01*
X122972320Y-75945594D01*
X123033852Y-75756222D01*
X123065000Y-75559563D01*
X123065000Y-75360436D01*
X123033852Y-75163777D01*
X122972320Y-74974405D01*
X122881924Y-74796994D01*
X122854417Y-74759135D01*
X122854417Y-74759134D01*
X122291128Y-75322424D01*
X122275245Y-75263147D01*
X122208102Y-75146853D01*
X122113147Y-75051898D01*
X121996853Y-74984755D01*
X121937574Y-74968871D01*
X122500864Y-74405581D01*
X122500863Y-74405580D01*
X122463008Y-74378077D01*
X122311277Y-74300765D01*
X122260481Y-74252790D01*
X122243686Y-74184969D01*
X122266224Y-74118834D01*
X122311277Y-74079795D01*
X122311827Y-74079515D01*
X122463266Y-74002353D01*
X122624418Y-73885269D01*
X122765269Y-73744418D01*
X122882353Y-73583266D01*
X122972785Y-73405783D01*
X122980827Y-73381031D01*
X123034338Y-73216343D01*
X123034338Y-73216342D01*
X123034339Y-73216339D01*
X123065500Y-73019597D01*
X123065500Y-72820403D01*
X123034339Y-72623661D01*
X123034338Y-72623657D01*
X123034338Y-72623656D01*
X122972786Y-72434219D01*
X122882352Y-72256733D01*
X122765269Y-72095582D01*
X122624418Y-71954731D01*
X122463266Y-71837647D01*
X122311827Y-71760485D01*
X122261031Y-71712510D01*
X122244236Y-71644689D01*
X122266773Y-71578554D01*
X122311827Y-71539515D01*
X122321116Y-71534781D01*
X122463266Y-71462353D01*
X122624418Y-71345269D01*
X122765269Y-71204418D01*
X122882353Y-71043266D01*
X122972785Y-70865783D01*
X122985140Y-70827758D01*
X123034338Y-70676343D01*
X123034338Y-70676342D01*
X123034339Y-70676339D01*
X123065500Y-70479597D01*
X123065500Y-70280403D01*
X123034339Y-70083661D01*
X123034338Y-70083657D01*
X123034338Y-70083656D01*
X122972786Y-69894219D01*
X122882352Y-69716733D01*
X122765269Y-69555582D01*
X122624418Y-69414731D01*
X122463266Y-69297647D01*
X122311827Y-69220485D01*
X122261031Y-69172510D01*
X122244236Y-69104689D01*
X122266773Y-69038554D01*
X122311827Y-68999515D01*
X122321116Y-68994781D01*
X122463266Y-68922353D01*
X122624418Y-68805269D01*
X122765269Y-68664418D01*
X122882353Y-68503266D01*
X122972785Y-68325783D01*
X122985140Y-68287758D01*
X123034338Y-68136343D01*
X123034338Y-68136342D01*
X123034339Y-68136339D01*
X123065500Y-67939597D01*
X123065500Y-67740403D01*
X123034339Y-67543661D01*
X123034338Y-67543657D01*
X123034338Y-67543656D01*
X122972786Y-67354219D01*
X122959514Y-67328172D01*
X122931871Y-67273920D01*
X125849499Y-67273920D01*
X125878340Y-67418907D01*
X125878343Y-67418917D01*
X125934912Y-67555488D01*
X125934919Y-67555501D01*
X126017048Y-67678415D01*
X126017051Y-67678419D01*
X126121580Y-67782948D01*
X126121584Y-67782951D01*
X126244498Y-67865080D01*
X126244511Y-67865087D01*
X126381082Y-67921656D01*
X126381087Y-67921658D01*
X126381091Y-67921658D01*
X126381092Y-67921659D01*
X126526079Y-67950500D01*
X126526082Y-67950500D01*
X126673920Y-67950500D01*
X126771462Y-67931096D01*
X126818913Y-67921658D01*
X126955495Y-67865084D01*
X127078416Y-67782951D01*
X127182951Y-67678416D01*
X127265084Y-67555495D01*
X127321658Y-67418913D01*
X127350500Y-67273920D01*
X132449499Y-67273920D01*
X132478340Y-67418907D01*
X132478343Y-67418917D01*
X132534912Y-67555488D01*
X132534919Y-67555501D01*
X132617048Y-67678415D01*
X132617051Y-67678419D01*
X132721580Y-67782948D01*
X132721584Y-67782951D01*
X132844498Y-67865080D01*
X132844511Y-67865087D01*
X132981082Y-67921656D01*
X132981087Y-67921658D01*
X132981091Y-67921658D01*
X132981092Y-67921659D01*
X133126079Y-67950500D01*
X133126082Y-67950500D01*
X133273920Y-67950500D01*
X133371462Y-67931096D01*
X133418913Y-67921658D01*
X133555495Y-67865084D01*
X133678416Y-67782951D01*
X133782951Y-67678416D01*
X133865084Y-67555495D01*
X133921658Y-67418913D01*
X133950500Y-67273920D01*
X139049499Y-67273920D01*
X139078340Y-67418907D01*
X139078343Y-67418917D01*
X139134912Y-67555488D01*
X139134919Y-67555501D01*
X139217048Y-67678415D01*
X139217051Y-67678419D01*
X139321580Y-67782948D01*
X139321584Y-67782951D01*
X139444498Y-67865080D01*
X139444511Y-67865087D01*
X139581082Y-67921656D01*
X139581087Y-67921658D01*
X139581091Y-67921658D01*
X139581092Y-67921659D01*
X139726079Y-67950500D01*
X139726082Y-67950500D01*
X139873920Y-67950500D01*
X139971462Y-67931096D01*
X140018913Y-67921658D01*
X140155495Y-67865084D01*
X140278416Y-67782951D01*
X140382951Y-67678416D01*
X140465084Y-67555495D01*
X140521658Y-67418913D01*
X140550500Y-67273920D01*
X145649499Y-67273920D01*
X145678340Y-67418907D01*
X145678343Y-67418917D01*
X145734912Y-67555488D01*
X145734919Y-67555501D01*
X145817048Y-67678415D01*
X145817051Y-67678419D01*
X145921580Y-67782948D01*
X145921584Y-67782951D01*
X146044498Y-67865080D01*
X146044511Y-67865087D01*
X146181082Y-67921656D01*
X146181087Y-67921658D01*
X146181091Y-67921658D01*
X146181092Y-67921659D01*
X146326079Y-67950500D01*
X146326082Y-67950500D01*
X146473920Y-67950500D01*
X146571462Y-67931096D01*
X146618913Y-67921658D01*
X146755495Y-67865084D01*
X146878416Y-67782951D01*
X146982951Y-67678416D01*
X147065084Y-67555495D01*
X147121658Y-67418913D01*
X147150500Y-67273920D01*
X152249499Y-67273920D01*
X152278340Y-67418907D01*
X152278343Y-67418917D01*
X152334912Y-67555488D01*
X152334919Y-67555501D01*
X152417048Y-67678415D01*
X152417051Y-67678419D01*
X152521580Y-67782948D01*
X152521584Y-67782951D01*
X152644498Y-67865080D01*
X152644511Y-67865087D01*
X152781082Y-67921656D01*
X152781087Y-67921658D01*
X152781091Y-67921658D01*
X152781092Y-67921659D01*
X152926079Y-67950500D01*
X152926082Y-67950500D01*
X153073920Y-67950500D01*
X153171462Y-67931096D01*
X153218913Y-67921658D01*
X153355495Y-67865084D01*
X153478416Y-67782951D01*
X153582951Y-67678416D01*
X153665084Y-67555495D01*
X153721658Y-67418913D01*
X153750500Y-67273920D01*
X158849499Y-67273920D01*
X158878340Y-67418907D01*
X158878343Y-67418917D01*
X158934912Y-67555488D01*
X158934919Y-67555501D01*
X159017048Y-67678415D01*
X159017051Y-67678419D01*
X159121580Y-67782948D01*
X159121584Y-67782951D01*
X159244498Y-67865080D01*
X159244511Y-67865087D01*
X159381082Y-67921656D01*
X159381087Y-67921658D01*
X159381091Y-67921658D01*
X159381092Y-67921659D01*
X159526079Y-67950500D01*
X159526082Y-67950500D01*
X159673920Y-67950500D01*
X159771462Y-67931096D01*
X159818913Y-67921658D01*
X159955495Y-67865084D01*
X160078416Y-67782951D01*
X160182951Y-67678416D01*
X160265084Y-67555495D01*
X160321658Y-67418913D01*
X160350500Y-67273920D01*
X165549499Y-67273920D01*
X165578340Y-67418907D01*
X165578343Y-67418917D01*
X165634912Y-67555488D01*
X165634919Y-67555501D01*
X165717048Y-67678415D01*
X165717051Y-67678419D01*
X165821580Y-67782948D01*
X165821584Y-67782951D01*
X165944498Y-67865080D01*
X165944511Y-67865087D01*
X166081082Y-67921656D01*
X166081087Y-67921658D01*
X166081091Y-67921658D01*
X166081092Y-67921659D01*
X166226079Y-67950500D01*
X166226082Y-67950500D01*
X166373920Y-67950500D01*
X166471462Y-67931096D01*
X166518913Y-67921658D01*
X166655495Y-67865084D01*
X166778416Y-67782951D01*
X166882951Y-67678416D01*
X166965084Y-67555495D01*
X167021658Y-67418913D01*
X167050500Y-67273920D01*
X172149499Y-67273920D01*
X172178340Y-67418907D01*
X172178343Y-67418917D01*
X172234912Y-67555488D01*
X172234919Y-67555501D01*
X172317048Y-67678415D01*
X172317051Y-67678419D01*
X172421580Y-67782948D01*
X172421584Y-67782951D01*
X172544498Y-67865080D01*
X172544511Y-67865087D01*
X172681082Y-67921656D01*
X172681087Y-67921658D01*
X172681091Y-67921658D01*
X172681092Y-67921659D01*
X172826079Y-67950500D01*
X172826082Y-67950500D01*
X172973920Y-67950500D01*
X173071462Y-67931096D01*
X173118913Y-67921658D01*
X173255495Y-67865084D01*
X173378416Y-67782951D01*
X173482951Y-67678416D01*
X173565084Y-67555495D01*
X173621658Y-67418913D01*
X173650500Y-67273918D01*
X173650500Y-67126082D01*
X173650500Y-67126079D01*
X173621659Y-66981092D01*
X173621658Y-66981091D01*
X173621658Y-66981087D01*
X173577604Y-66874731D01*
X173565087Y-66844511D01*
X173565080Y-66844498D01*
X173482951Y-66721584D01*
X173482948Y-66721580D01*
X173378419Y-66617051D01*
X173378415Y-66617048D01*
X173255501Y-66534919D01*
X173255488Y-66534912D01*
X173118917Y-66478343D01*
X173118907Y-66478340D01*
X172973920Y-66449500D01*
X172973918Y-66449500D01*
X172826082Y-66449500D01*
X172826080Y-66449500D01*
X172681092Y-66478340D01*
X172681082Y-66478343D01*
X172544511Y-66534912D01*
X172544498Y-66534919D01*
X172421584Y-66617048D01*
X172421580Y-66617051D01*
X172317051Y-66721580D01*
X172317048Y-66721584D01*
X172234919Y-66844498D01*
X172234912Y-66844511D01*
X172178343Y-66981082D01*
X172178340Y-66981092D01*
X172149500Y-67126079D01*
X172149500Y-67126082D01*
X172149500Y-67273918D01*
X172149500Y-67273920D01*
X172149499Y-67273920D01*
X167050500Y-67273920D01*
X167050500Y-67273918D01*
X167050500Y-67126082D01*
X167050500Y-67126079D01*
X167021659Y-66981092D01*
X167021658Y-66981091D01*
X167021658Y-66981087D01*
X166977604Y-66874731D01*
X166965087Y-66844511D01*
X166965080Y-66844498D01*
X166882951Y-66721584D01*
X166882948Y-66721580D01*
X166778419Y-66617051D01*
X166778415Y-66617048D01*
X166655501Y-66534919D01*
X166655488Y-66534912D01*
X166518917Y-66478343D01*
X166518907Y-66478340D01*
X166373920Y-66449500D01*
X166373918Y-66449500D01*
X166226082Y-66449500D01*
X166226080Y-66449500D01*
X166081092Y-66478340D01*
X166081082Y-66478343D01*
X165944511Y-66534912D01*
X165944498Y-66534919D01*
X165821584Y-66617048D01*
X165821580Y-66617051D01*
X165717051Y-66721580D01*
X165717048Y-66721584D01*
X165634919Y-66844498D01*
X165634912Y-66844511D01*
X165578343Y-66981082D01*
X165578340Y-66981092D01*
X165549500Y-67126079D01*
X165549500Y-67126082D01*
X165549500Y-67273918D01*
X165549500Y-67273920D01*
X165549499Y-67273920D01*
X160350500Y-67273920D01*
X160350500Y-67273918D01*
X160350500Y-67126082D01*
X160350500Y-67126079D01*
X160321659Y-66981092D01*
X160321658Y-66981091D01*
X160321658Y-66981087D01*
X160277604Y-66874731D01*
X160265087Y-66844511D01*
X160265080Y-66844498D01*
X160182951Y-66721584D01*
X160182948Y-66721580D01*
X160078419Y-66617051D01*
X160078415Y-66617048D01*
X159955501Y-66534919D01*
X159955488Y-66534912D01*
X159818917Y-66478343D01*
X159818907Y-66478340D01*
X159673920Y-66449500D01*
X159673918Y-66449500D01*
X159526082Y-66449500D01*
X159526080Y-66449500D01*
X159381092Y-66478340D01*
X159381082Y-66478343D01*
X159244511Y-66534912D01*
X159244498Y-66534919D01*
X159121584Y-66617048D01*
X159121580Y-66617051D01*
X159017051Y-66721580D01*
X159017048Y-66721584D01*
X158934919Y-66844498D01*
X158934912Y-66844511D01*
X158878343Y-66981082D01*
X158878340Y-66981092D01*
X158849500Y-67126079D01*
X158849500Y-67126082D01*
X158849500Y-67273918D01*
X158849500Y-67273920D01*
X158849499Y-67273920D01*
X153750500Y-67273920D01*
X153750500Y-67273918D01*
X153750500Y-67126082D01*
X153750500Y-67126079D01*
X153721659Y-66981092D01*
X153721658Y-66981091D01*
X153721658Y-66981087D01*
X153677604Y-66874731D01*
X153665087Y-66844511D01*
X153665080Y-66844498D01*
X153582951Y-66721584D01*
X153582948Y-66721580D01*
X153478419Y-66617051D01*
X153478415Y-66617048D01*
X153355501Y-66534919D01*
X153355488Y-66534912D01*
X153218917Y-66478343D01*
X153218907Y-66478340D01*
X153073920Y-66449500D01*
X153073918Y-66449500D01*
X152926082Y-66449500D01*
X152926080Y-66449500D01*
X152781092Y-66478340D01*
X152781082Y-66478343D01*
X152644511Y-66534912D01*
X152644498Y-66534919D01*
X152521584Y-66617048D01*
X152521580Y-66617051D01*
X152417051Y-66721580D01*
X152417048Y-66721584D01*
X152334919Y-66844498D01*
X152334912Y-66844511D01*
X152278343Y-66981082D01*
X152278340Y-66981092D01*
X152249500Y-67126079D01*
X152249500Y-67126082D01*
X152249500Y-67273918D01*
X152249500Y-67273920D01*
X152249499Y-67273920D01*
X147150500Y-67273920D01*
X147150500Y-67273918D01*
X147150500Y-67126082D01*
X147150500Y-67126079D01*
X147121659Y-66981092D01*
X147121658Y-66981091D01*
X147121658Y-66981087D01*
X147077604Y-66874731D01*
X147065087Y-66844511D01*
X147065080Y-66844498D01*
X146982951Y-66721584D01*
X146982948Y-66721580D01*
X146878419Y-66617051D01*
X146878415Y-66617048D01*
X146755501Y-66534919D01*
X146755488Y-66534912D01*
X146618917Y-66478343D01*
X146618907Y-66478340D01*
X146473920Y-66449500D01*
X146473918Y-66449500D01*
X146326082Y-66449500D01*
X146326080Y-66449500D01*
X146181092Y-66478340D01*
X146181082Y-66478343D01*
X146044511Y-66534912D01*
X146044498Y-66534919D01*
X145921584Y-66617048D01*
X145921580Y-66617051D01*
X145817051Y-66721580D01*
X145817048Y-66721584D01*
X145734919Y-66844498D01*
X145734912Y-66844511D01*
X145678343Y-66981082D01*
X145678340Y-66981092D01*
X145649500Y-67126079D01*
X145649500Y-67126082D01*
X145649500Y-67273918D01*
X145649500Y-67273920D01*
X145649499Y-67273920D01*
X140550500Y-67273920D01*
X140550500Y-67273918D01*
X140550500Y-67126082D01*
X140550500Y-67126079D01*
X140521659Y-66981092D01*
X140521658Y-66981091D01*
X140521658Y-66981087D01*
X140477604Y-66874731D01*
X140465087Y-66844511D01*
X140465080Y-66844498D01*
X140382951Y-66721584D01*
X140382948Y-66721580D01*
X140278419Y-66617051D01*
X140278415Y-66617048D01*
X140155501Y-66534919D01*
X140155488Y-66534912D01*
X140018917Y-66478343D01*
X140018907Y-66478340D01*
X139873920Y-66449500D01*
X139873918Y-66449500D01*
X139726082Y-66449500D01*
X139726080Y-66449500D01*
X139581092Y-66478340D01*
X139581082Y-66478343D01*
X139444511Y-66534912D01*
X139444498Y-66534919D01*
X139321584Y-66617048D01*
X139321580Y-66617051D01*
X139217051Y-66721580D01*
X139217048Y-66721584D01*
X139134919Y-66844498D01*
X139134912Y-66844511D01*
X139078343Y-66981082D01*
X139078340Y-66981092D01*
X139049500Y-67126079D01*
X139049500Y-67126082D01*
X139049500Y-67273918D01*
X139049500Y-67273920D01*
X139049499Y-67273920D01*
X133950500Y-67273920D01*
X133950500Y-67273918D01*
X133950500Y-67126082D01*
X133950500Y-67126079D01*
X133921659Y-66981092D01*
X133921658Y-66981091D01*
X133921658Y-66981087D01*
X133877604Y-66874731D01*
X133865087Y-66844511D01*
X133865080Y-66844498D01*
X133782951Y-66721584D01*
X133782948Y-66721580D01*
X133678419Y-66617051D01*
X133678415Y-66617048D01*
X133555501Y-66534919D01*
X133555488Y-66534912D01*
X133418917Y-66478343D01*
X133418907Y-66478340D01*
X133273920Y-66449500D01*
X133273918Y-66449500D01*
X133126082Y-66449500D01*
X133126080Y-66449500D01*
X132981092Y-66478340D01*
X132981082Y-66478343D01*
X132844511Y-66534912D01*
X132844498Y-66534919D01*
X132721584Y-66617048D01*
X132721580Y-66617051D01*
X132617051Y-66721580D01*
X132617048Y-66721584D01*
X132534919Y-66844498D01*
X132534912Y-66844511D01*
X132478343Y-66981082D01*
X132478340Y-66981092D01*
X132449500Y-67126079D01*
X132449500Y-67126082D01*
X132449500Y-67273918D01*
X132449500Y-67273920D01*
X132449499Y-67273920D01*
X127350500Y-67273920D01*
X127350500Y-67273918D01*
X127350500Y-67126082D01*
X127350500Y-67126079D01*
X127321659Y-66981092D01*
X127321658Y-66981091D01*
X127321658Y-66981087D01*
X127277604Y-66874731D01*
X127265087Y-66844511D01*
X127265080Y-66844498D01*
X127182951Y-66721584D01*
X127182948Y-66721580D01*
X127078419Y-66617051D01*
X127078415Y-66617048D01*
X126955501Y-66534919D01*
X126955488Y-66534912D01*
X126818917Y-66478343D01*
X126818907Y-66478340D01*
X126673920Y-66449500D01*
X126673918Y-66449500D01*
X126526082Y-66449500D01*
X126526080Y-66449500D01*
X126381092Y-66478340D01*
X126381082Y-66478343D01*
X126244511Y-66534912D01*
X126244498Y-66534919D01*
X126121584Y-66617048D01*
X126121580Y-66617051D01*
X126017051Y-66721580D01*
X126017048Y-66721584D01*
X125934919Y-66844498D01*
X125934912Y-66844511D01*
X125878343Y-66981082D01*
X125878340Y-66981092D01*
X125849500Y-67126079D01*
X125849500Y-67126082D01*
X125849500Y-67273918D01*
X125849500Y-67273920D01*
X125849499Y-67273920D01*
X122931871Y-67273920D01*
X122882353Y-67176734D01*
X122765269Y-67015582D01*
X122624418Y-66874731D01*
X122463266Y-66757647D01*
X122392488Y-66721584D01*
X122311827Y-66680485D01*
X122261031Y-66632510D01*
X122244236Y-66564689D01*
X122266773Y-66498554D01*
X122311827Y-66459515D01*
X122331482Y-66449500D01*
X122463266Y-66382353D01*
X122624418Y-66265269D01*
X122765269Y-66124418D01*
X122882353Y-65963266D01*
X122972785Y-65785783D01*
X122985140Y-65747758D01*
X123034338Y-65596343D01*
X123034338Y-65596342D01*
X123034339Y-65596339D01*
X123065500Y-65399597D01*
X123065500Y-65200403D01*
X123034339Y-65003661D01*
X123034338Y-65003657D01*
X123034338Y-65003656D01*
X122972786Y-64814219D01*
X122882352Y-64636733D01*
X122765269Y-64475582D01*
X122624418Y-64334731D01*
X122463266Y-64217647D01*
X122311827Y-64140485D01*
X122261031Y-64092510D01*
X122244236Y-64024689D01*
X122266773Y-63958554D01*
X122311827Y-63919515D01*
X122321116Y-63914781D01*
X122463266Y-63842353D01*
X122624418Y-63725269D01*
X122765269Y-63584418D01*
X122882353Y-63423266D01*
X122972785Y-63245783D01*
X122985140Y-63207758D01*
X123034338Y-63056343D01*
X123034338Y-63056342D01*
X123034339Y-63056339D01*
X123065500Y-62859597D01*
X123065500Y-62660403D01*
X123034339Y-62463661D01*
X123034338Y-62463657D01*
X123034338Y-62463656D01*
X122972786Y-62274219D01*
X122882483Y-62096990D01*
X122882353Y-62096734D01*
X122765269Y-61935582D01*
X122624418Y-61794731D01*
X122463266Y-61677647D01*
X122463262Y-61677645D01*
X122311277Y-61600204D01*
X122260481Y-61552229D01*
X122243686Y-61484408D01*
X122266224Y-61418273D01*
X122311277Y-61379234D01*
X122463005Y-61301924D01*
X122500863Y-61274418D01*
X122500863Y-61274417D01*
X121937574Y-60711128D01*
X121996853Y-60695245D01*
X122113147Y-60628102D01*
X122208102Y-60533147D01*
X122275245Y-60416853D01*
X122291128Y-60357574D01*
X122854417Y-60920863D01*
X122854418Y-60920863D01*
X122881924Y-60883005D01*
X122972320Y-60705594D01*
X123033852Y-60516222D01*
X123065000Y-60319563D01*
X123065000Y-60120436D01*
X123033852Y-59923777D01*
X122972320Y-59734405D01*
X122881924Y-59556994D01*
X122854417Y-59519135D01*
X122854417Y-59519134D01*
X122291128Y-60082424D01*
X122275245Y-60023147D01*
X122208102Y-59906853D01*
X122113147Y-59811898D01*
X121996853Y-59744755D01*
X121937574Y-59728871D01*
X122500864Y-59165581D01*
X122500863Y-59165580D01*
X122463008Y-59138077D01*
X122311277Y-59060765D01*
X122260481Y-59012790D01*
X122243686Y-58944969D01*
X122266224Y-58878834D01*
X122311277Y-58839795D01*
X122311827Y-58839515D01*
X122463266Y-58762353D01*
X122624418Y-58645269D01*
X122765269Y-58504418D01*
X122882353Y-58343266D01*
X122972785Y-58165783D01*
X122980827Y-58141031D01*
X123034338Y-57976343D01*
X123034338Y-57976342D01*
X123034339Y-57976339D01*
X123065500Y-57779597D01*
X123065500Y-57580403D01*
X123034339Y-57383661D01*
X123034338Y-57383657D01*
X123034338Y-57383656D01*
X122972786Y-57194219D01*
X122948058Y-57145687D01*
X122882353Y-57016734D01*
X122765269Y-56855582D01*
X122624418Y-56714731D01*
X122463266Y-56597647D01*
X122401675Y-56566265D01*
X122311827Y-56520485D01*
X122261031Y-56472510D01*
X122244236Y-56404689D01*
X122266773Y-56338554D01*
X122311827Y-56299515D01*
X122321116Y-56294781D01*
X122463266Y-56222353D01*
X122624418Y-56105269D01*
X122765269Y-55964418D01*
X122882353Y-55803266D01*
X122972785Y-55625783D01*
X122985140Y-55587758D01*
X123034338Y-55436343D01*
X123034338Y-55436342D01*
X123034339Y-55436339D01*
X123065500Y-55239597D01*
X123065500Y-55040403D01*
X123034339Y-54843661D01*
X123034338Y-54843657D01*
X123034338Y-54843656D01*
X122972786Y-54654219D01*
X122944459Y-54598624D01*
X122882353Y-54476734D01*
X122765269Y-54315582D01*
X122624418Y-54174731D01*
X122463266Y-54057647D01*
X122311827Y-53980485D01*
X122261031Y-53932510D01*
X122244236Y-53864689D01*
X122266773Y-53798554D01*
X122311827Y-53759515D01*
X122375472Y-53727086D01*
X122463266Y-53682353D01*
X122624418Y-53565269D01*
X122659003Y-53530684D01*
X125039500Y-53530684D01*
X125039500Y-53769315D01*
X125039501Y-53769332D01*
X125067299Y-53980485D01*
X125070649Y-54005924D01*
X125084508Y-54057647D01*
X125132415Y-54236436D01*
X125223734Y-54456902D01*
X125223740Y-54456914D01*
X125343062Y-54663586D01*
X125343064Y-54663589D01*
X125343065Y-54663590D01*
X125488337Y-54852912D01*
X125488343Y-54852919D01*
X125657080Y-55021656D01*
X125657086Y-55021661D01*
X125846414Y-55166938D01*
X126053086Y-55286260D01*
X126053091Y-55286262D01*
X126053097Y-55286265D01*
X126148109Y-55325620D01*
X126273564Y-55377585D01*
X126504076Y-55439351D01*
X126740678Y-55470500D01*
X126740685Y-55470500D01*
X126979315Y-55470500D01*
X126979322Y-55470500D01*
X127215924Y-55439351D01*
X127446436Y-55377585D01*
X127666914Y-55286260D01*
X127873586Y-55166938D01*
X128062914Y-55021661D01*
X128231661Y-54852914D01*
X128376938Y-54663586D01*
X128496260Y-54456914D01*
X128587585Y-54236436D01*
X128649351Y-54005924D01*
X128680500Y-53769322D01*
X128680500Y-53530678D01*
X128649351Y-53294076D01*
X128587585Y-53063564D01*
X128496260Y-52843086D01*
X128376938Y-52636414D01*
X128231661Y-52447086D01*
X128231656Y-52447080D01*
X128062919Y-52278343D01*
X128062912Y-52278337D01*
X127873590Y-52133065D01*
X127873589Y-52133064D01*
X127873586Y-52133062D01*
X127666914Y-52013740D01*
X127666902Y-52013734D01*
X127446436Y-51922415D01*
X127215924Y-51860649D01*
X127215923Y-51860648D01*
X127215920Y-51860648D01*
X126979332Y-51829501D01*
X126979327Y-51829500D01*
X126979322Y-51829500D01*
X126740678Y-51829500D01*
X126740672Y-51829500D01*
X126740667Y-51829501D01*
X126504079Y-51860648D01*
X126273563Y-51922415D01*
X126053097Y-52013734D01*
X126053083Y-52013741D01*
X125846409Y-52133065D01*
X125657087Y-52278337D01*
X125657080Y-52278343D01*
X125488343Y-52447080D01*
X125488337Y-52447087D01*
X125343065Y-52636409D01*
X125223741Y-52843083D01*
X125223734Y-52843097D01*
X125132415Y-53063563D01*
X125070648Y-53294079D01*
X125039501Y-53530667D01*
X125039500Y-53530684D01*
X122659003Y-53530684D01*
X122765269Y-53424418D01*
X122882353Y-53263266D01*
X122972785Y-53085783D01*
X122980005Y-53063563D01*
X123034338Y-52896343D01*
X123034338Y-52896342D01*
X123034339Y-52896339D01*
X123065500Y-52699597D01*
X123065500Y-52500403D01*
X123034339Y-52303661D01*
X123034338Y-52303657D01*
X123034338Y-52303656D01*
X122972786Y-52114219D01*
X122921586Y-52013734D01*
X122882353Y-51936734D01*
X122765269Y-51775582D01*
X122624418Y-51634731D01*
X122463266Y-51517647D01*
X122384379Y-51477452D01*
X122285780Y-51427213D01*
X122096342Y-51365661D01*
X121948782Y-51342290D01*
X121899597Y-51334500D01*
X121700403Y-51334500D01*
X121634822Y-51344887D01*
X121503659Y-51365661D01*
X121503656Y-51365661D01*
X121314219Y-51427213D01*
X121136733Y-51517647D01*
X121044790Y-51584447D01*
X120975582Y-51634731D01*
X120975580Y-51634733D01*
X120975579Y-51634733D01*
X120834733Y-51775579D01*
X120834733Y-51775580D01*
X120834731Y-51775582D01*
X120782367Y-51847655D01*
X120749817Y-51892456D01*
X120694487Y-51935121D01*
X120624873Y-51941100D01*
X120563078Y-51908494D01*
X120528721Y-51847655D01*
X120525499Y-51819570D01*
X120525499Y-51787129D01*
X120525498Y-51787123D01*
X120525497Y-51787116D01*
X120519091Y-51727517D01*
X120468796Y-51592669D01*
X120468795Y-51592668D01*
X120468793Y-51592664D01*
X120382547Y-51477455D01*
X120382544Y-51477452D01*
X120267335Y-51391206D01*
X120267328Y-51391202D01*
X120132482Y-51340908D01*
X120132483Y-51340908D01*
X120072883Y-51334501D01*
X120072881Y-51334500D01*
X120072873Y-51334500D01*
X120072864Y-51334500D01*
X118447129Y-51334500D01*
X118447123Y-51334501D01*
X118387516Y-51340908D01*
X118252671Y-51391202D01*
X118252664Y-51391206D01*
X118137455Y-51477452D01*
X118137452Y-51477455D01*
X118051206Y-51592664D01*
X118051202Y-51592671D01*
X118000908Y-51727517D01*
X117995741Y-51775580D01*
X117994501Y-51787123D01*
X117994500Y-51787135D01*
X116190500Y-51787135D01*
X116190500Y-49566092D01*
X116191097Y-49553939D01*
X116199805Y-49465519D01*
X116204665Y-49416171D01*
X116209403Y-49392349D01*
X116247816Y-49265719D01*
X116257113Y-49243278D01*
X116319485Y-49126587D01*
X116332982Y-49106387D01*
X116416924Y-49004103D01*
X116434103Y-48986924D01*
X116536387Y-48902982D01*
X116556587Y-48889485D01*
X116673278Y-48827113D01*
X116695719Y-48817816D01*
X116822349Y-48779403D01*
X116846173Y-48774665D01*
X116975170Y-48761960D01*
X116983939Y-48761097D01*
X116996092Y-48760500D01*
X117029882Y-48760500D01*
X134950118Y-48760500D01*
X134983908Y-48760500D01*
X134996061Y-48761097D01*
G37*
%TD.AperFunction*%
%TD*%
%TA.AperFunction,Conductor*%
%TO.N,GNDREF*%
G36*
X177743039Y-78519685D02*
G01*
X177788794Y-78572489D01*
X177800000Y-78624000D01*
X177800000Y-113735500D01*
X177780315Y-113802539D01*
X177727511Y-113848294D01*
X177676000Y-113859500D01*
X163950116Y-113859500D01*
X163876425Y-113890024D01*
X163876424Y-113890025D01*
X161943269Y-115823181D01*
X161881946Y-115856666D01*
X161855588Y-115859500D01*
X129124412Y-115859500D01*
X129057373Y-115839815D01*
X129036731Y-115823181D01*
X127103574Y-113890024D01*
X127029883Y-113859500D01*
X127029882Y-113859500D01*
X124324000Y-113859500D01*
X124256961Y-113839815D01*
X124211206Y-113787011D01*
X124200000Y-113735500D01*
X124200000Y-113440022D01*
X158029500Y-113440022D01*
X158029500Y-113679977D01*
X158060818Y-113917868D01*
X158060819Y-113917873D01*
X158060820Y-113917879D01*
X158060821Y-113917881D01*
X158122924Y-114149656D01*
X158214749Y-114371340D01*
X158214753Y-114371350D01*
X158334728Y-114579153D01*
X158480802Y-114769520D01*
X158480808Y-114769527D01*
X158650472Y-114939191D01*
X158650479Y-114939197D01*
X158840846Y-115085271D01*
X159048649Y-115205246D01*
X159048650Y-115205246D01*
X159048653Y-115205248D01*
X159270342Y-115297075D01*
X159502121Y-115359180D01*
X159670139Y-115381299D01*
X159740022Y-115390500D01*
X159740023Y-115390500D01*
X159979978Y-115390500D01*
X160033992Y-115383388D01*
X160217879Y-115359180D01*
X160449658Y-115297075D01*
X160671347Y-115205248D01*
X160879154Y-115085271D01*
X161069522Y-114939196D01*
X161239196Y-114769522D01*
X161385271Y-114579154D01*
X161505248Y-114371347D01*
X161597075Y-114149658D01*
X161659180Y-113917879D01*
X161690500Y-113679977D01*
X161690500Y-113440023D01*
X161659180Y-113202121D01*
X161597075Y-112970342D01*
X161505248Y-112748653D01*
X161385271Y-112540846D01*
X161239196Y-112350478D01*
X161239191Y-112350472D01*
X161069527Y-112180808D01*
X161069520Y-112180802D01*
X160879153Y-112034728D01*
X160671350Y-111914753D01*
X160671340Y-111914749D01*
X160449656Y-111822924D01*
X160333768Y-111791872D01*
X160217879Y-111760820D01*
X160217873Y-111760819D01*
X160217868Y-111760818D01*
X159979978Y-111729500D01*
X159979977Y-111729500D01*
X159740023Y-111729500D01*
X159740022Y-111729500D01*
X159502131Y-111760818D01*
X159502124Y-111760819D01*
X159502121Y-111760820D01*
X159453138Y-111773944D01*
X159270343Y-111822924D01*
X159048659Y-111914749D01*
X159048649Y-111914753D01*
X158840846Y-112034728D01*
X158650479Y-112180802D01*
X158650472Y-112180808D01*
X158480808Y-112350472D01*
X158480802Y-112350479D01*
X158334728Y-112540846D01*
X158214753Y-112748649D01*
X158214749Y-112748659D01*
X158122924Y-112970343D01*
X158060821Y-113202118D01*
X158060818Y-113202131D01*
X158029500Y-113440022D01*
X124200000Y-113440022D01*
X124200000Y-110127135D01*
X133554500Y-110127135D01*
X133554500Y-111872870D01*
X133554501Y-111872876D01*
X133560908Y-111932483D01*
X133611202Y-112067328D01*
X133611206Y-112067335D01*
X133697452Y-112182544D01*
X133697455Y-112182547D01*
X133812664Y-112268793D01*
X133812671Y-112268797D01*
X133947517Y-112319091D01*
X133947516Y-112319091D01*
X133954444Y-112319835D01*
X134007127Y-112325500D01*
X135752872Y-112325499D01*
X135812483Y-112319091D01*
X135947331Y-112268796D01*
X136062546Y-112182546D01*
X136148796Y-112067331D01*
X136199091Y-111932483D01*
X136199091Y-111932481D01*
X136200874Y-111924938D01*
X136203757Y-111925619D01*
X136225147Y-111873896D01*
X136282517Y-111834014D01*
X136352340Y-111831480D01*
X136409425Y-111863965D01*
X136556495Y-112011035D01*
X136725286Y-112133670D01*
X136813116Y-112178421D01*
X136911179Y-112228387D01*
X136911181Y-112228387D01*
X136911184Y-112228389D01*
X136944808Y-112239314D01*
X137109610Y-112292862D01*
X137315676Y-112325500D01*
X137315681Y-112325500D01*
X137524324Y-112325500D01*
X137730389Y-112292862D01*
X137731894Y-112292373D01*
X137928816Y-112228389D01*
X138114714Y-112133670D01*
X138283505Y-112011035D01*
X138431035Y-111863505D01*
X138553670Y-111694714D01*
X138579515Y-111643990D01*
X138627489Y-111593194D01*
X138695310Y-111576398D01*
X138761445Y-111598935D01*
X138800485Y-111643990D01*
X138826328Y-111694712D01*
X138862006Y-111743818D01*
X138948965Y-111863505D01*
X139096495Y-112011035D01*
X139265286Y-112133670D01*
X139353116Y-112178421D01*
X139451179Y-112228387D01*
X139451181Y-112228387D01*
X139451184Y-112228389D01*
X139484808Y-112239314D01*
X139649610Y-112292862D01*
X139855676Y-112325500D01*
X139855681Y-112325500D01*
X140064324Y-112325500D01*
X140270389Y-112292862D01*
X140271894Y-112292373D01*
X140468816Y-112228389D01*
X140654714Y-112133670D01*
X140823505Y-112011035D01*
X140971035Y-111863505D01*
X141093670Y-111694714D01*
X141119515Y-111643990D01*
X141167489Y-111593194D01*
X141235310Y-111576398D01*
X141301445Y-111598935D01*
X141340485Y-111643990D01*
X141366328Y-111694712D01*
X141402006Y-111743818D01*
X141488965Y-111863505D01*
X141636495Y-112011035D01*
X141805286Y-112133670D01*
X141893116Y-112178421D01*
X141991179Y-112228387D01*
X141991181Y-112228387D01*
X141991184Y-112228389D01*
X142024808Y-112239314D01*
X142189610Y-112292862D01*
X142395676Y-112325500D01*
X142395681Y-112325500D01*
X142604324Y-112325500D01*
X142810389Y-112292862D01*
X142811894Y-112292373D01*
X143008816Y-112228389D01*
X143194714Y-112133670D01*
X143363505Y-112011035D01*
X143511035Y-111863505D01*
X143633670Y-111694714D01*
X143659515Y-111643990D01*
X143707489Y-111593194D01*
X143775310Y-111576398D01*
X143841445Y-111598935D01*
X143880485Y-111643990D01*
X143906328Y-111694712D01*
X143942006Y-111743818D01*
X144028965Y-111863505D01*
X144176495Y-112011035D01*
X144345286Y-112133670D01*
X144433116Y-112178421D01*
X144531179Y-112228387D01*
X144531181Y-112228387D01*
X144531184Y-112228389D01*
X144564808Y-112239314D01*
X144729610Y-112292862D01*
X144935676Y-112325500D01*
X144935681Y-112325500D01*
X145144324Y-112325500D01*
X145350389Y-112292862D01*
X145351894Y-112292373D01*
X145548816Y-112228389D01*
X145734714Y-112133670D01*
X145903505Y-112011035D01*
X146051035Y-111863505D01*
X146173670Y-111694714D01*
X146199515Y-111643990D01*
X146247489Y-111593194D01*
X146315310Y-111576398D01*
X146381445Y-111598935D01*
X146420485Y-111643990D01*
X146446328Y-111694712D01*
X146482006Y-111743818D01*
X146568965Y-111863505D01*
X146716495Y-112011035D01*
X146885286Y-112133670D01*
X146973116Y-112178421D01*
X147071179Y-112228387D01*
X147071181Y-112228387D01*
X147071184Y-112228389D01*
X147104808Y-112239314D01*
X147269610Y-112292862D01*
X147475676Y-112325500D01*
X147475681Y-112325500D01*
X147684324Y-112325500D01*
X147890389Y-112292862D01*
X147891894Y-112292373D01*
X148088816Y-112228389D01*
X148274714Y-112133670D01*
X148443505Y-112011035D01*
X148591035Y-111863505D01*
X148713670Y-111694714D01*
X148739515Y-111643990D01*
X148787489Y-111593194D01*
X148855310Y-111576398D01*
X148921445Y-111598935D01*
X148960485Y-111643990D01*
X148986328Y-111694712D01*
X149022006Y-111743818D01*
X149108965Y-111863505D01*
X149256495Y-112011035D01*
X149425286Y-112133670D01*
X149513116Y-112178421D01*
X149611179Y-112228387D01*
X149611181Y-112228387D01*
X149611184Y-112228389D01*
X149644808Y-112239314D01*
X149809610Y-112292862D01*
X150015676Y-112325500D01*
X150015681Y-112325500D01*
X150224324Y-112325500D01*
X150430389Y-112292862D01*
X150431894Y-112292373D01*
X150628816Y-112228389D01*
X150814714Y-112133670D01*
X150983505Y-112011035D01*
X151131035Y-111863505D01*
X151253670Y-111694714D01*
X151279515Y-111643990D01*
X151327489Y-111593194D01*
X151395310Y-111576398D01*
X151461445Y-111598935D01*
X151500485Y-111643990D01*
X151526328Y-111694712D01*
X151562006Y-111743818D01*
X151648965Y-111863505D01*
X151796495Y-112011035D01*
X151965286Y-112133670D01*
X152053116Y-112178421D01*
X152151179Y-112228387D01*
X152151181Y-112228387D01*
X152151184Y-112228389D01*
X152184808Y-112239314D01*
X152349610Y-112292862D01*
X152555676Y-112325500D01*
X152555681Y-112325500D01*
X152764324Y-112325500D01*
X152970389Y-112292862D01*
X152971894Y-112292373D01*
X153168816Y-112228389D01*
X153354714Y-112133670D01*
X153523505Y-112011035D01*
X153671035Y-111863505D01*
X153793670Y-111694714D01*
X153819796Y-111643437D01*
X153867769Y-111592642D01*
X153935590Y-111575846D01*
X154001725Y-111598383D01*
X154040766Y-111643437D01*
X154066759Y-111694451D01*
X154102627Y-111743818D01*
X154102627Y-111743819D01*
X154676212Y-111170234D01*
X154687482Y-111212292D01*
X154759890Y-111337708D01*
X154862292Y-111440110D01*
X154987708Y-111512518D01*
X155029765Y-111523787D01*
X154456179Y-112097371D01*
X154456180Y-112097372D01*
X154505543Y-112133236D01*
X154505556Y-112133244D01*
X154691372Y-112227924D01*
X154889727Y-112292373D01*
X155095721Y-112325000D01*
X155304279Y-112325000D01*
X155510272Y-112292373D01*
X155708627Y-112227924D01*
X155894451Y-112133240D01*
X155943818Y-112097372D01*
X155943818Y-112097371D01*
X155370234Y-111523787D01*
X155412292Y-111512518D01*
X155537708Y-111440110D01*
X155640110Y-111337708D01*
X155712518Y-111212292D01*
X155723787Y-111170234D01*
X156297371Y-111743818D01*
X156297372Y-111743818D01*
X156333240Y-111694451D01*
X156427924Y-111508627D01*
X156492373Y-111310272D01*
X156525000Y-111104279D01*
X156525000Y-110895720D01*
X156492373Y-110689727D01*
X156427924Y-110491372D01*
X156333244Y-110305556D01*
X156333236Y-110305543D01*
X156297372Y-110256180D01*
X156297371Y-110256179D01*
X155723787Y-110829764D01*
X155712518Y-110787708D01*
X155640110Y-110662292D01*
X155537708Y-110559890D01*
X155412292Y-110487482D01*
X155370233Y-110476212D01*
X155943819Y-109902627D01*
X155894451Y-109866759D01*
X155708627Y-109772075D01*
X155510272Y-109707626D01*
X155304279Y-109675000D01*
X155095721Y-109675000D01*
X154889727Y-109707626D01*
X154691372Y-109772075D01*
X154505552Y-109866757D01*
X154456180Y-109902627D01*
X155029766Y-110476212D01*
X154987708Y-110487482D01*
X154862292Y-110559890D01*
X154759890Y-110662292D01*
X154687482Y-110787708D01*
X154676212Y-110829765D01*
X154102627Y-110256180D01*
X154066755Y-110305555D01*
X154040765Y-110356563D01*
X153992790Y-110407358D01*
X153924969Y-110424153D01*
X153858834Y-110401615D01*
X153819796Y-110356561D01*
X153793671Y-110305287D01*
X153752791Y-110249022D01*
X153671035Y-110136495D01*
X153523505Y-109988965D01*
X153354714Y-109866330D01*
X153168820Y-109771612D01*
X152970389Y-109707137D01*
X152764324Y-109674500D01*
X152764319Y-109674500D01*
X152555681Y-109674500D01*
X152555676Y-109674500D01*
X152349610Y-109707137D01*
X152151179Y-109771612D01*
X151965285Y-109866330D01*
X151796493Y-109988966D01*
X151648966Y-110136493D01*
X151526330Y-110305285D01*
X151500485Y-110356010D01*
X151452510Y-110406806D01*
X151384690Y-110423601D01*
X151318555Y-110401064D01*
X151279515Y-110356010D01*
X151277610Y-110352271D01*
X151253670Y-110305286D01*
X151131035Y-110136495D01*
X150983505Y-109988965D01*
X150814714Y-109866330D01*
X150628820Y-109771612D01*
X150430389Y-109707137D01*
X150224324Y-109674500D01*
X150224319Y-109674500D01*
X150015681Y-109674500D01*
X150015676Y-109674500D01*
X149809610Y-109707137D01*
X149611179Y-109771612D01*
X149425285Y-109866330D01*
X149256493Y-109988966D01*
X149108966Y-110136493D01*
X148986330Y-110305285D01*
X148960485Y-110356010D01*
X148912510Y-110406806D01*
X148844690Y-110423601D01*
X148778555Y-110401064D01*
X148739515Y-110356010D01*
X148737610Y-110352271D01*
X148713670Y-110305286D01*
X148591035Y-110136495D01*
X148443505Y-109988965D01*
X148274714Y-109866330D01*
X148088820Y-109771612D01*
X147890389Y-109707137D01*
X147684324Y-109674500D01*
X147684319Y-109674500D01*
X147475681Y-109674500D01*
X147475676Y-109674500D01*
X147269610Y-109707137D01*
X147071179Y-109771612D01*
X146885285Y-109866330D01*
X146716493Y-109988966D01*
X146568966Y-110136493D01*
X146446330Y-110305285D01*
X146420485Y-110356010D01*
X146372510Y-110406806D01*
X146304690Y-110423601D01*
X146238555Y-110401064D01*
X146199515Y-110356010D01*
X146197610Y-110352271D01*
X146173670Y-110305286D01*
X146051035Y-110136495D01*
X145903505Y-109988965D01*
X145734714Y-109866330D01*
X145548820Y-109771612D01*
X145350389Y-109707137D01*
X145144324Y-109674500D01*
X145144319Y-109674500D01*
X144935681Y-109674500D01*
X144935676Y-109674500D01*
X144729610Y-109707137D01*
X144531179Y-109771612D01*
X144345285Y-109866330D01*
X144176493Y-109988966D01*
X144028966Y-110136493D01*
X143906330Y-110305285D01*
X143880485Y-110356010D01*
X143832510Y-110406806D01*
X143764690Y-110423601D01*
X143698555Y-110401064D01*
X143659515Y-110356010D01*
X143657610Y-110352271D01*
X143633670Y-110305286D01*
X143511035Y-110136495D01*
X143363505Y-109988965D01*
X143194714Y-109866330D01*
X143008820Y-109771612D01*
X142810389Y-109707137D01*
X142604324Y-109674500D01*
X142604319Y-109674500D01*
X142395681Y-109674500D01*
X142395676Y-109674500D01*
X142189610Y-109707137D01*
X141991179Y-109771612D01*
X141805285Y-109866330D01*
X141636493Y-109988966D01*
X141488966Y-110136493D01*
X141366330Y-110305285D01*
X141340485Y-110356010D01*
X141292510Y-110406806D01*
X141224690Y-110423601D01*
X141158555Y-110401064D01*
X141119515Y-110356010D01*
X141117610Y-110352271D01*
X141093670Y-110305286D01*
X140971035Y-110136495D01*
X140823505Y-109988965D01*
X140654714Y-109866330D01*
X140468820Y-109771612D01*
X140270389Y-109707137D01*
X140064324Y-109674500D01*
X140064319Y-109674500D01*
X139855681Y-109674500D01*
X139855676Y-109674500D01*
X139649610Y-109707137D01*
X139451179Y-109771612D01*
X139265285Y-109866330D01*
X139096493Y-109988966D01*
X138948966Y-110136493D01*
X138826330Y-110305285D01*
X138800485Y-110356010D01*
X138752510Y-110406806D01*
X138684690Y-110423601D01*
X138618555Y-110401064D01*
X138579515Y-110356010D01*
X138577610Y-110352271D01*
X138553670Y-110305286D01*
X138431035Y-110136495D01*
X138283505Y-109988965D01*
X138114714Y-109866330D01*
X137928820Y-109771612D01*
X137730389Y-109707137D01*
X137524324Y-109674500D01*
X137524319Y-109674500D01*
X137315681Y-109674500D01*
X137315676Y-109674500D01*
X137109610Y-109707137D01*
X136911179Y-109771612D01*
X136725285Y-109866330D01*
X136556496Y-109988964D01*
X136409426Y-110136034D01*
X136348103Y-110169518D01*
X136278411Y-110164534D01*
X136222478Y-110122662D01*
X136203515Y-110074444D01*
X136200876Y-110075068D01*
X136199092Y-110067520D01*
X136148797Y-109932671D01*
X136148793Y-109932664D01*
X136062547Y-109817455D01*
X136062544Y-109817452D01*
X135947335Y-109731206D01*
X135947328Y-109731202D01*
X135812482Y-109680908D01*
X135812483Y-109680908D01*
X135752883Y-109674501D01*
X135752881Y-109674500D01*
X135752873Y-109674500D01*
X135752864Y-109674500D01*
X134007129Y-109674500D01*
X134007123Y-109674501D01*
X133947516Y-109680908D01*
X133812671Y-109731202D01*
X133812664Y-109731206D01*
X133697455Y-109817452D01*
X133697452Y-109817455D01*
X133611206Y-109932664D01*
X133611202Y-109932671D01*
X133560908Y-110067517D01*
X133554501Y-110127116D01*
X133554500Y-110127135D01*
X124200000Y-110127135D01*
X124200000Y-78624000D01*
X124219685Y-78556961D01*
X124272489Y-78511206D01*
X124324000Y-78500000D01*
X177676000Y-78500000D01*
X177743039Y-78519685D01*
G37*
%TD.AperFunction*%
%TD*%
M02*
