%TF.GenerationSoftware,KiCad,Pcbnew,9.0.7-9.0.7~ubuntu24.04.1*%
%TF.CreationDate,2026-01-13T16:30:03+01:00*%
%TF.ProjectId,digital_input,64696769-7461-46c5-9f69-6e7075742e6b,1.0*%
%TF.SameCoordinates,Original*%
%TF.FileFunction,Soldermask,Bot*%
%TF.FilePolarity,Negative*%
%FSLAX46Y46*%
G04 Gerber Fmt 4.6, Leading zero omitted, Abs format (unit mm)*
G04 Created by KiCad (PCBNEW 9.0.7-9.0.7~ubuntu24.04.1) date 2026-01-13 16:30:03*
%MOMM*%
%LPD*%
G01*
G04 APERTURE LIST*
G04 APERTURE END LIST*
G36*
X135705000Y-111825000D02*
G01*
X134055000Y-111825000D01*
X134055000Y-110175000D01*
X135705000Y-110175000D01*
X135705000Y-111825000D01*
G37*
G36*
X137659485Y-110210524D02*
G01*
X137808902Y-110272415D01*
X137943374Y-110362266D01*
X138057734Y-110476626D01*
X138147585Y-110611098D01*
X138209476Y-110760515D01*
X138241027Y-110919136D01*
X138241027Y-111080864D01*
X138209476Y-111239485D01*
X138147585Y-111388902D01*
X138057734Y-111523374D01*
X137943374Y-111637734D01*
X137808902Y-111727585D01*
X137659485Y-111789476D01*
X137500864Y-111821027D01*
X137339136Y-111821027D01*
X137180515Y-111789476D01*
X137031098Y-111727585D01*
X136896626Y-111637734D01*
X136782266Y-111523374D01*
X136692415Y-111388902D01*
X136630524Y-111239485D01*
X136598973Y-111080864D01*
X136598973Y-110919136D01*
X136630524Y-110760515D01*
X136692415Y-110611098D01*
X136782266Y-110476626D01*
X136896626Y-110362266D01*
X137031098Y-110272415D01*
X137180515Y-110210524D01*
X137339136Y-110178973D01*
X137500864Y-110178973D01*
X137659485Y-110210524D01*
G37*
G36*
X140199485Y-110210524D02*
G01*
X140348902Y-110272415D01*
X140483374Y-110362266D01*
X140597734Y-110476626D01*
X140687585Y-110611098D01*
X140749476Y-110760515D01*
X140781027Y-110919136D01*
X140781027Y-111080864D01*
X140749476Y-111239485D01*
X140687585Y-111388902D01*
X140597734Y-111523374D01*
X140483374Y-111637734D01*
X140348902Y-111727585D01*
X140199485Y-111789476D01*
X140040864Y-111821027D01*
X139879136Y-111821027D01*
X139720515Y-111789476D01*
X139571098Y-111727585D01*
X139436626Y-111637734D01*
X139322266Y-111523374D01*
X139232415Y-111388902D01*
X139170524Y-111239485D01*
X139138973Y-111080864D01*
X139138973Y-110919136D01*
X139170524Y-110760515D01*
X139232415Y-110611098D01*
X139322266Y-110476626D01*
X139436626Y-110362266D01*
X139571098Y-110272415D01*
X139720515Y-110210524D01*
X139879136Y-110178973D01*
X140040864Y-110178973D01*
X140199485Y-110210524D01*
G37*
G36*
X142739485Y-110210524D02*
G01*
X142888902Y-110272415D01*
X143023374Y-110362266D01*
X143137734Y-110476626D01*
X143227585Y-110611098D01*
X143289476Y-110760515D01*
X143321027Y-110919136D01*
X143321027Y-111080864D01*
X143289476Y-111239485D01*
X143227585Y-111388902D01*
X143137734Y-111523374D01*
X143023374Y-111637734D01*
X142888902Y-111727585D01*
X142739485Y-111789476D01*
X142580864Y-111821027D01*
X142419136Y-111821027D01*
X142260515Y-111789476D01*
X142111098Y-111727585D01*
X141976626Y-111637734D01*
X141862266Y-111523374D01*
X141772415Y-111388902D01*
X141710524Y-111239485D01*
X141678973Y-111080864D01*
X141678973Y-110919136D01*
X141710524Y-110760515D01*
X141772415Y-110611098D01*
X141862266Y-110476626D01*
X141976626Y-110362266D01*
X142111098Y-110272415D01*
X142260515Y-110210524D01*
X142419136Y-110178973D01*
X142580864Y-110178973D01*
X142739485Y-110210524D01*
G37*
G36*
X145279485Y-110210524D02*
G01*
X145428902Y-110272415D01*
X145563374Y-110362266D01*
X145677734Y-110476626D01*
X145767585Y-110611098D01*
X145829476Y-110760515D01*
X145861027Y-110919136D01*
X145861027Y-111080864D01*
X145829476Y-111239485D01*
X145767585Y-111388902D01*
X145677734Y-111523374D01*
X145563374Y-111637734D01*
X145428902Y-111727585D01*
X145279485Y-111789476D01*
X145120864Y-111821027D01*
X144959136Y-111821027D01*
X144800515Y-111789476D01*
X144651098Y-111727585D01*
X144516626Y-111637734D01*
X144402266Y-111523374D01*
X144312415Y-111388902D01*
X144250524Y-111239485D01*
X144218973Y-111080864D01*
X144218973Y-110919136D01*
X144250524Y-110760515D01*
X144312415Y-110611098D01*
X144402266Y-110476626D01*
X144516626Y-110362266D01*
X144651098Y-110272415D01*
X144800515Y-110210524D01*
X144959136Y-110178973D01*
X145120864Y-110178973D01*
X145279485Y-110210524D01*
G37*
G36*
X147819485Y-110210524D02*
G01*
X147968902Y-110272415D01*
X148103374Y-110362266D01*
X148217734Y-110476626D01*
X148307585Y-110611098D01*
X148369476Y-110760515D01*
X148401027Y-110919136D01*
X148401027Y-111080864D01*
X148369476Y-111239485D01*
X148307585Y-111388902D01*
X148217734Y-111523374D01*
X148103374Y-111637734D01*
X147968902Y-111727585D01*
X147819485Y-111789476D01*
X147660864Y-111821027D01*
X147499136Y-111821027D01*
X147340515Y-111789476D01*
X147191098Y-111727585D01*
X147056626Y-111637734D01*
X146942266Y-111523374D01*
X146852415Y-111388902D01*
X146790524Y-111239485D01*
X146758973Y-111080864D01*
X146758973Y-110919136D01*
X146790524Y-110760515D01*
X146852415Y-110611098D01*
X146942266Y-110476626D01*
X147056626Y-110362266D01*
X147191098Y-110272415D01*
X147340515Y-110210524D01*
X147499136Y-110178973D01*
X147660864Y-110178973D01*
X147819485Y-110210524D01*
G37*
G36*
X150359485Y-110210524D02*
G01*
X150508902Y-110272415D01*
X150643374Y-110362266D01*
X150757734Y-110476626D01*
X150847585Y-110611098D01*
X150909476Y-110760515D01*
X150941027Y-110919136D01*
X150941027Y-111080864D01*
X150909476Y-111239485D01*
X150847585Y-111388902D01*
X150757734Y-111523374D01*
X150643374Y-111637734D01*
X150508902Y-111727585D01*
X150359485Y-111789476D01*
X150200864Y-111821027D01*
X150039136Y-111821027D01*
X149880515Y-111789476D01*
X149731098Y-111727585D01*
X149596626Y-111637734D01*
X149482266Y-111523374D01*
X149392415Y-111388902D01*
X149330524Y-111239485D01*
X149298973Y-111080864D01*
X149298973Y-110919136D01*
X149330524Y-110760515D01*
X149392415Y-110611098D01*
X149482266Y-110476626D01*
X149596626Y-110362266D01*
X149731098Y-110272415D01*
X149880515Y-110210524D01*
X150039136Y-110178973D01*
X150200864Y-110178973D01*
X150359485Y-110210524D01*
G37*
G36*
X152899485Y-110210524D02*
G01*
X153048902Y-110272415D01*
X153183374Y-110362266D01*
X153297734Y-110476626D01*
X153387585Y-110611098D01*
X153449476Y-110760515D01*
X153481027Y-110919136D01*
X153481027Y-111080864D01*
X153449476Y-111239485D01*
X153387585Y-111388902D01*
X153297734Y-111523374D01*
X153183374Y-111637734D01*
X153048902Y-111727585D01*
X152899485Y-111789476D01*
X152740864Y-111821027D01*
X152579136Y-111821027D01*
X152420515Y-111789476D01*
X152271098Y-111727585D01*
X152136626Y-111637734D01*
X152022266Y-111523374D01*
X151932415Y-111388902D01*
X151870524Y-111239485D01*
X151838973Y-111080864D01*
X151838973Y-110919136D01*
X151870524Y-110760515D01*
X151932415Y-110611098D01*
X152022266Y-110476626D01*
X152136626Y-110362266D01*
X152271098Y-110272415D01*
X152420515Y-110210524D01*
X152579136Y-110178973D01*
X152740864Y-110178973D01*
X152899485Y-110210524D01*
G37*
G36*
X155439485Y-110210524D02*
G01*
X155588902Y-110272415D01*
X155723374Y-110362266D01*
X155837734Y-110476626D01*
X155927585Y-110611098D01*
X155989476Y-110760515D01*
X156021027Y-110919136D01*
X156021027Y-111080864D01*
X155989476Y-111239485D01*
X155927585Y-111388902D01*
X155837734Y-111523374D01*
X155723374Y-111637734D01*
X155588902Y-111727585D01*
X155439485Y-111789476D01*
X155280864Y-111821027D01*
X155119136Y-111821027D01*
X154960515Y-111789476D01*
X154811098Y-111727585D01*
X154676626Y-111637734D01*
X154562266Y-111523374D01*
X154472415Y-111388902D01*
X154410524Y-111239485D01*
X154378973Y-111080864D01*
X154378973Y-110919136D01*
X154410524Y-110760515D01*
X154472415Y-110611098D01*
X154562266Y-110476626D01*
X154676626Y-110362266D01*
X154811098Y-110272415D01*
X154960515Y-110210524D01*
X155119136Y-110178973D01*
X155280864Y-110178973D01*
X155439485Y-110210524D01*
G37*
G36*
X119482068Y-107747941D02*
G01*
X119620619Y-107805330D01*
X119745311Y-107888647D01*
X119851353Y-107994689D01*
X119934670Y-108119381D01*
X119992059Y-108257932D01*
X120021316Y-108405017D01*
X120021316Y-108554983D01*
X119992059Y-108702068D01*
X119934670Y-108840619D01*
X119851353Y-108965311D01*
X119745311Y-109071353D01*
X119620619Y-109154670D01*
X119482068Y-109212059D01*
X119334983Y-109241316D01*
X119185017Y-109241316D01*
X119037932Y-109212059D01*
X118899381Y-109154670D01*
X118774689Y-109071353D01*
X118668647Y-108965311D01*
X118585330Y-108840619D01*
X118527941Y-108702068D01*
X118498684Y-108554983D01*
X118498684Y-108405017D01*
X118527941Y-108257932D01*
X118585330Y-108119381D01*
X118668647Y-107994689D01*
X118774689Y-107888647D01*
X118899381Y-107805330D01*
X119037932Y-107747941D01*
X119185017Y-107718684D01*
X119334983Y-107718684D01*
X119482068Y-107747941D01*
G37*
G36*
X122022068Y-107747941D02*
G01*
X122160619Y-107805330D01*
X122285311Y-107888647D01*
X122391353Y-107994689D01*
X122474670Y-108119381D01*
X122532059Y-108257932D01*
X122561316Y-108405017D01*
X122561316Y-108554983D01*
X122532059Y-108702068D01*
X122474670Y-108840619D01*
X122391353Y-108965311D01*
X122285311Y-109071353D01*
X122160619Y-109154670D01*
X122022068Y-109212059D01*
X121874983Y-109241316D01*
X121725017Y-109241316D01*
X121577932Y-109212059D01*
X121439381Y-109154670D01*
X121314689Y-109071353D01*
X121208647Y-108965311D01*
X121125330Y-108840619D01*
X121067941Y-108702068D01*
X121038684Y-108554983D01*
X121038684Y-108405017D01*
X121067941Y-108257932D01*
X121125330Y-108119381D01*
X121208647Y-107994689D01*
X121314689Y-107888647D01*
X121439381Y-107805330D01*
X121577932Y-107747941D01*
X121725017Y-107718684D01*
X121874983Y-107718684D01*
X122022068Y-107747941D01*
G37*
G36*
X180432068Y-107747941D02*
G01*
X180570619Y-107805330D01*
X180695311Y-107888647D01*
X180801353Y-107994689D01*
X180884670Y-108119381D01*
X180942059Y-108257932D01*
X180971316Y-108405017D01*
X180971316Y-108554983D01*
X180942059Y-108702068D01*
X180884670Y-108840619D01*
X180801353Y-108965311D01*
X180695311Y-109071353D01*
X180570619Y-109154670D01*
X180432068Y-109212059D01*
X180284983Y-109241316D01*
X180135017Y-109241316D01*
X179987932Y-109212059D01*
X179849381Y-109154670D01*
X179724689Y-109071353D01*
X179618647Y-108965311D01*
X179535330Y-108840619D01*
X179477941Y-108702068D01*
X179448684Y-108554983D01*
X179448684Y-108405017D01*
X179477941Y-108257932D01*
X179535330Y-108119381D01*
X179618647Y-107994689D01*
X179724689Y-107888647D01*
X179849381Y-107805330D01*
X179987932Y-107747941D01*
X180135017Y-107718684D01*
X180284983Y-107718684D01*
X180432068Y-107747941D01*
G37*
G36*
X182972068Y-107747941D02*
G01*
X183110619Y-107805330D01*
X183235311Y-107888647D01*
X183341353Y-107994689D01*
X183424670Y-108119381D01*
X183482059Y-108257932D01*
X183511316Y-108405017D01*
X183511316Y-108554983D01*
X183482059Y-108702068D01*
X183424670Y-108840619D01*
X183341353Y-108965311D01*
X183235311Y-109071353D01*
X183110619Y-109154670D01*
X182972068Y-109212059D01*
X182824983Y-109241316D01*
X182675017Y-109241316D01*
X182527932Y-109212059D01*
X182389381Y-109154670D01*
X182264689Y-109071353D01*
X182158647Y-108965311D01*
X182075330Y-108840619D01*
X182017941Y-108702068D01*
X181988684Y-108554983D01*
X181988684Y-108405017D01*
X182017941Y-108257932D01*
X182075330Y-108119381D01*
X182158647Y-107994689D01*
X182264689Y-107888647D01*
X182389381Y-107805330D01*
X182527932Y-107747941D01*
X182675017Y-107718684D01*
X182824983Y-107718684D01*
X182972068Y-107747941D01*
G37*
G36*
X119482068Y-105207941D02*
G01*
X119620619Y-105265330D01*
X119745311Y-105348647D01*
X119851353Y-105454689D01*
X119934670Y-105579381D01*
X119992059Y-105717932D01*
X120021316Y-105865017D01*
X120021316Y-106014983D01*
X119992059Y-106162068D01*
X119934670Y-106300619D01*
X119851353Y-106425311D01*
X119745311Y-106531353D01*
X119620619Y-106614670D01*
X119482068Y-106672059D01*
X119334983Y-106701316D01*
X119185017Y-106701316D01*
X119037932Y-106672059D01*
X118899381Y-106614670D01*
X118774689Y-106531353D01*
X118668647Y-106425311D01*
X118585330Y-106300619D01*
X118527941Y-106162068D01*
X118498684Y-106014983D01*
X118498684Y-105865017D01*
X118527941Y-105717932D01*
X118585330Y-105579381D01*
X118668647Y-105454689D01*
X118774689Y-105348647D01*
X118899381Y-105265330D01*
X119037932Y-105207941D01*
X119185017Y-105178684D01*
X119334983Y-105178684D01*
X119482068Y-105207941D01*
G37*
G36*
X122022068Y-105207941D02*
G01*
X122160619Y-105265330D01*
X122285311Y-105348647D01*
X122391353Y-105454689D01*
X122474670Y-105579381D01*
X122532059Y-105717932D01*
X122561316Y-105865017D01*
X122561316Y-106014983D01*
X122532059Y-106162068D01*
X122474670Y-106300619D01*
X122391353Y-106425311D01*
X122285311Y-106531353D01*
X122160619Y-106614670D01*
X122022068Y-106672059D01*
X121874983Y-106701316D01*
X121725017Y-106701316D01*
X121577932Y-106672059D01*
X121439381Y-106614670D01*
X121314689Y-106531353D01*
X121208647Y-106425311D01*
X121125330Y-106300619D01*
X121067941Y-106162068D01*
X121038684Y-106014983D01*
X121038684Y-105865017D01*
X121067941Y-105717932D01*
X121125330Y-105579381D01*
X121208647Y-105454689D01*
X121314689Y-105348647D01*
X121439381Y-105265330D01*
X121577932Y-105207941D01*
X121725017Y-105178684D01*
X121874983Y-105178684D01*
X122022068Y-105207941D01*
G37*
G36*
X180432068Y-105207941D02*
G01*
X180570619Y-105265330D01*
X180695311Y-105348647D01*
X180801353Y-105454689D01*
X180884670Y-105579381D01*
X180942059Y-105717932D01*
X180971316Y-105865017D01*
X180971316Y-106014983D01*
X180942059Y-106162068D01*
X180884670Y-106300619D01*
X180801353Y-106425311D01*
X180695311Y-106531353D01*
X180570619Y-106614670D01*
X180432068Y-106672059D01*
X180284983Y-106701316D01*
X180135017Y-106701316D01*
X179987932Y-106672059D01*
X179849381Y-106614670D01*
X179724689Y-106531353D01*
X179618647Y-106425311D01*
X179535330Y-106300619D01*
X179477941Y-106162068D01*
X179448684Y-106014983D01*
X179448684Y-105865017D01*
X179477941Y-105717932D01*
X179535330Y-105579381D01*
X179618647Y-105454689D01*
X179724689Y-105348647D01*
X179849381Y-105265330D01*
X179987932Y-105207941D01*
X180135017Y-105178684D01*
X180284983Y-105178684D01*
X180432068Y-105207941D01*
G37*
G36*
X182972068Y-105207941D02*
G01*
X183110619Y-105265330D01*
X183235311Y-105348647D01*
X183341353Y-105454689D01*
X183424670Y-105579381D01*
X183482059Y-105717932D01*
X183511316Y-105865017D01*
X183511316Y-106014983D01*
X183482059Y-106162068D01*
X183424670Y-106300619D01*
X183341353Y-106425311D01*
X183235311Y-106531353D01*
X183110619Y-106614670D01*
X182972068Y-106672059D01*
X182824983Y-106701316D01*
X182675017Y-106701316D01*
X182527932Y-106672059D01*
X182389381Y-106614670D01*
X182264689Y-106531353D01*
X182158647Y-106425311D01*
X182075330Y-106300619D01*
X182017941Y-106162068D01*
X181988684Y-106014983D01*
X181988684Y-105865017D01*
X182017941Y-105717932D01*
X182075330Y-105579381D01*
X182158647Y-105454689D01*
X182264689Y-105348647D01*
X182389381Y-105265330D01*
X182527932Y-105207941D01*
X182675017Y-105178684D01*
X182824983Y-105178684D01*
X182972068Y-105207941D01*
G37*
G36*
X119482068Y-102667941D02*
G01*
X119620619Y-102725330D01*
X119745311Y-102808647D01*
X119851353Y-102914689D01*
X119934670Y-103039381D01*
X119992059Y-103177932D01*
X120021316Y-103325017D01*
X120021316Y-103474983D01*
X119992059Y-103622068D01*
X119934670Y-103760619D01*
X119851353Y-103885311D01*
X119745311Y-103991353D01*
X119620619Y-104074670D01*
X119482068Y-104132059D01*
X119334983Y-104161316D01*
X119185017Y-104161316D01*
X119037932Y-104132059D01*
X118899381Y-104074670D01*
X118774689Y-103991353D01*
X118668647Y-103885311D01*
X118585330Y-103760619D01*
X118527941Y-103622068D01*
X118498684Y-103474983D01*
X118498684Y-103325017D01*
X118527941Y-103177932D01*
X118585330Y-103039381D01*
X118668647Y-102914689D01*
X118774689Y-102808647D01*
X118899381Y-102725330D01*
X119037932Y-102667941D01*
X119185017Y-102638684D01*
X119334983Y-102638684D01*
X119482068Y-102667941D01*
G37*
G36*
X122022068Y-102667941D02*
G01*
X122160619Y-102725330D01*
X122285311Y-102808647D01*
X122391353Y-102914689D01*
X122474670Y-103039381D01*
X122532059Y-103177932D01*
X122561316Y-103325017D01*
X122561316Y-103474983D01*
X122532059Y-103622068D01*
X122474670Y-103760619D01*
X122391353Y-103885311D01*
X122285311Y-103991353D01*
X122160619Y-104074670D01*
X122022068Y-104132059D01*
X121874983Y-104161316D01*
X121725017Y-104161316D01*
X121577932Y-104132059D01*
X121439381Y-104074670D01*
X121314689Y-103991353D01*
X121208647Y-103885311D01*
X121125330Y-103760619D01*
X121067941Y-103622068D01*
X121038684Y-103474983D01*
X121038684Y-103325017D01*
X121067941Y-103177932D01*
X121125330Y-103039381D01*
X121208647Y-102914689D01*
X121314689Y-102808647D01*
X121439381Y-102725330D01*
X121577932Y-102667941D01*
X121725017Y-102638684D01*
X121874983Y-102638684D01*
X122022068Y-102667941D01*
G37*
G36*
X180432068Y-102667941D02*
G01*
X180570619Y-102725330D01*
X180695311Y-102808647D01*
X180801353Y-102914689D01*
X180884670Y-103039381D01*
X180942059Y-103177932D01*
X180971316Y-103325017D01*
X180971316Y-103474983D01*
X180942059Y-103622068D01*
X180884670Y-103760619D01*
X180801353Y-103885311D01*
X180695311Y-103991353D01*
X180570619Y-104074670D01*
X180432068Y-104132059D01*
X180284983Y-104161316D01*
X180135017Y-104161316D01*
X179987932Y-104132059D01*
X179849381Y-104074670D01*
X179724689Y-103991353D01*
X179618647Y-103885311D01*
X179535330Y-103760619D01*
X179477941Y-103622068D01*
X179448684Y-103474983D01*
X179448684Y-103325017D01*
X179477941Y-103177932D01*
X179535330Y-103039381D01*
X179618647Y-102914689D01*
X179724689Y-102808647D01*
X179849381Y-102725330D01*
X179987932Y-102667941D01*
X180135017Y-102638684D01*
X180284983Y-102638684D01*
X180432068Y-102667941D01*
G37*
G36*
X182972068Y-102667941D02*
G01*
X183110619Y-102725330D01*
X183235311Y-102808647D01*
X183341353Y-102914689D01*
X183424670Y-103039381D01*
X183482059Y-103177932D01*
X183511316Y-103325017D01*
X183511316Y-103474983D01*
X183482059Y-103622068D01*
X183424670Y-103760619D01*
X183341353Y-103885311D01*
X183235311Y-103991353D01*
X183110619Y-104074670D01*
X182972068Y-104132059D01*
X182824983Y-104161316D01*
X182675017Y-104161316D01*
X182527932Y-104132059D01*
X182389381Y-104074670D01*
X182264689Y-103991353D01*
X182158647Y-103885311D01*
X182075330Y-103760619D01*
X182017941Y-103622068D01*
X181988684Y-103474983D01*
X181988684Y-103325017D01*
X182017941Y-103177932D01*
X182075330Y-103039381D01*
X182158647Y-102914689D01*
X182264689Y-102808647D01*
X182389381Y-102725330D01*
X182527932Y-102667941D01*
X182675017Y-102638684D01*
X182824983Y-102638684D01*
X182972068Y-102667941D01*
G37*
G36*
X119482068Y-100127941D02*
G01*
X119620619Y-100185330D01*
X119745311Y-100268647D01*
X119851353Y-100374689D01*
X119934670Y-100499381D01*
X119992059Y-100637932D01*
X120021316Y-100785017D01*
X120021316Y-100934983D01*
X119992059Y-101082068D01*
X119934670Y-101220619D01*
X119851353Y-101345311D01*
X119745311Y-101451353D01*
X119620619Y-101534670D01*
X119482068Y-101592059D01*
X119334983Y-101621316D01*
X119185017Y-101621316D01*
X119037932Y-101592059D01*
X118899381Y-101534670D01*
X118774689Y-101451353D01*
X118668647Y-101345311D01*
X118585330Y-101220619D01*
X118527941Y-101082068D01*
X118498684Y-100934983D01*
X118498684Y-100785017D01*
X118527941Y-100637932D01*
X118585330Y-100499381D01*
X118668647Y-100374689D01*
X118774689Y-100268647D01*
X118899381Y-100185330D01*
X119037932Y-100127941D01*
X119185017Y-100098684D01*
X119334983Y-100098684D01*
X119482068Y-100127941D01*
G37*
G36*
X122022068Y-100127941D02*
G01*
X122160619Y-100185330D01*
X122285311Y-100268647D01*
X122391353Y-100374689D01*
X122474670Y-100499381D01*
X122532059Y-100637932D01*
X122561316Y-100785017D01*
X122561316Y-100934983D01*
X122532059Y-101082068D01*
X122474670Y-101220619D01*
X122391353Y-101345311D01*
X122285311Y-101451353D01*
X122160619Y-101534670D01*
X122022068Y-101592059D01*
X121874983Y-101621316D01*
X121725017Y-101621316D01*
X121577932Y-101592059D01*
X121439381Y-101534670D01*
X121314689Y-101451353D01*
X121208647Y-101345311D01*
X121125330Y-101220619D01*
X121067941Y-101082068D01*
X121038684Y-100934983D01*
X121038684Y-100785017D01*
X121067941Y-100637932D01*
X121125330Y-100499381D01*
X121208647Y-100374689D01*
X121314689Y-100268647D01*
X121439381Y-100185330D01*
X121577932Y-100127941D01*
X121725017Y-100098684D01*
X121874983Y-100098684D01*
X122022068Y-100127941D01*
G37*
G36*
X180432068Y-100127941D02*
G01*
X180570619Y-100185330D01*
X180695311Y-100268647D01*
X180801353Y-100374689D01*
X180884670Y-100499381D01*
X180942059Y-100637932D01*
X180971316Y-100785017D01*
X180971316Y-100934983D01*
X180942059Y-101082068D01*
X180884670Y-101220619D01*
X180801353Y-101345311D01*
X180695311Y-101451353D01*
X180570619Y-101534670D01*
X180432068Y-101592059D01*
X180284983Y-101621316D01*
X180135017Y-101621316D01*
X179987932Y-101592059D01*
X179849381Y-101534670D01*
X179724689Y-101451353D01*
X179618647Y-101345311D01*
X179535330Y-101220619D01*
X179477941Y-101082068D01*
X179448684Y-100934983D01*
X179448684Y-100785017D01*
X179477941Y-100637932D01*
X179535330Y-100499381D01*
X179618647Y-100374689D01*
X179724689Y-100268647D01*
X179849381Y-100185330D01*
X179987932Y-100127941D01*
X180135017Y-100098684D01*
X180284983Y-100098684D01*
X180432068Y-100127941D01*
G37*
G36*
X182972068Y-100127941D02*
G01*
X183110619Y-100185330D01*
X183235311Y-100268647D01*
X183341353Y-100374689D01*
X183424670Y-100499381D01*
X183482059Y-100637932D01*
X183511316Y-100785017D01*
X183511316Y-100934983D01*
X183482059Y-101082068D01*
X183424670Y-101220619D01*
X183341353Y-101345311D01*
X183235311Y-101451353D01*
X183110619Y-101534670D01*
X182972068Y-101592059D01*
X182824983Y-101621316D01*
X182675017Y-101621316D01*
X182527932Y-101592059D01*
X182389381Y-101534670D01*
X182264689Y-101451353D01*
X182158647Y-101345311D01*
X182075330Y-101220619D01*
X182017941Y-101082068D01*
X181988684Y-100934983D01*
X181988684Y-100785017D01*
X182017941Y-100637932D01*
X182075330Y-100499381D01*
X182158647Y-100374689D01*
X182264689Y-100268647D01*
X182389381Y-100185330D01*
X182527932Y-100127941D01*
X182675017Y-100098684D01*
X182824983Y-100098684D01*
X182972068Y-100127941D01*
G37*
G36*
X119482068Y-97587941D02*
G01*
X119620619Y-97645330D01*
X119745311Y-97728647D01*
X119851353Y-97834689D01*
X119934670Y-97959381D01*
X119992059Y-98097932D01*
X120021316Y-98245017D01*
X120021316Y-98394983D01*
X119992059Y-98542068D01*
X119934670Y-98680619D01*
X119851353Y-98805311D01*
X119745311Y-98911353D01*
X119620619Y-98994670D01*
X119482068Y-99052059D01*
X119334983Y-99081316D01*
X119185017Y-99081316D01*
X119037932Y-99052059D01*
X118899381Y-98994670D01*
X118774689Y-98911353D01*
X118668647Y-98805311D01*
X118585330Y-98680619D01*
X118527941Y-98542068D01*
X118498684Y-98394983D01*
X118498684Y-98245017D01*
X118527941Y-98097932D01*
X118585330Y-97959381D01*
X118668647Y-97834689D01*
X118774689Y-97728647D01*
X118899381Y-97645330D01*
X119037932Y-97587941D01*
X119185017Y-97558684D01*
X119334983Y-97558684D01*
X119482068Y-97587941D01*
G37*
G36*
X122022068Y-97587941D02*
G01*
X122160619Y-97645330D01*
X122285311Y-97728647D01*
X122391353Y-97834689D01*
X122474670Y-97959381D01*
X122532059Y-98097932D01*
X122561316Y-98245017D01*
X122561316Y-98394983D01*
X122532059Y-98542068D01*
X122474670Y-98680619D01*
X122391353Y-98805311D01*
X122285311Y-98911353D01*
X122160619Y-98994670D01*
X122022068Y-99052059D01*
X121874983Y-99081316D01*
X121725017Y-99081316D01*
X121577932Y-99052059D01*
X121439381Y-98994670D01*
X121314689Y-98911353D01*
X121208647Y-98805311D01*
X121125330Y-98680619D01*
X121067941Y-98542068D01*
X121038684Y-98394983D01*
X121038684Y-98245017D01*
X121067941Y-98097932D01*
X121125330Y-97959381D01*
X121208647Y-97834689D01*
X121314689Y-97728647D01*
X121439381Y-97645330D01*
X121577932Y-97587941D01*
X121725017Y-97558684D01*
X121874983Y-97558684D01*
X122022068Y-97587941D01*
G37*
G36*
X180432068Y-97587941D02*
G01*
X180570619Y-97645330D01*
X180695311Y-97728647D01*
X180801353Y-97834689D01*
X180884670Y-97959381D01*
X180942059Y-98097932D01*
X180971316Y-98245017D01*
X180971316Y-98394983D01*
X180942059Y-98542068D01*
X180884670Y-98680619D01*
X180801353Y-98805311D01*
X180695311Y-98911353D01*
X180570619Y-98994670D01*
X180432068Y-99052059D01*
X180284983Y-99081316D01*
X180135017Y-99081316D01*
X179987932Y-99052059D01*
X179849381Y-98994670D01*
X179724689Y-98911353D01*
X179618647Y-98805311D01*
X179535330Y-98680619D01*
X179477941Y-98542068D01*
X179448684Y-98394983D01*
X179448684Y-98245017D01*
X179477941Y-98097932D01*
X179535330Y-97959381D01*
X179618647Y-97834689D01*
X179724689Y-97728647D01*
X179849381Y-97645330D01*
X179987932Y-97587941D01*
X180135017Y-97558684D01*
X180284983Y-97558684D01*
X180432068Y-97587941D01*
G37*
G36*
X182972068Y-97587941D02*
G01*
X183110619Y-97645330D01*
X183235311Y-97728647D01*
X183341353Y-97834689D01*
X183424670Y-97959381D01*
X183482059Y-98097932D01*
X183511316Y-98245017D01*
X183511316Y-98394983D01*
X183482059Y-98542068D01*
X183424670Y-98680619D01*
X183341353Y-98805311D01*
X183235311Y-98911353D01*
X183110619Y-98994670D01*
X182972068Y-99052059D01*
X182824983Y-99081316D01*
X182675017Y-99081316D01*
X182527932Y-99052059D01*
X182389381Y-98994670D01*
X182264689Y-98911353D01*
X182158647Y-98805311D01*
X182075330Y-98680619D01*
X182017941Y-98542068D01*
X181988684Y-98394983D01*
X181988684Y-98245017D01*
X182017941Y-98097932D01*
X182075330Y-97959381D01*
X182158647Y-97834689D01*
X182264689Y-97728647D01*
X182389381Y-97645330D01*
X182527932Y-97587941D01*
X182675017Y-97558684D01*
X182824983Y-97558684D01*
X182972068Y-97587941D01*
G37*
G36*
X119482068Y-95047941D02*
G01*
X119620619Y-95105330D01*
X119745311Y-95188647D01*
X119851353Y-95294689D01*
X119934670Y-95419381D01*
X119992059Y-95557932D01*
X120021316Y-95705017D01*
X120021316Y-95854983D01*
X119992059Y-96002068D01*
X119934670Y-96140619D01*
X119851353Y-96265311D01*
X119745311Y-96371353D01*
X119620619Y-96454670D01*
X119482068Y-96512059D01*
X119334983Y-96541316D01*
X119185017Y-96541316D01*
X119037932Y-96512059D01*
X118899381Y-96454670D01*
X118774689Y-96371353D01*
X118668647Y-96265311D01*
X118585330Y-96140619D01*
X118527941Y-96002068D01*
X118498684Y-95854983D01*
X118498684Y-95705017D01*
X118527941Y-95557932D01*
X118585330Y-95419381D01*
X118668647Y-95294689D01*
X118774689Y-95188647D01*
X118899381Y-95105330D01*
X119037932Y-95047941D01*
X119185017Y-95018684D01*
X119334983Y-95018684D01*
X119482068Y-95047941D01*
G37*
G36*
X122022068Y-95047941D02*
G01*
X122160619Y-95105330D01*
X122285311Y-95188647D01*
X122391353Y-95294689D01*
X122474670Y-95419381D01*
X122532059Y-95557932D01*
X122561316Y-95705017D01*
X122561316Y-95854983D01*
X122532059Y-96002068D01*
X122474670Y-96140619D01*
X122391353Y-96265311D01*
X122285311Y-96371353D01*
X122160619Y-96454670D01*
X122022068Y-96512059D01*
X121874983Y-96541316D01*
X121725017Y-96541316D01*
X121577932Y-96512059D01*
X121439381Y-96454670D01*
X121314689Y-96371353D01*
X121208647Y-96265311D01*
X121125330Y-96140619D01*
X121067941Y-96002068D01*
X121038684Y-95854983D01*
X121038684Y-95705017D01*
X121067941Y-95557932D01*
X121125330Y-95419381D01*
X121208647Y-95294689D01*
X121314689Y-95188647D01*
X121439381Y-95105330D01*
X121577932Y-95047941D01*
X121725017Y-95018684D01*
X121874983Y-95018684D01*
X122022068Y-95047941D01*
G37*
G36*
X180432068Y-95047941D02*
G01*
X180570619Y-95105330D01*
X180695311Y-95188647D01*
X180801353Y-95294689D01*
X180884670Y-95419381D01*
X180942059Y-95557932D01*
X180971316Y-95705017D01*
X180971316Y-95854983D01*
X180942059Y-96002068D01*
X180884670Y-96140619D01*
X180801353Y-96265311D01*
X180695311Y-96371353D01*
X180570619Y-96454670D01*
X180432068Y-96512059D01*
X180284983Y-96541316D01*
X180135017Y-96541316D01*
X179987932Y-96512059D01*
X179849381Y-96454670D01*
X179724689Y-96371353D01*
X179618647Y-96265311D01*
X179535330Y-96140619D01*
X179477941Y-96002068D01*
X179448684Y-95854983D01*
X179448684Y-95705017D01*
X179477941Y-95557932D01*
X179535330Y-95419381D01*
X179618647Y-95294689D01*
X179724689Y-95188647D01*
X179849381Y-95105330D01*
X179987932Y-95047941D01*
X180135017Y-95018684D01*
X180284983Y-95018684D01*
X180432068Y-95047941D01*
G37*
G36*
X182972068Y-95047941D02*
G01*
X183110619Y-95105330D01*
X183235311Y-95188647D01*
X183341353Y-95294689D01*
X183424670Y-95419381D01*
X183482059Y-95557932D01*
X183511316Y-95705017D01*
X183511316Y-95854983D01*
X183482059Y-96002068D01*
X183424670Y-96140619D01*
X183341353Y-96265311D01*
X183235311Y-96371353D01*
X183110619Y-96454670D01*
X182972068Y-96512059D01*
X182824983Y-96541316D01*
X182675017Y-96541316D01*
X182527932Y-96512059D01*
X182389381Y-96454670D01*
X182264689Y-96371353D01*
X182158647Y-96265311D01*
X182075330Y-96140619D01*
X182017941Y-96002068D01*
X181988684Y-95854983D01*
X181988684Y-95705017D01*
X182017941Y-95557932D01*
X182075330Y-95419381D01*
X182158647Y-95294689D01*
X182264689Y-95188647D01*
X182389381Y-95105330D01*
X182527932Y-95047941D01*
X182675017Y-95018684D01*
X182824983Y-95018684D01*
X182972068Y-95047941D01*
G37*
G36*
X119482068Y-92507941D02*
G01*
X119620619Y-92565330D01*
X119745311Y-92648647D01*
X119851353Y-92754689D01*
X119934670Y-92879381D01*
X119992059Y-93017932D01*
X120021316Y-93165017D01*
X120021316Y-93314983D01*
X119992059Y-93462068D01*
X119934670Y-93600619D01*
X119851353Y-93725311D01*
X119745311Y-93831353D01*
X119620619Y-93914670D01*
X119482068Y-93972059D01*
X119334983Y-94001316D01*
X119185017Y-94001316D01*
X119037932Y-93972059D01*
X118899381Y-93914670D01*
X118774689Y-93831353D01*
X118668647Y-93725311D01*
X118585330Y-93600619D01*
X118527941Y-93462068D01*
X118498684Y-93314983D01*
X118498684Y-93165017D01*
X118527941Y-93017932D01*
X118585330Y-92879381D01*
X118668647Y-92754689D01*
X118774689Y-92648647D01*
X118899381Y-92565330D01*
X119037932Y-92507941D01*
X119185017Y-92478684D01*
X119334983Y-92478684D01*
X119482068Y-92507941D01*
G37*
G36*
X122022068Y-92507941D02*
G01*
X122160619Y-92565330D01*
X122285311Y-92648647D01*
X122391353Y-92754689D01*
X122474670Y-92879381D01*
X122532059Y-93017932D01*
X122561316Y-93165017D01*
X122561316Y-93314983D01*
X122532059Y-93462068D01*
X122474670Y-93600619D01*
X122391353Y-93725311D01*
X122285311Y-93831353D01*
X122160619Y-93914670D01*
X122022068Y-93972059D01*
X121874983Y-94001316D01*
X121725017Y-94001316D01*
X121577932Y-93972059D01*
X121439381Y-93914670D01*
X121314689Y-93831353D01*
X121208647Y-93725311D01*
X121125330Y-93600619D01*
X121067941Y-93462068D01*
X121038684Y-93314983D01*
X121038684Y-93165017D01*
X121067941Y-93017932D01*
X121125330Y-92879381D01*
X121208647Y-92754689D01*
X121314689Y-92648647D01*
X121439381Y-92565330D01*
X121577932Y-92507941D01*
X121725017Y-92478684D01*
X121874983Y-92478684D01*
X122022068Y-92507941D01*
G37*
G36*
X180432068Y-92507941D02*
G01*
X180570619Y-92565330D01*
X180695311Y-92648647D01*
X180801353Y-92754689D01*
X180884670Y-92879381D01*
X180942059Y-93017932D01*
X180971316Y-93165017D01*
X180971316Y-93314983D01*
X180942059Y-93462068D01*
X180884670Y-93600619D01*
X180801353Y-93725311D01*
X180695311Y-93831353D01*
X180570619Y-93914670D01*
X180432068Y-93972059D01*
X180284983Y-94001316D01*
X180135017Y-94001316D01*
X179987932Y-93972059D01*
X179849381Y-93914670D01*
X179724689Y-93831353D01*
X179618647Y-93725311D01*
X179535330Y-93600619D01*
X179477941Y-93462068D01*
X179448684Y-93314983D01*
X179448684Y-93165017D01*
X179477941Y-93017932D01*
X179535330Y-92879381D01*
X179618647Y-92754689D01*
X179724689Y-92648647D01*
X179849381Y-92565330D01*
X179987932Y-92507941D01*
X180135017Y-92478684D01*
X180284983Y-92478684D01*
X180432068Y-92507941D01*
G37*
G36*
X182972068Y-92507941D02*
G01*
X183110619Y-92565330D01*
X183235311Y-92648647D01*
X183341353Y-92754689D01*
X183424670Y-92879381D01*
X183482059Y-93017932D01*
X183511316Y-93165017D01*
X183511316Y-93314983D01*
X183482059Y-93462068D01*
X183424670Y-93600619D01*
X183341353Y-93725311D01*
X183235311Y-93831353D01*
X183110619Y-93914670D01*
X182972068Y-93972059D01*
X182824983Y-94001316D01*
X182675017Y-94001316D01*
X182527932Y-93972059D01*
X182389381Y-93914670D01*
X182264689Y-93831353D01*
X182158647Y-93725311D01*
X182075330Y-93600619D01*
X182017941Y-93462068D01*
X181988684Y-93314983D01*
X181988684Y-93165017D01*
X182017941Y-93017932D01*
X182075330Y-92879381D01*
X182158647Y-92754689D01*
X182264689Y-92648647D01*
X182389381Y-92565330D01*
X182527932Y-92507941D01*
X182675017Y-92478684D01*
X182824983Y-92478684D01*
X182972068Y-92507941D01*
G37*
G36*
X119482068Y-89967941D02*
G01*
X119620619Y-90025330D01*
X119745311Y-90108647D01*
X119851353Y-90214689D01*
X119934670Y-90339381D01*
X119992059Y-90477932D01*
X120021316Y-90625017D01*
X120021316Y-90774983D01*
X119992059Y-90922068D01*
X119934670Y-91060619D01*
X119851353Y-91185311D01*
X119745311Y-91291353D01*
X119620619Y-91374670D01*
X119482068Y-91432059D01*
X119334983Y-91461316D01*
X119185017Y-91461316D01*
X119037932Y-91432059D01*
X118899381Y-91374670D01*
X118774689Y-91291353D01*
X118668647Y-91185311D01*
X118585330Y-91060619D01*
X118527941Y-90922068D01*
X118498684Y-90774983D01*
X118498684Y-90625017D01*
X118527941Y-90477932D01*
X118585330Y-90339381D01*
X118668647Y-90214689D01*
X118774689Y-90108647D01*
X118899381Y-90025330D01*
X119037932Y-89967941D01*
X119185017Y-89938684D01*
X119334983Y-89938684D01*
X119482068Y-89967941D01*
G37*
G36*
X122022068Y-89967941D02*
G01*
X122160619Y-90025330D01*
X122285311Y-90108647D01*
X122391353Y-90214689D01*
X122474670Y-90339381D01*
X122532059Y-90477932D01*
X122561316Y-90625017D01*
X122561316Y-90774983D01*
X122532059Y-90922068D01*
X122474670Y-91060619D01*
X122391353Y-91185311D01*
X122285311Y-91291353D01*
X122160619Y-91374670D01*
X122022068Y-91432059D01*
X121874983Y-91461316D01*
X121725017Y-91461316D01*
X121577932Y-91432059D01*
X121439381Y-91374670D01*
X121314689Y-91291353D01*
X121208647Y-91185311D01*
X121125330Y-91060619D01*
X121067941Y-90922068D01*
X121038684Y-90774983D01*
X121038684Y-90625017D01*
X121067941Y-90477932D01*
X121125330Y-90339381D01*
X121208647Y-90214689D01*
X121314689Y-90108647D01*
X121439381Y-90025330D01*
X121577932Y-89967941D01*
X121725017Y-89938684D01*
X121874983Y-89938684D01*
X122022068Y-89967941D01*
G37*
G36*
X180432068Y-89967941D02*
G01*
X180570619Y-90025330D01*
X180695311Y-90108647D01*
X180801353Y-90214689D01*
X180884670Y-90339381D01*
X180942059Y-90477932D01*
X180971316Y-90625017D01*
X180971316Y-90774983D01*
X180942059Y-90922068D01*
X180884670Y-91060619D01*
X180801353Y-91185311D01*
X180695311Y-91291353D01*
X180570619Y-91374670D01*
X180432068Y-91432059D01*
X180284983Y-91461316D01*
X180135017Y-91461316D01*
X179987932Y-91432059D01*
X179849381Y-91374670D01*
X179724689Y-91291353D01*
X179618647Y-91185311D01*
X179535330Y-91060619D01*
X179477941Y-90922068D01*
X179448684Y-90774983D01*
X179448684Y-90625017D01*
X179477941Y-90477932D01*
X179535330Y-90339381D01*
X179618647Y-90214689D01*
X179724689Y-90108647D01*
X179849381Y-90025330D01*
X179987932Y-89967941D01*
X180135017Y-89938684D01*
X180284983Y-89938684D01*
X180432068Y-89967941D01*
G37*
G36*
X182972068Y-89967941D02*
G01*
X183110619Y-90025330D01*
X183235311Y-90108647D01*
X183341353Y-90214689D01*
X183424670Y-90339381D01*
X183482059Y-90477932D01*
X183511316Y-90625017D01*
X183511316Y-90774983D01*
X183482059Y-90922068D01*
X183424670Y-91060619D01*
X183341353Y-91185311D01*
X183235311Y-91291353D01*
X183110619Y-91374670D01*
X182972068Y-91432059D01*
X182824983Y-91461316D01*
X182675017Y-91461316D01*
X182527932Y-91432059D01*
X182389381Y-91374670D01*
X182264689Y-91291353D01*
X182158647Y-91185311D01*
X182075330Y-91060619D01*
X182017941Y-90922068D01*
X181988684Y-90774983D01*
X181988684Y-90625017D01*
X182017941Y-90477932D01*
X182075330Y-90339381D01*
X182158647Y-90214689D01*
X182264689Y-90108647D01*
X182389381Y-90025330D01*
X182527932Y-89967941D01*
X182675017Y-89938684D01*
X182824983Y-89938684D01*
X182972068Y-89967941D01*
G37*
G36*
X119482068Y-87427941D02*
G01*
X119620619Y-87485330D01*
X119745311Y-87568647D01*
X119851353Y-87674689D01*
X119934670Y-87799381D01*
X119992059Y-87937932D01*
X120021316Y-88085017D01*
X120021316Y-88234983D01*
X119992059Y-88382068D01*
X119934670Y-88520619D01*
X119851353Y-88645311D01*
X119745311Y-88751353D01*
X119620619Y-88834670D01*
X119482068Y-88892059D01*
X119334983Y-88921316D01*
X119185017Y-88921316D01*
X119037932Y-88892059D01*
X118899381Y-88834670D01*
X118774689Y-88751353D01*
X118668647Y-88645311D01*
X118585330Y-88520619D01*
X118527941Y-88382068D01*
X118498684Y-88234983D01*
X118498684Y-88085017D01*
X118527941Y-87937932D01*
X118585330Y-87799381D01*
X118668647Y-87674689D01*
X118774689Y-87568647D01*
X118899381Y-87485330D01*
X119037932Y-87427941D01*
X119185017Y-87398684D01*
X119334983Y-87398684D01*
X119482068Y-87427941D01*
G37*
G36*
X122022068Y-87427941D02*
G01*
X122160619Y-87485330D01*
X122285311Y-87568647D01*
X122391353Y-87674689D01*
X122474670Y-87799381D01*
X122532059Y-87937932D01*
X122561316Y-88085017D01*
X122561316Y-88234983D01*
X122532059Y-88382068D01*
X122474670Y-88520619D01*
X122391353Y-88645311D01*
X122285311Y-88751353D01*
X122160619Y-88834670D01*
X122022068Y-88892059D01*
X121874983Y-88921316D01*
X121725017Y-88921316D01*
X121577932Y-88892059D01*
X121439381Y-88834670D01*
X121314689Y-88751353D01*
X121208647Y-88645311D01*
X121125330Y-88520619D01*
X121067941Y-88382068D01*
X121038684Y-88234983D01*
X121038684Y-88085017D01*
X121067941Y-87937932D01*
X121125330Y-87799381D01*
X121208647Y-87674689D01*
X121314689Y-87568647D01*
X121439381Y-87485330D01*
X121577932Y-87427941D01*
X121725017Y-87398684D01*
X121874983Y-87398684D01*
X122022068Y-87427941D01*
G37*
G36*
X180432068Y-87427941D02*
G01*
X180570619Y-87485330D01*
X180695311Y-87568647D01*
X180801353Y-87674689D01*
X180884670Y-87799381D01*
X180942059Y-87937932D01*
X180971316Y-88085017D01*
X180971316Y-88234983D01*
X180942059Y-88382068D01*
X180884670Y-88520619D01*
X180801353Y-88645311D01*
X180695311Y-88751353D01*
X180570619Y-88834670D01*
X180432068Y-88892059D01*
X180284983Y-88921316D01*
X180135017Y-88921316D01*
X179987932Y-88892059D01*
X179849381Y-88834670D01*
X179724689Y-88751353D01*
X179618647Y-88645311D01*
X179535330Y-88520619D01*
X179477941Y-88382068D01*
X179448684Y-88234983D01*
X179448684Y-88085017D01*
X179477941Y-87937932D01*
X179535330Y-87799381D01*
X179618647Y-87674689D01*
X179724689Y-87568647D01*
X179849381Y-87485330D01*
X179987932Y-87427941D01*
X180135017Y-87398684D01*
X180284983Y-87398684D01*
X180432068Y-87427941D01*
G37*
G36*
X182972068Y-87427941D02*
G01*
X183110619Y-87485330D01*
X183235311Y-87568647D01*
X183341353Y-87674689D01*
X183424670Y-87799381D01*
X183482059Y-87937932D01*
X183511316Y-88085017D01*
X183511316Y-88234983D01*
X183482059Y-88382068D01*
X183424670Y-88520619D01*
X183341353Y-88645311D01*
X183235311Y-88751353D01*
X183110619Y-88834670D01*
X182972068Y-88892059D01*
X182824983Y-88921316D01*
X182675017Y-88921316D01*
X182527932Y-88892059D01*
X182389381Y-88834670D01*
X182264689Y-88751353D01*
X182158647Y-88645311D01*
X182075330Y-88520619D01*
X182017941Y-88382068D01*
X181988684Y-88234983D01*
X181988684Y-88085017D01*
X182017941Y-87937932D01*
X182075330Y-87799381D01*
X182158647Y-87674689D01*
X182264689Y-87568647D01*
X182389381Y-87485330D01*
X182527932Y-87427941D01*
X182675017Y-87398684D01*
X182824983Y-87398684D01*
X182972068Y-87427941D01*
G37*
G36*
X119482068Y-84887941D02*
G01*
X119620619Y-84945330D01*
X119745311Y-85028647D01*
X119851353Y-85134689D01*
X119934670Y-85259381D01*
X119992059Y-85397932D01*
X120021316Y-85545017D01*
X120021316Y-85694983D01*
X119992059Y-85842068D01*
X119934670Y-85980619D01*
X119851353Y-86105311D01*
X119745311Y-86211353D01*
X119620619Y-86294670D01*
X119482068Y-86352059D01*
X119334983Y-86381316D01*
X119185017Y-86381316D01*
X119037932Y-86352059D01*
X118899381Y-86294670D01*
X118774689Y-86211353D01*
X118668647Y-86105311D01*
X118585330Y-85980619D01*
X118527941Y-85842068D01*
X118498684Y-85694983D01*
X118498684Y-85545017D01*
X118527941Y-85397932D01*
X118585330Y-85259381D01*
X118668647Y-85134689D01*
X118774689Y-85028647D01*
X118899381Y-84945330D01*
X119037932Y-84887941D01*
X119185017Y-84858684D01*
X119334983Y-84858684D01*
X119482068Y-84887941D01*
G37*
G36*
X122022068Y-84887941D02*
G01*
X122160619Y-84945330D01*
X122285311Y-85028647D01*
X122391353Y-85134689D01*
X122474670Y-85259381D01*
X122532059Y-85397932D01*
X122561316Y-85545017D01*
X122561316Y-85694983D01*
X122532059Y-85842068D01*
X122474670Y-85980619D01*
X122391353Y-86105311D01*
X122285311Y-86211353D01*
X122160619Y-86294670D01*
X122022068Y-86352059D01*
X121874983Y-86381316D01*
X121725017Y-86381316D01*
X121577932Y-86352059D01*
X121439381Y-86294670D01*
X121314689Y-86211353D01*
X121208647Y-86105311D01*
X121125330Y-85980619D01*
X121067941Y-85842068D01*
X121038684Y-85694983D01*
X121038684Y-85545017D01*
X121067941Y-85397932D01*
X121125330Y-85259381D01*
X121208647Y-85134689D01*
X121314689Y-85028647D01*
X121439381Y-84945330D01*
X121577932Y-84887941D01*
X121725017Y-84858684D01*
X121874983Y-84858684D01*
X122022068Y-84887941D01*
G37*
G36*
X180432068Y-84887941D02*
G01*
X180570619Y-84945330D01*
X180695311Y-85028647D01*
X180801353Y-85134689D01*
X180884670Y-85259381D01*
X180942059Y-85397932D01*
X180971316Y-85545017D01*
X180971316Y-85694983D01*
X180942059Y-85842068D01*
X180884670Y-85980619D01*
X180801353Y-86105311D01*
X180695311Y-86211353D01*
X180570619Y-86294670D01*
X180432068Y-86352059D01*
X180284983Y-86381316D01*
X180135017Y-86381316D01*
X179987932Y-86352059D01*
X179849381Y-86294670D01*
X179724689Y-86211353D01*
X179618647Y-86105311D01*
X179535330Y-85980619D01*
X179477941Y-85842068D01*
X179448684Y-85694983D01*
X179448684Y-85545017D01*
X179477941Y-85397932D01*
X179535330Y-85259381D01*
X179618647Y-85134689D01*
X179724689Y-85028647D01*
X179849381Y-84945330D01*
X179987932Y-84887941D01*
X180135017Y-84858684D01*
X180284983Y-84858684D01*
X180432068Y-84887941D01*
G37*
G36*
X182972068Y-84887941D02*
G01*
X183110619Y-84945330D01*
X183235311Y-85028647D01*
X183341353Y-85134689D01*
X183424670Y-85259381D01*
X183482059Y-85397932D01*
X183511316Y-85545017D01*
X183511316Y-85694983D01*
X183482059Y-85842068D01*
X183424670Y-85980619D01*
X183341353Y-86105311D01*
X183235311Y-86211353D01*
X183110619Y-86294670D01*
X182972068Y-86352059D01*
X182824983Y-86381316D01*
X182675017Y-86381316D01*
X182527932Y-86352059D01*
X182389381Y-86294670D01*
X182264689Y-86211353D01*
X182158647Y-86105311D01*
X182075330Y-85980619D01*
X182017941Y-85842068D01*
X181988684Y-85694983D01*
X181988684Y-85545017D01*
X182017941Y-85397932D01*
X182075330Y-85259381D01*
X182158647Y-85134689D01*
X182264689Y-85028647D01*
X182389381Y-84945330D01*
X182527932Y-84887941D01*
X182675017Y-84858684D01*
X182824983Y-84858684D01*
X182972068Y-84887941D01*
G37*
G36*
X119482068Y-82347941D02*
G01*
X119620619Y-82405330D01*
X119745311Y-82488647D01*
X119851353Y-82594689D01*
X119934670Y-82719381D01*
X119992059Y-82857932D01*
X120021316Y-83005017D01*
X120021316Y-83154983D01*
X119992059Y-83302068D01*
X119934670Y-83440619D01*
X119851353Y-83565311D01*
X119745311Y-83671353D01*
X119620619Y-83754670D01*
X119482068Y-83812059D01*
X119334983Y-83841316D01*
X119185017Y-83841316D01*
X119037932Y-83812059D01*
X118899381Y-83754670D01*
X118774689Y-83671353D01*
X118668647Y-83565311D01*
X118585330Y-83440619D01*
X118527941Y-83302068D01*
X118498684Y-83154983D01*
X118498684Y-83005017D01*
X118527941Y-82857932D01*
X118585330Y-82719381D01*
X118668647Y-82594689D01*
X118774689Y-82488647D01*
X118899381Y-82405330D01*
X119037932Y-82347941D01*
X119185017Y-82318684D01*
X119334983Y-82318684D01*
X119482068Y-82347941D01*
G37*
G36*
X122022068Y-82347941D02*
G01*
X122160619Y-82405330D01*
X122285311Y-82488647D01*
X122391353Y-82594689D01*
X122474670Y-82719381D01*
X122532059Y-82857932D01*
X122561316Y-83005017D01*
X122561316Y-83154983D01*
X122532059Y-83302068D01*
X122474670Y-83440619D01*
X122391353Y-83565311D01*
X122285311Y-83671353D01*
X122160619Y-83754670D01*
X122022068Y-83812059D01*
X121874983Y-83841316D01*
X121725017Y-83841316D01*
X121577932Y-83812059D01*
X121439381Y-83754670D01*
X121314689Y-83671353D01*
X121208647Y-83565311D01*
X121125330Y-83440619D01*
X121067941Y-83302068D01*
X121038684Y-83154983D01*
X121038684Y-83005017D01*
X121067941Y-82857932D01*
X121125330Y-82719381D01*
X121208647Y-82594689D01*
X121314689Y-82488647D01*
X121439381Y-82405330D01*
X121577932Y-82347941D01*
X121725017Y-82318684D01*
X121874983Y-82318684D01*
X122022068Y-82347941D01*
G37*
G36*
X180432068Y-82347941D02*
G01*
X180570619Y-82405330D01*
X180695311Y-82488647D01*
X180801353Y-82594689D01*
X180884670Y-82719381D01*
X180942059Y-82857932D01*
X180971316Y-83005017D01*
X180971316Y-83154983D01*
X180942059Y-83302068D01*
X180884670Y-83440619D01*
X180801353Y-83565311D01*
X180695311Y-83671353D01*
X180570619Y-83754670D01*
X180432068Y-83812059D01*
X180284983Y-83841316D01*
X180135017Y-83841316D01*
X179987932Y-83812059D01*
X179849381Y-83754670D01*
X179724689Y-83671353D01*
X179618647Y-83565311D01*
X179535330Y-83440619D01*
X179477941Y-83302068D01*
X179448684Y-83154983D01*
X179448684Y-83005017D01*
X179477941Y-82857932D01*
X179535330Y-82719381D01*
X179618647Y-82594689D01*
X179724689Y-82488647D01*
X179849381Y-82405330D01*
X179987932Y-82347941D01*
X180135017Y-82318684D01*
X180284983Y-82318684D01*
X180432068Y-82347941D01*
G37*
G36*
X182972068Y-82347941D02*
G01*
X183110619Y-82405330D01*
X183235311Y-82488647D01*
X183341353Y-82594689D01*
X183424670Y-82719381D01*
X183482059Y-82857932D01*
X183511316Y-83005017D01*
X183511316Y-83154983D01*
X183482059Y-83302068D01*
X183424670Y-83440619D01*
X183341353Y-83565311D01*
X183235311Y-83671353D01*
X183110619Y-83754670D01*
X182972068Y-83812059D01*
X182824983Y-83841316D01*
X182675017Y-83841316D01*
X182527932Y-83812059D01*
X182389381Y-83754670D01*
X182264689Y-83671353D01*
X182158647Y-83565311D01*
X182075330Y-83440619D01*
X182017941Y-83302068D01*
X181988684Y-83154983D01*
X181988684Y-83005017D01*
X182017941Y-82857932D01*
X182075330Y-82719381D01*
X182158647Y-82594689D01*
X182264689Y-82488647D01*
X182389381Y-82405330D01*
X182527932Y-82347941D01*
X182675017Y-82318684D01*
X182824983Y-82318684D01*
X182972068Y-82347941D01*
G37*
G36*
X119482068Y-79807941D02*
G01*
X119620619Y-79865330D01*
X119745311Y-79948647D01*
X119851353Y-80054689D01*
X119934670Y-80179381D01*
X119992059Y-80317932D01*
X120021316Y-80465017D01*
X120021316Y-80614983D01*
X119992059Y-80762068D01*
X119934670Y-80900619D01*
X119851353Y-81025311D01*
X119745311Y-81131353D01*
X119620619Y-81214670D01*
X119482068Y-81272059D01*
X119334983Y-81301316D01*
X119185017Y-81301316D01*
X119037932Y-81272059D01*
X118899381Y-81214670D01*
X118774689Y-81131353D01*
X118668647Y-81025311D01*
X118585330Y-80900619D01*
X118527941Y-80762068D01*
X118498684Y-80614983D01*
X118498684Y-80465017D01*
X118527941Y-80317932D01*
X118585330Y-80179381D01*
X118668647Y-80054689D01*
X118774689Y-79948647D01*
X118899381Y-79865330D01*
X119037932Y-79807941D01*
X119185017Y-79778684D01*
X119334983Y-79778684D01*
X119482068Y-79807941D01*
G37*
G36*
X122022068Y-79807941D02*
G01*
X122160619Y-79865330D01*
X122285311Y-79948647D01*
X122391353Y-80054689D01*
X122474670Y-80179381D01*
X122532059Y-80317932D01*
X122561316Y-80465017D01*
X122561316Y-80614983D01*
X122532059Y-80762068D01*
X122474670Y-80900619D01*
X122391353Y-81025311D01*
X122285311Y-81131353D01*
X122160619Y-81214670D01*
X122022068Y-81272059D01*
X121874983Y-81301316D01*
X121725017Y-81301316D01*
X121577932Y-81272059D01*
X121439381Y-81214670D01*
X121314689Y-81131353D01*
X121208647Y-81025311D01*
X121125330Y-80900619D01*
X121067941Y-80762068D01*
X121038684Y-80614983D01*
X121038684Y-80465017D01*
X121067941Y-80317932D01*
X121125330Y-80179381D01*
X121208647Y-80054689D01*
X121314689Y-79948647D01*
X121439381Y-79865330D01*
X121577932Y-79807941D01*
X121725017Y-79778684D01*
X121874983Y-79778684D01*
X122022068Y-79807941D01*
G37*
G36*
X180432068Y-79807941D02*
G01*
X180570619Y-79865330D01*
X180695311Y-79948647D01*
X180801353Y-80054689D01*
X180884670Y-80179381D01*
X180942059Y-80317932D01*
X180971316Y-80465017D01*
X180971316Y-80614983D01*
X180942059Y-80762068D01*
X180884670Y-80900619D01*
X180801353Y-81025311D01*
X180695311Y-81131353D01*
X180570619Y-81214670D01*
X180432068Y-81272059D01*
X180284983Y-81301316D01*
X180135017Y-81301316D01*
X179987932Y-81272059D01*
X179849381Y-81214670D01*
X179724689Y-81131353D01*
X179618647Y-81025311D01*
X179535330Y-80900619D01*
X179477941Y-80762068D01*
X179448684Y-80614983D01*
X179448684Y-80465017D01*
X179477941Y-80317932D01*
X179535330Y-80179381D01*
X179618647Y-80054689D01*
X179724689Y-79948647D01*
X179849381Y-79865330D01*
X179987932Y-79807941D01*
X180135017Y-79778684D01*
X180284983Y-79778684D01*
X180432068Y-79807941D01*
G37*
G36*
X182972068Y-79807941D02*
G01*
X183110619Y-79865330D01*
X183235311Y-79948647D01*
X183341353Y-80054689D01*
X183424670Y-80179381D01*
X183482059Y-80317932D01*
X183511316Y-80465017D01*
X183511316Y-80614983D01*
X183482059Y-80762068D01*
X183424670Y-80900619D01*
X183341353Y-81025311D01*
X183235311Y-81131353D01*
X183110619Y-81214670D01*
X182972068Y-81272059D01*
X182824983Y-81301316D01*
X182675017Y-81301316D01*
X182527932Y-81272059D01*
X182389381Y-81214670D01*
X182264689Y-81131353D01*
X182158647Y-81025311D01*
X182075330Y-80900619D01*
X182017941Y-80762068D01*
X181988684Y-80614983D01*
X181988684Y-80465017D01*
X182017941Y-80317932D01*
X182075330Y-80179381D01*
X182158647Y-80054689D01*
X182264689Y-79948647D01*
X182389381Y-79865330D01*
X182527932Y-79807941D01*
X182675017Y-79778684D01*
X182824983Y-79778684D01*
X182972068Y-79807941D01*
G37*
G36*
X119482068Y-77267941D02*
G01*
X119620619Y-77325330D01*
X119745311Y-77408647D01*
X119851353Y-77514689D01*
X119934670Y-77639381D01*
X119992059Y-77777932D01*
X120021316Y-77925017D01*
X120021316Y-78074983D01*
X119992059Y-78222068D01*
X119934670Y-78360619D01*
X119851353Y-78485311D01*
X119745311Y-78591353D01*
X119620619Y-78674670D01*
X119482068Y-78732059D01*
X119334983Y-78761316D01*
X119185017Y-78761316D01*
X119037932Y-78732059D01*
X118899381Y-78674670D01*
X118774689Y-78591353D01*
X118668647Y-78485311D01*
X118585330Y-78360619D01*
X118527941Y-78222068D01*
X118498684Y-78074983D01*
X118498684Y-77925017D01*
X118527941Y-77777932D01*
X118585330Y-77639381D01*
X118668647Y-77514689D01*
X118774689Y-77408647D01*
X118899381Y-77325330D01*
X119037932Y-77267941D01*
X119185017Y-77238684D01*
X119334983Y-77238684D01*
X119482068Y-77267941D01*
G37*
G36*
X122022068Y-77267941D02*
G01*
X122160619Y-77325330D01*
X122285311Y-77408647D01*
X122391353Y-77514689D01*
X122474670Y-77639381D01*
X122532059Y-77777932D01*
X122561316Y-77925017D01*
X122561316Y-78074983D01*
X122532059Y-78222068D01*
X122474670Y-78360619D01*
X122391353Y-78485311D01*
X122285311Y-78591353D01*
X122160619Y-78674670D01*
X122022068Y-78732059D01*
X121874983Y-78761316D01*
X121725017Y-78761316D01*
X121577932Y-78732059D01*
X121439381Y-78674670D01*
X121314689Y-78591353D01*
X121208647Y-78485311D01*
X121125330Y-78360619D01*
X121067941Y-78222068D01*
X121038684Y-78074983D01*
X121038684Y-77925017D01*
X121067941Y-77777932D01*
X121125330Y-77639381D01*
X121208647Y-77514689D01*
X121314689Y-77408647D01*
X121439381Y-77325330D01*
X121577932Y-77267941D01*
X121725017Y-77238684D01*
X121874983Y-77238684D01*
X122022068Y-77267941D01*
G37*
G36*
X180432068Y-77267941D02*
G01*
X180570619Y-77325330D01*
X180695311Y-77408647D01*
X180801353Y-77514689D01*
X180884670Y-77639381D01*
X180942059Y-77777932D01*
X180971316Y-77925017D01*
X180971316Y-78074983D01*
X180942059Y-78222068D01*
X180884670Y-78360619D01*
X180801353Y-78485311D01*
X180695311Y-78591353D01*
X180570619Y-78674670D01*
X180432068Y-78732059D01*
X180284983Y-78761316D01*
X180135017Y-78761316D01*
X179987932Y-78732059D01*
X179849381Y-78674670D01*
X179724689Y-78591353D01*
X179618647Y-78485311D01*
X179535330Y-78360619D01*
X179477941Y-78222068D01*
X179448684Y-78074983D01*
X179448684Y-77925017D01*
X179477941Y-77777932D01*
X179535330Y-77639381D01*
X179618647Y-77514689D01*
X179724689Y-77408647D01*
X179849381Y-77325330D01*
X179987932Y-77267941D01*
X180135017Y-77238684D01*
X180284983Y-77238684D01*
X180432068Y-77267941D01*
G37*
G36*
X182972068Y-77267941D02*
G01*
X183110619Y-77325330D01*
X183235311Y-77408647D01*
X183341353Y-77514689D01*
X183424670Y-77639381D01*
X183482059Y-77777932D01*
X183511316Y-77925017D01*
X183511316Y-78074983D01*
X183482059Y-78222068D01*
X183424670Y-78360619D01*
X183341353Y-78485311D01*
X183235311Y-78591353D01*
X183110619Y-78674670D01*
X182972068Y-78732059D01*
X182824983Y-78761316D01*
X182675017Y-78761316D01*
X182527932Y-78732059D01*
X182389381Y-78674670D01*
X182264689Y-78591353D01*
X182158647Y-78485311D01*
X182075330Y-78360619D01*
X182017941Y-78222068D01*
X181988684Y-78074983D01*
X181988684Y-77925017D01*
X182017941Y-77777932D01*
X182075330Y-77639381D01*
X182158647Y-77514689D01*
X182264689Y-77408647D01*
X182389381Y-77325330D01*
X182527932Y-77267941D01*
X182675017Y-77238684D01*
X182824983Y-77238684D01*
X182972068Y-77267941D01*
G37*
G36*
X119482068Y-74727941D02*
G01*
X119620619Y-74785330D01*
X119745311Y-74868647D01*
X119851353Y-74974689D01*
X119934670Y-75099381D01*
X119992059Y-75237932D01*
X120021316Y-75385017D01*
X120021316Y-75534983D01*
X119992059Y-75682068D01*
X119934670Y-75820619D01*
X119851353Y-75945311D01*
X119745311Y-76051353D01*
X119620619Y-76134670D01*
X119482068Y-76192059D01*
X119334983Y-76221316D01*
X119185017Y-76221316D01*
X119037932Y-76192059D01*
X118899381Y-76134670D01*
X118774689Y-76051353D01*
X118668647Y-75945311D01*
X118585330Y-75820619D01*
X118527941Y-75682068D01*
X118498684Y-75534983D01*
X118498684Y-75385017D01*
X118527941Y-75237932D01*
X118585330Y-75099381D01*
X118668647Y-74974689D01*
X118774689Y-74868647D01*
X118899381Y-74785330D01*
X119037932Y-74727941D01*
X119185017Y-74698684D01*
X119334983Y-74698684D01*
X119482068Y-74727941D01*
G37*
G36*
X122022068Y-74727941D02*
G01*
X122160619Y-74785330D01*
X122285311Y-74868647D01*
X122391353Y-74974689D01*
X122474670Y-75099381D01*
X122532059Y-75237932D01*
X122561316Y-75385017D01*
X122561316Y-75534983D01*
X122532059Y-75682068D01*
X122474670Y-75820619D01*
X122391353Y-75945311D01*
X122285311Y-76051353D01*
X122160619Y-76134670D01*
X122022068Y-76192059D01*
X121874983Y-76221316D01*
X121725017Y-76221316D01*
X121577932Y-76192059D01*
X121439381Y-76134670D01*
X121314689Y-76051353D01*
X121208647Y-75945311D01*
X121125330Y-75820619D01*
X121067941Y-75682068D01*
X121038684Y-75534983D01*
X121038684Y-75385017D01*
X121067941Y-75237932D01*
X121125330Y-75099381D01*
X121208647Y-74974689D01*
X121314689Y-74868647D01*
X121439381Y-74785330D01*
X121577932Y-74727941D01*
X121725017Y-74698684D01*
X121874983Y-74698684D01*
X122022068Y-74727941D01*
G37*
G36*
X180432068Y-74727941D02*
G01*
X180570619Y-74785330D01*
X180695311Y-74868647D01*
X180801353Y-74974689D01*
X180884670Y-75099381D01*
X180942059Y-75237932D01*
X180971316Y-75385017D01*
X180971316Y-75534983D01*
X180942059Y-75682068D01*
X180884670Y-75820619D01*
X180801353Y-75945311D01*
X180695311Y-76051353D01*
X180570619Y-76134670D01*
X180432068Y-76192059D01*
X180284983Y-76221316D01*
X180135017Y-76221316D01*
X179987932Y-76192059D01*
X179849381Y-76134670D01*
X179724689Y-76051353D01*
X179618647Y-75945311D01*
X179535330Y-75820619D01*
X179477941Y-75682068D01*
X179448684Y-75534983D01*
X179448684Y-75385017D01*
X179477941Y-75237932D01*
X179535330Y-75099381D01*
X179618647Y-74974689D01*
X179724689Y-74868647D01*
X179849381Y-74785330D01*
X179987932Y-74727941D01*
X180135017Y-74698684D01*
X180284983Y-74698684D01*
X180432068Y-74727941D01*
G37*
G36*
X182972068Y-74727941D02*
G01*
X183110619Y-74785330D01*
X183235311Y-74868647D01*
X183341353Y-74974689D01*
X183424670Y-75099381D01*
X183482059Y-75237932D01*
X183511316Y-75385017D01*
X183511316Y-75534983D01*
X183482059Y-75682068D01*
X183424670Y-75820619D01*
X183341353Y-75945311D01*
X183235311Y-76051353D01*
X183110619Y-76134670D01*
X182972068Y-76192059D01*
X182824983Y-76221316D01*
X182675017Y-76221316D01*
X182527932Y-76192059D01*
X182389381Y-76134670D01*
X182264689Y-76051353D01*
X182158647Y-75945311D01*
X182075330Y-75820619D01*
X182017941Y-75682068D01*
X181988684Y-75534983D01*
X181988684Y-75385017D01*
X182017941Y-75237932D01*
X182075330Y-75099381D01*
X182158647Y-74974689D01*
X182264689Y-74868647D01*
X182389381Y-74785330D01*
X182527932Y-74727941D01*
X182675017Y-74698684D01*
X182824983Y-74698684D01*
X182972068Y-74727941D01*
G37*
G36*
X119482068Y-72187941D02*
G01*
X119620619Y-72245330D01*
X119745311Y-72328647D01*
X119851353Y-72434689D01*
X119934670Y-72559381D01*
X119992059Y-72697932D01*
X120021316Y-72845017D01*
X120021316Y-72994983D01*
X119992059Y-73142068D01*
X119934670Y-73280619D01*
X119851353Y-73405311D01*
X119745311Y-73511353D01*
X119620619Y-73594670D01*
X119482068Y-73652059D01*
X119334983Y-73681316D01*
X119185017Y-73681316D01*
X119037932Y-73652059D01*
X118899381Y-73594670D01*
X118774689Y-73511353D01*
X118668647Y-73405311D01*
X118585330Y-73280619D01*
X118527941Y-73142068D01*
X118498684Y-72994983D01*
X118498684Y-72845017D01*
X118527941Y-72697932D01*
X118585330Y-72559381D01*
X118668647Y-72434689D01*
X118774689Y-72328647D01*
X118899381Y-72245330D01*
X119037932Y-72187941D01*
X119185017Y-72158684D01*
X119334983Y-72158684D01*
X119482068Y-72187941D01*
G37*
G36*
X122022068Y-72187941D02*
G01*
X122160619Y-72245330D01*
X122285311Y-72328647D01*
X122391353Y-72434689D01*
X122474670Y-72559381D01*
X122532059Y-72697932D01*
X122561316Y-72845017D01*
X122561316Y-72994983D01*
X122532059Y-73142068D01*
X122474670Y-73280619D01*
X122391353Y-73405311D01*
X122285311Y-73511353D01*
X122160619Y-73594670D01*
X122022068Y-73652059D01*
X121874983Y-73681316D01*
X121725017Y-73681316D01*
X121577932Y-73652059D01*
X121439381Y-73594670D01*
X121314689Y-73511353D01*
X121208647Y-73405311D01*
X121125330Y-73280619D01*
X121067941Y-73142068D01*
X121038684Y-72994983D01*
X121038684Y-72845017D01*
X121067941Y-72697932D01*
X121125330Y-72559381D01*
X121208647Y-72434689D01*
X121314689Y-72328647D01*
X121439381Y-72245330D01*
X121577932Y-72187941D01*
X121725017Y-72158684D01*
X121874983Y-72158684D01*
X122022068Y-72187941D01*
G37*
G36*
X180432068Y-72187941D02*
G01*
X180570619Y-72245330D01*
X180695311Y-72328647D01*
X180801353Y-72434689D01*
X180884670Y-72559381D01*
X180942059Y-72697932D01*
X180971316Y-72845017D01*
X180971316Y-72994983D01*
X180942059Y-73142068D01*
X180884670Y-73280619D01*
X180801353Y-73405311D01*
X180695311Y-73511353D01*
X180570619Y-73594670D01*
X180432068Y-73652059D01*
X180284983Y-73681316D01*
X180135017Y-73681316D01*
X179987932Y-73652059D01*
X179849381Y-73594670D01*
X179724689Y-73511353D01*
X179618647Y-73405311D01*
X179535330Y-73280619D01*
X179477941Y-73142068D01*
X179448684Y-72994983D01*
X179448684Y-72845017D01*
X179477941Y-72697932D01*
X179535330Y-72559381D01*
X179618647Y-72434689D01*
X179724689Y-72328647D01*
X179849381Y-72245330D01*
X179987932Y-72187941D01*
X180135017Y-72158684D01*
X180284983Y-72158684D01*
X180432068Y-72187941D01*
G37*
G36*
X182972068Y-72187941D02*
G01*
X183110619Y-72245330D01*
X183235311Y-72328647D01*
X183341353Y-72434689D01*
X183424670Y-72559381D01*
X183482059Y-72697932D01*
X183511316Y-72845017D01*
X183511316Y-72994983D01*
X183482059Y-73142068D01*
X183424670Y-73280619D01*
X183341353Y-73405311D01*
X183235311Y-73511353D01*
X183110619Y-73594670D01*
X182972068Y-73652059D01*
X182824983Y-73681316D01*
X182675017Y-73681316D01*
X182527932Y-73652059D01*
X182389381Y-73594670D01*
X182264689Y-73511353D01*
X182158647Y-73405311D01*
X182075330Y-73280619D01*
X182017941Y-73142068D01*
X181988684Y-72994983D01*
X181988684Y-72845017D01*
X182017941Y-72697932D01*
X182075330Y-72559381D01*
X182158647Y-72434689D01*
X182264689Y-72328647D01*
X182389381Y-72245330D01*
X182527932Y-72187941D01*
X182675017Y-72158684D01*
X182824983Y-72158684D01*
X182972068Y-72187941D01*
G37*
G36*
X119482068Y-69647941D02*
G01*
X119620619Y-69705330D01*
X119745311Y-69788647D01*
X119851353Y-69894689D01*
X119934670Y-70019381D01*
X119992059Y-70157932D01*
X120021316Y-70305017D01*
X120021316Y-70454983D01*
X119992059Y-70602068D01*
X119934670Y-70740619D01*
X119851353Y-70865311D01*
X119745311Y-70971353D01*
X119620619Y-71054670D01*
X119482068Y-71112059D01*
X119334983Y-71141316D01*
X119185017Y-71141316D01*
X119037932Y-71112059D01*
X118899381Y-71054670D01*
X118774689Y-70971353D01*
X118668647Y-70865311D01*
X118585330Y-70740619D01*
X118527941Y-70602068D01*
X118498684Y-70454983D01*
X118498684Y-70305017D01*
X118527941Y-70157932D01*
X118585330Y-70019381D01*
X118668647Y-69894689D01*
X118774689Y-69788647D01*
X118899381Y-69705330D01*
X119037932Y-69647941D01*
X119185017Y-69618684D01*
X119334983Y-69618684D01*
X119482068Y-69647941D01*
G37*
G36*
X122022068Y-69647941D02*
G01*
X122160619Y-69705330D01*
X122285311Y-69788647D01*
X122391353Y-69894689D01*
X122474670Y-70019381D01*
X122532059Y-70157932D01*
X122561316Y-70305017D01*
X122561316Y-70454983D01*
X122532059Y-70602068D01*
X122474670Y-70740619D01*
X122391353Y-70865311D01*
X122285311Y-70971353D01*
X122160619Y-71054670D01*
X122022068Y-71112059D01*
X121874983Y-71141316D01*
X121725017Y-71141316D01*
X121577932Y-71112059D01*
X121439381Y-71054670D01*
X121314689Y-70971353D01*
X121208647Y-70865311D01*
X121125330Y-70740619D01*
X121067941Y-70602068D01*
X121038684Y-70454983D01*
X121038684Y-70305017D01*
X121067941Y-70157932D01*
X121125330Y-70019381D01*
X121208647Y-69894689D01*
X121314689Y-69788647D01*
X121439381Y-69705330D01*
X121577932Y-69647941D01*
X121725017Y-69618684D01*
X121874983Y-69618684D01*
X122022068Y-69647941D01*
G37*
G36*
X180432068Y-69647941D02*
G01*
X180570619Y-69705330D01*
X180695311Y-69788647D01*
X180801353Y-69894689D01*
X180884670Y-70019381D01*
X180942059Y-70157932D01*
X180971316Y-70305017D01*
X180971316Y-70454983D01*
X180942059Y-70602068D01*
X180884670Y-70740619D01*
X180801353Y-70865311D01*
X180695311Y-70971353D01*
X180570619Y-71054670D01*
X180432068Y-71112059D01*
X180284983Y-71141316D01*
X180135017Y-71141316D01*
X179987932Y-71112059D01*
X179849381Y-71054670D01*
X179724689Y-70971353D01*
X179618647Y-70865311D01*
X179535330Y-70740619D01*
X179477941Y-70602068D01*
X179448684Y-70454983D01*
X179448684Y-70305017D01*
X179477941Y-70157932D01*
X179535330Y-70019381D01*
X179618647Y-69894689D01*
X179724689Y-69788647D01*
X179849381Y-69705330D01*
X179987932Y-69647941D01*
X180135017Y-69618684D01*
X180284983Y-69618684D01*
X180432068Y-69647941D01*
G37*
G36*
X182972068Y-69647941D02*
G01*
X183110619Y-69705330D01*
X183235311Y-69788647D01*
X183341353Y-69894689D01*
X183424670Y-70019381D01*
X183482059Y-70157932D01*
X183511316Y-70305017D01*
X183511316Y-70454983D01*
X183482059Y-70602068D01*
X183424670Y-70740619D01*
X183341353Y-70865311D01*
X183235311Y-70971353D01*
X183110619Y-71054670D01*
X182972068Y-71112059D01*
X182824983Y-71141316D01*
X182675017Y-71141316D01*
X182527932Y-71112059D01*
X182389381Y-71054670D01*
X182264689Y-70971353D01*
X182158647Y-70865311D01*
X182075330Y-70740619D01*
X182017941Y-70602068D01*
X181988684Y-70454983D01*
X181988684Y-70305017D01*
X182017941Y-70157932D01*
X182075330Y-70019381D01*
X182158647Y-69894689D01*
X182264689Y-69788647D01*
X182389381Y-69705330D01*
X182527932Y-69647941D01*
X182675017Y-69618684D01*
X182824983Y-69618684D01*
X182972068Y-69647941D01*
G37*
G36*
X119482068Y-67107941D02*
G01*
X119620619Y-67165330D01*
X119745311Y-67248647D01*
X119851353Y-67354689D01*
X119934670Y-67479381D01*
X119992059Y-67617932D01*
X120021316Y-67765017D01*
X120021316Y-67914983D01*
X119992059Y-68062068D01*
X119934670Y-68200619D01*
X119851353Y-68325311D01*
X119745311Y-68431353D01*
X119620619Y-68514670D01*
X119482068Y-68572059D01*
X119334983Y-68601316D01*
X119185017Y-68601316D01*
X119037932Y-68572059D01*
X118899381Y-68514670D01*
X118774689Y-68431353D01*
X118668647Y-68325311D01*
X118585330Y-68200619D01*
X118527941Y-68062068D01*
X118498684Y-67914983D01*
X118498684Y-67765017D01*
X118527941Y-67617932D01*
X118585330Y-67479381D01*
X118668647Y-67354689D01*
X118774689Y-67248647D01*
X118899381Y-67165330D01*
X119037932Y-67107941D01*
X119185017Y-67078684D01*
X119334983Y-67078684D01*
X119482068Y-67107941D01*
G37*
G36*
X122022068Y-67107941D02*
G01*
X122160619Y-67165330D01*
X122285311Y-67248647D01*
X122391353Y-67354689D01*
X122474670Y-67479381D01*
X122532059Y-67617932D01*
X122561316Y-67765017D01*
X122561316Y-67914983D01*
X122532059Y-68062068D01*
X122474670Y-68200619D01*
X122391353Y-68325311D01*
X122285311Y-68431353D01*
X122160619Y-68514670D01*
X122022068Y-68572059D01*
X121874983Y-68601316D01*
X121725017Y-68601316D01*
X121577932Y-68572059D01*
X121439381Y-68514670D01*
X121314689Y-68431353D01*
X121208647Y-68325311D01*
X121125330Y-68200619D01*
X121067941Y-68062068D01*
X121038684Y-67914983D01*
X121038684Y-67765017D01*
X121067941Y-67617932D01*
X121125330Y-67479381D01*
X121208647Y-67354689D01*
X121314689Y-67248647D01*
X121439381Y-67165330D01*
X121577932Y-67107941D01*
X121725017Y-67078684D01*
X121874983Y-67078684D01*
X122022068Y-67107941D01*
G37*
G36*
X180432068Y-67107941D02*
G01*
X180570619Y-67165330D01*
X180695311Y-67248647D01*
X180801353Y-67354689D01*
X180884670Y-67479381D01*
X180942059Y-67617932D01*
X180971316Y-67765017D01*
X180971316Y-67914983D01*
X180942059Y-68062068D01*
X180884670Y-68200619D01*
X180801353Y-68325311D01*
X180695311Y-68431353D01*
X180570619Y-68514670D01*
X180432068Y-68572059D01*
X180284983Y-68601316D01*
X180135017Y-68601316D01*
X179987932Y-68572059D01*
X179849381Y-68514670D01*
X179724689Y-68431353D01*
X179618647Y-68325311D01*
X179535330Y-68200619D01*
X179477941Y-68062068D01*
X179448684Y-67914983D01*
X179448684Y-67765017D01*
X179477941Y-67617932D01*
X179535330Y-67479381D01*
X179618647Y-67354689D01*
X179724689Y-67248647D01*
X179849381Y-67165330D01*
X179987932Y-67107941D01*
X180135017Y-67078684D01*
X180284983Y-67078684D01*
X180432068Y-67107941D01*
G37*
G36*
X182972068Y-67107941D02*
G01*
X183110619Y-67165330D01*
X183235311Y-67248647D01*
X183341353Y-67354689D01*
X183424670Y-67479381D01*
X183482059Y-67617932D01*
X183511316Y-67765017D01*
X183511316Y-67914983D01*
X183482059Y-68062068D01*
X183424670Y-68200619D01*
X183341353Y-68325311D01*
X183235311Y-68431353D01*
X183110619Y-68514670D01*
X182972068Y-68572059D01*
X182824983Y-68601316D01*
X182675017Y-68601316D01*
X182527932Y-68572059D01*
X182389381Y-68514670D01*
X182264689Y-68431353D01*
X182158647Y-68325311D01*
X182075330Y-68200619D01*
X182017941Y-68062068D01*
X181988684Y-67914983D01*
X181988684Y-67765017D01*
X182017941Y-67617932D01*
X182075330Y-67479381D01*
X182158647Y-67354689D01*
X182264689Y-67248647D01*
X182389381Y-67165330D01*
X182527932Y-67107941D01*
X182675017Y-67078684D01*
X182824983Y-67078684D01*
X182972068Y-67107941D01*
G37*
G36*
X119482068Y-64567941D02*
G01*
X119620619Y-64625330D01*
X119745311Y-64708647D01*
X119851353Y-64814689D01*
X119934670Y-64939381D01*
X119992059Y-65077932D01*
X120021316Y-65225017D01*
X120021316Y-65374983D01*
X119992059Y-65522068D01*
X119934670Y-65660619D01*
X119851353Y-65785311D01*
X119745311Y-65891353D01*
X119620619Y-65974670D01*
X119482068Y-66032059D01*
X119334983Y-66061316D01*
X119185017Y-66061316D01*
X119037932Y-66032059D01*
X118899381Y-65974670D01*
X118774689Y-65891353D01*
X118668647Y-65785311D01*
X118585330Y-65660619D01*
X118527941Y-65522068D01*
X118498684Y-65374983D01*
X118498684Y-65225017D01*
X118527941Y-65077932D01*
X118585330Y-64939381D01*
X118668647Y-64814689D01*
X118774689Y-64708647D01*
X118899381Y-64625330D01*
X119037932Y-64567941D01*
X119185017Y-64538684D01*
X119334983Y-64538684D01*
X119482068Y-64567941D01*
G37*
G36*
X122022068Y-64567941D02*
G01*
X122160619Y-64625330D01*
X122285311Y-64708647D01*
X122391353Y-64814689D01*
X122474670Y-64939381D01*
X122532059Y-65077932D01*
X122561316Y-65225017D01*
X122561316Y-65374983D01*
X122532059Y-65522068D01*
X122474670Y-65660619D01*
X122391353Y-65785311D01*
X122285311Y-65891353D01*
X122160619Y-65974670D01*
X122022068Y-66032059D01*
X121874983Y-66061316D01*
X121725017Y-66061316D01*
X121577932Y-66032059D01*
X121439381Y-65974670D01*
X121314689Y-65891353D01*
X121208647Y-65785311D01*
X121125330Y-65660619D01*
X121067941Y-65522068D01*
X121038684Y-65374983D01*
X121038684Y-65225017D01*
X121067941Y-65077932D01*
X121125330Y-64939381D01*
X121208647Y-64814689D01*
X121314689Y-64708647D01*
X121439381Y-64625330D01*
X121577932Y-64567941D01*
X121725017Y-64538684D01*
X121874983Y-64538684D01*
X122022068Y-64567941D01*
G37*
G36*
X180432068Y-64567941D02*
G01*
X180570619Y-64625330D01*
X180695311Y-64708647D01*
X180801353Y-64814689D01*
X180884670Y-64939381D01*
X180942059Y-65077932D01*
X180971316Y-65225017D01*
X180971316Y-65374983D01*
X180942059Y-65522068D01*
X180884670Y-65660619D01*
X180801353Y-65785311D01*
X180695311Y-65891353D01*
X180570619Y-65974670D01*
X180432068Y-66032059D01*
X180284983Y-66061316D01*
X180135017Y-66061316D01*
X179987932Y-66032059D01*
X179849381Y-65974670D01*
X179724689Y-65891353D01*
X179618647Y-65785311D01*
X179535330Y-65660619D01*
X179477941Y-65522068D01*
X179448684Y-65374983D01*
X179448684Y-65225017D01*
X179477941Y-65077932D01*
X179535330Y-64939381D01*
X179618647Y-64814689D01*
X179724689Y-64708647D01*
X179849381Y-64625330D01*
X179987932Y-64567941D01*
X180135017Y-64538684D01*
X180284983Y-64538684D01*
X180432068Y-64567941D01*
G37*
G36*
X182972068Y-64567941D02*
G01*
X183110619Y-64625330D01*
X183235311Y-64708647D01*
X183341353Y-64814689D01*
X183424670Y-64939381D01*
X183482059Y-65077932D01*
X183511316Y-65225017D01*
X183511316Y-65374983D01*
X183482059Y-65522068D01*
X183424670Y-65660619D01*
X183341353Y-65785311D01*
X183235311Y-65891353D01*
X183110619Y-65974670D01*
X182972068Y-66032059D01*
X182824983Y-66061316D01*
X182675017Y-66061316D01*
X182527932Y-66032059D01*
X182389381Y-65974670D01*
X182264689Y-65891353D01*
X182158647Y-65785311D01*
X182075330Y-65660619D01*
X182017941Y-65522068D01*
X181988684Y-65374983D01*
X181988684Y-65225017D01*
X182017941Y-65077932D01*
X182075330Y-64939381D01*
X182158647Y-64814689D01*
X182264689Y-64708647D01*
X182389381Y-64625330D01*
X182527932Y-64567941D01*
X182675017Y-64538684D01*
X182824983Y-64538684D01*
X182972068Y-64567941D01*
G37*
G36*
X119482068Y-62027941D02*
G01*
X119620619Y-62085330D01*
X119745311Y-62168647D01*
X119851353Y-62274689D01*
X119934670Y-62399381D01*
X119992059Y-62537932D01*
X120021316Y-62685017D01*
X120021316Y-62834983D01*
X119992059Y-62982068D01*
X119934670Y-63120619D01*
X119851353Y-63245311D01*
X119745311Y-63351353D01*
X119620619Y-63434670D01*
X119482068Y-63492059D01*
X119334983Y-63521316D01*
X119185017Y-63521316D01*
X119037932Y-63492059D01*
X118899381Y-63434670D01*
X118774689Y-63351353D01*
X118668647Y-63245311D01*
X118585330Y-63120619D01*
X118527941Y-62982068D01*
X118498684Y-62834983D01*
X118498684Y-62685017D01*
X118527941Y-62537932D01*
X118585330Y-62399381D01*
X118668647Y-62274689D01*
X118774689Y-62168647D01*
X118899381Y-62085330D01*
X119037932Y-62027941D01*
X119185017Y-61998684D01*
X119334983Y-61998684D01*
X119482068Y-62027941D01*
G37*
G36*
X122022068Y-62027941D02*
G01*
X122160619Y-62085330D01*
X122285311Y-62168647D01*
X122391353Y-62274689D01*
X122474670Y-62399381D01*
X122532059Y-62537932D01*
X122561316Y-62685017D01*
X122561316Y-62834983D01*
X122532059Y-62982068D01*
X122474670Y-63120619D01*
X122391353Y-63245311D01*
X122285311Y-63351353D01*
X122160619Y-63434670D01*
X122022068Y-63492059D01*
X121874983Y-63521316D01*
X121725017Y-63521316D01*
X121577932Y-63492059D01*
X121439381Y-63434670D01*
X121314689Y-63351353D01*
X121208647Y-63245311D01*
X121125330Y-63120619D01*
X121067941Y-62982068D01*
X121038684Y-62834983D01*
X121038684Y-62685017D01*
X121067941Y-62537932D01*
X121125330Y-62399381D01*
X121208647Y-62274689D01*
X121314689Y-62168647D01*
X121439381Y-62085330D01*
X121577932Y-62027941D01*
X121725017Y-61998684D01*
X121874983Y-61998684D01*
X122022068Y-62027941D01*
G37*
G36*
X180432068Y-62027941D02*
G01*
X180570619Y-62085330D01*
X180695311Y-62168647D01*
X180801353Y-62274689D01*
X180884670Y-62399381D01*
X180942059Y-62537932D01*
X180971316Y-62685017D01*
X180971316Y-62834983D01*
X180942059Y-62982068D01*
X180884670Y-63120619D01*
X180801353Y-63245311D01*
X180695311Y-63351353D01*
X180570619Y-63434670D01*
X180432068Y-63492059D01*
X180284983Y-63521316D01*
X180135017Y-63521316D01*
X179987932Y-63492059D01*
X179849381Y-63434670D01*
X179724689Y-63351353D01*
X179618647Y-63245311D01*
X179535330Y-63120619D01*
X179477941Y-62982068D01*
X179448684Y-62834983D01*
X179448684Y-62685017D01*
X179477941Y-62537932D01*
X179535330Y-62399381D01*
X179618647Y-62274689D01*
X179724689Y-62168647D01*
X179849381Y-62085330D01*
X179987932Y-62027941D01*
X180135017Y-61998684D01*
X180284983Y-61998684D01*
X180432068Y-62027941D01*
G37*
G36*
X182972068Y-62027941D02*
G01*
X183110619Y-62085330D01*
X183235311Y-62168647D01*
X183341353Y-62274689D01*
X183424670Y-62399381D01*
X183482059Y-62537932D01*
X183511316Y-62685017D01*
X183511316Y-62834983D01*
X183482059Y-62982068D01*
X183424670Y-63120619D01*
X183341353Y-63245311D01*
X183235311Y-63351353D01*
X183110619Y-63434670D01*
X182972068Y-63492059D01*
X182824983Y-63521316D01*
X182675017Y-63521316D01*
X182527932Y-63492059D01*
X182389381Y-63434670D01*
X182264689Y-63351353D01*
X182158647Y-63245311D01*
X182075330Y-63120619D01*
X182017941Y-62982068D01*
X181988684Y-62834983D01*
X181988684Y-62685017D01*
X182017941Y-62537932D01*
X182075330Y-62399381D01*
X182158647Y-62274689D01*
X182264689Y-62168647D01*
X182389381Y-62085330D01*
X182527932Y-62027941D01*
X182675017Y-61998684D01*
X182824983Y-61998684D01*
X182972068Y-62027941D01*
G37*
G36*
X119482068Y-59487941D02*
G01*
X119620619Y-59545330D01*
X119745311Y-59628647D01*
X119851353Y-59734689D01*
X119934670Y-59859381D01*
X119992059Y-59997932D01*
X120021316Y-60145017D01*
X120021316Y-60294983D01*
X119992059Y-60442068D01*
X119934670Y-60580619D01*
X119851353Y-60705311D01*
X119745311Y-60811353D01*
X119620619Y-60894670D01*
X119482068Y-60952059D01*
X119334983Y-60981316D01*
X119185017Y-60981316D01*
X119037932Y-60952059D01*
X118899381Y-60894670D01*
X118774689Y-60811353D01*
X118668647Y-60705311D01*
X118585330Y-60580619D01*
X118527941Y-60442068D01*
X118498684Y-60294983D01*
X118498684Y-60145017D01*
X118527941Y-59997932D01*
X118585330Y-59859381D01*
X118668647Y-59734689D01*
X118774689Y-59628647D01*
X118899381Y-59545330D01*
X119037932Y-59487941D01*
X119185017Y-59458684D01*
X119334983Y-59458684D01*
X119482068Y-59487941D01*
G37*
G36*
X122022068Y-59487941D02*
G01*
X122160619Y-59545330D01*
X122285311Y-59628647D01*
X122391353Y-59734689D01*
X122474670Y-59859381D01*
X122532059Y-59997932D01*
X122561316Y-60145017D01*
X122561316Y-60294983D01*
X122532059Y-60442068D01*
X122474670Y-60580619D01*
X122391353Y-60705311D01*
X122285311Y-60811353D01*
X122160619Y-60894670D01*
X122022068Y-60952059D01*
X121874983Y-60981316D01*
X121725017Y-60981316D01*
X121577932Y-60952059D01*
X121439381Y-60894670D01*
X121314689Y-60811353D01*
X121208647Y-60705311D01*
X121125330Y-60580619D01*
X121067941Y-60442068D01*
X121038684Y-60294983D01*
X121038684Y-60145017D01*
X121067941Y-59997932D01*
X121125330Y-59859381D01*
X121208647Y-59734689D01*
X121314689Y-59628647D01*
X121439381Y-59545330D01*
X121577932Y-59487941D01*
X121725017Y-59458684D01*
X121874983Y-59458684D01*
X122022068Y-59487941D01*
G37*
G36*
X180432068Y-59487941D02*
G01*
X180570619Y-59545330D01*
X180695311Y-59628647D01*
X180801353Y-59734689D01*
X180884670Y-59859381D01*
X180942059Y-59997932D01*
X180971316Y-60145017D01*
X180971316Y-60294983D01*
X180942059Y-60442068D01*
X180884670Y-60580619D01*
X180801353Y-60705311D01*
X180695311Y-60811353D01*
X180570619Y-60894670D01*
X180432068Y-60952059D01*
X180284983Y-60981316D01*
X180135017Y-60981316D01*
X179987932Y-60952059D01*
X179849381Y-60894670D01*
X179724689Y-60811353D01*
X179618647Y-60705311D01*
X179535330Y-60580619D01*
X179477941Y-60442068D01*
X179448684Y-60294983D01*
X179448684Y-60145017D01*
X179477941Y-59997932D01*
X179535330Y-59859381D01*
X179618647Y-59734689D01*
X179724689Y-59628647D01*
X179849381Y-59545330D01*
X179987932Y-59487941D01*
X180135017Y-59458684D01*
X180284983Y-59458684D01*
X180432068Y-59487941D01*
G37*
G36*
X182972068Y-59487941D02*
G01*
X183110619Y-59545330D01*
X183235311Y-59628647D01*
X183341353Y-59734689D01*
X183424670Y-59859381D01*
X183482059Y-59997932D01*
X183511316Y-60145017D01*
X183511316Y-60294983D01*
X183482059Y-60442068D01*
X183424670Y-60580619D01*
X183341353Y-60705311D01*
X183235311Y-60811353D01*
X183110619Y-60894670D01*
X182972068Y-60952059D01*
X182824983Y-60981316D01*
X182675017Y-60981316D01*
X182527932Y-60952059D01*
X182389381Y-60894670D01*
X182264689Y-60811353D01*
X182158647Y-60705311D01*
X182075330Y-60580619D01*
X182017941Y-60442068D01*
X181988684Y-60294983D01*
X181988684Y-60145017D01*
X182017941Y-59997932D01*
X182075330Y-59859381D01*
X182158647Y-59734689D01*
X182264689Y-59628647D01*
X182389381Y-59545330D01*
X182527932Y-59487941D01*
X182675017Y-59458684D01*
X182824983Y-59458684D01*
X182972068Y-59487941D01*
G37*
G36*
X119482068Y-56947941D02*
G01*
X119620619Y-57005330D01*
X119745311Y-57088647D01*
X119851353Y-57194689D01*
X119934670Y-57319381D01*
X119992059Y-57457932D01*
X120021316Y-57605017D01*
X120021316Y-57754983D01*
X119992059Y-57902068D01*
X119934670Y-58040619D01*
X119851353Y-58165311D01*
X119745311Y-58271353D01*
X119620619Y-58354670D01*
X119482068Y-58412059D01*
X119334983Y-58441316D01*
X119185017Y-58441316D01*
X119037932Y-58412059D01*
X118899381Y-58354670D01*
X118774689Y-58271353D01*
X118668647Y-58165311D01*
X118585330Y-58040619D01*
X118527941Y-57902068D01*
X118498684Y-57754983D01*
X118498684Y-57605017D01*
X118527941Y-57457932D01*
X118585330Y-57319381D01*
X118668647Y-57194689D01*
X118774689Y-57088647D01*
X118899381Y-57005330D01*
X119037932Y-56947941D01*
X119185017Y-56918684D01*
X119334983Y-56918684D01*
X119482068Y-56947941D01*
G37*
G36*
X122022068Y-56947941D02*
G01*
X122160619Y-57005330D01*
X122285311Y-57088647D01*
X122391353Y-57194689D01*
X122474670Y-57319381D01*
X122532059Y-57457932D01*
X122561316Y-57605017D01*
X122561316Y-57754983D01*
X122532059Y-57902068D01*
X122474670Y-58040619D01*
X122391353Y-58165311D01*
X122285311Y-58271353D01*
X122160619Y-58354670D01*
X122022068Y-58412059D01*
X121874983Y-58441316D01*
X121725017Y-58441316D01*
X121577932Y-58412059D01*
X121439381Y-58354670D01*
X121314689Y-58271353D01*
X121208647Y-58165311D01*
X121125330Y-58040619D01*
X121067941Y-57902068D01*
X121038684Y-57754983D01*
X121038684Y-57605017D01*
X121067941Y-57457932D01*
X121125330Y-57319381D01*
X121208647Y-57194689D01*
X121314689Y-57088647D01*
X121439381Y-57005330D01*
X121577932Y-56947941D01*
X121725017Y-56918684D01*
X121874983Y-56918684D01*
X122022068Y-56947941D01*
G37*
G36*
X180432068Y-56947941D02*
G01*
X180570619Y-57005330D01*
X180695311Y-57088647D01*
X180801353Y-57194689D01*
X180884670Y-57319381D01*
X180942059Y-57457932D01*
X180971316Y-57605017D01*
X180971316Y-57754983D01*
X180942059Y-57902068D01*
X180884670Y-58040619D01*
X180801353Y-58165311D01*
X180695311Y-58271353D01*
X180570619Y-58354670D01*
X180432068Y-58412059D01*
X180284983Y-58441316D01*
X180135017Y-58441316D01*
X179987932Y-58412059D01*
X179849381Y-58354670D01*
X179724689Y-58271353D01*
X179618647Y-58165311D01*
X179535330Y-58040619D01*
X179477941Y-57902068D01*
X179448684Y-57754983D01*
X179448684Y-57605017D01*
X179477941Y-57457932D01*
X179535330Y-57319381D01*
X179618647Y-57194689D01*
X179724689Y-57088647D01*
X179849381Y-57005330D01*
X179987932Y-56947941D01*
X180135017Y-56918684D01*
X180284983Y-56918684D01*
X180432068Y-56947941D01*
G37*
G36*
X182972068Y-56947941D02*
G01*
X183110619Y-57005330D01*
X183235311Y-57088647D01*
X183341353Y-57194689D01*
X183424670Y-57319381D01*
X183482059Y-57457932D01*
X183511316Y-57605017D01*
X183511316Y-57754983D01*
X183482059Y-57902068D01*
X183424670Y-58040619D01*
X183341353Y-58165311D01*
X183235311Y-58271353D01*
X183110619Y-58354670D01*
X182972068Y-58412059D01*
X182824983Y-58441316D01*
X182675017Y-58441316D01*
X182527932Y-58412059D01*
X182389381Y-58354670D01*
X182264689Y-58271353D01*
X182158647Y-58165311D01*
X182075330Y-58040619D01*
X182017941Y-57902068D01*
X181988684Y-57754983D01*
X181988684Y-57605017D01*
X182017941Y-57457932D01*
X182075330Y-57319381D01*
X182158647Y-57194689D01*
X182264689Y-57088647D01*
X182389381Y-57005330D01*
X182527932Y-56947941D01*
X182675017Y-56918684D01*
X182824983Y-56918684D01*
X182972068Y-56947941D01*
G37*
G36*
X119482068Y-54407941D02*
G01*
X119620619Y-54465330D01*
X119745311Y-54548647D01*
X119851353Y-54654689D01*
X119934670Y-54779381D01*
X119992059Y-54917932D01*
X120021316Y-55065017D01*
X120021316Y-55214983D01*
X119992059Y-55362068D01*
X119934670Y-55500619D01*
X119851353Y-55625311D01*
X119745311Y-55731353D01*
X119620619Y-55814670D01*
X119482068Y-55872059D01*
X119334983Y-55901316D01*
X119185017Y-55901316D01*
X119037932Y-55872059D01*
X118899381Y-55814670D01*
X118774689Y-55731353D01*
X118668647Y-55625311D01*
X118585330Y-55500619D01*
X118527941Y-55362068D01*
X118498684Y-55214983D01*
X118498684Y-55065017D01*
X118527941Y-54917932D01*
X118585330Y-54779381D01*
X118668647Y-54654689D01*
X118774689Y-54548647D01*
X118899381Y-54465330D01*
X119037932Y-54407941D01*
X119185017Y-54378684D01*
X119334983Y-54378684D01*
X119482068Y-54407941D01*
G37*
G36*
X122022068Y-54407941D02*
G01*
X122160619Y-54465330D01*
X122285311Y-54548647D01*
X122391353Y-54654689D01*
X122474670Y-54779381D01*
X122532059Y-54917932D01*
X122561316Y-55065017D01*
X122561316Y-55214983D01*
X122532059Y-55362068D01*
X122474670Y-55500619D01*
X122391353Y-55625311D01*
X122285311Y-55731353D01*
X122160619Y-55814670D01*
X122022068Y-55872059D01*
X121874983Y-55901316D01*
X121725017Y-55901316D01*
X121577932Y-55872059D01*
X121439381Y-55814670D01*
X121314689Y-55731353D01*
X121208647Y-55625311D01*
X121125330Y-55500619D01*
X121067941Y-55362068D01*
X121038684Y-55214983D01*
X121038684Y-55065017D01*
X121067941Y-54917932D01*
X121125330Y-54779381D01*
X121208647Y-54654689D01*
X121314689Y-54548647D01*
X121439381Y-54465330D01*
X121577932Y-54407941D01*
X121725017Y-54378684D01*
X121874983Y-54378684D01*
X122022068Y-54407941D01*
G37*
G36*
X180432068Y-54407941D02*
G01*
X180570619Y-54465330D01*
X180695311Y-54548647D01*
X180801353Y-54654689D01*
X180884670Y-54779381D01*
X180942059Y-54917932D01*
X180971316Y-55065017D01*
X180971316Y-55214983D01*
X180942059Y-55362068D01*
X180884670Y-55500619D01*
X180801353Y-55625311D01*
X180695311Y-55731353D01*
X180570619Y-55814670D01*
X180432068Y-55872059D01*
X180284983Y-55901316D01*
X180135017Y-55901316D01*
X179987932Y-55872059D01*
X179849381Y-55814670D01*
X179724689Y-55731353D01*
X179618647Y-55625311D01*
X179535330Y-55500619D01*
X179477941Y-55362068D01*
X179448684Y-55214983D01*
X179448684Y-55065017D01*
X179477941Y-54917932D01*
X179535330Y-54779381D01*
X179618647Y-54654689D01*
X179724689Y-54548647D01*
X179849381Y-54465330D01*
X179987932Y-54407941D01*
X180135017Y-54378684D01*
X180284983Y-54378684D01*
X180432068Y-54407941D01*
G37*
G36*
X182972068Y-54407941D02*
G01*
X183110619Y-54465330D01*
X183235311Y-54548647D01*
X183341353Y-54654689D01*
X183424670Y-54779381D01*
X183482059Y-54917932D01*
X183511316Y-55065017D01*
X183511316Y-55214983D01*
X183482059Y-55362068D01*
X183424670Y-55500619D01*
X183341353Y-55625311D01*
X183235311Y-55731353D01*
X183110619Y-55814670D01*
X182972068Y-55872059D01*
X182824983Y-55901316D01*
X182675017Y-55901316D01*
X182527932Y-55872059D01*
X182389381Y-55814670D01*
X182264689Y-55731353D01*
X182158647Y-55625311D01*
X182075330Y-55500619D01*
X182017941Y-55362068D01*
X181988684Y-55214983D01*
X181988684Y-55065017D01*
X182017941Y-54917932D01*
X182075330Y-54779381D01*
X182158647Y-54654689D01*
X182264689Y-54548647D01*
X182389381Y-54465330D01*
X182527932Y-54407941D01*
X182675017Y-54378684D01*
X182824983Y-54378684D01*
X182972068Y-54407941D01*
G37*
G36*
X120025000Y-53365000D02*
G01*
X118495000Y-53365000D01*
X118495000Y-51835000D01*
X120025000Y-51835000D01*
X120025000Y-53365000D01*
G37*
G36*
X180975000Y-53365000D02*
G01*
X179445000Y-53365000D01*
X179445000Y-51835000D01*
X180975000Y-51835000D01*
X180975000Y-53365000D01*
G37*
G36*
X122022068Y-51867941D02*
G01*
X122160619Y-51925330D01*
X122285311Y-52008647D01*
X122391353Y-52114689D01*
X122474670Y-52239381D01*
X122532059Y-52377932D01*
X122561316Y-52525017D01*
X122561316Y-52674983D01*
X122532059Y-52822068D01*
X122474670Y-52960619D01*
X122391353Y-53085311D01*
X122285311Y-53191353D01*
X122160619Y-53274670D01*
X122022068Y-53332059D01*
X121874983Y-53361316D01*
X121725017Y-53361316D01*
X121577932Y-53332059D01*
X121439381Y-53274670D01*
X121314689Y-53191353D01*
X121208647Y-53085311D01*
X121125330Y-52960619D01*
X121067941Y-52822068D01*
X121038684Y-52674983D01*
X121038684Y-52525017D01*
X121067941Y-52377932D01*
X121125330Y-52239381D01*
X121208647Y-52114689D01*
X121314689Y-52008647D01*
X121439381Y-51925330D01*
X121577932Y-51867941D01*
X121725017Y-51838684D01*
X121874983Y-51838684D01*
X122022068Y-51867941D01*
G37*
G36*
X182972068Y-51867941D02*
G01*
X183110619Y-51925330D01*
X183235311Y-52008647D01*
X183341353Y-52114689D01*
X183424670Y-52239381D01*
X183482059Y-52377932D01*
X183511316Y-52525017D01*
X183511316Y-52674983D01*
X183482059Y-52822068D01*
X183424670Y-52960619D01*
X183341353Y-53085311D01*
X183235311Y-53191353D01*
X183110619Y-53274670D01*
X182972068Y-53332059D01*
X182824983Y-53361316D01*
X182675017Y-53361316D01*
X182527932Y-53332059D01*
X182389381Y-53274670D01*
X182264689Y-53191353D01*
X182158647Y-53085311D01*
X182075330Y-52960619D01*
X182017941Y-52822068D01*
X181988684Y-52674983D01*
X181988684Y-52525017D01*
X182017941Y-52377932D01*
X182075330Y-52239381D01*
X182158647Y-52114689D01*
X182264689Y-52008647D01*
X182389381Y-51925330D01*
X182527932Y-51867941D01*
X182675017Y-51838684D01*
X182824983Y-51838684D01*
X182972068Y-51867941D01*
G37*
M02*
