%TF.GenerationSoftware,KiCad,Pcbnew,9.0.7-9.0.7~ubuntu24.04.1*%
%TF.CreationDate,2026-01-13T16:30:03+01:00*%
%TF.ProjectId,digital_input,64696769-7461-46c5-9f69-6e7075742e6b,1.0*%
%TF.SameCoordinates,Original*%
%TF.FileFunction,Profile,NP*%
%FSLAX46Y46*%
G04 Gerber Fmt 4.6, Leading zero omitted, Abs format (unit mm)*
G04 Created by KiCad (PCBNEW 9.0.7-9.0.7~ubuntu24.04.1) date 2026-01-13 16:30:03*
%MOMM*%
%LPD*%
G01*
G04 APERTURE LIST*
%TA.AperFunction,Profile*%
%ADD10C,0.150000*%
%TD*%
G04 APERTURE END LIST*
D10*
X128990000Y-116060000D02*
X161990000Y-116060000D01*
X126990000Y-114060000D02*
X128990000Y-116060000D01*
X116990000Y-48560000D02*
X134990000Y-48560000D01*
X165990000Y-56230000D02*
G75*
G02*
X164990000Y-57230000I-1000000J0D01*
G01*
X161490000Y-113560000D02*
G75*
G02*
X158230000Y-113560000I-1630000J0D01*
G01*
X158230000Y-113560000D02*
G75*
G02*
X161490000Y-113560000I1630000J0D01*
G01*
X115990000Y-112060000D02*
X115990000Y-49560000D01*
X115990000Y-49560000D02*
G75*
G02*
X116990000Y-48560000I1000000J0D01*
G01*
X161990000Y-116060000D02*
X163990000Y-114060000D01*
X117990000Y-114060000D02*
G75*
G02*
X115990000Y-112060000I0J2000000D01*
G01*
X134990000Y-48560000D02*
G75*
G02*
X135990000Y-49560000I0J-1000000D01*
G01*
X185990000Y-112060000D02*
G75*
G02*
X183990000Y-114060000I-2000000J0D01*
G01*
X185990000Y-112060000D02*
X185990000Y-49560000D01*
X165990000Y-49560000D02*
X165990000Y-56230000D01*
X184990000Y-48560000D02*
G75*
G02*
X185990000Y-49560000I0J-1000000D01*
G01*
X176740000Y-54930000D02*
G75*
G02*
X173500000Y-54930000I-1620000J0D01*
G01*
X173500000Y-54930000D02*
G75*
G02*
X176740000Y-54930000I1620000J0D01*
G01*
X184990000Y-48560000D02*
X166990000Y-48560000D01*
X135990000Y-49560000D02*
X135990000Y-56230000D01*
X164990000Y-57230000D02*
X136990000Y-57230000D01*
X128480000Y-53650000D02*
G75*
G02*
X125240000Y-53650000I-1620000J0D01*
G01*
X125240000Y-53650000D02*
G75*
G02*
X128480000Y-53650000I1620000J0D01*
G01*
X117990000Y-114060000D02*
X126990000Y-114060000D01*
X136990000Y-57230000D02*
G75*
G02*
X135990000Y-56230000I0J1000000D01*
G01*
X165990000Y-49560000D02*
G75*
G02*
X166990000Y-48560000I1000000J0D01*
G01*
X163990000Y-114060000D02*
X183990000Y-114060000D01*
M02*
