%TF.GenerationSoftware,KiCad,Pcbnew,9.0.7-9.0.7~ubuntu24.04.1*%
%TF.CreationDate,2026-01-13T16:25:48+01:00*%
%TF.ProjectId,power,706f7765-722e-46b6-9963-61645f706362,1.0*%
%TF.SameCoordinates,Original*%
%TF.FileFunction,Soldermask,Bot*%
%TF.FilePolarity,Negative*%
%FSLAX46Y46*%
G04 Gerber Fmt 4.6, Leading zero omitted, Abs format (unit mm)*
G04 Created by KiCad (PCBNEW 9.0.7-9.0.7~ubuntu24.04.1) date 2026-01-13 16:25:48*
%MOMM*%
%LPD*%
G01*
G04 APERTURE LIST*
G04 APERTURE END LIST*
G36*
X130920476Y-111741866D02*
G01*
X131044819Y-111813656D01*
X131146344Y-111915181D01*
X131218134Y-112039524D01*
X131255295Y-112178211D01*
X131255295Y-112321789D01*
X131218134Y-112460476D01*
X131146344Y-112584819D01*
X131044819Y-112686344D01*
X130920476Y-112758134D01*
X130781789Y-112795295D01*
X130638211Y-112795295D01*
X130499524Y-112758134D01*
X130375181Y-112686344D01*
X130273656Y-112584819D01*
X130201866Y-112460476D01*
X130164705Y-112321789D01*
X130164705Y-112178211D01*
X130201866Y-112039524D01*
X130273656Y-111915181D01*
X130375181Y-111813656D01*
X130499524Y-111741866D01*
X130638211Y-111704705D01*
X130781789Y-111704705D01*
X130920476Y-111741866D01*
G37*
G36*
X133460476Y-111741866D02*
G01*
X133584819Y-111813656D01*
X133686344Y-111915181D01*
X133758134Y-112039524D01*
X133795295Y-112178211D01*
X133795295Y-112321789D01*
X133758134Y-112460476D01*
X133686344Y-112584819D01*
X133584819Y-112686344D01*
X133460476Y-112758134D01*
X133321789Y-112795295D01*
X133178211Y-112795295D01*
X133039524Y-112758134D01*
X132915181Y-112686344D01*
X132813656Y-112584819D01*
X132741866Y-112460476D01*
X132704705Y-112321789D01*
X132704705Y-112178211D01*
X132741866Y-112039524D01*
X132813656Y-111915181D01*
X132915181Y-111813656D01*
X133039524Y-111741866D01*
X133178211Y-111704705D01*
X133321789Y-111704705D01*
X133460476Y-111741866D01*
G37*
G36*
X131535000Y-110535000D02*
G01*
X129885000Y-110535000D01*
X129885000Y-108885000D01*
X131535000Y-108885000D01*
X131535000Y-110535000D01*
G37*
G36*
X133489485Y-108920524D02*
G01*
X133638902Y-108982415D01*
X133773374Y-109072266D01*
X133887734Y-109186626D01*
X133977585Y-109321098D01*
X134039476Y-109470515D01*
X134071027Y-109629136D01*
X134071027Y-109790864D01*
X134039476Y-109949485D01*
X133977585Y-110098902D01*
X133887734Y-110233374D01*
X133773374Y-110347734D01*
X133638902Y-110437585D01*
X133489485Y-110499476D01*
X133330864Y-110531027D01*
X133169136Y-110531027D01*
X133010515Y-110499476D01*
X132861098Y-110437585D01*
X132726626Y-110347734D01*
X132612266Y-110233374D01*
X132522415Y-110098902D01*
X132460524Y-109949485D01*
X132428973Y-109790864D01*
X132428973Y-109629136D01*
X132460524Y-109470515D01*
X132522415Y-109321098D01*
X132612266Y-109186626D01*
X132726626Y-109072266D01*
X132861098Y-108982415D01*
X133010515Y-108920524D01*
X133169136Y-108888973D01*
X133330864Y-108888973D01*
X133489485Y-108920524D01*
G37*
G36*
X119472068Y-107647941D02*
G01*
X119610619Y-107705330D01*
X119735311Y-107788647D01*
X119841353Y-107894689D01*
X119924670Y-108019381D01*
X119982059Y-108157932D01*
X120011316Y-108305017D01*
X120011316Y-108454983D01*
X119982059Y-108602068D01*
X119924670Y-108740619D01*
X119841353Y-108865311D01*
X119735311Y-108971353D01*
X119610619Y-109054670D01*
X119472068Y-109112059D01*
X119324983Y-109141316D01*
X119175017Y-109141316D01*
X119027932Y-109112059D01*
X118889381Y-109054670D01*
X118764689Y-108971353D01*
X118658647Y-108865311D01*
X118575330Y-108740619D01*
X118517941Y-108602068D01*
X118488684Y-108454983D01*
X118488684Y-108305017D01*
X118517941Y-108157932D01*
X118575330Y-108019381D01*
X118658647Y-107894689D01*
X118764689Y-107788647D01*
X118889381Y-107705330D01*
X119027932Y-107647941D01*
X119175017Y-107618684D01*
X119324983Y-107618684D01*
X119472068Y-107647941D01*
G37*
G36*
X122012068Y-107647941D02*
G01*
X122150619Y-107705330D01*
X122275311Y-107788647D01*
X122381353Y-107894689D01*
X122464670Y-108019381D01*
X122522059Y-108157932D01*
X122551316Y-108305017D01*
X122551316Y-108454983D01*
X122522059Y-108602068D01*
X122464670Y-108740619D01*
X122381353Y-108865311D01*
X122275311Y-108971353D01*
X122150619Y-109054670D01*
X122012068Y-109112059D01*
X121864983Y-109141316D01*
X121715017Y-109141316D01*
X121567932Y-109112059D01*
X121429381Y-109054670D01*
X121304689Y-108971353D01*
X121198647Y-108865311D01*
X121115330Y-108740619D01*
X121057941Y-108602068D01*
X121028684Y-108454983D01*
X121028684Y-108305017D01*
X121057941Y-108157932D01*
X121115330Y-108019381D01*
X121198647Y-107894689D01*
X121304689Y-107788647D01*
X121429381Y-107705330D01*
X121567932Y-107647941D01*
X121715017Y-107618684D01*
X121864983Y-107618684D01*
X122012068Y-107647941D01*
G37*
G36*
X180472068Y-107647941D02*
G01*
X180610619Y-107705330D01*
X180735311Y-107788647D01*
X180841353Y-107894689D01*
X180924670Y-108019381D01*
X180982059Y-108157932D01*
X181011316Y-108305017D01*
X181011316Y-108454983D01*
X180982059Y-108602068D01*
X180924670Y-108740619D01*
X180841353Y-108865311D01*
X180735311Y-108971353D01*
X180610619Y-109054670D01*
X180472068Y-109112059D01*
X180324983Y-109141316D01*
X180175017Y-109141316D01*
X180027932Y-109112059D01*
X179889381Y-109054670D01*
X179764689Y-108971353D01*
X179658647Y-108865311D01*
X179575330Y-108740619D01*
X179517941Y-108602068D01*
X179488684Y-108454983D01*
X179488684Y-108305017D01*
X179517941Y-108157932D01*
X179575330Y-108019381D01*
X179658647Y-107894689D01*
X179764689Y-107788647D01*
X179889381Y-107705330D01*
X180027932Y-107647941D01*
X180175017Y-107618684D01*
X180324983Y-107618684D01*
X180472068Y-107647941D01*
G37*
G36*
X183012068Y-107647941D02*
G01*
X183150619Y-107705330D01*
X183275311Y-107788647D01*
X183381353Y-107894689D01*
X183464670Y-108019381D01*
X183522059Y-108157932D01*
X183551316Y-108305017D01*
X183551316Y-108454983D01*
X183522059Y-108602068D01*
X183464670Y-108740619D01*
X183381353Y-108865311D01*
X183275311Y-108971353D01*
X183150619Y-109054670D01*
X183012068Y-109112059D01*
X182864983Y-109141316D01*
X182715017Y-109141316D01*
X182567932Y-109112059D01*
X182429381Y-109054670D01*
X182304689Y-108971353D01*
X182198647Y-108865311D01*
X182115330Y-108740619D01*
X182057941Y-108602068D01*
X182028684Y-108454983D01*
X182028684Y-108305017D01*
X182057941Y-108157932D01*
X182115330Y-108019381D01*
X182198647Y-107894689D01*
X182304689Y-107788647D01*
X182429381Y-107705330D01*
X182567932Y-107647941D01*
X182715017Y-107618684D01*
X182864983Y-107618684D01*
X183012068Y-107647941D01*
G37*
G36*
X119472068Y-105107941D02*
G01*
X119610619Y-105165330D01*
X119735311Y-105248647D01*
X119841353Y-105354689D01*
X119924670Y-105479381D01*
X119982059Y-105617932D01*
X120011316Y-105765017D01*
X120011316Y-105914983D01*
X119982059Y-106062068D01*
X119924670Y-106200619D01*
X119841353Y-106325311D01*
X119735311Y-106431353D01*
X119610619Y-106514670D01*
X119472068Y-106572059D01*
X119324983Y-106601316D01*
X119175017Y-106601316D01*
X119027932Y-106572059D01*
X118889381Y-106514670D01*
X118764689Y-106431353D01*
X118658647Y-106325311D01*
X118575330Y-106200619D01*
X118517941Y-106062068D01*
X118488684Y-105914983D01*
X118488684Y-105765017D01*
X118517941Y-105617932D01*
X118575330Y-105479381D01*
X118658647Y-105354689D01*
X118764689Y-105248647D01*
X118889381Y-105165330D01*
X119027932Y-105107941D01*
X119175017Y-105078684D01*
X119324983Y-105078684D01*
X119472068Y-105107941D01*
G37*
G36*
X122012068Y-105107941D02*
G01*
X122150619Y-105165330D01*
X122275311Y-105248647D01*
X122381353Y-105354689D01*
X122464670Y-105479381D01*
X122522059Y-105617932D01*
X122551316Y-105765017D01*
X122551316Y-105914983D01*
X122522059Y-106062068D01*
X122464670Y-106200619D01*
X122381353Y-106325311D01*
X122275311Y-106431353D01*
X122150619Y-106514670D01*
X122012068Y-106572059D01*
X121864983Y-106601316D01*
X121715017Y-106601316D01*
X121567932Y-106572059D01*
X121429381Y-106514670D01*
X121304689Y-106431353D01*
X121198647Y-106325311D01*
X121115330Y-106200619D01*
X121057941Y-106062068D01*
X121028684Y-105914983D01*
X121028684Y-105765017D01*
X121057941Y-105617932D01*
X121115330Y-105479381D01*
X121198647Y-105354689D01*
X121304689Y-105248647D01*
X121429381Y-105165330D01*
X121567932Y-105107941D01*
X121715017Y-105078684D01*
X121864983Y-105078684D01*
X122012068Y-105107941D01*
G37*
G36*
X180472068Y-105107941D02*
G01*
X180610619Y-105165330D01*
X180735311Y-105248647D01*
X180841353Y-105354689D01*
X180924670Y-105479381D01*
X180982059Y-105617932D01*
X181011316Y-105765017D01*
X181011316Y-105914983D01*
X180982059Y-106062068D01*
X180924670Y-106200619D01*
X180841353Y-106325311D01*
X180735311Y-106431353D01*
X180610619Y-106514670D01*
X180472068Y-106572059D01*
X180324983Y-106601316D01*
X180175017Y-106601316D01*
X180027932Y-106572059D01*
X179889381Y-106514670D01*
X179764689Y-106431353D01*
X179658647Y-106325311D01*
X179575330Y-106200619D01*
X179517941Y-106062068D01*
X179488684Y-105914983D01*
X179488684Y-105765017D01*
X179517941Y-105617932D01*
X179575330Y-105479381D01*
X179658647Y-105354689D01*
X179764689Y-105248647D01*
X179889381Y-105165330D01*
X180027932Y-105107941D01*
X180175017Y-105078684D01*
X180324983Y-105078684D01*
X180472068Y-105107941D01*
G37*
G36*
X183012068Y-105107941D02*
G01*
X183150619Y-105165330D01*
X183275311Y-105248647D01*
X183381353Y-105354689D01*
X183464670Y-105479381D01*
X183522059Y-105617932D01*
X183551316Y-105765017D01*
X183551316Y-105914983D01*
X183522059Y-106062068D01*
X183464670Y-106200619D01*
X183381353Y-106325311D01*
X183275311Y-106431353D01*
X183150619Y-106514670D01*
X183012068Y-106572059D01*
X182864983Y-106601316D01*
X182715017Y-106601316D01*
X182567932Y-106572059D01*
X182429381Y-106514670D01*
X182304689Y-106431353D01*
X182198647Y-106325311D01*
X182115330Y-106200619D01*
X182057941Y-106062068D01*
X182028684Y-105914983D01*
X182028684Y-105765017D01*
X182057941Y-105617932D01*
X182115330Y-105479381D01*
X182198647Y-105354689D01*
X182304689Y-105248647D01*
X182429381Y-105165330D01*
X182567932Y-105107941D01*
X182715017Y-105078684D01*
X182864983Y-105078684D01*
X183012068Y-105107941D01*
G37*
G36*
X142904055Y-104110285D02*
G01*
X143025129Y-104160436D01*
X143134092Y-104233243D01*
X143226757Y-104325908D01*
X143299564Y-104434871D01*
X143349715Y-104555945D01*
X143375281Y-104684476D01*
X143375281Y-104815524D01*
X143349715Y-104944055D01*
X143299564Y-105065129D01*
X143226757Y-105174092D01*
X143134092Y-105266757D01*
X143025129Y-105339564D01*
X142904055Y-105389715D01*
X142775524Y-105415281D01*
X142644476Y-105415281D01*
X142515945Y-105389715D01*
X142394871Y-105339564D01*
X142285908Y-105266757D01*
X142193243Y-105174092D01*
X142120436Y-105065129D01*
X142070285Y-104944055D01*
X142044719Y-104815524D01*
X142044719Y-104684476D01*
X142070285Y-104555945D01*
X142120436Y-104434871D01*
X142193243Y-104325908D01*
X142285908Y-104233243D01*
X142394871Y-104160436D01*
X142515945Y-104110285D01*
X142644476Y-104084719D01*
X142775524Y-104084719D01*
X142904055Y-104110285D01*
G37*
G36*
X145444055Y-104110285D02*
G01*
X145565129Y-104160436D01*
X145674092Y-104233243D01*
X145766757Y-104325908D01*
X145839564Y-104434871D01*
X145889715Y-104555945D01*
X145915281Y-104684476D01*
X145915281Y-104815524D01*
X145889715Y-104944055D01*
X145839564Y-105065129D01*
X145766757Y-105174092D01*
X145674092Y-105266757D01*
X145565129Y-105339564D01*
X145444055Y-105389715D01*
X145315524Y-105415281D01*
X145184476Y-105415281D01*
X145055945Y-105389715D01*
X144934871Y-105339564D01*
X144825908Y-105266757D01*
X144733243Y-105174092D01*
X144660436Y-105065129D01*
X144610285Y-104944055D01*
X144584719Y-104815524D01*
X144584719Y-104684476D01*
X144610285Y-104555945D01*
X144660436Y-104434871D01*
X144733243Y-104325908D01*
X144825908Y-104233243D01*
X144934871Y-104160436D01*
X145055945Y-104110285D01*
X145184476Y-104084719D01*
X145315524Y-104084719D01*
X145444055Y-104110285D01*
G37*
G36*
X153064055Y-104110285D02*
G01*
X153185129Y-104160436D01*
X153294092Y-104233243D01*
X153386757Y-104325908D01*
X153459564Y-104434871D01*
X153509715Y-104555945D01*
X153535281Y-104684476D01*
X153535281Y-104815524D01*
X153509715Y-104944055D01*
X153459564Y-105065129D01*
X153386757Y-105174092D01*
X153294092Y-105266757D01*
X153185129Y-105339564D01*
X153064055Y-105389715D01*
X152935524Y-105415281D01*
X152804476Y-105415281D01*
X152675945Y-105389715D01*
X152554871Y-105339564D01*
X152445908Y-105266757D01*
X152353243Y-105174092D01*
X152280436Y-105065129D01*
X152230285Y-104944055D01*
X152204719Y-104815524D01*
X152204719Y-104684476D01*
X152230285Y-104555945D01*
X152280436Y-104434871D01*
X152353243Y-104325908D01*
X152445908Y-104233243D01*
X152554871Y-104160436D01*
X152675945Y-104110285D01*
X152804476Y-104084719D01*
X152935524Y-104084719D01*
X153064055Y-104110285D01*
G37*
G36*
X155604055Y-104110285D02*
G01*
X155725129Y-104160436D01*
X155834092Y-104233243D01*
X155926757Y-104325908D01*
X155999564Y-104434871D01*
X156049715Y-104555945D01*
X156075281Y-104684476D01*
X156075281Y-104815524D01*
X156049715Y-104944055D01*
X155999564Y-105065129D01*
X155926757Y-105174092D01*
X155834092Y-105266757D01*
X155725129Y-105339564D01*
X155604055Y-105389715D01*
X155475524Y-105415281D01*
X155344476Y-105415281D01*
X155215945Y-105389715D01*
X155094871Y-105339564D01*
X154985908Y-105266757D01*
X154893243Y-105174092D01*
X154820436Y-105065129D01*
X154770285Y-104944055D01*
X154744719Y-104815524D01*
X154744719Y-104684476D01*
X154770285Y-104555945D01*
X154820436Y-104434871D01*
X154893243Y-104325908D01*
X154985908Y-104233243D01*
X155094871Y-104160436D01*
X155215945Y-104110285D01*
X155344476Y-104084719D01*
X155475524Y-104084719D01*
X155604055Y-104110285D01*
G37*
G36*
X158144055Y-104110285D02*
G01*
X158265129Y-104160436D01*
X158374092Y-104233243D01*
X158466757Y-104325908D01*
X158539564Y-104434871D01*
X158589715Y-104555945D01*
X158615281Y-104684476D01*
X158615281Y-104815524D01*
X158589715Y-104944055D01*
X158539564Y-105065129D01*
X158466757Y-105174092D01*
X158374092Y-105266757D01*
X158265129Y-105339564D01*
X158144055Y-105389715D01*
X158015524Y-105415281D01*
X157884476Y-105415281D01*
X157755945Y-105389715D01*
X157634871Y-105339564D01*
X157525908Y-105266757D01*
X157433243Y-105174092D01*
X157360436Y-105065129D01*
X157310285Y-104944055D01*
X157284719Y-104815524D01*
X157284719Y-104684476D01*
X157310285Y-104555945D01*
X157360436Y-104434871D01*
X157433243Y-104325908D01*
X157525908Y-104233243D01*
X157634871Y-104160436D01*
X157755945Y-104110285D01*
X157884476Y-104084719D01*
X158015524Y-104084719D01*
X158144055Y-104110285D01*
G37*
G36*
X119472068Y-102567941D02*
G01*
X119610619Y-102625330D01*
X119735311Y-102708647D01*
X119841353Y-102814689D01*
X119924670Y-102939381D01*
X119982059Y-103077932D01*
X120011316Y-103225017D01*
X120011316Y-103374983D01*
X119982059Y-103522068D01*
X119924670Y-103660619D01*
X119841353Y-103785311D01*
X119735311Y-103891353D01*
X119610619Y-103974670D01*
X119472068Y-104032059D01*
X119324983Y-104061316D01*
X119175017Y-104061316D01*
X119027932Y-104032059D01*
X118889381Y-103974670D01*
X118764689Y-103891353D01*
X118658647Y-103785311D01*
X118575330Y-103660619D01*
X118517941Y-103522068D01*
X118488684Y-103374983D01*
X118488684Y-103225017D01*
X118517941Y-103077932D01*
X118575330Y-102939381D01*
X118658647Y-102814689D01*
X118764689Y-102708647D01*
X118889381Y-102625330D01*
X119027932Y-102567941D01*
X119175017Y-102538684D01*
X119324983Y-102538684D01*
X119472068Y-102567941D01*
G37*
G36*
X122012068Y-102567941D02*
G01*
X122150619Y-102625330D01*
X122275311Y-102708647D01*
X122381353Y-102814689D01*
X122464670Y-102939381D01*
X122522059Y-103077932D01*
X122551316Y-103225017D01*
X122551316Y-103374983D01*
X122522059Y-103522068D01*
X122464670Y-103660619D01*
X122381353Y-103785311D01*
X122275311Y-103891353D01*
X122150619Y-103974670D01*
X122012068Y-104032059D01*
X121864983Y-104061316D01*
X121715017Y-104061316D01*
X121567932Y-104032059D01*
X121429381Y-103974670D01*
X121304689Y-103891353D01*
X121198647Y-103785311D01*
X121115330Y-103660619D01*
X121057941Y-103522068D01*
X121028684Y-103374983D01*
X121028684Y-103225017D01*
X121057941Y-103077932D01*
X121115330Y-102939381D01*
X121198647Y-102814689D01*
X121304689Y-102708647D01*
X121429381Y-102625330D01*
X121567932Y-102567941D01*
X121715017Y-102538684D01*
X121864983Y-102538684D01*
X122012068Y-102567941D01*
G37*
G36*
X180472068Y-102567941D02*
G01*
X180610619Y-102625330D01*
X180735311Y-102708647D01*
X180841353Y-102814689D01*
X180924670Y-102939381D01*
X180982059Y-103077932D01*
X181011316Y-103225017D01*
X181011316Y-103374983D01*
X180982059Y-103522068D01*
X180924670Y-103660619D01*
X180841353Y-103785311D01*
X180735311Y-103891353D01*
X180610619Y-103974670D01*
X180472068Y-104032059D01*
X180324983Y-104061316D01*
X180175017Y-104061316D01*
X180027932Y-104032059D01*
X179889381Y-103974670D01*
X179764689Y-103891353D01*
X179658647Y-103785311D01*
X179575330Y-103660619D01*
X179517941Y-103522068D01*
X179488684Y-103374983D01*
X179488684Y-103225017D01*
X179517941Y-103077932D01*
X179575330Y-102939381D01*
X179658647Y-102814689D01*
X179764689Y-102708647D01*
X179889381Y-102625330D01*
X180027932Y-102567941D01*
X180175017Y-102538684D01*
X180324983Y-102538684D01*
X180472068Y-102567941D01*
G37*
G36*
X183012068Y-102567941D02*
G01*
X183150619Y-102625330D01*
X183275311Y-102708647D01*
X183381353Y-102814689D01*
X183464670Y-102939381D01*
X183522059Y-103077932D01*
X183551316Y-103225017D01*
X183551316Y-103374983D01*
X183522059Y-103522068D01*
X183464670Y-103660619D01*
X183381353Y-103785311D01*
X183275311Y-103891353D01*
X183150619Y-103974670D01*
X183012068Y-104032059D01*
X182864983Y-104061316D01*
X182715017Y-104061316D01*
X182567932Y-104032059D01*
X182429381Y-103974670D01*
X182304689Y-103891353D01*
X182198647Y-103785311D01*
X182115330Y-103660619D01*
X182057941Y-103522068D01*
X182028684Y-103374983D01*
X182028684Y-103225017D01*
X182057941Y-103077932D01*
X182115330Y-102939381D01*
X182198647Y-102814689D01*
X182304689Y-102708647D01*
X182429381Y-102625330D01*
X182567932Y-102567941D01*
X182715017Y-102538684D01*
X182864983Y-102538684D01*
X183012068Y-102567941D01*
G37*
G36*
X119472068Y-100027941D02*
G01*
X119610619Y-100085330D01*
X119735311Y-100168647D01*
X119841353Y-100274689D01*
X119924670Y-100399381D01*
X119982059Y-100537932D01*
X120011316Y-100685017D01*
X120011316Y-100834983D01*
X119982059Y-100982068D01*
X119924670Y-101120619D01*
X119841353Y-101245311D01*
X119735311Y-101351353D01*
X119610619Y-101434670D01*
X119472068Y-101492059D01*
X119324983Y-101521316D01*
X119175017Y-101521316D01*
X119027932Y-101492059D01*
X118889381Y-101434670D01*
X118764689Y-101351353D01*
X118658647Y-101245311D01*
X118575330Y-101120619D01*
X118517941Y-100982068D01*
X118488684Y-100834983D01*
X118488684Y-100685017D01*
X118517941Y-100537932D01*
X118575330Y-100399381D01*
X118658647Y-100274689D01*
X118764689Y-100168647D01*
X118889381Y-100085330D01*
X119027932Y-100027941D01*
X119175017Y-99998684D01*
X119324983Y-99998684D01*
X119472068Y-100027941D01*
G37*
G36*
X122012068Y-100027941D02*
G01*
X122150619Y-100085330D01*
X122275311Y-100168647D01*
X122381353Y-100274689D01*
X122464670Y-100399381D01*
X122522059Y-100537932D01*
X122551316Y-100685017D01*
X122551316Y-100834983D01*
X122522059Y-100982068D01*
X122464670Y-101120619D01*
X122381353Y-101245311D01*
X122275311Y-101351353D01*
X122150619Y-101434670D01*
X122012068Y-101492059D01*
X121864983Y-101521316D01*
X121715017Y-101521316D01*
X121567932Y-101492059D01*
X121429381Y-101434670D01*
X121304689Y-101351353D01*
X121198647Y-101245311D01*
X121115330Y-101120619D01*
X121057941Y-100982068D01*
X121028684Y-100834983D01*
X121028684Y-100685017D01*
X121057941Y-100537932D01*
X121115330Y-100399381D01*
X121198647Y-100274689D01*
X121304689Y-100168647D01*
X121429381Y-100085330D01*
X121567932Y-100027941D01*
X121715017Y-99998684D01*
X121864983Y-99998684D01*
X122012068Y-100027941D01*
G37*
G36*
X180472068Y-100027941D02*
G01*
X180610619Y-100085330D01*
X180735311Y-100168647D01*
X180841353Y-100274689D01*
X180924670Y-100399381D01*
X180982059Y-100537932D01*
X181011316Y-100685017D01*
X181011316Y-100834983D01*
X180982059Y-100982068D01*
X180924670Y-101120619D01*
X180841353Y-101245311D01*
X180735311Y-101351353D01*
X180610619Y-101434670D01*
X180472068Y-101492059D01*
X180324983Y-101521316D01*
X180175017Y-101521316D01*
X180027932Y-101492059D01*
X179889381Y-101434670D01*
X179764689Y-101351353D01*
X179658647Y-101245311D01*
X179575330Y-101120619D01*
X179517941Y-100982068D01*
X179488684Y-100834983D01*
X179488684Y-100685017D01*
X179517941Y-100537932D01*
X179575330Y-100399381D01*
X179658647Y-100274689D01*
X179764689Y-100168647D01*
X179889381Y-100085330D01*
X180027932Y-100027941D01*
X180175017Y-99998684D01*
X180324983Y-99998684D01*
X180472068Y-100027941D01*
G37*
G36*
X183012068Y-100027941D02*
G01*
X183150619Y-100085330D01*
X183275311Y-100168647D01*
X183381353Y-100274689D01*
X183464670Y-100399381D01*
X183522059Y-100537932D01*
X183551316Y-100685017D01*
X183551316Y-100834983D01*
X183522059Y-100982068D01*
X183464670Y-101120619D01*
X183381353Y-101245311D01*
X183275311Y-101351353D01*
X183150619Y-101434670D01*
X183012068Y-101492059D01*
X182864983Y-101521316D01*
X182715017Y-101521316D01*
X182567932Y-101492059D01*
X182429381Y-101434670D01*
X182304689Y-101351353D01*
X182198647Y-101245311D01*
X182115330Y-101120619D01*
X182057941Y-100982068D01*
X182028684Y-100834983D01*
X182028684Y-100685017D01*
X182057941Y-100537932D01*
X182115330Y-100399381D01*
X182198647Y-100274689D01*
X182304689Y-100168647D01*
X182429381Y-100085330D01*
X182567932Y-100027941D01*
X182715017Y-99998684D01*
X182864983Y-99998684D01*
X183012068Y-100027941D01*
G37*
G36*
X119472068Y-97487941D02*
G01*
X119610619Y-97545330D01*
X119735311Y-97628647D01*
X119841353Y-97734689D01*
X119924670Y-97859381D01*
X119982059Y-97997932D01*
X120011316Y-98145017D01*
X120011316Y-98294983D01*
X119982059Y-98442068D01*
X119924670Y-98580619D01*
X119841353Y-98705311D01*
X119735311Y-98811353D01*
X119610619Y-98894670D01*
X119472068Y-98952059D01*
X119324983Y-98981316D01*
X119175017Y-98981316D01*
X119027932Y-98952059D01*
X118889381Y-98894670D01*
X118764689Y-98811353D01*
X118658647Y-98705311D01*
X118575330Y-98580619D01*
X118517941Y-98442068D01*
X118488684Y-98294983D01*
X118488684Y-98145017D01*
X118517941Y-97997932D01*
X118575330Y-97859381D01*
X118658647Y-97734689D01*
X118764689Y-97628647D01*
X118889381Y-97545330D01*
X119027932Y-97487941D01*
X119175017Y-97458684D01*
X119324983Y-97458684D01*
X119472068Y-97487941D01*
G37*
G36*
X122012068Y-97487941D02*
G01*
X122150619Y-97545330D01*
X122275311Y-97628647D01*
X122381353Y-97734689D01*
X122464670Y-97859381D01*
X122522059Y-97997932D01*
X122551316Y-98145017D01*
X122551316Y-98294983D01*
X122522059Y-98442068D01*
X122464670Y-98580619D01*
X122381353Y-98705311D01*
X122275311Y-98811353D01*
X122150619Y-98894670D01*
X122012068Y-98952059D01*
X121864983Y-98981316D01*
X121715017Y-98981316D01*
X121567932Y-98952059D01*
X121429381Y-98894670D01*
X121304689Y-98811353D01*
X121198647Y-98705311D01*
X121115330Y-98580619D01*
X121057941Y-98442068D01*
X121028684Y-98294983D01*
X121028684Y-98145017D01*
X121057941Y-97997932D01*
X121115330Y-97859381D01*
X121198647Y-97734689D01*
X121304689Y-97628647D01*
X121429381Y-97545330D01*
X121567932Y-97487941D01*
X121715017Y-97458684D01*
X121864983Y-97458684D01*
X122012068Y-97487941D01*
G37*
G36*
X180472068Y-97487941D02*
G01*
X180610619Y-97545330D01*
X180735311Y-97628647D01*
X180841353Y-97734689D01*
X180924670Y-97859381D01*
X180982059Y-97997932D01*
X181011316Y-98145017D01*
X181011316Y-98294983D01*
X180982059Y-98442068D01*
X180924670Y-98580619D01*
X180841353Y-98705311D01*
X180735311Y-98811353D01*
X180610619Y-98894670D01*
X180472068Y-98952059D01*
X180324983Y-98981316D01*
X180175017Y-98981316D01*
X180027932Y-98952059D01*
X179889381Y-98894670D01*
X179764689Y-98811353D01*
X179658647Y-98705311D01*
X179575330Y-98580619D01*
X179517941Y-98442068D01*
X179488684Y-98294983D01*
X179488684Y-98145017D01*
X179517941Y-97997932D01*
X179575330Y-97859381D01*
X179658647Y-97734689D01*
X179764689Y-97628647D01*
X179889381Y-97545330D01*
X180027932Y-97487941D01*
X180175017Y-97458684D01*
X180324983Y-97458684D01*
X180472068Y-97487941D01*
G37*
G36*
X183012068Y-97487941D02*
G01*
X183150619Y-97545330D01*
X183275311Y-97628647D01*
X183381353Y-97734689D01*
X183464670Y-97859381D01*
X183522059Y-97997932D01*
X183551316Y-98145017D01*
X183551316Y-98294983D01*
X183522059Y-98442068D01*
X183464670Y-98580619D01*
X183381353Y-98705311D01*
X183275311Y-98811353D01*
X183150619Y-98894670D01*
X183012068Y-98952059D01*
X182864983Y-98981316D01*
X182715017Y-98981316D01*
X182567932Y-98952059D01*
X182429381Y-98894670D01*
X182304689Y-98811353D01*
X182198647Y-98705311D01*
X182115330Y-98580619D01*
X182057941Y-98442068D01*
X182028684Y-98294983D01*
X182028684Y-98145017D01*
X182057941Y-97997932D01*
X182115330Y-97859381D01*
X182198647Y-97734689D01*
X182304689Y-97628647D01*
X182429381Y-97545330D01*
X182567932Y-97487941D01*
X182715017Y-97458684D01*
X182864983Y-97458684D01*
X183012068Y-97487941D01*
G37*
G36*
X119472068Y-94947941D02*
G01*
X119610619Y-95005330D01*
X119735311Y-95088647D01*
X119841353Y-95194689D01*
X119924670Y-95319381D01*
X119982059Y-95457932D01*
X120011316Y-95605017D01*
X120011316Y-95754983D01*
X119982059Y-95902068D01*
X119924670Y-96040619D01*
X119841353Y-96165311D01*
X119735311Y-96271353D01*
X119610619Y-96354670D01*
X119472068Y-96412059D01*
X119324983Y-96441316D01*
X119175017Y-96441316D01*
X119027932Y-96412059D01*
X118889381Y-96354670D01*
X118764689Y-96271353D01*
X118658647Y-96165311D01*
X118575330Y-96040619D01*
X118517941Y-95902068D01*
X118488684Y-95754983D01*
X118488684Y-95605017D01*
X118517941Y-95457932D01*
X118575330Y-95319381D01*
X118658647Y-95194689D01*
X118764689Y-95088647D01*
X118889381Y-95005330D01*
X119027932Y-94947941D01*
X119175017Y-94918684D01*
X119324983Y-94918684D01*
X119472068Y-94947941D01*
G37*
G36*
X122012068Y-94947941D02*
G01*
X122150619Y-95005330D01*
X122275311Y-95088647D01*
X122381353Y-95194689D01*
X122464670Y-95319381D01*
X122522059Y-95457932D01*
X122551316Y-95605017D01*
X122551316Y-95754983D01*
X122522059Y-95902068D01*
X122464670Y-96040619D01*
X122381353Y-96165311D01*
X122275311Y-96271353D01*
X122150619Y-96354670D01*
X122012068Y-96412059D01*
X121864983Y-96441316D01*
X121715017Y-96441316D01*
X121567932Y-96412059D01*
X121429381Y-96354670D01*
X121304689Y-96271353D01*
X121198647Y-96165311D01*
X121115330Y-96040619D01*
X121057941Y-95902068D01*
X121028684Y-95754983D01*
X121028684Y-95605017D01*
X121057941Y-95457932D01*
X121115330Y-95319381D01*
X121198647Y-95194689D01*
X121304689Y-95088647D01*
X121429381Y-95005330D01*
X121567932Y-94947941D01*
X121715017Y-94918684D01*
X121864983Y-94918684D01*
X122012068Y-94947941D01*
G37*
G36*
X180472068Y-94947941D02*
G01*
X180610619Y-95005330D01*
X180735311Y-95088647D01*
X180841353Y-95194689D01*
X180924670Y-95319381D01*
X180982059Y-95457932D01*
X181011316Y-95605017D01*
X181011316Y-95754983D01*
X180982059Y-95902068D01*
X180924670Y-96040619D01*
X180841353Y-96165311D01*
X180735311Y-96271353D01*
X180610619Y-96354670D01*
X180472068Y-96412059D01*
X180324983Y-96441316D01*
X180175017Y-96441316D01*
X180027932Y-96412059D01*
X179889381Y-96354670D01*
X179764689Y-96271353D01*
X179658647Y-96165311D01*
X179575330Y-96040619D01*
X179517941Y-95902068D01*
X179488684Y-95754983D01*
X179488684Y-95605017D01*
X179517941Y-95457932D01*
X179575330Y-95319381D01*
X179658647Y-95194689D01*
X179764689Y-95088647D01*
X179889381Y-95005330D01*
X180027932Y-94947941D01*
X180175017Y-94918684D01*
X180324983Y-94918684D01*
X180472068Y-94947941D01*
G37*
G36*
X183012068Y-94947941D02*
G01*
X183150619Y-95005330D01*
X183275311Y-95088647D01*
X183381353Y-95194689D01*
X183464670Y-95319381D01*
X183522059Y-95457932D01*
X183551316Y-95605017D01*
X183551316Y-95754983D01*
X183522059Y-95902068D01*
X183464670Y-96040619D01*
X183381353Y-96165311D01*
X183275311Y-96271353D01*
X183150619Y-96354670D01*
X183012068Y-96412059D01*
X182864983Y-96441316D01*
X182715017Y-96441316D01*
X182567932Y-96412059D01*
X182429381Y-96354670D01*
X182304689Y-96271353D01*
X182198647Y-96165311D01*
X182115330Y-96040619D01*
X182057941Y-95902068D01*
X182028684Y-95754983D01*
X182028684Y-95605017D01*
X182057941Y-95457932D01*
X182115330Y-95319381D01*
X182198647Y-95194689D01*
X182304689Y-95088647D01*
X182429381Y-95005330D01*
X182567932Y-94947941D01*
X182715017Y-94918684D01*
X182864983Y-94918684D01*
X183012068Y-94947941D01*
G37*
G36*
X119472068Y-92407941D02*
G01*
X119610619Y-92465330D01*
X119735311Y-92548647D01*
X119841353Y-92654689D01*
X119924670Y-92779381D01*
X119982059Y-92917932D01*
X120011316Y-93065017D01*
X120011316Y-93214983D01*
X119982059Y-93362068D01*
X119924670Y-93500619D01*
X119841353Y-93625311D01*
X119735311Y-93731353D01*
X119610619Y-93814670D01*
X119472068Y-93872059D01*
X119324983Y-93901316D01*
X119175017Y-93901316D01*
X119027932Y-93872059D01*
X118889381Y-93814670D01*
X118764689Y-93731353D01*
X118658647Y-93625311D01*
X118575330Y-93500619D01*
X118517941Y-93362068D01*
X118488684Y-93214983D01*
X118488684Y-93065017D01*
X118517941Y-92917932D01*
X118575330Y-92779381D01*
X118658647Y-92654689D01*
X118764689Y-92548647D01*
X118889381Y-92465330D01*
X119027932Y-92407941D01*
X119175017Y-92378684D01*
X119324983Y-92378684D01*
X119472068Y-92407941D01*
G37*
G36*
X122012068Y-92407941D02*
G01*
X122150619Y-92465330D01*
X122275311Y-92548647D01*
X122381353Y-92654689D01*
X122464670Y-92779381D01*
X122522059Y-92917932D01*
X122551316Y-93065017D01*
X122551316Y-93214983D01*
X122522059Y-93362068D01*
X122464670Y-93500619D01*
X122381353Y-93625311D01*
X122275311Y-93731353D01*
X122150619Y-93814670D01*
X122012068Y-93872059D01*
X121864983Y-93901316D01*
X121715017Y-93901316D01*
X121567932Y-93872059D01*
X121429381Y-93814670D01*
X121304689Y-93731353D01*
X121198647Y-93625311D01*
X121115330Y-93500619D01*
X121057941Y-93362068D01*
X121028684Y-93214983D01*
X121028684Y-93065017D01*
X121057941Y-92917932D01*
X121115330Y-92779381D01*
X121198647Y-92654689D01*
X121304689Y-92548647D01*
X121429381Y-92465330D01*
X121567932Y-92407941D01*
X121715017Y-92378684D01*
X121864983Y-92378684D01*
X122012068Y-92407941D01*
G37*
G36*
X180472068Y-92407941D02*
G01*
X180610619Y-92465330D01*
X180735311Y-92548647D01*
X180841353Y-92654689D01*
X180924670Y-92779381D01*
X180982059Y-92917932D01*
X181011316Y-93065017D01*
X181011316Y-93214983D01*
X180982059Y-93362068D01*
X180924670Y-93500619D01*
X180841353Y-93625311D01*
X180735311Y-93731353D01*
X180610619Y-93814670D01*
X180472068Y-93872059D01*
X180324983Y-93901316D01*
X180175017Y-93901316D01*
X180027932Y-93872059D01*
X179889381Y-93814670D01*
X179764689Y-93731353D01*
X179658647Y-93625311D01*
X179575330Y-93500619D01*
X179517941Y-93362068D01*
X179488684Y-93214983D01*
X179488684Y-93065017D01*
X179517941Y-92917932D01*
X179575330Y-92779381D01*
X179658647Y-92654689D01*
X179764689Y-92548647D01*
X179889381Y-92465330D01*
X180027932Y-92407941D01*
X180175017Y-92378684D01*
X180324983Y-92378684D01*
X180472068Y-92407941D01*
G37*
G36*
X183012068Y-92407941D02*
G01*
X183150619Y-92465330D01*
X183275311Y-92548647D01*
X183381353Y-92654689D01*
X183464670Y-92779381D01*
X183522059Y-92917932D01*
X183551316Y-93065017D01*
X183551316Y-93214983D01*
X183522059Y-93362068D01*
X183464670Y-93500619D01*
X183381353Y-93625311D01*
X183275311Y-93731353D01*
X183150619Y-93814670D01*
X183012068Y-93872059D01*
X182864983Y-93901316D01*
X182715017Y-93901316D01*
X182567932Y-93872059D01*
X182429381Y-93814670D01*
X182304689Y-93731353D01*
X182198647Y-93625311D01*
X182115330Y-93500619D01*
X182057941Y-93362068D01*
X182028684Y-93214983D01*
X182028684Y-93065017D01*
X182057941Y-92917932D01*
X182115330Y-92779381D01*
X182198647Y-92654689D01*
X182304689Y-92548647D01*
X182429381Y-92465330D01*
X182567932Y-92407941D01*
X182715017Y-92378684D01*
X182864983Y-92378684D01*
X183012068Y-92407941D01*
G37*
G36*
X119472068Y-89867941D02*
G01*
X119610619Y-89925330D01*
X119735311Y-90008647D01*
X119841353Y-90114689D01*
X119924670Y-90239381D01*
X119982059Y-90377932D01*
X120011316Y-90525017D01*
X120011316Y-90674983D01*
X119982059Y-90822068D01*
X119924670Y-90960619D01*
X119841353Y-91085311D01*
X119735311Y-91191353D01*
X119610619Y-91274670D01*
X119472068Y-91332059D01*
X119324983Y-91361316D01*
X119175017Y-91361316D01*
X119027932Y-91332059D01*
X118889381Y-91274670D01*
X118764689Y-91191353D01*
X118658647Y-91085311D01*
X118575330Y-90960619D01*
X118517941Y-90822068D01*
X118488684Y-90674983D01*
X118488684Y-90525017D01*
X118517941Y-90377932D01*
X118575330Y-90239381D01*
X118658647Y-90114689D01*
X118764689Y-90008647D01*
X118889381Y-89925330D01*
X119027932Y-89867941D01*
X119175017Y-89838684D01*
X119324983Y-89838684D01*
X119472068Y-89867941D01*
G37*
G36*
X122012068Y-89867941D02*
G01*
X122150619Y-89925330D01*
X122275311Y-90008647D01*
X122381353Y-90114689D01*
X122464670Y-90239381D01*
X122522059Y-90377932D01*
X122551316Y-90525017D01*
X122551316Y-90674983D01*
X122522059Y-90822068D01*
X122464670Y-90960619D01*
X122381353Y-91085311D01*
X122275311Y-91191353D01*
X122150619Y-91274670D01*
X122012068Y-91332059D01*
X121864983Y-91361316D01*
X121715017Y-91361316D01*
X121567932Y-91332059D01*
X121429381Y-91274670D01*
X121304689Y-91191353D01*
X121198647Y-91085311D01*
X121115330Y-90960619D01*
X121057941Y-90822068D01*
X121028684Y-90674983D01*
X121028684Y-90525017D01*
X121057941Y-90377932D01*
X121115330Y-90239381D01*
X121198647Y-90114689D01*
X121304689Y-90008647D01*
X121429381Y-89925330D01*
X121567932Y-89867941D01*
X121715017Y-89838684D01*
X121864983Y-89838684D01*
X122012068Y-89867941D01*
G37*
G36*
X180472068Y-89867941D02*
G01*
X180610619Y-89925330D01*
X180735311Y-90008647D01*
X180841353Y-90114689D01*
X180924670Y-90239381D01*
X180982059Y-90377932D01*
X181011316Y-90525017D01*
X181011316Y-90674983D01*
X180982059Y-90822068D01*
X180924670Y-90960619D01*
X180841353Y-91085311D01*
X180735311Y-91191353D01*
X180610619Y-91274670D01*
X180472068Y-91332059D01*
X180324983Y-91361316D01*
X180175017Y-91361316D01*
X180027932Y-91332059D01*
X179889381Y-91274670D01*
X179764689Y-91191353D01*
X179658647Y-91085311D01*
X179575330Y-90960619D01*
X179517941Y-90822068D01*
X179488684Y-90674983D01*
X179488684Y-90525017D01*
X179517941Y-90377932D01*
X179575330Y-90239381D01*
X179658647Y-90114689D01*
X179764689Y-90008647D01*
X179889381Y-89925330D01*
X180027932Y-89867941D01*
X180175017Y-89838684D01*
X180324983Y-89838684D01*
X180472068Y-89867941D01*
G37*
G36*
X183012068Y-89867941D02*
G01*
X183150619Y-89925330D01*
X183275311Y-90008647D01*
X183381353Y-90114689D01*
X183464670Y-90239381D01*
X183522059Y-90377932D01*
X183551316Y-90525017D01*
X183551316Y-90674983D01*
X183522059Y-90822068D01*
X183464670Y-90960619D01*
X183381353Y-91085311D01*
X183275311Y-91191353D01*
X183150619Y-91274670D01*
X183012068Y-91332059D01*
X182864983Y-91361316D01*
X182715017Y-91361316D01*
X182567932Y-91332059D01*
X182429381Y-91274670D01*
X182304689Y-91191353D01*
X182198647Y-91085311D01*
X182115330Y-90960619D01*
X182057941Y-90822068D01*
X182028684Y-90674983D01*
X182028684Y-90525017D01*
X182057941Y-90377932D01*
X182115330Y-90239381D01*
X182198647Y-90114689D01*
X182304689Y-90008647D01*
X182429381Y-89925330D01*
X182567932Y-89867941D01*
X182715017Y-89838684D01*
X182864983Y-89838684D01*
X183012068Y-89867941D01*
G37*
G36*
X119472068Y-87327941D02*
G01*
X119610619Y-87385330D01*
X119735311Y-87468647D01*
X119841353Y-87574689D01*
X119924670Y-87699381D01*
X119982059Y-87837932D01*
X120011316Y-87985017D01*
X120011316Y-88134983D01*
X119982059Y-88282068D01*
X119924670Y-88420619D01*
X119841353Y-88545311D01*
X119735311Y-88651353D01*
X119610619Y-88734670D01*
X119472068Y-88792059D01*
X119324983Y-88821316D01*
X119175017Y-88821316D01*
X119027932Y-88792059D01*
X118889381Y-88734670D01*
X118764689Y-88651353D01*
X118658647Y-88545311D01*
X118575330Y-88420619D01*
X118517941Y-88282068D01*
X118488684Y-88134983D01*
X118488684Y-87985017D01*
X118517941Y-87837932D01*
X118575330Y-87699381D01*
X118658647Y-87574689D01*
X118764689Y-87468647D01*
X118889381Y-87385330D01*
X119027932Y-87327941D01*
X119175017Y-87298684D01*
X119324983Y-87298684D01*
X119472068Y-87327941D01*
G37*
G36*
X122012068Y-87327941D02*
G01*
X122150619Y-87385330D01*
X122275311Y-87468647D01*
X122381353Y-87574689D01*
X122464670Y-87699381D01*
X122522059Y-87837932D01*
X122551316Y-87985017D01*
X122551316Y-88134983D01*
X122522059Y-88282068D01*
X122464670Y-88420619D01*
X122381353Y-88545311D01*
X122275311Y-88651353D01*
X122150619Y-88734670D01*
X122012068Y-88792059D01*
X121864983Y-88821316D01*
X121715017Y-88821316D01*
X121567932Y-88792059D01*
X121429381Y-88734670D01*
X121304689Y-88651353D01*
X121198647Y-88545311D01*
X121115330Y-88420619D01*
X121057941Y-88282068D01*
X121028684Y-88134983D01*
X121028684Y-87985017D01*
X121057941Y-87837932D01*
X121115330Y-87699381D01*
X121198647Y-87574689D01*
X121304689Y-87468647D01*
X121429381Y-87385330D01*
X121567932Y-87327941D01*
X121715017Y-87298684D01*
X121864983Y-87298684D01*
X122012068Y-87327941D01*
G37*
G36*
X180472068Y-87327941D02*
G01*
X180610619Y-87385330D01*
X180735311Y-87468647D01*
X180841353Y-87574689D01*
X180924670Y-87699381D01*
X180982059Y-87837932D01*
X181011316Y-87985017D01*
X181011316Y-88134983D01*
X180982059Y-88282068D01*
X180924670Y-88420619D01*
X180841353Y-88545311D01*
X180735311Y-88651353D01*
X180610619Y-88734670D01*
X180472068Y-88792059D01*
X180324983Y-88821316D01*
X180175017Y-88821316D01*
X180027932Y-88792059D01*
X179889381Y-88734670D01*
X179764689Y-88651353D01*
X179658647Y-88545311D01*
X179575330Y-88420619D01*
X179517941Y-88282068D01*
X179488684Y-88134983D01*
X179488684Y-87985017D01*
X179517941Y-87837932D01*
X179575330Y-87699381D01*
X179658647Y-87574689D01*
X179764689Y-87468647D01*
X179889381Y-87385330D01*
X180027932Y-87327941D01*
X180175017Y-87298684D01*
X180324983Y-87298684D01*
X180472068Y-87327941D01*
G37*
G36*
X183012068Y-87327941D02*
G01*
X183150619Y-87385330D01*
X183275311Y-87468647D01*
X183381353Y-87574689D01*
X183464670Y-87699381D01*
X183522059Y-87837932D01*
X183551316Y-87985017D01*
X183551316Y-88134983D01*
X183522059Y-88282068D01*
X183464670Y-88420619D01*
X183381353Y-88545311D01*
X183275311Y-88651353D01*
X183150619Y-88734670D01*
X183012068Y-88792059D01*
X182864983Y-88821316D01*
X182715017Y-88821316D01*
X182567932Y-88792059D01*
X182429381Y-88734670D01*
X182304689Y-88651353D01*
X182198647Y-88545311D01*
X182115330Y-88420619D01*
X182057941Y-88282068D01*
X182028684Y-88134983D01*
X182028684Y-87985017D01*
X182057941Y-87837932D01*
X182115330Y-87699381D01*
X182198647Y-87574689D01*
X182304689Y-87468647D01*
X182429381Y-87385330D01*
X182567932Y-87327941D01*
X182715017Y-87298684D01*
X182864983Y-87298684D01*
X183012068Y-87327941D01*
G37*
G36*
X119472068Y-84787941D02*
G01*
X119610619Y-84845330D01*
X119735311Y-84928647D01*
X119841353Y-85034689D01*
X119924670Y-85159381D01*
X119982059Y-85297932D01*
X120011316Y-85445017D01*
X120011316Y-85594983D01*
X119982059Y-85742068D01*
X119924670Y-85880619D01*
X119841353Y-86005311D01*
X119735311Y-86111353D01*
X119610619Y-86194670D01*
X119472068Y-86252059D01*
X119324983Y-86281316D01*
X119175017Y-86281316D01*
X119027932Y-86252059D01*
X118889381Y-86194670D01*
X118764689Y-86111353D01*
X118658647Y-86005311D01*
X118575330Y-85880619D01*
X118517941Y-85742068D01*
X118488684Y-85594983D01*
X118488684Y-85445017D01*
X118517941Y-85297932D01*
X118575330Y-85159381D01*
X118658647Y-85034689D01*
X118764689Y-84928647D01*
X118889381Y-84845330D01*
X119027932Y-84787941D01*
X119175017Y-84758684D01*
X119324983Y-84758684D01*
X119472068Y-84787941D01*
G37*
G36*
X122012068Y-84787941D02*
G01*
X122150619Y-84845330D01*
X122275311Y-84928647D01*
X122381353Y-85034689D01*
X122464670Y-85159381D01*
X122522059Y-85297932D01*
X122551316Y-85445017D01*
X122551316Y-85594983D01*
X122522059Y-85742068D01*
X122464670Y-85880619D01*
X122381353Y-86005311D01*
X122275311Y-86111353D01*
X122150619Y-86194670D01*
X122012068Y-86252059D01*
X121864983Y-86281316D01*
X121715017Y-86281316D01*
X121567932Y-86252059D01*
X121429381Y-86194670D01*
X121304689Y-86111353D01*
X121198647Y-86005311D01*
X121115330Y-85880619D01*
X121057941Y-85742068D01*
X121028684Y-85594983D01*
X121028684Y-85445017D01*
X121057941Y-85297932D01*
X121115330Y-85159381D01*
X121198647Y-85034689D01*
X121304689Y-84928647D01*
X121429381Y-84845330D01*
X121567932Y-84787941D01*
X121715017Y-84758684D01*
X121864983Y-84758684D01*
X122012068Y-84787941D01*
G37*
G36*
X180472068Y-84787941D02*
G01*
X180610619Y-84845330D01*
X180735311Y-84928647D01*
X180841353Y-85034689D01*
X180924670Y-85159381D01*
X180982059Y-85297932D01*
X181011316Y-85445017D01*
X181011316Y-85594983D01*
X180982059Y-85742068D01*
X180924670Y-85880619D01*
X180841353Y-86005311D01*
X180735311Y-86111353D01*
X180610619Y-86194670D01*
X180472068Y-86252059D01*
X180324983Y-86281316D01*
X180175017Y-86281316D01*
X180027932Y-86252059D01*
X179889381Y-86194670D01*
X179764689Y-86111353D01*
X179658647Y-86005311D01*
X179575330Y-85880619D01*
X179517941Y-85742068D01*
X179488684Y-85594983D01*
X179488684Y-85445017D01*
X179517941Y-85297932D01*
X179575330Y-85159381D01*
X179658647Y-85034689D01*
X179764689Y-84928647D01*
X179889381Y-84845330D01*
X180027932Y-84787941D01*
X180175017Y-84758684D01*
X180324983Y-84758684D01*
X180472068Y-84787941D01*
G37*
G36*
X183012068Y-84787941D02*
G01*
X183150619Y-84845330D01*
X183275311Y-84928647D01*
X183381353Y-85034689D01*
X183464670Y-85159381D01*
X183522059Y-85297932D01*
X183551316Y-85445017D01*
X183551316Y-85594983D01*
X183522059Y-85742068D01*
X183464670Y-85880619D01*
X183381353Y-86005311D01*
X183275311Y-86111353D01*
X183150619Y-86194670D01*
X183012068Y-86252059D01*
X182864983Y-86281316D01*
X182715017Y-86281316D01*
X182567932Y-86252059D01*
X182429381Y-86194670D01*
X182304689Y-86111353D01*
X182198647Y-86005311D01*
X182115330Y-85880619D01*
X182057941Y-85742068D01*
X182028684Y-85594983D01*
X182028684Y-85445017D01*
X182057941Y-85297932D01*
X182115330Y-85159381D01*
X182198647Y-85034689D01*
X182304689Y-84928647D01*
X182429381Y-84845330D01*
X182567932Y-84787941D01*
X182715017Y-84758684D01*
X182864983Y-84758684D01*
X183012068Y-84787941D01*
G37*
G36*
X119472068Y-82247941D02*
G01*
X119610619Y-82305330D01*
X119735311Y-82388647D01*
X119841353Y-82494689D01*
X119924670Y-82619381D01*
X119982059Y-82757932D01*
X120011316Y-82905017D01*
X120011316Y-83054983D01*
X119982059Y-83202068D01*
X119924670Y-83340619D01*
X119841353Y-83465311D01*
X119735311Y-83571353D01*
X119610619Y-83654670D01*
X119472068Y-83712059D01*
X119324983Y-83741316D01*
X119175017Y-83741316D01*
X119027932Y-83712059D01*
X118889381Y-83654670D01*
X118764689Y-83571353D01*
X118658647Y-83465311D01*
X118575330Y-83340619D01*
X118517941Y-83202068D01*
X118488684Y-83054983D01*
X118488684Y-82905017D01*
X118517941Y-82757932D01*
X118575330Y-82619381D01*
X118658647Y-82494689D01*
X118764689Y-82388647D01*
X118889381Y-82305330D01*
X119027932Y-82247941D01*
X119175017Y-82218684D01*
X119324983Y-82218684D01*
X119472068Y-82247941D01*
G37*
G36*
X122012068Y-82247941D02*
G01*
X122150619Y-82305330D01*
X122275311Y-82388647D01*
X122381353Y-82494689D01*
X122464670Y-82619381D01*
X122522059Y-82757932D01*
X122551316Y-82905017D01*
X122551316Y-83054983D01*
X122522059Y-83202068D01*
X122464670Y-83340619D01*
X122381353Y-83465311D01*
X122275311Y-83571353D01*
X122150619Y-83654670D01*
X122012068Y-83712059D01*
X121864983Y-83741316D01*
X121715017Y-83741316D01*
X121567932Y-83712059D01*
X121429381Y-83654670D01*
X121304689Y-83571353D01*
X121198647Y-83465311D01*
X121115330Y-83340619D01*
X121057941Y-83202068D01*
X121028684Y-83054983D01*
X121028684Y-82905017D01*
X121057941Y-82757932D01*
X121115330Y-82619381D01*
X121198647Y-82494689D01*
X121304689Y-82388647D01*
X121429381Y-82305330D01*
X121567932Y-82247941D01*
X121715017Y-82218684D01*
X121864983Y-82218684D01*
X122012068Y-82247941D01*
G37*
G36*
X180472068Y-82247941D02*
G01*
X180610619Y-82305330D01*
X180735311Y-82388647D01*
X180841353Y-82494689D01*
X180924670Y-82619381D01*
X180982059Y-82757932D01*
X181011316Y-82905017D01*
X181011316Y-83054983D01*
X180982059Y-83202068D01*
X180924670Y-83340619D01*
X180841353Y-83465311D01*
X180735311Y-83571353D01*
X180610619Y-83654670D01*
X180472068Y-83712059D01*
X180324983Y-83741316D01*
X180175017Y-83741316D01*
X180027932Y-83712059D01*
X179889381Y-83654670D01*
X179764689Y-83571353D01*
X179658647Y-83465311D01*
X179575330Y-83340619D01*
X179517941Y-83202068D01*
X179488684Y-83054983D01*
X179488684Y-82905017D01*
X179517941Y-82757932D01*
X179575330Y-82619381D01*
X179658647Y-82494689D01*
X179764689Y-82388647D01*
X179889381Y-82305330D01*
X180027932Y-82247941D01*
X180175017Y-82218684D01*
X180324983Y-82218684D01*
X180472068Y-82247941D01*
G37*
G36*
X183012068Y-82247941D02*
G01*
X183150619Y-82305330D01*
X183275311Y-82388647D01*
X183381353Y-82494689D01*
X183464670Y-82619381D01*
X183522059Y-82757932D01*
X183551316Y-82905017D01*
X183551316Y-83054983D01*
X183522059Y-83202068D01*
X183464670Y-83340619D01*
X183381353Y-83465311D01*
X183275311Y-83571353D01*
X183150619Y-83654670D01*
X183012068Y-83712059D01*
X182864983Y-83741316D01*
X182715017Y-83741316D01*
X182567932Y-83712059D01*
X182429381Y-83654670D01*
X182304689Y-83571353D01*
X182198647Y-83465311D01*
X182115330Y-83340619D01*
X182057941Y-83202068D01*
X182028684Y-83054983D01*
X182028684Y-82905017D01*
X182057941Y-82757932D01*
X182115330Y-82619381D01*
X182198647Y-82494689D01*
X182304689Y-82388647D01*
X182429381Y-82305330D01*
X182567932Y-82247941D01*
X182715017Y-82218684D01*
X182864983Y-82218684D01*
X183012068Y-82247941D01*
G37*
G36*
X119472068Y-79707941D02*
G01*
X119610619Y-79765330D01*
X119735311Y-79848647D01*
X119841353Y-79954689D01*
X119924670Y-80079381D01*
X119982059Y-80217932D01*
X120011316Y-80365017D01*
X120011316Y-80514983D01*
X119982059Y-80662068D01*
X119924670Y-80800619D01*
X119841353Y-80925311D01*
X119735311Y-81031353D01*
X119610619Y-81114670D01*
X119472068Y-81172059D01*
X119324983Y-81201316D01*
X119175017Y-81201316D01*
X119027932Y-81172059D01*
X118889381Y-81114670D01*
X118764689Y-81031353D01*
X118658647Y-80925311D01*
X118575330Y-80800619D01*
X118517941Y-80662068D01*
X118488684Y-80514983D01*
X118488684Y-80365017D01*
X118517941Y-80217932D01*
X118575330Y-80079381D01*
X118658647Y-79954689D01*
X118764689Y-79848647D01*
X118889381Y-79765330D01*
X119027932Y-79707941D01*
X119175017Y-79678684D01*
X119324983Y-79678684D01*
X119472068Y-79707941D01*
G37*
G36*
X122012068Y-79707941D02*
G01*
X122150619Y-79765330D01*
X122275311Y-79848647D01*
X122381353Y-79954689D01*
X122464670Y-80079381D01*
X122522059Y-80217932D01*
X122551316Y-80365017D01*
X122551316Y-80514983D01*
X122522059Y-80662068D01*
X122464670Y-80800619D01*
X122381353Y-80925311D01*
X122275311Y-81031353D01*
X122150619Y-81114670D01*
X122012068Y-81172059D01*
X121864983Y-81201316D01*
X121715017Y-81201316D01*
X121567932Y-81172059D01*
X121429381Y-81114670D01*
X121304689Y-81031353D01*
X121198647Y-80925311D01*
X121115330Y-80800619D01*
X121057941Y-80662068D01*
X121028684Y-80514983D01*
X121028684Y-80365017D01*
X121057941Y-80217932D01*
X121115330Y-80079381D01*
X121198647Y-79954689D01*
X121304689Y-79848647D01*
X121429381Y-79765330D01*
X121567932Y-79707941D01*
X121715017Y-79678684D01*
X121864983Y-79678684D01*
X122012068Y-79707941D01*
G37*
G36*
X180472068Y-79707941D02*
G01*
X180610619Y-79765330D01*
X180735311Y-79848647D01*
X180841353Y-79954689D01*
X180924670Y-80079381D01*
X180982059Y-80217932D01*
X181011316Y-80365017D01*
X181011316Y-80514983D01*
X180982059Y-80662068D01*
X180924670Y-80800619D01*
X180841353Y-80925311D01*
X180735311Y-81031353D01*
X180610619Y-81114670D01*
X180472068Y-81172059D01*
X180324983Y-81201316D01*
X180175017Y-81201316D01*
X180027932Y-81172059D01*
X179889381Y-81114670D01*
X179764689Y-81031353D01*
X179658647Y-80925311D01*
X179575330Y-80800619D01*
X179517941Y-80662068D01*
X179488684Y-80514983D01*
X179488684Y-80365017D01*
X179517941Y-80217932D01*
X179575330Y-80079381D01*
X179658647Y-79954689D01*
X179764689Y-79848647D01*
X179889381Y-79765330D01*
X180027932Y-79707941D01*
X180175017Y-79678684D01*
X180324983Y-79678684D01*
X180472068Y-79707941D01*
G37*
G36*
X183012068Y-79707941D02*
G01*
X183150619Y-79765330D01*
X183275311Y-79848647D01*
X183381353Y-79954689D01*
X183464670Y-80079381D01*
X183522059Y-80217932D01*
X183551316Y-80365017D01*
X183551316Y-80514983D01*
X183522059Y-80662068D01*
X183464670Y-80800619D01*
X183381353Y-80925311D01*
X183275311Y-81031353D01*
X183150619Y-81114670D01*
X183012068Y-81172059D01*
X182864983Y-81201316D01*
X182715017Y-81201316D01*
X182567932Y-81172059D01*
X182429381Y-81114670D01*
X182304689Y-81031353D01*
X182198647Y-80925311D01*
X182115330Y-80800619D01*
X182057941Y-80662068D01*
X182028684Y-80514983D01*
X182028684Y-80365017D01*
X182057941Y-80217932D01*
X182115330Y-80079381D01*
X182198647Y-79954689D01*
X182304689Y-79848647D01*
X182429381Y-79765330D01*
X182567932Y-79707941D01*
X182715017Y-79678684D01*
X182864983Y-79678684D01*
X183012068Y-79707941D01*
G37*
G36*
X119472068Y-77167941D02*
G01*
X119610619Y-77225330D01*
X119735311Y-77308647D01*
X119841353Y-77414689D01*
X119924670Y-77539381D01*
X119982059Y-77677932D01*
X120011316Y-77825017D01*
X120011316Y-77974983D01*
X119982059Y-78122068D01*
X119924670Y-78260619D01*
X119841353Y-78385311D01*
X119735311Y-78491353D01*
X119610619Y-78574670D01*
X119472068Y-78632059D01*
X119324983Y-78661316D01*
X119175017Y-78661316D01*
X119027932Y-78632059D01*
X118889381Y-78574670D01*
X118764689Y-78491353D01*
X118658647Y-78385311D01*
X118575330Y-78260619D01*
X118517941Y-78122068D01*
X118488684Y-77974983D01*
X118488684Y-77825017D01*
X118517941Y-77677932D01*
X118575330Y-77539381D01*
X118658647Y-77414689D01*
X118764689Y-77308647D01*
X118889381Y-77225330D01*
X119027932Y-77167941D01*
X119175017Y-77138684D01*
X119324983Y-77138684D01*
X119472068Y-77167941D01*
G37*
G36*
X122012068Y-77167941D02*
G01*
X122150619Y-77225330D01*
X122275311Y-77308647D01*
X122381353Y-77414689D01*
X122464670Y-77539381D01*
X122522059Y-77677932D01*
X122551316Y-77825017D01*
X122551316Y-77974983D01*
X122522059Y-78122068D01*
X122464670Y-78260619D01*
X122381353Y-78385311D01*
X122275311Y-78491353D01*
X122150619Y-78574670D01*
X122012068Y-78632059D01*
X121864983Y-78661316D01*
X121715017Y-78661316D01*
X121567932Y-78632059D01*
X121429381Y-78574670D01*
X121304689Y-78491353D01*
X121198647Y-78385311D01*
X121115330Y-78260619D01*
X121057941Y-78122068D01*
X121028684Y-77974983D01*
X121028684Y-77825017D01*
X121057941Y-77677932D01*
X121115330Y-77539381D01*
X121198647Y-77414689D01*
X121304689Y-77308647D01*
X121429381Y-77225330D01*
X121567932Y-77167941D01*
X121715017Y-77138684D01*
X121864983Y-77138684D01*
X122012068Y-77167941D01*
G37*
G36*
X180472068Y-77167941D02*
G01*
X180610619Y-77225330D01*
X180735311Y-77308647D01*
X180841353Y-77414689D01*
X180924670Y-77539381D01*
X180982059Y-77677932D01*
X181011316Y-77825017D01*
X181011316Y-77974983D01*
X180982059Y-78122068D01*
X180924670Y-78260619D01*
X180841353Y-78385311D01*
X180735311Y-78491353D01*
X180610619Y-78574670D01*
X180472068Y-78632059D01*
X180324983Y-78661316D01*
X180175017Y-78661316D01*
X180027932Y-78632059D01*
X179889381Y-78574670D01*
X179764689Y-78491353D01*
X179658647Y-78385311D01*
X179575330Y-78260619D01*
X179517941Y-78122068D01*
X179488684Y-77974983D01*
X179488684Y-77825017D01*
X179517941Y-77677932D01*
X179575330Y-77539381D01*
X179658647Y-77414689D01*
X179764689Y-77308647D01*
X179889381Y-77225330D01*
X180027932Y-77167941D01*
X180175017Y-77138684D01*
X180324983Y-77138684D01*
X180472068Y-77167941D01*
G37*
G36*
X183012068Y-77167941D02*
G01*
X183150619Y-77225330D01*
X183275311Y-77308647D01*
X183381353Y-77414689D01*
X183464670Y-77539381D01*
X183522059Y-77677932D01*
X183551316Y-77825017D01*
X183551316Y-77974983D01*
X183522059Y-78122068D01*
X183464670Y-78260619D01*
X183381353Y-78385311D01*
X183275311Y-78491353D01*
X183150619Y-78574670D01*
X183012068Y-78632059D01*
X182864983Y-78661316D01*
X182715017Y-78661316D01*
X182567932Y-78632059D01*
X182429381Y-78574670D01*
X182304689Y-78491353D01*
X182198647Y-78385311D01*
X182115330Y-78260619D01*
X182057941Y-78122068D01*
X182028684Y-77974983D01*
X182028684Y-77825017D01*
X182057941Y-77677932D01*
X182115330Y-77539381D01*
X182198647Y-77414689D01*
X182304689Y-77308647D01*
X182429381Y-77225330D01*
X182567932Y-77167941D01*
X182715017Y-77138684D01*
X182864983Y-77138684D01*
X183012068Y-77167941D01*
G37*
G36*
X119472068Y-74627941D02*
G01*
X119610619Y-74685330D01*
X119735311Y-74768647D01*
X119841353Y-74874689D01*
X119924670Y-74999381D01*
X119982059Y-75137932D01*
X120011316Y-75285017D01*
X120011316Y-75434983D01*
X119982059Y-75582068D01*
X119924670Y-75720619D01*
X119841353Y-75845311D01*
X119735311Y-75951353D01*
X119610619Y-76034670D01*
X119472068Y-76092059D01*
X119324983Y-76121316D01*
X119175017Y-76121316D01*
X119027932Y-76092059D01*
X118889381Y-76034670D01*
X118764689Y-75951353D01*
X118658647Y-75845311D01*
X118575330Y-75720619D01*
X118517941Y-75582068D01*
X118488684Y-75434983D01*
X118488684Y-75285017D01*
X118517941Y-75137932D01*
X118575330Y-74999381D01*
X118658647Y-74874689D01*
X118764689Y-74768647D01*
X118889381Y-74685330D01*
X119027932Y-74627941D01*
X119175017Y-74598684D01*
X119324983Y-74598684D01*
X119472068Y-74627941D01*
G37*
G36*
X122012068Y-74627941D02*
G01*
X122150619Y-74685330D01*
X122275311Y-74768647D01*
X122381353Y-74874689D01*
X122464670Y-74999381D01*
X122522059Y-75137932D01*
X122551316Y-75285017D01*
X122551316Y-75434983D01*
X122522059Y-75582068D01*
X122464670Y-75720619D01*
X122381353Y-75845311D01*
X122275311Y-75951353D01*
X122150619Y-76034670D01*
X122012068Y-76092059D01*
X121864983Y-76121316D01*
X121715017Y-76121316D01*
X121567932Y-76092059D01*
X121429381Y-76034670D01*
X121304689Y-75951353D01*
X121198647Y-75845311D01*
X121115330Y-75720619D01*
X121057941Y-75582068D01*
X121028684Y-75434983D01*
X121028684Y-75285017D01*
X121057941Y-75137932D01*
X121115330Y-74999381D01*
X121198647Y-74874689D01*
X121304689Y-74768647D01*
X121429381Y-74685330D01*
X121567932Y-74627941D01*
X121715017Y-74598684D01*
X121864983Y-74598684D01*
X122012068Y-74627941D01*
G37*
G36*
X180472068Y-74627941D02*
G01*
X180610619Y-74685330D01*
X180735311Y-74768647D01*
X180841353Y-74874689D01*
X180924670Y-74999381D01*
X180982059Y-75137932D01*
X181011316Y-75285017D01*
X181011316Y-75434983D01*
X180982059Y-75582068D01*
X180924670Y-75720619D01*
X180841353Y-75845311D01*
X180735311Y-75951353D01*
X180610619Y-76034670D01*
X180472068Y-76092059D01*
X180324983Y-76121316D01*
X180175017Y-76121316D01*
X180027932Y-76092059D01*
X179889381Y-76034670D01*
X179764689Y-75951353D01*
X179658647Y-75845311D01*
X179575330Y-75720619D01*
X179517941Y-75582068D01*
X179488684Y-75434983D01*
X179488684Y-75285017D01*
X179517941Y-75137932D01*
X179575330Y-74999381D01*
X179658647Y-74874689D01*
X179764689Y-74768647D01*
X179889381Y-74685330D01*
X180027932Y-74627941D01*
X180175017Y-74598684D01*
X180324983Y-74598684D01*
X180472068Y-74627941D01*
G37*
G36*
X183012068Y-74627941D02*
G01*
X183150619Y-74685330D01*
X183275311Y-74768647D01*
X183381353Y-74874689D01*
X183464670Y-74999381D01*
X183522059Y-75137932D01*
X183551316Y-75285017D01*
X183551316Y-75434983D01*
X183522059Y-75582068D01*
X183464670Y-75720619D01*
X183381353Y-75845311D01*
X183275311Y-75951353D01*
X183150619Y-76034670D01*
X183012068Y-76092059D01*
X182864983Y-76121316D01*
X182715017Y-76121316D01*
X182567932Y-76092059D01*
X182429381Y-76034670D01*
X182304689Y-75951353D01*
X182198647Y-75845311D01*
X182115330Y-75720619D01*
X182057941Y-75582068D01*
X182028684Y-75434983D01*
X182028684Y-75285017D01*
X182057941Y-75137932D01*
X182115330Y-74999381D01*
X182198647Y-74874689D01*
X182304689Y-74768647D01*
X182429381Y-74685330D01*
X182567932Y-74627941D01*
X182715017Y-74598684D01*
X182864983Y-74598684D01*
X183012068Y-74627941D01*
G37*
G36*
X119472068Y-72087941D02*
G01*
X119610619Y-72145330D01*
X119735311Y-72228647D01*
X119841353Y-72334689D01*
X119924670Y-72459381D01*
X119982059Y-72597932D01*
X120011316Y-72745017D01*
X120011316Y-72894983D01*
X119982059Y-73042068D01*
X119924670Y-73180619D01*
X119841353Y-73305311D01*
X119735311Y-73411353D01*
X119610619Y-73494670D01*
X119472068Y-73552059D01*
X119324983Y-73581316D01*
X119175017Y-73581316D01*
X119027932Y-73552059D01*
X118889381Y-73494670D01*
X118764689Y-73411353D01*
X118658647Y-73305311D01*
X118575330Y-73180619D01*
X118517941Y-73042068D01*
X118488684Y-72894983D01*
X118488684Y-72745017D01*
X118517941Y-72597932D01*
X118575330Y-72459381D01*
X118658647Y-72334689D01*
X118764689Y-72228647D01*
X118889381Y-72145330D01*
X119027932Y-72087941D01*
X119175017Y-72058684D01*
X119324983Y-72058684D01*
X119472068Y-72087941D01*
G37*
G36*
X122012068Y-72087941D02*
G01*
X122150619Y-72145330D01*
X122275311Y-72228647D01*
X122381353Y-72334689D01*
X122464670Y-72459381D01*
X122522059Y-72597932D01*
X122551316Y-72745017D01*
X122551316Y-72894983D01*
X122522059Y-73042068D01*
X122464670Y-73180619D01*
X122381353Y-73305311D01*
X122275311Y-73411353D01*
X122150619Y-73494670D01*
X122012068Y-73552059D01*
X121864983Y-73581316D01*
X121715017Y-73581316D01*
X121567932Y-73552059D01*
X121429381Y-73494670D01*
X121304689Y-73411353D01*
X121198647Y-73305311D01*
X121115330Y-73180619D01*
X121057941Y-73042068D01*
X121028684Y-72894983D01*
X121028684Y-72745017D01*
X121057941Y-72597932D01*
X121115330Y-72459381D01*
X121198647Y-72334689D01*
X121304689Y-72228647D01*
X121429381Y-72145330D01*
X121567932Y-72087941D01*
X121715017Y-72058684D01*
X121864983Y-72058684D01*
X122012068Y-72087941D01*
G37*
G36*
X180472068Y-72087941D02*
G01*
X180610619Y-72145330D01*
X180735311Y-72228647D01*
X180841353Y-72334689D01*
X180924670Y-72459381D01*
X180982059Y-72597932D01*
X181011316Y-72745017D01*
X181011316Y-72894983D01*
X180982059Y-73042068D01*
X180924670Y-73180619D01*
X180841353Y-73305311D01*
X180735311Y-73411353D01*
X180610619Y-73494670D01*
X180472068Y-73552059D01*
X180324983Y-73581316D01*
X180175017Y-73581316D01*
X180027932Y-73552059D01*
X179889381Y-73494670D01*
X179764689Y-73411353D01*
X179658647Y-73305311D01*
X179575330Y-73180619D01*
X179517941Y-73042068D01*
X179488684Y-72894983D01*
X179488684Y-72745017D01*
X179517941Y-72597932D01*
X179575330Y-72459381D01*
X179658647Y-72334689D01*
X179764689Y-72228647D01*
X179889381Y-72145330D01*
X180027932Y-72087941D01*
X180175017Y-72058684D01*
X180324983Y-72058684D01*
X180472068Y-72087941D01*
G37*
G36*
X183012068Y-72087941D02*
G01*
X183150619Y-72145330D01*
X183275311Y-72228647D01*
X183381353Y-72334689D01*
X183464670Y-72459381D01*
X183522059Y-72597932D01*
X183551316Y-72745017D01*
X183551316Y-72894983D01*
X183522059Y-73042068D01*
X183464670Y-73180619D01*
X183381353Y-73305311D01*
X183275311Y-73411353D01*
X183150619Y-73494670D01*
X183012068Y-73552059D01*
X182864983Y-73581316D01*
X182715017Y-73581316D01*
X182567932Y-73552059D01*
X182429381Y-73494670D01*
X182304689Y-73411353D01*
X182198647Y-73305311D01*
X182115330Y-73180619D01*
X182057941Y-73042068D01*
X182028684Y-72894983D01*
X182028684Y-72745017D01*
X182057941Y-72597932D01*
X182115330Y-72459381D01*
X182198647Y-72334689D01*
X182304689Y-72228647D01*
X182429381Y-72145330D01*
X182567932Y-72087941D01*
X182715017Y-72058684D01*
X182864983Y-72058684D01*
X183012068Y-72087941D01*
G37*
G36*
X119472068Y-69547941D02*
G01*
X119610619Y-69605330D01*
X119735311Y-69688647D01*
X119841353Y-69794689D01*
X119924670Y-69919381D01*
X119982059Y-70057932D01*
X120011316Y-70205017D01*
X120011316Y-70354983D01*
X119982059Y-70502068D01*
X119924670Y-70640619D01*
X119841353Y-70765311D01*
X119735311Y-70871353D01*
X119610619Y-70954670D01*
X119472068Y-71012059D01*
X119324983Y-71041316D01*
X119175017Y-71041316D01*
X119027932Y-71012059D01*
X118889381Y-70954670D01*
X118764689Y-70871353D01*
X118658647Y-70765311D01*
X118575330Y-70640619D01*
X118517941Y-70502068D01*
X118488684Y-70354983D01*
X118488684Y-70205017D01*
X118517941Y-70057932D01*
X118575330Y-69919381D01*
X118658647Y-69794689D01*
X118764689Y-69688647D01*
X118889381Y-69605330D01*
X119027932Y-69547941D01*
X119175017Y-69518684D01*
X119324983Y-69518684D01*
X119472068Y-69547941D01*
G37*
G36*
X122012068Y-69547941D02*
G01*
X122150619Y-69605330D01*
X122275311Y-69688647D01*
X122381353Y-69794689D01*
X122464670Y-69919381D01*
X122522059Y-70057932D01*
X122551316Y-70205017D01*
X122551316Y-70354983D01*
X122522059Y-70502068D01*
X122464670Y-70640619D01*
X122381353Y-70765311D01*
X122275311Y-70871353D01*
X122150619Y-70954670D01*
X122012068Y-71012059D01*
X121864983Y-71041316D01*
X121715017Y-71041316D01*
X121567932Y-71012059D01*
X121429381Y-70954670D01*
X121304689Y-70871353D01*
X121198647Y-70765311D01*
X121115330Y-70640619D01*
X121057941Y-70502068D01*
X121028684Y-70354983D01*
X121028684Y-70205017D01*
X121057941Y-70057932D01*
X121115330Y-69919381D01*
X121198647Y-69794689D01*
X121304689Y-69688647D01*
X121429381Y-69605330D01*
X121567932Y-69547941D01*
X121715017Y-69518684D01*
X121864983Y-69518684D01*
X122012068Y-69547941D01*
G37*
G36*
X180472068Y-69547941D02*
G01*
X180610619Y-69605330D01*
X180735311Y-69688647D01*
X180841353Y-69794689D01*
X180924670Y-69919381D01*
X180982059Y-70057932D01*
X181011316Y-70205017D01*
X181011316Y-70354983D01*
X180982059Y-70502068D01*
X180924670Y-70640619D01*
X180841353Y-70765311D01*
X180735311Y-70871353D01*
X180610619Y-70954670D01*
X180472068Y-71012059D01*
X180324983Y-71041316D01*
X180175017Y-71041316D01*
X180027932Y-71012059D01*
X179889381Y-70954670D01*
X179764689Y-70871353D01*
X179658647Y-70765311D01*
X179575330Y-70640619D01*
X179517941Y-70502068D01*
X179488684Y-70354983D01*
X179488684Y-70205017D01*
X179517941Y-70057932D01*
X179575330Y-69919381D01*
X179658647Y-69794689D01*
X179764689Y-69688647D01*
X179889381Y-69605330D01*
X180027932Y-69547941D01*
X180175017Y-69518684D01*
X180324983Y-69518684D01*
X180472068Y-69547941D01*
G37*
G36*
X183012068Y-69547941D02*
G01*
X183150619Y-69605330D01*
X183275311Y-69688647D01*
X183381353Y-69794689D01*
X183464670Y-69919381D01*
X183522059Y-70057932D01*
X183551316Y-70205017D01*
X183551316Y-70354983D01*
X183522059Y-70502068D01*
X183464670Y-70640619D01*
X183381353Y-70765311D01*
X183275311Y-70871353D01*
X183150619Y-70954670D01*
X183012068Y-71012059D01*
X182864983Y-71041316D01*
X182715017Y-71041316D01*
X182567932Y-71012059D01*
X182429381Y-70954670D01*
X182304689Y-70871353D01*
X182198647Y-70765311D01*
X182115330Y-70640619D01*
X182057941Y-70502068D01*
X182028684Y-70354983D01*
X182028684Y-70205017D01*
X182057941Y-70057932D01*
X182115330Y-69919381D01*
X182198647Y-69794689D01*
X182304689Y-69688647D01*
X182429381Y-69605330D01*
X182567932Y-69547941D01*
X182715017Y-69518684D01*
X182864983Y-69518684D01*
X183012068Y-69547941D01*
G37*
G36*
X119472068Y-67007941D02*
G01*
X119610619Y-67065330D01*
X119735311Y-67148647D01*
X119841353Y-67254689D01*
X119924670Y-67379381D01*
X119982059Y-67517932D01*
X120011316Y-67665017D01*
X120011316Y-67814983D01*
X119982059Y-67962068D01*
X119924670Y-68100619D01*
X119841353Y-68225311D01*
X119735311Y-68331353D01*
X119610619Y-68414670D01*
X119472068Y-68472059D01*
X119324983Y-68501316D01*
X119175017Y-68501316D01*
X119027932Y-68472059D01*
X118889381Y-68414670D01*
X118764689Y-68331353D01*
X118658647Y-68225311D01*
X118575330Y-68100619D01*
X118517941Y-67962068D01*
X118488684Y-67814983D01*
X118488684Y-67665017D01*
X118517941Y-67517932D01*
X118575330Y-67379381D01*
X118658647Y-67254689D01*
X118764689Y-67148647D01*
X118889381Y-67065330D01*
X119027932Y-67007941D01*
X119175017Y-66978684D01*
X119324983Y-66978684D01*
X119472068Y-67007941D01*
G37*
G36*
X122012068Y-67007941D02*
G01*
X122150619Y-67065330D01*
X122275311Y-67148647D01*
X122381353Y-67254689D01*
X122464670Y-67379381D01*
X122522059Y-67517932D01*
X122551316Y-67665017D01*
X122551316Y-67814983D01*
X122522059Y-67962068D01*
X122464670Y-68100619D01*
X122381353Y-68225311D01*
X122275311Y-68331353D01*
X122150619Y-68414670D01*
X122012068Y-68472059D01*
X121864983Y-68501316D01*
X121715017Y-68501316D01*
X121567932Y-68472059D01*
X121429381Y-68414670D01*
X121304689Y-68331353D01*
X121198647Y-68225311D01*
X121115330Y-68100619D01*
X121057941Y-67962068D01*
X121028684Y-67814983D01*
X121028684Y-67665017D01*
X121057941Y-67517932D01*
X121115330Y-67379381D01*
X121198647Y-67254689D01*
X121304689Y-67148647D01*
X121429381Y-67065330D01*
X121567932Y-67007941D01*
X121715017Y-66978684D01*
X121864983Y-66978684D01*
X122012068Y-67007941D01*
G37*
G36*
X180472068Y-67007941D02*
G01*
X180610619Y-67065330D01*
X180735311Y-67148647D01*
X180841353Y-67254689D01*
X180924670Y-67379381D01*
X180982059Y-67517932D01*
X181011316Y-67665017D01*
X181011316Y-67814983D01*
X180982059Y-67962068D01*
X180924670Y-68100619D01*
X180841353Y-68225311D01*
X180735311Y-68331353D01*
X180610619Y-68414670D01*
X180472068Y-68472059D01*
X180324983Y-68501316D01*
X180175017Y-68501316D01*
X180027932Y-68472059D01*
X179889381Y-68414670D01*
X179764689Y-68331353D01*
X179658647Y-68225311D01*
X179575330Y-68100619D01*
X179517941Y-67962068D01*
X179488684Y-67814983D01*
X179488684Y-67665017D01*
X179517941Y-67517932D01*
X179575330Y-67379381D01*
X179658647Y-67254689D01*
X179764689Y-67148647D01*
X179889381Y-67065330D01*
X180027932Y-67007941D01*
X180175017Y-66978684D01*
X180324983Y-66978684D01*
X180472068Y-67007941D01*
G37*
G36*
X183012068Y-67007941D02*
G01*
X183150619Y-67065330D01*
X183275311Y-67148647D01*
X183381353Y-67254689D01*
X183464670Y-67379381D01*
X183522059Y-67517932D01*
X183551316Y-67665017D01*
X183551316Y-67814983D01*
X183522059Y-67962068D01*
X183464670Y-68100619D01*
X183381353Y-68225311D01*
X183275311Y-68331353D01*
X183150619Y-68414670D01*
X183012068Y-68472059D01*
X182864983Y-68501316D01*
X182715017Y-68501316D01*
X182567932Y-68472059D01*
X182429381Y-68414670D01*
X182304689Y-68331353D01*
X182198647Y-68225311D01*
X182115330Y-68100619D01*
X182057941Y-67962068D01*
X182028684Y-67814983D01*
X182028684Y-67665017D01*
X182057941Y-67517932D01*
X182115330Y-67379381D01*
X182198647Y-67254689D01*
X182304689Y-67148647D01*
X182429381Y-67065330D01*
X182567932Y-67007941D01*
X182715017Y-66978684D01*
X182864983Y-66978684D01*
X183012068Y-67007941D01*
G37*
G36*
X119472068Y-64467941D02*
G01*
X119610619Y-64525330D01*
X119735311Y-64608647D01*
X119841353Y-64714689D01*
X119924670Y-64839381D01*
X119982059Y-64977932D01*
X120011316Y-65125017D01*
X120011316Y-65274983D01*
X119982059Y-65422068D01*
X119924670Y-65560619D01*
X119841353Y-65685311D01*
X119735311Y-65791353D01*
X119610619Y-65874670D01*
X119472068Y-65932059D01*
X119324983Y-65961316D01*
X119175017Y-65961316D01*
X119027932Y-65932059D01*
X118889381Y-65874670D01*
X118764689Y-65791353D01*
X118658647Y-65685311D01*
X118575330Y-65560619D01*
X118517941Y-65422068D01*
X118488684Y-65274983D01*
X118488684Y-65125017D01*
X118517941Y-64977932D01*
X118575330Y-64839381D01*
X118658647Y-64714689D01*
X118764689Y-64608647D01*
X118889381Y-64525330D01*
X119027932Y-64467941D01*
X119175017Y-64438684D01*
X119324983Y-64438684D01*
X119472068Y-64467941D01*
G37*
G36*
X122012068Y-64467941D02*
G01*
X122150619Y-64525330D01*
X122275311Y-64608647D01*
X122381353Y-64714689D01*
X122464670Y-64839381D01*
X122522059Y-64977932D01*
X122551316Y-65125017D01*
X122551316Y-65274983D01*
X122522059Y-65422068D01*
X122464670Y-65560619D01*
X122381353Y-65685311D01*
X122275311Y-65791353D01*
X122150619Y-65874670D01*
X122012068Y-65932059D01*
X121864983Y-65961316D01*
X121715017Y-65961316D01*
X121567932Y-65932059D01*
X121429381Y-65874670D01*
X121304689Y-65791353D01*
X121198647Y-65685311D01*
X121115330Y-65560619D01*
X121057941Y-65422068D01*
X121028684Y-65274983D01*
X121028684Y-65125017D01*
X121057941Y-64977932D01*
X121115330Y-64839381D01*
X121198647Y-64714689D01*
X121304689Y-64608647D01*
X121429381Y-64525330D01*
X121567932Y-64467941D01*
X121715017Y-64438684D01*
X121864983Y-64438684D01*
X122012068Y-64467941D01*
G37*
G36*
X180472068Y-64467941D02*
G01*
X180610619Y-64525330D01*
X180735311Y-64608647D01*
X180841353Y-64714689D01*
X180924670Y-64839381D01*
X180982059Y-64977932D01*
X181011316Y-65125017D01*
X181011316Y-65274983D01*
X180982059Y-65422068D01*
X180924670Y-65560619D01*
X180841353Y-65685311D01*
X180735311Y-65791353D01*
X180610619Y-65874670D01*
X180472068Y-65932059D01*
X180324983Y-65961316D01*
X180175017Y-65961316D01*
X180027932Y-65932059D01*
X179889381Y-65874670D01*
X179764689Y-65791353D01*
X179658647Y-65685311D01*
X179575330Y-65560619D01*
X179517941Y-65422068D01*
X179488684Y-65274983D01*
X179488684Y-65125017D01*
X179517941Y-64977932D01*
X179575330Y-64839381D01*
X179658647Y-64714689D01*
X179764689Y-64608647D01*
X179889381Y-64525330D01*
X180027932Y-64467941D01*
X180175017Y-64438684D01*
X180324983Y-64438684D01*
X180472068Y-64467941D01*
G37*
G36*
X183012068Y-64467941D02*
G01*
X183150619Y-64525330D01*
X183275311Y-64608647D01*
X183381353Y-64714689D01*
X183464670Y-64839381D01*
X183522059Y-64977932D01*
X183551316Y-65125017D01*
X183551316Y-65274983D01*
X183522059Y-65422068D01*
X183464670Y-65560619D01*
X183381353Y-65685311D01*
X183275311Y-65791353D01*
X183150619Y-65874670D01*
X183012068Y-65932059D01*
X182864983Y-65961316D01*
X182715017Y-65961316D01*
X182567932Y-65932059D01*
X182429381Y-65874670D01*
X182304689Y-65791353D01*
X182198647Y-65685311D01*
X182115330Y-65560619D01*
X182057941Y-65422068D01*
X182028684Y-65274983D01*
X182028684Y-65125017D01*
X182057941Y-64977932D01*
X182115330Y-64839381D01*
X182198647Y-64714689D01*
X182304689Y-64608647D01*
X182429381Y-64525330D01*
X182567932Y-64467941D01*
X182715017Y-64438684D01*
X182864983Y-64438684D01*
X183012068Y-64467941D01*
G37*
G36*
X119472068Y-61927941D02*
G01*
X119610619Y-61985330D01*
X119735311Y-62068647D01*
X119841353Y-62174689D01*
X119924670Y-62299381D01*
X119982059Y-62437932D01*
X120011316Y-62585017D01*
X120011316Y-62734983D01*
X119982059Y-62882068D01*
X119924670Y-63020619D01*
X119841353Y-63145311D01*
X119735311Y-63251353D01*
X119610619Y-63334670D01*
X119472068Y-63392059D01*
X119324983Y-63421316D01*
X119175017Y-63421316D01*
X119027932Y-63392059D01*
X118889381Y-63334670D01*
X118764689Y-63251353D01*
X118658647Y-63145311D01*
X118575330Y-63020619D01*
X118517941Y-62882068D01*
X118488684Y-62734983D01*
X118488684Y-62585017D01*
X118517941Y-62437932D01*
X118575330Y-62299381D01*
X118658647Y-62174689D01*
X118764689Y-62068647D01*
X118889381Y-61985330D01*
X119027932Y-61927941D01*
X119175017Y-61898684D01*
X119324983Y-61898684D01*
X119472068Y-61927941D01*
G37*
G36*
X122012068Y-61927941D02*
G01*
X122150619Y-61985330D01*
X122275311Y-62068647D01*
X122381353Y-62174689D01*
X122464670Y-62299381D01*
X122522059Y-62437932D01*
X122551316Y-62585017D01*
X122551316Y-62734983D01*
X122522059Y-62882068D01*
X122464670Y-63020619D01*
X122381353Y-63145311D01*
X122275311Y-63251353D01*
X122150619Y-63334670D01*
X122012068Y-63392059D01*
X121864983Y-63421316D01*
X121715017Y-63421316D01*
X121567932Y-63392059D01*
X121429381Y-63334670D01*
X121304689Y-63251353D01*
X121198647Y-63145311D01*
X121115330Y-63020619D01*
X121057941Y-62882068D01*
X121028684Y-62734983D01*
X121028684Y-62585017D01*
X121057941Y-62437932D01*
X121115330Y-62299381D01*
X121198647Y-62174689D01*
X121304689Y-62068647D01*
X121429381Y-61985330D01*
X121567932Y-61927941D01*
X121715017Y-61898684D01*
X121864983Y-61898684D01*
X122012068Y-61927941D01*
G37*
G36*
X180472068Y-61927941D02*
G01*
X180610619Y-61985330D01*
X180735311Y-62068647D01*
X180841353Y-62174689D01*
X180924670Y-62299381D01*
X180982059Y-62437932D01*
X181011316Y-62585017D01*
X181011316Y-62734983D01*
X180982059Y-62882068D01*
X180924670Y-63020619D01*
X180841353Y-63145311D01*
X180735311Y-63251353D01*
X180610619Y-63334670D01*
X180472068Y-63392059D01*
X180324983Y-63421316D01*
X180175017Y-63421316D01*
X180027932Y-63392059D01*
X179889381Y-63334670D01*
X179764689Y-63251353D01*
X179658647Y-63145311D01*
X179575330Y-63020619D01*
X179517941Y-62882068D01*
X179488684Y-62734983D01*
X179488684Y-62585017D01*
X179517941Y-62437932D01*
X179575330Y-62299381D01*
X179658647Y-62174689D01*
X179764689Y-62068647D01*
X179889381Y-61985330D01*
X180027932Y-61927941D01*
X180175017Y-61898684D01*
X180324983Y-61898684D01*
X180472068Y-61927941D01*
G37*
G36*
X183012068Y-61927941D02*
G01*
X183150619Y-61985330D01*
X183275311Y-62068647D01*
X183381353Y-62174689D01*
X183464670Y-62299381D01*
X183522059Y-62437932D01*
X183551316Y-62585017D01*
X183551316Y-62734983D01*
X183522059Y-62882068D01*
X183464670Y-63020619D01*
X183381353Y-63145311D01*
X183275311Y-63251353D01*
X183150619Y-63334670D01*
X183012068Y-63392059D01*
X182864983Y-63421316D01*
X182715017Y-63421316D01*
X182567932Y-63392059D01*
X182429381Y-63334670D01*
X182304689Y-63251353D01*
X182198647Y-63145311D01*
X182115330Y-63020619D01*
X182057941Y-62882068D01*
X182028684Y-62734983D01*
X182028684Y-62585017D01*
X182057941Y-62437932D01*
X182115330Y-62299381D01*
X182198647Y-62174689D01*
X182304689Y-62068647D01*
X182429381Y-61985330D01*
X182567932Y-61927941D01*
X182715017Y-61898684D01*
X182864983Y-61898684D01*
X183012068Y-61927941D01*
G37*
G36*
X119472068Y-59387941D02*
G01*
X119610619Y-59445330D01*
X119735311Y-59528647D01*
X119841353Y-59634689D01*
X119924670Y-59759381D01*
X119982059Y-59897932D01*
X120011316Y-60045017D01*
X120011316Y-60194983D01*
X119982059Y-60342068D01*
X119924670Y-60480619D01*
X119841353Y-60605311D01*
X119735311Y-60711353D01*
X119610619Y-60794670D01*
X119472068Y-60852059D01*
X119324983Y-60881316D01*
X119175017Y-60881316D01*
X119027932Y-60852059D01*
X118889381Y-60794670D01*
X118764689Y-60711353D01*
X118658647Y-60605311D01*
X118575330Y-60480619D01*
X118517941Y-60342068D01*
X118488684Y-60194983D01*
X118488684Y-60045017D01*
X118517941Y-59897932D01*
X118575330Y-59759381D01*
X118658647Y-59634689D01*
X118764689Y-59528647D01*
X118889381Y-59445330D01*
X119027932Y-59387941D01*
X119175017Y-59358684D01*
X119324983Y-59358684D01*
X119472068Y-59387941D01*
G37*
G36*
X122012068Y-59387941D02*
G01*
X122150619Y-59445330D01*
X122275311Y-59528647D01*
X122381353Y-59634689D01*
X122464670Y-59759381D01*
X122522059Y-59897932D01*
X122551316Y-60045017D01*
X122551316Y-60194983D01*
X122522059Y-60342068D01*
X122464670Y-60480619D01*
X122381353Y-60605311D01*
X122275311Y-60711353D01*
X122150619Y-60794670D01*
X122012068Y-60852059D01*
X121864983Y-60881316D01*
X121715017Y-60881316D01*
X121567932Y-60852059D01*
X121429381Y-60794670D01*
X121304689Y-60711353D01*
X121198647Y-60605311D01*
X121115330Y-60480619D01*
X121057941Y-60342068D01*
X121028684Y-60194983D01*
X121028684Y-60045017D01*
X121057941Y-59897932D01*
X121115330Y-59759381D01*
X121198647Y-59634689D01*
X121304689Y-59528647D01*
X121429381Y-59445330D01*
X121567932Y-59387941D01*
X121715017Y-59358684D01*
X121864983Y-59358684D01*
X122012068Y-59387941D01*
G37*
G36*
X180472068Y-59387941D02*
G01*
X180610619Y-59445330D01*
X180735311Y-59528647D01*
X180841353Y-59634689D01*
X180924670Y-59759381D01*
X180982059Y-59897932D01*
X181011316Y-60045017D01*
X181011316Y-60194983D01*
X180982059Y-60342068D01*
X180924670Y-60480619D01*
X180841353Y-60605311D01*
X180735311Y-60711353D01*
X180610619Y-60794670D01*
X180472068Y-60852059D01*
X180324983Y-60881316D01*
X180175017Y-60881316D01*
X180027932Y-60852059D01*
X179889381Y-60794670D01*
X179764689Y-60711353D01*
X179658647Y-60605311D01*
X179575330Y-60480619D01*
X179517941Y-60342068D01*
X179488684Y-60194983D01*
X179488684Y-60045017D01*
X179517941Y-59897932D01*
X179575330Y-59759381D01*
X179658647Y-59634689D01*
X179764689Y-59528647D01*
X179889381Y-59445330D01*
X180027932Y-59387941D01*
X180175017Y-59358684D01*
X180324983Y-59358684D01*
X180472068Y-59387941D01*
G37*
G36*
X183012068Y-59387941D02*
G01*
X183150619Y-59445330D01*
X183275311Y-59528647D01*
X183381353Y-59634689D01*
X183464670Y-59759381D01*
X183522059Y-59897932D01*
X183551316Y-60045017D01*
X183551316Y-60194983D01*
X183522059Y-60342068D01*
X183464670Y-60480619D01*
X183381353Y-60605311D01*
X183275311Y-60711353D01*
X183150619Y-60794670D01*
X183012068Y-60852059D01*
X182864983Y-60881316D01*
X182715017Y-60881316D01*
X182567932Y-60852059D01*
X182429381Y-60794670D01*
X182304689Y-60711353D01*
X182198647Y-60605311D01*
X182115330Y-60480619D01*
X182057941Y-60342068D01*
X182028684Y-60194983D01*
X182028684Y-60045017D01*
X182057941Y-59897932D01*
X182115330Y-59759381D01*
X182198647Y-59634689D01*
X182304689Y-59528647D01*
X182429381Y-59445330D01*
X182567932Y-59387941D01*
X182715017Y-59358684D01*
X182864983Y-59358684D01*
X183012068Y-59387941D01*
G37*
G36*
X119472068Y-56847941D02*
G01*
X119610619Y-56905330D01*
X119735311Y-56988647D01*
X119841353Y-57094689D01*
X119924670Y-57219381D01*
X119982059Y-57357932D01*
X120011316Y-57505017D01*
X120011316Y-57654983D01*
X119982059Y-57802068D01*
X119924670Y-57940619D01*
X119841353Y-58065311D01*
X119735311Y-58171353D01*
X119610619Y-58254670D01*
X119472068Y-58312059D01*
X119324983Y-58341316D01*
X119175017Y-58341316D01*
X119027932Y-58312059D01*
X118889381Y-58254670D01*
X118764689Y-58171353D01*
X118658647Y-58065311D01*
X118575330Y-57940619D01*
X118517941Y-57802068D01*
X118488684Y-57654983D01*
X118488684Y-57505017D01*
X118517941Y-57357932D01*
X118575330Y-57219381D01*
X118658647Y-57094689D01*
X118764689Y-56988647D01*
X118889381Y-56905330D01*
X119027932Y-56847941D01*
X119175017Y-56818684D01*
X119324983Y-56818684D01*
X119472068Y-56847941D01*
G37*
G36*
X122012068Y-56847941D02*
G01*
X122150619Y-56905330D01*
X122275311Y-56988647D01*
X122381353Y-57094689D01*
X122464670Y-57219381D01*
X122522059Y-57357932D01*
X122551316Y-57505017D01*
X122551316Y-57654983D01*
X122522059Y-57802068D01*
X122464670Y-57940619D01*
X122381353Y-58065311D01*
X122275311Y-58171353D01*
X122150619Y-58254670D01*
X122012068Y-58312059D01*
X121864983Y-58341316D01*
X121715017Y-58341316D01*
X121567932Y-58312059D01*
X121429381Y-58254670D01*
X121304689Y-58171353D01*
X121198647Y-58065311D01*
X121115330Y-57940619D01*
X121057941Y-57802068D01*
X121028684Y-57654983D01*
X121028684Y-57505017D01*
X121057941Y-57357932D01*
X121115330Y-57219381D01*
X121198647Y-57094689D01*
X121304689Y-56988647D01*
X121429381Y-56905330D01*
X121567932Y-56847941D01*
X121715017Y-56818684D01*
X121864983Y-56818684D01*
X122012068Y-56847941D01*
G37*
G36*
X180472068Y-56847941D02*
G01*
X180610619Y-56905330D01*
X180735311Y-56988647D01*
X180841353Y-57094689D01*
X180924670Y-57219381D01*
X180982059Y-57357932D01*
X181011316Y-57505017D01*
X181011316Y-57654983D01*
X180982059Y-57802068D01*
X180924670Y-57940619D01*
X180841353Y-58065311D01*
X180735311Y-58171353D01*
X180610619Y-58254670D01*
X180472068Y-58312059D01*
X180324983Y-58341316D01*
X180175017Y-58341316D01*
X180027932Y-58312059D01*
X179889381Y-58254670D01*
X179764689Y-58171353D01*
X179658647Y-58065311D01*
X179575330Y-57940619D01*
X179517941Y-57802068D01*
X179488684Y-57654983D01*
X179488684Y-57505017D01*
X179517941Y-57357932D01*
X179575330Y-57219381D01*
X179658647Y-57094689D01*
X179764689Y-56988647D01*
X179889381Y-56905330D01*
X180027932Y-56847941D01*
X180175017Y-56818684D01*
X180324983Y-56818684D01*
X180472068Y-56847941D01*
G37*
G36*
X183012068Y-56847941D02*
G01*
X183150619Y-56905330D01*
X183275311Y-56988647D01*
X183381353Y-57094689D01*
X183464670Y-57219381D01*
X183522059Y-57357932D01*
X183551316Y-57505017D01*
X183551316Y-57654983D01*
X183522059Y-57802068D01*
X183464670Y-57940619D01*
X183381353Y-58065311D01*
X183275311Y-58171353D01*
X183150619Y-58254670D01*
X183012068Y-58312059D01*
X182864983Y-58341316D01*
X182715017Y-58341316D01*
X182567932Y-58312059D01*
X182429381Y-58254670D01*
X182304689Y-58171353D01*
X182198647Y-58065311D01*
X182115330Y-57940619D01*
X182057941Y-57802068D01*
X182028684Y-57654983D01*
X182028684Y-57505017D01*
X182057941Y-57357932D01*
X182115330Y-57219381D01*
X182198647Y-57094689D01*
X182304689Y-56988647D01*
X182429381Y-56905330D01*
X182567932Y-56847941D01*
X182715017Y-56818684D01*
X182864983Y-56818684D01*
X183012068Y-56847941D01*
G37*
G36*
X119472068Y-54307941D02*
G01*
X119610619Y-54365330D01*
X119735311Y-54448647D01*
X119841353Y-54554689D01*
X119924670Y-54679381D01*
X119982059Y-54817932D01*
X120011316Y-54965017D01*
X120011316Y-55114983D01*
X119982059Y-55262068D01*
X119924670Y-55400619D01*
X119841353Y-55525311D01*
X119735311Y-55631353D01*
X119610619Y-55714670D01*
X119472068Y-55772059D01*
X119324983Y-55801316D01*
X119175017Y-55801316D01*
X119027932Y-55772059D01*
X118889381Y-55714670D01*
X118764689Y-55631353D01*
X118658647Y-55525311D01*
X118575330Y-55400619D01*
X118517941Y-55262068D01*
X118488684Y-55114983D01*
X118488684Y-54965017D01*
X118517941Y-54817932D01*
X118575330Y-54679381D01*
X118658647Y-54554689D01*
X118764689Y-54448647D01*
X118889381Y-54365330D01*
X119027932Y-54307941D01*
X119175017Y-54278684D01*
X119324983Y-54278684D01*
X119472068Y-54307941D01*
G37*
G36*
X122012068Y-54307941D02*
G01*
X122150619Y-54365330D01*
X122275311Y-54448647D01*
X122381353Y-54554689D01*
X122464670Y-54679381D01*
X122522059Y-54817932D01*
X122551316Y-54965017D01*
X122551316Y-55114983D01*
X122522059Y-55262068D01*
X122464670Y-55400619D01*
X122381353Y-55525311D01*
X122275311Y-55631353D01*
X122150619Y-55714670D01*
X122012068Y-55772059D01*
X121864983Y-55801316D01*
X121715017Y-55801316D01*
X121567932Y-55772059D01*
X121429381Y-55714670D01*
X121304689Y-55631353D01*
X121198647Y-55525311D01*
X121115330Y-55400619D01*
X121057941Y-55262068D01*
X121028684Y-55114983D01*
X121028684Y-54965017D01*
X121057941Y-54817932D01*
X121115330Y-54679381D01*
X121198647Y-54554689D01*
X121304689Y-54448647D01*
X121429381Y-54365330D01*
X121567932Y-54307941D01*
X121715017Y-54278684D01*
X121864983Y-54278684D01*
X122012068Y-54307941D01*
G37*
G36*
X180472068Y-54307941D02*
G01*
X180610619Y-54365330D01*
X180735311Y-54448647D01*
X180841353Y-54554689D01*
X180924670Y-54679381D01*
X180982059Y-54817932D01*
X181011316Y-54965017D01*
X181011316Y-55114983D01*
X180982059Y-55262068D01*
X180924670Y-55400619D01*
X180841353Y-55525311D01*
X180735311Y-55631353D01*
X180610619Y-55714670D01*
X180472068Y-55772059D01*
X180324983Y-55801316D01*
X180175017Y-55801316D01*
X180027932Y-55772059D01*
X179889381Y-55714670D01*
X179764689Y-55631353D01*
X179658647Y-55525311D01*
X179575330Y-55400619D01*
X179517941Y-55262068D01*
X179488684Y-55114983D01*
X179488684Y-54965017D01*
X179517941Y-54817932D01*
X179575330Y-54679381D01*
X179658647Y-54554689D01*
X179764689Y-54448647D01*
X179889381Y-54365330D01*
X180027932Y-54307941D01*
X180175017Y-54278684D01*
X180324983Y-54278684D01*
X180472068Y-54307941D01*
G37*
G36*
X183012068Y-54307941D02*
G01*
X183150619Y-54365330D01*
X183275311Y-54448647D01*
X183381353Y-54554689D01*
X183464670Y-54679381D01*
X183522059Y-54817932D01*
X183551316Y-54965017D01*
X183551316Y-55114983D01*
X183522059Y-55262068D01*
X183464670Y-55400619D01*
X183381353Y-55525311D01*
X183275311Y-55631353D01*
X183150619Y-55714670D01*
X183012068Y-55772059D01*
X182864983Y-55801316D01*
X182715017Y-55801316D01*
X182567932Y-55772059D01*
X182429381Y-55714670D01*
X182304689Y-55631353D01*
X182198647Y-55525311D01*
X182115330Y-55400619D01*
X182057941Y-55262068D01*
X182028684Y-55114983D01*
X182028684Y-54965017D01*
X182057941Y-54817932D01*
X182115330Y-54679381D01*
X182198647Y-54554689D01*
X182304689Y-54448647D01*
X182429381Y-54365330D01*
X182567932Y-54307941D01*
X182715017Y-54278684D01*
X182864983Y-54278684D01*
X183012068Y-54307941D01*
G37*
G36*
X120015000Y-53265000D02*
G01*
X118485000Y-53265000D01*
X118485000Y-51735000D01*
X120015000Y-51735000D01*
X120015000Y-53265000D01*
G37*
G36*
X181015000Y-53265000D02*
G01*
X179485000Y-53265000D01*
X179485000Y-51735000D01*
X181015000Y-51735000D01*
X181015000Y-53265000D01*
G37*
G36*
X122012068Y-51767941D02*
G01*
X122150619Y-51825330D01*
X122275311Y-51908647D01*
X122381353Y-52014689D01*
X122464670Y-52139381D01*
X122522059Y-52277932D01*
X122551316Y-52425017D01*
X122551316Y-52574983D01*
X122522059Y-52722068D01*
X122464670Y-52860619D01*
X122381353Y-52985311D01*
X122275311Y-53091353D01*
X122150619Y-53174670D01*
X122012068Y-53232059D01*
X121864983Y-53261316D01*
X121715017Y-53261316D01*
X121567932Y-53232059D01*
X121429381Y-53174670D01*
X121304689Y-53091353D01*
X121198647Y-52985311D01*
X121115330Y-52860619D01*
X121057941Y-52722068D01*
X121028684Y-52574983D01*
X121028684Y-52425017D01*
X121057941Y-52277932D01*
X121115330Y-52139381D01*
X121198647Y-52014689D01*
X121304689Y-51908647D01*
X121429381Y-51825330D01*
X121567932Y-51767941D01*
X121715017Y-51738684D01*
X121864983Y-51738684D01*
X122012068Y-51767941D01*
G37*
G36*
X183012068Y-51767941D02*
G01*
X183150619Y-51825330D01*
X183275311Y-51908647D01*
X183381353Y-52014689D01*
X183464670Y-52139381D01*
X183522059Y-52277932D01*
X183551316Y-52425017D01*
X183551316Y-52574983D01*
X183522059Y-52722068D01*
X183464670Y-52860619D01*
X183381353Y-52985311D01*
X183275311Y-53091353D01*
X183150619Y-53174670D01*
X183012068Y-53232059D01*
X182864983Y-53261316D01*
X182715017Y-53261316D01*
X182567932Y-53232059D01*
X182429381Y-53174670D01*
X182304689Y-53091353D01*
X182198647Y-52985311D01*
X182115330Y-52860619D01*
X182057941Y-52722068D01*
X182028684Y-52574983D01*
X182028684Y-52425017D01*
X182057941Y-52277932D01*
X182115330Y-52139381D01*
X182198647Y-52014689D01*
X182304689Y-51908647D01*
X182429381Y-51825330D01*
X182567932Y-51767941D01*
X182715017Y-51738684D01*
X182864983Y-51738684D01*
X183012068Y-51767941D01*
G37*
M02*
