M48
; DRILL file {KiCad 9.0.7-9.0.7~ubuntu24.04.1} date 2026-01-13T16:26:26+0100
; FORMAT={-:-/ absolute / metric / decimal}
; #@! TF.CreationDate,2026-01-13T16:26:26+01:00
; #@! TF.GenerationSoftware,Kicad,Pcbnew,9.0.7-9.0.7~ubuntu24.04.1
; #@! TF.FileFunction,Plated,1,4,PTH
FMAT,2
METRIC
; #@! TA.AperFunction,Plated,PTH,ViaDrill
T1C0.300
; #@! TA.AperFunction,Plated,PTH,ComponentDrill
T2C0.780
; #@! TA.AperFunction,Plated,PTH,ComponentDrill
T3C1.020
; #@! TA.AperFunction,Plated,PTH,ComponentDrill
T4C1.100
%
G90
G05
T1
X131.75Y-89.25
X134.0Y-86.75
X134.3Y-60.225
X134.5Y-64.5
X134.5Y-66.25
X137.75Y-80.55
X139.0Y-69.75
X140.25Y-72.25
X140.5Y-95.25
X142.112Y-89.888
X144.75Y-80.65
X145.0Y-68.55
X149.2Y-85.2
X150.25Y-88.75
X151.737Y-99.487
X152.25Y-62.5
X152.25Y-64.25
X153.0Y-79.7
X157.75Y-99.25
X157.875Y-71.25
X158.0Y-91.0
X161.75Y-74.0
X163.5Y-74.0
X165.8Y-81.8
X168.812Y-76.688
X169.75Y-79.95
X171.75Y-79.9
T2
X142.71Y-104.75
X145.25Y-104.75
X152.87Y-104.75
X155.41Y-104.75
X157.95Y-104.75
T3
X119.25Y-52.5
X119.25Y-55.04
X119.25Y-57.58
X119.25Y-60.12
X119.25Y-62.66
X119.25Y-65.2
X119.25Y-67.74
X119.25Y-70.28
X119.25Y-72.82
X119.25Y-75.36
X119.25Y-77.9
X119.25Y-80.44
X119.25Y-82.98
X119.25Y-85.52
X119.25Y-88.06
X119.25Y-90.6
X119.25Y-93.14
X119.25Y-95.68
X119.25Y-98.22
X119.25Y-100.76
X119.25Y-103.3
X119.25Y-105.84
X119.25Y-108.38
X121.79Y-52.5
X121.79Y-55.04
X121.79Y-57.58
X121.79Y-60.12
X121.79Y-62.66
X121.79Y-65.2
X121.79Y-67.74
X121.79Y-70.28
X121.79Y-72.82
X121.79Y-75.36
X121.79Y-77.9
X121.79Y-80.44
X121.79Y-82.98
X121.79Y-85.52
X121.79Y-88.06
X121.79Y-90.6
X121.79Y-93.14
X121.79Y-95.68
X121.79Y-98.22
X121.79Y-100.76
X121.79Y-103.3
X121.79Y-105.84
X121.79Y-108.38
X180.25Y-52.5
X180.25Y-55.04
X180.25Y-57.58
X180.25Y-60.12
X180.25Y-62.66
X180.25Y-65.2
X180.25Y-67.74
X180.25Y-70.28
X180.25Y-72.82
X180.25Y-75.36
X180.25Y-77.9
X180.25Y-80.44
X180.25Y-82.98
X180.25Y-85.52
X180.25Y-88.06
X180.25Y-90.6
X180.25Y-93.14
X180.25Y-95.68
X180.25Y-98.22
X180.25Y-100.76
X180.25Y-103.3
X180.25Y-105.84
X180.25Y-108.38
X182.79Y-52.5
X182.79Y-55.04
X182.79Y-57.58
X182.79Y-60.12
X182.79Y-62.66
X182.79Y-65.2
X182.79Y-67.74
X182.79Y-70.28
X182.79Y-72.82
X182.79Y-75.36
X182.79Y-77.9
X182.79Y-80.44
X182.79Y-82.98
X182.79Y-85.52
X182.79Y-88.06
X182.79Y-90.6
X182.79Y-93.14
X182.79Y-95.68
X182.79Y-98.22
X182.79Y-100.76
X182.79Y-103.3
X182.79Y-105.84
X182.79Y-108.38
T4
X130.71Y-109.71
X133.25Y-109.71
M30
