%TF.GenerationSoftware,KiCad,Pcbnew,9.0.7-9.0.7~ubuntu24.04.1*%
%TF.CreationDate,2026-01-13T16:25:48+01:00*%
%TF.ProjectId,power,706f7765-722e-46b6-9963-61645f706362,1.0*%
%TF.SameCoordinates,Original*%
%TF.FileFunction,Soldermask,Top*%
%TF.FilePolarity,Negative*%
%FSLAX46Y46*%
G04 Gerber Fmt 4.6, Leading zero omitted, Abs format (unit mm)*
G04 Created by KiCad (PCBNEW 9.0.7-9.0.7~ubuntu24.04.1) date 2026-01-13 16:25:48*
%MOMM*%
%LPD*%
G01*
G04 APERTURE LIST*
G04 APERTURE END LIST*
G36*
X130920476Y-111741866D02*
G01*
X131044819Y-111813656D01*
X131146344Y-111915181D01*
X131218134Y-112039524D01*
X131255295Y-112178211D01*
X131255295Y-112321789D01*
X131218134Y-112460476D01*
X131146344Y-112584819D01*
X131044819Y-112686344D01*
X130920476Y-112758134D01*
X130781789Y-112795295D01*
X130638211Y-112795295D01*
X130499524Y-112758134D01*
X130375181Y-112686344D01*
X130273656Y-112584819D01*
X130201866Y-112460476D01*
X130164705Y-112321789D01*
X130164705Y-112178211D01*
X130201866Y-112039524D01*
X130273656Y-111915181D01*
X130375181Y-111813656D01*
X130499524Y-111741866D01*
X130638211Y-111704705D01*
X130781789Y-111704705D01*
X130920476Y-111741866D01*
G37*
G36*
X133460476Y-111741866D02*
G01*
X133584819Y-111813656D01*
X133686344Y-111915181D01*
X133758134Y-112039524D01*
X133795295Y-112178211D01*
X133795295Y-112321789D01*
X133758134Y-112460476D01*
X133686344Y-112584819D01*
X133584819Y-112686344D01*
X133460476Y-112758134D01*
X133321789Y-112795295D01*
X133178211Y-112795295D01*
X133039524Y-112758134D01*
X132915181Y-112686344D01*
X132813656Y-112584819D01*
X132741866Y-112460476D01*
X132704705Y-112321789D01*
X132704705Y-112178211D01*
X132741866Y-112039524D01*
X132813656Y-111915181D01*
X132915181Y-111813656D01*
X133039524Y-111741866D01*
X133178211Y-111704705D01*
X133321789Y-111704705D01*
X133460476Y-111741866D01*
G37*
G36*
X131535000Y-110535000D02*
G01*
X129885000Y-110535000D01*
X129885000Y-108885000D01*
X131535000Y-108885000D01*
X131535000Y-110535000D01*
G37*
G36*
X133489485Y-108920524D02*
G01*
X133638902Y-108982415D01*
X133773374Y-109072266D01*
X133887734Y-109186626D01*
X133977585Y-109321098D01*
X134039476Y-109470515D01*
X134071027Y-109629136D01*
X134071027Y-109790864D01*
X134039476Y-109949485D01*
X133977585Y-110098902D01*
X133887734Y-110233374D01*
X133773374Y-110347734D01*
X133638902Y-110437585D01*
X133489485Y-110499476D01*
X133330864Y-110531027D01*
X133169136Y-110531027D01*
X133010515Y-110499476D01*
X132861098Y-110437585D01*
X132726626Y-110347734D01*
X132612266Y-110233374D01*
X132522415Y-110098902D01*
X132460524Y-109949485D01*
X132428973Y-109790864D01*
X132428973Y-109629136D01*
X132460524Y-109470515D01*
X132522415Y-109321098D01*
X132612266Y-109186626D01*
X132726626Y-109072266D01*
X132861098Y-108982415D01*
X133010515Y-108920524D01*
X133169136Y-108888973D01*
X133330864Y-108888973D01*
X133489485Y-108920524D01*
G37*
G36*
X119472068Y-107647941D02*
G01*
X119610619Y-107705330D01*
X119735311Y-107788647D01*
X119841353Y-107894689D01*
X119924670Y-108019381D01*
X119982059Y-108157932D01*
X120011316Y-108305017D01*
X120011316Y-108454983D01*
X119982059Y-108602068D01*
X119924670Y-108740619D01*
X119841353Y-108865311D01*
X119735311Y-108971353D01*
X119610619Y-109054670D01*
X119472068Y-109112059D01*
X119324983Y-109141316D01*
X119175017Y-109141316D01*
X119027932Y-109112059D01*
X118889381Y-109054670D01*
X118764689Y-108971353D01*
X118658647Y-108865311D01*
X118575330Y-108740619D01*
X118517941Y-108602068D01*
X118488684Y-108454983D01*
X118488684Y-108305017D01*
X118517941Y-108157932D01*
X118575330Y-108019381D01*
X118658647Y-107894689D01*
X118764689Y-107788647D01*
X118889381Y-107705330D01*
X119027932Y-107647941D01*
X119175017Y-107618684D01*
X119324983Y-107618684D01*
X119472068Y-107647941D01*
G37*
G36*
X122012068Y-107647941D02*
G01*
X122150619Y-107705330D01*
X122275311Y-107788647D01*
X122381353Y-107894689D01*
X122464670Y-108019381D01*
X122522059Y-108157932D01*
X122551316Y-108305017D01*
X122551316Y-108454983D01*
X122522059Y-108602068D01*
X122464670Y-108740619D01*
X122381353Y-108865311D01*
X122275311Y-108971353D01*
X122150619Y-109054670D01*
X122012068Y-109112059D01*
X121864983Y-109141316D01*
X121715017Y-109141316D01*
X121567932Y-109112059D01*
X121429381Y-109054670D01*
X121304689Y-108971353D01*
X121198647Y-108865311D01*
X121115330Y-108740619D01*
X121057941Y-108602068D01*
X121028684Y-108454983D01*
X121028684Y-108305017D01*
X121057941Y-108157932D01*
X121115330Y-108019381D01*
X121198647Y-107894689D01*
X121304689Y-107788647D01*
X121429381Y-107705330D01*
X121567932Y-107647941D01*
X121715017Y-107618684D01*
X121864983Y-107618684D01*
X122012068Y-107647941D01*
G37*
G36*
X180472068Y-107647941D02*
G01*
X180610619Y-107705330D01*
X180735311Y-107788647D01*
X180841353Y-107894689D01*
X180924670Y-108019381D01*
X180982059Y-108157932D01*
X181011316Y-108305017D01*
X181011316Y-108454983D01*
X180982059Y-108602068D01*
X180924670Y-108740619D01*
X180841353Y-108865311D01*
X180735311Y-108971353D01*
X180610619Y-109054670D01*
X180472068Y-109112059D01*
X180324983Y-109141316D01*
X180175017Y-109141316D01*
X180027932Y-109112059D01*
X179889381Y-109054670D01*
X179764689Y-108971353D01*
X179658647Y-108865311D01*
X179575330Y-108740619D01*
X179517941Y-108602068D01*
X179488684Y-108454983D01*
X179488684Y-108305017D01*
X179517941Y-108157932D01*
X179575330Y-108019381D01*
X179658647Y-107894689D01*
X179764689Y-107788647D01*
X179889381Y-107705330D01*
X180027932Y-107647941D01*
X180175017Y-107618684D01*
X180324983Y-107618684D01*
X180472068Y-107647941D01*
G37*
G36*
X183012068Y-107647941D02*
G01*
X183150619Y-107705330D01*
X183275311Y-107788647D01*
X183381353Y-107894689D01*
X183464670Y-108019381D01*
X183522059Y-108157932D01*
X183551316Y-108305017D01*
X183551316Y-108454983D01*
X183522059Y-108602068D01*
X183464670Y-108740619D01*
X183381353Y-108865311D01*
X183275311Y-108971353D01*
X183150619Y-109054670D01*
X183012068Y-109112059D01*
X182864983Y-109141316D01*
X182715017Y-109141316D01*
X182567932Y-109112059D01*
X182429381Y-109054670D01*
X182304689Y-108971353D01*
X182198647Y-108865311D01*
X182115330Y-108740619D01*
X182057941Y-108602068D01*
X182028684Y-108454983D01*
X182028684Y-108305017D01*
X182057941Y-108157932D01*
X182115330Y-108019381D01*
X182198647Y-107894689D01*
X182304689Y-107788647D01*
X182429381Y-107705330D01*
X182567932Y-107647941D01*
X182715017Y-107618684D01*
X182864983Y-107618684D01*
X183012068Y-107647941D01*
G37*
G36*
X119472068Y-105107941D02*
G01*
X119610619Y-105165330D01*
X119735311Y-105248647D01*
X119841353Y-105354689D01*
X119924670Y-105479381D01*
X119982059Y-105617932D01*
X120011316Y-105765017D01*
X120011316Y-105914983D01*
X119982059Y-106062068D01*
X119924670Y-106200619D01*
X119841353Y-106325311D01*
X119735311Y-106431353D01*
X119610619Y-106514670D01*
X119472068Y-106572059D01*
X119324983Y-106601316D01*
X119175017Y-106601316D01*
X119027932Y-106572059D01*
X118889381Y-106514670D01*
X118764689Y-106431353D01*
X118658647Y-106325311D01*
X118575330Y-106200619D01*
X118517941Y-106062068D01*
X118488684Y-105914983D01*
X118488684Y-105765017D01*
X118517941Y-105617932D01*
X118575330Y-105479381D01*
X118658647Y-105354689D01*
X118764689Y-105248647D01*
X118889381Y-105165330D01*
X119027932Y-105107941D01*
X119175017Y-105078684D01*
X119324983Y-105078684D01*
X119472068Y-105107941D01*
G37*
G36*
X122012068Y-105107941D02*
G01*
X122150619Y-105165330D01*
X122275311Y-105248647D01*
X122381353Y-105354689D01*
X122464670Y-105479381D01*
X122522059Y-105617932D01*
X122551316Y-105765017D01*
X122551316Y-105914983D01*
X122522059Y-106062068D01*
X122464670Y-106200619D01*
X122381353Y-106325311D01*
X122275311Y-106431353D01*
X122150619Y-106514670D01*
X122012068Y-106572059D01*
X121864983Y-106601316D01*
X121715017Y-106601316D01*
X121567932Y-106572059D01*
X121429381Y-106514670D01*
X121304689Y-106431353D01*
X121198647Y-106325311D01*
X121115330Y-106200619D01*
X121057941Y-106062068D01*
X121028684Y-105914983D01*
X121028684Y-105765017D01*
X121057941Y-105617932D01*
X121115330Y-105479381D01*
X121198647Y-105354689D01*
X121304689Y-105248647D01*
X121429381Y-105165330D01*
X121567932Y-105107941D01*
X121715017Y-105078684D01*
X121864983Y-105078684D01*
X122012068Y-105107941D01*
G37*
G36*
X180472068Y-105107941D02*
G01*
X180610619Y-105165330D01*
X180735311Y-105248647D01*
X180841353Y-105354689D01*
X180924670Y-105479381D01*
X180982059Y-105617932D01*
X181011316Y-105765017D01*
X181011316Y-105914983D01*
X180982059Y-106062068D01*
X180924670Y-106200619D01*
X180841353Y-106325311D01*
X180735311Y-106431353D01*
X180610619Y-106514670D01*
X180472068Y-106572059D01*
X180324983Y-106601316D01*
X180175017Y-106601316D01*
X180027932Y-106572059D01*
X179889381Y-106514670D01*
X179764689Y-106431353D01*
X179658647Y-106325311D01*
X179575330Y-106200619D01*
X179517941Y-106062068D01*
X179488684Y-105914983D01*
X179488684Y-105765017D01*
X179517941Y-105617932D01*
X179575330Y-105479381D01*
X179658647Y-105354689D01*
X179764689Y-105248647D01*
X179889381Y-105165330D01*
X180027932Y-105107941D01*
X180175017Y-105078684D01*
X180324983Y-105078684D01*
X180472068Y-105107941D01*
G37*
G36*
X183012068Y-105107941D02*
G01*
X183150619Y-105165330D01*
X183275311Y-105248647D01*
X183381353Y-105354689D01*
X183464670Y-105479381D01*
X183522059Y-105617932D01*
X183551316Y-105765017D01*
X183551316Y-105914983D01*
X183522059Y-106062068D01*
X183464670Y-106200619D01*
X183381353Y-106325311D01*
X183275311Y-106431353D01*
X183150619Y-106514670D01*
X183012068Y-106572059D01*
X182864983Y-106601316D01*
X182715017Y-106601316D01*
X182567932Y-106572059D01*
X182429381Y-106514670D01*
X182304689Y-106431353D01*
X182198647Y-106325311D01*
X182115330Y-106200619D01*
X182057941Y-106062068D01*
X182028684Y-105914983D01*
X182028684Y-105765017D01*
X182057941Y-105617932D01*
X182115330Y-105479381D01*
X182198647Y-105354689D01*
X182304689Y-105248647D01*
X182429381Y-105165330D01*
X182567932Y-105107941D01*
X182715017Y-105078684D01*
X182864983Y-105078684D01*
X183012068Y-105107941D01*
G37*
G36*
X142904055Y-104110285D02*
G01*
X143025129Y-104160436D01*
X143134092Y-104233243D01*
X143226757Y-104325908D01*
X143299564Y-104434871D01*
X143349715Y-104555945D01*
X143375281Y-104684476D01*
X143375281Y-104815524D01*
X143349715Y-104944055D01*
X143299564Y-105065129D01*
X143226757Y-105174092D01*
X143134092Y-105266757D01*
X143025129Y-105339564D01*
X142904055Y-105389715D01*
X142775524Y-105415281D01*
X142644476Y-105415281D01*
X142515945Y-105389715D01*
X142394871Y-105339564D01*
X142285908Y-105266757D01*
X142193243Y-105174092D01*
X142120436Y-105065129D01*
X142070285Y-104944055D01*
X142044719Y-104815524D01*
X142044719Y-104684476D01*
X142070285Y-104555945D01*
X142120436Y-104434871D01*
X142193243Y-104325908D01*
X142285908Y-104233243D01*
X142394871Y-104160436D01*
X142515945Y-104110285D01*
X142644476Y-104084719D01*
X142775524Y-104084719D01*
X142904055Y-104110285D01*
G37*
G36*
X145444055Y-104110285D02*
G01*
X145565129Y-104160436D01*
X145674092Y-104233243D01*
X145766757Y-104325908D01*
X145839564Y-104434871D01*
X145889715Y-104555945D01*
X145915281Y-104684476D01*
X145915281Y-104815524D01*
X145889715Y-104944055D01*
X145839564Y-105065129D01*
X145766757Y-105174092D01*
X145674092Y-105266757D01*
X145565129Y-105339564D01*
X145444055Y-105389715D01*
X145315524Y-105415281D01*
X145184476Y-105415281D01*
X145055945Y-105389715D01*
X144934871Y-105339564D01*
X144825908Y-105266757D01*
X144733243Y-105174092D01*
X144660436Y-105065129D01*
X144610285Y-104944055D01*
X144584719Y-104815524D01*
X144584719Y-104684476D01*
X144610285Y-104555945D01*
X144660436Y-104434871D01*
X144733243Y-104325908D01*
X144825908Y-104233243D01*
X144934871Y-104160436D01*
X145055945Y-104110285D01*
X145184476Y-104084719D01*
X145315524Y-104084719D01*
X145444055Y-104110285D01*
G37*
G36*
X153064055Y-104110285D02*
G01*
X153185129Y-104160436D01*
X153294092Y-104233243D01*
X153386757Y-104325908D01*
X153459564Y-104434871D01*
X153509715Y-104555945D01*
X153535281Y-104684476D01*
X153535281Y-104815524D01*
X153509715Y-104944055D01*
X153459564Y-105065129D01*
X153386757Y-105174092D01*
X153294092Y-105266757D01*
X153185129Y-105339564D01*
X153064055Y-105389715D01*
X152935524Y-105415281D01*
X152804476Y-105415281D01*
X152675945Y-105389715D01*
X152554871Y-105339564D01*
X152445908Y-105266757D01*
X152353243Y-105174092D01*
X152280436Y-105065129D01*
X152230285Y-104944055D01*
X152204719Y-104815524D01*
X152204719Y-104684476D01*
X152230285Y-104555945D01*
X152280436Y-104434871D01*
X152353243Y-104325908D01*
X152445908Y-104233243D01*
X152554871Y-104160436D01*
X152675945Y-104110285D01*
X152804476Y-104084719D01*
X152935524Y-104084719D01*
X153064055Y-104110285D01*
G37*
G36*
X155604055Y-104110285D02*
G01*
X155725129Y-104160436D01*
X155834092Y-104233243D01*
X155926757Y-104325908D01*
X155999564Y-104434871D01*
X156049715Y-104555945D01*
X156075281Y-104684476D01*
X156075281Y-104815524D01*
X156049715Y-104944055D01*
X155999564Y-105065129D01*
X155926757Y-105174092D01*
X155834092Y-105266757D01*
X155725129Y-105339564D01*
X155604055Y-105389715D01*
X155475524Y-105415281D01*
X155344476Y-105415281D01*
X155215945Y-105389715D01*
X155094871Y-105339564D01*
X154985908Y-105266757D01*
X154893243Y-105174092D01*
X154820436Y-105065129D01*
X154770285Y-104944055D01*
X154744719Y-104815524D01*
X154744719Y-104684476D01*
X154770285Y-104555945D01*
X154820436Y-104434871D01*
X154893243Y-104325908D01*
X154985908Y-104233243D01*
X155094871Y-104160436D01*
X155215945Y-104110285D01*
X155344476Y-104084719D01*
X155475524Y-104084719D01*
X155604055Y-104110285D01*
G37*
G36*
X158144055Y-104110285D02*
G01*
X158265129Y-104160436D01*
X158374092Y-104233243D01*
X158466757Y-104325908D01*
X158539564Y-104434871D01*
X158589715Y-104555945D01*
X158615281Y-104684476D01*
X158615281Y-104815524D01*
X158589715Y-104944055D01*
X158539564Y-105065129D01*
X158466757Y-105174092D01*
X158374092Y-105266757D01*
X158265129Y-105339564D01*
X158144055Y-105389715D01*
X158015524Y-105415281D01*
X157884476Y-105415281D01*
X157755945Y-105389715D01*
X157634871Y-105339564D01*
X157525908Y-105266757D01*
X157433243Y-105174092D01*
X157360436Y-105065129D01*
X157310285Y-104944055D01*
X157284719Y-104815524D01*
X157284719Y-104684476D01*
X157310285Y-104555945D01*
X157360436Y-104434871D01*
X157433243Y-104325908D01*
X157525908Y-104233243D01*
X157634871Y-104160436D01*
X157755945Y-104110285D01*
X157884476Y-104084719D01*
X158015524Y-104084719D01*
X158144055Y-104110285D01*
G37*
G36*
X134228229Y-102175642D02*
G01*
X134280773Y-102181738D01*
X134298726Y-102189665D01*
X134320670Y-102194030D01*
X134344162Y-102209727D01*
X134365890Y-102219321D01*
X134380730Y-102234161D01*
X134401776Y-102248224D01*
X134415838Y-102269269D01*
X134430678Y-102284109D01*
X134440271Y-102305835D01*
X134455970Y-102329330D01*
X134460334Y-102351275D01*
X134468261Y-102369226D01*
X134474359Y-102421784D01*
X134474999Y-102425002D01*
X134474999Y-102427300D01*
X134475000Y-102427309D01*
X134475000Y-103225017D01*
X134475000Y-104024999D01*
X134474357Y-104028231D01*
X134468261Y-104080773D01*
X134460335Y-104098722D01*
X134455970Y-104120670D01*
X134440269Y-104144166D01*
X134430678Y-104165890D01*
X134415840Y-104180727D01*
X134401776Y-104201776D01*
X134380727Y-104215840D01*
X134365890Y-104230678D01*
X134344166Y-104240269D01*
X134320670Y-104255970D01*
X134298723Y-104260335D01*
X134280773Y-104268261D01*
X134228217Y-104274358D01*
X134224998Y-104274999D01*
X134222698Y-104274999D01*
X134222690Y-104275000D01*
X129277310Y-104275000D01*
X129277309Y-104274999D01*
X129275001Y-104275000D01*
X129271769Y-104274357D01*
X129219226Y-104268261D01*
X129201276Y-104260335D01*
X129179330Y-104255970D01*
X129155835Y-104240271D01*
X129134109Y-104230678D01*
X129119269Y-104215838D01*
X129098224Y-104201776D01*
X129084161Y-104180730D01*
X129069321Y-104165890D01*
X129059727Y-104144162D01*
X129044030Y-104120670D01*
X129039665Y-104098727D01*
X129031738Y-104080773D01*
X129025641Y-104028215D01*
X129025001Y-104024998D01*
X129025000Y-104022698D01*
X129025000Y-104022690D01*
X129025000Y-102427309D01*
X129025000Y-102427308D01*
X129025000Y-102425001D01*
X129025642Y-102421771D01*
X129031738Y-102369226D01*
X129039665Y-102351272D01*
X129044030Y-102329330D01*
X129059725Y-102305839D01*
X129069321Y-102284109D01*
X129084164Y-102269265D01*
X129098224Y-102248224D01*
X129119265Y-102234164D01*
X129134109Y-102219321D01*
X129155839Y-102209725D01*
X129179330Y-102194030D01*
X129201270Y-102189665D01*
X129219226Y-102181738D01*
X129271784Y-102175641D01*
X129275002Y-102175001D01*
X129277301Y-102175000D01*
X129277310Y-102175000D01*
X134222690Y-102175000D01*
X134224999Y-102175000D01*
X134228229Y-102175642D01*
G37*
G36*
X119472068Y-102567941D02*
G01*
X119610619Y-102625330D01*
X119735311Y-102708647D01*
X119841353Y-102814689D01*
X119924670Y-102939381D01*
X119982059Y-103077932D01*
X120011316Y-103225017D01*
X120011316Y-103374983D01*
X119982059Y-103522068D01*
X119924670Y-103660619D01*
X119841353Y-103785311D01*
X119735311Y-103891353D01*
X119610619Y-103974670D01*
X119472068Y-104032059D01*
X119324983Y-104061316D01*
X119175017Y-104061316D01*
X119027932Y-104032059D01*
X118889381Y-103974670D01*
X118764689Y-103891353D01*
X118658647Y-103785311D01*
X118575330Y-103660619D01*
X118517941Y-103522068D01*
X118488684Y-103374983D01*
X118488684Y-103225017D01*
X118517941Y-103077932D01*
X118575330Y-102939381D01*
X118658647Y-102814689D01*
X118764689Y-102708647D01*
X118889381Y-102625330D01*
X119027932Y-102567941D01*
X119175017Y-102538684D01*
X119324983Y-102538684D01*
X119472068Y-102567941D01*
G37*
G36*
X122012068Y-102567941D02*
G01*
X122150619Y-102625330D01*
X122275311Y-102708647D01*
X122381353Y-102814689D01*
X122464670Y-102939381D01*
X122522059Y-103077932D01*
X122551316Y-103225017D01*
X122551316Y-103374983D01*
X122522059Y-103522068D01*
X122464670Y-103660619D01*
X122381353Y-103785311D01*
X122275311Y-103891353D01*
X122150619Y-103974670D01*
X122012068Y-104032059D01*
X121864983Y-104061316D01*
X121715017Y-104061316D01*
X121567932Y-104032059D01*
X121429381Y-103974670D01*
X121304689Y-103891353D01*
X121198647Y-103785311D01*
X121115330Y-103660619D01*
X121057941Y-103522068D01*
X121028684Y-103374983D01*
X121028684Y-103225017D01*
X121057941Y-103077932D01*
X121115330Y-102939381D01*
X121198647Y-102814689D01*
X121304689Y-102708647D01*
X121429381Y-102625330D01*
X121567932Y-102567941D01*
X121715017Y-102538684D01*
X121864983Y-102538684D01*
X122012068Y-102567941D01*
G37*
G36*
X180472068Y-102567941D02*
G01*
X180610619Y-102625330D01*
X180735311Y-102708647D01*
X180841353Y-102814689D01*
X180924670Y-102939381D01*
X180982059Y-103077932D01*
X181011316Y-103225017D01*
X181011316Y-103374983D01*
X180982059Y-103522068D01*
X180924670Y-103660619D01*
X180841353Y-103785311D01*
X180735311Y-103891353D01*
X180610619Y-103974670D01*
X180472068Y-104032059D01*
X180324983Y-104061316D01*
X180175017Y-104061316D01*
X180027932Y-104032059D01*
X179889381Y-103974670D01*
X179764689Y-103891353D01*
X179658647Y-103785311D01*
X179575330Y-103660619D01*
X179517941Y-103522068D01*
X179488684Y-103374983D01*
X179488684Y-103225017D01*
X179517941Y-103077932D01*
X179575330Y-102939381D01*
X179658647Y-102814689D01*
X179764689Y-102708647D01*
X179889381Y-102625330D01*
X180027932Y-102567941D01*
X180175017Y-102538684D01*
X180324983Y-102538684D01*
X180472068Y-102567941D01*
G37*
G36*
X183012068Y-102567941D02*
G01*
X183150619Y-102625330D01*
X183275311Y-102708647D01*
X183381353Y-102814689D01*
X183464670Y-102939381D01*
X183522059Y-103077932D01*
X183551316Y-103225017D01*
X183551316Y-103374983D01*
X183522059Y-103522068D01*
X183464670Y-103660619D01*
X183381353Y-103785311D01*
X183275311Y-103891353D01*
X183150619Y-103974670D01*
X183012068Y-104032059D01*
X182864983Y-104061316D01*
X182715017Y-104061316D01*
X182567932Y-104032059D01*
X182429381Y-103974670D01*
X182304689Y-103891353D01*
X182198647Y-103785311D01*
X182115330Y-103660619D01*
X182057941Y-103522068D01*
X182028684Y-103374983D01*
X182028684Y-103225017D01*
X182057941Y-103077932D01*
X182115330Y-102939381D01*
X182198647Y-102814689D01*
X182304689Y-102708647D01*
X182429381Y-102625330D01*
X182567932Y-102567941D01*
X182715017Y-102538684D01*
X182864983Y-102538684D01*
X183012068Y-102567941D01*
G37*
G36*
X119472068Y-100027941D02*
G01*
X119610619Y-100085330D01*
X119735311Y-100168647D01*
X119841353Y-100274689D01*
X119924670Y-100399381D01*
X119982059Y-100537932D01*
X120011316Y-100685017D01*
X120011316Y-100834983D01*
X119982059Y-100982068D01*
X119924670Y-101120619D01*
X119841353Y-101245311D01*
X119735311Y-101351353D01*
X119610619Y-101434670D01*
X119472068Y-101492059D01*
X119324983Y-101521316D01*
X119175017Y-101521316D01*
X119027932Y-101492059D01*
X118889381Y-101434670D01*
X118764689Y-101351353D01*
X118658647Y-101245311D01*
X118575330Y-101120619D01*
X118517941Y-100982068D01*
X118488684Y-100834983D01*
X118488684Y-100685017D01*
X118517941Y-100537932D01*
X118575330Y-100399381D01*
X118658647Y-100274689D01*
X118764689Y-100168647D01*
X118889381Y-100085330D01*
X119027932Y-100027941D01*
X119175017Y-99998684D01*
X119324983Y-99998684D01*
X119472068Y-100027941D01*
G37*
G36*
X122012068Y-100027941D02*
G01*
X122150619Y-100085330D01*
X122275311Y-100168647D01*
X122381353Y-100274689D01*
X122464670Y-100399381D01*
X122522059Y-100537932D01*
X122551316Y-100685017D01*
X122551316Y-100834983D01*
X122522059Y-100982068D01*
X122464670Y-101120619D01*
X122381353Y-101245311D01*
X122275311Y-101351353D01*
X122150619Y-101434670D01*
X122012068Y-101492059D01*
X121864983Y-101521316D01*
X121715017Y-101521316D01*
X121567932Y-101492059D01*
X121429381Y-101434670D01*
X121304689Y-101351353D01*
X121198647Y-101245311D01*
X121115330Y-101120619D01*
X121057941Y-100982068D01*
X121028684Y-100834983D01*
X121028684Y-100685017D01*
X121057941Y-100537932D01*
X121115330Y-100399381D01*
X121198647Y-100274689D01*
X121304689Y-100168647D01*
X121429381Y-100085330D01*
X121567932Y-100027941D01*
X121715017Y-99998684D01*
X121864983Y-99998684D01*
X122012068Y-100027941D01*
G37*
G36*
X180472068Y-100027941D02*
G01*
X180610619Y-100085330D01*
X180735311Y-100168647D01*
X180841353Y-100274689D01*
X180924670Y-100399381D01*
X180982059Y-100537932D01*
X181011316Y-100685017D01*
X181011316Y-100834983D01*
X180982059Y-100982068D01*
X180924670Y-101120619D01*
X180841353Y-101245311D01*
X180735311Y-101351353D01*
X180610619Y-101434670D01*
X180472068Y-101492059D01*
X180324983Y-101521316D01*
X180175017Y-101521316D01*
X180027932Y-101492059D01*
X179889381Y-101434670D01*
X179764689Y-101351353D01*
X179658647Y-101245311D01*
X179575330Y-101120619D01*
X179517941Y-100982068D01*
X179488684Y-100834983D01*
X179488684Y-100685017D01*
X179517941Y-100537932D01*
X179575330Y-100399381D01*
X179658647Y-100274689D01*
X179764689Y-100168647D01*
X179889381Y-100085330D01*
X180027932Y-100027941D01*
X180175017Y-99998684D01*
X180324983Y-99998684D01*
X180472068Y-100027941D01*
G37*
G36*
X183012068Y-100027941D02*
G01*
X183150619Y-100085330D01*
X183275311Y-100168647D01*
X183381353Y-100274689D01*
X183464670Y-100399381D01*
X183522059Y-100537932D01*
X183551316Y-100685017D01*
X183551316Y-100834983D01*
X183522059Y-100982068D01*
X183464670Y-101120619D01*
X183381353Y-101245311D01*
X183275311Y-101351353D01*
X183150619Y-101434670D01*
X183012068Y-101492059D01*
X182864983Y-101521316D01*
X182715017Y-101521316D01*
X182567932Y-101492059D01*
X182429381Y-101434670D01*
X182304689Y-101351353D01*
X182198647Y-101245311D01*
X182115330Y-101120619D01*
X182057941Y-100982068D01*
X182028684Y-100834983D01*
X182028684Y-100685017D01*
X182057941Y-100537932D01*
X182115330Y-100399381D01*
X182198647Y-100274689D01*
X182304689Y-100168647D01*
X182429381Y-100085330D01*
X182567932Y-100027941D01*
X182715017Y-99998684D01*
X182864983Y-99998684D01*
X183012068Y-100027941D01*
G37*
G36*
X152040730Y-99925642D02*
G01*
X152090412Y-99931406D01*
X152107389Y-99938902D01*
X152128387Y-99943079D01*
X152150867Y-99958099D01*
X152171326Y-99967133D01*
X152185298Y-99981105D01*
X152205438Y-99994562D01*
X152218894Y-100014701D01*
X152232866Y-100028673D01*
X152241899Y-100049130D01*
X152256921Y-100071613D01*
X152261098Y-100092611D01*
X152268592Y-100109584D01*
X152274353Y-100159247D01*
X152275000Y-100162500D01*
X152275000Y-100637500D01*
X152274354Y-100640742D01*
X152268593Y-100690412D01*
X152261098Y-100707385D01*
X152256921Y-100728387D01*
X152241897Y-100750871D01*
X152232866Y-100771326D01*
X152218896Y-100785295D01*
X152205438Y-100805438D01*
X152185295Y-100818896D01*
X152171326Y-100832866D01*
X152150871Y-100841897D01*
X152128387Y-100856921D01*
X152107386Y-100861098D01*
X152090415Y-100868592D01*
X152040753Y-100874352D01*
X152037500Y-100875000D01*
X151437500Y-100875000D01*
X151434258Y-100874355D01*
X151384587Y-100868593D01*
X151367613Y-100861098D01*
X151346613Y-100856921D01*
X151324130Y-100841898D01*
X151303673Y-100832866D01*
X151289701Y-100818894D01*
X151269562Y-100805438D01*
X151256105Y-100785298D01*
X151242133Y-100771326D01*
X151233099Y-100750866D01*
X151218079Y-100728387D01*
X151213902Y-100707390D01*
X151206407Y-100690415D01*
X151200644Y-100640741D01*
X151200000Y-100637500D01*
X151200000Y-100162500D01*
X151200642Y-100159270D01*
X151206406Y-100109587D01*
X151213902Y-100092608D01*
X151218079Y-100071613D01*
X151233098Y-100049134D01*
X151242133Y-100028673D01*
X151256107Y-100014698D01*
X151269562Y-99994562D01*
X151289698Y-99981107D01*
X151303673Y-99967133D01*
X151324135Y-99958098D01*
X151346613Y-99943079D01*
X151367607Y-99938902D01*
X151384584Y-99931407D01*
X151434259Y-99925644D01*
X151437500Y-99925000D01*
X152037500Y-99925000D01*
X152040730Y-99925642D01*
G37*
G36*
X153765730Y-99925642D02*
G01*
X153815412Y-99931406D01*
X153832389Y-99938902D01*
X153853387Y-99943079D01*
X153875867Y-99958099D01*
X153896326Y-99967133D01*
X153910298Y-99981105D01*
X153930438Y-99994562D01*
X153943894Y-100014701D01*
X153957866Y-100028673D01*
X153966899Y-100049130D01*
X153981921Y-100071613D01*
X153986098Y-100092611D01*
X153993592Y-100109584D01*
X153999353Y-100159247D01*
X154000000Y-100162500D01*
X154000000Y-100637500D01*
X153999354Y-100640742D01*
X153993593Y-100690412D01*
X153986098Y-100707385D01*
X153981921Y-100728387D01*
X153966897Y-100750871D01*
X153957866Y-100771326D01*
X153943896Y-100785295D01*
X153930438Y-100805438D01*
X153910295Y-100818896D01*
X153896326Y-100832866D01*
X153875871Y-100841897D01*
X153853387Y-100856921D01*
X153832386Y-100861098D01*
X153815415Y-100868592D01*
X153765753Y-100874352D01*
X153762500Y-100875000D01*
X153162500Y-100875000D01*
X153159258Y-100874355D01*
X153109587Y-100868593D01*
X153092613Y-100861098D01*
X153071613Y-100856921D01*
X153049130Y-100841898D01*
X153028673Y-100832866D01*
X153014701Y-100818894D01*
X152994562Y-100805438D01*
X152981105Y-100785298D01*
X152967133Y-100771326D01*
X152958099Y-100750866D01*
X152943079Y-100728387D01*
X152938902Y-100707390D01*
X152931407Y-100690415D01*
X152925644Y-100640741D01*
X152925000Y-100637500D01*
X152925000Y-100162500D01*
X152925642Y-100159270D01*
X152931406Y-100109587D01*
X152938902Y-100092608D01*
X152943079Y-100071613D01*
X152958098Y-100049134D01*
X152967133Y-100028673D01*
X152981107Y-100014698D01*
X152994562Y-99994562D01*
X153014698Y-99981107D01*
X153028673Y-99967133D01*
X153049135Y-99958098D01*
X153071613Y-99943079D01*
X153092607Y-99938902D01*
X153109584Y-99931407D01*
X153159259Y-99925644D01*
X153162500Y-99925000D01*
X153762500Y-99925000D01*
X153765730Y-99925642D01*
G37*
G36*
X158040730Y-99775642D02*
G01*
X158090412Y-99781406D01*
X158107389Y-99788902D01*
X158128387Y-99793079D01*
X158150867Y-99808099D01*
X158171326Y-99817133D01*
X158185298Y-99831105D01*
X158205438Y-99844562D01*
X158218894Y-99864701D01*
X158232866Y-99878673D01*
X158241899Y-99899130D01*
X158256921Y-99921613D01*
X158261098Y-99942611D01*
X158268592Y-99959584D01*
X158274353Y-100009247D01*
X158275000Y-100012500D01*
X158275000Y-100487500D01*
X158274354Y-100490742D01*
X158268593Y-100540412D01*
X158261098Y-100557385D01*
X158256921Y-100578387D01*
X158241897Y-100600871D01*
X158232866Y-100621326D01*
X158218896Y-100635295D01*
X158205438Y-100655438D01*
X158185295Y-100668896D01*
X158171326Y-100682866D01*
X158150871Y-100691897D01*
X158128387Y-100706921D01*
X158107386Y-100711098D01*
X158090415Y-100718592D01*
X158040753Y-100724352D01*
X158037500Y-100725000D01*
X157437500Y-100725000D01*
X157434258Y-100724355D01*
X157384587Y-100718593D01*
X157367613Y-100711098D01*
X157346613Y-100706921D01*
X157324130Y-100691898D01*
X157303673Y-100682866D01*
X157289701Y-100668894D01*
X157269562Y-100655438D01*
X157256105Y-100635298D01*
X157242133Y-100621326D01*
X157233099Y-100600866D01*
X157218079Y-100578387D01*
X157213902Y-100557390D01*
X157206407Y-100540415D01*
X157200644Y-100490741D01*
X157200000Y-100487500D01*
X157200000Y-100012500D01*
X157200642Y-100009270D01*
X157206406Y-99959587D01*
X157213902Y-99942608D01*
X157218079Y-99921613D01*
X157233098Y-99899134D01*
X157242133Y-99878673D01*
X157256107Y-99864698D01*
X157269562Y-99844562D01*
X157289698Y-99831107D01*
X157303673Y-99817133D01*
X157324135Y-99808098D01*
X157346613Y-99793079D01*
X157367607Y-99788902D01*
X157384584Y-99781407D01*
X157434259Y-99775644D01*
X157437500Y-99775000D01*
X158037500Y-99775000D01*
X158040730Y-99775642D01*
G37*
G36*
X159765730Y-99775642D02*
G01*
X159815412Y-99781406D01*
X159832389Y-99788902D01*
X159853387Y-99793079D01*
X159875867Y-99808099D01*
X159896326Y-99817133D01*
X159910298Y-99831105D01*
X159930438Y-99844562D01*
X159943894Y-99864701D01*
X159957866Y-99878673D01*
X159966899Y-99899130D01*
X159981921Y-99921613D01*
X159986098Y-99942611D01*
X159993592Y-99959584D01*
X159999353Y-100009247D01*
X160000000Y-100012500D01*
X160000000Y-100487500D01*
X159999354Y-100490742D01*
X159993593Y-100540412D01*
X159986098Y-100557385D01*
X159981921Y-100578387D01*
X159966897Y-100600871D01*
X159957866Y-100621326D01*
X159943896Y-100635295D01*
X159930438Y-100655438D01*
X159910295Y-100668896D01*
X159896326Y-100682866D01*
X159875871Y-100691897D01*
X159853387Y-100706921D01*
X159832386Y-100711098D01*
X159815415Y-100718592D01*
X159765753Y-100724352D01*
X159762500Y-100725000D01*
X159162500Y-100725000D01*
X159159258Y-100724355D01*
X159109587Y-100718593D01*
X159092613Y-100711098D01*
X159071613Y-100706921D01*
X159049130Y-100691898D01*
X159028673Y-100682866D01*
X159014701Y-100668894D01*
X158994562Y-100655438D01*
X158981105Y-100635298D01*
X158967133Y-100621326D01*
X158958099Y-100600866D01*
X158943079Y-100578387D01*
X158938902Y-100557390D01*
X158931407Y-100540415D01*
X158925644Y-100490741D01*
X158925000Y-100487500D01*
X158925000Y-100012500D01*
X158925642Y-100009270D01*
X158931406Y-99959587D01*
X158938902Y-99942608D01*
X158943079Y-99921613D01*
X158958098Y-99899134D01*
X158967133Y-99878673D01*
X158981107Y-99864698D01*
X158994562Y-99844562D01*
X159014698Y-99831107D01*
X159028673Y-99817133D01*
X159049135Y-99808098D01*
X159071613Y-99793079D01*
X159092607Y-99788902D01*
X159109584Y-99781407D01*
X159159259Y-99775644D01*
X159162500Y-99775000D01*
X159762500Y-99775000D01*
X159765730Y-99775642D01*
G37*
G36*
X119472068Y-97487941D02*
G01*
X119610619Y-97545330D01*
X119735311Y-97628647D01*
X119841353Y-97734689D01*
X119924670Y-97859381D01*
X119982059Y-97997932D01*
X120011316Y-98145017D01*
X120011316Y-98294983D01*
X119982059Y-98442068D01*
X119924670Y-98580619D01*
X119841353Y-98705311D01*
X119735311Y-98811353D01*
X119610619Y-98894670D01*
X119472068Y-98952059D01*
X119324983Y-98981316D01*
X119175017Y-98981316D01*
X119027932Y-98952059D01*
X118889381Y-98894670D01*
X118764689Y-98811353D01*
X118658647Y-98705311D01*
X118575330Y-98580619D01*
X118517941Y-98442068D01*
X118488684Y-98294983D01*
X118488684Y-98145017D01*
X118517941Y-97997932D01*
X118575330Y-97859381D01*
X118658647Y-97734689D01*
X118764689Y-97628647D01*
X118889381Y-97545330D01*
X119027932Y-97487941D01*
X119175017Y-97458684D01*
X119324983Y-97458684D01*
X119472068Y-97487941D01*
G37*
G36*
X122012068Y-97487941D02*
G01*
X122150619Y-97545330D01*
X122275311Y-97628647D01*
X122381353Y-97734689D01*
X122464670Y-97859381D01*
X122522059Y-97997932D01*
X122551316Y-98145017D01*
X122551316Y-98294983D01*
X122522059Y-98442068D01*
X122464670Y-98580619D01*
X122381353Y-98705311D01*
X122275311Y-98811353D01*
X122150619Y-98894670D01*
X122012068Y-98952059D01*
X121864983Y-98981316D01*
X121715017Y-98981316D01*
X121567932Y-98952059D01*
X121429381Y-98894670D01*
X121304689Y-98811353D01*
X121198647Y-98705311D01*
X121115330Y-98580619D01*
X121057941Y-98442068D01*
X121028684Y-98294983D01*
X121028684Y-98145017D01*
X121057941Y-97997932D01*
X121115330Y-97859381D01*
X121198647Y-97734689D01*
X121304689Y-97628647D01*
X121429381Y-97545330D01*
X121567932Y-97487941D01*
X121715017Y-97458684D01*
X121864983Y-97458684D01*
X122012068Y-97487941D01*
G37*
G36*
X180472068Y-97487941D02*
G01*
X180610619Y-97545330D01*
X180735311Y-97628647D01*
X180841353Y-97734689D01*
X180924670Y-97859381D01*
X180982059Y-97997932D01*
X181011316Y-98145017D01*
X181011316Y-98294983D01*
X180982059Y-98442068D01*
X180924670Y-98580619D01*
X180841353Y-98705311D01*
X180735311Y-98811353D01*
X180610619Y-98894670D01*
X180472068Y-98952059D01*
X180324983Y-98981316D01*
X180175017Y-98981316D01*
X180027932Y-98952059D01*
X179889381Y-98894670D01*
X179764689Y-98811353D01*
X179658647Y-98705311D01*
X179575330Y-98580619D01*
X179517941Y-98442068D01*
X179488684Y-98294983D01*
X179488684Y-98145017D01*
X179517941Y-97997932D01*
X179575330Y-97859381D01*
X179658647Y-97734689D01*
X179764689Y-97628647D01*
X179889381Y-97545330D01*
X180027932Y-97487941D01*
X180175017Y-97458684D01*
X180324983Y-97458684D01*
X180472068Y-97487941D01*
G37*
G36*
X183012068Y-97487941D02*
G01*
X183150619Y-97545330D01*
X183275311Y-97628647D01*
X183381353Y-97734689D01*
X183464670Y-97859381D01*
X183522059Y-97997932D01*
X183551316Y-98145017D01*
X183551316Y-98294983D01*
X183522059Y-98442068D01*
X183464670Y-98580619D01*
X183381353Y-98705311D01*
X183275311Y-98811353D01*
X183150619Y-98894670D01*
X183012068Y-98952059D01*
X182864983Y-98981316D01*
X182715017Y-98981316D01*
X182567932Y-98952059D01*
X182429381Y-98894670D01*
X182304689Y-98811353D01*
X182198647Y-98705311D01*
X182115330Y-98580619D01*
X182057941Y-98442068D01*
X182028684Y-98294983D01*
X182028684Y-98145017D01*
X182057941Y-97997932D01*
X182115330Y-97859381D01*
X182198647Y-97734689D01*
X182304689Y-97628647D01*
X182429381Y-97545330D01*
X182567932Y-97487941D01*
X182715017Y-97458684D01*
X182864983Y-97458684D01*
X183012068Y-97487941D01*
G37*
G36*
X151300000Y-97500000D02*
G01*
X150300000Y-97500000D01*
X150300000Y-96500000D01*
X151300000Y-96500000D01*
X151300000Y-97500000D01*
G37*
G36*
X134228229Y-95225642D02*
G01*
X134280773Y-95231738D01*
X134298726Y-95239665D01*
X134320670Y-95244030D01*
X134344162Y-95259727D01*
X134365890Y-95269321D01*
X134380730Y-95284161D01*
X134401776Y-95298224D01*
X134415838Y-95319269D01*
X134430678Y-95334109D01*
X134440271Y-95355835D01*
X134455970Y-95379330D01*
X134460334Y-95401275D01*
X134468261Y-95419226D01*
X134474359Y-95471784D01*
X134474999Y-95475002D01*
X134474999Y-95477300D01*
X134475000Y-95477309D01*
X134475000Y-96300000D01*
X134475000Y-97074999D01*
X134474357Y-97078231D01*
X134468261Y-97130773D01*
X134460335Y-97148722D01*
X134455970Y-97170670D01*
X134440269Y-97194166D01*
X134430678Y-97215890D01*
X134415840Y-97230727D01*
X134401776Y-97251776D01*
X134380727Y-97265840D01*
X134365890Y-97280678D01*
X134344166Y-97290269D01*
X134320670Y-97305970D01*
X134298723Y-97310335D01*
X134280773Y-97318261D01*
X134228217Y-97324358D01*
X134224998Y-97324999D01*
X134222698Y-97324999D01*
X134222690Y-97325000D01*
X129277310Y-97325000D01*
X129277309Y-97324999D01*
X129275001Y-97325000D01*
X129271769Y-97324357D01*
X129219226Y-97318261D01*
X129201276Y-97310335D01*
X129179330Y-97305970D01*
X129155835Y-97290271D01*
X129134109Y-97280678D01*
X129119269Y-97265838D01*
X129098224Y-97251776D01*
X129084161Y-97230730D01*
X129069321Y-97215890D01*
X129059727Y-97194162D01*
X129044030Y-97170670D01*
X129039665Y-97148727D01*
X129031738Y-97130773D01*
X129025641Y-97078215D01*
X129025001Y-97074998D01*
X129025000Y-97072698D01*
X129025000Y-97072690D01*
X129025000Y-95477309D01*
X129025000Y-95477308D01*
X129025000Y-95475001D01*
X129025642Y-95471771D01*
X129031738Y-95419226D01*
X129039665Y-95401272D01*
X129044030Y-95379330D01*
X129059725Y-95355839D01*
X129069321Y-95334109D01*
X129084164Y-95319265D01*
X129098224Y-95298224D01*
X129119265Y-95284164D01*
X129134109Y-95269321D01*
X129155839Y-95259725D01*
X129179330Y-95244030D01*
X129201270Y-95239665D01*
X129219226Y-95231738D01*
X129271784Y-95225641D01*
X129275002Y-95225001D01*
X129277301Y-95225000D01*
X129277310Y-95225000D01*
X134222690Y-95225000D01*
X134224999Y-95225000D01*
X134228229Y-95225642D01*
G37*
G36*
X157700000Y-97300000D02*
G01*
X156700000Y-97300000D01*
X156700000Y-96300000D01*
X157700000Y-96300000D01*
X157700000Y-97300000D01*
G37*
G36*
X119472068Y-94947941D02*
G01*
X119610619Y-95005330D01*
X119735311Y-95088647D01*
X119841353Y-95194689D01*
X119924670Y-95319381D01*
X119982059Y-95457932D01*
X120011316Y-95605017D01*
X120011316Y-95754983D01*
X119982059Y-95902068D01*
X119924670Y-96040619D01*
X119841353Y-96165311D01*
X119735311Y-96271353D01*
X119610619Y-96354670D01*
X119472068Y-96412059D01*
X119324983Y-96441316D01*
X119175017Y-96441316D01*
X119027932Y-96412059D01*
X118889381Y-96354670D01*
X118764689Y-96271353D01*
X118658647Y-96165311D01*
X118575330Y-96040619D01*
X118517941Y-95902068D01*
X118488684Y-95754983D01*
X118488684Y-95605017D01*
X118517941Y-95457932D01*
X118575330Y-95319381D01*
X118658647Y-95194689D01*
X118764689Y-95088647D01*
X118889381Y-95005330D01*
X119027932Y-94947941D01*
X119175017Y-94918684D01*
X119324983Y-94918684D01*
X119472068Y-94947941D01*
G37*
G36*
X122012068Y-94947941D02*
G01*
X122150619Y-95005330D01*
X122275311Y-95088647D01*
X122381353Y-95194689D01*
X122464670Y-95319381D01*
X122522059Y-95457932D01*
X122551316Y-95605017D01*
X122551316Y-95754983D01*
X122522059Y-95902068D01*
X122464670Y-96040619D01*
X122381353Y-96165311D01*
X122275311Y-96271353D01*
X122150619Y-96354670D01*
X122012068Y-96412059D01*
X121864983Y-96441316D01*
X121715017Y-96441316D01*
X121567932Y-96412059D01*
X121429381Y-96354670D01*
X121304689Y-96271353D01*
X121198647Y-96165311D01*
X121115330Y-96040619D01*
X121057941Y-95902068D01*
X121028684Y-95754983D01*
X121028684Y-95605017D01*
X121057941Y-95457932D01*
X121115330Y-95319381D01*
X121198647Y-95194689D01*
X121304689Y-95088647D01*
X121429381Y-95005330D01*
X121567932Y-94947941D01*
X121715017Y-94918684D01*
X121864983Y-94918684D01*
X122012068Y-94947941D01*
G37*
G36*
X180472068Y-94947941D02*
G01*
X180610619Y-95005330D01*
X180735311Y-95088647D01*
X180841353Y-95194689D01*
X180924670Y-95319381D01*
X180982059Y-95457932D01*
X181011316Y-95605017D01*
X181011316Y-95754983D01*
X180982059Y-95902068D01*
X180924670Y-96040619D01*
X180841353Y-96165311D01*
X180735311Y-96271353D01*
X180610619Y-96354670D01*
X180472068Y-96412059D01*
X180324983Y-96441316D01*
X180175017Y-96441316D01*
X180027932Y-96412059D01*
X179889381Y-96354670D01*
X179764689Y-96271353D01*
X179658647Y-96165311D01*
X179575330Y-96040619D01*
X179517941Y-95902068D01*
X179488684Y-95754983D01*
X179488684Y-95605017D01*
X179517941Y-95457932D01*
X179575330Y-95319381D01*
X179658647Y-95194689D01*
X179764689Y-95088647D01*
X179889381Y-95005330D01*
X180027932Y-94947941D01*
X180175017Y-94918684D01*
X180324983Y-94918684D01*
X180472068Y-94947941D01*
G37*
G36*
X183012068Y-94947941D02*
G01*
X183150619Y-95005330D01*
X183275311Y-95088647D01*
X183381353Y-95194689D01*
X183464670Y-95319381D01*
X183522059Y-95457932D01*
X183551316Y-95605017D01*
X183551316Y-95754983D01*
X183522059Y-95902068D01*
X183464670Y-96040619D01*
X183381353Y-96165311D01*
X183275311Y-96271353D01*
X183150619Y-96354670D01*
X183012068Y-96412059D01*
X182864983Y-96441316D01*
X182715017Y-96441316D01*
X182567932Y-96412059D01*
X182429381Y-96354670D01*
X182304689Y-96271353D01*
X182198647Y-96165311D01*
X182115330Y-96040619D01*
X182057941Y-95902068D01*
X182028684Y-95754983D01*
X182028684Y-95605017D01*
X182057941Y-95457932D01*
X182115330Y-95319381D01*
X182198647Y-95194689D01*
X182304689Y-95088647D01*
X182429381Y-95005330D01*
X182567932Y-94947941D01*
X182715017Y-94918684D01*
X182864983Y-94918684D01*
X183012068Y-94947941D01*
G37*
G36*
X137678230Y-94775642D02*
G01*
X137727912Y-94781406D01*
X137744889Y-94788902D01*
X137765887Y-94793079D01*
X137788367Y-94808099D01*
X137808826Y-94817133D01*
X137822798Y-94831105D01*
X137842938Y-94844562D01*
X137856394Y-94864701D01*
X137870366Y-94878673D01*
X137879399Y-94899130D01*
X137894421Y-94921613D01*
X137898598Y-94942611D01*
X137906092Y-94959584D01*
X137911853Y-95009247D01*
X137912500Y-95012500D01*
X137912500Y-95487500D01*
X137911854Y-95490742D01*
X137906093Y-95540412D01*
X137898598Y-95557385D01*
X137894421Y-95578387D01*
X137879397Y-95600871D01*
X137870366Y-95621326D01*
X137856396Y-95635295D01*
X137842938Y-95655438D01*
X137822795Y-95668896D01*
X137808826Y-95682866D01*
X137788371Y-95691897D01*
X137765887Y-95706921D01*
X137744886Y-95711098D01*
X137727915Y-95718592D01*
X137678253Y-95724352D01*
X137675000Y-95725000D01*
X137175000Y-95725000D01*
X137171758Y-95724355D01*
X137122087Y-95718593D01*
X137105113Y-95711098D01*
X137084113Y-95706921D01*
X137061630Y-95691898D01*
X137041173Y-95682866D01*
X137027201Y-95668894D01*
X137007062Y-95655438D01*
X136993605Y-95635298D01*
X136979633Y-95621326D01*
X136970599Y-95600866D01*
X136955579Y-95578387D01*
X136951402Y-95557390D01*
X136943907Y-95540415D01*
X136938144Y-95490741D01*
X136937500Y-95487500D01*
X136937500Y-95012500D01*
X136938142Y-95009270D01*
X136943906Y-94959587D01*
X136951402Y-94942608D01*
X136955579Y-94921613D01*
X136970598Y-94899134D01*
X136979633Y-94878673D01*
X136993607Y-94864698D01*
X137007062Y-94844562D01*
X137027198Y-94831107D01*
X137041173Y-94817133D01*
X137061635Y-94808098D01*
X137084113Y-94793079D01*
X137105107Y-94788902D01*
X137122084Y-94781407D01*
X137171759Y-94775644D01*
X137175000Y-94775000D01*
X137675000Y-94775000D01*
X137678230Y-94775642D01*
G37*
G36*
X139503230Y-94775642D02*
G01*
X139552912Y-94781406D01*
X139569889Y-94788902D01*
X139590887Y-94793079D01*
X139613367Y-94808099D01*
X139633826Y-94817133D01*
X139647798Y-94831105D01*
X139667938Y-94844562D01*
X139681394Y-94864701D01*
X139695366Y-94878673D01*
X139704399Y-94899130D01*
X139719421Y-94921613D01*
X139723598Y-94942611D01*
X139731092Y-94959584D01*
X139736853Y-95009247D01*
X139737500Y-95012500D01*
X139737500Y-95487500D01*
X139736854Y-95490742D01*
X139731093Y-95540412D01*
X139723598Y-95557385D01*
X139719421Y-95578387D01*
X139704397Y-95600871D01*
X139695366Y-95621326D01*
X139681396Y-95635295D01*
X139667938Y-95655438D01*
X139647795Y-95668896D01*
X139633826Y-95682866D01*
X139613371Y-95691897D01*
X139590887Y-95706921D01*
X139569886Y-95711098D01*
X139552915Y-95718592D01*
X139503253Y-95724352D01*
X139500000Y-95725000D01*
X139000000Y-95725000D01*
X138996758Y-95724355D01*
X138947087Y-95718593D01*
X138930113Y-95711098D01*
X138909113Y-95706921D01*
X138886630Y-95691898D01*
X138866173Y-95682866D01*
X138852201Y-95668894D01*
X138832062Y-95655438D01*
X138818605Y-95635298D01*
X138804633Y-95621326D01*
X138795599Y-95600866D01*
X138780579Y-95578387D01*
X138776402Y-95557390D01*
X138768907Y-95540415D01*
X138763144Y-95490741D01*
X138762500Y-95487500D01*
X138762500Y-95012500D01*
X138763142Y-95009270D01*
X138768906Y-94959587D01*
X138776402Y-94942608D01*
X138780579Y-94921613D01*
X138795598Y-94899134D01*
X138804633Y-94878673D01*
X138818607Y-94864698D01*
X138832062Y-94844562D01*
X138852198Y-94831107D01*
X138866173Y-94817133D01*
X138886635Y-94808098D01*
X138909113Y-94793079D01*
X138930107Y-94788902D01*
X138947084Y-94781407D01*
X138996759Y-94775644D01*
X139000000Y-94775000D01*
X139500000Y-94775000D01*
X139503230Y-94775642D01*
G37*
G36*
X132211104Y-93217127D02*
G01*
X132284099Y-93265901D01*
X132332873Y-93338896D01*
X132350000Y-93425000D01*
X132350000Y-93875000D01*
X132332873Y-93961104D01*
X132284099Y-94034099D01*
X132211104Y-94082873D01*
X132125000Y-94100000D01*
X131375000Y-94100000D01*
X131288896Y-94082873D01*
X131215901Y-94034099D01*
X131167127Y-93961104D01*
X131150000Y-93875000D01*
X131150000Y-93425000D01*
X131167127Y-93338896D01*
X131215901Y-93265901D01*
X131288896Y-93217127D01*
X131375000Y-93200000D01*
X132125000Y-93200000D01*
X132211104Y-93217127D01*
G37*
G36*
X119472068Y-92407941D02*
G01*
X119610619Y-92465330D01*
X119735311Y-92548647D01*
X119841353Y-92654689D01*
X119924670Y-92779381D01*
X119982059Y-92917932D01*
X120011316Y-93065017D01*
X120011316Y-93214983D01*
X119982059Y-93362068D01*
X119924670Y-93500619D01*
X119841353Y-93625311D01*
X119735311Y-93731353D01*
X119610619Y-93814670D01*
X119472068Y-93872059D01*
X119324983Y-93901316D01*
X119175017Y-93901316D01*
X119027932Y-93872059D01*
X118889381Y-93814670D01*
X118764689Y-93731353D01*
X118658647Y-93625311D01*
X118575330Y-93500619D01*
X118517941Y-93362068D01*
X118488684Y-93214983D01*
X118488684Y-93065017D01*
X118517941Y-92917932D01*
X118575330Y-92779381D01*
X118658647Y-92654689D01*
X118764689Y-92548647D01*
X118889381Y-92465330D01*
X119027932Y-92407941D01*
X119175017Y-92378684D01*
X119324983Y-92378684D01*
X119472068Y-92407941D01*
G37*
G36*
X122012068Y-92407941D02*
G01*
X122150619Y-92465330D01*
X122275311Y-92548647D01*
X122381353Y-92654689D01*
X122464670Y-92779381D01*
X122522059Y-92917932D01*
X122551316Y-93065017D01*
X122551316Y-93214983D01*
X122522059Y-93362068D01*
X122464670Y-93500619D01*
X122381353Y-93625311D01*
X122275311Y-93731353D01*
X122150619Y-93814670D01*
X122012068Y-93872059D01*
X121864983Y-93901316D01*
X121715017Y-93901316D01*
X121567932Y-93872059D01*
X121429381Y-93814670D01*
X121304689Y-93731353D01*
X121198647Y-93625311D01*
X121115330Y-93500619D01*
X121057941Y-93362068D01*
X121028684Y-93214983D01*
X121028684Y-93065017D01*
X121057941Y-92917932D01*
X121115330Y-92779381D01*
X121198647Y-92654689D01*
X121304689Y-92548647D01*
X121429381Y-92465330D01*
X121567932Y-92407941D01*
X121715017Y-92378684D01*
X121864983Y-92378684D01*
X122012068Y-92407941D01*
G37*
G36*
X180472068Y-92407941D02*
G01*
X180610619Y-92465330D01*
X180735311Y-92548647D01*
X180841353Y-92654689D01*
X180924670Y-92779381D01*
X180982059Y-92917932D01*
X181011316Y-93065017D01*
X181011316Y-93214983D01*
X180982059Y-93362068D01*
X180924670Y-93500619D01*
X180841353Y-93625311D01*
X180735311Y-93731353D01*
X180610619Y-93814670D01*
X180472068Y-93872059D01*
X180324983Y-93901316D01*
X180175017Y-93901316D01*
X180027932Y-93872059D01*
X179889381Y-93814670D01*
X179764689Y-93731353D01*
X179658647Y-93625311D01*
X179575330Y-93500619D01*
X179517941Y-93362068D01*
X179488684Y-93214983D01*
X179488684Y-93065017D01*
X179517941Y-92917932D01*
X179575330Y-92779381D01*
X179658647Y-92654689D01*
X179764689Y-92548647D01*
X179889381Y-92465330D01*
X180027932Y-92407941D01*
X180175017Y-92378684D01*
X180324983Y-92378684D01*
X180472068Y-92407941D01*
G37*
G36*
X183012068Y-92407941D02*
G01*
X183150619Y-92465330D01*
X183275311Y-92548647D01*
X183381353Y-92654689D01*
X183464670Y-92779381D01*
X183522059Y-92917932D01*
X183551316Y-93065017D01*
X183551316Y-93214983D01*
X183522059Y-93362068D01*
X183464670Y-93500619D01*
X183381353Y-93625311D01*
X183275311Y-93731353D01*
X183150619Y-93814670D01*
X183012068Y-93872059D01*
X182864983Y-93901316D01*
X182715017Y-93901316D01*
X182567932Y-93872059D01*
X182429381Y-93814670D01*
X182304689Y-93731353D01*
X182198647Y-93625311D01*
X182115330Y-93500619D01*
X182057941Y-93362068D01*
X182028684Y-93214983D01*
X182028684Y-93065017D01*
X182057941Y-92917932D01*
X182115330Y-92779381D01*
X182198647Y-92654689D01*
X182304689Y-92548647D01*
X182429381Y-92465330D01*
X182567932Y-92407941D01*
X182715017Y-92378684D01*
X182864983Y-92378684D01*
X183012068Y-92407941D01*
G37*
G36*
X140003231Y-92750642D02*
G01*
X140055772Y-92756738D01*
X140073723Y-92764664D01*
X140095671Y-92769030D01*
X140119166Y-92784729D01*
X140140890Y-92794321D01*
X140155726Y-92809157D01*
X140176777Y-92823223D01*
X140190842Y-92844273D01*
X140205678Y-92859109D01*
X140215269Y-92880830D01*
X140230970Y-92904329D01*
X140235335Y-92926277D01*
X140243260Y-92944224D01*
X140249352Y-92996747D01*
X140250000Y-93000000D01*
X140250000Y-93500000D01*
X140249354Y-93503243D01*
X140243261Y-93555772D01*
X140235336Y-93573719D01*
X140230970Y-93595671D01*
X140215267Y-93619171D01*
X140205678Y-93640890D01*
X140190844Y-93655723D01*
X140176777Y-93676777D01*
X140155723Y-93690844D01*
X140140890Y-93705678D01*
X140119170Y-93715267D01*
X140095671Y-93730970D01*
X140073720Y-93735336D01*
X140055775Y-93743260D01*
X140003254Y-93749352D01*
X140000000Y-93750000D01*
X139500000Y-93750000D01*
X139496758Y-93749355D01*
X139444227Y-93743261D01*
X139426278Y-93735335D01*
X139404329Y-93730970D01*
X139380830Y-93715268D01*
X139359109Y-93705678D01*
X139344273Y-93690842D01*
X139323223Y-93676777D01*
X139309157Y-93655726D01*
X139294321Y-93640890D01*
X139284729Y-93619166D01*
X139269030Y-93595671D01*
X139264664Y-93573724D01*
X139256739Y-93555775D01*
X139250644Y-93503242D01*
X139250000Y-93500000D01*
X139250000Y-93000000D01*
X139250642Y-92996770D01*
X139256738Y-92944227D01*
X139264664Y-92926274D01*
X139269030Y-92904329D01*
X139284728Y-92880835D01*
X139294321Y-92859109D01*
X139309159Y-92844270D01*
X139323223Y-92823223D01*
X139344270Y-92809159D01*
X139359109Y-92794321D01*
X139380835Y-92784727D01*
X139404329Y-92769030D01*
X139426273Y-92764665D01*
X139444224Y-92756739D01*
X139496759Y-92750644D01*
X139500000Y-92750000D01*
X140000000Y-92750000D01*
X140003231Y-92750642D01*
G37*
G36*
X129000000Y-93500000D02*
G01*
X128000000Y-93500000D01*
X128000000Y-92500000D01*
X129000000Y-92500000D01*
X129000000Y-93500000D01*
G37*
G36*
X137819903Y-92711418D02*
G01*
X137868566Y-92743934D01*
X137901082Y-92792597D01*
X137912500Y-92850000D01*
X137912500Y-93150000D01*
X137901082Y-93207403D01*
X137868566Y-93256066D01*
X137819903Y-93288582D01*
X137762500Y-93300000D01*
X136737500Y-93300000D01*
X136680097Y-93288582D01*
X136631434Y-93256066D01*
X136598918Y-93207403D01*
X136587500Y-93150000D01*
X136587500Y-92850000D01*
X136598918Y-92792597D01*
X136631434Y-92743934D01*
X136680097Y-92711418D01*
X136737500Y-92700000D01*
X137762500Y-92700000D01*
X137819903Y-92711418D01*
G37*
G36*
X135544903Y-91761418D02*
G01*
X135593566Y-91793934D01*
X135626082Y-91842597D01*
X135637500Y-91900000D01*
X135637500Y-92200000D01*
X135626082Y-92257403D01*
X135593566Y-92306066D01*
X135544903Y-92338582D01*
X135487500Y-92350000D01*
X134462500Y-92350000D01*
X134405097Y-92338582D01*
X134356434Y-92306066D01*
X134323918Y-92257403D01*
X134312500Y-92200000D01*
X134312500Y-91900000D01*
X134323918Y-91842597D01*
X134356434Y-91793934D01*
X134405097Y-91761418D01*
X134462500Y-91750000D01*
X135487500Y-91750000D01*
X135544903Y-91761418D01*
G37*
G36*
X137819903Y-90811418D02*
G01*
X137868566Y-90843934D01*
X137901082Y-90892597D01*
X137912500Y-90950000D01*
X137912500Y-91250000D01*
X137901082Y-91307403D01*
X137868566Y-91356066D01*
X137819903Y-91388582D01*
X137762500Y-91400000D01*
X136737500Y-91400000D01*
X136680097Y-91388582D01*
X136631434Y-91356066D01*
X136598918Y-91307403D01*
X136587500Y-91250000D01*
X136587500Y-90950000D01*
X136598918Y-90892597D01*
X136631434Y-90843934D01*
X136680097Y-90811418D01*
X136737500Y-90800000D01*
X137762500Y-90800000D01*
X137819903Y-90811418D01*
G37*
G36*
X119472068Y-89867941D02*
G01*
X119610619Y-89925330D01*
X119735311Y-90008647D01*
X119841353Y-90114689D01*
X119924670Y-90239381D01*
X119982059Y-90377932D01*
X120011316Y-90525017D01*
X120011316Y-90674983D01*
X119982059Y-90822068D01*
X119924670Y-90960619D01*
X119841353Y-91085311D01*
X119735311Y-91191353D01*
X119610619Y-91274670D01*
X119472068Y-91332059D01*
X119324983Y-91361316D01*
X119175017Y-91361316D01*
X119027932Y-91332059D01*
X118889381Y-91274670D01*
X118764689Y-91191353D01*
X118658647Y-91085311D01*
X118575330Y-90960619D01*
X118517941Y-90822068D01*
X118488684Y-90674983D01*
X118488684Y-90525017D01*
X118517941Y-90377932D01*
X118575330Y-90239381D01*
X118658647Y-90114689D01*
X118764689Y-90008647D01*
X118889381Y-89925330D01*
X119027932Y-89867941D01*
X119175017Y-89838684D01*
X119324983Y-89838684D01*
X119472068Y-89867941D01*
G37*
G36*
X122012068Y-89867941D02*
G01*
X122150619Y-89925330D01*
X122275311Y-90008647D01*
X122381353Y-90114689D01*
X122464670Y-90239381D01*
X122522059Y-90377932D01*
X122551316Y-90525017D01*
X122551316Y-90674983D01*
X122522059Y-90822068D01*
X122464670Y-90960619D01*
X122381353Y-91085311D01*
X122275311Y-91191353D01*
X122150619Y-91274670D01*
X122012068Y-91332059D01*
X121864983Y-91361316D01*
X121715017Y-91361316D01*
X121567932Y-91332059D01*
X121429381Y-91274670D01*
X121304689Y-91191353D01*
X121198647Y-91085311D01*
X121115330Y-90960619D01*
X121057941Y-90822068D01*
X121028684Y-90674983D01*
X121028684Y-90525017D01*
X121057941Y-90377932D01*
X121115330Y-90239381D01*
X121198647Y-90114689D01*
X121304689Y-90008647D01*
X121429381Y-89925330D01*
X121567932Y-89867941D01*
X121715017Y-89838684D01*
X121864983Y-89838684D01*
X122012068Y-89867941D01*
G37*
G36*
X180472068Y-89867941D02*
G01*
X180610619Y-89925330D01*
X180735311Y-90008647D01*
X180841353Y-90114689D01*
X180924670Y-90239381D01*
X180982059Y-90377932D01*
X181011316Y-90525017D01*
X181011316Y-90674983D01*
X180982059Y-90822068D01*
X180924670Y-90960619D01*
X180841353Y-91085311D01*
X180735311Y-91191353D01*
X180610619Y-91274670D01*
X180472068Y-91332059D01*
X180324983Y-91361316D01*
X180175017Y-91361316D01*
X180027932Y-91332059D01*
X179889381Y-91274670D01*
X179764689Y-91191353D01*
X179658647Y-91085311D01*
X179575330Y-90960619D01*
X179517941Y-90822068D01*
X179488684Y-90674983D01*
X179488684Y-90525017D01*
X179517941Y-90377932D01*
X179575330Y-90239381D01*
X179658647Y-90114689D01*
X179764689Y-90008647D01*
X179889381Y-89925330D01*
X180027932Y-89867941D01*
X180175017Y-89838684D01*
X180324983Y-89838684D01*
X180472068Y-89867941D01*
G37*
G36*
X183012068Y-89867941D02*
G01*
X183150619Y-89925330D01*
X183275311Y-90008647D01*
X183381353Y-90114689D01*
X183464670Y-90239381D01*
X183522059Y-90377932D01*
X183551316Y-90525017D01*
X183551316Y-90674983D01*
X183522059Y-90822068D01*
X183464670Y-90960619D01*
X183381353Y-91085311D01*
X183275311Y-91191353D01*
X183150619Y-91274670D01*
X183012068Y-91332059D01*
X182864983Y-91361316D01*
X182715017Y-91361316D01*
X182567932Y-91332059D01*
X182429381Y-91274670D01*
X182304689Y-91191353D01*
X182198647Y-91085311D01*
X182115330Y-90960619D01*
X182057941Y-90822068D01*
X182028684Y-90674983D01*
X182028684Y-90525017D01*
X182057941Y-90377932D01*
X182115330Y-90239381D01*
X182198647Y-90114689D01*
X182304689Y-90008647D01*
X182429381Y-89925330D01*
X182567932Y-89867941D01*
X182715017Y-89838684D01*
X182864983Y-89838684D01*
X183012068Y-89867941D01*
G37*
G36*
X140003231Y-90250642D02*
G01*
X140055772Y-90256738D01*
X140073723Y-90264664D01*
X140095671Y-90269030D01*
X140119166Y-90284729D01*
X140140890Y-90294321D01*
X140155726Y-90309157D01*
X140176777Y-90323223D01*
X140190842Y-90344273D01*
X140205678Y-90359109D01*
X140215269Y-90380830D01*
X140230970Y-90404329D01*
X140235335Y-90426277D01*
X140243260Y-90444224D01*
X140249352Y-90496747D01*
X140250000Y-90500000D01*
X140250000Y-91000000D01*
X140249354Y-91003243D01*
X140243261Y-91055772D01*
X140235336Y-91073719D01*
X140230970Y-91095671D01*
X140215267Y-91119171D01*
X140205678Y-91140890D01*
X140190844Y-91155723D01*
X140176777Y-91176777D01*
X140155723Y-91190844D01*
X140140890Y-91205678D01*
X140119170Y-91215267D01*
X140095671Y-91230970D01*
X140073720Y-91235336D01*
X140055775Y-91243260D01*
X140003254Y-91249352D01*
X140000000Y-91250000D01*
X139500000Y-91250000D01*
X139496758Y-91249355D01*
X139444227Y-91243261D01*
X139426278Y-91235335D01*
X139404329Y-91230970D01*
X139380830Y-91215268D01*
X139359109Y-91205678D01*
X139344273Y-91190842D01*
X139323223Y-91176777D01*
X139309157Y-91155726D01*
X139294321Y-91140890D01*
X139284729Y-91119166D01*
X139269030Y-91095671D01*
X139264664Y-91073724D01*
X139256739Y-91055775D01*
X139250644Y-91003242D01*
X139250000Y-91000000D01*
X139250000Y-90500000D01*
X139250642Y-90496770D01*
X139256738Y-90444227D01*
X139264664Y-90426274D01*
X139269030Y-90404329D01*
X139284728Y-90380835D01*
X139294321Y-90359109D01*
X139309159Y-90344270D01*
X139323223Y-90323223D01*
X139344270Y-90309159D01*
X139359109Y-90294321D01*
X139380835Y-90284727D01*
X139404329Y-90269030D01*
X139426273Y-90264665D01*
X139444224Y-90256739D01*
X139496759Y-90250644D01*
X139500000Y-90250000D01*
X140000000Y-90250000D01*
X140003231Y-90250642D01*
G37*
G36*
X132211104Y-89917127D02*
G01*
X132284099Y-89965901D01*
X132332873Y-90038896D01*
X132350000Y-90125000D01*
X132350000Y-90575000D01*
X132332873Y-90661104D01*
X132284099Y-90734099D01*
X132211104Y-90782873D01*
X132125000Y-90800000D01*
X131375000Y-90800000D01*
X131288896Y-90782873D01*
X131215901Y-90734099D01*
X131167127Y-90661104D01*
X131150000Y-90575000D01*
X131150000Y-90125000D01*
X131167127Y-90038896D01*
X131215901Y-89965901D01*
X131288896Y-89917127D01*
X131375000Y-89900000D01*
X132125000Y-89900000D01*
X132211104Y-89917127D01*
G37*
G36*
X140690730Y-88275642D02*
G01*
X140740412Y-88281406D01*
X140757389Y-88288902D01*
X140778387Y-88293079D01*
X140800867Y-88308099D01*
X140821326Y-88317133D01*
X140835298Y-88331105D01*
X140855438Y-88344562D01*
X140868894Y-88364701D01*
X140882866Y-88378673D01*
X140891899Y-88399130D01*
X140906921Y-88421613D01*
X140911098Y-88442611D01*
X140918592Y-88459584D01*
X140924353Y-88509247D01*
X140925000Y-88512500D01*
X140925000Y-88987500D01*
X140924354Y-88990742D01*
X140918593Y-89040412D01*
X140911098Y-89057385D01*
X140906921Y-89078387D01*
X140891897Y-89100871D01*
X140882866Y-89121326D01*
X140868896Y-89135295D01*
X140855438Y-89155438D01*
X140835295Y-89168896D01*
X140821326Y-89182866D01*
X140800871Y-89191897D01*
X140778387Y-89206921D01*
X140757386Y-89211098D01*
X140740415Y-89218592D01*
X140690753Y-89224352D01*
X140687500Y-89225000D01*
X140087500Y-89225000D01*
X140084258Y-89224355D01*
X140034587Y-89218593D01*
X140017613Y-89211098D01*
X139996613Y-89206921D01*
X139974130Y-89191898D01*
X139953673Y-89182866D01*
X139939701Y-89168894D01*
X139919562Y-89155438D01*
X139906105Y-89135298D01*
X139892133Y-89121326D01*
X139883099Y-89100866D01*
X139868079Y-89078387D01*
X139863902Y-89057390D01*
X139856407Y-89040415D01*
X139850644Y-88990741D01*
X139850000Y-88987500D01*
X139850000Y-88512500D01*
X139850642Y-88509270D01*
X139856406Y-88459587D01*
X139863902Y-88442608D01*
X139868079Y-88421613D01*
X139883098Y-88399134D01*
X139892133Y-88378673D01*
X139906107Y-88364698D01*
X139919562Y-88344562D01*
X139939698Y-88331107D01*
X139953673Y-88317133D01*
X139974135Y-88308098D01*
X139996613Y-88293079D01*
X140017607Y-88288902D01*
X140034584Y-88281407D01*
X140084259Y-88275644D01*
X140087500Y-88275000D01*
X140687500Y-88275000D01*
X140690730Y-88275642D01*
G37*
G36*
X142415730Y-88275642D02*
G01*
X142465412Y-88281406D01*
X142482389Y-88288902D01*
X142503387Y-88293079D01*
X142525867Y-88308099D01*
X142546326Y-88317133D01*
X142560298Y-88331105D01*
X142580438Y-88344562D01*
X142593894Y-88364701D01*
X142607866Y-88378673D01*
X142616899Y-88399130D01*
X142631921Y-88421613D01*
X142636098Y-88442611D01*
X142643592Y-88459584D01*
X142649353Y-88509247D01*
X142650000Y-88512500D01*
X142650000Y-88987500D01*
X142649354Y-88990742D01*
X142643593Y-89040412D01*
X142636098Y-89057385D01*
X142631921Y-89078387D01*
X142616897Y-89100871D01*
X142607866Y-89121326D01*
X142593896Y-89135295D01*
X142580438Y-89155438D01*
X142560295Y-89168896D01*
X142546326Y-89182866D01*
X142525871Y-89191897D01*
X142503387Y-89206921D01*
X142482386Y-89211098D01*
X142465415Y-89218592D01*
X142415753Y-89224352D01*
X142412500Y-89225000D01*
X141812500Y-89225000D01*
X141809258Y-89224355D01*
X141759587Y-89218593D01*
X141742613Y-89211098D01*
X141721613Y-89206921D01*
X141699130Y-89191898D01*
X141678673Y-89182866D01*
X141664701Y-89168894D01*
X141644562Y-89155438D01*
X141631105Y-89135298D01*
X141617133Y-89121326D01*
X141608099Y-89100866D01*
X141593079Y-89078387D01*
X141588902Y-89057390D01*
X141581407Y-89040415D01*
X141575644Y-88990741D01*
X141575000Y-88987500D01*
X141575000Y-88512500D01*
X141575642Y-88509270D01*
X141581406Y-88459587D01*
X141588902Y-88442608D01*
X141593079Y-88421613D01*
X141608098Y-88399134D01*
X141617133Y-88378673D01*
X141631107Y-88364698D01*
X141644562Y-88344562D01*
X141664698Y-88331107D01*
X141678673Y-88317133D01*
X141699135Y-88308098D01*
X141721613Y-88293079D01*
X141742607Y-88288902D01*
X141759584Y-88281407D01*
X141809259Y-88275644D01*
X141812500Y-88275000D01*
X142412500Y-88275000D01*
X142415730Y-88275642D01*
G37*
G36*
X147440730Y-88275642D02*
G01*
X147490412Y-88281406D01*
X147507389Y-88288902D01*
X147528387Y-88293079D01*
X147550867Y-88308099D01*
X147571326Y-88317133D01*
X147585298Y-88331105D01*
X147605438Y-88344562D01*
X147618894Y-88364701D01*
X147632866Y-88378673D01*
X147641899Y-88399130D01*
X147656921Y-88421613D01*
X147661098Y-88442611D01*
X147668592Y-88459584D01*
X147674353Y-88509247D01*
X147675000Y-88512500D01*
X147675000Y-88987500D01*
X147674354Y-88990742D01*
X147668593Y-89040412D01*
X147661098Y-89057385D01*
X147656921Y-89078387D01*
X147641897Y-89100871D01*
X147632866Y-89121326D01*
X147618896Y-89135295D01*
X147605438Y-89155438D01*
X147585295Y-89168896D01*
X147571326Y-89182866D01*
X147550871Y-89191897D01*
X147528387Y-89206921D01*
X147507386Y-89211098D01*
X147490415Y-89218592D01*
X147440753Y-89224352D01*
X147437500Y-89225000D01*
X146837500Y-89225000D01*
X146834258Y-89224355D01*
X146784587Y-89218593D01*
X146767613Y-89211098D01*
X146746613Y-89206921D01*
X146724130Y-89191898D01*
X146703673Y-89182866D01*
X146689701Y-89168894D01*
X146669562Y-89155438D01*
X146656105Y-89135298D01*
X146642133Y-89121326D01*
X146633099Y-89100866D01*
X146618079Y-89078387D01*
X146613902Y-89057390D01*
X146606407Y-89040415D01*
X146600644Y-88990741D01*
X146600000Y-88987500D01*
X146600000Y-88512500D01*
X146600642Y-88509270D01*
X146606406Y-88459587D01*
X146613902Y-88442608D01*
X146618079Y-88421613D01*
X146633098Y-88399134D01*
X146642133Y-88378673D01*
X146656107Y-88364698D01*
X146669562Y-88344562D01*
X146689698Y-88331107D01*
X146703673Y-88317133D01*
X146724135Y-88308098D01*
X146746613Y-88293079D01*
X146767607Y-88288902D01*
X146784584Y-88281407D01*
X146834259Y-88275644D01*
X146837500Y-88275000D01*
X147437500Y-88275000D01*
X147440730Y-88275642D01*
G37*
G36*
X149165730Y-88275642D02*
G01*
X149215412Y-88281406D01*
X149232389Y-88288902D01*
X149253387Y-88293079D01*
X149275867Y-88308099D01*
X149296326Y-88317133D01*
X149310298Y-88331105D01*
X149330438Y-88344562D01*
X149343894Y-88364701D01*
X149357866Y-88378673D01*
X149366899Y-88399130D01*
X149381921Y-88421613D01*
X149386098Y-88442611D01*
X149393592Y-88459584D01*
X149399353Y-88509247D01*
X149400000Y-88512500D01*
X149400000Y-88987500D01*
X149399354Y-88990742D01*
X149393593Y-89040412D01*
X149386098Y-89057385D01*
X149381921Y-89078387D01*
X149366897Y-89100871D01*
X149357866Y-89121326D01*
X149343896Y-89135295D01*
X149330438Y-89155438D01*
X149310295Y-89168896D01*
X149296326Y-89182866D01*
X149275871Y-89191897D01*
X149253387Y-89206921D01*
X149232386Y-89211098D01*
X149215415Y-89218592D01*
X149165753Y-89224352D01*
X149162500Y-89225000D01*
X148562500Y-89225000D01*
X148559258Y-89224355D01*
X148509587Y-89218593D01*
X148492613Y-89211098D01*
X148471613Y-89206921D01*
X148449130Y-89191898D01*
X148428673Y-89182866D01*
X148414701Y-89168894D01*
X148394562Y-89155438D01*
X148381105Y-89135298D01*
X148367133Y-89121326D01*
X148358099Y-89100866D01*
X148343079Y-89078387D01*
X148338902Y-89057390D01*
X148331407Y-89040415D01*
X148325644Y-88990741D01*
X148325000Y-88987500D01*
X148325000Y-88512500D01*
X148325642Y-88509270D01*
X148331406Y-88459587D01*
X148338902Y-88442608D01*
X148343079Y-88421613D01*
X148358098Y-88399134D01*
X148367133Y-88378673D01*
X148381107Y-88364698D01*
X148394562Y-88344562D01*
X148414698Y-88331107D01*
X148428673Y-88317133D01*
X148449135Y-88308098D01*
X148471613Y-88293079D01*
X148492607Y-88288902D01*
X148509584Y-88281407D01*
X148559259Y-88275644D01*
X148562500Y-88275000D01*
X149162500Y-88275000D01*
X149165730Y-88275642D01*
G37*
G36*
X119472068Y-87327941D02*
G01*
X119610619Y-87385330D01*
X119735311Y-87468647D01*
X119841353Y-87574689D01*
X119924670Y-87699381D01*
X119982059Y-87837932D01*
X120011316Y-87985017D01*
X120011316Y-88134983D01*
X119982059Y-88282068D01*
X119924670Y-88420619D01*
X119841353Y-88545311D01*
X119735311Y-88651353D01*
X119610619Y-88734670D01*
X119472068Y-88792059D01*
X119324983Y-88821316D01*
X119175017Y-88821316D01*
X119027932Y-88792059D01*
X118889381Y-88734670D01*
X118764689Y-88651353D01*
X118658647Y-88545311D01*
X118575330Y-88420619D01*
X118517941Y-88282068D01*
X118488684Y-88134983D01*
X118488684Y-87985017D01*
X118517941Y-87837932D01*
X118575330Y-87699381D01*
X118658647Y-87574689D01*
X118764689Y-87468647D01*
X118889381Y-87385330D01*
X119027932Y-87327941D01*
X119175017Y-87298684D01*
X119324983Y-87298684D01*
X119472068Y-87327941D01*
G37*
G36*
X122012068Y-87327941D02*
G01*
X122150619Y-87385330D01*
X122275311Y-87468647D01*
X122381353Y-87574689D01*
X122464670Y-87699381D01*
X122522059Y-87837932D01*
X122551316Y-87985017D01*
X122551316Y-88134983D01*
X122522059Y-88282068D01*
X122464670Y-88420619D01*
X122381353Y-88545311D01*
X122275311Y-88651353D01*
X122150619Y-88734670D01*
X122012068Y-88792059D01*
X121864983Y-88821316D01*
X121715017Y-88821316D01*
X121567932Y-88792059D01*
X121429381Y-88734670D01*
X121304689Y-88651353D01*
X121198647Y-88545311D01*
X121115330Y-88420619D01*
X121057941Y-88282068D01*
X121028684Y-88134983D01*
X121028684Y-87985017D01*
X121057941Y-87837932D01*
X121115330Y-87699381D01*
X121198647Y-87574689D01*
X121304689Y-87468647D01*
X121429381Y-87385330D01*
X121567932Y-87327941D01*
X121715017Y-87298684D01*
X121864983Y-87298684D01*
X122012068Y-87327941D01*
G37*
G36*
X180472068Y-87327941D02*
G01*
X180610619Y-87385330D01*
X180735311Y-87468647D01*
X180841353Y-87574689D01*
X180924670Y-87699381D01*
X180982059Y-87837932D01*
X181011316Y-87985017D01*
X181011316Y-88134983D01*
X180982059Y-88282068D01*
X180924670Y-88420619D01*
X180841353Y-88545311D01*
X180735311Y-88651353D01*
X180610619Y-88734670D01*
X180472068Y-88792059D01*
X180324983Y-88821316D01*
X180175017Y-88821316D01*
X180027932Y-88792059D01*
X179889381Y-88734670D01*
X179764689Y-88651353D01*
X179658647Y-88545311D01*
X179575330Y-88420619D01*
X179517941Y-88282068D01*
X179488684Y-88134983D01*
X179488684Y-87985017D01*
X179517941Y-87837932D01*
X179575330Y-87699381D01*
X179658647Y-87574689D01*
X179764689Y-87468647D01*
X179889381Y-87385330D01*
X180027932Y-87327941D01*
X180175017Y-87298684D01*
X180324983Y-87298684D01*
X180472068Y-87327941D01*
G37*
G36*
X183012068Y-87327941D02*
G01*
X183150619Y-87385330D01*
X183275311Y-87468647D01*
X183381353Y-87574689D01*
X183464670Y-87699381D01*
X183522059Y-87837932D01*
X183551316Y-87985017D01*
X183551316Y-88134983D01*
X183522059Y-88282068D01*
X183464670Y-88420619D01*
X183381353Y-88545311D01*
X183275311Y-88651353D01*
X183150619Y-88734670D01*
X183012068Y-88792059D01*
X182864983Y-88821316D01*
X182715017Y-88821316D01*
X182567932Y-88792059D01*
X182429381Y-88734670D01*
X182304689Y-88651353D01*
X182198647Y-88545311D01*
X182115330Y-88420619D01*
X182057941Y-88282068D01*
X182028684Y-88134983D01*
X182028684Y-87985017D01*
X182057941Y-87837932D01*
X182115330Y-87699381D01*
X182198647Y-87574689D01*
X182304689Y-87468647D01*
X182429381Y-87385330D01*
X182567932Y-87327941D01*
X182715017Y-87298684D01*
X182864983Y-87298684D01*
X183012068Y-87327941D01*
G37*
G36*
X138303231Y-85000642D02*
G01*
X138355772Y-85006738D01*
X138373723Y-85014664D01*
X138395671Y-85019030D01*
X138419166Y-85034729D01*
X138440890Y-85044321D01*
X138455726Y-85059157D01*
X138476777Y-85073223D01*
X138490842Y-85094273D01*
X138505678Y-85109109D01*
X138515269Y-85130830D01*
X138530970Y-85154329D01*
X138535335Y-85176277D01*
X138543260Y-85194224D01*
X138549352Y-85246747D01*
X138550000Y-85250000D01*
X138550000Y-87350000D01*
X138549354Y-87353243D01*
X138543261Y-87405772D01*
X138535336Y-87423719D01*
X138530970Y-87445671D01*
X138515267Y-87469171D01*
X138505678Y-87490890D01*
X138490844Y-87505723D01*
X138476777Y-87526777D01*
X138455723Y-87540844D01*
X138440890Y-87555678D01*
X138419170Y-87565267D01*
X138395671Y-87580970D01*
X138373720Y-87585336D01*
X138355775Y-87593260D01*
X138303254Y-87599352D01*
X138300000Y-87600000D01*
X137200000Y-87600000D01*
X137196758Y-87599355D01*
X137144227Y-87593261D01*
X137126278Y-87585335D01*
X137104329Y-87580970D01*
X137080830Y-87565268D01*
X137059109Y-87555678D01*
X137044273Y-87540842D01*
X137023223Y-87526777D01*
X137009157Y-87505726D01*
X136994321Y-87490890D01*
X136984729Y-87469166D01*
X136969030Y-87445671D01*
X136964664Y-87423724D01*
X136956739Y-87405775D01*
X136950644Y-87353242D01*
X136950000Y-87350000D01*
X136950000Y-85250000D01*
X136950642Y-85246770D01*
X136956738Y-85194227D01*
X136964664Y-85176274D01*
X136969030Y-85154329D01*
X136984728Y-85130835D01*
X136994321Y-85109109D01*
X137009159Y-85094270D01*
X137023223Y-85073223D01*
X137044270Y-85059159D01*
X137059109Y-85044321D01*
X137080835Y-85034727D01*
X137104329Y-85019030D01*
X137126273Y-85014665D01*
X137144224Y-85006739D01*
X137196759Y-85000644D01*
X137200000Y-85000000D01*
X138300000Y-85000000D01*
X138303231Y-85000642D01*
G37*
G36*
X145303231Y-85000642D02*
G01*
X145355772Y-85006738D01*
X145373723Y-85014664D01*
X145395671Y-85019030D01*
X145419166Y-85034729D01*
X145440890Y-85044321D01*
X145455726Y-85059157D01*
X145476777Y-85073223D01*
X145490842Y-85094273D01*
X145505678Y-85109109D01*
X145515269Y-85130830D01*
X145530970Y-85154329D01*
X145535335Y-85176277D01*
X145543260Y-85194224D01*
X145549352Y-85246747D01*
X145550000Y-85250000D01*
X145550000Y-87350000D01*
X145549354Y-87353243D01*
X145543261Y-87405772D01*
X145535336Y-87423719D01*
X145530970Y-87445671D01*
X145515267Y-87469171D01*
X145505678Y-87490890D01*
X145490844Y-87505723D01*
X145476777Y-87526777D01*
X145455723Y-87540844D01*
X145440890Y-87555678D01*
X145419170Y-87565267D01*
X145395671Y-87580970D01*
X145373720Y-87585336D01*
X145355775Y-87593260D01*
X145303254Y-87599352D01*
X145300000Y-87600000D01*
X144200000Y-87600000D01*
X144196758Y-87599355D01*
X144144227Y-87593261D01*
X144126278Y-87585335D01*
X144104329Y-87580970D01*
X144080830Y-87565268D01*
X144059109Y-87555678D01*
X144044273Y-87540842D01*
X144023223Y-87526777D01*
X144009157Y-87505726D01*
X143994321Y-87490890D01*
X143984729Y-87469166D01*
X143969030Y-87445671D01*
X143964664Y-87423724D01*
X143956739Y-87405775D01*
X143950644Y-87353242D01*
X143950000Y-87350000D01*
X143950000Y-85250000D01*
X143950642Y-85246770D01*
X143956738Y-85194227D01*
X143964664Y-85176274D01*
X143969030Y-85154329D01*
X143984728Y-85130835D01*
X143994321Y-85109109D01*
X144009159Y-85094270D01*
X144023223Y-85073223D01*
X144044270Y-85059159D01*
X144059109Y-85044321D01*
X144080835Y-85034727D01*
X144104329Y-85019030D01*
X144126273Y-85014665D01*
X144144224Y-85006739D01*
X144196759Y-85000644D01*
X144200000Y-85000000D01*
X145300000Y-85000000D01*
X145303231Y-85000642D01*
G37*
G36*
X133000000Y-87250000D02*
G01*
X132000000Y-87250000D01*
X132000000Y-86250000D01*
X133000000Y-86250000D01*
X133000000Y-87250000D01*
G37*
G36*
X119472068Y-84787941D02*
G01*
X119610619Y-84845330D01*
X119735311Y-84928647D01*
X119841353Y-85034689D01*
X119924670Y-85159381D01*
X119982059Y-85297932D01*
X120011316Y-85445017D01*
X120011316Y-85594983D01*
X119982059Y-85742068D01*
X119924670Y-85880619D01*
X119841353Y-86005311D01*
X119735311Y-86111353D01*
X119610619Y-86194670D01*
X119472068Y-86252059D01*
X119324983Y-86281316D01*
X119175017Y-86281316D01*
X119027932Y-86252059D01*
X118889381Y-86194670D01*
X118764689Y-86111353D01*
X118658647Y-86005311D01*
X118575330Y-85880619D01*
X118517941Y-85742068D01*
X118488684Y-85594983D01*
X118488684Y-85445017D01*
X118517941Y-85297932D01*
X118575330Y-85159381D01*
X118658647Y-85034689D01*
X118764689Y-84928647D01*
X118889381Y-84845330D01*
X119027932Y-84787941D01*
X119175017Y-84758684D01*
X119324983Y-84758684D01*
X119472068Y-84787941D01*
G37*
G36*
X122012068Y-84787941D02*
G01*
X122150619Y-84845330D01*
X122275311Y-84928647D01*
X122381353Y-85034689D01*
X122464670Y-85159381D01*
X122522059Y-85297932D01*
X122551316Y-85445017D01*
X122551316Y-85594983D01*
X122522059Y-85742068D01*
X122464670Y-85880619D01*
X122381353Y-86005311D01*
X122275311Y-86111353D01*
X122150619Y-86194670D01*
X122012068Y-86252059D01*
X121864983Y-86281316D01*
X121715017Y-86281316D01*
X121567932Y-86252059D01*
X121429381Y-86194670D01*
X121304689Y-86111353D01*
X121198647Y-86005311D01*
X121115330Y-85880619D01*
X121057941Y-85742068D01*
X121028684Y-85594983D01*
X121028684Y-85445017D01*
X121057941Y-85297932D01*
X121115330Y-85159381D01*
X121198647Y-85034689D01*
X121304689Y-84928647D01*
X121429381Y-84845330D01*
X121567932Y-84787941D01*
X121715017Y-84758684D01*
X121864983Y-84758684D01*
X122012068Y-84787941D01*
G37*
G36*
X180472068Y-84787941D02*
G01*
X180610619Y-84845330D01*
X180735311Y-84928647D01*
X180841353Y-85034689D01*
X180924670Y-85159381D01*
X180982059Y-85297932D01*
X181011316Y-85445017D01*
X181011316Y-85594983D01*
X180982059Y-85742068D01*
X180924670Y-85880619D01*
X180841353Y-86005311D01*
X180735311Y-86111353D01*
X180610619Y-86194670D01*
X180472068Y-86252059D01*
X180324983Y-86281316D01*
X180175017Y-86281316D01*
X180027932Y-86252059D01*
X179889381Y-86194670D01*
X179764689Y-86111353D01*
X179658647Y-86005311D01*
X179575330Y-85880619D01*
X179517941Y-85742068D01*
X179488684Y-85594983D01*
X179488684Y-85445017D01*
X179517941Y-85297932D01*
X179575330Y-85159381D01*
X179658647Y-85034689D01*
X179764689Y-84928647D01*
X179889381Y-84845330D01*
X180027932Y-84787941D01*
X180175017Y-84758684D01*
X180324983Y-84758684D01*
X180472068Y-84787941D01*
G37*
G36*
X183012068Y-84787941D02*
G01*
X183150619Y-84845330D01*
X183275311Y-84928647D01*
X183381353Y-85034689D01*
X183464670Y-85159381D01*
X183522059Y-85297932D01*
X183551316Y-85445017D01*
X183551316Y-85594983D01*
X183522059Y-85742068D01*
X183464670Y-85880619D01*
X183381353Y-86005311D01*
X183275311Y-86111353D01*
X183150619Y-86194670D01*
X183012068Y-86252059D01*
X182864983Y-86281316D01*
X182715017Y-86281316D01*
X182567932Y-86252059D01*
X182429381Y-86194670D01*
X182304689Y-86111353D01*
X182198647Y-86005311D01*
X182115330Y-85880619D01*
X182057941Y-85742068D01*
X182028684Y-85594983D01*
X182028684Y-85445017D01*
X182057941Y-85297932D01*
X182115330Y-85159381D01*
X182198647Y-85034689D01*
X182304689Y-84928647D01*
X182429381Y-84845330D01*
X182567932Y-84787941D01*
X182715017Y-84758684D01*
X182864983Y-84758684D01*
X183012068Y-84787941D01*
G37*
G36*
X161675969Y-83010855D02*
G01*
X161682130Y-83013153D01*
X161687051Y-83013744D01*
X161745297Y-83036713D01*
X161802643Y-83058102D01*
X161806101Y-83060690D01*
X161807618Y-83061289D01*
X161862776Y-83103117D01*
X161910876Y-83139124D01*
X161946901Y-83187248D01*
X161988710Y-83242381D01*
X161989307Y-83243896D01*
X161991898Y-83247357D01*
X162013293Y-83304721D01*
X162036255Y-83362947D01*
X162036845Y-83367866D01*
X162039145Y-83374031D01*
X162050000Y-83475000D01*
X162050000Y-84425000D01*
X162039145Y-84525969D01*
X162036845Y-84532134D01*
X162036255Y-84537051D01*
X162013304Y-84595250D01*
X161991898Y-84652643D01*
X161989306Y-84656104D01*
X161988710Y-84657618D01*
X161946959Y-84712673D01*
X161910876Y-84760876D01*
X161862673Y-84796959D01*
X161807618Y-84838710D01*
X161806104Y-84839306D01*
X161802643Y-84841898D01*
X161745260Y-84863300D01*
X161687052Y-84886255D01*
X161682133Y-84886845D01*
X161675969Y-84889145D01*
X161575000Y-84900000D01*
X157425000Y-84900000D01*
X157324031Y-84889145D01*
X157317866Y-84886845D01*
X157312948Y-84886255D01*
X157254731Y-84863297D01*
X157197357Y-84841898D01*
X157193896Y-84839307D01*
X157192381Y-84838710D01*
X157137248Y-84796901D01*
X157089124Y-84760876D01*
X157053117Y-84712776D01*
X157011289Y-84657618D01*
X157010690Y-84656101D01*
X157008102Y-84652643D01*
X156986716Y-84595306D01*
X156963744Y-84537052D01*
X156963152Y-84532129D01*
X156960855Y-84525969D01*
X156950000Y-84425000D01*
X156950000Y-83475000D01*
X156960855Y-83374031D01*
X156963152Y-83367870D01*
X156963744Y-83362948D01*
X156986720Y-83304684D01*
X157008102Y-83247357D01*
X157010690Y-83243899D01*
X157011289Y-83242381D01*
X157053175Y-83187145D01*
X157089124Y-83139124D01*
X157137145Y-83103175D01*
X157192381Y-83061289D01*
X157193899Y-83060690D01*
X157197357Y-83058102D01*
X157254674Y-83036723D01*
X157312947Y-83013744D01*
X157317870Y-83013152D01*
X157324031Y-83010855D01*
X157425000Y-83000000D01*
X161575000Y-83000000D01*
X161675969Y-83010855D01*
G37*
G36*
X138303231Y-81400642D02*
G01*
X138355772Y-81406738D01*
X138373723Y-81414664D01*
X138395671Y-81419030D01*
X138419166Y-81434729D01*
X138440890Y-81444321D01*
X138455726Y-81459157D01*
X138476777Y-81473223D01*
X138490842Y-81494273D01*
X138505678Y-81509109D01*
X138515269Y-81530830D01*
X138530970Y-81554329D01*
X138535335Y-81576277D01*
X138543260Y-81594224D01*
X138549352Y-81646747D01*
X138550000Y-81650000D01*
X138550000Y-83750000D01*
X138549354Y-83753243D01*
X138543261Y-83805772D01*
X138535336Y-83823719D01*
X138530970Y-83845671D01*
X138515267Y-83869171D01*
X138505678Y-83890890D01*
X138490844Y-83905723D01*
X138476777Y-83926777D01*
X138455723Y-83940844D01*
X138440890Y-83955678D01*
X138419170Y-83965267D01*
X138395671Y-83980970D01*
X138373720Y-83985336D01*
X138355775Y-83993260D01*
X138303254Y-83999352D01*
X138300000Y-84000000D01*
X137200000Y-84000000D01*
X137196758Y-83999355D01*
X137144227Y-83993261D01*
X137126278Y-83985335D01*
X137104329Y-83980970D01*
X137080830Y-83965268D01*
X137059109Y-83955678D01*
X137044273Y-83940842D01*
X137023223Y-83926777D01*
X137009157Y-83905726D01*
X136994321Y-83890890D01*
X136984729Y-83869166D01*
X136969030Y-83845671D01*
X136964664Y-83823724D01*
X136956739Y-83805775D01*
X136950644Y-83753242D01*
X136950000Y-83750000D01*
X136950000Y-81650000D01*
X136950642Y-81646770D01*
X136956738Y-81594227D01*
X136964664Y-81576274D01*
X136969030Y-81554329D01*
X136984728Y-81530835D01*
X136994321Y-81509109D01*
X137009159Y-81494270D01*
X137023223Y-81473223D01*
X137044270Y-81459159D01*
X137059109Y-81444321D01*
X137080835Y-81434727D01*
X137104329Y-81419030D01*
X137126273Y-81414665D01*
X137144224Y-81406739D01*
X137196759Y-81400644D01*
X137200000Y-81400000D01*
X138300000Y-81400000D01*
X138303231Y-81400642D01*
G37*
G36*
X145303231Y-81400642D02*
G01*
X145355772Y-81406738D01*
X145373723Y-81414664D01*
X145395671Y-81419030D01*
X145419166Y-81434729D01*
X145440890Y-81444321D01*
X145455726Y-81459157D01*
X145476777Y-81473223D01*
X145490842Y-81494273D01*
X145505678Y-81509109D01*
X145515269Y-81530830D01*
X145530970Y-81554329D01*
X145535335Y-81576277D01*
X145543260Y-81594224D01*
X145549352Y-81646747D01*
X145550000Y-81650000D01*
X145550000Y-83750000D01*
X145549354Y-83753243D01*
X145543261Y-83805772D01*
X145535336Y-83823719D01*
X145530970Y-83845671D01*
X145515267Y-83869171D01*
X145505678Y-83890890D01*
X145490844Y-83905723D01*
X145476777Y-83926777D01*
X145455723Y-83940844D01*
X145440890Y-83955678D01*
X145419170Y-83965267D01*
X145395671Y-83980970D01*
X145373720Y-83985336D01*
X145355775Y-83993260D01*
X145303254Y-83999352D01*
X145300000Y-84000000D01*
X144200000Y-84000000D01*
X144196758Y-83999355D01*
X144144227Y-83993261D01*
X144126278Y-83985335D01*
X144104329Y-83980970D01*
X144080830Y-83965268D01*
X144059109Y-83955678D01*
X144044273Y-83940842D01*
X144023223Y-83926777D01*
X144009157Y-83905726D01*
X143994321Y-83890890D01*
X143984729Y-83869166D01*
X143969030Y-83845671D01*
X143964664Y-83823724D01*
X143956739Y-83805775D01*
X143950644Y-83753242D01*
X143950000Y-83750000D01*
X143950000Y-81650000D01*
X143950642Y-81646770D01*
X143956738Y-81594227D01*
X143964664Y-81576274D01*
X143969030Y-81554329D01*
X143984728Y-81530835D01*
X143994321Y-81509109D01*
X144009159Y-81494270D01*
X144023223Y-81473223D01*
X144044270Y-81459159D01*
X144059109Y-81444321D01*
X144080835Y-81434727D01*
X144104329Y-81419030D01*
X144126273Y-81414665D01*
X144144224Y-81406739D01*
X144196759Y-81400644D01*
X144200000Y-81400000D01*
X145300000Y-81400000D01*
X145303231Y-81400642D01*
G37*
G36*
X119472068Y-82247941D02*
G01*
X119610619Y-82305330D01*
X119735311Y-82388647D01*
X119841353Y-82494689D01*
X119924670Y-82619381D01*
X119982059Y-82757932D01*
X120011316Y-82905017D01*
X120011316Y-83054983D01*
X119982059Y-83202068D01*
X119924670Y-83340619D01*
X119841353Y-83465311D01*
X119735311Y-83571353D01*
X119610619Y-83654670D01*
X119472068Y-83712059D01*
X119324983Y-83741316D01*
X119175017Y-83741316D01*
X119027932Y-83712059D01*
X118889381Y-83654670D01*
X118764689Y-83571353D01*
X118658647Y-83465311D01*
X118575330Y-83340619D01*
X118517941Y-83202068D01*
X118488684Y-83054983D01*
X118488684Y-82905017D01*
X118517941Y-82757932D01*
X118575330Y-82619381D01*
X118658647Y-82494689D01*
X118764689Y-82388647D01*
X118889381Y-82305330D01*
X119027932Y-82247941D01*
X119175017Y-82218684D01*
X119324983Y-82218684D01*
X119472068Y-82247941D01*
G37*
G36*
X122012068Y-82247941D02*
G01*
X122150619Y-82305330D01*
X122275311Y-82388647D01*
X122381353Y-82494689D01*
X122464670Y-82619381D01*
X122522059Y-82757932D01*
X122551316Y-82905017D01*
X122551316Y-83054983D01*
X122522059Y-83202068D01*
X122464670Y-83340619D01*
X122381353Y-83465311D01*
X122275311Y-83571353D01*
X122150619Y-83654670D01*
X122012068Y-83712059D01*
X121864983Y-83741316D01*
X121715017Y-83741316D01*
X121567932Y-83712059D01*
X121429381Y-83654670D01*
X121304689Y-83571353D01*
X121198647Y-83465311D01*
X121115330Y-83340619D01*
X121057941Y-83202068D01*
X121028684Y-83054983D01*
X121028684Y-82905017D01*
X121057941Y-82757932D01*
X121115330Y-82619381D01*
X121198647Y-82494689D01*
X121304689Y-82388647D01*
X121429381Y-82305330D01*
X121567932Y-82247941D01*
X121715017Y-82218684D01*
X121864983Y-82218684D01*
X122012068Y-82247941D01*
G37*
G36*
X180472068Y-82247941D02*
G01*
X180610619Y-82305330D01*
X180735311Y-82388647D01*
X180841353Y-82494689D01*
X180924670Y-82619381D01*
X180982059Y-82757932D01*
X181011316Y-82905017D01*
X181011316Y-83054983D01*
X180982059Y-83202068D01*
X180924670Y-83340619D01*
X180841353Y-83465311D01*
X180735311Y-83571353D01*
X180610619Y-83654670D01*
X180472068Y-83712059D01*
X180324983Y-83741316D01*
X180175017Y-83741316D01*
X180027932Y-83712059D01*
X179889381Y-83654670D01*
X179764689Y-83571353D01*
X179658647Y-83465311D01*
X179575330Y-83340619D01*
X179517941Y-83202068D01*
X179488684Y-83054983D01*
X179488684Y-82905017D01*
X179517941Y-82757932D01*
X179575330Y-82619381D01*
X179658647Y-82494689D01*
X179764689Y-82388647D01*
X179889381Y-82305330D01*
X180027932Y-82247941D01*
X180175017Y-82218684D01*
X180324983Y-82218684D01*
X180472068Y-82247941D01*
G37*
G36*
X183012068Y-82247941D02*
G01*
X183150619Y-82305330D01*
X183275311Y-82388647D01*
X183381353Y-82494689D01*
X183464670Y-82619381D01*
X183522059Y-82757932D01*
X183551316Y-82905017D01*
X183551316Y-83054983D01*
X183522059Y-83202068D01*
X183464670Y-83340619D01*
X183381353Y-83465311D01*
X183275311Y-83571353D01*
X183150619Y-83654670D01*
X183012068Y-83712059D01*
X182864983Y-83741316D01*
X182715017Y-83741316D01*
X182567932Y-83712059D01*
X182429381Y-83654670D01*
X182304689Y-83571353D01*
X182198647Y-83465311D01*
X182115330Y-83340619D01*
X182057941Y-83202068D01*
X182028684Y-83054983D01*
X182028684Y-82905017D01*
X182057941Y-82757932D01*
X182115330Y-82619381D01*
X182198647Y-82494689D01*
X182304689Y-82388647D01*
X182429381Y-82305330D01*
X182567932Y-82247941D01*
X182715017Y-82218684D01*
X182864983Y-82218684D01*
X183012068Y-82247941D01*
G37*
G36*
X166007403Y-82336418D02*
G01*
X166056066Y-82368934D01*
X166088582Y-82417597D01*
X166100000Y-82475000D01*
X166100000Y-83500000D01*
X166088582Y-83557403D01*
X166056066Y-83606066D01*
X166007403Y-83638582D01*
X165950000Y-83650000D01*
X165650000Y-83650000D01*
X165592597Y-83638582D01*
X165543934Y-83606066D01*
X165511418Y-83557403D01*
X165500000Y-83500000D01*
X165500000Y-82475000D01*
X165511418Y-82417597D01*
X165543934Y-82368934D01*
X165592597Y-82336418D01*
X165650000Y-82325000D01*
X165950000Y-82325000D01*
X166007403Y-82336418D01*
G37*
G36*
X166957403Y-82336418D02*
G01*
X167006066Y-82368934D01*
X167038582Y-82417597D01*
X167050000Y-82475000D01*
X167050000Y-83500000D01*
X167038582Y-83557403D01*
X167006066Y-83606066D01*
X166957403Y-83638582D01*
X166900000Y-83650000D01*
X166600000Y-83650000D01*
X166542597Y-83638582D01*
X166493934Y-83606066D01*
X166461418Y-83557403D01*
X166450000Y-83500000D01*
X166450000Y-82475000D01*
X166461418Y-82417597D01*
X166493934Y-82368934D01*
X166542597Y-82336418D01*
X166600000Y-82325000D01*
X166900000Y-82325000D01*
X166957403Y-82336418D01*
G37*
G36*
X167907403Y-82336418D02*
G01*
X167956066Y-82368934D01*
X167988582Y-82417597D01*
X168000000Y-82475000D01*
X168000000Y-83500000D01*
X167988582Y-83557403D01*
X167956066Y-83606066D01*
X167907403Y-83638582D01*
X167850000Y-83650000D01*
X167550000Y-83650000D01*
X167492597Y-83638582D01*
X167443934Y-83606066D01*
X167411418Y-83557403D01*
X167400000Y-83500000D01*
X167400000Y-82475000D01*
X167411418Y-82417597D01*
X167443934Y-82368934D01*
X167492597Y-82336418D01*
X167550000Y-82325000D01*
X167850000Y-82325000D01*
X167907403Y-82336418D01*
G37*
G36*
X164240730Y-82175642D02*
G01*
X164290412Y-82181406D01*
X164307389Y-82188902D01*
X164328387Y-82193079D01*
X164350867Y-82208099D01*
X164371326Y-82217133D01*
X164385298Y-82231105D01*
X164405438Y-82244562D01*
X164418894Y-82264701D01*
X164432866Y-82278673D01*
X164441899Y-82299130D01*
X164456921Y-82321613D01*
X164461098Y-82342611D01*
X164468592Y-82359584D01*
X164474353Y-82409247D01*
X164475000Y-82412500D01*
X164475000Y-83012500D01*
X164474354Y-83015742D01*
X164468593Y-83065412D01*
X164461098Y-83082385D01*
X164456921Y-83103387D01*
X164441897Y-83125871D01*
X164432866Y-83146326D01*
X164418896Y-83160295D01*
X164405438Y-83180438D01*
X164385295Y-83193896D01*
X164371326Y-83207866D01*
X164350871Y-83216897D01*
X164328387Y-83231921D01*
X164307386Y-83236098D01*
X164290415Y-83243592D01*
X164240753Y-83249352D01*
X164237500Y-83250000D01*
X163762500Y-83250000D01*
X163759258Y-83249355D01*
X163709587Y-83243593D01*
X163692613Y-83236098D01*
X163671613Y-83231921D01*
X163649130Y-83216898D01*
X163628673Y-83207866D01*
X163614701Y-83193894D01*
X163594562Y-83180438D01*
X163581105Y-83160298D01*
X163567133Y-83146326D01*
X163558099Y-83125866D01*
X163543079Y-83103387D01*
X163538902Y-83082390D01*
X163531407Y-83065415D01*
X163525644Y-83015741D01*
X163525000Y-83012500D01*
X163525000Y-82412500D01*
X163525642Y-82409270D01*
X163531406Y-82359587D01*
X163538902Y-82342608D01*
X163543079Y-82321613D01*
X163558098Y-82299134D01*
X163567133Y-82278673D01*
X163581107Y-82264698D01*
X163594562Y-82244562D01*
X163614698Y-82231107D01*
X163628673Y-82217133D01*
X163649135Y-82208098D01*
X163671613Y-82193079D01*
X163692607Y-82188902D01*
X163709584Y-82181407D01*
X163759259Y-82175644D01*
X163762500Y-82175000D01*
X164237500Y-82175000D01*
X164240730Y-82175642D01*
G37*
G36*
X169990730Y-82175642D02*
G01*
X170040412Y-82181406D01*
X170057389Y-82188902D01*
X170078387Y-82193079D01*
X170100867Y-82208099D01*
X170121326Y-82217133D01*
X170135298Y-82231105D01*
X170155438Y-82244562D01*
X170168894Y-82264701D01*
X170182866Y-82278673D01*
X170191899Y-82299130D01*
X170206921Y-82321613D01*
X170211098Y-82342611D01*
X170218592Y-82359584D01*
X170224353Y-82409247D01*
X170225000Y-82412500D01*
X170225000Y-83012500D01*
X170224354Y-83015742D01*
X170218593Y-83065412D01*
X170211098Y-83082385D01*
X170206921Y-83103387D01*
X170191897Y-83125871D01*
X170182866Y-83146326D01*
X170168896Y-83160295D01*
X170155438Y-83180438D01*
X170135295Y-83193896D01*
X170121326Y-83207866D01*
X170100871Y-83216897D01*
X170078387Y-83231921D01*
X170057386Y-83236098D01*
X170040415Y-83243592D01*
X169990753Y-83249352D01*
X169987500Y-83250000D01*
X169512500Y-83250000D01*
X169509258Y-83249355D01*
X169459587Y-83243593D01*
X169442613Y-83236098D01*
X169421613Y-83231921D01*
X169399130Y-83216898D01*
X169378673Y-83207866D01*
X169364701Y-83193894D01*
X169344562Y-83180438D01*
X169331105Y-83160298D01*
X169317133Y-83146326D01*
X169308099Y-83125866D01*
X169293079Y-83103387D01*
X169288902Y-83082390D01*
X169281407Y-83065415D01*
X169275644Y-83015741D01*
X169275000Y-83012500D01*
X169275000Y-82412500D01*
X169275642Y-82409270D01*
X169281406Y-82359587D01*
X169288902Y-82342608D01*
X169293079Y-82321613D01*
X169308098Y-82299134D01*
X169317133Y-82278673D01*
X169331107Y-82264698D01*
X169344562Y-82244562D01*
X169364698Y-82231107D01*
X169378673Y-82217133D01*
X169399135Y-82208098D01*
X169421613Y-82193079D01*
X169442607Y-82188902D01*
X169459584Y-82181407D01*
X169509259Y-82175644D01*
X169512500Y-82175000D01*
X169987500Y-82175000D01*
X169990730Y-82175642D01*
G37*
G36*
X171990730Y-82175642D02*
G01*
X172040412Y-82181406D01*
X172057389Y-82188902D01*
X172078387Y-82193079D01*
X172100867Y-82208099D01*
X172121326Y-82217133D01*
X172135298Y-82231105D01*
X172155438Y-82244562D01*
X172168894Y-82264701D01*
X172182866Y-82278673D01*
X172191899Y-82299130D01*
X172206921Y-82321613D01*
X172211098Y-82342611D01*
X172218592Y-82359584D01*
X172224353Y-82409247D01*
X172225000Y-82412500D01*
X172225000Y-83012500D01*
X172224354Y-83015742D01*
X172218593Y-83065412D01*
X172211098Y-83082385D01*
X172206921Y-83103387D01*
X172191897Y-83125871D01*
X172182866Y-83146326D01*
X172168896Y-83160295D01*
X172155438Y-83180438D01*
X172135295Y-83193896D01*
X172121326Y-83207866D01*
X172100871Y-83216897D01*
X172078387Y-83231921D01*
X172057386Y-83236098D01*
X172040415Y-83243592D01*
X171990753Y-83249352D01*
X171987500Y-83250000D01*
X171512500Y-83250000D01*
X171509258Y-83249355D01*
X171459587Y-83243593D01*
X171442613Y-83236098D01*
X171421613Y-83231921D01*
X171399130Y-83216898D01*
X171378673Y-83207866D01*
X171364701Y-83193894D01*
X171344562Y-83180438D01*
X171331105Y-83160298D01*
X171317133Y-83146326D01*
X171308099Y-83125866D01*
X171293079Y-83103387D01*
X171288902Y-83082390D01*
X171281407Y-83065415D01*
X171275644Y-83015741D01*
X171275000Y-83012500D01*
X171275000Y-82412500D01*
X171275642Y-82409270D01*
X171281406Y-82359587D01*
X171288902Y-82342608D01*
X171293079Y-82321613D01*
X171308098Y-82299134D01*
X171317133Y-82278673D01*
X171331107Y-82264698D01*
X171344562Y-82244562D01*
X171364698Y-82231107D01*
X171378673Y-82217133D01*
X171399135Y-82208098D01*
X171421613Y-82193079D01*
X171442607Y-82188902D01*
X171459584Y-82181407D01*
X171509259Y-82175644D01*
X171512500Y-82175000D01*
X171987500Y-82175000D01*
X171990730Y-82175642D01*
G37*
G36*
X174750000Y-83200000D02*
G01*
X173750000Y-83200000D01*
X173750000Y-82200000D01*
X174750000Y-82200000D01*
X174750000Y-83200000D01*
G37*
G36*
X164240730Y-80450642D02*
G01*
X164290412Y-80456406D01*
X164307389Y-80463902D01*
X164328387Y-80468079D01*
X164350867Y-80483099D01*
X164371326Y-80492133D01*
X164385298Y-80506105D01*
X164405438Y-80519562D01*
X164418894Y-80539701D01*
X164432866Y-80553673D01*
X164441899Y-80574130D01*
X164456921Y-80596613D01*
X164461098Y-80617611D01*
X164468592Y-80634584D01*
X164474353Y-80684247D01*
X164475000Y-80687500D01*
X164475000Y-81287500D01*
X164474354Y-81290742D01*
X164468593Y-81340412D01*
X164461098Y-81357385D01*
X164456921Y-81378387D01*
X164441897Y-81400871D01*
X164432866Y-81421326D01*
X164418896Y-81435295D01*
X164405438Y-81455438D01*
X164385295Y-81468896D01*
X164371326Y-81482866D01*
X164350871Y-81491897D01*
X164328387Y-81506921D01*
X164307386Y-81511098D01*
X164290415Y-81518592D01*
X164240753Y-81524352D01*
X164237500Y-81525000D01*
X163762500Y-81525000D01*
X163759258Y-81524355D01*
X163709587Y-81518593D01*
X163692613Y-81511098D01*
X163671613Y-81506921D01*
X163649130Y-81491898D01*
X163628673Y-81482866D01*
X163614701Y-81468894D01*
X163594562Y-81455438D01*
X163581105Y-81435298D01*
X163567133Y-81421326D01*
X163558099Y-81400866D01*
X163543079Y-81378387D01*
X163538902Y-81357390D01*
X163531407Y-81340415D01*
X163525644Y-81290741D01*
X163525000Y-81287500D01*
X163525000Y-80687500D01*
X163525642Y-80684270D01*
X163531406Y-80634587D01*
X163538902Y-80617608D01*
X163543079Y-80596613D01*
X163558098Y-80574134D01*
X163567133Y-80553673D01*
X163581107Y-80539698D01*
X163594562Y-80519562D01*
X163614698Y-80506107D01*
X163628673Y-80492133D01*
X163649135Y-80483098D01*
X163671613Y-80468079D01*
X163692607Y-80463902D01*
X163709584Y-80456407D01*
X163759259Y-80450644D01*
X163762500Y-80450000D01*
X164237500Y-80450000D01*
X164240730Y-80450642D01*
G37*
G36*
X169990730Y-80450642D02*
G01*
X170040412Y-80456406D01*
X170057389Y-80463902D01*
X170078387Y-80468079D01*
X170100867Y-80483099D01*
X170121326Y-80492133D01*
X170135298Y-80506105D01*
X170155438Y-80519562D01*
X170168894Y-80539701D01*
X170182866Y-80553673D01*
X170191899Y-80574130D01*
X170206921Y-80596613D01*
X170211098Y-80617611D01*
X170218592Y-80634584D01*
X170224353Y-80684247D01*
X170225000Y-80687500D01*
X170225000Y-81287500D01*
X170224354Y-81290742D01*
X170218593Y-81340412D01*
X170211098Y-81357385D01*
X170206921Y-81378387D01*
X170191897Y-81400871D01*
X170182866Y-81421326D01*
X170168896Y-81435295D01*
X170155438Y-81455438D01*
X170135295Y-81468896D01*
X170121326Y-81482866D01*
X170100871Y-81491897D01*
X170078387Y-81506921D01*
X170057386Y-81511098D01*
X170040415Y-81518592D01*
X169990753Y-81524352D01*
X169987500Y-81525000D01*
X169512500Y-81525000D01*
X169509258Y-81524355D01*
X169459587Y-81518593D01*
X169442613Y-81511098D01*
X169421613Y-81506921D01*
X169399130Y-81491898D01*
X169378673Y-81482866D01*
X169364701Y-81468894D01*
X169344562Y-81455438D01*
X169331105Y-81435298D01*
X169317133Y-81421326D01*
X169308099Y-81400866D01*
X169293079Y-81378387D01*
X169288902Y-81357390D01*
X169281407Y-81340415D01*
X169275644Y-81290741D01*
X169275000Y-81287500D01*
X169275000Y-80687500D01*
X169275642Y-80684270D01*
X169281406Y-80634587D01*
X169288902Y-80617608D01*
X169293079Y-80596613D01*
X169308098Y-80574134D01*
X169317133Y-80553673D01*
X169331107Y-80539698D01*
X169344562Y-80519562D01*
X169364698Y-80506107D01*
X169378673Y-80492133D01*
X169399135Y-80483098D01*
X169421613Y-80468079D01*
X169442607Y-80463902D01*
X169459584Y-80456407D01*
X169509259Y-80450644D01*
X169512500Y-80450000D01*
X169987500Y-80450000D01*
X169990730Y-80450642D01*
G37*
G36*
X171990730Y-80450642D02*
G01*
X172040412Y-80456406D01*
X172057389Y-80463902D01*
X172078387Y-80468079D01*
X172100867Y-80483099D01*
X172121326Y-80492133D01*
X172135298Y-80506105D01*
X172155438Y-80519562D01*
X172168894Y-80539701D01*
X172182866Y-80553673D01*
X172191899Y-80574130D01*
X172206921Y-80596613D01*
X172211098Y-80617611D01*
X172218592Y-80634584D01*
X172224353Y-80684247D01*
X172225000Y-80687500D01*
X172225000Y-81287500D01*
X172224354Y-81290742D01*
X172218593Y-81340412D01*
X172211098Y-81357385D01*
X172206921Y-81378387D01*
X172191897Y-81400871D01*
X172182866Y-81421326D01*
X172168896Y-81435295D01*
X172155438Y-81455438D01*
X172135295Y-81468896D01*
X172121326Y-81482866D01*
X172100871Y-81491897D01*
X172078387Y-81506921D01*
X172057386Y-81511098D01*
X172040415Y-81518592D01*
X171990753Y-81524352D01*
X171987500Y-81525000D01*
X171512500Y-81525000D01*
X171509258Y-81524355D01*
X171459587Y-81518593D01*
X171442613Y-81511098D01*
X171421613Y-81506921D01*
X171399130Y-81491898D01*
X171378673Y-81482866D01*
X171364701Y-81468894D01*
X171344562Y-81455438D01*
X171331105Y-81435298D01*
X171317133Y-81421326D01*
X171308099Y-81400866D01*
X171293079Y-81378387D01*
X171288902Y-81357390D01*
X171281407Y-81340415D01*
X171275644Y-81290741D01*
X171275000Y-81287500D01*
X171275000Y-80687500D01*
X171275642Y-80684270D01*
X171281406Y-80634587D01*
X171288902Y-80617608D01*
X171293079Y-80596613D01*
X171308098Y-80574134D01*
X171317133Y-80553673D01*
X171331107Y-80539698D01*
X171344562Y-80519562D01*
X171364698Y-80506107D01*
X171378673Y-80492133D01*
X171399135Y-80483098D01*
X171421613Y-80468079D01*
X171442607Y-80463902D01*
X171459584Y-80456407D01*
X171509259Y-80450644D01*
X171512500Y-80450000D01*
X171987500Y-80450000D01*
X171990730Y-80450642D01*
G37*
G36*
X166007403Y-80061418D02*
G01*
X166056066Y-80093934D01*
X166088582Y-80142597D01*
X166100000Y-80200000D01*
X166100000Y-81225000D01*
X166088582Y-81282403D01*
X166056066Y-81331066D01*
X166007403Y-81363582D01*
X165950000Y-81375000D01*
X165650000Y-81375000D01*
X165592597Y-81363582D01*
X165543934Y-81331066D01*
X165511418Y-81282403D01*
X165500000Y-81225000D01*
X165500000Y-80200000D01*
X165511418Y-80142597D01*
X165543934Y-80093934D01*
X165592597Y-80061418D01*
X165650000Y-80050000D01*
X165950000Y-80050000D01*
X166007403Y-80061418D01*
G37*
G36*
X166957403Y-80061418D02*
G01*
X167006066Y-80093934D01*
X167038582Y-80142597D01*
X167050000Y-80200000D01*
X167050000Y-81225000D01*
X167038582Y-81282403D01*
X167006066Y-81331066D01*
X166957403Y-81363582D01*
X166900000Y-81375000D01*
X166600000Y-81375000D01*
X166542597Y-81363582D01*
X166493934Y-81331066D01*
X166461418Y-81282403D01*
X166450000Y-81225000D01*
X166450000Y-80200000D01*
X166461418Y-80142597D01*
X166493934Y-80093934D01*
X166542597Y-80061418D01*
X166600000Y-80050000D01*
X166900000Y-80050000D01*
X166957403Y-80061418D01*
G37*
G36*
X167907403Y-80061418D02*
G01*
X167956066Y-80093934D01*
X167988582Y-80142597D01*
X168000000Y-80200000D01*
X168000000Y-81225000D01*
X167988582Y-81282403D01*
X167956066Y-81331066D01*
X167907403Y-81363582D01*
X167850000Y-81375000D01*
X167550000Y-81375000D01*
X167492597Y-81363582D01*
X167443934Y-81331066D01*
X167411418Y-81282403D01*
X167400000Y-81225000D01*
X167400000Y-80200000D01*
X167411418Y-80142597D01*
X167443934Y-80093934D01*
X167492597Y-80061418D01*
X167550000Y-80050000D01*
X167850000Y-80050000D01*
X167907403Y-80061418D01*
G37*
G36*
X119472068Y-79707941D02*
G01*
X119610619Y-79765330D01*
X119735311Y-79848647D01*
X119841353Y-79954689D01*
X119924670Y-80079381D01*
X119982059Y-80217932D01*
X120011316Y-80365017D01*
X120011316Y-80514983D01*
X119982059Y-80662068D01*
X119924670Y-80800619D01*
X119841353Y-80925311D01*
X119735311Y-81031353D01*
X119610619Y-81114670D01*
X119472068Y-81172059D01*
X119324983Y-81201316D01*
X119175017Y-81201316D01*
X119027932Y-81172059D01*
X118889381Y-81114670D01*
X118764689Y-81031353D01*
X118658647Y-80925311D01*
X118575330Y-80800619D01*
X118517941Y-80662068D01*
X118488684Y-80514983D01*
X118488684Y-80365017D01*
X118517941Y-80217932D01*
X118575330Y-80079381D01*
X118658647Y-79954689D01*
X118764689Y-79848647D01*
X118889381Y-79765330D01*
X119027932Y-79707941D01*
X119175017Y-79678684D01*
X119324983Y-79678684D01*
X119472068Y-79707941D01*
G37*
G36*
X122012068Y-79707941D02*
G01*
X122150619Y-79765330D01*
X122275311Y-79848647D01*
X122381353Y-79954689D01*
X122464670Y-80079381D01*
X122522059Y-80217932D01*
X122551316Y-80365017D01*
X122551316Y-80514983D01*
X122522059Y-80662068D01*
X122464670Y-80800619D01*
X122381353Y-80925311D01*
X122275311Y-81031353D01*
X122150619Y-81114670D01*
X122012068Y-81172059D01*
X121864983Y-81201316D01*
X121715017Y-81201316D01*
X121567932Y-81172059D01*
X121429381Y-81114670D01*
X121304689Y-81031353D01*
X121198647Y-80925311D01*
X121115330Y-80800619D01*
X121057941Y-80662068D01*
X121028684Y-80514983D01*
X121028684Y-80365017D01*
X121057941Y-80217932D01*
X121115330Y-80079381D01*
X121198647Y-79954689D01*
X121304689Y-79848647D01*
X121429381Y-79765330D01*
X121567932Y-79707941D01*
X121715017Y-79678684D01*
X121864983Y-79678684D01*
X122012068Y-79707941D01*
G37*
G36*
X180472068Y-79707941D02*
G01*
X180610619Y-79765330D01*
X180735311Y-79848647D01*
X180841353Y-79954689D01*
X180924670Y-80079381D01*
X180982059Y-80217932D01*
X181011316Y-80365017D01*
X181011316Y-80514983D01*
X180982059Y-80662068D01*
X180924670Y-80800619D01*
X180841353Y-80925311D01*
X180735311Y-81031353D01*
X180610619Y-81114670D01*
X180472068Y-81172059D01*
X180324983Y-81201316D01*
X180175017Y-81201316D01*
X180027932Y-81172059D01*
X179889381Y-81114670D01*
X179764689Y-81031353D01*
X179658647Y-80925311D01*
X179575330Y-80800619D01*
X179517941Y-80662068D01*
X179488684Y-80514983D01*
X179488684Y-80365017D01*
X179517941Y-80217932D01*
X179575330Y-80079381D01*
X179658647Y-79954689D01*
X179764689Y-79848647D01*
X179889381Y-79765330D01*
X180027932Y-79707941D01*
X180175017Y-79678684D01*
X180324983Y-79678684D01*
X180472068Y-79707941D01*
G37*
G36*
X183012068Y-79707941D02*
G01*
X183150619Y-79765330D01*
X183275311Y-79848647D01*
X183381353Y-79954689D01*
X183464670Y-80079381D01*
X183522059Y-80217932D01*
X183551316Y-80365017D01*
X183551316Y-80514983D01*
X183522059Y-80662068D01*
X183464670Y-80800619D01*
X183381353Y-80925311D01*
X183275311Y-81031353D01*
X183150619Y-81114670D01*
X183012068Y-81172059D01*
X182864983Y-81201316D01*
X182715017Y-81201316D01*
X182567932Y-81172059D01*
X182429381Y-81114670D01*
X182304689Y-81031353D01*
X182198647Y-80925311D01*
X182115330Y-80800619D01*
X182057941Y-80662068D01*
X182028684Y-80514983D01*
X182028684Y-80365017D01*
X182057941Y-80217932D01*
X182115330Y-80079381D01*
X182198647Y-79954689D01*
X182304689Y-79848647D01*
X182429381Y-79765330D01*
X182567932Y-79707941D01*
X182715017Y-79678684D01*
X182864983Y-79678684D01*
X183012068Y-79707941D01*
G37*
G36*
X161675969Y-78810855D02*
G01*
X161682130Y-78813153D01*
X161687051Y-78813744D01*
X161745297Y-78836713D01*
X161802643Y-78858102D01*
X161806101Y-78860690D01*
X161807618Y-78861289D01*
X161862776Y-78903117D01*
X161910876Y-78939124D01*
X161946901Y-78987248D01*
X161988710Y-79042381D01*
X161989307Y-79043896D01*
X161991898Y-79047357D01*
X162013293Y-79104721D01*
X162036255Y-79162947D01*
X162036845Y-79167866D01*
X162039145Y-79174031D01*
X162050000Y-79275000D01*
X162050000Y-80225000D01*
X162039145Y-80325969D01*
X162036845Y-80332134D01*
X162036255Y-80337051D01*
X162013304Y-80395250D01*
X161991898Y-80452643D01*
X161989306Y-80456104D01*
X161988710Y-80457618D01*
X161946959Y-80512673D01*
X161910876Y-80560876D01*
X161862673Y-80596959D01*
X161807618Y-80638710D01*
X161806104Y-80639306D01*
X161802643Y-80641898D01*
X161745260Y-80663300D01*
X161687052Y-80686255D01*
X161682133Y-80686845D01*
X161675969Y-80689145D01*
X161575000Y-80700000D01*
X157425000Y-80700000D01*
X157324031Y-80689145D01*
X157317866Y-80686845D01*
X157312948Y-80686255D01*
X157254731Y-80663297D01*
X157197357Y-80641898D01*
X157193896Y-80639307D01*
X157192381Y-80638710D01*
X157137248Y-80596901D01*
X157089124Y-80560876D01*
X157053117Y-80512776D01*
X157011289Y-80457618D01*
X157010690Y-80456101D01*
X157008102Y-80452643D01*
X156986716Y-80395306D01*
X156963744Y-80337052D01*
X156963152Y-80332129D01*
X156960855Y-80325969D01*
X156950000Y-80225000D01*
X156950000Y-79275000D01*
X156960855Y-79174031D01*
X156963152Y-79167870D01*
X156963744Y-79162948D01*
X156986720Y-79104684D01*
X157008102Y-79047357D01*
X157010690Y-79043899D01*
X157011289Y-79042381D01*
X157053175Y-78987145D01*
X157089124Y-78939124D01*
X157137145Y-78903175D01*
X157192381Y-78861289D01*
X157193899Y-78860690D01*
X157197357Y-78858102D01*
X157254674Y-78836723D01*
X157312947Y-78813744D01*
X157317870Y-78813152D01*
X157324031Y-78810855D01*
X157425000Y-78800000D01*
X161575000Y-78800000D01*
X161675969Y-78810855D01*
G37*
G36*
X154750000Y-80200000D02*
G01*
X153750000Y-80200000D01*
X153750000Y-79200000D01*
X154750000Y-79200000D01*
X154750000Y-80200000D01*
G37*
G36*
X165740730Y-78025642D02*
G01*
X165790412Y-78031406D01*
X165807389Y-78038902D01*
X165828387Y-78043079D01*
X165850867Y-78058099D01*
X165871326Y-78067133D01*
X165885298Y-78081105D01*
X165905438Y-78094562D01*
X165918894Y-78114701D01*
X165932866Y-78128673D01*
X165941899Y-78149130D01*
X165956921Y-78171613D01*
X165961098Y-78192611D01*
X165968592Y-78209584D01*
X165974353Y-78259247D01*
X165975000Y-78262500D01*
X165975000Y-78762500D01*
X165974354Y-78765742D01*
X165968593Y-78815412D01*
X165961098Y-78832385D01*
X165956921Y-78853387D01*
X165941897Y-78875871D01*
X165932866Y-78896326D01*
X165918896Y-78910295D01*
X165905438Y-78930438D01*
X165885295Y-78943896D01*
X165871326Y-78957866D01*
X165850871Y-78966897D01*
X165828387Y-78981921D01*
X165807386Y-78986098D01*
X165790415Y-78993592D01*
X165740753Y-78999352D01*
X165737500Y-79000000D01*
X165262500Y-79000000D01*
X165259258Y-78999355D01*
X165209587Y-78993593D01*
X165192613Y-78986098D01*
X165171613Y-78981921D01*
X165149130Y-78966898D01*
X165128673Y-78957866D01*
X165114701Y-78943894D01*
X165094562Y-78930438D01*
X165081105Y-78910298D01*
X165067133Y-78896326D01*
X165058099Y-78875866D01*
X165043079Y-78853387D01*
X165038902Y-78832390D01*
X165031407Y-78815415D01*
X165025644Y-78765741D01*
X165025000Y-78762500D01*
X165025000Y-78262500D01*
X165025642Y-78259270D01*
X165031406Y-78209587D01*
X165038902Y-78192608D01*
X165043079Y-78171613D01*
X165058098Y-78149134D01*
X165067133Y-78128673D01*
X165081107Y-78114698D01*
X165094562Y-78094562D01*
X165114698Y-78081107D01*
X165128673Y-78067133D01*
X165149135Y-78058098D01*
X165171613Y-78043079D01*
X165192607Y-78038902D01*
X165209584Y-78031407D01*
X165259259Y-78025644D01*
X165262500Y-78025000D01*
X165737500Y-78025000D01*
X165740730Y-78025642D01*
G37*
G36*
X167740730Y-78025642D02*
G01*
X167790412Y-78031406D01*
X167807389Y-78038902D01*
X167828387Y-78043079D01*
X167850867Y-78058099D01*
X167871326Y-78067133D01*
X167885298Y-78081105D01*
X167905438Y-78094562D01*
X167918894Y-78114701D01*
X167932866Y-78128673D01*
X167941899Y-78149130D01*
X167956921Y-78171613D01*
X167961098Y-78192611D01*
X167968592Y-78209584D01*
X167974353Y-78259247D01*
X167975000Y-78262500D01*
X167975000Y-78762500D01*
X167974354Y-78765742D01*
X167968593Y-78815412D01*
X167961098Y-78832385D01*
X167956921Y-78853387D01*
X167941897Y-78875871D01*
X167932866Y-78896326D01*
X167918896Y-78910295D01*
X167905438Y-78930438D01*
X167885295Y-78943896D01*
X167871326Y-78957866D01*
X167850871Y-78966897D01*
X167828387Y-78981921D01*
X167807386Y-78986098D01*
X167790415Y-78993592D01*
X167740753Y-78999352D01*
X167737500Y-79000000D01*
X167262500Y-79000000D01*
X167259258Y-78999355D01*
X167209587Y-78993593D01*
X167192613Y-78986098D01*
X167171613Y-78981921D01*
X167149130Y-78966898D01*
X167128673Y-78957866D01*
X167114701Y-78943894D01*
X167094562Y-78930438D01*
X167081105Y-78910298D01*
X167067133Y-78896326D01*
X167058099Y-78875866D01*
X167043079Y-78853387D01*
X167038902Y-78832390D01*
X167031407Y-78815415D01*
X167025644Y-78765741D01*
X167025000Y-78762500D01*
X167025000Y-78262500D01*
X167025642Y-78259270D01*
X167031406Y-78209587D01*
X167038902Y-78192608D01*
X167043079Y-78171613D01*
X167058098Y-78149134D01*
X167067133Y-78128673D01*
X167081107Y-78114698D01*
X167094562Y-78094562D01*
X167114698Y-78081107D01*
X167128673Y-78067133D01*
X167149135Y-78058098D01*
X167171613Y-78043079D01*
X167192607Y-78038902D01*
X167209584Y-78031407D01*
X167259259Y-78025644D01*
X167262500Y-78025000D01*
X167737500Y-78025000D01*
X167740730Y-78025642D01*
G37*
G36*
X119472068Y-77167941D02*
G01*
X119610619Y-77225330D01*
X119735311Y-77308647D01*
X119841353Y-77414689D01*
X119924670Y-77539381D01*
X119982059Y-77677932D01*
X120011316Y-77825017D01*
X120011316Y-77974983D01*
X119982059Y-78122068D01*
X119924670Y-78260619D01*
X119841353Y-78385311D01*
X119735311Y-78491353D01*
X119610619Y-78574670D01*
X119472068Y-78632059D01*
X119324983Y-78661316D01*
X119175017Y-78661316D01*
X119027932Y-78632059D01*
X118889381Y-78574670D01*
X118764689Y-78491353D01*
X118658647Y-78385311D01*
X118575330Y-78260619D01*
X118517941Y-78122068D01*
X118488684Y-77974983D01*
X118488684Y-77825017D01*
X118517941Y-77677932D01*
X118575330Y-77539381D01*
X118658647Y-77414689D01*
X118764689Y-77308647D01*
X118889381Y-77225330D01*
X119027932Y-77167941D01*
X119175017Y-77138684D01*
X119324983Y-77138684D01*
X119472068Y-77167941D01*
G37*
G36*
X122012068Y-77167941D02*
G01*
X122150619Y-77225330D01*
X122275311Y-77308647D01*
X122381353Y-77414689D01*
X122464670Y-77539381D01*
X122522059Y-77677932D01*
X122551316Y-77825017D01*
X122551316Y-77974983D01*
X122522059Y-78122068D01*
X122464670Y-78260619D01*
X122381353Y-78385311D01*
X122275311Y-78491353D01*
X122150619Y-78574670D01*
X122012068Y-78632059D01*
X121864983Y-78661316D01*
X121715017Y-78661316D01*
X121567932Y-78632059D01*
X121429381Y-78574670D01*
X121304689Y-78491353D01*
X121198647Y-78385311D01*
X121115330Y-78260619D01*
X121057941Y-78122068D01*
X121028684Y-77974983D01*
X121028684Y-77825017D01*
X121057941Y-77677932D01*
X121115330Y-77539381D01*
X121198647Y-77414689D01*
X121304689Y-77308647D01*
X121429381Y-77225330D01*
X121567932Y-77167941D01*
X121715017Y-77138684D01*
X121864983Y-77138684D01*
X122012068Y-77167941D01*
G37*
G36*
X180472068Y-77167941D02*
G01*
X180610619Y-77225330D01*
X180735311Y-77308647D01*
X180841353Y-77414689D01*
X180924670Y-77539381D01*
X180982059Y-77677932D01*
X181011316Y-77825017D01*
X181011316Y-77974983D01*
X180982059Y-78122068D01*
X180924670Y-78260619D01*
X180841353Y-78385311D01*
X180735311Y-78491353D01*
X180610619Y-78574670D01*
X180472068Y-78632059D01*
X180324983Y-78661316D01*
X180175017Y-78661316D01*
X180027932Y-78632059D01*
X179889381Y-78574670D01*
X179764689Y-78491353D01*
X179658647Y-78385311D01*
X179575330Y-78260619D01*
X179517941Y-78122068D01*
X179488684Y-77974983D01*
X179488684Y-77825017D01*
X179517941Y-77677932D01*
X179575330Y-77539381D01*
X179658647Y-77414689D01*
X179764689Y-77308647D01*
X179889381Y-77225330D01*
X180027932Y-77167941D01*
X180175017Y-77138684D01*
X180324983Y-77138684D01*
X180472068Y-77167941D01*
G37*
G36*
X183012068Y-77167941D02*
G01*
X183150619Y-77225330D01*
X183275311Y-77308647D01*
X183381353Y-77414689D01*
X183464670Y-77539381D01*
X183522059Y-77677932D01*
X183551316Y-77825017D01*
X183551316Y-77974983D01*
X183522059Y-78122068D01*
X183464670Y-78260619D01*
X183381353Y-78385311D01*
X183275311Y-78491353D01*
X183150619Y-78574670D01*
X183012068Y-78632059D01*
X182864983Y-78661316D01*
X182715017Y-78661316D01*
X182567932Y-78632059D01*
X182429381Y-78574670D01*
X182304689Y-78491353D01*
X182198647Y-78385311D01*
X182115330Y-78260619D01*
X182057941Y-78122068D01*
X182028684Y-77974983D01*
X182028684Y-77825017D01*
X182057941Y-77677932D01*
X182115330Y-77539381D01*
X182198647Y-77414689D01*
X182304689Y-77308647D01*
X182429381Y-77225330D01*
X182567932Y-77167941D01*
X182715017Y-77138684D01*
X182864983Y-77138684D01*
X183012068Y-77167941D01*
G37*
G36*
X159990730Y-76775642D02*
G01*
X160040412Y-76781406D01*
X160057389Y-76788902D01*
X160078387Y-76793079D01*
X160100867Y-76808099D01*
X160121326Y-76817133D01*
X160135298Y-76831105D01*
X160155438Y-76844562D01*
X160168894Y-76864701D01*
X160182866Y-76878673D01*
X160191899Y-76899130D01*
X160206921Y-76921613D01*
X160211098Y-76942611D01*
X160218592Y-76959584D01*
X160224353Y-77009247D01*
X160225000Y-77012500D01*
X160225000Y-77512500D01*
X160224354Y-77515742D01*
X160218593Y-77565412D01*
X160211098Y-77582385D01*
X160206921Y-77603387D01*
X160191897Y-77625871D01*
X160182866Y-77646326D01*
X160168896Y-77660295D01*
X160155438Y-77680438D01*
X160135295Y-77693896D01*
X160121326Y-77707866D01*
X160100871Y-77716897D01*
X160078387Y-77731921D01*
X160057386Y-77736098D01*
X160040415Y-77743592D01*
X159990753Y-77749352D01*
X159987500Y-77750000D01*
X159512500Y-77750000D01*
X159509258Y-77749355D01*
X159459587Y-77743593D01*
X159442613Y-77736098D01*
X159421613Y-77731921D01*
X159399130Y-77716898D01*
X159378673Y-77707866D01*
X159364701Y-77693894D01*
X159344562Y-77680438D01*
X159331105Y-77660298D01*
X159317133Y-77646326D01*
X159308099Y-77625866D01*
X159293079Y-77603387D01*
X159288902Y-77582390D01*
X159281407Y-77565415D01*
X159275644Y-77515741D01*
X159275000Y-77512500D01*
X159275000Y-77012500D01*
X159275642Y-77009270D01*
X159281406Y-76959587D01*
X159288902Y-76942608D01*
X159293079Y-76921613D01*
X159308098Y-76899134D01*
X159317133Y-76878673D01*
X159331107Y-76864698D01*
X159344562Y-76844562D01*
X159364698Y-76831107D01*
X159378673Y-76817133D01*
X159399135Y-76808098D01*
X159421613Y-76793079D01*
X159442607Y-76788902D01*
X159459584Y-76781407D01*
X159509259Y-76775644D01*
X159512500Y-76775000D01*
X159987500Y-76775000D01*
X159990730Y-76775642D01*
G37*
G36*
X161990730Y-76675642D02*
G01*
X162040412Y-76681406D01*
X162057389Y-76688902D01*
X162078387Y-76693079D01*
X162100867Y-76708099D01*
X162121326Y-76717133D01*
X162135298Y-76731105D01*
X162155438Y-76744562D01*
X162168894Y-76764701D01*
X162182866Y-76778673D01*
X162191899Y-76799130D01*
X162206921Y-76821613D01*
X162211098Y-76842611D01*
X162218592Y-76859584D01*
X162224353Y-76909247D01*
X162225000Y-76912500D01*
X162225000Y-77512500D01*
X162224354Y-77515742D01*
X162218593Y-77565412D01*
X162211098Y-77582385D01*
X162206921Y-77603387D01*
X162191897Y-77625871D01*
X162182866Y-77646326D01*
X162168896Y-77660295D01*
X162155438Y-77680438D01*
X162135295Y-77693896D01*
X162121326Y-77707866D01*
X162100871Y-77716897D01*
X162078387Y-77731921D01*
X162057386Y-77736098D01*
X162040415Y-77743592D01*
X161990753Y-77749352D01*
X161987500Y-77750000D01*
X161512500Y-77750000D01*
X161509258Y-77749355D01*
X161459587Y-77743593D01*
X161442613Y-77736098D01*
X161421613Y-77731921D01*
X161399130Y-77716898D01*
X161378673Y-77707866D01*
X161364701Y-77693894D01*
X161344562Y-77680438D01*
X161331105Y-77660298D01*
X161317133Y-77646326D01*
X161308099Y-77625866D01*
X161293079Y-77603387D01*
X161288902Y-77582390D01*
X161281407Y-77565415D01*
X161275644Y-77515741D01*
X161275000Y-77512500D01*
X161275000Y-76912500D01*
X161275642Y-76909270D01*
X161281406Y-76859587D01*
X161288902Y-76842608D01*
X161293079Y-76821613D01*
X161308098Y-76799134D01*
X161317133Y-76778673D01*
X161331107Y-76764698D01*
X161344562Y-76744562D01*
X161364698Y-76731107D01*
X161378673Y-76717133D01*
X161399135Y-76708098D01*
X161421613Y-76693079D01*
X161442607Y-76688902D01*
X161459584Y-76681407D01*
X161509259Y-76675644D01*
X161512500Y-76675000D01*
X161987500Y-76675000D01*
X161990730Y-76675642D01*
G37*
G36*
X163740730Y-76675642D02*
G01*
X163790412Y-76681406D01*
X163807389Y-76688902D01*
X163828387Y-76693079D01*
X163850867Y-76708099D01*
X163871326Y-76717133D01*
X163885298Y-76731105D01*
X163905438Y-76744562D01*
X163918894Y-76764701D01*
X163932866Y-76778673D01*
X163941899Y-76799130D01*
X163956921Y-76821613D01*
X163961098Y-76842611D01*
X163968592Y-76859584D01*
X163974353Y-76909247D01*
X163975000Y-76912500D01*
X163975000Y-77512500D01*
X163974354Y-77515742D01*
X163968593Y-77565412D01*
X163961098Y-77582385D01*
X163956921Y-77603387D01*
X163941897Y-77625871D01*
X163932866Y-77646326D01*
X163918896Y-77660295D01*
X163905438Y-77680438D01*
X163885295Y-77693896D01*
X163871326Y-77707866D01*
X163850871Y-77716897D01*
X163828387Y-77731921D01*
X163807386Y-77736098D01*
X163790415Y-77743592D01*
X163740753Y-77749352D01*
X163737500Y-77750000D01*
X163262500Y-77750000D01*
X163259258Y-77749355D01*
X163209587Y-77743593D01*
X163192613Y-77736098D01*
X163171613Y-77731921D01*
X163149130Y-77716898D01*
X163128673Y-77707866D01*
X163114701Y-77693894D01*
X163094562Y-77680438D01*
X163081105Y-77660298D01*
X163067133Y-77646326D01*
X163058099Y-77625866D01*
X163043079Y-77603387D01*
X163038902Y-77582390D01*
X163031407Y-77565415D01*
X163025644Y-77515741D01*
X163025000Y-77512500D01*
X163025000Y-76912500D01*
X163025642Y-76909270D01*
X163031406Y-76859587D01*
X163038902Y-76842608D01*
X163043079Y-76821613D01*
X163058098Y-76799134D01*
X163067133Y-76778673D01*
X163081107Y-76764698D01*
X163094562Y-76744562D01*
X163114698Y-76731107D01*
X163128673Y-76717133D01*
X163149135Y-76708098D01*
X163171613Y-76693079D01*
X163192607Y-76688902D01*
X163209584Y-76681407D01*
X163259259Y-76675644D01*
X163262500Y-76675000D01*
X163737500Y-76675000D01*
X163740730Y-76675642D01*
G37*
G36*
X165740730Y-76200642D02*
G01*
X165790412Y-76206406D01*
X165807389Y-76213902D01*
X165828387Y-76218079D01*
X165850867Y-76233099D01*
X165871326Y-76242133D01*
X165885298Y-76256105D01*
X165905438Y-76269562D01*
X165918894Y-76289701D01*
X165932866Y-76303673D01*
X165941899Y-76324130D01*
X165956921Y-76346613D01*
X165961098Y-76367611D01*
X165968592Y-76384584D01*
X165974353Y-76434247D01*
X165975000Y-76437500D01*
X165975000Y-76937500D01*
X165974354Y-76940742D01*
X165968593Y-76990412D01*
X165961098Y-77007385D01*
X165956921Y-77028387D01*
X165941897Y-77050871D01*
X165932866Y-77071326D01*
X165918896Y-77085295D01*
X165905438Y-77105438D01*
X165885295Y-77118896D01*
X165871326Y-77132866D01*
X165850871Y-77141897D01*
X165828387Y-77156921D01*
X165807386Y-77161098D01*
X165790415Y-77168592D01*
X165740753Y-77174352D01*
X165737500Y-77175000D01*
X165262500Y-77175000D01*
X165259258Y-77174355D01*
X165209587Y-77168593D01*
X165192613Y-77161098D01*
X165171613Y-77156921D01*
X165149130Y-77141898D01*
X165128673Y-77132866D01*
X165114701Y-77118894D01*
X165094562Y-77105438D01*
X165081105Y-77085298D01*
X165067133Y-77071326D01*
X165058099Y-77050866D01*
X165043079Y-77028387D01*
X165038902Y-77007390D01*
X165031407Y-76990415D01*
X165025644Y-76940741D01*
X165025000Y-76937500D01*
X165025000Y-76437500D01*
X165025642Y-76434270D01*
X165031406Y-76384587D01*
X165038902Y-76367608D01*
X165043079Y-76346613D01*
X165058098Y-76324134D01*
X165067133Y-76303673D01*
X165081107Y-76289698D01*
X165094562Y-76269562D01*
X165114698Y-76256107D01*
X165128673Y-76242133D01*
X165149135Y-76233098D01*
X165171613Y-76218079D01*
X165192607Y-76213902D01*
X165209584Y-76206407D01*
X165259259Y-76200644D01*
X165262500Y-76200000D01*
X165737500Y-76200000D01*
X165740730Y-76200642D01*
G37*
G36*
X167740730Y-76200642D02*
G01*
X167790412Y-76206406D01*
X167807389Y-76213902D01*
X167828387Y-76218079D01*
X167850867Y-76233099D01*
X167871326Y-76242133D01*
X167885298Y-76256105D01*
X167905438Y-76269562D01*
X167918894Y-76289701D01*
X167932866Y-76303673D01*
X167941899Y-76324130D01*
X167956921Y-76346613D01*
X167961098Y-76367611D01*
X167968592Y-76384584D01*
X167974353Y-76434247D01*
X167975000Y-76437500D01*
X167975000Y-76937500D01*
X167974354Y-76940742D01*
X167968593Y-76990412D01*
X167961098Y-77007385D01*
X167956921Y-77028387D01*
X167941897Y-77050871D01*
X167932866Y-77071326D01*
X167918896Y-77085295D01*
X167905438Y-77105438D01*
X167885295Y-77118896D01*
X167871326Y-77132866D01*
X167850871Y-77141897D01*
X167828387Y-77156921D01*
X167807386Y-77161098D01*
X167790415Y-77168592D01*
X167740753Y-77174352D01*
X167737500Y-77175000D01*
X167262500Y-77175000D01*
X167259258Y-77174355D01*
X167209587Y-77168593D01*
X167192613Y-77161098D01*
X167171613Y-77156921D01*
X167149130Y-77141898D01*
X167128673Y-77132866D01*
X167114701Y-77118894D01*
X167094562Y-77105438D01*
X167081105Y-77085298D01*
X167067133Y-77071326D01*
X167058099Y-77050866D01*
X167043079Y-77028387D01*
X167038902Y-77007390D01*
X167031407Y-76990415D01*
X167025644Y-76940741D01*
X167025000Y-76937500D01*
X167025000Y-76437500D01*
X167025642Y-76434270D01*
X167031406Y-76384587D01*
X167038902Y-76367608D01*
X167043079Y-76346613D01*
X167058098Y-76324134D01*
X167067133Y-76303673D01*
X167081107Y-76289698D01*
X167094562Y-76269562D01*
X167114698Y-76256107D01*
X167128673Y-76242133D01*
X167149135Y-76233098D01*
X167171613Y-76218079D01*
X167192607Y-76213902D01*
X167209584Y-76206407D01*
X167259259Y-76200644D01*
X167262500Y-76200000D01*
X167737500Y-76200000D01*
X167740730Y-76200642D01*
G37*
G36*
X155303231Y-74800642D02*
G01*
X155355772Y-74806738D01*
X155373723Y-74814664D01*
X155395671Y-74819030D01*
X155419166Y-74834729D01*
X155440890Y-74844321D01*
X155455726Y-74859157D01*
X155476777Y-74873223D01*
X155490842Y-74894273D01*
X155505678Y-74909109D01*
X155515269Y-74930830D01*
X155530970Y-74954329D01*
X155535335Y-74976277D01*
X155543260Y-74994224D01*
X155549352Y-75046747D01*
X155550000Y-75050000D01*
X155550000Y-75950000D01*
X155549354Y-75953243D01*
X155543261Y-76005772D01*
X155535336Y-76023719D01*
X155530970Y-76045671D01*
X155515267Y-76069171D01*
X155505678Y-76090890D01*
X155490844Y-76105723D01*
X155476777Y-76126777D01*
X155455723Y-76140844D01*
X155440890Y-76155678D01*
X155419170Y-76165267D01*
X155395671Y-76180970D01*
X155373720Y-76185336D01*
X155355775Y-76193260D01*
X155303254Y-76199352D01*
X155300000Y-76200000D01*
X154650000Y-76200000D01*
X154646758Y-76199355D01*
X154594227Y-76193261D01*
X154576278Y-76185335D01*
X154554329Y-76180970D01*
X154530830Y-76165268D01*
X154509109Y-76155678D01*
X154494273Y-76140842D01*
X154473223Y-76126777D01*
X154459157Y-76105726D01*
X154444321Y-76090890D01*
X154434729Y-76069166D01*
X154419030Y-76045671D01*
X154414664Y-76023724D01*
X154406739Y-76005775D01*
X154400644Y-75953242D01*
X154400000Y-75950000D01*
X154400000Y-75050000D01*
X154400642Y-75046770D01*
X154406738Y-74994227D01*
X154414664Y-74976274D01*
X154419030Y-74954329D01*
X154434728Y-74930835D01*
X154444321Y-74909109D01*
X154459159Y-74894270D01*
X154473223Y-74873223D01*
X154494270Y-74859159D01*
X154509109Y-74844321D01*
X154530835Y-74834727D01*
X154554329Y-74819030D01*
X154576273Y-74814665D01*
X154594224Y-74806739D01*
X154646759Y-74800644D01*
X154650000Y-74800000D01*
X155300000Y-74800000D01*
X155303231Y-74800642D01*
G37*
G36*
X157353231Y-74800642D02*
G01*
X157405772Y-74806738D01*
X157423723Y-74814664D01*
X157445671Y-74819030D01*
X157469166Y-74834729D01*
X157490890Y-74844321D01*
X157505726Y-74859157D01*
X157526777Y-74873223D01*
X157540842Y-74894273D01*
X157555678Y-74909109D01*
X157565269Y-74930830D01*
X157580970Y-74954329D01*
X157585335Y-74976277D01*
X157593260Y-74994224D01*
X157599352Y-75046747D01*
X157600000Y-75050000D01*
X157600000Y-75950000D01*
X157599354Y-75953243D01*
X157593261Y-76005772D01*
X157585336Y-76023719D01*
X157580970Y-76045671D01*
X157565267Y-76069171D01*
X157555678Y-76090890D01*
X157540844Y-76105723D01*
X157526777Y-76126777D01*
X157505723Y-76140844D01*
X157490890Y-76155678D01*
X157469170Y-76165267D01*
X157445671Y-76180970D01*
X157423720Y-76185336D01*
X157405775Y-76193260D01*
X157353254Y-76199352D01*
X157350000Y-76200000D01*
X156700000Y-76200000D01*
X156696758Y-76199355D01*
X156644227Y-76193261D01*
X156626278Y-76185335D01*
X156604329Y-76180970D01*
X156580830Y-76165268D01*
X156559109Y-76155678D01*
X156544273Y-76140842D01*
X156523223Y-76126777D01*
X156509157Y-76105726D01*
X156494321Y-76090890D01*
X156484729Y-76069166D01*
X156469030Y-76045671D01*
X156464664Y-76023724D01*
X156456739Y-76005775D01*
X156450644Y-75953242D01*
X156450000Y-75950000D01*
X156450000Y-75050000D01*
X156450642Y-75046770D01*
X156456738Y-74994227D01*
X156464664Y-74976274D01*
X156469030Y-74954329D01*
X156484728Y-74930835D01*
X156494321Y-74909109D01*
X156509159Y-74894270D01*
X156523223Y-74873223D01*
X156544270Y-74859159D01*
X156559109Y-74844321D01*
X156580835Y-74834727D01*
X156604329Y-74819030D01*
X156626273Y-74814665D01*
X156644224Y-74806739D01*
X156696759Y-74800644D01*
X156700000Y-74800000D01*
X157350000Y-74800000D01*
X157353231Y-74800642D01*
G37*
G36*
X119472068Y-74627941D02*
G01*
X119610619Y-74685330D01*
X119735311Y-74768647D01*
X119841353Y-74874689D01*
X119924670Y-74999381D01*
X119982059Y-75137932D01*
X120011316Y-75285017D01*
X120011316Y-75434983D01*
X119982059Y-75582068D01*
X119924670Y-75720619D01*
X119841353Y-75845311D01*
X119735311Y-75951353D01*
X119610619Y-76034670D01*
X119472068Y-76092059D01*
X119324983Y-76121316D01*
X119175017Y-76121316D01*
X119027932Y-76092059D01*
X118889381Y-76034670D01*
X118764689Y-75951353D01*
X118658647Y-75845311D01*
X118575330Y-75720619D01*
X118517941Y-75582068D01*
X118488684Y-75434983D01*
X118488684Y-75285017D01*
X118517941Y-75137932D01*
X118575330Y-74999381D01*
X118658647Y-74874689D01*
X118764689Y-74768647D01*
X118889381Y-74685330D01*
X119027932Y-74627941D01*
X119175017Y-74598684D01*
X119324983Y-74598684D01*
X119472068Y-74627941D01*
G37*
G36*
X122012068Y-74627941D02*
G01*
X122150619Y-74685330D01*
X122275311Y-74768647D01*
X122381353Y-74874689D01*
X122464670Y-74999381D01*
X122522059Y-75137932D01*
X122551316Y-75285017D01*
X122551316Y-75434983D01*
X122522059Y-75582068D01*
X122464670Y-75720619D01*
X122381353Y-75845311D01*
X122275311Y-75951353D01*
X122150619Y-76034670D01*
X122012068Y-76092059D01*
X121864983Y-76121316D01*
X121715017Y-76121316D01*
X121567932Y-76092059D01*
X121429381Y-76034670D01*
X121304689Y-75951353D01*
X121198647Y-75845311D01*
X121115330Y-75720619D01*
X121057941Y-75582068D01*
X121028684Y-75434983D01*
X121028684Y-75285017D01*
X121057941Y-75137932D01*
X121115330Y-74999381D01*
X121198647Y-74874689D01*
X121304689Y-74768647D01*
X121429381Y-74685330D01*
X121567932Y-74627941D01*
X121715017Y-74598684D01*
X121864983Y-74598684D01*
X122012068Y-74627941D01*
G37*
G36*
X180472068Y-74627941D02*
G01*
X180610619Y-74685330D01*
X180735311Y-74768647D01*
X180841353Y-74874689D01*
X180924670Y-74999381D01*
X180982059Y-75137932D01*
X181011316Y-75285017D01*
X181011316Y-75434983D01*
X180982059Y-75582068D01*
X180924670Y-75720619D01*
X180841353Y-75845311D01*
X180735311Y-75951353D01*
X180610619Y-76034670D01*
X180472068Y-76092059D01*
X180324983Y-76121316D01*
X180175017Y-76121316D01*
X180027932Y-76092059D01*
X179889381Y-76034670D01*
X179764689Y-75951353D01*
X179658647Y-75845311D01*
X179575330Y-75720619D01*
X179517941Y-75582068D01*
X179488684Y-75434983D01*
X179488684Y-75285017D01*
X179517941Y-75137932D01*
X179575330Y-74999381D01*
X179658647Y-74874689D01*
X179764689Y-74768647D01*
X179889381Y-74685330D01*
X180027932Y-74627941D01*
X180175017Y-74598684D01*
X180324983Y-74598684D01*
X180472068Y-74627941D01*
G37*
G36*
X183012068Y-74627941D02*
G01*
X183150619Y-74685330D01*
X183275311Y-74768647D01*
X183381353Y-74874689D01*
X183464670Y-74999381D01*
X183522059Y-75137932D01*
X183551316Y-75285017D01*
X183551316Y-75434983D01*
X183522059Y-75582068D01*
X183464670Y-75720619D01*
X183381353Y-75845311D01*
X183275311Y-75951353D01*
X183150619Y-76034670D01*
X183012068Y-76092059D01*
X182864983Y-76121316D01*
X182715017Y-76121316D01*
X182567932Y-76092059D01*
X182429381Y-76034670D01*
X182304689Y-75951353D01*
X182198647Y-75845311D01*
X182115330Y-75720619D01*
X182057941Y-75582068D01*
X182028684Y-75434983D01*
X182028684Y-75285017D01*
X182057941Y-75137932D01*
X182115330Y-74999381D01*
X182198647Y-74874689D01*
X182304689Y-74768647D01*
X182429381Y-74685330D01*
X182567932Y-74627941D01*
X182715017Y-74598684D01*
X182864983Y-74598684D01*
X183012068Y-74627941D01*
G37*
G36*
X161990730Y-74950642D02*
G01*
X162040412Y-74956406D01*
X162057389Y-74963902D01*
X162078387Y-74968079D01*
X162100867Y-74983099D01*
X162121326Y-74992133D01*
X162135298Y-75006105D01*
X162155438Y-75019562D01*
X162168894Y-75039701D01*
X162182866Y-75053673D01*
X162191899Y-75074130D01*
X162206921Y-75096613D01*
X162211098Y-75117611D01*
X162218592Y-75134584D01*
X162224353Y-75184247D01*
X162225000Y-75187500D01*
X162225000Y-75787500D01*
X162224354Y-75790742D01*
X162218593Y-75840412D01*
X162211098Y-75857385D01*
X162206921Y-75878387D01*
X162191897Y-75900871D01*
X162182866Y-75921326D01*
X162168896Y-75935295D01*
X162155438Y-75955438D01*
X162135295Y-75968896D01*
X162121326Y-75982866D01*
X162100871Y-75991897D01*
X162078387Y-76006921D01*
X162057386Y-76011098D01*
X162040415Y-76018592D01*
X161990753Y-76024352D01*
X161987500Y-76025000D01*
X161512500Y-76025000D01*
X161509258Y-76024355D01*
X161459587Y-76018593D01*
X161442613Y-76011098D01*
X161421613Y-76006921D01*
X161399130Y-75991898D01*
X161378673Y-75982866D01*
X161364701Y-75968894D01*
X161344562Y-75955438D01*
X161331105Y-75935298D01*
X161317133Y-75921326D01*
X161308099Y-75900866D01*
X161293079Y-75878387D01*
X161288902Y-75857390D01*
X161281407Y-75840415D01*
X161275644Y-75790741D01*
X161275000Y-75787500D01*
X161275000Y-75187500D01*
X161275642Y-75184270D01*
X161281406Y-75134587D01*
X161288902Y-75117608D01*
X161293079Y-75096613D01*
X161308098Y-75074134D01*
X161317133Y-75053673D01*
X161331107Y-75039698D01*
X161344562Y-75019562D01*
X161364698Y-75006107D01*
X161378673Y-74992133D01*
X161399135Y-74983098D01*
X161421613Y-74968079D01*
X161442607Y-74963902D01*
X161459584Y-74956407D01*
X161509259Y-74950644D01*
X161512500Y-74950000D01*
X161987500Y-74950000D01*
X161990730Y-74950642D01*
G37*
G36*
X163740730Y-74950642D02*
G01*
X163790412Y-74956406D01*
X163807389Y-74963902D01*
X163828387Y-74968079D01*
X163850867Y-74983099D01*
X163871326Y-74992133D01*
X163885298Y-75006105D01*
X163905438Y-75019562D01*
X163918894Y-75039701D01*
X163932866Y-75053673D01*
X163941899Y-75074130D01*
X163956921Y-75096613D01*
X163961098Y-75117611D01*
X163968592Y-75134584D01*
X163974353Y-75184247D01*
X163975000Y-75187500D01*
X163975000Y-75787500D01*
X163974354Y-75790742D01*
X163968593Y-75840412D01*
X163961098Y-75857385D01*
X163956921Y-75878387D01*
X163941897Y-75900871D01*
X163932866Y-75921326D01*
X163918896Y-75935295D01*
X163905438Y-75955438D01*
X163885295Y-75968896D01*
X163871326Y-75982866D01*
X163850871Y-75991897D01*
X163828387Y-76006921D01*
X163807386Y-76011098D01*
X163790415Y-76018592D01*
X163740753Y-76024352D01*
X163737500Y-76025000D01*
X163262500Y-76025000D01*
X163259258Y-76024355D01*
X163209587Y-76018593D01*
X163192613Y-76011098D01*
X163171613Y-76006921D01*
X163149130Y-75991898D01*
X163128673Y-75982866D01*
X163114701Y-75968894D01*
X163094562Y-75955438D01*
X163081105Y-75935298D01*
X163067133Y-75921326D01*
X163058099Y-75900866D01*
X163043079Y-75878387D01*
X163038902Y-75857390D01*
X163031407Y-75840415D01*
X163025644Y-75790741D01*
X163025000Y-75787500D01*
X163025000Y-75187500D01*
X163025642Y-75184270D01*
X163031406Y-75134587D01*
X163038902Y-75117608D01*
X163043079Y-75096613D01*
X163058098Y-75074134D01*
X163067133Y-75053673D01*
X163081107Y-75039698D01*
X163094562Y-75019562D01*
X163114698Y-75006107D01*
X163128673Y-74992133D01*
X163149135Y-74983098D01*
X163171613Y-74968079D01*
X163192607Y-74963902D01*
X163209584Y-74956407D01*
X163259259Y-74950644D01*
X163262500Y-74950000D01*
X163737500Y-74950000D01*
X163740730Y-74950642D01*
G37*
G36*
X159990730Y-74950642D02*
G01*
X160040412Y-74956406D01*
X160057389Y-74963902D01*
X160078387Y-74968079D01*
X160100867Y-74983099D01*
X160121326Y-74992133D01*
X160135298Y-75006105D01*
X160155438Y-75019562D01*
X160168894Y-75039701D01*
X160182866Y-75053673D01*
X160191899Y-75074130D01*
X160206921Y-75096613D01*
X160211098Y-75117611D01*
X160218592Y-75134584D01*
X160224353Y-75184247D01*
X160225000Y-75187500D01*
X160225000Y-75687500D01*
X160224354Y-75690742D01*
X160218593Y-75740412D01*
X160211098Y-75757385D01*
X160206921Y-75778387D01*
X160191897Y-75800871D01*
X160182866Y-75821326D01*
X160168896Y-75835295D01*
X160155438Y-75855438D01*
X160135295Y-75868896D01*
X160121326Y-75882866D01*
X160100871Y-75891897D01*
X160078387Y-75906921D01*
X160057386Y-75911098D01*
X160040415Y-75918592D01*
X159990753Y-75924352D01*
X159987500Y-75925000D01*
X159512500Y-75925000D01*
X159509258Y-75924355D01*
X159459587Y-75918593D01*
X159442613Y-75911098D01*
X159421613Y-75906921D01*
X159399130Y-75891898D01*
X159378673Y-75882866D01*
X159364701Y-75868894D01*
X159344562Y-75855438D01*
X159331105Y-75835298D01*
X159317133Y-75821326D01*
X159308099Y-75800866D01*
X159293079Y-75778387D01*
X159288902Y-75757390D01*
X159281407Y-75740415D01*
X159275644Y-75690741D01*
X159275000Y-75687500D01*
X159275000Y-75187500D01*
X159275642Y-75184270D01*
X159281406Y-75134587D01*
X159288902Y-75117608D01*
X159293079Y-75096613D01*
X159308098Y-75074134D01*
X159317133Y-75053673D01*
X159331107Y-75039698D01*
X159344562Y-75019562D01*
X159364698Y-75006107D01*
X159378673Y-74992133D01*
X159399135Y-74983098D01*
X159421613Y-74968079D01*
X159442607Y-74963902D01*
X159459584Y-74956407D01*
X159509259Y-74950644D01*
X159512500Y-74950000D01*
X159987500Y-74950000D01*
X159990730Y-74950642D01*
G37*
G36*
X167250000Y-73750000D02*
G01*
X166250000Y-73750000D01*
X166250000Y-72750000D01*
X167250000Y-72750000D01*
X167250000Y-73750000D01*
G37*
G36*
X119472068Y-72087941D02*
G01*
X119610619Y-72145330D01*
X119735311Y-72228647D01*
X119841353Y-72334689D01*
X119924670Y-72459381D01*
X119982059Y-72597932D01*
X120011316Y-72745017D01*
X120011316Y-72894983D01*
X119982059Y-73042068D01*
X119924670Y-73180619D01*
X119841353Y-73305311D01*
X119735311Y-73411353D01*
X119610619Y-73494670D01*
X119472068Y-73552059D01*
X119324983Y-73581316D01*
X119175017Y-73581316D01*
X119027932Y-73552059D01*
X118889381Y-73494670D01*
X118764689Y-73411353D01*
X118658647Y-73305311D01*
X118575330Y-73180619D01*
X118517941Y-73042068D01*
X118488684Y-72894983D01*
X118488684Y-72745017D01*
X118517941Y-72597932D01*
X118575330Y-72459381D01*
X118658647Y-72334689D01*
X118764689Y-72228647D01*
X118889381Y-72145330D01*
X119027932Y-72087941D01*
X119175017Y-72058684D01*
X119324983Y-72058684D01*
X119472068Y-72087941D01*
G37*
G36*
X122012068Y-72087941D02*
G01*
X122150619Y-72145330D01*
X122275311Y-72228647D01*
X122381353Y-72334689D01*
X122464670Y-72459381D01*
X122522059Y-72597932D01*
X122551316Y-72745017D01*
X122551316Y-72894983D01*
X122522059Y-73042068D01*
X122464670Y-73180619D01*
X122381353Y-73305311D01*
X122275311Y-73411353D01*
X122150619Y-73494670D01*
X122012068Y-73552059D01*
X121864983Y-73581316D01*
X121715017Y-73581316D01*
X121567932Y-73552059D01*
X121429381Y-73494670D01*
X121304689Y-73411353D01*
X121198647Y-73305311D01*
X121115330Y-73180619D01*
X121057941Y-73042068D01*
X121028684Y-72894983D01*
X121028684Y-72745017D01*
X121057941Y-72597932D01*
X121115330Y-72459381D01*
X121198647Y-72334689D01*
X121304689Y-72228647D01*
X121429381Y-72145330D01*
X121567932Y-72087941D01*
X121715017Y-72058684D01*
X121864983Y-72058684D01*
X122012068Y-72087941D01*
G37*
G36*
X180472068Y-72087941D02*
G01*
X180610619Y-72145330D01*
X180735311Y-72228647D01*
X180841353Y-72334689D01*
X180924670Y-72459381D01*
X180982059Y-72597932D01*
X181011316Y-72745017D01*
X181011316Y-72894983D01*
X180982059Y-73042068D01*
X180924670Y-73180619D01*
X180841353Y-73305311D01*
X180735311Y-73411353D01*
X180610619Y-73494670D01*
X180472068Y-73552059D01*
X180324983Y-73581316D01*
X180175017Y-73581316D01*
X180027932Y-73552059D01*
X179889381Y-73494670D01*
X179764689Y-73411353D01*
X179658647Y-73305311D01*
X179575330Y-73180619D01*
X179517941Y-73042068D01*
X179488684Y-72894983D01*
X179488684Y-72745017D01*
X179517941Y-72597932D01*
X179575330Y-72459381D01*
X179658647Y-72334689D01*
X179764689Y-72228647D01*
X179889381Y-72145330D01*
X180027932Y-72087941D01*
X180175017Y-72058684D01*
X180324983Y-72058684D01*
X180472068Y-72087941D01*
G37*
G36*
X183012068Y-72087941D02*
G01*
X183150619Y-72145330D01*
X183275311Y-72228647D01*
X183381353Y-72334689D01*
X183464670Y-72459381D01*
X183522059Y-72597932D01*
X183551316Y-72745017D01*
X183551316Y-72894983D01*
X183522059Y-73042068D01*
X183464670Y-73180619D01*
X183381353Y-73305311D01*
X183275311Y-73411353D01*
X183150619Y-73494670D01*
X183012068Y-73552059D01*
X182864983Y-73581316D01*
X182715017Y-73581316D01*
X182567932Y-73552059D01*
X182429381Y-73494670D01*
X182304689Y-73411353D01*
X182198647Y-73305311D01*
X182115330Y-73180619D01*
X182057941Y-73042068D01*
X182028684Y-72894983D01*
X182028684Y-72745017D01*
X182057941Y-72597932D01*
X182115330Y-72459381D01*
X182198647Y-72334689D01*
X182304689Y-72228647D01*
X182429381Y-72145330D01*
X182567932Y-72087941D01*
X182715017Y-72058684D01*
X182864983Y-72058684D01*
X183012068Y-72087941D01*
G37*
G36*
X139250000Y-72750000D02*
G01*
X138250000Y-72750000D01*
X138250000Y-71750000D01*
X139250000Y-71750000D01*
X139250000Y-72750000D01*
G37*
G36*
X158165730Y-71775642D02*
G01*
X158215412Y-71781406D01*
X158232389Y-71788902D01*
X158253387Y-71793079D01*
X158275867Y-71808099D01*
X158296326Y-71817133D01*
X158310298Y-71831105D01*
X158330438Y-71844562D01*
X158343894Y-71864701D01*
X158357866Y-71878673D01*
X158366899Y-71899130D01*
X158381921Y-71921613D01*
X158386098Y-71942611D01*
X158393592Y-71959584D01*
X158399353Y-72009247D01*
X158400000Y-72012500D01*
X158400000Y-72487500D01*
X158399354Y-72490742D01*
X158393593Y-72540412D01*
X158386098Y-72557385D01*
X158381921Y-72578387D01*
X158366897Y-72600871D01*
X158357866Y-72621326D01*
X158343896Y-72635295D01*
X158330438Y-72655438D01*
X158310295Y-72668896D01*
X158296326Y-72682866D01*
X158275871Y-72691897D01*
X158253387Y-72706921D01*
X158232386Y-72711098D01*
X158215415Y-72718592D01*
X158165753Y-72724352D01*
X158162500Y-72725000D01*
X157587500Y-72725000D01*
X157584258Y-72724355D01*
X157534587Y-72718593D01*
X157517613Y-72711098D01*
X157496613Y-72706921D01*
X157474130Y-72691898D01*
X157453673Y-72682866D01*
X157439701Y-72668894D01*
X157419562Y-72655438D01*
X157406105Y-72635298D01*
X157392133Y-72621326D01*
X157383099Y-72600866D01*
X157368079Y-72578387D01*
X157363902Y-72557390D01*
X157356407Y-72540415D01*
X157350644Y-72490741D01*
X157350000Y-72487500D01*
X157350000Y-72012500D01*
X157350642Y-72009270D01*
X157356406Y-71959587D01*
X157363902Y-71942608D01*
X157368079Y-71921613D01*
X157383098Y-71899134D01*
X157392133Y-71878673D01*
X157406107Y-71864698D01*
X157419562Y-71844562D01*
X157439698Y-71831107D01*
X157453673Y-71817133D01*
X157474135Y-71808098D01*
X157496613Y-71793079D01*
X157517607Y-71788902D01*
X157534584Y-71781407D01*
X157584259Y-71775644D01*
X157587500Y-71775000D01*
X158162500Y-71775000D01*
X158165730Y-71775642D01*
G37*
G36*
X159915730Y-71775642D02*
G01*
X159965412Y-71781406D01*
X159982389Y-71788902D01*
X160003387Y-71793079D01*
X160025867Y-71808099D01*
X160046326Y-71817133D01*
X160060298Y-71831105D01*
X160080438Y-71844562D01*
X160093894Y-71864701D01*
X160107866Y-71878673D01*
X160116899Y-71899130D01*
X160131921Y-71921613D01*
X160136098Y-71942611D01*
X160143592Y-71959584D01*
X160149353Y-72009247D01*
X160150000Y-72012500D01*
X160150000Y-72487500D01*
X160149354Y-72490742D01*
X160143593Y-72540412D01*
X160136098Y-72557385D01*
X160131921Y-72578387D01*
X160116897Y-72600871D01*
X160107866Y-72621326D01*
X160093896Y-72635295D01*
X160080438Y-72655438D01*
X160060295Y-72668896D01*
X160046326Y-72682866D01*
X160025871Y-72691897D01*
X160003387Y-72706921D01*
X159982386Y-72711098D01*
X159965415Y-72718592D01*
X159915753Y-72724352D01*
X159912500Y-72725000D01*
X159337500Y-72725000D01*
X159334258Y-72724355D01*
X159284587Y-72718593D01*
X159267613Y-72711098D01*
X159246613Y-72706921D01*
X159224130Y-72691898D01*
X159203673Y-72682866D01*
X159189701Y-72668894D01*
X159169562Y-72655438D01*
X159156105Y-72635298D01*
X159142133Y-72621326D01*
X159133099Y-72600866D01*
X159118079Y-72578387D01*
X159113902Y-72557390D01*
X159106407Y-72540415D01*
X159100644Y-72490741D01*
X159100000Y-72487500D01*
X159100000Y-72012500D01*
X159100642Y-72009270D01*
X159106406Y-71959587D01*
X159113902Y-71942608D01*
X159118079Y-71921613D01*
X159133098Y-71899134D01*
X159142133Y-71878673D01*
X159156107Y-71864698D01*
X159169562Y-71844562D01*
X159189698Y-71831107D01*
X159203673Y-71817133D01*
X159224135Y-71808098D01*
X159246613Y-71793079D01*
X159267607Y-71788902D01*
X159284584Y-71781407D01*
X159334259Y-71775644D01*
X159337500Y-71775000D01*
X159912500Y-71775000D01*
X159915730Y-71775642D01*
G37*
G36*
X119472068Y-69547941D02*
G01*
X119610619Y-69605330D01*
X119735311Y-69688647D01*
X119841353Y-69794689D01*
X119924670Y-69919381D01*
X119982059Y-70057932D01*
X120011316Y-70205017D01*
X120011316Y-70354983D01*
X119982059Y-70502068D01*
X119924670Y-70640619D01*
X119841353Y-70765311D01*
X119735311Y-70871353D01*
X119610619Y-70954670D01*
X119472068Y-71012059D01*
X119324983Y-71041316D01*
X119175017Y-71041316D01*
X119027932Y-71012059D01*
X118889381Y-70954670D01*
X118764689Y-70871353D01*
X118658647Y-70765311D01*
X118575330Y-70640619D01*
X118517941Y-70502068D01*
X118488684Y-70354983D01*
X118488684Y-70205017D01*
X118517941Y-70057932D01*
X118575330Y-69919381D01*
X118658647Y-69794689D01*
X118764689Y-69688647D01*
X118889381Y-69605330D01*
X119027932Y-69547941D01*
X119175017Y-69518684D01*
X119324983Y-69518684D01*
X119472068Y-69547941D01*
G37*
G36*
X122012068Y-69547941D02*
G01*
X122150619Y-69605330D01*
X122275311Y-69688647D01*
X122381353Y-69794689D01*
X122464670Y-69919381D01*
X122522059Y-70057932D01*
X122551316Y-70205017D01*
X122551316Y-70354983D01*
X122522059Y-70502068D01*
X122464670Y-70640619D01*
X122381353Y-70765311D01*
X122275311Y-70871353D01*
X122150619Y-70954670D01*
X122012068Y-71012059D01*
X121864983Y-71041316D01*
X121715017Y-71041316D01*
X121567932Y-71012059D01*
X121429381Y-70954670D01*
X121304689Y-70871353D01*
X121198647Y-70765311D01*
X121115330Y-70640619D01*
X121057941Y-70502068D01*
X121028684Y-70354983D01*
X121028684Y-70205017D01*
X121057941Y-70057932D01*
X121115330Y-69919381D01*
X121198647Y-69794689D01*
X121304689Y-69688647D01*
X121429381Y-69605330D01*
X121567932Y-69547941D01*
X121715017Y-69518684D01*
X121864983Y-69518684D01*
X122012068Y-69547941D01*
G37*
G36*
X180472068Y-69547941D02*
G01*
X180610619Y-69605330D01*
X180735311Y-69688647D01*
X180841353Y-69794689D01*
X180924670Y-69919381D01*
X180982059Y-70057932D01*
X181011316Y-70205017D01*
X181011316Y-70354983D01*
X180982059Y-70502068D01*
X180924670Y-70640619D01*
X180841353Y-70765311D01*
X180735311Y-70871353D01*
X180610619Y-70954670D01*
X180472068Y-71012059D01*
X180324983Y-71041316D01*
X180175017Y-71041316D01*
X180027932Y-71012059D01*
X179889381Y-70954670D01*
X179764689Y-70871353D01*
X179658647Y-70765311D01*
X179575330Y-70640619D01*
X179517941Y-70502068D01*
X179488684Y-70354983D01*
X179488684Y-70205017D01*
X179517941Y-70057932D01*
X179575330Y-69919381D01*
X179658647Y-69794689D01*
X179764689Y-69688647D01*
X179889381Y-69605330D01*
X180027932Y-69547941D01*
X180175017Y-69518684D01*
X180324983Y-69518684D01*
X180472068Y-69547941D01*
G37*
G36*
X183012068Y-69547941D02*
G01*
X183150619Y-69605330D01*
X183275311Y-69688647D01*
X183381353Y-69794689D01*
X183464670Y-69919381D01*
X183522059Y-70057932D01*
X183551316Y-70205017D01*
X183551316Y-70354983D01*
X183522059Y-70502068D01*
X183464670Y-70640619D01*
X183381353Y-70765311D01*
X183275311Y-70871353D01*
X183150619Y-70954670D01*
X183012068Y-71012059D01*
X182864983Y-71041316D01*
X182715017Y-71041316D01*
X182567932Y-71012059D01*
X182429381Y-70954670D01*
X182304689Y-70871353D01*
X182198647Y-70765311D01*
X182115330Y-70640619D01*
X182057941Y-70502068D01*
X182028684Y-70354983D01*
X182028684Y-70205017D01*
X182057941Y-70057932D01*
X182115330Y-69919381D01*
X182198647Y-69794689D01*
X182304689Y-69688647D01*
X182429381Y-69605330D01*
X182567932Y-69547941D01*
X182715017Y-69518684D01*
X182864983Y-69518684D01*
X183012068Y-69547941D01*
G37*
G36*
X136165730Y-69275642D02*
G01*
X136215412Y-69281406D01*
X136232389Y-69288902D01*
X136253387Y-69293079D01*
X136275867Y-69308099D01*
X136296326Y-69317133D01*
X136310298Y-69331105D01*
X136330438Y-69344562D01*
X136343894Y-69364701D01*
X136357866Y-69378673D01*
X136366899Y-69399130D01*
X136381921Y-69421613D01*
X136386098Y-69442611D01*
X136393592Y-69459584D01*
X136399353Y-69509247D01*
X136400000Y-69512500D01*
X136400000Y-69987500D01*
X136399354Y-69990742D01*
X136393593Y-70040412D01*
X136386098Y-70057385D01*
X136381921Y-70078387D01*
X136366897Y-70100871D01*
X136357866Y-70121326D01*
X136343896Y-70135295D01*
X136330438Y-70155438D01*
X136310295Y-70168896D01*
X136296326Y-70182866D01*
X136275871Y-70191897D01*
X136253387Y-70206921D01*
X136232386Y-70211098D01*
X136215415Y-70218592D01*
X136165753Y-70224352D01*
X136162500Y-70225000D01*
X135587500Y-70225000D01*
X135584258Y-70224355D01*
X135534587Y-70218593D01*
X135517613Y-70211098D01*
X135496613Y-70206921D01*
X135474130Y-70191898D01*
X135453673Y-70182866D01*
X135439701Y-70168894D01*
X135419562Y-70155438D01*
X135406105Y-70135298D01*
X135392133Y-70121326D01*
X135383099Y-70100866D01*
X135368079Y-70078387D01*
X135363902Y-70057390D01*
X135356407Y-70040415D01*
X135350644Y-69990741D01*
X135350000Y-69987500D01*
X135350000Y-69512500D01*
X135350642Y-69509270D01*
X135356406Y-69459587D01*
X135363902Y-69442608D01*
X135368079Y-69421613D01*
X135383098Y-69399134D01*
X135392133Y-69378673D01*
X135406107Y-69364698D01*
X135419562Y-69344562D01*
X135439698Y-69331107D01*
X135453673Y-69317133D01*
X135474135Y-69308098D01*
X135496613Y-69293079D01*
X135517607Y-69288902D01*
X135534584Y-69281407D01*
X135584259Y-69275644D01*
X135587500Y-69275000D01*
X136162500Y-69275000D01*
X136165730Y-69275642D01*
G37*
G36*
X137915730Y-69275642D02*
G01*
X137965412Y-69281406D01*
X137982389Y-69288902D01*
X138003387Y-69293079D01*
X138025867Y-69308099D01*
X138046326Y-69317133D01*
X138060298Y-69331105D01*
X138080438Y-69344562D01*
X138093894Y-69364701D01*
X138107866Y-69378673D01*
X138116899Y-69399130D01*
X138131921Y-69421613D01*
X138136098Y-69442611D01*
X138143592Y-69459584D01*
X138149353Y-69509247D01*
X138150000Y-69512500D01*
X138150000Y-69987500D01*
X138149354Y-69990742D01*
X138143593Y-70040412D01*
X138136098Y-70057385D01*
X138131921Y-70078387D01*
X138116897Y-70100871D01*
X138107866Y-70121326D01*
X138093896Y-70135295D01*
X138080438Y-70155438D01*
X138060295Y-70168896D01*
X138046326Y-70182866D01*
X138025871Y-70191897D01*
X138003387Y-70206921D01*
X137982386Y-70211098D01*
X137965415Y-70218592D01*
X137915753Y-70224352D01*
X137912500Y-70225000D01*
X137337500Y-70225000D01*
X137334258Y-70224355D01*
X137284587Y-70218593D01*
X137267613Y-70211098D01*
X137246613Y-70206921D01*
X137224130Y-70191898D01*
X137203673Y-70182866D01*
X137189701Y-70168894D01*
X137169562Y-70155438D01*
X137156105Y-70135298D01*
X137142133Y-70121326D01*
X137133099Y-70100866D01*
X137118079Y-70078387D01*
X137113902Y-70057390D01*
X137106407Y-70040415D01*
X137100644Y-69990741D01*
X137100000Y-69987500D01*
X137100000Y-69512500D01*
X137100642Y-69509270D01*
X137106406Y-69459587D01*
X137113902Y-69442608D01*
X137118079Y-69421613D01*
X137133098Y-69399134D01*
X137142133Y-69378673D01*
X137156107Y-69364698D01*
X137169562Y-69344562D01*
X137189698Y-69331107D01*
X137203673Y-69317133D01*
X137224135Y-69308098D01*
X137246613Y-69293079D01*
X137267607Y-69288902D01*
X137284584Y-69281407D01*
X137334259Y-69275644D01*
X137337500Y-69275000D01*
X137912500Y-69275000D01*
X137915730Y-69275642D01*
G37*
G36*
X149500000Y-70000000D02*
G01*
X148500000Y-70000000D01*
X148500000Y-69000000D01*
X149500000Y-69000000D01*
X149500000Y-70000000D01*
G37*
G36*
X147132001Y-67815590D02*
G01*
X147137615Y-67818334D01*
X147140729Y-67818828D01*
X147190521Y-67844198D01*
X147242904Y-67869807D01*
X147245110Y-67872013D01*
X147245123Y-67872020D01*
X147327979Y-67954876D01*
X147327985Y-67954888D01*
X147330193Y-67957096D01*
X147355806Y-68009489D01*
X147381171Y-68059269D01*
X147381664Y-68062381D01*
X147384410Y-68067999D01*
X147400000Y-68175000D01*
X147400000Y-68925000D01*
X147384410Y-69032001D01*
X147381663Y-69037618D01*
X147381171Y-69040729D01*
X147355824Y-69090473D01*
X147330193Y-69142904D01*
X147327984Y-69145112D01*
X147327979Y-69145123D01*
X147245123Y-69227979D01*
X147245112Y-69227984D01*
X147242904Y-69230193D01*
X147190486Y-69255818D01*
X147140730Y-69281171D01*
X147137618Y-69281663D01*
X147132001Y-69284410D01*
X147025000Y-69300000D01*
X145775000Y-69300000D01*
X145667999Y-69284410D01*
X145662381Y-69281663D01*
X145659270Y-69281171D01*
X145609501Y-69255812D01*
X145557096Y-69230193D01*
X145554888Y-69227985D01*
X145554876Y-69227979D01*
X145472020Y-69145123D01*
X145472013Y-69145110D01*
X145469807Y-69142904D01*
X145444205Y-69090534D01*
X145418828Y-69040730D01*
X145418334Y-69037615D01*
X145415590Y-69032001D01*
X145400000Y-68925000D01*
X145400000Y-68175000D01*
X145415590Y-68067999D01*
X145418334Y-68062384D01*
X145418828Y-68059270D01*
X145444211Y-68009453D01*
X145469807Y-67957096D01*
X145472012Y-67954890D01*
X145472020Y-67954876D01*
X145554876Y-67872020D01*
X145554890Y-67872012D01*
X145557096Y-67869807D01*
X145609440Y-67844217D01*
X145659269Y-67818828D01*
X145662385Y-67818334D01*
X145667999Y-67815590D01*
X145775000Y-67800000D01*
X147025000Y-67800000D01*
X147132001Y-67815590D01*
G37*
G36*
X119472068Y-67007941D02*
G01*
X119610619Y-67065330D01*
X119735311Y-67148647D01*
X119841353Y-67254689D01*
X119924670Y-67379381D01*
X119982059Y-67517932D01*
X120011316Y-67665017D01*
X120011316Y-67814983D01*
X119982059Y-67962068D01*
X119924670Y-68100619D01*
X119841353Y-68225311D01*
X119735311Y-68331353D01*
X119610619Y-68414670D01*
X119472068Y-68472059D01*
X119324983Y-68501316D01*
X119175017Y-68501316D01*
X119027932Y-68472059D01*
X118889381Y-68414670D01*
X118764689Y-68331353D01*
X118658647Y-68225311D01*
X118575330Y-68100619D01*
X118517941Y-67962068D01*
X118488684Y-67814983D01*
X118488684Y-67665017D01*
X118517941Y-67517932D01*
X118575330Y-67379381D01*
X118658647Y-67254689D01*
X118764689Y-67148647D01*
X118889381Y-67065330D01*
X119027932Y-67007941D01*
X119175017Y-66978684D01*
X119324983Y-66978684D01*
X119472068Y-67007941D01*
G37*
G36*
X122012068Y-67007941D02*
G01*
X122150619Y-67065330D01*
X122275311Y-67148647D01*
X122381353Y-67254689D01*
X122464670Y-67379381D01*
X122522059Y-67517932D01*
X122551316Y-67665017D01*
X122551316Y-67814983D01*
X122522059Y-67962068D01*
X122464670Y-68100619D01*
X122381353Y-68225311D01*
X122275311Y-68331353D01*
X122150619Y-68414670D01*
X122012068Y-68472059D01*
X121864983Y-68501316D01*
X121715017Y-68501316D01*
X121567932Y-68472059D01*
X121429381Y-68414670D01*
X121304689Y-68331353D01*
X121198647Y-68225311D01*
X121115330Y-68100619D01*
X121057941Y-67962068D01*
X121028684Y-67814983D01*
X121028684Y-67665017D01*
X121057941Y-67517932D01*
X121115330Y-67379381D01*
X121198647Y-67254689D01*
X121304689Y-67148647D01*
X121429381Y-67065330D01*
X121567932Y-67007941D01*
X121715017Y-66978684D01*
X121864983Y-66978684D01*
X122012068Y-67007941D01*
G37*
G36*
X180472068Y-67007941D02*
G01*
X180610619Y-67065330D01*
X180735311Y-67148647D01*
X180841353Y-67254689D01*
X180924670Y-67379381D01*
X180982059Y-67517932D01*
X181011316Y-67665017D01*
X181011316Y-67814983D01*
X180982059Y-67962068D01*
X180924670Y-68100619D01*
X180841353Y-68225311D01*
X180735311Y-68331353D01*
X180610619Y-68414670D01*
X180472068Y-68472059D01*
X180324983Y-68501316D01*
X180175017Y-68501316D01*
X180027932Y-68472059D01*
X179889381Y-68414670D01*
X179764689Y-68331353D01*
X179658647Y-68225311D01*
X179575330Y-68100619D01*
X179517941Y-67962068D01*
X179488684Y-67814983D01*
X179488684Y-67665017D01*
X179517941Y-67517932D01*
X179575330Y-67379381D01*
X179658647Y-67254689D01*
X179764689Y-67148647D01*
X179889381Y-67065330D01*
X180027932Y-67007941D01*
X180175017Y-66978684D01*
X180324983Y-66978684D01*
X180472068Y-67007941D01*
G37*
G36*
X183012068Y-67007941D02*
G01*
X183150619Y-67065330D01*
X183275311Y-67148647D01*
X183381353Y-67254689D01*
X183464670Y-67379381D01*
X183522059Y-67517932D01*
X183551316Y-67665017D01*
X183551316Y-67814983D01*
X183522059Y-67962068D01*
X183464670Y-68100619D01*
X183381353Y-68225311D01*
X183275311Y-68331353D01*
X183150619Y-68414670D01*
X183012068Y-68472059D01*
X182864983Y-68501316D01*
X182715017Y-68501316D01*
X182567932Y-68472059D01*
X182429381Y-68414670D01*
X182304689Y-68331353D01*
X182198647Y-68225311D01*
X182115330Y-68100619D01*
X182057941Y-67962068D01*
X182028684Y-67814983D01*
X182028684Y-67665017D01*
X182057941Y-67517932D01*
X182115330Y-67379381D01*
X182198647Y-67254689D01*
X182304689Y-67148647D01*
X182429381Y-67065330D01*
X182567932Y-67007941D01*
X182715017Y-66978684D01*
X182864983Y-66978684D01*
X183012068Y-67007941D01*
G37*
G36*
X136090730Y-67525642D02*
G01*
X136140412Y-67531406D01*
X136157389Y-67538902D01*
X136178387Y-67543079D01*
X136200867Y-67558099D01*
X136221326Y-67567133D01*
X136235298Y-67581105D01*
X136255438Y-67594562D01*
X136268894Y-67614701D01*
X136282866Y-67628673D01*
X136291899Y-67649130D01*
X136306921Y-67671613D01*
X136311098Y-67692611D01*
X136318592Y-67709584D01*
X136324353Y-67759247D01*
X136325000Y-67762500D01*
X136325000Y-68237500D01*
X136324354Y-68240742D01*
X136318593Y-68290412D01*
X136311098Y-68307385D01*
X136306921Y-68328387D01*
X136291897Y-68350871D01*
X136282866Y-68371326D01*
X136268896Y-68385295D01*
X136255438Y-68405438D01*
X136235295Y-68418896D01*
X136221326Y-68432866D01*
X136200871Y-68441897D01*
X136178387Y-68456921D01*
X136157386Y-68461098D01*
X136140415Y-68468592D01*
X136090753Y-68474352D01*
X136087500Y-68475000D01*
X135587500Y-68475000D01*
X135584258Y-68474355D01*
X135534587Y-68468593D01*
X135517613Y-68461098D01*
X135496613Y-68456921D01*
X135474130Y-68441898D01*
X135453673Y-68432866D01*
X135439701Y-68418894D01*
X135419562Y-68405438D01*
X135406105Y-68385298D01*
X135392133Y-68371326D01*
X135383099Y-68350866D01*
X135368079Y-68328387D01*
X135363902Y-68307390D01*
X135356407Y-68290415D01*
X135350644Y-68240741D01*
X135350000Y-68237500D01*
X135350000Y-67762500D01*
X135350642Y-67759270D01*
X135356406Y-67709587D01*
X135363902Y-67692608D01*
X135368079Y-67671613D01*
X135383098Y-67649134D01*
X135392133Y-67628673D01*
X135406107Y-67614698D01*
X135419562Y-67594562D01*
X135439698Y-67581107D01*
X135453673Y-67567133D01*
X135474135Y-67558098D01*
X135496613Y-67543079D01*
X135517607Y-67538902D01*
X135534584Y-67531407D01*
X135584259Y-67525644D01*
X135587500Y-67525000D01*
X136087500Y-67525000D01*
X136090730Y-67525642D01*
G37*
G36*
X137915730Y-67525642D02*
G01*
X137965412Y-67531406D01*
X137982389Y-67538902D01*
X138003387Y-67543079D01*
X138025867Y-67558099D01*
X138046326Y-67567133D01*
X138060298Y-67581105D01*
X138080438Y-67594562D01*
X138093894Y-67614701D01*
X138107866Y-67628673D01*
X138116899Y-67649130D01*
X138131921Y-67671613D01*
X138136098Y-67692611D01*
X138143592Y-67709584D01*
X138149353Y-67759247D01*
X138150000Y-67762500D01*
X138150000Y-68237500D01*
X138149354Y-68240742D01*
X138143593Y-68290412D01*
X138136098Y-68307385D01*
X138131921Y-68328387D01*
X138116897Y-68350871D01*
X138107866Y-68371326D01*
X138093896Y-68385295D01*
X138080438Y-68405438D01*
X138060295Y-68418896D01*
X138046326Y-68432866D01*
X138025871Y-68441897D01*
X138003387Y-68456921D01*
X137982386Y-68461098D01*
X137965415Y-68468592D01*
X137915753Y-68474352D01*
X137912500Y-68475000D01*
X137412500Y-68475000D01*
X137409258Y-68474355D01*
X137359587Y-68468593D01*
X137342613Y-68461098D01*
X137321613Y-68456921D01*
X137299130Y-68441898D01*
X137278673Y-68432866D01*
X137264701Y-68418894D01*
X137244562Y-68405438D01*
X137231105Y-68385298D01*
X137217133Y-68371326D01*
X137208099Y-68350866D01*
X137193079Y-68328387D01*
X137188902Y-68307390D01*
X137181407Y-68290415D01*
X137175644Y-68240741D01*
X137175000Y-68237500D01*
X137175000Y-67762500D01*
X137175642Y-67759270D01*
X137181406Y-67709587D01*
X137188902Y-67692608D01*
X137193079Y-67671613D01*
X137208098Y-67649134D01*
X137217133Y-67628673D01*
X137231107Y-67614698D01*
X137244562Y-67594562D01*
X137264698Y-67581107D01*
X137278673Y-67567133D01*
X137299135Y-67558098D01*
X137321613Y-67543079D01*
X137342607Y-67538902D01*
X137359584Y-67531407D01*
X137409259Y-67525644D01*
X137412500Y-67525000D01*
X137912500Y-67525000D01*
X137915730Y-67525642D01*
G37*
G36*
X140706283Y-64361427D02*
G01*
X140712706Y-64363822D01*
X140717971Y-64364455D01*
X140780308Y-64389037D01*
X140839624Y-64411161D01*
X140843200Y-64413838D01*
X140844871Y-64414497D01*
X140905635Y-64460576D01*
X140953553Y-64496447D01*
X140989442Y-64544389D01*
X141035502Y-64605128D01*
X141036160Y-64606798D01*
X141038839Y-64610376D01*
X141060969Y-64669710D01*
X141085544Y-64732027D01*
X141086176Y-64737290D01*
X141088573Y-64743717D01*
X141100000Y-64850000D01*
X141100000Y-67650000D01*
X141088573Y-67756283D01*
X141086175Y-67762710D01*
X141085544Y-67767971D01*
X141060980Y-67830261D01*
X141038839Y-67889624D01*
X141036159Y-67893203D01*
X141035502Y-67894871D01*
X140989500Y-67955532D01*
X140953553Y-68003553D01*
X140905532Y-68039500D01*
X140844871Y-68085502D01*
X140843203Y-68086159D01*
X140839624Y-68088839D01*
X140780271Y-68110976D01*
X140717972Y-68135544D01*
X140712709Y-68136175D01*
X140706283Y-68138573D01*
X140600000Y-68150000D01*
X139600000Y-68150000D01*
X139493717Y-68138573D01*
X139487290Y-68136175D01*
X139482028Y-68135544D01*
X139419719Y-68110973D01*
X139360376Y-68088839D01*
X139356798Y-68086160D01*
X139355128Y-68085502D01*
X139294389Y-68039442D01*
X139246447Y-68003553D01*
X139210576Y-67955635D01*
X139164497Y-67894871D01*
X139163838Y-67893200D01*
X139161161Y-67889624D01*
X139139040Y-67830317D01*
X139114455Y-67767972D01*
X139113822Y-67762705D01*
X139111427Y-67756283D01*
X139100000Y-67650000D01*
X139100000Y-64850000D01*
X139111427Y-64743717D01*
X139113822Y-64737294D01*
X139114455Y-64732028D01*
X139139044Y-64669673D01*
X139161161Y-64610376D01*
X139163837Y-64606800D01*
X139164497Y-64605128D01*
X139210634Y-64544286D01*
X139246447Y-64496447D01*
X139294286Y-64460634D01*
X139355128Y-64414497D01*
X139356800Y-64413837D01*
X139360376Y-64411161D01*
X139419663Y-64389047D01*
X139482027Y-64364455D01*
X139487294Y-64363822D01*
X139493717Y-64361427D01*
X139600000Y-64350000D01*
X140600000Y-64350000D01*
X140706283Y-64361427D01*
G37*
G36*
X147132001Y-65515590D02*
G01*
X147137615Y-65518334D01*
X147140729Y-65518828D01*
X147190521Y-65544198D01*
X147242904Y-65569807D01*
X147245110Y-65572013D01*
X147245123Y-65572020D01*
X147327979Y-65654876D01*
X147327985Y-65654888D01*
X147330193Y-65657096D01*
X147355806Y-65709489D01*
X147381171Y-65759269D01*
X147381664Y-65762381D01*
X147384410Y-65767999D01*
X147400000Y-65875000D01*
X147400000Y-66625000D01*
X147384410Y-66732001D01*
X147381663Y-66737618D01*
X147381171Y-66740729D01*
X147355824Y-66790473D01*
X147330193Y-66842904D01*
X147327984Y-66845112D01*
X147327979Y-66845123D01*
X147245123Y-66927979D01*
X147245112Y-66927984D01*
X147242904Y-66930193D01*
X147190486Y-66955818D01*
X147140730Y-66981171D01*
X147137618Y-66981663D01*
X147132001Y-66984410D01*
X147025000Y-67000000D01*
X145775000Y-67000000D01*
X145667999Y-66984410D01*
X145662381Y-66981663D01*
X145659270Y-66981171D01*
X145609501Y-66955812D01*
X145557096Y-66930193D01*
X145554888Y-66927985D01*
X145554876Y-66927979D01*
X145472020Y-66845123D01*
X145472013Y-66845110D01*
X145469807Y-66842904D01*
X145444205Y-66790534D01*
X145418828Y-66740730D01*
X145418334Y-66737615D01*
X145415590Y-66732001D01*
X145400000Y-66625000D01*
X145400000Y-65875000D01*
X145415590Y-65767999D01*
X145418334Y-65762384D01*
X145418828Y-65759270D01*
X145444211Y-65709453D01*
X145469807Y-65657096D01*
X145472012Y-65654890D01*
X145472020Y-65654876D01*
X145554876Y-65572020D01*
X145554890Y-65572012D01*
X145557096Y-65569807D01*
X145609440Y-65544217D01*
X145659269Y-65518828D01*
X145662385Y-65518334D01*
X145667999Y-65515590D01*
X145775000Y-65500000D01*
X147025000Y-65500000D01*
X147132001Y-65515590D01*
G37*
G36*
X136190730Y-65775642D02*
G01*
X136240412Y-65781406D01*
X136257389Y-65788902D01*
X136278387Y-65793079D01*
X136300867Y-65808099D01*
X136321326Y-65817133D01*
X136335298Y-65831105D01*
X136355438Y-65844562D01*
X136368894Y-65864701D01*
X136382866Y-65878673D01*
X136391899Y-65899130D01*
X136406921Y-65921613D01*
X136411098Y-65942611D01*
X136418592Y-65959584D01*
X136424353Y-66009247D01*
X136425000Y-66012500D01*
X136425000Y-66487500D01*
X136424354Y-66490742D01*
X136418593Y-66540412D01*
X136411098Y-66557385D01*
X136406921Y-66578387D01*
X136391897Y-66600871D01*
X136382866Y-66621326D01*
X136368896Y-66635295D01*
X136355438Y-66655438D01*
X136335295Y-66668896D01*
X136321326Y-66682866D01*
X136300871Y-66691897D01*
X136278387Y-66706921D01*
X136257386Y-66711098D01*
X136240415Y-66718592D01*
X136190753Y-66724352D01*
X136187500Y-66725000D01*
X135587500Y-66725000D01*
X135584258Y-66724355D01*
X135534587Y-66718593D01*
X135517613Y-66711098D01*
X135496613Y-66706921D01*
X135474130Y-66691898D01*
X135453673Y-66682866D01*
X135439701Y-66668894D01*
X135419562Y-66655438D01*
X135406105Y-66635298D01*
X135392133Y-66621326D01*
X135383099Y-66600866D01*
X135368079Y-66578387D01*
X135363902Y-66557390D01*
X135356407Y-66540415D01*
X135350644Y-66490741D01*
X135350000Y-66487500D01*
X135350000Y-66012500D01*
X135350642Y-66009270D01*
X135356406Y-65959587D01*
X135363902Y-65942608D01*
X135368079Y-65921613D01*
X135383098Y-65899134D01*
X135392133Y-65878673D01*
X135406107Y-65864698D01*
X135419562Y-65844562D01*
X135439698Y-65831107D01*
X135453673Y-65817133D01*
X135474135Y-65808098D01*
X135496613Y-65793079D01*
X135517607Y-65788902D01*
X135534584Y-65781407D01*
X135584259Y-65775644D01*
X135587500Y-65775000D01*
X136187500Y-65775000D01*
X136190730Y-65775642D01*
G37*
G36*
X137915730Y-65775642D02*
G01*
X137965412Y-65781406D01*
X137982389Y-65788902D01*
X138003387Y-65793079D01*
X138025867Y-65808099D01*
X138046326Y-65817133D01*
X138060298Y-65831105D01*
X138080438Y-65844562D01*
X138093894Y-65864701D01*
X138107866Y-65878673D01*
X138116899Y-65899130D01*
X138131921Y-65921613D01*
X138136098Y-65942611D01*
X138143592Y-65959584D01*
X138149353Y-66009247D01*
X138150000Y-66012500D01*
X138150000Y-66487500D01*
X138149354Y-66490742D01*
X138143593Y-66540412D01*
X138136098Y-66557385D01*
X138131921Y-66578387D01*
X138116897Y-66600871D01*
X138107866Y-66621326D01*
X138093896Y-66635295D01*
X138080438Y-66655438D01*
X138060295Y-66668896D01*
X138046326Y-66682866D01*
X138025871Y-66691897D01*
X138003387Y-66706921D01*
X137982386Y-66711098D01*
X137965415Y-66718592D01*
X137915753Y-66724352D01*
X137912500Y-66725000D01*
X137312500Y-66725000D01*
X137309258Y-66724355D01*
X137259587Y-66718593D01*
X137242613Y-66711098D01*
X137221613Y-66706921D01*
X137199130Y-66691898D01*
X137178673Y-66682866D01*
X137164701Y-66668894D01*
X137144562Y-66655438D01*
X137131105Y-66635298D01*
X137117133Y-66621326D01*
X137108099Y-66600866D01*
X137093079Y-66578387D01*
X137088902Y-66557390D01*
X137081407Y-66540415D01*
X137075644Y-66490741D01*
X137075000Y-66487500D01*
X137075000Y-66012500D01*
X137075642Y-66009270D01*
X137081406Y-65959587D01*
X137088902Y-65942608D01*
X137093079Y-65921613D01*
X137108098Y-65899134D01*
X137117133Y-65878673D01*
X137131107Y-65864698D01*
X137144562Y-65844562D01*
X137164698Y-65831107D01*
X137178673Y-65817133D01*
X137199135Y-65808098D01*
X137221613Y-65793079D01*
X137242607Y-65788902D01*
X137259584Y-65781407D01*
X137309259Y-65775644D01*
X137312500Y-65775000D01*
X137912500Y-65775000D01*
X137915730Y-65775642D01*
G37*
G36*
X119472068Y-64467941D02*
G01*
X119610619Y-64525330D01*
X119735311Y-64608647D01*
X119841353Y-64714689D01*
X119924670Y-64839381D01*
X119982059Y-64977932D01*
X120011316Y-65125017D01*
X120011316Y-65274983D01*
X119982059Y-65422068D01*
X119924670Y-65560619D01*
X119841353Y-65685311D01*
X119735311Y-65791353D01*
X119610619Y-65874670D01*
X119472068Y-65932059D01*
X119324983Y-65961316D01*
X119175017Y-65961316D01*
X119027932Y-65932059D01*
X118889381Y-65874670D01*
X118764689Y-65791353D01*
X118658647Y-65685311D01*
X118575330Y-65560619D01*
X118517941Y-65422068D01*
X118488684Y-65274983D01*
X118488684Y-65125017D01*
X118517941Y-64977932D01*
X118575330Y-64839381D01*
X118658647Y-64714689D01*
X118764689Y-64608647D01*
X118889381Y-64525330D01*
X119027932Y-64467941D01*
X119175017Y-64438684D01*
X119324983Y-64438684D01*
X119472068Y-64467941D01*
G37*
G36*
X122012068Y-64467941D02*
G01*
X122150619Y-64525330D01*
X122275311Y-64608647D01*
X122381353Y-64714689D01*
X122464670Y-64839381D01*
X122522059Y-64977932D01*
X122551316Y-65125017D01*
X122551316Y-65274983D01*
X122522059Y-65422068D01*
X122464670Y-65560619D01*
X122381353Y-65685311D01*
X122275311Y-65791353D01*
X122150619Y-65874670D01*
X122012068Y-65932059D01*
X121864983Y-65961316D01*
X121715017Y-65961316D01*
X121567932Y-65932059D01*
X121429381Y-65874670D01*
X121304689Y-65791353D01*
X121198647Y-65685311D01*
X121115330Y-65560619D01*
X121057941Y-65422068D01*
X121028684Y-65274983D01*
X121028684Y-65125017D01*
X121057941Y-64977932D01*
X121115330Y-64839381D01*
X121198647Y-64714689D01*
X121304689Y-64608647D01*
X121429381Y-64525330D01*
X121567932Y-64467941D01*
X121715017Y-64438684D01*
X121864983Y-64438684D01*
X122012068Y-64467941D01*
G37*
G36*
X180472068Y-64467941D02*
G01*
X180610619Y-64525330D01*
X180735311Y-64608647D01*
X180841353Y-64714689D01*
X180924670Y-64839381D01*
X180982059Y-64977932D01*
X181011316Y-65125017D01*
X181011316Y-65274983D01*
X180982059Y-65422068D01*
X180924670Y-65560619D01*
X180841353Y-65685311D01*
X180735311Y-65791353D01*
X180610619Y-65874670D01*
X180472068Y-65932059D01*
X180324983Y-65961316D01*
X180175017Y-65961316D01*
X180027932Y-65932059D01*
X179889381Y-65874670D01*
X179764689Y-65791353D01*
X179658647Y-65685311D01*
X179575330Y-65560619D01*
X179517941Y-65422068D01*
X179488684Y-65274983D01*
X179488684Y-65125017D01*
X179517941Y-64977932D01*
X179575330Y-64839381D01*
X179658647Y-64714689D01*
X179764689Y-64608647D01*
X179889381Y-64525330D01*
X180027932Y-64467941D01*
X180175017Y-64438684D01*
X180324983Y-64438684D01*
X180472068Y-64467941D01*
G37*
G36*
X183012068Y-64467941D02*
G01*
X183150619Y-64525330D01*
X183275311Y-64608647D01*
X183381353Y-64714689D01*
X183464670Y-64839381D01*
X183522059Y-64977932D01*
X183551316Y-65125017D01*
X183551316Y-65274983D01*
X183522059Y-65422068D01*
X183464670Y-65560619D01*
X183381353Y-65685311D01*
X183275311Y-65791353D01*
X183150619Y-65874670D01*
X183012068Y-65932059D01*
X182864983Y-65961316D01*
X182715017Y-65961316D01*
X182567932Y-65932059D01*
X182429381Y-65874670D01*
X182304689Y-65791353D01*
X182198647Y-65685311D01*
X182115330Y-65560619D01*
X182057941Y-65422068D01*
X182028684Y-65274983D01*
X182028684Y-65125017D01*
X182057941Y-64977932D01*
X182115330Y-64839381D01*
X182198647Y-64714689D01*
X182304689Y-64608647D01*
X182429381Y-64525330D01*
X182567932Y-64467941D01*
X182715017Y-64438684D01*
X182864983Y-64438684D01*
X183012068Y-64467941D01*
G37*
G36*
X136190730Y-64025642D02*
G01*
X136240412Y-64031406D01*
X136257389Y-64038902D01*
X136278387Y-64043079D01*
X136300867Y-64058099D01*
X136321326Y-64067133D01*
X136335298Y-64081105D01*
X136355438Y-64094562D01*
X136368894Y-64114701D01*
X136382866Y-64128673D01*
X136391899Y-64149130D01*
X136406921Y-64171613D01*
X136411098Y-64192611D01*
X136418592Y-64209584D01*
X136424353Y-64259247D01*
X136425000Y-64262500D01*
X136425000Y-64737500D01*
X136424354Y-64740742D01*
X136418593Y-64790412D01*
X136411098Y-64807385D01*
X136406921Y-64828387D01*
X136391897Y-64850871D01*
X136382866Y-64871326D01*
X136368896Y-64885295D01*
X136355438Y-64905438D01*
X136335295Y-64918896D01*
X136321326Y-64932866D01*
X136300871Y-64941897D01*
X136278387Y-64956921D01*
X136257386Y-64961098D01*
X136240415Y-64968592D01*
X136190753Y-64974352D01*
X136187500Y-64975000D01*
X135587500Y-64975000D01*
X135584258Y-64974355D01*
X135534587Y-64968593D01*
X135517613Y-64961098D01*
X135496613Y-64956921D01*
X135474130Y-64941898D01*
X135453673Y-64932866D01*
X135439701Y-64918894D01*
X135419562Y-64905438D01*
X135406105Y-64885298D01*
X135392133Y-64871326D01*
X135383099Y-64850866D01*
X135368079Y-64828387D01*
X135363902Y-64807390D01*
X135356407Y-64790415D01*
X135350644Y-64740741D01*
X135350000Y-64737500D01*
X135350000Y-64262500D01*
X135350642Y-64259270D01*
X135356406Y-64209587D01*
X135363902Y-64192608D01*
X135368079Y-64171613D01*
X135383098Y-64149134D01*
X135392133Y-64128673D01*
X135406107Y-64114698D01*
X135419562Y-64094562D01*
X135439698Y-64081107D01*
X135453673Y-64067133D01*
X135474135Y-64058098D01*
X135496613Y-64043079D01*
X135517607Y-64038902D01*
X135534584Y-64031407D01*
X135584259Y-64025644D01*
X135587500Y-64025000D01*
X136187500Y-64025000D01*
X136190730Y-64025642D01*
G37*
G36*
X137915730Y-64025642D02*
G01*
X137965412Y-64031406D01*
X137982389Y-64038902D01*
X138003387Y-64043079D01*
X138025867Y-64058099D01*
X138046326Y-64067133D01*
X138060298Y-64081105D01*
X138080438Y-64094562D01*
X138093894Y-64114701D01*
X138107866Y-64128673D01*
X138116899Y-64149130D01*
X138131921Y-64171613D01*
X138136098Y-64192611D01*
X138143592Y-64209584D01*
X138149353Y-64259247D01*
X138150000Y-64262500D01*
X138150000Y-64737500D01*
X138149354Y-64740742D01*
X138143593Y-64790412D01*
X138136098Y-64807385D01*
X138131921Y-64828387D01*
X138116897Y-64850871D01*
X138107866Y-64871326D01*
X138093896Y-64885295D01*
X138080438Y-64905438D01*
X138060295Y-64918896D01*
X138046326Y-64932866D01*
X138025871Y-64941897D01*
X138003387Y-64956921D01*
X137982386Y-64961098D01*
X137965415Y-64968592D01*
X137915753Y-64974352D01*
X137912500Y-64975000D01*
X137312500Y-64975000D01*
X137309258Y-64974355D01*
X137259587Y-64968593D01*
X137242613Y-64961098D01*
X137221613Y-64956921D01*
X137199130Y-64941898D01*
X137178673Y-64932866D01*
X137164701Y-64918894D01*
X137144562Y-64905438D01*
X137131105Y-64885298D01*
X137117133Y-64871326D01*
X137108099Y-64850866D01*
X137093079Y-64828387D01*
X137088902Y-64807390D01*
X137081407Y-64790415D01*
X137075644Y-64740741D01*
X137075000Y-64737500D01*
X137075000Y-64262500D01*
X137075642Y-64259270D01*
X137081406Y-64209587D01*
X137088902Y-64192608D01*
X137093079Y-64171613D01*
X137108098Y-64149134D01*
X137117133Y-64128673D01*
X137131107Y-64114698D01*
X137144562Y-64094562D01*
X137164698Y-64081107D01*
X137178673Y-64067133D01*
X137199135Y-64058098D01*
X137221613Y-64043079D01*
X137242607Y-64038902D01*
X137259584Y-64031407D01*
X137309259Y-64025644D01*
X137312500Y-64025000D01*
X137912500Y-64025000D01*
X137915730Y-64025642D01*
G37*
G36*
X149440730Y-63775642D02*
G01*
X149490412Y-63781406D01*
X149507389Y-63788902D01*
X149528387Y-63793079D01*
X149550867Y-63808099D01*
X149571326Y-63817133D01*
X149585298Y-63831105D01*
X149605438Y-63844562D01*
X149618894Y-63864701D01*
X149632866Y-63878673D01*
X149641899Y-63899130D01*
X149656921Y-63921613D01*
X149661098Y-63942611D01*
X149668592Y-63959584D01*
X149674353Y-64009247D01*
X149675000Y-64012500D01*
X149675000Y-64487500D01*
X149674354Y-64490742D01*
X149668593Y-64540412D01*
X149661098Y-64557385D01*
X149656921Y-64578387D01*
X149641897Y-64600871D01*
X149632866Y-64621326D01*
X149618896Y-64635295D01*
X149605438Y-64655438D01*
X149585295Y-64668896D01*
X149571326Y-64682866D01*
X149550871Y-64691897D01*
X149528387Y-64706921D01*
X149507386Y-64711098D01*
X149490415Y-64718592D01*
X149440753Y-64724352D01*
X149437500Y-64725000D01*
X148837500Y-64725000D01*
X148834258Y-64724355D01*
X148784587Y-64718593D01*
X148767613Y-64711098D01*
X148746613Y-64706921D01*
X148724130Y-64691898D01*
X148703673Y-64682866D01*
X148689701Y-64668894D01*
X148669562Y-64655438D01*
X148656105Y-64635298D01*
X148642133Y-64621326D01*
X148633099Y-64600866D01*
X148618079Y-64578387D01*
X148613902Y-64557390D01*
X148606407Y-64540415D01*
X148600644Y-64490741D01*
X148600000Y-64487500D01*
X148600000Y-64012500D01*
X148600642Y-64009270D01*
X148606406Y-63959587D01*
X148613902Y-63942608D01*
X148618079Y-63921613D01*
X148633098Y-63899134D01*
X148642133Y-63878673D01*
X148656107Y-63864698D01*
X148669562Y-63844562D01*
X148689698Y-63831107D01*
X148703673Y-63817133D01*
X148724135Y-63808098D01*
X148746613Y-63793079D01*
X148767607Y-63788902D01*
X148784584Y-63781407D01*
X148834259Y-63775644D01*
X148837500Y-63775000D01*
X149437500Y-63775000D01*
X149440730Y-63775642D01*
G37*
G36*
X151165730Y-63775642D02*
G01*
X151215412Y-63781406D01*
X151232389Y-63788902D01*
X151253387Y-63793079D01*
X151275867Y-63808099D01*
X151296326Y-63817133D01*
X151310298Y-63831105D01*
X151330438Y-63844562D01*
X151343894Y-63864701D01*
X151357866Y-63878673D01*
X151366899Y-63899130D01*
X151381921Y-63921613D01*
X151386098Y-63942611D01*
X151393592Y-63959584D01*
X151399353Y-64009247D01*
X151400000Y-64012500D01*
X151400000Y-64487500D01*
X151399354Y-64490742D01*
X151393593Y-64540412D01*
X151386098Y-64557385D01*
X151381921Y-64578387D01*
X151366897Y-64600871D01*
X151357866Y-64621326D01*
X151343896Y-64635295D01*
X151330438Y-64655438D01*
X151310295Y-64668896D01*
X151296326Y-64682866D01*
X151275871Y-64691897D01*
X151253387Y-64706921D01*
X151232386Y-64711098D01*
X151215415Y-64718592D01*
X151165753Y-64724352D01*
X151162500Y-64725000D01*
X150562500Y-64725000D01*
X150559258Y-64724355D01*
X150509587Y-64718593D01*
X150492613Y-64711098D01*
X150471613Y-64706921D01*
X150449130Y-64691898D01*
X150428673Y-64682866D01*
X150414701Y-64668894D01*
X150394562Y-64655438D01*
X150381105Y-64635298D01*
X150367133Y-64621326D01*
X150358099Y-64600866D01*
X150343079Y-64578387D01*
X150338902Y-64557390D01*
X150331407Y-64540415D01*
X150325644Y-64490741D01*
X150325000Y-64487500D01*
X150325000Y-64012500D01*
X150325642Y-64009270D01*
X150331406Y-63959587D01*
X150338902Y-63942608D01*
X150343079Y-63921613D01*
X150358098Y-63899134D01*
X150367133Y-63878673D01*
X150381107Y-63864698D01*
X150394562Y-63844562D01*
X150414698Y-63831107D01*
X150428673Y-63817133D01*
X150449135Y-63808098D01*
X150471613Y-63793079D01*
X150492607Y-63788902D01*
X150509584Y-63781407D01*
X150559259Y-63775644D01*
X150562500Y-63775000D01*
X151162500Y-63775000D01*
X151165730Y-63775642D01*
G37*
G36*
X147132001Y-63215590D02*
G01*
X147137615Y-63218334D01*
X147140729Y-63218828D01*
X147190521Y-63244198D01*
X147242904Y-63269807D01*
X147245110Y-63272013D01*
X147245123Y-63272020D01*
X147327979Y-63354876D01*
X147327985Y-63354888D01*
X147330193Y-63357096D01*
X147355806Y-63409489D01*
X147381171Y-63459269D01*
X147381664Y-63462381D01*
X147384410Y-63467999D01*
X147400000Y-63575000D01*
X147400000Y-64325000D01*
X147384410Y-64432001D01*
X147381663Y-64437618D01*
X147381171Y-64440729D01*
X147355824Y-64490473D01*
X147330193Y-64542904D01*
X147327984Y-64545112D01*
X147327979Y-64545123D01*
X147245123Y-64627979D01*
X147245112Y-64627984D01*
X147242904Y-64630193D01*
X147190486Y-64655818D01*
X147140730Y-64681171D01*
X147137618Y-64681663D01*
X147132001Y-64684410D01*
X147025000Y-64700000D01*
X145775000Y-64700000D01*
X145667999Y-64684410D01*
X145662381Y-64681663D01*
X145659270Y-64681171D01*
X145609501Y-64655812D01*
X145557096Y-64630193D01*
X145554888Y-64627985D01*
X145554876Y-64627979D01*
X145472020Y-64545123D01*
X145472013Y-64545110D01*
X145469807Y-64542904D01*
X145444205Y-64490534D01*
X145418828Y-64440730D01*
X145418334Y-64437615D01*
X145415590Y-64432001D01*
X145400000Y-64325000D01*
X145400000Y-63575000D01*
X145415590Y-63467999D01*
X145418334Y-63462384D01*
X145418828Y-63459270D01*
X145444211Y-63409453D01*
X145469807Y-63357096D01*
X145472012Y-63354890D01*
X145472020Y-63354876D01*
X145554876Y-63272020D01*
X145554890Y-63272012D01*
X145557096Y-63269807D01*
X145609440Y-63244217D01*
X145659269Y-63218828D01*
X145662385Y-63218334D01*
X145667999Y-63215590D01*
X145775000Y-63200000D01*
X147025000Y-63200000D01*
X147132001Y-63215590D01*
G37*
G36*
X119472068Y-61927941D02*
G01*
X119610619Y-61985330D01*
X119735311Y-62068647D01*
X119841353Y-62174689D01*
X119924670Y-62299381D01*
X119982059Y-62437932D01*
X120011316Y-62585017D01*
X120011316Y-62734983D01*
X119982059Y-62882068D01*
X119924670Y-63020619D01*
X119841353Y-63145311D01*
X119735311Y-63251353D01*
X119610619Y-63334670D01*
X119472068Y-63392059D01*
X119324983Y-63421316D01*
X119175017Y-63421316D01*
X119027932Y-63392059D01*
X118889381Y-63334670D01*
X118764689Y-63251353D01*
X118658647Y-63145311D01*
X118575330Y-63020619D01*
X118517941Y-62882068D01*
X118488684Y-62734983D01*
X118488684Y-62585017D01*
X118517941Y-62437932D01*
X118575330Y-62299381D01*
X118658647Y-62174689D01*
X118764689Y-62068647D01*
X118889381Y-61985330D01*
X119027932Y-61927941D01*
X119175017Y-61898684D01*
X119324983Y-61898684D01*
X119472068Y-61927941D01*
G37*
G36*
X122012068Y-61927941D02*
G01*
X122150619Y-61985330D01*
X122275311Y-62068647D01*
X122381353Y-62174689D01*
X122464670Y-62299381D01*
X122522059Y-62437932D01*
X122551316Y-62585017D01*
X122551316Y-62734983D01*
X122522059Y-62882068D01*
X122464670Y-63020619D01*
X122381353Y-63145311D01*
X122275311Y-63251353D01*
X122150619Y-63334670D01*
X122012068Y-63392059D01*
X121864983Y-63421316D01*
X121715017Y-63421316D01*
X121567932Y-63392059D01*
X121429381Y-63334670D01*
X121304689Y-63251353D01*
X121198647Y-63145311D01*
X121115330Y-63020619D01*
X121057941Y-62882068D01*
X121028684Y-62734983D01*
X121028684Y-62585017D01*
X121057941Y-62437932D01*
X121115330Y-62299381D01*
X121198647Y-62174689D01*
X121304689Y-62068647D01*
X121429381Y-61985330D01*
X121567932Y-61927941D01*
X121715017Y-61898684D01*
X121864983Y-61898684D01*
X122012068Y-61927941D01*
G37*
G36*
X180472068Y-61927941D02*
G01*
X180610619Y-61985330D01*
X180735311Y-62068647D01*
X180841353Y-62174689D01*
X180924670Y-62299381D01*
X180982059Y-62437932D01*
X181011316Y-62585017D01*
X181011316Y-62734983D01*
X180982059Y-62882068D01*
X180924670Y-63020619D01*
X180841353Y-63145311D01*
X180735311Y-63251353D01*
X180610619Y-63334670D01*
X180472068Y-63392059D01*
X180324983Y-63421316D01*
X180175017Y-63421316D01*
X180027932Y-63392059D01*
X179889381Y-63334670D01*
X179764689Y-63251353D01*
X179658647Y-63145311D01*
X179575330Y-63020619D01*
X179517941Y-62882068D01*
X179488684Y-62734983D01*
X179488684Y-62585017D01*
X179517941Y-62437932D01*
X179575330Y-62299381D01*
X179658647Y-62174689D01*
X179764689Y-62068647D01*
X179889381Y-61985330D01*
X180027932Y-61927941D01*
X180175017Y-61898684D01*
X180324983Y-61898684D01*
X180472068Y-61927941D01*
G37*
G36*
X183012068Y-61927941D02*
G01*
X183150619Y-61985330D01*
X183275311Y-62068647D01*
X183381353Y-62174689D01*
X183464670Y-62299381D01*
X183522059Y-62437932D01*
X183551316Y-62585017D01*
X183551316Y-62734983D01*
X183522059Y-62882068D01*
X183464670Y-63020619D01*
X183381353Y-63145311D01*
X183275311Y-63251353D01*
X183150619Y-63334670D01*
X183012068Y-63392059D01*
X182864983Y-63421316D01*
X182715017Y-63421316D01*
X182567932Y-63392059D01*
X182429381Y-63334670D01*
X182304689Y-63251353D01*
X182198647Y-63145311D01*
X182115330Y-63020619D01*
X182057941Y-62882068D01*
X182028684Y-62734983D01*
X182028684Y-62585017D01*
X182057941Y-62437932D01*
X182115330Y-62299381D01*
X182198647Y-62174689D01*
X182304689Y-62068647D01*
X182429381Y-61985330D01*
X182567932Y-61927941D01*
X182715017Y-61898684D01*
X182864983Y-61898684D01*
X183012068Y-61927941D01*
G37*
G36*
X149440730Y-62025642D02*
G01*
X149490412Y-62031406D01*
X149507389Y-62038902D01*
X149528387Y-62043079D01*
X149550867Y-62058099D01*
X149571326Y-62067133D01*
X149585298Y-62081105D01*
X149605438Y-62094562D01*
X149618894Y-62114701D01*
X149632866Y-62128673D01*
X149641899Y-62149130D01*
X149656921Y-62171613D01*
X149661098Y-62192611D01*
X149668592Y-62209584D01*
X149674353Y-62259247D01*
X149675000Y-62262500D01*
X149675000Y-62737500D01*
X149674354Y-62740742D01*
X149668593Y-62790412D01*
X149661098Y-62807385D01*
X149656921Y-62828387D01*
X149641897Y-62850871D01*
X149632866Y-62871326D01*
X149618896Y-62885295D01*
X149605438Y-62905438D01*
X149585295Y-62918896D01*
X149571326Y-62932866D01*
X149550871Y-62941897D01*
X149528387Y-62956921D01*
X149507386Y-62961098D01*
X149490415Y-62968592D01*
X149440753Y-62974352D01*
X149437500Y-62975000D01*
X148837500Y-62975000D01*
X148834258Y-62974355D01*
X148784587Y-62968593D01*
X148767613Y-62961098D01*
X148746613Y-62956921D01*
X148724130Y-62941898D01*
X148703673Y-62932866D01*
X148689701Y-62918894D01*
X148669562Y-62905438D01*
X148656105Y-62885298D01*
X148642133Y-62871326D01*
X148633099Y-62850866D01*
X148618079Y-62828387D01*
X148613902Y-62807390D01*
X148606407Y-62790415D01*
X148600644Y-62740741D01*
X148600000Y-62737500D01*
X148600000Y-62262500D01*
X148600642Y-62259270D01*
X148606406Y-62209587D01*
X148613902Y-62192608D01*
X148618079Y-62171613D01*
X148633098Y-62149134D01*
X148642133Y-62128673D01*
X148656107Y-62114698D01*
X148669562Y-62094562D01*
X148689698Y-62081107D01*
X148703673Y-62067133D01*
X148724135Y-62058098D01*
X148746613Y-62043079D01*
X148767607Y-62038902D01*
X148784584Y-62031407D01*
X148834259Y-62025644D01*
X148837500Y-62025000D01*
X149437500Y-62025000D01*
X149440730Y-62025642D01*
G37*
G36*
X151165730Y-62025642D02*
G01*
X151215412Y-62031406D01*
X151232389Y-62038902D01*
X151253387Y-62043079D01*
X151275867Y-62058099D01*
X151296326Y-62067133D01*
X151310298Y-62081105D01*
X151330438Y-62094562D01*
X151343894Y-62114701D01*
X151357866Y-62128673D01*
X151366899Y-62149130D01*
X151381921Y-62171613D01*
X151386098Y-62192611D01*
X151393592Y-62209584D01*
X151399353Y-62259247D01*
X151400000Y-62262500D01*
X151400000Y-62737500D01*
X151399354Y-62740742D01*
X151393593Y-62790412D01*
X151386098Y-62807385D01*
X151381921Y-62828387D01*
X151366897Y-62850871D01*
X151357866Y-62871326D01*
X151343896Y-62885295D01*
X151330438Y-62905438D01*
X151310295Y-62918896D01*
X151296326Y-62932866D01*
X151275871Y-62941897D01*
X151253387Y-62956921D01*
X151232386Y-62961098D01*
X151215415Y-62968592D01*
X151165753Y-62974352D01*
X151162500Y-62975000D01*
X150562500Y-62975000D01*
X150559258Y-62974355D01*
X150509587Y-62968593D01*
X150492613Y-62961098D01*
X150471613Y-62956921D01*
X150449130Y-62941898D01*
X150428673Y-62932866D01*
X150414701Y-62918894D01*
X150394562Y-62905438D01*
X150381105Y-62885298D01*
X150367133Y-62871326D01*
X150358099Y-62850866D01*
X150343079Y-62828387D01*
X150338902Y-62807390D01*
X150331407Y-62790415D01*
X150325644Y-62740741D01*
X150325000Y-62737500D01*
X150325000Y-62262500D01*
X150325642Y-62259270D01*
X150331406Y-62209587D01*
X150338902Y-62192608D01*
X150343079Y-62171613D01*
X150358098Y-62149134D01*
X150367133Y-62128673D01*
X150381107Y-62114698D01*
X150394562Y-62094562D01*
X150414698Y-62081107D01*
X150428673Y-62067133D01*
X150449135Y-62058098D01*
X150471613Y-62043079D01*
X150492607Y-62038902D01*
X150509584Y-62031407D01*
X150559259Y-62025644D01*
X150562500Y-62025000D01*
X151162500Y-62025000D01*
X151165730Y-62025642D01*
G37*
G36*
X137953231Y-61700642D02*
G01*
X138005772Y-61706738D01*
X138023723Y-61714664D01*
X138045671Y-61719030D01*
X138069166Y-61734729D01*
X138090890Y-61744321D01*
X138105726Y-61759157D01*
X138126777Y-61773223D01*
X138140842Y-61794273D01*
X138155678Y-61809109D01*
X138165269Y-61830830D01*
X138180970Y-61854329D01*
X138185335Y-61876277D01*
X138193260Y-61894224D01*
X138199352Y-61946747D01*
X138200000Y-61950000D01*
X138200000Y-62600000D01*
X138199354Y-62603243D01*
X138193261Y-62655772D01*
X138185336Y-62673719D01*
X138180970Y-62695671D01*
X138165267Y-62719171D01*
X138155678Y-62740890D01*
X138140844Y-62755723D01*
X138126777Y-62776777D01*
X138105723Y-62790844D01*
X138090890Y-62805678D01*
X138069170Y-62815267D01*
X138045671Y-62830970D01*
X138023720Y-62835336D01*
X138005775Y-62843260D01*
X137953254Y-62849352D01*
X137950000Y-62850000D01*
X137050000Y-62850000D01*
X137046758Y-62849355D01*
X136994227Y-62843261D01*
X136976278Y-62835335D01*
X136954329Y-62830970D01*
X136930830Y-62815268D01*
X136909109Y-62805678D01*
X136894273Y-62790842D01*
X136873223Y-62776777D01*
X136859157Y-62755726D01*
X136844321Y-62740890D01*
X136834729Y-62719166D01*
X136819030Y-62695671D01*
X136814664Y-62673724D01*
X136806739Y-62655775D01*
X136800644Y-62603242D01*
X136800000Y-62600000D01*
X136800000Y-61950000D01*
X136800642Y-61946770D01*
X136806738Y-61894227D01*
X136814664Y-61876274D01*
X136819030Y-61854329D01*
X136834728Y-61830835D01*
X136844321Y-61809109D01*
X136859159Y-61794270D01*
X136873223Y-61773223D01*
X136894270Y-61759159D01*
X136909109Y-61744321D01*
X136930835Y-61734727D01*
X136954329Y-61719030D01*
X136976273Y-61714665D01*
X136994224Y-61706739D01*
X137046759Y-61700644D01*
X137050000Y-61700000D01*
X137950000Y-61700000D01*
X137953231Y-61700642D01*
G37*
G36*
X119472068Y-59387941D02*
G01*
X119610619Y-59445330D01*
X119735311Y-59528647D01*
X119841353Y-59634689D01*
X119924670Y-59759381D01*
X119982059Y-59897932D01*
X120011316Y-60045017D01*
X120011316Y-60194983D01*
X119982059Y-60342068D01*
X119924670Y-60480619D01*
X119841353Y-60605311D01*
X119735311Y-60711353D01*
X119610619Y-60794670D01*
X119472068Y-60852059D01*
X119324983Y-60881316D01*
X119175017Y-60881316D01*
X119027932Y-60852059D01*
X118889381Y-60794670D01*
X118764689Y-60711353D01*
X118658647Y-60605311D01*
X118575330Y-60480619D01*
X118517941Y-60342068D01*
X118488684Y-60194983D01*
X118488684Y-60045017D01*
X118517941Y-59897932D01*
X118575330Y-59759381D01*
X118658647Y-59634689D01*
X118764689Y-59528647D01*
X118889381Y-59445330D01*
X119027932Y-59387941D01*
X119175017Y-59358684D01*
X119324983Y-59358684D01*
X119472068Y-59387941D01*
G37*
G36*
X122012068Y-59387941D02*
G01*
X122150619Y-59445330D01*
X122275311Y-59528647D01*
X122381353Y-59634689D01*
X122464670Y-59759381D01*
X122522059Y-59897932D01*
X122551316Y-60045017D01*
X122551316Y-60194983D01*
X122522059Y-60342068D01*
X122464670Y-60480619D01*
X122381353Y-60605311D01*
X122275311Y-60711353D01*
X122150619Y-60794670D01*
X122012068Y-60852059D01*
X121864983Y-60881316D01*
X121715017Y-60881316D01*
X121567932Y-60852059D01*
X121429381Y-60794670D01*
X121304689Y-60711353D01*
X121198647Y-60605311D01*
X121115330Y-60480619D01*
X121057941Y-60342068D01*
X121028684Y-60194983D01*
X121028684Y-60045017D01*
X121057941Y-59897932D01*
X121115330Y-59759381D01*
X121198647Y-59634689D01*
X121304689Y-59528647D01*
X121429381Y-59445330D01*
X121567932Y-59387941D01*
X121715017Y-59358684D01*
X121864983Y-59358684D01*
X122012068Y-59387941D01*
G37*
G36*
X180472068Y-59387941D02*
G01*
X180610619Y-59445330D01*
X180735311Y-59528647D01*
X180841353Y-59634689D01*
X180924670Y-59759381D01*
X180982059Y-59897932D01*
X181011316Y-60045017D01*
X181011316Y-60194983D01*
X180982059Y-60342068D01*
X180924670Y-60480619D01*
X180841353Y-60605311D01*
X180735311Y-60711353D01*
X180610619Y-60794670D01*
X180472068Y-60852059D01*
X180324983Y-60881316D01*
X180175017Y-60881316D01*
X180027932Y-60852059D01*
X179889381Y-60794670D01*
X179764689Y-60711353D01*
X179658647Y-60605311D01*
X179575330Y-60480619D01*
X179517941Y-60342068D01*
X179488684Y-60194983D01*
X179488684Y-60045017D01*
X179517941Y-59897932D01*
X179575330Y-59759381D01*
X179658647Y-59634689D01*
X179764689Y-59528647D01*
X179889381Y-59445330D01*
X180027932Y-59387941D01*
X180175017Y-59358684D01*
X180324983Y-59358684D01*
X180472068Y-59387941D01*
G37*
G36*
X183012068Y-59387941D02*
G01*
X183150619Y-59445330D01*
X183275311Y-59528647D01*
X183381353Y-59634689D01*
X183464670Y-59759381D01*
X183522059Y-59897932D01*
X183551316Y-60045017D01*
X183551316Y-60194983D01*
X183522059Y-60342068D01*
X183464670Y-60480619D01*
X183381353Y-60605311D01*
X183275311Y-60711353D01*
X183150619Y-60794670D01*
X183012068Y-60852059D01*
X182864983Y-60881316D01*
X182715017Y-60881316D01*
X182567932Y-60852059D01*
X182429381Y-60794670D01*
X182304689Y-60711353D01*
X182198647Y-60605311D01*
X182115330Y-60480619D01*
X182057941Y-60342068D01*
X182028684Y-60194983D01*
X182028684Y-60045017D01*
X182057941Y-59897932D01*
X182115330Y-59759381D01*
X182198647Y-59634689D01*
X182304689Y-59528647D01*
X182429381Y-59445330D01*
X182567932Y-59387941D01*
X182715017Y-59358684D01*
X182864983Y-59358684D01*
X183012068Y-59387941D01*
G37*
G36*
X137953231Y-59650642D02*
G01*
X138005772Y-59656738D01*
X138023723Y-59664664D01*
X138045671Y-59669030D01*
X138069166Y-59684729D01*
X138090890Y-59694321D01*
X138105726Y-59709157D01*
X138126777Y-59723223D01*
X138140842Y-59744273D01*
X138155678Y-59759109D01*
X138165269Y-59780830D01*
X138180970Y-59804329D01*
X138185335Y-59826277D01*
X138193260Y-59844224D01*
X138199352Y-59896747D01*
X138200000Y-59900000D01*
X138200000Y-60550000D01*
X138199354Y-60553243D01*
X138193261Y-60605772D01*
X138185336Y-60623719D01*
X138180970Y-60645671D01*
X138165267Y-60669171D01*
X138155678Y-60690890D01*
X138140844Y-60705723D01*
X138126777Y-60726777D01*
X138105723Y-60740844D01*
X138090890Y-60755678D01*
X138069170Y-60765267D01*
X138045671Y-60780970D01*
X138023720Y-60785336D01*
X138005775Y-60793260D01*
X137953254Y-60799352D01*
X137950000Y-60800000D01*
X137050000Y-60800000D01*
X137046758Y-60799355D01*
X136994227Y-60793261D01*
X136976278Y-60785335D01*
X136954329Y-60780970D01*
X136930830Y-60765268D01*
X136909109Y-60755678D01*
X136894273Y-60740842D01*
X136873223Y-60726777D01*
X136859157Y-60705726D01*
X136844321Y-60690890D01*
X136834729Y-60669166D01*
X136819030Y-60645671D01*
X136814664Y-60623724D01*
X136806739Y-60605775D01*
X136800644Y-60553242D01*
X136800000Y-60550000D01*
X136800000Y-59900000D01*
X136800642Y-59896770D01*
X136806738Y-59844227D01*
X136814664Y-59826274D01*
X136819030Y-59804329D01*
X136834728Y-59780835D01*
X136844321Y-59759109D01*
X136859159Y-59744270D01*
X136873223Y-59723223D01*
X136894270Y-59709159D01*
X136909109Y-59694321D01*
X136930835Y-59684727D01*
X136954329Y-59669030D01*
X136976273Y-59664665D01*
X136994224Y-59656739D01*
X137046759Y-59650644D01*
X137050000Y-59650000D01*
X137950000Y-59650000D01*
X137953231Y-59650642D01*
G37*
G36*
X147750000Y-60750000D02*
G01*
X146750000Y-60750000D01*
X146750000Y-59750000D01*
X147750000Y-59750000D01*
X147750000Y-60750000D01*
G37*
G36*
X119472068Y-56847941D02*
G01*
X119610619Y-56905330D01*
X119735311Y-56988647D01*
X119841353Y-57094689D01*
X119924670Y-57219381D01*
X119982059Y-57357932D01*
X120011316Y-57505017D01*
X120011316Y-57654983D01*
X119982059Y-57802068D01*
X119924670Y-57940619D01*
X119841353Y-58065311D01*
X119735311Y-58171353D01*
X119610619Y-58254670D01*
X119472068Y-58312059D01*
X119324983Y-58341316D01*
X119175017Y-58341316D01*
X119027932Y-58312059D01*
X118889381Y-58254670D01*
X118764689Y-58171353D01*
X118658647Y-58065311D01*
X118575330Y-57940619D01*
X118517941Y-57802068D01*
X118488684Y-57654983D01*
X118488684Y-57505017D01*
X118517941Y-57357932D01*
X118575330Y-57219381D01*
X118658647Y-57094689D01*
X118764689Y-56988647D01*
X118889381Y-56905330D01*
X119027932Y-56847941D01*
X119175017Y-56818684D01*
X119324983Y-56818684D01*
X119472068Y-56847941D01*
G37*
G36*
X122012068Y-56847941D02*
G01*
X122150619Y-56905330D01*
X122275311Y-56988647D01*
X122381353Y-57094689D01*
X122464670Y-57219381D01*
X122522059Y-57357932D01*
X122551316Y-57505017D01*
X122551316Y-57654983D01*
X122522059Y-57802068D01*
X122464670Y-57940619D01*
X122381353Y-58065311D01*
X122275311Y-58171353D01*
X122150619Y-58254670D01*
X122012068Y-58312059D01*
X121864983Y-58341316D01*
X121715017Y-58341316D01*
X121567932Y-58312059D01*
X121429381Y-58254670D01*
X121304689Y-58171353D01*
X121198647Y-58065311D01*
X121115330Y-57940619D01*
X121057941Y-57802068D01*
X121028684Y-57654983D01*
X121028684Y-57505017D01*
X121057941Y-57357932D01*
X121115330Y-57219381D01*
X121198647Y-57094689D01*
X121304689Y-56988647D01*
X121429381Y-56905330D01*
X121567932Y-56847941D01*
X121715017Y-56818684D01*
X121864983Y-56818684D01*
X122012068Y-56847941D01*
G37*
G36*
X180472068Y-56847941D02*
G01*
X180610619Y-56905330D01*
X180735311Y-56988647D01*
X180841353Y-57094689D01*
X180924670Y-57219381D01*
X180982059Y-57357932D01*
X181011316Y-57505017D01*
X181011316Y-57654983D01*
X180982059Y-57802068D01*
X180924670Y-57940619D01*
X180841353Y-58065311D01*
X180735311Y-58171353D01*
X180610619Y-58254670D01*
X180472068Y-58312059D01*
X180324983Y-58341316D01*
X180175017Y-58341316D01*
X180027932Y-58312059D01*
X179889381Y-58254670D01*
X179764689Y-58171353D01*
X179658647Y-58065311D01*
X179575330Y-57940619D01*
X179517941Y-57802068D01*
X179488684Y-57654983D01*
X179488684Y-57505017D01*
X179517941Y-57357932D01*
X179575330Y-57219381D01*
X179658647Y-57094689D01*
X179764689Y-56988647D01*
X179889381Y-56905330D01*
X180027932Y-56847941D01*
X180175017Y-56818684D01*
X180324983Y-56818684D01*
X180472068Y-56847941D01*
G37*
G36*
X183012068Y-56847941D02*
G01*
X183150619Y-56905330D01*
X183275311Y-56988647D01*
X183381353Y-57094689D01*
X183464670Y-57219381D01*
X183522059Y-57357932D01*
X183551316Y-57505017D01*
X183551316Y-57654983D01*
X183522059Y-57802068D01*
X183464670Y-57940619D01*
X183381353Y-58065311D01*
X183275311Y-58171353D01*
X183150619Y-58254670D01*
X183012068Y-58312059D01*
X182864983Y-58341316D01*
X182715017Y-58341316D01*
X182567932Y-58312059D01*
X182429381Y-58254670D01*
X182304689Y-58171353D01*
X182198647Y-58065311D01*
X182115330Y-57940619D01*
X182057941Y-57802068D01*
X182028684Y-57654983D01*
X182028684Y-57505017D01*
X182057941Y-57357932D01*
X182115330Y-57219381D01*
X182198647Y-57094689D01*
X182304689Y-56988647D01*
X182429381Y-56905330D01*
X182567932Y-56847941D01*
X182715017Y-56818684D01*
X182864983Y-56818684D01*
X183012068Y-56847941D01*
G37*
G36*
X119472068Y-54307941D02*
G01*
X119610619Y-54365330D01*
X119735311Y-54448647D01*
X119841353Y-54554689D01*
X119924670Y-54679381D01*
X119982059Y-54817932D01*
X120011316Y-54965017D01*
X120011316Y-55114983D01*
X119982059Y-55262068D01*
X119924670Y-55400619D01*
X119841353Y-55525311D01*
X119735311Y-55631353D01*
X119610619Y-55714670D01*
X119472068Y-55772059D01*
X119324983Y-55801316D01*
X119175017Y-55801316D01*
X119027932Y-55772059D01*
X118889381Y-55714670D01*
X118764689Y-55631353D01*
X118658647Y-55525311D01*
X118575330Y-55400619D01*
X118517941Y-55262068D01*
X118488684Y-55114983D01*
X118488684Y-54965017D01*
X118517941Y-54817932D01*
X118575330Y-54679381D01*
X118658647Y-54554689D01*
X118764689Y-54448647D01*
X118889381Y-54365330D01*
X119027932Y-54307941D01*
X119175017Y-54278684D01*
X119324983Y-54278684D01*
X119472068Y-54307941D01*
G37*
G36*
X122012068Y-54307941D02*
G01*
X122150619Y-54365330D01*
X122275311Y-54448647D01*
X122381353Y-54554689D01*
X122464670Y-54679381D01*
X122522059Y-54817932D01*
X122551316Y-54965017D01*
X122551316Y-55114983D01*
X122522059Y-55262068D01*
X122464670Y-55400619D01*
X122381353Y-55525311D01*
X122275311Y-55631353D01*
X122150619Y-55714670D01*
X122012068Y-55772059D01*
X121864983Y-55801316D01*
X121715017Y-55801316D01*
X121567932Y-55772059D01*
X121429381Y-55714670D01*
X121304689Y-55631353D01*
X121198647Y-55525311D01*
X121115330Y-55400619D01*
X121057941Y-55262068D01*
X121028684Y-55114983D01*
X121028684Y-54965017D01*
X121057941Y-54817932D01*
X121115330Y-54679381D01*
X121198647Y-54554689D01*
X121304689Y-54448647D01*
X121429381Y-54365330D01*
X121567932Y-54307941D01*
X121715017Y-54278684D01*
X121864983Y-54278684D01*
X122012068Y-54307941D01*
G37*
G36*
X180472068Y-54307941D02*
G01*
X180610619Y-54365330D01*
X180735311Y-54448647D01*
X180841353Y-54554689D01*
X180924670Y-54679381D01*
X180982059Y-54817932D01*
X181011316Y-54965017D01*
X181011316Y-55114983D01*
X180982059Y-55262068D01*
X180924670Y-55400619D01*
X180841353Y-55525311D01*
X180735311Y-55631353D01*
X180610619Y-55714670D01*
X180472068Y-55772059D01*
X180324983Y-55801316D01*
X180175017Y-55801316D01*
X180027932Y-55772059D01*
X179889381Y-55714670D01*
X179764689Y-55631353D01*
X179658647Y-55525311D01*
X179575330Y-55400619D01*
X179517941Y-55262068D01*
X179488684Y-55114983D01*
X179488684Y-54965017D01*
X179517941Y-54817932D01*
X179575330Y-54679381D01*
X179658647Y-54554689D01*
X179764689Y-54448647D01*
X179889381Y-54365330D01*
X180027932Y-54307941D01*
X180175017Y-54278684D01*
X180324983Y-54278684D01*
X180472068Y-54307941D01*
G37*
G36*
X183012068Y-54307941D02*
G01*
X183150619Y-54365330D01*
X183275311Y-54448647D01*
X183381353Y-54554689D01*
X183464670Y-54679381D01*
X183522059Y-54817932D01*
X183551316Y-54965017D01*
X183551316Y-55114983D01*
X183522059Y-55262068D01*
X183464670Y-55400619D01*
X183381353Y-55525311D01*
X183275311Y-55631353D01*
X183150619Y-55714670D01*
X183012068Y-55772059D01*
X182864983Y-55801316D01*
X182715017Y-55801316D01*
X182567932Y-55772059D01*
X182429381Y-55714670D01*
X182304689Y-55631353D01*
X182198647Y-55525311D01*
X182115330Y-55400619D01*
X182057941Y-55262068D01*
X182028684Y-55114983D01*
X182028684Y-54965017D01*
X182057941Y-54817932D01*
X182115330Y-54679381D01*
X182198647Y-54554689D01*
X182304689Y-54448647D01*
X182429381Y-54365330D01*
X182567932Y-54307941D01*
X182715017Y-54278684D01*
X182864983Y-54278684D01*
X183012068Y-54307941D01*
G37*
G36*
X120015000Y-53265000D02*
G01*
X118485000Y-53265000D01*
X118485000Y-51735000D01*
X120015000Y-51735000D01*
X120015000Y-53265000D01*
G37*
G36*
X181015000Y-53265000D02*
G01*
X179485000Y-53265000D01*
X179485000Y-51735000D01*
X181015000Y-51735000D01*
X181015000Y-53265000D01*
G37*
G36*
X122012068Y-51767941D02*
G01*
X122150619Y-51825330D01*
X122275311Y-51908647D01*
X122381353Y-52014689D01*
X122464670Y-52139381D01*
X122522059Y-52277932D01*
X122551316Y-52425017D01*
X122551316Y-52574983D01*
X122522059Y-52722068D01*
X122464670Y-52860619D01*
X122381353Y-52985311D01*
X122275311Y-53091353D01*
X122150619Y-53174670D01*
X122012068Y-53232059D01*
X121864983Y-53261316D01*
X121715017Y-53261316D01*
X121567932Y-53232059D01*
X121429381Y-53174670D01*
X121304689Y-53091353D01*
X121198647Y-52985311D01*
X121115330Y-52860619D01*
X121057941Y-52722068D01*
X121028684Y-52574983D01*
X121028684Y-52425017D01*
X121057941Y-52277932D01*
X121115330Y-52139381D01*
X121198647Y-52014689D01*
X121304689Y-51908647D01*
X121429381Y-51825330D01*
X121567932Y-51767941D01*
X121715017Y-51738684D01*
X121864983Y-51738684D01*
X122012068Y-51767941D01*
G37*
G36*
X183012068Y-51767941D02*
G01*
X183150619Y-51825330D01*
X183275311Y-51908647D01*
X183381353Y-52014689D01*
X183464670Y-52139381D01*
X183522059Y-52277932D01*
X183551316Y-52425017D01*
X183551316Y-52574983D01*
X183522059Y-52722068D01*
X183464670Y-52860619D01*
X183381353Y-52985311D01*
X183275311Y-53091353D01*
X183150619Y-53174670D01*
X183012068Y-53232059D01*
X182864983Y-53261316D01*
X182715017Y-53261316D01*
X182567932Y-53232059D01*
X182429381Y-53174670D01*
X182304689Y-53091353D01*
X182198647Y-52985311D01*
X182115330Y-52860619D01*
X182057941Y-52722068D01*
X182028684Y-52574983D01*
X182028684Y-52425017D01*
X182057941Y-52277932D01*
X182115330Y-52139381D01*
X182198647Y-52014689D01*
X182304689Y-51908647D01*
X182429381Y-51825330D01*
X182567932Y-51767941D01*
X182715017Y-51738684D01*
X182864983Y-51738684D01*
X183012068Y-51767941D01*
G37*
M02*
