%TF.GenerationSoftware,KiCad,Pcbnew,9.0.7-9.0.7~ubuntu24.04.1*%
%TF.CreationDate,2026-01-13T16:25:48+01:00*%
%TF.ProjectId,power,706f7765-722e-46b6-9963-61645f706362,1.0*%
%TF.SameCoordinates,Original*%
%TF.FileFunction,Legend,Top*%
%TF.FilePolarity,Positive*%
%FSLAX46Y46*%
G04 Gerber Fmt 4.6, Leading zero omitted, Abs format (unit mm)*
G04 Created by KiCad (PCBNEW 9.0.7-9.0.7~ubuntu24.04.1) date 2026-01-13 16:25:48*
%MOMM*%
%LPD*%
G01*
G04 APERTURE LIST*
%ADD10C,0.150000*%
%ADD11C,0.254000*%
%ADD12C,0.120000*%
%ADD13C,0.200000*%
%ADD14C,0.100000*%
G04 APERTURE END LIST*
D10*
X164988095Y-84304819D02*
X164988095Y-85114342D01*
X164988095Y-85114342D02*
X165035714Y-85209580D01*
X165035714Y-85209580D02*
X165083333Y-85257200D01*
X165083333Y-85257200D02*
X165178571Y-85304819D01*
X165178571Y-85304819D02*
X165369047Y-85304819D01*
X165369047Y-85304819D02*
X165464285Y-85257200D01*
X165464285Y-85257200D02*
X165511904Y-85209580D01*
X165511904Y-85209580D02*
X165559523Y-85114342D01*
X165559523Y-85114342D02*
X165559523Y-84304819D01*
X166559523Y-85304819D02*
X165988095Y-85304819D01*
X166273809Y-85304819D02*
X166273809Y-84304819D01*
X166273809Y-84304819D02*
X166178571Y-84447676D01*
X166178571Y-84447676D02*
X166083333Y-84542914D01*
X166083333Y-84542914D02*
X165988095Y-84590533D01*
X147833333Y-87459580D02*
X147785714Y-87507200D01*
X147785714Y-87507200D02*
X147642857Y-87554819D01*
X147642857Y-87554819D02*
X147547619Y-87554819D01*
X147547619Y-87554819D02*
X147404762Y-87507200D01*
X147404762Y-87507200D02*
X147309524Y-87411961D01*
X147309524Y-87411961D02*
X147261905Y-87316723D01*
X147261905Y-87316723D02*
X147214286Y-87126247D01*
X147214286Y-87126247D02*
X147214286Y-86983390D01*
X147214286Y-86983390D02*
X147261905Y-86792914D01*
X147261905Y-86792914D02*
X147309524Y-86697676D01*
X147309524Y-86697676D02*
X147404762Y-86602438D01*
X147404762Y-86602438D02*
X147547619Y-86554819D01*
X147547619Y-86554819D02*
X147642857Y-86554819D01*
X147642857Y-86554819D02*
X147785714Y-86602438D01*
X147785714Y-86602438D02*
X147833333Y-86650057D01*
X148690476Y-86888152D02*
X148690476Y-87554819D01*
X148452381Y-86507200D02*
X148214286Y-87221485D01*
X148214286Y-87221485D02*
X148833333Y-87221485D01*
X137066666Y-58431009D02*
X136733333Y-58431009D01*
X136733333Y-58954819D02*
X136733333Y-57954819D01*
X136733333Y-57954819D02*
X137209523Y-57954819D01*
X137495238Y-57954819D02*
X138114285Y-57954819D01*
X138114285Y-57954819D02*
X137780952Y-58335771D01*
X137780952Y-58335771D02*
X137923809Y-58335771D01*
X137923809Y-58335771D02*
X138019047Y-58383390D01*
X138019047Y-58383390D02*
X138066666Y-58431009D01*
X138066666Y-58431009D02*
X138114285Y-58526247D01*
X138114285Y-58526247D02*
X138114285Y-58764342D01*
X138114285Y-58764342D02*
X138066666Y-58859580D01*
X138066666Y-58859580D02*
X138019047Y-58907200D01*
X138019047Y-58907200D02*
X137923809Y-58954819D01*
X137923809Y-58954819D02*
X137638095Y-58954819D01*
X137638095Y-58954819D02*
X137542857Y-58907200D01*
X137542857Y-58907200D02*
X137495238Y-58859580D01*
X161583333Y-74209580D02*
X161535714Y-74257200D01*
X161535714Y-74257200D02*
X161392857Y-74304819D01*
X161392857Y-74304819D02*
X161297619Y-74304819D01*
X161297619Y-74304819D02*
X161154762Y-74257200D01*
X161154762Y-74257200D02*
X161059524Y-74161961D01*
X161059524Y-74161961D02*
X161011905Y-74066723D01*
X161011905Y-74066723D02*
X160964286Y-73876247D01*
X160964286Y-73876247D02*
X160964286Y-73733390D01*
X160964286Y-73733390D02*
X161011905Y-73542914D01*
X161011905Y-73542914D02*
X161059524Y-73447676D01*
X161059524Y-73447676D02*
X161154762Y-73352438D01*
X161154762Y-73352438D02*
X161297619Y-73304819D01*
X161297619Y-73304819D02*
X161392857Y-73304819D01*
X161392857Y-73304819D02*
X161535714Y-73352438D01*
X161535714Y-73352438D02*
X161583333Y-73400057D01*
X162059524Y-74304819D02*
X162250000Y-74304819D01*
X162250000Y-74304819D02*
X162345238Y-74257200D01*
X162345238Y-74257200D02*
X162392857Y-74209580D01*
X162392857Y-74209580D02*
X162488095Y-74066723D01*
X162488095Y-74066723D02*
X162535714Y-73876247D01*
X162535714Y-73876247D02*
X162535714Y-73495295D01*
X162535714Y-73495295D02*
X162488095Y-73400057D01*
X162488095Y-73400057D02*
X162440476Y-73352438D01*
X162440476Y-73352438D02*
X162345238Y-73304819D01*
X162345238Y-73304819D02*
X162154762Y-73304819D01*
X162154762Y-73304819D02*
X162059524Y-73352438D01*
X162059524Y-73352438D02*
X162011905Y-73400057D01*
X162011905Y-73400057D02*
X161964286Y-73495295D01*
X161964286Y-73495295D02*
X161964286Y-73733390D01*
X161964286Y-73733390D02*
X162011905Y-73828628D01*
X162011905Y-73828628D02*
X162059524Y-73876247D01*
X162059524Y-73876247D02*
X162154762Y-73923866D01*
X162154762Y-73923866D02*
X162345238Y-73923866D01*
X162345238Y-73923866D02*
X162440476Y-73876247D01*
X162440476Y-73876247D02*
X162488095Y-73828628D01*
X162488095Y-73828628D02*
X162535714Y-73733390D01*
D11*
X182326667Y-111304318D02*
X182326667Y-112211461D01*
X182326667Y-112211461D02*
X182266190Y-112392889D01*
X182266190Y-112392889D02*
X182145238Y-112513842D01*
X182145238Y-112513842D02*
X181963809Y-112574318D01*
X181963809Y-112574318D02*
X181842857Y-112574318D01*
X182810476Y-111304318D02*
X183596667Y-111304318D01*
X183596667Y-111304318D02*
X183173333Y-111788127D01*
X183173333Y-111788127D02*
X183354762Y-111788127D01*
X183354762Y-111788127D02*
X183475714Y-111848603D01*
X183475714Y-111848603D02*
X183536190Y-111909080D01*
X183536190Y-111909080D02*
X183596667Y-112030032D01*
X183596667Y-112030032D02*
X183596667Y-112332413D01*
X183596667Y-112332413D02*
X183536190Y-112453365D01*
X183536190Y-112453365D02*
X183475714Y-112513842D01*
X183475714Y-112513842D02*
X183354762Y-112574318D01*
X183354762Y-112574318D02*
X182991905Y-112574318D01*
X182991905Y-112574318D02*
X182870952Y-112513842D01*
X182870952Y-112513842D02*
X182810476Y-112453365D01*
D10*
X152757142Y-62859580D02*
X152709523Y-62907200D01*
X152709523Y-62907200D02*
X152566666Y-62954819D01*
X152566666Y-62954819D02*
X152471428Y-62954819D01*
X152471428Y-62954819D02*
X152328571Y-62907200D01*
X152328571Y-62907200D02*
X152233333Y-62811961D01*
X152233333Y-62811961D02*
X152185714Y-62716723D01*
X152185714Y-62716723D02*
X152138095Y-62526247D01*
X152138095Y-62526247D02*
X152138095Y-62383390D01*
X152138095Y-62383390D02*
X152185714Y-62192914D01*
X152185714Y-62192914D02*
X152233333Y-62097676D01*
X152233333Y-62097676D02*
X152328571Y-62002438D01*
X152328571Y-62002438D02*
X152471428Y-61954819D01*
X152471428Y-61954819D02*
X152566666Y-61954819D01*
X152566666Y-61954819D02*
X152709523Y-62002438D01*
X152709523Y-62002438D02*
X152757142Y-62050057D01*
X153709523Y-62954819D02*
X153138095Y-62954819D01*
X153423809Y-62954819D02*
X153423809Y-61954819D01*
X153423809Y-61954819D02*
X153328571Y-62097676D01*
X153328571Y-62097676D02*
X153233333Y-62192914D01*
X153233333Y-62192914D02*
X153138095Y-62240533D01*
X154661904Y-62954819D02*
X154090476Y-62954819D01*
X154376190Y-62954819D02*
X154376190Y-61954819D01*
X154376190Y-61954819D02*
X154280952Y-62097676D01*
X154280952Y-62097676D02*
X154185714Y-62192914D01*
X154185714Y-62192914D02*
X154090476Y-62240533D01*
X163583333Y-84709580D02*
X163535714Y-84757200D01*
X163535714Y-84757200D02*
X163392857Y-84804819D01*
X163392857Y-84804819D02*
X163297619Y-84804819D01*
X163297619Y-84804819D02*
X163154762Y-84757200D01*
X163154762Y-84757200D02*
X163059524Y-84661961D01*
X163059524Y-84661961D02*
X163011905Y-84566723D01*
X163011905Y-84566723D02*
X162964286Y-84376247D01*
X162964286Y-84376247D02*
X162964286Y-84233390D01*
X162964286Y-84233390D02*
X163011905Y-84042914D01*
X163011905Y-84042914D02*
X163059524Y-83947676D01*
X163059524Y-83947676D02*
X163154762Y-83852438D01*
X163154762Y-83852438D02*
X163297619Y-83804819D01*
X163297619Y-83804819D02*
X163392857Y-83804819D01*
X163392857Y-83804819D02*
X163535714Y-83852438D01*
X163535714Y-83852438D02*
X163583333Y-83900057D01*
X164488095Y-83804819D02*
X164011905Y-83804819D01*
X164011905Y-83804819D02*
X163964286Y-84281009D01*
X163964286Y-84281009D02*
X164011905Y-84233390D01*
X164011905Y-84233390D02*
X164107143Y-84185771D01*
X164107143Y-84185771D02*
X164345238Y-84185771D01*
X164345238Y-84185771D02*
X164440476Y-84233390D01*
X164440476Y-84233390D02*
X164488095Y-84281009D01*
X164488095Y-84281009D02*
X164535714Y-84376247D01*
X164535714Y-84376247D02*
X164535714Y-84614342D01*
X164535714Y-84614342D02*
X164488095Y-84709580D01*
X164488095Y-84709580D02*
X164440476Y-84757200D01*
X164440476Y-84757200D02*
X164345238Y-84804819D01*
X164345238Y-84804819D02*
X164107143Y-84804819D01*
X164107143Y-84804819D02*
X164011905Y-84757200D01*
X164011905Y-84757200D02*
X163964286Y-84709580D01*
X138170833Y-97134819D02*
X137837500Y-96658628D01*
X137599405Y-97134819D02*
X137599405Y-96134819D01*
X137599405Y-96134819D02*
X137980357Y-96134819D01*
X137980357Y-96134819D02*
X138075595Y-96182438D01*
X138075595Y-96182438D02*
X138123214Y-96230057D01*
X138123214Y-96230057D02*
X138170833Y-96325295D01*
X138170833Y-96325295D02*
X138170833Y-96468152D01*
X138170833Y-96468152D02*
X138123214Y-96563390D01*
X138123214Y-96563390D02*
X138075595Y-96611009D01*
X138075595Y-96611009D02*
X137980357Y-96658628D01*
X137980357Y-96658628D02*
X137599405Y-96658628D01*
X139123214Y-97134819D02*
X138551786Y-97134819D01*
X138837500Y-97134819D02*
X138837500Y-96134819D01*
X138837500Y-96134819D02*
X138742262Y-96277676D01*
X138742262Y-96277676D02*
X138647024Y-96372914D01*
X138647024Y-96372914D02*
X138551786Y-96420533D01*
X133904761Y-91050057D02*
X133809523Y-91002438D01*
X133809523Y-91002438D02*
X133714285Y-90907200D01*
X133714285Y-90907200D02*
X133571428Y-90764342D01*
X133571428Y-90764342D02*
X133476190Y-90716723D01*
X133476190Y-90716723D02*
X133380952Y-90716723D01*
X133428571Y-90954819D02*
X133333333Y-90907200D01*
X133333333Y-90907200D02*
X133238095Y-90811961D01*
X133238095Y-90811961D02*
X133190476Y-90621485D01*
X133190476Y-90621485D02*
X133190476Y-90288152D01*
X133190476Y-90288152D02*
X133238095Y-90097676D01*
X133238095Y-90097676D02*
X133333333Y-90002438D01*
X133333333Y-90002438D02*
X133428571Y-89954819D01*
X133428571Y-89954819D02*
X133619047Y-89954819D01*
X133619047Y-89954819D02*
X133714285Y-90002438D01*
X133714285Y-90002438D02*
X133809523Y-90097676D01*
X133809523Y-90097676D02*
X133857142Y-90288152D01*
X133857142Y-90288152D02*
X133857142Y-90621485D01*
X133857142Y-90621485D02*
X133809523Y-90811961D01*
X133809523Y-90811961D02*
X133714285Y-90907200D01*
X133714285Y-90907200D02*
X133619047Y-90954819D01*
X133619047Y-90954819D02*
X133428571Y-90954819D01*
X134809523Y-90954819D02*
X134238095Y-90954819D01*
X134523809Y-90954819D02*
X134523809Y-89954819D01*
X134523809Y-89954819D02*
X134428571Y-90097676D01*
X134428571Y-90097676D02*
X134333333Y-90192914D01*
X134333333Y-90192914D02*
X134238095Y-90240533D01*
X127416666Y-99681009D02*
X127083333Y-99681009D01*
X127083333Y-100204819D02*
X127083333Y-99204819D01*
X127083333Y-99204819D02*
X127559523Y-99204819D01*
X128464285Y-100204819D02*
X127892857Y-100204819D01*
X128178571Y-100204819D02*
X128178571Y-99204819D01*
X128178571Y-99204819D02*
X128083333Y-99347676D01*
X128083333Y-99347676D02*
X127988095Y-99442914D01*
X127988095Y-99442914D02*
X127892857Y-99490533D01*
X155183333Y-84954819D02*
X154707143Y-84954819D01*
X154707143Y-84954819D02*
X154707143Y-83954819D01*
X156040476Y-84954819D02*
X155469048Y-84954819D01*
X155754762Y-84954819D02*
X155754762Y-83954819D01*
X155754762Y-83954819D02*
X155659524Y-84097676D01*
X155659524Y-84097676D02*
X155564286Y-84192914D01*
X155564286Y-84192914D02*
X155469048Y-84240533D01*
X155666666Y-77181009D02*
X155333333Y-77181009D01*
X155333333Y-77704819D02*
X155333333Y-76704819D01*
X155333333Y-76704819D02*
X155809523Y-76704819D01*
X156142857Y-76800057D02*
X156190476Y-76752438D01*
X156190476Y-76752438D02*
X156285714Y-76704819D01*
X156285714Y-76704819D02*
X156523809Y-76704819D01*
X156523809Y-76704819D02*
X156619047Y-76752438D01*
X156619047Y-76752438D02*
X156666666Y-76800057D01*
X156666666Y-76800057D02*
X156714285Y-76895295D01*
X156714285Y-76895295D02*
X156714285Y-76990533D01*
X156714285Y-76990533D02*
X156666666Y-77133390D01*
X156666666Y-77133390D02*
X156095238Y-77704819D01*
X156095238Y-77704819D02*
X156714285Y-77704819D01*
X133007142Y-64859580D02*
X132959523Y-64907200D01*
X132959523Y-64907200D02*
X132816666Y-64954819D01*
X132816666Y-64954819D02*
X132721428Y-64954819D01*
X132721428Y-64954819D02*
X132578571Y-64907200D01*
X132578571Y-64907200D02*
X132483333Y-64811961D01*
X132483333Y-64811961D02*
X132435714Y-64716723D01*
X132435714Y-64716723D02*
X132388095Y-64526247D01*
X132388095Y-64526247D02*
X132388095Y-64383390D01*
X132388095Y-64383390D02*
X132435714Y-64192914D01*
X132435714Y-64192914D02*
X132483333Y-64097676D01*
X132483333Y-64097676D02*
X132578571Y-64002438D01*
X132578571Y-64002438D02*
X132721428Y-63954819D01*
X132721428Y-63954819D02*
X132816666Y-63954819D01*
X132816666Y-63954819D02*
X132959523Y-64002438D01*
X132959523Y-64002438D02*
X133007142Y-64050057D01*
X133959523Y-64954819D02*
X133388095Y-64954819D01*
X133673809Y-64954819D02*
X133673809Y-63954819D01*
X133673809Y-63954819D02*
X133578571Y-64097676D01*
X133578571Y-64097676D02*
X133483333Y-64192914D01*
X133483333Y-64192914D02*
X133388095Y-64240533D01*
X134816666Y-64288152D02*
X134816666Y-64954819D01*
X134578571Y-63907200D02*
X134340476Y-64621485D01*
X134340476Y-64621485D02*
X134959523Y-64621485D01*
X150038095Y-95006819D02*
X150609523Y-95006819D01*
X150323809Y-96006819D02*
X150323809Y-95006819D01*
X151085714Y-95435390D02*
X150990476Y-95387771D01*
X150990476Y-95387771D02*
X150942857Y-95340152D01*
X150942857Y-95340152D02*
X150895238Y-95244914D01*
X150895238Y-95244914D02*
X150895238Y-95197295D01*
X150895238Y-95197295D02*
X150942857Y-95102057D01*
X150942857Y-95102057D02*
X150990476Y-95054438D01*
X150990476Y-95054438D02*
X151085714Y-95006819D01*
X151085714Y-95006819D02*
X151276190Y-95006819D01*
X151276190Y-95006819D02*
X151371428Y-95054438D01*
X151371428Y-95054438D02*
X151419047Y-95102057D01*
X151419047Y-95102057D02*
X151466666Y-95197295D01*
X151466666Y-95197295D02*
X151466666Y-95244914D01*
X151466666Y-95244914D02*
X151419047Y-95340152D01*
X151419047Y-95340152D02*
X151371428Y-95387771D01*
X151371428Y-95387771D02*
X151276190Y-95435390D01*
X151276190Y-95435390D02*
X151085714Y-95435390D01*
X151085714Y-95435390D02*
X150990476Y-95483009D01*
X150990476Y-95483009D02*
X150942857Y-95530628D01*
X150942857Y-95530628D02*
X150895238Y-95625866D01*
X150895238Y-95625866D02*
X150895238Y-95816342D01*
X150895238Y-95816342D02*
X150942857Y-95911580D01*
X150942857Y-95911580D02*
X150990476Y-95959200D01*
X150990476Y-95959200D02*
X151085714Y-96006819D01*
X151085714Y-96006819D02*
X151276190Y-96006819D01*
X151276190Y-96006819D02*
X151371428Y-95959200D01*
X151371428Y-95959200D02*
X151419047Y-95911580D01*
X151419047Y-95911580D02*
X151466666Y-95816342D01*
X151466666Y-95816342D02*
X151466666Y-95625866D01*
X151466666Y-95625866D02*
X151419047Y-95530628D01*
X151419047Y-95530628D02*
X151371428Y-95483009D01*
X151371428Y-95483009D02*
X151276190Y-95435390D01*
X138195833Y-89359580D02*
X138148214Y-89407200D01*
X138148214Y-89407200D02*
X138005357Y-89454819D01*
X138005357Y-89454819D02*
X137910119Y-89454819D01*
X137910119Y-89454819D02*
X137767262Y-89407200D01*
X137767262Y-89407200D02*
X137672024Y-89311961D01*
X137672024Y-89311961D02*
X137624405Y-89216723D01*
X137624405Y-89216723D02*
X137576786Y-89026247D01*
X137576786Y-89026247D02*
X137576786Y-88883390D01*
X137576786Y-88883390D02*
X137624405Y-88692914D01*
X137624405Y-88692914D02*
X137672024Y-88597676D01*
X137672024Y-88597676D02*
X137767262Y-88502438D01*
X137767262Y-88502438D02*
X137910119Y-88454819D01*
X137910119Y-88454819D02*
X138005357Y-88454819D01*
X138005357Y-88454819D02*
X138148214Y-88502438D01*
X138148214Y-88502438D02*
X138195833Y-88550057D01*
X138529167Y-88454819D02*
X139195833Y-88454819D01*
X139195833Y-88454819D02*
X138767262Y-89454819D01*
X128761905Y-90454819D02*
X128761905Y-89454819D01*
X128761905Y-89454819D02*
X129000000Y-89454819D01*
X129000000Y-89454819D02*
X129142857Y-89502438D01*
X129142857Y-89502438D02*
X129238095Y-89597676D01*
X129238095Y-89597676D02*
X129285714Y-89692914D01*
X129285714Y-89692914D02*
X129333333Y-89883390D01*
X129333333Y-89883390D02*
X129333333Y-90026247D01*
X129333333Y-90026247D02*
X129285714Y-90216723D01*
X129285714Y-90216723D02*
X129238095Y-90311961D01*
X129238095Y-90311961D02*
X129142857Y-90407200D01*
X129142857Y-90407200D02*
X129000000Y-90454819D01*
X129000000Y-90454819D02*
X128761905Y-90454819D01*
X130285714Y-90454819D02*
X129714286Y-90454819D01*
X130000000Y-90454819D02*
X130000000Y-89454819D01*
X130000000Y-89454819D02*
X129904762Y-89597676D01*
X129904762Y-89597676D02*
X129809524Y-89692914D01*
X129809524Y-89692914D02*
X129714286Y-89740533D01*
D11*
X139957856Y-111824318D02*
X139957856Y-110554318D01*
X139957856Y-110554318D02*
X140441666Y-110554318D01*
X140441666Y-110554318D02*
X140562618Y-110614794D01*
X140562618Y-110614794D02*
X140623095Y-110675270D01*
X140623095Y-110675270D02*
X140683571Y-110796222D01*
X140683571Y-110796222D02*
X140683571Y-110977651D01*
X140683571Y-110977651D02*
X140623095Y-111098603D01*
X140623095Y-111098603D02*
X140562618Y-111159080D01*
X140562618Y-111159080D02*
X140441666Y-111219556D01*
X140441666Y-111219556D02*
X139957856Y-111219556D01*
X141167380Y-111763842D02*
X141348809Y-111824318D01*
X141348809Y-111824318D02*
X141651190Y-111824318D01*
X141651190Y-111824318D02*
X141772142Y-111763842D01*
X141772142Y-111763842D02*
X141832618Y-111703365D01*
X141832618Y-111703365D02*
X141893095Y-111582413D01*
X141893095Y-111582413D02*
X141893095Y-111461461D01*
X141893095Y-111461461D02*
X141832618Y-111340508D01*
X141832618Y-111340508D02*
X141772142Y-111280032D01*
X141772142Y-111280032D02*
X141651190Y-111219556D01*
X141651190Y-111219556D02*
X141409285Y-111159080D01*
X141409285Y-111159080D02*
X141288333Y-111098603D01*
X141288333Y-111098603D02*
X141227856Y-111038127D01*
X141227856Y-111038127D02*
X141167380Y-110917175D01*
X141167380Y-110917175D02*
X141167380Y-110796222D01*
X141167380Y-110796222D02*
X141227856Y-110675270D01*
X141227856Y-110675270D02*
X141288333Y-110614794D01*
X141288333Y-110614794D02*
X141409285Y-110554318D01*
X141409285Y-110554318D02*
X141711666Y-110554318D01*
X141711666Y-110554318D02*
X141893095Y-110614794D01*
X143102619Y-111824318D02*
X142376904Y-111824318D01*
X142739761Y-111824318D02*
X142739761Y-110554318D01*
X142739761Y-110554318D02*
X142618809Y-110735746D01*
X142618809Y-110735746D02*
X142497857Y-110856699D01*
X142497857Y-110856699D02*
X142376904Y-110917175D01*
D10*
X165333333Y-75554819D02*
X165000000Y-75078628D01*
X164761905Y-75554819D02*
X164761905Y-74554819D01*
X164761905Y-74554819D02*
X165142857Y-74554819D01*
X165142857Y-74554819D02*
X165238095Y-74602438D01*
X165238095Y-74602438D02*
X165285714Y-74650057D01*
X165285714Y-74650057D02*
X165333333Y-74745295D01*
X165333333Y-74745295D02*
X165333333Y-74888152D01*
X165333333Y-74888152D02*
X165285714Y-74983390D01*
X165285714Y-74983390D02*
X165238095Y-75031009D01*
X165238095Y-75031009D02*
X165142857Y-75078628D01*
X165142857Y-75078628D02*
X164761905Y-75078628D01*
X165714286Y-74650057D02*
X165761905Y-74602438D01*
X165761905Y-74602438D02*
X165857143Y-74554819D01*
X165857143Y-74554819D02*
X166095238Y-74554819D01*
X166095238Y-74554819D02*
X166190476Y-74602438D01*
X166190476Y-74602438D02*
X166238095Y-74650057D01*
X166238095Y-74650057D02*
X166285714Y-74745295D01*
X166285714Y-74745295D02*
X166285714Y-74840533D01*
X166285714Y-74840533D02*
X166238095Y-74983390D01*
X166238095Y-74983390D02*
X165666667Y-75554819D01*
X165666667Y-75554819D02*
X166285714Y-75554819D01*
X141011905Y-92454819D02*
X141011905Y-91454819D01*
X141011905Y-91454819D02*
X141250000Y-91454819D01*
X141250000Y-91454819D02*
X141392857Y-91502438D01*
X141392857Y-91502438D02*
X141488095Y-91597676D01*
X141488095Y-91597676D02*
X141535714Y-91692914D01*
X141535714Y-91692914D02*
X141583333Y-91883390D01*
X141583333Y-91883390D02*
X141583333Y-92026247D01*
X141583333Y-92026247D02*
X141535714Y-92216723D01*
X141535714Y-92216723D02*
X141488095Y-92311961D01*
X141488095Y-92311961D02*
X141392857Y-92407200D01*
X141392857Y-92407200D02*
X141250000Y-92454819D01*
X141250000Y-92454819D02*
X141011905Y-92454819D01*
X141964286Y-91550057D02*
X142011905Y-91502438D01*
X142011905Y-91502438D02*
X142107143Y-91454819D01*
X142107143Y-91454819D02*
X142345238Y-91454819D01*
X142345238Y-91454819D02*
X142440476Y-91502438D01*
X142440476Y-91502438D02*
X142488095Y-91550057D01*
X142488095Y-91550057D02*
X142535714Y-91645295D01*
X142535714Y-91645295D02*
X142535714Y-91740533D01*
X142535714Y-91740533D02*
X142488095Y-91883390D01*
X142488095Y-91883390D02*
X141916667Y-92454819D01*
X141916667Y-92454819D02*
X142535714Y-92454819D01*
X133007142Y-66609580D02*
X132959523Y-66657200D01*
X132959523Y-66657200D02*
X132816666Y-66704819D01*
X132816666Y-66704819D02*
X132721428Y-66704819D01*
X132721428Y-66704819D02*
X132578571Y-66657200D01*
X132578571Y-66657200D02*
X132483333Y-66561961D01*
X132483333Y-66561961D02*
X132435714Y-66466723D01*
X132435714Y-66466723D02*
X132388095Y-66276247D01*
X132388095Y-66276247D02*
X132388095Y-66133390D01*
X132388095Y-66133390D02*
X132435714Y-65942914D01*
X132435714Y-65942914D02*
X132483333Y-65847676D01*
X132483333Y-65847676D02*
X132578571Y-65752438D01*
X132578571Y-65752438D02*
X132721428Y-65704819D01*
X132721428Y-65704819D02*
X132816666Y-65704819D01*
X132816666Y-65704819D02*
X132959523Y-65752438D01*
X132959523Y-65752438D02*
X133007142Y-65800057D01*
X133959523Y-66704819D02*
X133388095Y-66704819D01*
X133673809Y-66704819D02*
X133673809Y-65704819D01*
X133673809Y-65704819D02*
X133578571Y-65847676D01*
X133578571Y-65847676D02*
X133483333Y-65942914D01*
X133483333Y-65942914D02*
X133388095Y-65990533D01*
X134864285Y-65704819D02*
X134388095Y-65704819D01*
X134388095Y-65704819D02*
X134340476Y-66181009D01*
X134340476Y-66181009D02*
X134388095Y-66133390D01*
X134388095Y-66133390D02*
X134483333Y-66085771D01*
X134483333Y-66085771D02*
X134721428Y-66085771D01*
X134721428Y-66085771D02*
X134816666Y-66133390D01*
X134816666Y-66133390D02*
X134864285Y-66181009D01*
X134864285Y-66181009D02*
X134911904Y-66276247D01*
X134911904Y-66276247D02*
X134911904Y-66514342D01*
X134911904Y-66514342D02*
X134864285Y-66609580D01*
X134864285Y-66609580D02*
X134816666Y-66657200D01*
X134816666Y-66657200D02*
X134721428Y-66704819D01*
X134721428Y-66704819D02*
X134483333Y-66704819D01*
X134483333Y-66704819D02*
X134388095Y-66657200D01*
X134388095Y-66657200D02*
X134340476Y-66609580D01*
X156438095Y-94806819D02*
X157009523Y-94806819D01*
X156723809Y-95806819D02*
X156723809Y-94806819D01*
X157247619Y-94806819D02*
X157914285Y-94806819D01*
X157914285Y-94806819D02*
X157485714Y-95806819D01*
D11*
X126576667Y-109014318D02*
X126576667Y-109921461D01*
X126576667Y-109921461D02*
X126516190Y-110102889D01*
X126516190Y-110102889D02*
X126395238Y-110223842D01*
X126395238Y-110223842D02*
X126213809Y-110284318D01*
X126213809Y-110284318D02*
X126092857Y-110284318D01*
X127846667Y-110284318D02*
X127120952Y-110284318D01*
X127483809Y-110284318D02*
X127483809Y-109014318D01*
X127483809Y-109014318D02*
X127362857Y-109195746D01*
X127362857Y-109195746D02*
X127241905Y-109316699D01*
X127241905Y-109316699D02*
X127120952Y-109377175D01*
D10*
X153488095Y-81054819D02*
X154059523Y-81054819D01*
X153773809Y-82054819D02*
X153773809Y-81054819D01*
X154869047Y-81054819D02*
X154392857Y-81054819D01*
X154392857Y-81054819D02*
X154345238Y-81531009D01*
X154345238Y-81531009D02*
X154392857Y-81483390D01*
X154392857Y-81483390D02*
X154488095Y-81435771D01*
X154488095Y-81435771D02*
X154726190Y-81435771D01*
X154726190Y-81435771D02*
X154821428Y-81483390D01*
X154821428Y-81483390D02*
X154869047Y-81531009D01*
X154869047Y-81531009D02*
X154916666Y-81626247D01*
X154916666Y-81626247D02*
X154916666Y-81864342D01*
X154916666Y-81864342D02*
X154869047Y-81959580D01*
X154869047Y-81959580D02*
X154821428Y-82007200D01*
X154821428Y-82007200D02*
X154726190Y-82054819D01*
X154726190Y-82054819D02*
X154488095Y-82054819D01*
X154488095Y-82054819D02*
X154392857Y-82007200D01*
X154392857Y-82007200D02*
X154345238Y-81959580D01*
X133733333Y-68454819D02*
X133400000Y-67978628D01*
X133161905Y-68454819D02*
X133161905Y-67454819D01*
X133161905Y-67454819D02*
X133542857Y-67454819D01*
X133542857Y-67454819D02*
X133638095Y-67502438D01*
X133638095Y-67502438D02*
X133685714Y-67550057D01*
X133685714Y-67550057D02*
X133733333Y-67645295D01*
X133733333Y-67645295D02*
X133733333Y-67788152D01*
X133733333Y-67788152D02*
X133685714Y-67883390D01*
X133685714Y-67883390D02*
X133638095Y-67931009D01*
X133638095Y-67931009D02*
X133542857Y-67978628D01*
X133542857Y-67978628D02*
X133161905Y-67978628D01*
X134638095Y-67454819D02*
X134161905Y-67454819D01*
X134161905Y-67454819D02*
X134114286Y-67931009D01*
X134114286Y-67931009D02*
X134161905Y-67883390D01*
X134161905Y-67883390D02*
X134257143Y-67835771D01*
X134257143Y-67835771D02*
X134495238Y-67835771D01*
X134495238Y-67835771D02*
X134590476Y-67883390D01*
X134590476Y-67883390D02*
X134638095Y-67931009D01*
X134638095Y-67931009D02*
X134685714Y-68026247D01*
X134685714Y-68026247D02*
X134685714Y-68264342D01*
X134685714Y-68264342D02*
X134638095Y-68359580D01*
X134638095Y-68359580D02*
X134590476Y-68407200D01*
X134590476Y-68407200D02*
X134495238Y-68454819D01*
X134495238Y-68454819D02*
X134257143Y-68454819D01*
X134257143Y-68454819D02*
X134161905Y-68407200D01*
X134161905Y-68407200D02*
X134114286Y-68359580D01*
X141083333Y-84859580D02*
X141035714Y-84907200D01*
X141035714Y-84907200D02*
X140892857Y-84954819D01*
X140892857Y-84954819D02*
X140797619Y-84954819D01*
X140797619Y-84954819D02*
X140654762Y-84907200D01*
X140654762Y-84907200D02*
X140559524Y-84811961D01*
X140559524Y-84811961D02*
X140511905Y-84716723D01*
X140511905Y-84716723D02*
X140464286Y-84526247D01*
X140464286Y-84526247D02*
X140464286Y-84383390D01*
X140464286Y-84383390D02*
X140511905Y-84192914D01*
X140511905Y-84192914D02*
X140559524Y-84097676D01*
X140559524Y-84097676D02*
X140654762Y-84002438D01*
X140654762Y-84002438D02*
X140797619Y-83954819D01*
X140797619Y-83954819D02*
X140892857Y-83954819D01*
X140892857Y-83954819D02*
X141035714Y-84002438D01*
X141035714Y-84002438D02*
X141083333Y-84050057D01*
X141416667Y-83954819D02*
X142035714Y-83954819D01*
X142035714Y-83954819D02*
X141702381Y-84335771D01*
X141702381Y-84335771D02*
X141845238Y-84335771D01*
X141845238Y-84335771D02*
X141940476Y-84383390D01*
X141940476Y-84383390D02*
X141988095Y-84431009D01*
X141988095Y-84431009D02*
X142035714Y-84526247D01*
X142035714Y-84526247D02*
X142035714Y-84764342D01*
X142035714Y-84764342D02*
X141988095Y-84859580D01*
X141988095Y-84859580D02*
X141940476Y-84907200D01*
X141940476Y-84907200D02*
X141845238Y-84954819D01*
X141845238Y-84954819D02*
X141559524Y-84954819D01*
X141559524Y-84954819D02*
X141464286Y-84907200D01*
X141464286Y-84907200D02*
X141416667Y-84859580D01*
X148238095Y-70704819D02*
X148809523Y-70704819D01*
X148523809Y-71704819D02*
X148523809Y-70704819D01*
X149190476Y-71704819D02*
X149380952Y-71704819D01*
X149380952Y-71704819D02*
X149476190Y-71657200D01*
X149476190Y-71657200D02*
X149523809Y-71609580D01*
X149523809Y-71609580D02*
X149619047Y-71466723D01*
X149619047Y-71466723D02*
X149666666Y-71276247D01*
X149666666Y-71276247D02*
X149666666Y-70895295D01*
X149666666Y-70895295D02*
X149619047Y-70800057D01*
X149619047Y-70800057D02*
X149571428Y-70752438D01*
X149571428Y-70752438D02*
X149476190Y-70704819D01*
X149476190Y-70704819D02*
X149285714Y-70704819D01*
X149285714Y-70704819D02*
X149190476Y-70752438D01*
X149190476Y-70752438D02*
X149142857Y-70800057D01*
X149142857Y-70800057D02*
X149095238Y-70895295D01*
X149095238Y-70895295D02*
X149095238Y-71133390D01*
X149095238Y-71133390D02*
X149142857Y-71228628D01*
X149142857Y-71228628D02*
X149190476Y-71276247D01*
X149190476Y-71276247D02*
X149285714Y-71323866D01*
X149285714Y-71323866D02*
X149476190Y-71323866D01*
X149476190Y-71323866D02*
X149571428Y-71276247D01*
X149571428Y-71276247D02*
X149619047Y-71228628D01*
X149619047Y-71228628D02*
X149666666Y-71133390D01*
X169583333Y-84959580D02*
X169535714Y-85007200D01*
X169535714Y-85007200D02*
X169392857Y-85054819D01*
X169392857Y-85054819D02*
X169297619Y-85054819D01*
X169297619Y-85054819D02*
X169154762Y-85007200D01*
X169154762Y-85007200D02*
X169059524Y-84911961D01*
X169059524Y-84911961D02*
X169011905Y-84816723D01*
X169011905Y-84816723D02*
X168964286Y-84626247D01*
X168964286Y-84626247D02*
X168964286Y-84483390D01*
X168964286Y-84483390D02*
X169011905Y-84292914D01*
X169011905Y-84292914D02*
X169059524Y-84197676D01*
X169059524Y-84197676D02*
X169154762Y-84102438D01*
X169154762Y-84102438D02*
X169297619Y-84054819D01*
X169297619Y-84054819D02*
X169392857Y-84054819D01*
X169392857Y-84054819D02*
X169535714Y-84102438D01*
X169535714Y-84102438D02*
X169583333Y-84150057D01*
X169964286Y-84150057D02*
X170011905Y-84102438D01*
X170011905Y-84102438D02*
X170107143Y-84054819D01*
X170107143Y-84054819D02*
X170345238Y-84054819D01*
X170345238Y-84054819D02*
X170440476Y-84102438D01*
X170440476Y-84102438D02*
X170488095Y-84150057D01*
X170488095Y-84150057D02*
X170535714Y-84245295D01*
X170535714Y-84245295D02*
X170535714Y-84340533D01*
X170535714Y-84340533D02*
X170488095Y-84483390D01*
X170488095Y-84483390D02*
X169916667Y-85054819D01*
X169916667Y-85054819D02*
X170535714Y-85054819D01*
X137511905Y-73454819D02*
X138083333Y-73454819D01*
X137797619Y-74454819D02*
X137797619Y-73454819D01*
X138940476Y-74454819D02*
X138369048Y-74454819D01*
X138654762Y-74454819D02*
X138654762Y-73454819D01*
X138654762Y-73454819D02*
X138559524Y-73597676D01*
X138559524Y-73597676D02*
X138464286Y-73692914D01*
X138464286Y-73692914D02*
X138369048Y-73740533D01*
X139559524Y-73454819D02*
X139654762Y-73454819D01*
X139654762Y-73454819D02*
X139750000Y-73502438D01*
X139750000Y-73502438D02*
X139797619Y-73550057D01*
X139797619Y-73550057D02*
X139845238Y-73645295D01*
X139845238Y-73645295D02*
X139892857Y-73835771D01*
X139892857Y-73835771D02*
X139892857Y-74073866D01*
X139892857Y-74073866D02*
X139845238Y-74264342D01*
X139845238Y-74264342D02*
X139797619Y-74359580D01*
X139797619Y-74359580D02*
X139750000Y-74407200D01*
X139750000Y-74407200D02*
X139654762Y-74454819D01*
X139654762Y-74454819D02*
X139559524Y-74454819D01*
X139559524Y-74454819D02*
X139464286Y-74407200D01*
X139464286Y-74407200D02*
X139416667Y-74359580D01*
X139416667Y-74359580D02*
X139369048Y-74264342D01*
X139369048Y-74264342D02*
X139321429Y-74073866D01*
X139321429Y-74073866D02*
X139321429Y-73835771D01*
X139321429Y-73835771D02*
X139369048Y-73645295D01*
X139369048Y-73645295D02*
X139416667Y-73550057D01*
X139416667Y-73550057D02*
X139464286Y-73502438D01*
X139464286Y-73502438D02*
X139559524Y-73454819D01*
X134083333Y-84859580D02*
X134035714Y-84907200D01*
X134035714Y-84907200D02*
X133892857Y-84954819D01*
X133892857Y-84954819D02*
X133797619Y-84954819D01*
X133797619Y-84954819D02*
X133654762Y-84907200D01*
X133654762Y-84907200D02*
X133559524Y-84811961D01*
X133559524Y-84811961D02*
X133511905Y-84716723D01*
X133511905Y-84716723D02*
X133464286Y-84526247D01*
X133464286Y-84526247D02*
X133464286Y-84383390D01*
X133464286Y-84383390D02*
X133511905Y-84192914D01*
X133511905Y-84192914D02*
X133559524Y-84097676D01*
X133559524Y-84097676D02*
X133654762Y-84002438D01*
X133654762Y-84002438D02*
X133797619Y-83954819D01*
X133797619Y-83954819D02*
X133892857Y-83954819D01*
X133892857Y-83954819D02*
X134035714Y-84002438D01*
X134035714Y-84002438D02*
X134083333Y-84050057D01*
X134940476Y-83954819D02*
X134750000Y-83954819D01*
X134750000Y-83954819D02*
X134654762Y-84002438D01*
X134654762Y-84002438D02*
X134607143Y-84050057D01*
X134607143Y-84050057D02*
X134511905Y-84192914D01*
X134511905Y-84192914D02*
X134464286Y-84383390D01*
X134464286Y-84383390D02*
X134464286Y-84764342D01*
X134464286Y-84764342D02*
X134511905Y-84859580D01*
X134511905Y-84859580D02*
X134559524Y-84907200D01*
X134559524Y-84907200D02*
X134654762Y-84954819D01*
X134654762Y-84954819D02*
X134845238Y-84954819D01*
X134845238Y-84954819D02*
X134940476Y-84907200D01*
X134940476Y-84907200D02*
X134988095Y-84859580D01*
X134988095Y-84859580D02*
X135035714Y-84764342D01*
X135035714Y-84764342D02*
X135035714Y-84526247D01*
X135035714Y-84526247D02*
X134988095Y-84431009D01*
X134988095Y-84431009D02*
X134940476Y-84383390D01*
X134940476Y-84383390D02*
X134845238Y-84335771D01*
X134845238Y-84335771D02*
X134654762Y-84335771D01*
X134654762Y-84335771D02*
X134559524Y-84383390D01*
X134559524Y-84383390D02*
X134511905Y-84431009D01*
X134511905Y-84431009D02*
X134464286Y-84526247D01*
X171583333Y-84959580D02*
X171535714Y-85007200D01*
X171535714Y-85007200D02*
X171392857Y-85054819D01*
X171392857Y-85054819D02*
X171297619Y-85054819D01*
X171297619Y-85054819D02*
X171154762Y-85007200D01*
X171154762Y-85007200D02*
X171059524Y-84911961D01*
X171059524Y-84911961D02*
X171011905Y-84816723D01*
X171011905Y-84816723D02*
X170964286Y-84626247D01*
X170964286Y-84626247D02*
X170964286Y-84483390D01*
X170964286Y-84483390D02*
X171011905Y-84292914D01*
X171011905Y-84292914D02*
X171059524Y-84197676D01*
X171059524Y-84197676D02*
X171154762Y-84102438D01*
X171154762Y-84102438D02*
X171297619Y-84054819D01*
X171297619Y-84054819D02*
X171392857Y-84054819D01*
X171392857Y-84054819D02*
X171535714Y-84102438D01*
X171535714Y-84102438D02*
X171583333Y-84150057D01*
X172535714Y-85054819D02*
X171964286Y-85054819D01*
X172250000Y-85054819D02*
X172250000Y-84054819D01*
X172250000Y-84054819D02*
X172154762Y-84197676D01*
X172154762Y-84197676D02*
X172059524Y-84292914D01*
X172059524Y-84292914D02*
X171964286Y-84340533D01*
X125988095Y-92454819D02*
X126559523Y-92454819D01*
X126273809Y-93454819D02*
X126273809Y-92454819D01*
X127416666Y-93454819D02*
X126845238Y-93454819D01*
X127130952Y-93454819D02*
X127130952Y-92454819D01*
X127130952Y-92454819D02*
X127035714Y-92597676D01*
X127035714Y-92597676D02*
X126940476Y-92692914D01*
X126940476Y-92692914D02*
X126845238Y-92740533D01*
X163583333Y-74209580D02*
X163535714Y-74257200D01*
X163535714Y-74257200D02*
X163392857Y-74304819D01*
X163392857Y-74304819D02*
X163297619Y-74304819D01*
X163297619Y-74304819D02*
X163154762Y-74257200D01*
X163154762Y-74257200D02*
X163059524Y-74161961D01*
X163059524Y-74161961D02*
X163011905Y-74066723D01*
X163011905Y-74066723D02*
X162964286Y-73876247D01*
X162964286Y-73876247D02*
X162964286Y-73733390D01*
X162964286Y-73733390D02*
X163011905Y-73542914D01*
X163011905Y-73542914D02*
X163059524Y-73447676D01*
X163059524Y-73447676D02*
X163154762Y-73352438D01*
X163154762Y-73352438D02*
X163297619Y-73304819D01*
X163297619Y-73304819D02*
X163392857Y-73304819D01*
X163392857Y-73304819D02*
X163535714Y-73352438D01*
X163535714Y-73352438D02*
X163583333Y-73400057D01*
X164154762Y-73733390D02*
X164059524Y-73685771D01*
X164059524Y-73685771D02*
X164011905Y-73638152D01*
X164011905Y-73638152D02*
X163964286Y-73542914D01*
X163964286Y-73542914D02*
X163964286Y-73495295D01*
X163964286Y-73495295D02*
X164011905Y-73400057D01*
X164011905Y-73400057D02*
X164059524Y-73352438D01*
X164059524Y-73352438D02*
X164154762Y-73304819D01*
X164154762Y-73304819D02*
X164345238Y-73304819D01*
X164345238Y-73304819D02*
X164440476Y-73352438D01*
X164440476Y-73352438D02*
X164488095Y-73400057D01*
X164488095Y-73400057D02*
X164535714Y-73495295D01*
X164535714Y-73495295D02*
X164535714Y-73542914D01*
X164535714Y-73542914D02*
X164488095Y-73638152D01*
X164488095Y-73638152D02*
X164440476Y-73685771D01*
X164440476Y-73685771D02*
X164345238Y-73733390D01*
X164345238Y-73733390D02*
X164154762Y-73733390D01*
X164154762Y-73733390D02*
X164059524Y-73781009D01*
X164059524Y-73781009D02*
X164011905Y-73828628D01*
X164011905Y-73828628D02*
X163964286Y-73923866D01*
X163964286Y-73923866D02*
X163964286Y-74114342D01*
X163964286Y-74114342D02*
X164011905Y-74209580D01*
X164011905Y-74209580D02*
X164059524Y-74257200D01*
X164059524Y-74257200D02*
X164154762Y-74304819D01*
X164154762Y-74304819D02*
X164345238Y-74304819D01*
X164345238Y-74304819D02*
X164440476Y-74257200D01*
X164440476Y-74257200D02*
X164488095Y-74209580D01*
X164488095Y-74209580D02*
X164535714Y-74114342D01*
X164535714Y-74114342D02*
X164535714Y-73923866D01*
X164535714Y-73923866D02*
X164488095Y-73828628D01*
X164488095Y-73828628D02*
X164440476Y-73781009D01*
X164440476Y-73781009D02*
X164345238Y-73733390D01*
X165988095Y-71256819D02*
X166559523Y-71256819D01*
X166273809Y-72256819D02*
X166273809Y-71256819D01*
X167321428Y-71590152D02*
X167321428Y-72256819D01*
X167083333Y-71209200D02*
X166845238Y-71923485D01*
X166845238Y-71923485D02*
X167464285Y-71923485D01*
X159583333Y-74304819D02*
X159250000Y-73828628D01*
X159011905Y-74304819D02*
X159011905Y-73304819D01*
X159011905Y-73304819D02*
X159392857Y-73304819D01*
X159392857Y-73304819D02*
X159488095Y-73352438D01*
X159488095Y-73352438D02*
X159535714Y-73400057D01*
X159535714Y-73400057D02*
X159583333Y-73495295D01*
X159583333Y-73495295D02*
X159583333Y-73638152D01*
X159583333Y-73638152D02*
X159535714Y-73733390D01*
X159535714Y-73733390D02*
X159488095Y-73781009D01*
X159488095Y-73781009D02*
X159392857Y-73828628D01*
X159392857Y-73828628D02*
X159011905Y-73828628D01*
X160440476Y-73638152D02*
X160440476Y-74304819D01*
X160202381Y-73257200D02*
X159964286Y-73971485D01*
X159964286Y-73971485D02*
X160583333Y-73971485D01*
X161357142Y-100609580D02*
X161309523Y-100657200D01*
X161309523Y-100657200D02*
X161166666Y-100704819D01*
X161166666Y-100704819D02*
X161071428Y-100704819D01*
X161071428Y-100704819D02*
X160928571Y-100657200D01*
X160928571Y-100657200D02*
X160833333Y-100561961D01*
X160833333Y-100561961D02*
X160785714Y-100466723D01*
X160785714Y-100466723D02*
X160738095Y-100276247D01*
X160738095Y-100276247D02*
X160738095Y-100133390D01*
X160738095Y-100133390D02*
X160785714Y-99942914D01*
X160785714Y-99942914D02*
X160833333Y-99847676D01*
X160833333Y-99847676D02*
X160928571Y-99752438D01*
X160928571Y-99752438D02*
X161071428Y-99704819D01*
X161071428Y-99704819D02*
X161166666Y-99704819D01*
X161166666Y-99704819D02*
X161309523Y-99752438D01*
X161309523Y-99752438D02*
X161357142Y-99800057D01*
X162309523Y-100704819D02*
X161738095Y-100704819D01*
X162023809Y-100704819D02*
X162023809Y-99704819D01*
X162023809Y-99704819D02*
X161928571Y-99847676D01*
X161928571Y-99847676D02*
X161833333Y-99942914D01*
X161833333Y-99942914D02*
X161738095Y-99990533D01*
X162690476Y-99800057D02*
X162738095Y-99752438D01*
X162738095Y-99752438D02*
X162833333Y-99704819D01*
X162833333Y-99704819D02*
X163071428Y-99704819D01*
X163071428Y-99704819D02*
X163166666Y-99752438D01*
X163166666Y-99752438D02*
X163214285Y-99800057D01*
X163214285Y-99800057D02*
X163261904Y-99895295D01*
X163261904Y-99895295D02*
X163261904Y-99990533D01*
X163261904Y-99990533D02*
X163214285Y-100133390D01*
X163214285Y-100133390D02*
X162642857Y-100704819D01*
X162642857Y-100704819D02*
X163261904Y-100704819D01*
X142488095Y-70204819D02*
X142488095Y-71014342D01*
X142488095Y-71014342D02*
X142535714Y-71109580D01*
X142535714Y-71109580D02*
X142583333Y-71157200D01*
X142583333Y-71157200D02*
X142678571Y-71204819D01*
X142678571Y-71204819D02*
X142869047Y-71204819D01*
X142869047Y-71204819D02*
X142964285Y-71157200D01*
X142964285Y-71157200D02*
X143011904Y-71109580D01*
X143011904Y-71109580D02*
X143059523Y-71014342D01*
X143059523Y-71014342D02*
X143059523Y-70204819D01*
X143488095Y-70300057D02*
X143535714Y-70252438D01*
X143535714Y-70252438D02*
X143630952Y-70204819D01*
X143630952Y-70204819D02*
X143869047Y-70204819D01*
X143869047Y-70204819D02*
X143964285Y-70252438D01*
X143964285Y-70252438D02*
X144011904Y-70300057D01*
X144011904Y-70300057D02*
X144059523Y-70395295D01*
X144059523Y-70395295D02*
X144059523Y-70490533D01*
X144059523Y-70490533D02*
X144011904Y-70633390D01*
X144011904Y-70633390D02*
X143440476Y-71204819D01*
X143440476Y-71204819D02*
X144059523Y-71204819D01*
X129738095Y-86204819D02*
X130309523Y-86204819D01*
X130023809Y-87204819D02*
X130023809Y-86204819D01*
X130547619Y-86204819D02*
X131166666Y-86204819D01*
X131166666Y-86204819D02*
X130833333Y-86585771D01*
X130833333Y-86585771D02*
X130976190Y-86585771D01*
X130976190Y-86585771D02*
X131071428Y-86633390D01*
X131071428Y-86633390D02*
X131119047Y-86681009D01*
X131119047Y-86681009D02*
X131166666Y-86776247D01*
X131166666Y-86776247D02*
X131166666Y-87014342D01*
X131166666Y-87014342D02*
X131119047Y-87109580D01*
X131119047Y-87109580D02*
X131071428Y-87157200D01*
X131071428Y-87157200D02*
X130976190Y-87204819D01*
X130976190Y-87204819D02*
X130690476Y-87204819D01*
X130690476Y-87204819D02*
X130595238Y-87157200D01*
X130595238Y-87157200D02*
X130547619Y-87109580D01*
D11*
X121326667Y-111304318D02*
X121326667Y-112211461D01*
X121326667Y-112211461D02*
X121266190Y-112392889D01*
X121266190Y-112392889D02*
X121145238Y-112513842D01*
X121145238Y-112513842D02*
X120963809Y-112574318D01*
X120963809Y-112574318D02*
X120842857Y-112574318D01*
X121870952Y-111425270D02*
X121931428Y-111364794D01*
X121931428Y-111364794D02*
X122052381Y-111304318D01*
X122052381Y-111304318D02*
X122354762Y-111304318D01*
X122354762Y-111304318D02*
X122475714Y-111364794D01*
X122475714Y-111364794D02*
X122536190Y-111425270D01*
X122536190Y-111425270D02*
X122596667Y-111546222D01*
X122596667Y-111546222D02*
X122596667Y-111667175D01*
X122596667Y-111667175D02*
X122536190Y-111848603D01*
X122536190Y-111848603D02*
X121810476Y-112574318D01*
X121810476Y-112574318D02*
X122596667Y-112574318D01*
D10*
X152757142Y-64609580D02*
X152709523Y-64657200D01*
X152709523Y-64657200D02*
X152566666Y-64704819D01*
X152566666Y-64704819D02*
X152471428Y-64704819D01*
X152471428Y-64704819D02*
X152328571Y-64657200D01*
X152328571Y-64657200D02*
X152233333Y-64561961D01*
X152233333Y-64561961D02*
X152185714Y-64466723D01*
X152185714Y-64466723D02*
X152138095Y-64276247D01*
X152138095Y-64276247D02*
X152138095Y-64133390D01*
X152138095Y-64133390D02*
X152185714Y-63942914D01*
X152185714Y-63942914D02*
X152233333Y-63847676D01*
X152233333Y-63847676D02*
X152328571Y-63752438D01*
X152328571Y-63752438D02*
X152471428Y-63704819D01*
X152471428Y-63704819D02*
X152566666Y-63704819D01*
X152566666Y-63704819D02*
X152709523Y-63752438D01*
X152709523Y-63752438D02*
X152757142Y-63800057D01*
X153709523Y-64704819D02*
X153138095Y-64704819D01*
X153423809Y-64704819D02*
X153423809Y-63704819D01*
X153423809Y-63704819D02*
X153328571Y-63847676D01*
X153328571Y-63847676D02*
X153233333Y-63942914D01*
X153233333Y-63942914D02*
X153138095Y-63990533D01*
X154328571Y-63704819D02*
X154423809Y-63704819D01*
X154423809Y-63704819D02*
X154519047Y-63752438D01*
X154519047Y-63752438D02*
X154566666Y-63800057D01*
X154566666Y-63800057D02*
X154614285Y-63895295D01*
X154614285Y-63895295D02*
X154661904Y-64085771D01*
X154661904Y-64085771D02*
X154661904Y-64323866D01*
X154661904Y-64323866D02*
X154614285Y-64514342D01*
X154614285Y-64514342D02*
X154566666Y-64609580D01*
X154566666Y-64609580D02*
X154519047Y-64657200D01*
X154519047Y-64657200D02*
X154423809Y-64704819D01*
X154423809Y-64704819D02*
X154328571Y-64704819D01*
X154328571Y-64704819D02*
X154233333Y-64657200D01*
X154233333Y-64657200D02*
X154185714Y-64609580D01*
X154185714Y-64609580D02*
X154138095Y-64514342D01*
X154138095Y-64514342D02*
X154090476Y-64323866D01*
X154090476Y-64323866D02*
X154090476Y-64085771D01*
X154090476Y-64085771D02*
X154138095Y-63895295D01*
X154138095Y-63895295D02*
X154185714Y-63800057D01*
X154185714Y-63800057D02*
X154233333Y-63752438D01*
X154233333Y-63752438D02*
X154328571Y-63704819D01*
X148857142Y-100609580D02*
X148809523Y-100657200D01*
X148809523Y-100657200D02*
X148666666Y-100704819D01*
X148666666Y-100704819D02*
X148571428Y-100704819D01*
X148571428Y-100704819D02*
X148428571Y-100657200D01*
X148428571Y-100657200D02*
X148333333Y-100561961D01*
X148333333Y-100561961D02*
X148285714Y-100466723D01*
X148285714Y-100466723D02*
X148238095Y-100276247D01*
X148238095Y-100276247D02*
X148238095Y-100133390D01*
X148238095Y-100133390D02*
X148285714Y-99942914D01*
X148285714Y-99942914D02*
X148333333Y-99847676D01*
X148333333Y-99847676D02*
X148428571Y-99752438D01*
X148428571Y-99752438D02*
X148571428Y-99704819D01*
X148571428Y-99704819D02*
X148666666Y-99704819D01*
X148666666Y-99704819D02*
X148809523Y-99752438D01*
X148809523Y-99752438D02*
X148857142Y-99800057D01*
X149809523Y-100704819D02*
X149238095Y-100704819D01*
X149523809Y-100704819D02*
X149523809Y-99704819D01*
X149523809Y-99704819D02*
X149428571Y-99847676D01*
X149428571Y-99847676D02*
X149333333Y-99942914D01*
X149333333Y-99942914D02*
X149238095Y-99990533D01*
X150142857Y-99704819D02*
X150761904Y-99704819D01*
X150761904Y-99704819D02*
X150428571Y-100085771D01*
X150428571Y-100085771D02*
X150571428Y-100085771D01*
X150571428Y-100085771D02*
X150666666Y-100133390D01*
X150666666Y-100133390D02*
X150714285Y-100181009D01*
X150714285Y-100181009D02*
X150761904Y-100276247D01*
X150761904Y-100276247D02*
X150761904Y-100514342D01*
X150761904Y-100514342D02*
X150714285Y-100609580D01*
X150714285Y-100609580D02*
X150666666Y-100657200D01*
X150666666Y-100657200D02*
X150571428Y-100704819D01*
X150571428Y-100704819D02*
X150285714Y-100704819D01*
X150285714Y-100704819D02*
X150190476Y-100657200D01*
X150190476Y-100657200D02*
X150142857Y-100609580D01*
X175488095Y-82154819D02*
X176059523Y-82154819D01*
X175773809Y-83154819D02*
X175773809Y-82154819D01*
X176345238Y-82250057D02*
X176392857Y-82202438D01*
X176392857Y-82202438D02*
X176488095Y-82154819D01*
X176488095Y-82154819D02*
X176726190Y-82154819D01*
X176726190Y-82154819D02*
X176821428Y-82202438D01*
X176821428Y-82202438D02*
X176869047Y-82250057D01*
X176869047Y-82250057D02*
X176916666Y-82345295D01*
X176916666Y-82345295D02*
X176916666Y-82440533D01*
X176916666Y-82440533D02*
X176869047Y-82583390D01*
X176869047Y-82583390D02*
X176297619Y-83154819D01*
X176297619Y-83154819D02*
X176916666Y-83154819D01*
X167333333Y-75554819D02*
X167000000Y-75078628D01*
X166761905Y-75554819D02*
X166761905Y-74554819D01*
X166761905Y-74554819D02*
X167142857Y-74554819D01*
X167142857Y-74554819D02*
X167238095Y-74602438D01*
X167238095Y-74602438D02*
X167285714Y-74650057D01*
X167285714Y-74650057D02*
X167333333Y-74745295D01*
X167333333Y-74745295D02*
X167333333Y-74888152D01*
X167333333Y-74888152D02*
X167285714Y-74983390D01*
X167285714Y-74983390D02*
X167238095Y-75031009D01*
X167238095Y-75031009D02*
X167142857Y-75078628D01*
X167142857Y-75078628D02*
X166761905Y-75078628D01*
X167666667Y-74554819D02*
X168285714Y-74554819D01*
X168285714Y-74554819D02*
X167952381Y-74935771D01*
X167952381Y-74935771D02*
X168095238Y-74935771D01*
X168095238Y-74935771D02*
X168190476Y-74983390D01*
X168190476Y-74983390D02*
X168238095Y-75031009D01*
X168238095Y-75031009D02*
X168285714Y-75126247D01*
X168285714Y-75126247D02*
X168285714Y-75364342D01*
X168285714Y-75364342D02*
X168238095Y-75459580D01*
X168238095Y-75459580D02*
X168190476Y-75507200D01*
X168190476Y-75507200D02*
X168095238Y-75554819D01*
X168095238Y-75554819D02*
X167809524Y-75554819D01*
X167809524Y-75554819D02*
X167714286Y-75507200D01*
X167714286Y-75507200D02*
X167666667Y-75459580D01*
X133161905Y-70204819D02*
X133161905Y-69204819D01*
X133161905Y-69204819D02*
X133400000Y-69204819D01*
X133400000Y-69204819D02*
X133542857Y-69252438D01*
X133542857Y-69252438D02*
X133638095Y-69347676D01*
X133638095Y-69347676D02*
X133685714Y-69442914D01*
X133685714Y-69442914D02*
X133733333Y-69633390D01*
X133733333Y-69633390D02*
X133733333Y-69776247D01*
X133733333Y-69776247D02*
X133685714Y-69966723D01*
X133685714Y-69966723D02*
X133638095Y-70061961D01*
X133638095Y-70061961D02*
X133542857Y-70157200D01*
X133542857Y-70157200D02*
X133400000Y-70204819D01*
X133400000Y-70204819D02*
X133161905Y-70204819D01*
X134590476Y-69538152D02*
X134590476Y-70204819D01*
X134352381Y-69157200D02*
X134114286Y-69871485D01*
X134114286Y-69871485D02*
X134733333Y-69871485D01*
X155261905Y-72704819D02*
X155261905Y-71704819D01*
X155261905Y-71704819D02*
X155500000Y-71704819D01*
X155500000Y-71704819D02*
X155642857Y-71752438D01*
X155642857Y-71752438D02*
X155738095Y-71847676D01*
X155738095Y-71847676D02*
X155785714Y-71942914D01*
X155785714Y-71942914D02*
X155833333Y-72133390D01*
X155833333Y-72133390D02*
X155833333Y-72276247D01*
X155833333Y-72276247D02*
X155785714Y-72466723D01*
X155785714Y-72466723D02*
X155738095Y-72561961D01*
X155738095Y-72561961D02*
X155642857Y-72657200D01*
X155642857Y-72657200D02*
X155500000Y-72704819D01*
X155500000Y-72704819D02*
X155261905Y-72704819D01*
X156166667Y-71704819D02*
X156785714Y-71704819D01*
X156785714Y-71704819D02*
X156452381Y-72085771D01*
X156452381Y-72085771D02*
X156595238Y-72085771D01*
X156595238Y-72085771D02*
X156690476Y-72133390D01*
X156690476Y-72133390D02*
X156738095Y-72181009D01*
X156738095Y-72181009D02*
X156785714Y-72276247D01*
X156785714Y-72276247D02*
X156785714Y-72514342D01*
X156785714Y-72514342D02*
X156738095Y-72609580D01*
X156738095Y-72609580D02*
X156690476Y-72657200D01*
X156690476Y-72657200D02*
X156595238Y-72704819D01*
X156595238Y-72704819D02*
X156309524Y-72704819D01*
X156309524Y-72704819D02*
X156214286Y-72657200D01*
X156214286Y-72657200D02*
X156166667Y-72609580D01*
X146488095Y-57704819D02*
X147059523Y-57704819D01*
X146773809Y-58704819D02*
X146773809Y-57704819D01*
X147821428Y-57704819D02*
X147630952Y-57704819D01*
X147630952Y-57704819D02*
X147535714Y-57752438D01*
X147535714Y-57752438D02*
X147488095Y-57800057D01*
X147488095Y-57800057D02*
X147392857Y-57942914D01*
X147392857Y-57942914D02*
X147345238Y-58133390D01*
X147345238Y-58133390D02*
X147345238Y-58514342D01*
X147345238Y-58514342D02*
X147392857Y-58609580D01*
X147392857Y-58609580D02*
X147440476Y-58657200D01*
X147440476Y-58657200D02*
X147535714Y-58704819D01*
X147535714Y-58704819D02*
X147726190Y-58704819D01*
X147726190Y-58704819D02*
X147821428Y-58657200D01*
X147821428Y-58657200D02*
X147869047Y-58609580D01*
X147869047Y-58609580D02*
X147916666Y-58514342D01*
X147916666Y-58514342D02*
X147916666Y-58276247D01*
X147916666Y-58276247D02*
X147869047Y-58181009D01*
X147869047Y-58181009D02*
X147821428Y-58133390D01*
X147821428Y-58133390D02*
X147726190Y-58085771D01*
X147726190Y-58085771D02*
X147535714Y-58085771D01*
X147535714Y-58085771D02*
X147440476Y-58133390D01*
X147440476Y-58133390D02*
X147392857Y-58181009D01*
X147392857Y-58181009D02*
X147345238Y-58276247D01*
D12*
%TO.C,U1*%
X165190000Y-80940000D02*
X165240000Y-80940000D01*
X165190000Y-82760000D02*
X165190000Y-80940000D01*
X165240000Y-82760000D02*
X165190000Y-82760000D01*
X168260000Y-80940000D02*
X168310000Y-80940000D01*
X168310000Y-80940000D02*
X168310000Y-82760000D01*
X168310000Y-82760000D02*
X168260000Y-82760000D01*
X165240000Y-83300000D02*
X164910000Y-83540000D01*
X164910000Y-83060000D01*
X165240000Y-83300000D01*
G36*
X165240000Y-83300000D02*
G01*
X164910000Y-83540000D01*
X164910000Y-83060000D01*
X165240000Y-83300000D01*
G37*
%TO.C,C4*%
X147853733Y-88240000D02*
X148146267Y-88240000D01*
X147853733Y-89260000D02*
X148146267Y-89260000D01*
%TO.C,F3*%
X136790000Y-61511252D02*
X136790000Y-60988748D01*
X138210000Y-61511252D02*
X138210000Y-60988748D01*
%TO.C,C9*%
X161240000Y-76496267D02*
X161240000Y-76203733D01*
X162260000Y-76496267D02*
X162260000Y-76203733D01*
D13*
%TO.C,J3*%
X179020000Y-51105000D02*
X184020000Y-51105000D01*
X179020000Y-109775000D02*
X179020000Y-51105000D01*
D14*
X180250000Y-50500000D02*
X180250000Y-50500000D01*
X180250000Y-50600000D02*
X180250000Y-50600000D01*
D13*
X184020000Y-51105000D02*
X184020000Y-109775000D01*
X184020000Y-109775000D02*
X179020000Y-109775000D01*
D14*
X180250000Y-50500000D02*
G75*
G02*
X180250000Y-50600000I0J-50000D01*
G01*
X180250000Y-50600000D02*
G75*
G02*
X180250000Y-50500000I0J50000D01*
G01*
D12*
%TO.C,C11*%
X149853733Y-61990000D02*
X150146267Y-61990000D01*
X149853733Y-63010000D02*
X150146267Y-63010000D01*
%TO.C,C5*%
X163490000Y-81996267D02*
X163490000Y-81703733D01*
X164510000Y-81996267D02*
X164510000Y-81703733D01*
%TO.C,R1*%
X138592224Y-94727500D02*
X138082776Y-94727500D01*
X138592224Y-95772500D02*
X138082776Y-95772500D01*
%TO.C,Q1*%
X135202500Y-90490000D02*
X137022500Y-90490000D01*
X135202500Y-91490000D02*
X135202500Y-90490000D01*
X135202500Y-93610000D02*
X135202500Y-92610000D01*
X137022500Y-90490000D02*
X137022500Y-90540000D01*
X137022500Y-91660000D02*
X137022500Y-92440000D01*
X137022500Y-93560000D02*
X137022500Y-93610000D01*
X137022500Y-93610000D02*
X135202500Y-93610000D01*
X137562500Y-92430000D02*
X137322500Y-92100000D01*
X137802500Y-92100000D01*
X137562500Y-92430000D01*
G36*
X137562500Y-92430000D02*
G01*
X137322500Y-92100000D01*
X137802500Y-92100000D01*
X137562500Y-92430000D01*
G37*
%TO.C,F1*%
X129080000Y-97546248D02*
X129080000Y-101953752D01*
X134420000Y-97546248D02*
X134420000Y-101953752D01*
%TO.C,L1*%
X156400000Y-78750000D02*
X156800000Y-78750000D01*
X156400000Y-84950000D02*
X156400000Y-78750000D01*
X156400000Y-84950000D02*
X156800000Y-84950000D01*
X162600000Y-78750000D02*
X162200000Y-78750000D01*
X162600000Y-84950000D02*
X162200000Y-84950000D01*
X162600000Y-84950000D02*
X162600000Y-78750000D01*
%TO.C,F2*%
X156261252Y-74790000D02*
X155738748Y-74790000D01*
X156261252Y-76210000D02*
X155738748Y-76210000D01*
%TO.C,C14*%
X136896267Y-63990000D02*
X136603733Y-63990000D01*
X136896267Y-65010000D02*
X136603733Y-65010000D01*
%TO.C,T8*%
X150100000Y-96300000D02*
X151500000Y-96300000D01*
X150100000Y-97700000D02*
X150100000Y-96300000D01*
X151500000Y-96300000D02*
X151500000Y-97700000D01*
X151500000Y-97700000D02*
X150100000Y-97700000D01*
%TO.C,C7*%
X141103733Y-88240000D02*
X141396267Y-88240000D01*
X141103733Y-89260000D02*
X141396267Y-89260000D01*
%TO.C,D1*%
X130750000Y-94360000D02*
X130750000Y-90350000D01*
X130750000Y-94360000D02*
X132750000Y-94360000D01*
X132750000Y-94360000D02*
X132750000Y-90350000D01*
D13*
%TO.C,PS1*%
X139130000Y-104750000D02*
X139130000Y-104750000D01*
X139330000Y-104750000D02*
X139330000Y-104750000D01*
D14*
X140530000Y-102800000D02*
X160130000Y-102800000D01*
X140530000Y-110000000D02*
X140530000Y-102800000D01*
X160130000Y-102800000D02*
X160130000Y-110000000D01*
X160130000Y-110000000D02*
X140530000Y-110000000D01*
D13*
X139130000Y-104750000D02*
G75*
G02*
X139330000Y-104750000I100000J0D01*
G01*
X139330000Y-104750000D02*
G75*
G02*
X139130000Y-104750000I-100000J0D01*
G01*
D12*
%TO.C,R2*%
X164977500Y-77345276D02*
X164977500Y-77854724D01*
X166022500Y-77345276D02*
X166022500Y-77854724D01*
%TO.C,D2*%
X138900000Y-89990000D02*
X138900000Y-93250000D01*
X140600000Y-89990000D02*
X138900000Y-89990000D01*
X140600000Y-89990000D02*
X140600000Y-93250000D01*
%TO.C,C15*%
X136896267Y-65740000D02*
X136603733Y-65740000D01*
X136896267Y-66760000D02*
X136603733Y-66760000D01*
%TO.C,T7*%
X156500000Y-96100000D02*
X157900000Y-96100000D01*
X156500000Y-97500000D02*
X156500000Y-96100000D01*
X157900000Y-96100000D02*
X157900000Y-97500000D01*
X157900000Y-97500000D02*
X156500000Y-97500000D01*
D13*
%TO.C,J1*%
X128610000Y-109710000D02*
X128610000Y-109710000D01*
X128610000Y-109710000D02*
X128610000Y-109710000D01*
X128710000Y-109710000D02*
X128710000Y-109710000D01*
X129210000Y-106610000D02*
X134750000Y-106610000D01*
X129210000Y-112810000D02*
X129210000Y-106610000D01*
X129810000Y-112810000D02*
X129210000Y-112810000D01*
X134750000Y-106610000D02*
X134750000Y-112810000D01*
X134750000Y-112810000D02*
X134010000Y-112810000D01*
X128610000Y-109710000D02*
G75*
G02*
X128710000Y-109710000I50000J0D01*
G01*
X128710000Y-109710000D02*
G75*
G02*
X128610000Y-109710000I-50000J0D01*
G01*
X128710000Y-109710000D02*
G75*
G02*
X128610000Y-109710000I-50000J0D01*
G01*
D12*
%TO.C,T5*%
X153550000Y-79000000D02*
X154950000Y-79000000D01*
X153550000Y-80400000D02*
X153550000Y-79000000D01*
X154950000Y-79000000D02*
X154950000Y-80400000D01*
X154950000Y-80400000D02*
X153550000Y-80400000D01*
%TO.C,R5*%
X137004724Y-67477500D02*
X136495276Y-67477500D01*
X137004724Y-68522500D02*
X136495276Y-68522500D01*
%TO.C,C3*%
X142490000Y-82240000D02*
X143690000Y-82240000D01*
X142490000Y-85695563D02*
X142490000Y-82240000D01*
X142940000Y-87250000D02*
X143440000Y-87250000D01*
X143190000Y-87500000D02*
X143190000Y-87000000D01*
X143554437Y-86760000D02*
X142490000Y-85695563D01*
X143554437Y-86760000D02*
X143690000Y-86760000D01*
X145945563Y-86760000D02*
X145810000Y-86760000D01*
X145945563Y-86760000D02*
X147010000Y-85695563D01*
X147010000Y-82240000D02*
X145810000Y-82240000D01*
X147010000Y-85695563D02*
X147010000Y-82240000D01*
%TO.C,T9*%
X148300000Y-68800000D02*
X149700000Y-68800000D01*
X148300000Y-70200000D02*
X148300000Y-68800000D01*
X149700000Y-68800000D02*
X149700000Y-70200000D01*
X149700000Y-70200000D02*
X148300000Y-70200000D01*
%TO.C,C2*%
X169240000Y-81996267D02*
X169240000Y-81703733D01*
X170260000Y-81996267D02*
X170260000Y-81703733D01*
%TO.C,T10*%
X138050000Y-71550000D02*
X139450000Y-71550000D01*
X138050000Y-72950000D02*
X138050000Y-71550000D01*
X139450000Y-71550000D02*
X139450000Y-72950000D01*
X139450000Y-72950000D02*
X138050000Y-72950000D01*
%TO.C,C6*%
X135490000Y-82240000D02*
X136690000Y-82240000D01*
X135490000Y-85695563D02*
X135490000Y-82240000D01*
X135940000Y-87250000D02*
X136440000Y-87250000D01*
X136190000Y-87500000D02*
X136190000Y-87000000D01*
X136554437Y-86760000D02*
X135490000Y-85695563D01*
X136554437Y-86760000D02*
X136690000Y-86760000D01*
X138945563Y-86760000D02*
X138810000Y-86760000D01*
X138945563Y-86760000D02*
X140010000Y-85695563D01*
X140010000Y-82240000D02*
X138810000Y-82240000D01*
X140010000Y-85695563D02*
X140010000Y-82240000D01*
%TO.C,C1*%
X171240000Y-81996267D02*
X171240000Y-81703733D01*
X172260000Y-81996267D02*
X172260000Y-81703733D01*
%TO.C,T1*%
X127800000Y-92300000D02*
X129200000Y-92300000D01*
X127800000Y-93700000D02*
X127800000Y-92300000D01*
X129200000Y-92300000D02*
X129200000Y-93700000D01*
X129200000Y-93700000D02*
X127800000Y-93700000D01*
%TO.C,C8*%
X162990000Y-76496267D02*
X162990000Y-76203733D01*
X164010000Y-76496267D02*
X164010000Y-76203733D01*
%TO.C,T4*%
X166050000Y-72550000D02*
X167450000Y-72550000D01*
X166050000Y-73950000D02*
X166050000Y-72550000D01*
X167450000Y-72550000D02*
X167450000Y-73950000D01*
X167450000Y-73950000D02*
X166050000Y-73950000D01*
%TO.C,R4*%
X159227500Y-76604724D02*
X159227500Y-76095276D01*
X160272500Y-76604724D02*
X160272500Y-76095276D01*
%TO.C,C12*%
X158746267Y-99740000D02*
X158453733Y-99740000D01*
X158746267Y-100760000D02*
X158453733Y-100760000D01*
%TO.C,U2*%
X141340000Y-62840000D02*
X141340000Y-64100000D01*
X141340000Y-69660000D02*
X141340000Y-68400000D01*
X145100000Y-62840000D02*
X141340000Y-62840000D01*
X145100000Y-69660000D02*
X141340000Y-69660000D01*
X146620000Y-69890000D02*
X146140000Y-69890000D01*
X146380000Y-69560000D01*
X146620000Y-69890000D01*
G36*
X146620000Y-69890000D02*
G01*
X146140000Y-69890000D01*
X146380000Y-69560000D01*
X146620000Y-69890000D01*
G37*
%TO.C,T3*%
X131800000Y-86050000D02*
X133200000Y-86050000D01*
X131800000Y-87450000D02*
X131800000Y-86050000D01*
X133200000Y-86050000D02*
X133200000Y-87450000D01*
X133200000Y-87450000D02*
X131800000Y-87450000D01*
D13*
%TO.C,J2*%
X118020000Y-51105000D02*
X123020000Y-51105000D01*
X118020000Y-109775000D02*
X118020000Y-51105000D01*
D14*
X119250000Y-50500000D02*
X119250000Y-50500000D01*
X119250000Y-50600000D02*
X119250000Y-50600000D01*
D13*
X123020000Y-51105000D02*
X123020000Y-109775000D01*
X123020000Y-109775000D02*
X118020000Y-109775000D01*
D14*
X119250000Y-50500000D02*
G75*
G02*
X119250000Y-50600000I0J-50000D01*
G01*
X119250000Y-50600000D02*
G75*
G02*
X119250000Y-50500000I0J50000D01*
G01*
D12*
%TO.C,C10*%
X149853733Y-63740000D02*
X150146267Y-63740000D01*
X149853733Y-64760000D02*
X150146267Y-64760000D01*
%TO.C,C13*%
X152453733Y-99890000D02*
X152746267Y-99890000D01*
X152453733Y-100910000D02*
X152746267Y-100910000D01*
%TO.C,T2*%
X173550000Y-82000000D02*
X174950000Y-82000000D01*
X173550000Y-83400000D02*
X173550000Y-82000000D01*
X174950000Y-82000000D02*
X174950000Y-83400000D01*
X174950000Y-83400000D02*
X173550000Y-83400000D01*
%TO.C,R3*%
X166977500Y-77345276D02*
X166977500Y-77854724D01*
X168022500Y-77345276D02*
X168022500Y-77854724D01*
%TO.C,D4*%
X135950000Y-70485000D02*
X138410000Y-70485000D01*
X138410000Y-69015000D02*
X135950000Y-69015000D01*
X138410000Y-70485000D02*
X138410000Y-69015000D01*
%TO.C,D3*%
X157090000Y-71515000D02*
X157090000Y-72985000D01*
X157090000Y-72985000D02*
X159550000Y-72985000D01*
X159550000Y-71515000D02*
X157090000Y-71515000D01*
%TO.C,T6*%
X146550000Y-59550000D02*
X147950000Y-59550000D01*
X146550000Y-60950000D02*
X146550000Y-59550000D01*
X147950000Y-59550000D02*
X147950000Y-60950000D01*
X147950000Y-60950000D02*
X146550000Y-60950000D01*
%TD*%
M02*
