%TF.GenerationSoftware,KiCad,Pcbnew,9.0.7-9.0.7~ubuntu24.04.1*%
%TF.CreationDate,2026-01-13T16:34:36+01:00*%
%TF.ProjectId,digital_output,64696769-7461-46c5-9f6f-75747075742e,1.0*%
%TF.SameCoordinates,Original*%
%TF.FileFunction,Soldermask,Bot*%
%TF.FilePolarity,Negative*%
%FSLAX46Y46*%
G04 Gerber Fmt 4.6, Leading zero omitted, Abs format (unit mm)*
G04 Created by KiCad (PCBNEW 9.0.7-9.0.7~ubuntu24.04.1) date 2026-01-13 16:34:36*
%MOMM*%
%LPD*%
G01*
G04 APERTURE LIST*
G04 APERTURE END LIST*
G36*
X134325000Y-111825000D02*
G01*
X132675000Y-111825000D01*
X132675000Y-110175000D01*
X134325000Y-110175000D01*
X134325000Y-111825000D01*
G37*
G36*
X136279485Y-110210524D02*
G01*
X136428902Y-110272415D01*
X136563374Y-110362266D01*
X136677734Y-110476626D01*
X136767585Y-110611098D01*
X136829476Y-110760515D01*
X136861027Y-110919136D01*
X136861027Y-111080864D01*
X136829476Y-111239485D01*
X136767585Y-111388902D01*
X136677734Y-111523374D01*
X136563374Y-111637734D01*
X136428902Y-111727585D01*
X136279485Y-111789476D01*
X136120864Y-111821027D01*
X135959136Y-111821027D01*
X135800515Y-111789476D01*
X135651098Y-111727585D01*
X135516626Y-111637734D01*
X135402266Y-111523374D01*
X135312415Y-111388902D01*
X135250524Y-111239485D01*
X135218973Y-111080864D01*
X135218973Y-110919136D01*
X135250524Y-110760515D01*
X135312415Y-110611098D01*
X135402266Y-110476626D01*
X135516626Y-110362266D01*
X135651098Y-110272415D01*
X135800515Y-110210524D01*
X135959136Y-110178973D01*
X136120864Y-110178973D01*
X136279485Y-110210524D01*
G37*
G36*
X138819485Y-110210524D02*
G01*
X138968902Y-110272415D01*
X139103374Y-110362266D01*
X139217734Y-110476626D01*
X139307585Y-110611098D01*
X139369476Y-110760515D01*
X139401027Y-110919136D01*
X139401027Y-111080864D01*
X139369476Y-111239485D01*
X139307585Y-111388902D01*
X139217734Y-111523374D01*
X139103374Y-111637734D01*
X138968902Y-111727585D01*
X138819485Y-111789476D01*
X138660864Y-111821027D01*
X138499136Y-111821027D01*
X138340515Y-111789476D01*
X138191098Y-111727585D01*
X138056626Y-111637734D01*
X137942266Y-111523374D01*
X137852415Y-111388902D01*
X137790524Y-111239485D01*
X137758973Y-111080864D01*
X137758973Y-110919136D01*
X137790524Y-110760515D01*
X137852415Y-110611098D01*
X137942266Y-110476626D01*
X138056626Y-110362266D01*
X138191098Y-110272415D01*
X138340515Y-110210524D01*
X138499136Y-110178973D01*
X138660864Y-110178973D01*
X138819485Y-110210524D01*
G37*
G36*
X141359485Y-110210524D02*
G01*
X141508902Y-110272415D01*
X141643374Y-110362266D01*
X141757734Y-110476626D01*
X141847585Y-110611098D01*
X141909476Y-110760515D01*
X141941027Y-110919136D01*
X141941027Y-111080864D01*
X141909476Y-111239485D01*
X141847585Y-111388902D01*
X141757734Y-111523374D01*
X141643374Y-111637734D01*
X141508902Y-111727585D01*
X141359485Y-111789476D01*
X141200864Y-111821027D01*
X141039136Y-111821027D01*
X140880515Y-111789476D01*
X140731098Y-111727585D01*
X140596626Y-111637734D01*
X140482266Y-111523374D01*
X140392415Y-111388902D01*
X140330524Y-111239485D01*
X140298973Y-111080864D01*
X140298973Y-110919136D01*
X140330524Y-110760515D01*
X140392415Y-110611098D01*
X140482266Y-110476626D01*
X140596626Y-110362266D01*
X140731098Y-110272415D01*
X140880515Y-110210524D01*
X141039136Y-110178973D01*
X141200864Y-110178973D01*
X141359485Y-110210524D01*
G37*
G36*
X143899485Y-110210524D02*
G01*
X144048902Y-110272415D01*
X144183374Y-110362266D01*
X144297734Y-110476626D01*
X144387585Y-110611098D01*
X144449476Y-110760515D01*
X144481027Y-110919136D01*
X144481027Y-111080864D01*
X144449476Y-111239485D01*
X144387585Y-111388902D01*
X144297734Y-111523374D01*
X144183374Y-111637734D01*
X144048902Y-111727585D01*
X143899485Y-111789476D01*
X143740864Y-111821027D01*
X143579136Y-111821027D01*
X143420515Y-111789476D01*
X143271098Y-111727585D01*
X143136626Y-111637734D01*
X143022266Y-111523374D01*
X142932415Y-111388902D01*
X142870524Y-111239485D01*
X142838973Y-111080864D01*
X142838973Y-110919136D01*
X142870524Y-110760515D01*
X142932415Y-110611098D01*
X143022266Y-110476626D01*
X143136626Y-110362266D01*
X143271098Y-110272415D01*
X143420515Y-110210524D01*
X143579136Y-110178973D01*
X143740864Y-110178973D01*
X143899485Y-110210524D01*
G37*
G36*
X146439485Y-110210524D02*
G01*
X146588902Y-110272415D01*
X146723374Y-110362266D01*
X146837734Y-110476626D01*
X146927585Y-110611098D01*
X146989476Y-110760515D01*
X147021027Y-110919136D01*
X147021027Y-111080864D01*
X146989476Y-111239485D01*
X146927585Y-111388902D01*
X146837734Y-111523374D01*
X146723374Y-111637734D01*
X146588902Y-111727585D01*
X146439485Y-111789476D01*
X146280864Y-111821027D01*
X146119136Y-111821027D01*
X145960515Y-111789476D01*
X145811098Y-111727585D01*
X145676626Y-111637734D01*
X145562266Y-111523374D01*
X145472415Y-111388902D01*
X145410524Y-111239485D01*
X145378973Y-111080864D01*
X145378973Y-110919136D01*
X145410524Y-110760515D01*
X145472415Y-110611098D01*
X145562266Y-110476626D01*
X145676626Y-110362266D01*
X145811098Y-110272415D01*
X145960515Y-110210524D01*
X146119136Y-110178973D01*
X146280864Y-110178973D01*
X146439485Y-110210524D01*
G37*
G36*
X148979485Y-110210524D02*
G01*
X149128902Y-110272415D01*
X149263374Y-110362266D01*
X149377734Y-110476626D01*
X149467585Y-110611098D01*
X149529476Y-110760515D01*
X149561027Y-110919136D01*
X149561027Y-111080864D01*
X149529476Y-111239485D01*
X149467585Y-111388902D01*
X149377734Y-111523374D01*
X149263374Y-111637734D01*
X149128902Y-111727585D01*
X148979485Y-111789476D01*
X148820864Y-111821027D01*
X148659136Y-111821027D01*
X148500515Y-111789476D01*
X148351098Y-111727585D01*
X148216626Y-111637734D01*
X148102266Y-111523374D01*
X148012415Y-111388902D01*
X147950524Y-111239485D01*
X147918973Y-111080864D01*
X147918973Y-110919136D01*
X147950524Y-110760515D01*
X148012415Y-110611098D01*
X148102266Y-110476626D01*
X148216626Y-110362266D01*
X148351098Y-110272415D01*
X148500515Y-110210524D01*
X148659136Y-110178973D01*
X148820864Y-110178973D01*
X148979485Y-110210524D01*
G37*
G36*
X151519485Y-110210524D02*
G01*
X151668902Y-110272415D01*
X151803374Y-110362266D01*
X151917734Y-110476626D01*
X152007585Y-110611098D01*
X152069476Y-110760515D01*
X152101027Y-110919136D01*
X152101027Y-111080864D01*
X152069476Y-111239485D01*
X152007585Y-111388902D01*
X151917734Y-111523374D01*
X151803374Y-111637734D01*
X151668902Y-111727585D01*
X151519485Y-111789476D01*
X151360864Y-111821027D01*
X151199136Y-111821027D01*
X151040515Y-111789476D01*
X150891098Y-111727585D01*
X150756626Y-111637734D01*
X150642266Y-111523374D01*
X150552415Y-111388902D01*
X150490524Y-111239485D01*
X150458973Y-111080864D01*
X150458973Y-110919136D01*
X150490524Y-110760515D01*
X150552415Y-110611098D01*
X150642266Y-110476626D01*
X150756626Y-110362266D01*
X150891098Y-110272415D01*
X151040515Y-110210524D01*
X151199136Y-110178973D01*
X151360864Y-110178973D01*
X151519485Y-110210524D01*
G37*
G36*
X154059485Y-110210524D02*
G01*
X154208902Y-110272415D01*
X154343374Y-110362266D01*
X154457734Y-110476626D01*
X154547585Y-110611098D01*
X154609476Y-110760515D01*
X154641027Y-110919136D01*
X154641027Y-111080864D01*
X154609476Y-111239485D01*
X154547585Y-111388902D01*
X154457734Y-111523374D01*
X154343374Y-111637734D01*
X154208902Y-111727585D01*
X154059485Y-111789476D01*
X153900864Y-111821027D01*
X153739136Y-111821027D01*
X153580515Y-111789476D01*
X153431098Y-111727585D01*
X153296626Y-111637734D01*
X153182266Y-111523374D01*
X153092415Y-111388902D01*
X153030524Y-111239485D01*
X152998973Y-111080864D01*
X152998973Y-110919136D01*
X153030524Y-110760515D01*
X153092415Y-110611098D01*
X153182266Y-110476626D01*
X153296626Y-110362266D01*
X153431098Y-110272415D01*
X153580515Y-110210524D01*
X153739136Y-110178973D01*
X153900864Y-110178973D01*
X154059485Y-110210524D01*
G37*
G36*
X180452068Y-107667941D02*
G01*
X180590619Y-107725330D01*
X180715311Y-107808647D01*
X180821353Y-107914689D01*
X180904670Y-108039381D01*
X180962059Y-108177932D01*
X180991316Y-108325017D01*
X180991316Y-108474983D01*
X180962059Y-108622068D01*
X180904670Y-108760619D01*
X180821353Y-108885311D01*
X180715311Y-108991353D01*
X180590619Y-109074670D01*
X180452068Y-109132059D01*
X180304983Y-109161316D01*
X180155017Y-109161316D01*
X180007932Y-109132059D01*
X179869381Y-109074670D01*
X179744689Y-108991353D01*
X179638647Y-108885311D01*
X179555330Y-108760619D01*
X179497941Y-108622068D01*
X179468684Y-108474983D01*
X179468684Y-108325017D01*
X179497941Y-108177932D01*
X179555330Y-108039381D01*
X179638647Y-107914689D01*
X179744689Y-107808647D01*
X179869381Y-107725330D01*
X180007932Y-107667941D01*
X180155017Y-107638684D01*
X180304983Y-107638684D01*
X180452068Y-107667941D01*
G37*
G36*
X182992068Y-107667941D02*
G01*
X183130619Y-107725330D01*
X183255311Y-107808647D01*
X183361353Y-107914689D01*
X183444670Y-108039381D01*
X183502059Y-108177932D01*
X183531316Y-108325017D01*
X183531316Y-108474983D01*
X183502059Y-108622068D01*
X183444670Y-108760619D01*
X183361353Y-108885311D01*
X183255311Y-108991353D01*
X183130619Y-109074670D01*
X182992068Y-109132059D01*
X182844983Y-109161316D01*
X182695017Y-109161316D01*
X182547932Y-109132059D01*
X182409381Y-109074670D01*
X182284689Y-108991353D01*
X182178647Y-108885311D01*
X182095330Y-108760619D01*
X182037941Y-108622068D01*
X182008684Y-108474983D01*
X182008684Y-108325017D01*
X182037941Y-108177932D01*
X182095330Y-108039381D01*
X182178647Y-107914689D01*
X182284689Y-107808647D01*
X182409381Y-107725330D01*
X182547932Y-107667941D01*
X182695017Y-107638684D01*
X182844983Y-107638684D01*
X182992068Y-107667941D01*
G37*
G36*
X119452068Y-107657941D02*
G01*
X119590619Y-107715330D01*
X119715311Y-107798647D01*
X119821353Y-107904689D01*
X119904670Y-108029381D01*
X119962059Y-108167932D01*
X119991316Y-108315017D01*
X119991316Y-108464983D01*
X119962059Y-108612068D01*
X119904670Y-108750619D01*
X119821353Y-108875311D01*
X119715311Y-108981353D01*
X119590619Y-109064670D01*
X119452068Y-109122059D01*
X119304983Y-109151316D01*
X119155017Y-109151316D01*
X119007932Y-109122059D01*
X118869381Y-109064670D01*
X118744689Y-108981353D01*
X118638647Y-108875311D01*
X118555330Y-108750619D01*
X118497941Y-108612068D01*
X118468684Y-108464983D01*
X118468684Y-108315017D01*
X118497941Y-108167932D01*
X118555330Y-108029381D01*
X118638647Y-107904689D01*
X118744689Y-107798647D01*
X118869381Y-107715330D01*
X119007932Y-107657941D01*
X119155017Y-107628684D01*
X119304983Y-107628684D01*
X119452068Y-107657941D01*
G37*
G36*
X121992068Y-107657941D02*
G01*
X122130619Y-107715330D01*
X122255311Y-107798647D01*
X122361353Y-107904689D01*
X122444670Y-108029381D01*
X122502059Y-108167932D01*
X122531316Y-108315017D01*
X122531316Y-108464983D01*
X122502059Y-108612068D01*
X122444670Y-108750619D01*
X122361353Y-108875311D01*
X122255311Y-108981353D01*
X122130619Y-109064670D01*
X121992068Y-109122059D01*
X121844983Y-109151316D01*
X121695017Y-109151316D01*
X121547932Y-109122059D01*
X121409381Y-109064670D01*
X121284689Y-108981353D01*
X121178647Y-108875311D01*
X121095330Y-108750619D01*
X121037941Y-108612068D01*
X121008684Y-108464983D01*
X121008684Y-108315017D01*
X121037941Y-108167932D01*
X121095330Y-108029381D01*
X121178647Y-107904689D01*
X121284689Y-107798647D01*
X121409381Y-107715330D01*
X121547932Y-107657941D01*
X121695017Y-107628684D01*
X121844983Y-107628684D01*
X121992068Y-107657941D01*
G37*
G36*
X180452068Y-105127941D02*
G01*
X180590619Y-105185330D01*
X180715311Y-105268647D01*
X180821353Y-105374689D01*
X180904670Y-105499381D01*
X180962059Y-105637932D01*
X180991316Y-105785017D01*
X180991316Y-105934983D01*
X180962059Y-106082068D01*
X180904670Y-106220619D01*
X180821353Y-106345311D01*
X180715311Y-106451353D01*
X180590619Y-106534670D01*
X180452068Y-106592059D01*
X180304983Y-106621316D01*
X180155017Y-106621316D01*
X180007932Y-106592059D01*
X179869381Y-106534670D01*
X179744689Y-106451353D01*
X179638647Y-106345311D01*
X179555330Y-106220619D01*
X179497941Y-106082068D01*
X179468684Y-105934983D01*
X179468684Y-105785017D01*
X179497941Y-105637932D01*
X179555330Y-105499381D01*
X179638647Y-105374689D01*
X179744689Y-105268647D01*
X179869381Y-105185330D01*
X180007932Y-105127941D01*
X180155017Y-105098684D01*
X180304983Y-105098684D01*
X180452068Y-105127941D01*
G37*
G36*
X182992068Y-105127941D02*
G01*
X183130619Y-105185330D01*
X183255311Y-105268647D01*
X183361353Y-105374689D01*
X183444670Y-105499381D01*
X183502059Y-105637932D01*
X183531316Y-105785017D01*
X183531316Y-105934983D01*
X183502059Y-106082068D01*
X183444670Y-106220619D01*
X183361353Y-106345311D01*
X183255311Y-106451353D01*
X183130619Y-106534670D01*
X182992068Y-106592059D01*
X182844983Y-106621316D01*
X182695017Y-106621316D01*
X182547932Y-106592059D01*
X182409381Y-106534670D01*
X182284689Y-106451353D01*
X182178647Y-106345311D01*
X182095330Y-106220619D01*
X182037941Y-106082068D01*
X182008684Y-105934983D01*
X182008684Y-105785017D01*
X182037941Y-105637932D01*
X182095330Y-105499381D01*
X182178647Y-105374689D01*
X182284689Y-105268647D01*
X182409381Y-105185330D01*
X182547932Y-105127941D01*
X182695017Y-105098684D01*
X182844983Y-105098684D01*
X182992068Y-105127941D01*
G37*
G36*
X119452068Y-105117941D02*
G01*
X119590619Y-105175330D01*
X119715311Y-105258647D01*
X119821353Y-105364689D01*
X119904670Y-105489381D01*
X119962059Y-105627932D01*
X119991316Y-105775017D01*
X119991316Y-105924983D01*
X119962059Y-106072068D01*
X119904670Y-106210619D01*
X119821353Y-106335311D01*
X119715311Y-106441353D01*
X119590619Y-106524670D01*
X119452068Y-106582059D01*
X119304983Y-106611316D01*
X119155017Y-106611316D01*
X119007932Y-106582059D01*
X118869381Y-106524670D01*
X118744689Y-106441353D01*
X118638647Y-106335311D01*
X118555330Y-106210619D01*
X118497941Y-106072068D01*
X118468684Y-105924983D01*
X118468684Y-105775017D01*
X118497941Y-105627932D01*
X118555330Y-105489381D01*
X118638647Y-105364689D01*
X118744689Y-105258647D01*
X118869381Y-105175330D01*
X119007932Y-105117941D01*
X119155017Y-105088684D01*
X119304983Y-105088684D01*
X119452068Y-105117941D01*
G37*
G36*
X121992068Y-105117941D02*
G01*
X122130619Y-105175330D01*
X122255311Y-105258647D01*
X122361353Y-105364689D01*
X122444670Y-105489381D01*
X122502059Y-105627932D01*
X122531316Y-105775017D01*
X122531316Y-105924983D01*
X122502059Y-106072068D01*
X122444670Y-106210619D01*
X122361353Y-106335311D01*
X122255311Y-106441353D01*
X122130619Y-106524670D01*
X121992068Y-106582059D01*
X121844983Y-106611316D01*
X121695017Y-106611316D01*
X121547932Y-106582059D01*
X121409381Y-106524670D01*
X121284689Y-106441353D01*
X121178647Y-106335311D01*
X121095330Y-106210619D01*
X121037941Y-106072068D01*
X121008684Y-105924983D01*
X121008684Y-105775017D01*
X121037941Y-105627932D01*
X121095330Y-105489381D01*
X121178647Y-105364689D01*
X121284689Y-105258647D01*
X121409381Y-105175330D01*
X121547932Y-105117941D01*
X121695017Y-105088684D01*
X121844983Y-105088684D01*
X121992068Y-105117941D01*
G37*
G36*
X180452068Y-102587941D02*
G01*
X180590619Y-102645330D01*
X180715311Y-102728647D01*
X180821353Y-102834689D01*
X180904670Y-102959381D01*
X180962059Y-103097932D01*
X180991316Y-103245017D01*
X180991316Y-103394983D01*
X180962059Y-103542068D01*
X180904670Y-103680619D01*
X180821353Y-103805311D01*
X180715311Y-103911353D01*
X180590619Y-103994670D01*
X180452068Y-104052059D01*
X180304983Y-104081316D01*
X180155017Y-104081316D01*
X180007932Y-104052059D01*
X179869381Y-103994670D01*
X179744689Y-103911353D01*
X179638647Y-103805311D01*
X179555330Y-103680619D01*
X179497941Y-103542068D01*
X179468684Y-103394983D01*
X179468684Y-103245017D01*
X179497941Y-103097932D01*
X179555330Y-102959381D01*
X179638647Y-102834689D01*
X179744689Y-102728647D01*
X179869381Y-102645330D01*
X180007932Y-102587941D01*
X180155017Y-102558684D01*
X180304983Y-102558684D01*
X180452068Y-102587941D01*
G37*
G36*
X182992068Y-102587941D02*
G01*
X183130619Y-102645330D01*
X183255311Y-102728647D01*
X183361353Y-102834689D01*
X183444670Y-102959381D01*
X183502059Y-103097932D01*
X183531316Y-103245017D01*
X183531316Y-103394983D01*
X183502059Y-103542068D01*
X183444670Y-103680619D01*
X183361353Y-103805311D01*
X183255311Y-103911353D01*
X183130619Y-103994670D01*
X182992068Y-104052059D01*
X182844983Y-104081316D01*
X182695017Y-104081316D01*
X182547932Y-104052059D01*
X182409381Y-103994670D01*
X182284689Y-103911353D01*
X182178647Y-103805311D01*
X182095330Y-103680619D01*
X182037941Y-103542068D01*
X182008684Y-103394983D01*
X182008684Y-103245017D01*
X182037941Y-103097932D01*
X182095330Y-102959381D01*
X182178647Y-102834689D01*
X182284689Y-102728647D01*
X182409381Y-102645330D01*
X182547932Y-102587941D01*
X182695017Y-102558684D01*
X182844983Y-102558684D01*
X182992068Y-102587941D01*
G37*
G36*
X119452068Y-102577941D02*
G01*
X119590619Y-102635330D01*
X119715311Y-102718647D01*
X119821353Y-102824689D01*
X119904670Y-102949381D01*
X119962059Y-103087932D01*
X119991316Y-103235017D01*
X119991316Y-103384983D01*
X119962059Y-103532068D01*
X119904670Y-103670619D01*
X119821353Y-103795311D01*
X119715311Y-103901353D01*
X119590619Y-103984670D01*
X119452068Y-104042059D01*
X119304983Y-104071316D01*
X119155017Y-104071316D01*
X119007932Y-104042059D01*
X118869381Y-103984670D01*
X118744689Y-103901353D01*
X118638647Y-103795311D01*
X118555330Y-103670619D01*
X118497941Y-103532068D01*
X118468684Y-103384983D01*
X118468684Y-103235017D01*
X118497941Y-103087932D01*
X118555330Y-102949381D01*
X118638647Y-102824689D01*
X118744689Y-102718647D01*
X118869381Y-102635330D01*
X119007932Y-102577941D01*
X119155017Y-102548684D01*
X119304983Y-102548684D01*
X119452068Y-102577941D01*
G37*
G36*
X121992068Y-102577941D02*
G01*
X122130619Y-102635330D01*
X122255311Y-102718647D01*
X122361353Y-102824689D01*
X122444670Y-102949381D01*
X122502059Y-103087932D01*
X122531316Y-103235017D01*
X122531316Y-103384983D01*
X122502059Y-103532068D01*
X122444670Y-103670619D01*
X122361353Y-103795311D01*
X122255311Y-103901353D01*
X122130619Y-103984670D01*
X121992068Y-104042059D01*
X121844983Y-104071316D01*
X121695017Y-104071316D01*
X121547932Y-104042059D01*
X121409381Y-103984670D01*
X121284689Y-103901353D01*
X121178647Y-103795311D01*
X121095330Y-103670619D01*
X121037941Y-103532068D01*
X121008684Y-103384983D01*
X121008684Y-103235017D01*
X121037941Y-103087932D01*
X121095330Y-102949381D01*
X121178647Y-102824689D01*
X121284689Y-102718647D01*
X121409381Y-102635330D01*
X121547932Y-102577941D01*
X121695017Y-102548684D01*
X121844983Y-102548684D01*
X121992068Y-102577941D01*
G37*
G36*
X180452068Y-100047941D02*
G01*
X180590619Y-100105330D01*
X180715311Y-100188647D01*
X180821353Y-100294689D01*
X180904670Y-100419381D01*
X180962059Y-100557932D01*
X180991316Y-100705017D01*
X180991316Y-100854983D01*
X180962059Y-101002068D01*
X180904670Y-101140619D01*
X180821353Y-101265311D01*
X180715311Y-101371353D01*
X180590619Y-101454670D01*
X180452068Y-101512059D01*
X180304983Y-101541316D01*
X180155017Y-101541316D01*
X180007932Y-101512059D01*
X179869381Y-101454670D01*
X179744689Y-101371353D01*
X179638647Y-101265311D01*
X179555330Y-101140619D01*
X179497941Y-101002068D01*
X179468684Y-100854983D01*
X179468684Y-100705017D01*
X179497941Y-100557932D01*
X179555330Y-100419381D01*
X179638647Y-100294689D01*
X179744689Y-100188647D01*
X179869381Y-100105330D01*
X180007932Y-100047941D01*
X180155017Y-100018684D01*
X180304983Y-100018684D01*
X180452068Y-100047941D01*
G37*
G36*
X182992068Y-100047941D02*
G01*
X183130619Y-100105330D01*
X183255311Y-100188647D01*
X183361353Y-100294689D01*
X183444670Y-100419381D01*
X183502059Y-100557932D01*
X183531316Y-100705017D01*
X183531316Y-100854983D01*
X183502059Y-101002068D01*
X183444670Y-101140619D01*
X183361353Y-101265311D01*
X183255311Y-101371353D01*
X183130619Y-101454670D01*
X182992068Y-101512059D01*
X182844983Y-101541316D01*
X182695017Y-101541316D01*
X182547932Y-101512059D01*
X182409381Y-101454670D01*
X182284689Y-101371353D01*
X182178647Y-101265311D01*
X182095330Y-101140619D01*
X182037941Y-101002068D01*
X182008684Y-100854983D01*
X182008684Y-100705017D01*
X182037941Y-100557932D01*
X182095330Y-100419381D01*
X182178647Y-100294689D01*
X182284689Y-100188647D01*
X182409381Y-100105330D01*
X182547932Y-100047941D01*
X182695017Y-100018684D01*
X182844983Y-100018684D01*
X182992068Y-100047941D01*
G37*
G36*
X119452068Y-100037941D02*
G01*
X119590619Y-100095330D01*
X119715311Y-100178647D01*
X119821353Y-100284689D01*
X119904670Y-100409381D01*
X119962059Y-100547932D01*
X119991316Y-100695017D01*
X119991316Y-100844983D01*
X119962059Y-100992068D01*
X119904670Y-101130619D01*
X119821353Y-101255311D01*
X119715311Y-101361353D01*
X119590619Y-101444670D01*
X119452068Y-101502059D01*
X119304983Y-101531316D01*
X119155017Y-101531316D01*
X119007932Y-101502059D01*
X118869381Y-101444670D01*
X118744689Y-101361353D01*
X118638647Y-101255311D01*
X118555330Y-101130619D01*
X118497941Y-100992068D01*
X118468684Y-100844983D01*
X118468684Y-100695017D01*
X118497941Y-100547932D01*
X118555330Y-100409381D01*
X118638647Y-100284689D01*
X118744689Y-100178647D01*
X118869381Y-100095330D01*
X119007932Y-100037941D01*
X119155017Y-100008684D01*
X119304983Y-100008684D01*
X119452068Y-100037941D01*
G37*
G36*
X121992068Y-100037941D02*
G01*
X122130619Y-100095330D01*
X122255311Y-100178647D01*
X122361353Y-100284689D01*
X122444670Y-100409381D01*
X122502059Y-100547932D01*
X122531316Y-100695017D01*
X122531316Y-100844983D01*
X122502059Y-100992068D01*
X122444670Y-101130619D01*
X122361353Y-101255311D01*
X122255311Y-101361353D01*
X122130619Y-101444670D01*
X121992068Y-101502059D01*
X121844983Y-101531316D01*
X121695017Y-101531316D01*
X121547932Y-101502059D01*
X121409381Y-101444670D01*
X121284689Y-101361353D01*
X121178647Y-101255311D01*
X121095330Y-101130619D01*
X121037941Y-100992068D01*
X121008684Y-100844983D01*
X121008684Y-100695017D01*
X121037941Y-100547932D01*
X121095330Y-100409381D01*
X121178647Y-100284689D01*
X121284689Y-100178647D01*
X121409381Y-100095330D01*
X121547932Y-100037941D01*
X121695017Y-100008684D01*
X121844983Y-100008684D01*
X121992068Y-100037941D01*
G37*
G36*
X180452068Y-97507941D02*
G01*
X180590619Y-97565330D01*
X180715311Y-97648647D01*
X180821353Y-97754689D01*
X180904670Y-97879381D01*
X180962059Y-98017932D01*
X180991316Y-98165017D01*
X180991316Y-98314983D01*
X180962059Y-98462068D01*
X180904670Y-98600619D01*
X180821353Y-98725311D01*
X180715311Y-98831353D01*
X180590619Y-98914670D01*
X180452068Y-98972059D01*
X180304983Y-99001316D01*
X180155017Y-99001316D01*
X180007932Y-98972059D01*
X179869381Y-98914670D01*
X179744689Y-98831353D01*
X179638647Y-98725311D01*
X179555330Y-98600619D01*
X179497941Y-98462068D01*
X179468684Y-98314983D01*
X179468684Y-98165017D01*
X179497941Y-98017932D01*
X179555330Y-97879381D01*
X179638647Y-97754689D01*
X179744689Y-97648647D01*
X179869381Y-97565330D01*
X180007932Y-97507941D01*
X180155017Y-97478684D01*
X180304983Y-97478684D01*
X180452068Y-97507941D01*
G37*
G36*
X182992068Y-97507941D02*
G01*
X183130619Y-97565330D01*
X183255311Y-97648647D01*
X183361353Y-97754689D01*
X183444670Y-97879381D01*
X183502059Y-98017932D01*
X183531316Y-98165017D01*
X183531316Y-98314983D01*
X183502059Y-98462068D01*
X183444670Y-98600619D01*
X183361353Y-98725311D01*
X183255311Y-98831353D01*
X183130619Y-98914670D01*
X182992068Y-98972059D01*
X182844983Y-99001316D01*
X182695017Y-99001316D01*
X182547932Y-98972059D01*
X182409381Y-98914670D01*
X182284689Y-98831353D01*
X182178647Y-98725311D01*
X182095330Y-98600619D01*
X182037941Y-98462068D01*
X182008684Y-98314983D01*
X182008684Y-98165017D01*
X182037941Y-98017932D01*
X182095330Y-97879381D01*
X182178647Y-97754689D01*
X182284689Y-97648647D01*
X182409381Y-97565330D01*
X182547932Y-97507941D01*
X182695017Y-97478684D01*
X182844983Y-97478684D01*
X182992068Y-97507941D01*
G37*
G36*
X119452068Y-97497941D02*
G01*
X119590619Y-97555330D01*
X119715311Y-97638647D01*
X119821353Y-97744689D01*
X119904670Y-97869381D01*
X119962059Y-98007932D01*
X119991316Y-98155017D01*
X119991316Y-98304983D01*
X119962059Y-98452068D01*
X119904670Y-98590619D01*
X119821353Y-98715311D01*
X119715311Y-98821353D01*
X119590619Y-98904670D01*
X119452068Y-98962059D01*
X119304983Y-98991316D01*
X119155017Y-98991316D01*
X119007932Y-98962059D01*
X118869381Y-98904670D01*
X118744689Y-98821353D01*
X118638647Y-98715311D01*
X118555330Y-98590619D01*
X118497941Y-98452068D01*
X118468684Y-98304983D01*
X118468684Y-98155017D01*
X118497941Y-98007932D01*
X118555330Y-97869381D01*
X118638647Y-97744689D01*
X118744689Y-97638647D01*
X118869381Y-97555330D01*
X119007932Y-97497941D01*
X119155017Y-97468684D01*
X119304983Y-97468684D01*
X119452068Y-97497941D01*
G37*
G36*
X121992068Y-97497941D02*
G01*
X122130619Y-97555330D01*
X122255311Y-97638647D01*
X122361353Y-97744689D01*
X122444670Y-97869381D01*
X122502059Y-98007932D01*
X122531316Y-98155017D01*
X122531316Y-98304983D01*
X122502059Y-98452068D01*
X122444670Y-98590619D01*
X122361353Y-98715311D01*
X122255311Y-98821353D01*
X122130619Y-98904670D01*
X121992068Y-98962059D01*
X121844983Y-98991316D01*
X121695017Y-98991316D01*
X121547932Y-98962059D01*
X121409381Y-98904670D01*
X121284689Y-98821353D01*
X121178647Y-98715311D01*
X121095330Y-98590619D01*
X121037941Y-98452068D01*
X121008684Y-98304983D01*
X121008684Y-98155017D01*
X121037941Y-98007932D01*
X121095330Y-97869381D01*
X121178647Y-97744689D01*
X121284689Y-97638647D01*
X121409381Y-97555330D01*
X121547932Y-97497941D01*
X121695017Y-97468684D01*
X121844983Y-97468684D01*
X121992068Y-97497941D01*
G37*
G36*
X180452068Y-94967941D02*
G01*
X180590619Y-95025330D01*
X180715311Y-95108647D01*
X180821353Y-95214689D01*
X180904670Y-95339381D01*
X180962059Y-95477932D01*
X180991316Y-95625017D01*
X180991316Y-95774983D01*
X180962059Y-95922068D01*
X180904670Y-96060619D01*
X180821353Y-96185311D01*
X180715311Y-96291353D01*
X180590619Y-96374670D01*
X180452068Y-96432059D01*
X180304983Y-96461316D01*
X180155017Y-96461316D01*
X180007932Y-96432059D01*
X179869381Y-96374670D01*
X179744689Y-96291353D01*
X179638647Y-96185311D01*
X179555330Y-96060619D01*
X179497941Y-95922068D01*
X179468684Y-95774983D01*
X179468684Y-95625017D01*
X179497941Y-95477932D01*
X179555330Y-95339381D01*
X179638647Y-95214689D01*
X179744689Y-95108647D01*
X179869381Y-95025330D01*
X180007932Y-94967941D01*
X180155017Y-94938684D01*
X180304983Y-94938684D01*
X180452068Y-94967941D01*
G37*
G36*
X182992068Y-94967941D02*
G01*
X183130619Y-95025330D01*
X183255311Y-95108647D01*
X183361353Y-95214689D01*
X183444670Y-95339381D01*
X183502059Y-95477932D01*
X183531316Y-95625017D01*
X183531316Y-95774983D01*
X183502059Y-95922068D01*
X183444670Y-96060619D01*
X183361353Y-96185311D01*
X183255311Y-96291353D01*
X183130619Y-96374670D01*
X182992068Y-96432059D01*
X182844983Y-96461316D01*
X182695017Y-96461316D01*
X182547932Y-96432059D01*
X182409381Y-96374670D01*
X182284689Y-96291353D01*
X182178647Y-96185311D01*
X182095330Y-96060619D01*
X182037941Y-95922068D01*
X182008684Y-95774983D01*
X182008684Y-95625017D01*
X182037941Y-95477932D01*
X182095330Y-95339381D01*
X182178647Y-95214689D01*
X182284689Y-95108647D01*
X182409381Y-95025330D01*
X182547932Y-94967941D01*
X182695017Y-94938684D01*
X182844983Y-94938684D01*
X182992068Y-94967941D01*
G37*
G36*
X119452068Y-94957941D02*
G01*
X119590619Y-95015330D01*
X119715311Y-95098647D01*
X119821353Y-95204689D01*
X119904670Y-95329381D01*
X119962059Y-95467932D01*
X119991316Y-95615017D01*
X119991316Y-95764983D01*
X119962059Y-95912068D01*
X119904670Y-96050619D01*
X119821353Y-96175311D01*
X119715311Y-96281353D01*
X119590619Y-96364670D01*
X119452068Y-96422059D01*
X119304983Y-96451316D01*
X119155017Y-96451316D01*
X119007932Y-96422059D01*
X118869381Y-96364670D01*
X118744689Y-96281353D01*
X118638647Y-96175311D01*
X118555330Y-96050619D01*
X118497941Y-95912068D01*
X118468684Y-95764983D01*
X118468684Y-95615017D01*
X118497941Y-95467932D01*
X118555330Y-95329381D01*
X118638647Y-95204689D01*
X118744689Y-95098647D01*
X118869381Y-95015330D01*
X119007932Y-94957941D01*
X119155017Y-94928684D01*
X119304983Y-94928684D01*
X119452068Y-94957941D01*
G37*
G36*
X121992068Y-94957941D02*
G01*
X122130619Y-95015330D01*
X122255311Y-95098647D01*
X122361353Y-95204689D01*
X122444670Y-95329381D01*
X122502059Y-95467932D01*
X122531316Y-95615017D01*
X122531316Y-95764983D01*
X122502059Y-95912068D01*
X122444670Y-96050619D01*
X122361353Y-96175311D01*
X122255311Y-96281353D01*
X122130619Y-96364670D01*
X121992068Y-96422059D01*
X121844983Y-96451316D01*
X121695017Y-96451316D01*
X121547932Y-96422059D01*
X121409381Y-96364670D01*
X121284689Y-96281353D01*
X121178647Y-96175311D01*
X121095330Y-96050619D01*
X121037941Y-95912068D01*
X121008684Y-95764983D01*
X121008684Y-95615017D01*
X121037941Y-95467932D01*
X121095330Y-95329381D01*
X121178647Y-95204689D01*
X121284689Y-95098647D01*
X121409381Y-95015330D01*
X121547932Y-94957941D01*
X121695017Y-94928684D01*
X121844983Y-94928684D01*
X121992068Y-94957941D01*
G37*
G36*
X180452068Y-92427941D02*
G01*
X180590619Y-92485330D01*
X180715311Y-92568647D01*
X180821353Y-92674689D01*
X180904670Y-92799381D01*
X180962059Y-92937932D01*
X180991316Y-93085017D01*
X180991316Y-93234983D01*
X180962059Y-93382068D01*
X180904670Y-93520619D01*
X180821353Y-93645311D01*
X180715311Y-93751353D01*
X180590619Y-93834670D01*
X180452068Y-93892059D01*
X180304983Y-93921316D01*
X180155017Y-93921316D01*
X180007932Y-93892059D01*
X179869381Y-93834670D01*
X179744689Y-93751353D01*
X179638647Y-93645311D01*
X179555330Y-93520619D01*
X179497941Y-93382068D01*
X179468684Y-93234983D01*
X179468684Y-93085017D01*
X179497941Y-92937932D01*
X179555330Y-92799381D01*
X179638647Y-92674689D01*
X179744689Y-92568647D01*
X179869381Y-92485330D01*
X180007932Y-92427941D01*
X180155017Y-92398684D01*
X180304983Y-92398684D01*
X180452068Y-92427941D01*
G37*
G36*
X182992068Y-92427941D02*
G01*
X183130619Y-92485330D01*
X183255311Y-92568647D01*
X183361353Y-92674689D01*
X183444670Y-92799381D01*
X183502059Y-92937932D01*
X183531316Y-93085017D01*
X183531316Y-93234983D01*
X183502059Y-93382068D01*
X183444670Y-93520619D01*
X183361353Y-93645311D01*
X183255311Y-93751353D01*
X183130619Y-93834670D01*
X182992068Y-93892059D01*
X182844983Y-93921316D01*
X182695017Y-93921316D01*
X182547932Y-93892059D01*
X182409381Y-93834670D01*
X182284689Y-93751353D01*
X182178647Y-93645311D01*
X182095330Y-93520619D01*
X182037941Y-93382068D01*
X182008684Y-93234983D01*
X182008684Y-93085017D01*
X182037941Y-92937932D01*
X182095330Y-92799381D01*
X182178647Y-92674689D01*
X182284689Y-92568647D01*
X182409381Y-92485330D01*
X182547932Y-92427941D01*
X182695017Y-92398684D01*
X182844983Y-92398684D01*
X182992068Y-92427941D01*
G37*
G36*
X119452068Y-92417941D02*
G01*
X119590619Y-92475330D01*
X119715311Y-92558647D01*
X119821353Y-92664689D01*
X119904670Y-92789381D01*
X119962059Y-92927932D01*
X119991316Y-93075017D01*
X119991316Y-93224983D01*
X119962059Y-93372068D01*
X119904670Y-93510619D01*
X119821353Y-93635311D01*
X119715311Y-93741353D01*
X119590619Y-93824670D01*
X119452068Y-93882059D01*
X119304983Y-93911316D01*
X119155017Y-93911316D01*
X119007932Y-93882059D01*
X118869381Y-93824670D01*
X118744689Y-93741353D01*
X118638647Y-93635311D01*
X118555330Y-93510619D01*
X118497941Y-93372068D01*
X118468684Y-93224983D01*
X118468684Y-93075017D01*
X118497941Y-92927932D01*
X118555330Y-92789381D01*
X118638647Y-92664689D01*
X118744689Y-92558647D01*
X118869381Y-92475330D01*
X119007932Y-92417941D01*
X119155017Y-92388684D01*
X119304983Y-92388684D01*
X119452068Y-92417941D01*
G37*
G36*
X121992068Y-92417941D02*
G01*
X122130619Y-92475330D01*
X122255311Y-92558647D01*
X122361353Y-92664689D01*
X122444670Y-92789381D01*
X122502059Y-92927932D01*
X122531316Y-93075017D01*
X122531316Y-93224983D01*
X122502059Y-93372068D01*
X122444670Y-93510619D01*
X122361353Y-93635311D01*
X122255311Y-93741353D01*
X122130619Y-93824670D01*
X121992068Y-93882059D01*
X121844983Y-93911316D01*
X121695017Y-93911316D01*
X121547932Y-93882059D01*
X121409381Y-93824670D01*
X121284689Y-93741353D01*
X121178647Y-93635311D01*
X121095330Y-93510619D01*
X121037941Y-93372068D01*
X121008684Y-93224983D01*
X121008684Y-93075017D01*
X121037941Y-92927932D01*
X121095330Y-92789381D01*
X121178647Y-92664689D01*
X121284689Y-92558647D01*
X121409381Y-92475330D01*
X121547932Y-92417941D01*
X121695017Y-92388684D01*
X121844983Y-92388684D01*
X121992068Y-92417941D01*
G37*
G36*
X180452068Y-89887941D02*
G01*
X180590619Y-89945330D01*
X180715311Y-90028647D01*
X180821353Y-90134689D01*
X180904670Y-90259381D01*
X180962059Y-90397932D01*
X180991316Y-90545017D01*
X180991316Y-90694983D01*
X180962059Y-90842068D01*
X180904670Y-90980619D01*
X180821353Y-91105311D01*
X180715311Y-91211353D01*
X180590619Y-91294670D01*
X180452068Y-91352059D01*
X180304983Y-91381316D01*
X180155017Y-91381316D01*
X180007932Y-91352059D01*
X179869381Y-91294670D01*
X179744689Y-91211353D01*
X179638647Y-91105311D01*
X179555330Y-90980619D01*
X179497941Y-90842068D01*
X179468684Y-90694983D01*
X179468684Y-90545017D01*
X179497941Y-90397932D01*
X179555330Y-90259381D01*
X179638647Y-90134689D01*
X179744689Y-90028647D01*
X179869381Y-89945330D01*
X180007932Y-89887941D01*
X180155017Y-89858684D01*
X180304983Y-89858684D01*
X180452068Y-89887941D01*
G37*
G36*
X182992068Y-89887941D02*
G01*
X183130619Y-89945330D01*
X183255311Y-90028647D01*
X183361353Y-90134689D01*
X183444670Y-90259381D01*
X183502059Y-90397932D01*
X183531316Y-90545017D01*
X183531316Y-90694983D01*
X183502059Y-90842068D01*
X183444670Y-90980619D01*
X183361353Y-91105311D01*
X183255311Y-91211353D01*
X183130619Y-91294670D01*
X182992068Y-91352059D01*
X182844983Y-91381316D01*
X182695017Y-91381316D01*
X182547932Y-91352059D01*
X182409381Y-91294670D01*
X182284689Y-91211353D01*
X182178647Y-91105311D01*
X182095330Y-90980619D01*
X182037941Y-90842068D01*
X182008684Y-90694983D01*
X182008684Y-90545017D01*
X182037941Y-90397932D01*
X182095330Y-90259381D01*
X182178647Y-90134689D01*
X182284689Y-90028647D01*
X182409381Y-89945330D01*
X182547932Y-89887941D01*
X182695017Y-89858684D01*
X182844983Y-89858684D01*
X182992068Y-89887941D01*
G37*
G36*
X119452068Y-89877941D02*
G01*
X119590619Y-89935330D01*
X119715311Y-90018647D01*
X119821353Y-90124689D01*
X119904670Y-90249381D01*
X119962059Y-90387932D01*
X119991316Y-90535017D01*
X119991316Y-90684983D01*
X119962059Y-90832068D01*
X119904670Y-90970619D01*
X119821353Y-91095311D01*
X119715311Y-91201353D01*
X119590619Y-91284670D01*
X119452068Y-91342059D01*
X119304983Y-91371316D01*
X119155017Y-91371316D01*
X119007932Y-91342059D01*
X118869381Y-91284670D01*
X118744689Y-91201353D01*
X118638647Y-91095311D01*
X118555330Y-90970619D01*
X118497941Y-90832068D01*
X118468684Y-90684983D01*
X118468684Y-90535017D01*
X118497941Y-90387932D01*
X118555330Y-90249381D01*
X118638647Y-90124689D01*
X118744689Y-90018647D01*
X118869381Y-89935330D01*
X119007932Y-89877941D01*
X119155017Y-89848684D01*
X119304983Y-89848684D01*
X119452068Y-89877941D01*
G37*
G36*
X121992068Y-89877941D02*
G01*
X122130619Y-89935330D01*
X122255311Y-90018647D01*
X122361353Y-90124689D01*
X122444670Y-90249381D01*
X122502059Y-90387932D01*
X122531316Y-90535017D01*
X122531316Y-90684983D01*
X122502059Y-90832068D01*
X122444670Y-90970619D01*
X122361353Y-91095311D01*
X122255311Y-91201353D01*
X122130619Y-91284670D01*
X121992068Y-91342059D01*
X121844983Y-91371316D01*
X121695017Y-91371316D01*
X121547932Y-91342059D01*
X121409381Y-91284670D01*
X121284689Y-91201353D01*
X121178647Y-91095311D01*
X121095330Y-90970619D01*
X121037941Y-90832068D01*
X121008684Y-90684983D01*
X121008684Y-90535017D01*
X121037941Y-90387932D01*
X121095330Y-90249381D01*
X121178647Y-90124689D01*
X121284689Y-90018647D01*
X121409381Y-89935330D01*
X121547932Y-89877941D01*
X121695017Y-89848684D01*
X121844983Y-89848684D01*
X121992068Y-89877941D01*
G37*
G36*
X180452068Y-87347941D02*
G01*
X180590619Y-87405330D01*
X180715311Y-87488647D01*
X180821353Y-87594689D01*
X180904670Y-87719381D01*
X180962059Y-87857932D01*
X180991316Y-88005017D01*
X180991316Y-88154983D01*
X180962059Y-88302068D01*
X180904670Y-88440619D01*
X180821353Y-88565311D01*
X180715311Y-88671353D01*
X180590619Y-88754670D01*
X180452068Y-88812059D01*
X180304983Y-88841316D01*
X180155017Y-88841316D01*
X180007932Y-88812059D01*
X179869381Y-88754670D01*
X179744689Y-88671353D01*
X179638647Y-88565311D01*
X179555330Y-88440619D01*
X179497941Y-88302068D01*
X179468684Y-88154983D01*
X179468684Y-88005017D01*
X179497941Y-87857932D01*
X179555330Y-87719381D01*
X179638647Y-87594689D01*
X179744689Y-87488647D01*
X179869381Y-87405330D01*
X180007932Y-87347941D01*
X180155017Y-87318684D01*
X180304983Y-87318684D01*
X180452068Y-87347941D01*
G37*
G36*
X182992068Y-87347941D02*
G01*
X183130619Y-87405330D01*
X183255311Y-87488647D01*
X183361353Y-87594689D01*
X183444670Y-87719381D01*
X183502059Y-87857932D01*
X183531316Y-88005017D01*
X183531316Y-88154983D01*
X183502059Y-88302068D01*
X183444670Y-88440619D01*
X183361353Y-88565311D01*
X183255311Y-88671353D01*
X183130619Y-88754670D01*
X182992068Y-88812059D01*
X182844983Y-88841316D01*
X182695017Y-88841316D01*
X182547932Y-88812059D01*
X182409381Y-88754670D01*
X182284689Y-88671353D01*
X182178647Y-88565311D01*
X182095330Y-88440619D01*
X182037941Y-88302068D01*
X182008684Y-88154983D01*
X182008684Y-88005017D01*
X182037941Y-87857932D01*
X182095330Y-87719381D01*
X182178647Y-87594689D01*
X182284689Y-87488647D01*
X182409381Y-87405330D01*
X182547932Y-87347941D01*
X182695017Y-87318684D01*
X182844983Y-87318684D01*
X182992068Y-87347941D01*
G37*
G36*
X119452068Y-87337941D02*
G01*
X119590619Y-87395330D01*
X119715311Y-87478647D01*
X119821353Y-87584689D01*
X119904670Y-87709381D01*
X119962059Y-87847932D01*
X119991316Y-87995017D01*
X119991316Y-88144983D01*
X119962059Y-88292068D01*
X119904670Y-88430619D01*
X119821353Y-88555311D01*
X119715311Y-88661353D01*
X119590619Y-88744670D01*
X119452068Y-88802059D01*
X119304983Y-88831316D01*
X119155017Y-88831316D01*
X119007932Y-88802059D01*
X118869381Y-88744670D01*
X118744689Y-88661353D01*
X118638647Y-88555311D01*
X118555330Y-88430619D01*
X118497941Y-88292068D01*
X118468684Y-88144983D01*
X118468684Y-87995017D01*
X118497941Y-87847932D01*
X118555330Y-87709381D01*
X118638647Y-87584689D01*
X118744689Y-87478647D01*
X118869381Y-87395330D01*
X119007932Y-87337941D01*
X119155017Y-87308684D01*
X119304983Y-87308684D01*
X119452068Y-87337941D01*
G37*
G36*
X121992068Y-87337941D02*
G01*
X122130619Y-87395330D01*
X122255311Y-87478647D01*
X122361353Y-87584689D01*
X122444670Y-87709381D01*
X122502059Y-87847932D01*
X122531316Y-87995017D01*
X122531316Y-88144983D01*
X122502059Y-88292068D01*
X122444670Y-88430619D01*
X122361353Y-88555311D01*
X122255311Y-88661353D01*
X122130619Y-88744670D01*
X121992068Y-88802059D01*
X121844983Y-88831316D01*
X121695017Y-88831316D01*
X121547932Y-88802059D01*
X121409381Y-88744670D01*
X121284689Y-88661353D01*
X121178647Y-88555311D01*
X121095330Y-88430619D01*
X121037941Y-88292068D01*
X121008684Y-88144983D01*
X121008684Y-87995017D01*
X121037941Y-87847932D01*
X121095330Y-87709381D01*
X121178647Y-87584689D01*
X121284689Y-87478647D01*
X121409381Y-87395330D01*
X121547932Y-87337941D01*
X121695017Y-87308684D01*
X121844983Y-87308684D01*
X121992068Y-87337941D01*
G37*
G36*
X180452068Y-84807941D02*
G01*
X180590619Y-84865330D01*
X180715311Y-84948647D01*
X180821353Y-85054689D01*
X180904670Y-85179381D01*
X180962059Y-85317932D01*
X180991316Y-85465017D01*
X180991316Y-85614983D01*
X180962059Y-85762068D01*
X180904670Y-85900619D01*
X180821353Y-86025311D01*
X180715311Y-86131353D01*
X180590619Y-86214670D01*
X180452068Y-86272059D01*
X180304983Y-86301316D01*
X180155017Y-86301316D01*
X180007932Y-86272059D01*
X179869381Y-86214670D01*
X179744689Y-86131353D01*
X179638647Y-86025311D01*
X179555330Y-85900619D01*
X179497941Y-85762068D01*
X179468684Y-85614983D01*
X179468684Y-85465017D01*
X179497941Y-85317932D01*
X179555330Y-85179381D01*
X179638647Y-85054689D01*
X179744689Y-84948647D01*
X179869381Y-84865330D01*
X180007932Y-84807941D01*
X180155017Y-84778684D01*
X180304983Y-84778684D01*
X180452068Y-84807941D01*
G37*
G36*
X182992068Y-84807941D02*
G01*
X183130619Y-84865330D01*
X183255311Y-84948647D01*
X183361353Y-85054689D01*
X183444670Y-85179381D01*
X183502059Y-85317932D01*
X183531316Y-85465017D01*
X183531316Y-85614983D01*
X183502059Y-85762068D01*
X183444670Y-85900619D01*
X183361353Y-86025311D01*
X183255311Y-86131353D01*
X183130619Y-86214670D01*
X182992068Y-86272059D01*
X182844983Y-86301316D01*
X182695017Y-86301316D01*
X182547932Y-86272059D01*
X182409381Y-86214670D01*
X182284689Y-86131353D01*
X182178647Y-86025311D01*
X182095330Y-85900619D01*
X182037941Y-85762068D01*
X182008684Y-85614983D01*
X182008684Y-85465017D01*
X182037941Y-85317932D01*
X182095330Y-85179381D01*
X182178647Y-85054689D01*
X182284689Y-84948647D01*
X182409381Y-84865330D01*
X182547932Y-84807941D01*
X182695017Y-84778684D01*
X182844983Y-84778684D01*
X182992068Y-84807941D01*
G37*
G36*
X119452068Y-84797941D02*
G01*
X119590619Y-84855330D01*
X119715311Y-84938647D01*
X119821353Y-85044689D01*
X119904670Y-85169381D01*
X119962059Y-85307932D01*
X119991316Y-85455017D01*
X119991316Y-85604983D01*
X119962059Y-85752068D01*
X119904670Y-85890619D01*
X119821353Y-86015311D01*
X119715311Y-86121353D01*
X119590619Y-86204670D01*
X119452068Y-86262059D01*
X119304983Y-86291316D01*
X119155017Y-86291316D01*
X119007932Y-86262059D01*
X118869381Y-86204670D01*
X118744689Y-86121353D01*
X118638647Y-86015311D01*
X118555330Y-85890619D01*
X118497941Y-85752068D01*
X118468684Y-85604983D01*
X118468684Y-85455017D01*
X118497941Y-85307932D01*
X118555330Y-85169381D01*
X118638647Y-85044689D01*
X118744689Y-84938647D01*
X118869381Y-84855330D01*
X119007932Y-84797941D01*
X119155017Y-84768684D01*
X119304983Y-84768684D01*
X119452068Y-84797941D01*
G37*
G36*
X121992068Y-84797941D02*
G01*
X122130619Y-84855330D01*
X122255311Y-84938647D01*
X122361353Y-85044689D01*
X122444670Y-85169381D01*
X122502059Y-85307932D01*
X122531316Y-85455017D01*
X122531316Y-85604983D01*
X122502059Y-85752068D01*
X122444670Y-85890619D01*
X122361353Y-86015311D01*
X122255311Y-86121353D01*
X122130619Y-86204670D01*
X121992068Y-86262059D01*
X121844983Y-86291316D01*
X121695017Y-86291316D01*
X121547932Y-86262059D01*
X121409381Y-86204670D01*
X121284689Y-86121353D01*
X121178647Y-86015311D01*
X121095330Y-85890619D01*
X121037941Y-85752068D01*
X121008684Y-85604983D01*
X121008684Y-85455017D01*
X121037941Y-85307932D01*
X121095330Y-85169381D01*
X121178647Y-85044689D01*
X121284689Y-84938647D01*
X121409381Y-84855330D01*
X121547932Y-84797941D01*
X121695017Y-84768684D01*
X121844983Y-84768684D01*
X121992068Y-84797941D01*
G37*
G36*
X180452068Y-82267941D02*
G01*
X180590619Y-82325330D01*
X180715311Y-82408647D01*
X180821353Y-82514689D01*
X180904670Y-82639381D01*
X180962059Y-82777932D01*
X180991316Y-82925017D01*
X180991316Y-83074983D01*
X180962059Y-83222068D01*
X180904670Y-83360619D01*
X180821353Y-83485311D01*
X180715311Y-83591353D01*
X180590619Y-83674670D01*
X180452068Y-83732059D01*
X180304983Y-83761316D01*
X180155017Y-83761316D01*
X180007932Y-83732059D01*
X179869381Y-83674670D01*
X179744689Y-83591353D01*
X179638647Y-83485311D01*
X179555330Y-83360619D01*
X179497941Y-83222068D01*
X179468684Y-83074983D01*
X179468684Y-82925017D01*
X179497941Y-82777932D01*
X179555330Y-82639381D01*
X179638647Y-82514689D01*
X179744689Y-82408647D01*
X179869381Y-82325330D01*
X180007932Y-82267941D01*
X180155017Y-82238684D01*
X180304983Y-82238684D01*
X180452068Y-82267941D01*
G37*
G36*
X182992068Y-82267941D02*
G01*
X183130619Y-82325330D01*
X183255311Y-82408647D01*
X183361353Y-82514689D01*
X183444670Y-82639381D01*
X183502059Y-82777932D01*
X183531316Y-82925017D01*
X183531316Y-83074983D01*
X183502059Y-83222068D01*
X183444670Y-83360619D01*
X183361353Y-83485311D01*
X183255311Y-83591353D01*
X183130619Y-83674670D01*
X182992068Y-83732059D01*
X182844983Y-83761316D01*
X182695017Y-83761316D01*
X182547932Y-83732059D01*
X182409381Y-83674670D01*
X182284689Y-83591353D01*
X182178647Y-83485311D01*
X182095330Y-83360619D01*
X182037941Y-83222068D01*
X182008684Y-83074983D01*
X182008684Y-82925017D01*
X182037941Y-82777932D01*
X182095330Y-82639381D01*
X182178647Y-82514689D01*
X182284689Y-82408647D01*
X182409381Y-82325330D01*
X182547932Y-82267941D01*
X182695017Y-82238684D01*
X182844983Y-82238684D01*
X182992068Y-82267941D01*
G37*
G36*
X119452068Y-82257941D02*
G01*
X119590619Y-82315330D01*
X119715311Y-82398647D01*
X119821353Y-82504689D01*
X119904670Y-82629381D01*
X119962059Y-82767932D01*
X119991316Y-82915017D01*
X119991316Y-83064983D01*
X119962059Y-83212068D01*
X119904670Y-83350619D01*
X119821353Y-83475311D01*
X119715311Y-83581353D01*
X119590619Y-83664670D01*
X119452068Y-83722059D01*
X119304983Y-83751316D01*
X119155017Y-83751316D01*
X119007932Y-83722059D01*
X118869381Y-83664670D01*
X118744689Y-83581353D01*
X118638647Y-83475311D01*
X118555330Y-83350619D01*
X118497941Y-83212068D01*
X118468684Y-83064983D01*
X118468684Y-82915017D01*
X118497941Y-82767932D01*
X118555330Y-82629381D01*
X118638647Y-82504689D01*
X118744689Y-82398647D01*
X118869381Y-82315330D01*
X119007932Y-82257941D01*
X119155017Y-82228684D01*
X119304983Y-82228684D01*
X119452068Y-82257941D01*
G37*
G36*
X121992068Y-82257941D02*
G01*
X122130619Y-82315330D01*
X122255311Y-82398647D01*
X122361353Y-82504689D01*
X122444670Y-82629381D01*
X122502059Y-82767932D01*
X122531316Y-82915017D01*
X122531316Y-83064983D01*
X122502059Y-83212068D01*
X122444670Y-83350619D01*
X122361353Y-83475311D01*
X122255311Y-83581353D01*
X122130619Y-83664670D01*
X121992068Y-83722059D01*
X121844983Y-83751316D01*
X121695017Y-83751316D01*
X121547932Y-83722059D01*
X121409381Y-83664670D01*
X121284689Y-83581353D01*
X121178647Y-83475311D01*
X121095330Y-83350619D01*
X121037941Y-83212068D01*
X121008684Y-83064983D01*
X121008684Y-82915017D01*
X121037941Y-82767932D01*
X121095330Y-82629381D01*
X121178647Y-82504689D01*
X121284689Y-82398647D01*
X121409381Y-82315330D01*
X121547932Y-82257941D01*
X121695017Y-82228684D01*
X121844983Y-82228684D01*
X121992068Y-82257941D01*
G37*
G36*
X180452068Y-79727941D02*
G01*
X180590619Y-79785330D01*
X180715311Y-79868647D01*
X180821353Y-79974689D01*
X180904670Y-80099381D01*
X180962059Y-80237932D01*
X180991316Y-80385017D01*
X180991316Y-80534983D01*
X180962059Y-80682068D01*
X180904670Y-80820619D01*
X180821353Y-80945311D01*
X180715311Y-81051353D01*
X180590619Y-81134670D01*
X180452068Y-81192059D01*
X180304983Y-81221316D01*
X180155017Y-81221316D01*
X180007932Y-81192059D01*
X179869381Y-81134670D01*
X179744689Y-81051353D01*
X179638647Y-80945311D01*
X179555330Y-80820619D01*
X179497941Y-80682068D01*
X179468684Y-80534983D01*
X179468684Y-80385017D01*
X179497941Y-80237932D01*
X179555330Y-80099381D01*
X179638647Y-79974689D01*
X179744689Y-79868647D01*
X179869381Y-79785330D01*
X180007932Y-79727941D01*
X180155017Y-79698684D01*
X180304983Y-79698684D01*
X180452068Y-79727941D01*
G37*
G36*
X182992068Y-79727941D02*
G01*
X183130619Y-79785330D01*
X183255311Y-79868647D01*
X183361353Y-79974689D01*
X183444670Y-80099381D01*
X183502059Y-80237932D01*
X183531316Y-80385017D01*
X183531316Y-80534983D01*
X183502059Y-80682068D01*
X183444670Y-80820619D01*
X183361353Y-80945311D01*
X183255311Y-81051353D01*
X183130619Y-81134670D01*
X182992068Y-81192059D01*
X182844983Y-81221316D01*
X182695017Y-81221316D01*
X182547932Y-81192059D01*
X182409381Y-81134670D01*
X182284689Y-81051353D01*
X182178647Y-80945311D01*
X182095330Y-80820619D01*
X182037941Y-80682068D01*
X182008684Y-80534983D01*
X182008684Y-80385017D01*
X182037941Y-80237932D01*
X182095330Y-80099381D01*
X182178647Y-79974689D01*
X182284689Y-79868647D01*
X182409381Y-79785330D01*
X182547932Y-79727941D01*
X182695017Y-79698684D01*
X182844983Y-79698684D01*
X182992068Y-79727941D01*
G37*
G36*
X119452068Y-79717941D02*
G01*
X119590619Y-79775330D01*
X119715311Y-79858647D01*
X119821353Y-79964689D01*
X119904670Y-80089381D01*
X119962059Y-80227932D01*
X119991316Y-80375017D01*
X119991316Y-80524983D01*
X119962059Y-80672068D01*
X119904670Y-80810619D01*
X119821353Y-80935311D01*
X119715311Y-81041353D01*
X119590619Y-81124670D01*
X119452068Y-81182059D01*
X119304983Y-81211316D01*
X119155017Y-81211316D01*
X119007932Y-81182059D01*
X118869381Y-81124670D01*
X118744689Y-81041353D01*
X118638647Y-80935311D01*
X118555330Y-80810619D01*
X118497941Y-80672068D01*
X118468684Y-80524983D01*
X118468684Y-80375017D01*
X118497941Y-80227932D01*
X118555330Y-80089381D01*
X118638647Y-79964689D01*
X118744689Y-79858647D01*
X118869381Y-79775330D01*
X119007932Y-79717941D01*
X119155017Y-79688684D01*
X119304983Y-79688684D01*
X119452068Y-79717941D01*
G37*
G36*
X121992068Y-79717941D02*
G01*
X122130619Y-79775330D01*
X122255311Y-79858647D01*
X122361353Y-79964689D01*
X122444670Y-80089381D01*
X122502059Y-80227932D01*
X122531316Y-80375017D01*
X122531316Y-80524983D01*
X122502059Y-80672068D01*
X122444670Y-80810619D01*
X122361353Y-80935311D01*
X122255311Y-81041353D01*
X122130619Y-81124670D01*
X121992068Y-81182059D01*
X121844983Y-81211316D01*
X121695017Y-81211316D01*
X121547932Y-81182059D01*
X121409381Y-81124670D01*
X121284689Y-81041353D01*
X121178647Y-80935311D01*
X121095330Y-80810619D01*
X121037941Y-80672068D01*
X121008684Y-80524983D01*
X121008684Y-80375017D01*
X121037941Y-80227932D01*
X121095330Y-80089381D01*
X121178647Y-79964689D01*
X121284689Y-79858647D01*
X121409381Y-79775330D01*
X121547932Y-79717941D01*
X121695017Y-79688684D01*
X121844983Y-79688684D01*
X121992068Y-79717941D01*
G37*
G36*
X180452068Y-77187941D02*
G01*
X180590619Y-77245330D01*
X180715311Y-77328647D01*
X180821353Y-77434689D01*
X180904670Y-77559381D01*
X180962059Y-77697932D01*
X180991316Y-77845017D01*
X180991316Y-77994983D01*
X180962059Y-78142068D01*
X180904670Y-78280619D01*
X180821353Y-78405311D01*
X180715311Y-78511353D01*
X180590619Y-78594670D01*
X180452068Y-78652059D01*
X180304983Y-78681316D01*
X180155017Y-78681316D01*
X180007932Y-78652059D01*
X179869381Y-78594670D01*
X179744689Y-78511353D01*
X179638647Y-78405311D01*
X179555330Y-78280619D01*
X179497941Y-78142068D01*
X179468684Y-77994983D01*
X179468684Y-77845017D01*
X179497941Y-77697932D01*
X179555330Y-77559381D01*
X179638647Y-77434689D01*
X179744689Y-77328647D01*
X179869381Y-77245330D01*
X180007932Y-77187941D01*
X180155017Y-77158684D01*
X180304983Y-77158684D01*
X180452068Y-77187941D01*
G37*
G36*
X182992068Y-77187941D02*
G01*
X183130619Y-77245330D01*
X183255311Y-77328647D01*
X183361353Y-77434689D01*
X183444670Y-77559381D01*
X183502059Y-77697932D01*
X183531316Y-77845017D01*
X183531316Y-77994983D01*
X183502059Y-78142068D01*
X183444670Y-78280619D01*
X183361353Y-78405311D01*
X183255311Y-78511353D01*
X183130619Y-78594670D01*
X182992068Y-78652059D01*
X182844983Y-78681316D01*
X182695017Y-78681316D01*
X182547932Y-78652059D01*
X182409381Y-78594670D01*
X182284689Y-78511353D01*
X182178647Y-78405311D01*
X182095330Y-78280619D01*
X182037941Y-78142068D01*
X182008684Y-77994983D01*
X182008684Y-77845017D01*
X182037941Y-77697932D01*
X182095330Y-77559381D01*
X182178647Y-77434689D01*
X182284689Y-77328647D01*
X182409381Y-77245330D01*
X182547932Y-77187941D01*
X182695017Y-77158684D01*
X182844983Y-77158684D01*
X182992068Y-77187941D01*
G37*
G36*
X119452068Y-77177941D02*
G01*
X119590619Y-77235330D01*
X119715311Y-77318647D01*
X119821353Y-77424689D01*
X119904670Y-77549381D01*
X119962059Y-77687932D01*
X119991316Y-77835017D01*
X119991316Y-77984983D01*
X119962059Y-78132068D01*
X119904670Y-78270619D01*
X119821353Y-78395311D01*
X119715311Y-78501353D01*
X119590619Y-78584670D01*
X119452068Y-78642059D01*
X119304983Y-78671316D01*
X119155017Y-78671316D01*
X119007932Y-78642059D01*
X118869381Y-78584670D01*
X118744689Y-78501353D01*
X118638647Y-78395311D01*
X118555330Y-78270619D01*
X118497941Y-78132068D01*
X118468684Y-77984983D01*
X118468684Y-77835017D01*
X118497941Y-77687932D01*
X118555330Y-77549381D01*
X118638647Y-77424689D01*
X118744689Y-77318647D01*
X118869381Y-77235330D01*
X119007932Y-77177941D01*
X119155017Y-77148684D01*
X119304983Y-77148684D01*
X119452068Y-77177941D01*
G37*
G36*
X121992068Y-77177941D02*
G01*
X122130619Y-77235330D01*
X122255311Y-77318647D01*
X122361353Y-77424689D01*
X122444670Y-77549381D01*
X122502059Y-77687932D01*
X122531316Y-77835017D01*
X122531316Y-77984983D01*
X122502059Y-78132068D01*
X122444670Y-78270619D01*
X122361353Y-78395311D01*
X122255311Y-78501353D01*
X122130619Y-78584670D01*
X121992068Y-78642059D01*
X121844983Y-78671316D01*
X121695017Y-78671316D01*
X121547932Y-78642059D01*
X121409381Y-78584670D01*
X121284689Y-78501353D01*
X121178647Y-78395311D01*
X121095330Y-78270619D01*
X121037941Y-78132068D01*
X121008684Y-77984983D01*
X121008684Y-77835017D01*
X121037941Y-77687932D01*
X121095330Y-77549381D01*
X121178647Y-77424689D01*
X121284689Y-77318647D01*
X121409381Y-77235330D01*
X121547932Y-77177941D01*
X121695017Y-77148684D01*
X121844983Y-77148684D01*
X121992068Y-77177941D01*
G37*
G36*
X180452068Y-74647941D02*
G01*
X180590619Y-74705330D01*
X180715311Y-74788647D01*
X180821353Y-74894689D01*
X180904670Y-75019381D01*
X180962059Y-75157932D01*
X180991316Y-75305017D01*
X180991316Y-75454983D01*
X180962059Y-75602068D01*
X180904670Y-75740619D01*
X180821353Y-75865311D01*
X180715311Y-75971353D01*
X180590619Y-76054670D01*
X180452068Y-76112059D01*
X180304983Y-76141316D01*
X180155017Y-76141316D01*
X180007932Y-76112059D01*
X179869381Y-76054670D01*
X179744689Y-75971353D01*
X179638647Y-75865311D01*
X179555330Y-75740619D01*
X179497941Y-75602068D01*
X179468684Y-75454983D01*
X179468684Y-75305017D01*
X179497941Y-75157932D01*
X179555330Y-75019381D01*
X179638647Y-74894689D01*
X179744689Y-74788647D01*
X179869381Y-74705330D01*
X180007932Y-74647941D01*
X180155017Y-74618684D01*
X180304983Y-74618684D01*
X180452068Y-74647941D01*
G37*
G36*
X182992068Y-74647941D02*
G01*
X183130619Y-74705330D01*
X183255311Y-74788647D01*
X183361353Y-74894689D01*
X183444670Y-75019381D01*
X183502059Y-75157932D01*
X183531316Y-75305017D01*
X183531316Y-75454983D01*
X183502059Y-75602068D01*
X183444670Y-75740619D01*
X183361353Y-75865311D01*
X183255311Y-75971353D01*
X183130619Y-76054670D01*
X182992068Y-76112059D01*
X182844983Y-76141316D01*
X182695017Y-76141316D01*
X182547932Y-76112059D01*
X182409381Y-76054670D01*
X182284689Y-75971353D01*
X182178647Y-75865311D01*
X182095330Y-75740619D01*
X182037941Y-75602068D01*
X182008684Y-75454983D01*
X182008684Y-75305017D01*
X182037941Y-75157932D01*
X182095330Y-75019381D01*
X182178647Y-74894689D01*
X182284689Y-74788647D01*
X182409381Y-74705330D01*
X182547932Y-74647941D01*
X182695017Y-74618684D01*
X182844983Y-74618684D01*
X182992068Y-74647941D01*
G37*
G36*
X119452068Y-74637941D02*
G01*
X119590619Y-74695330D01*
X119715311Y-74778647D01*
X119821353Y-74884689D01*
X119904670Y-75009381D01*
X119962059Y-75147932D01*
X119991316Y-75295017D01*
X119991316Y-75444983D01*
X119962059Y-75592068D01*
X119904670Y-75730619D01*
X119821353Y-75855311D01*
X119715311Y-75961353D01*
X119590619Y-76044670D01*
X119452068Y-76102059D01*
X119304983Y-76131316D01*
X119155017Y-76131316D01*
X119007932Y-76102059D01*
X118869381Y-76044670D01*
X118744689Y-75961353D01*
X118638647Y-75855311D01*
X118555330Y-75730619D01*
X118497941Y-75592068D01*
X118468684Y-75444983D01*
X118468684Y-75295017D01*
X118497941Y-75147932D01*
X118555330Y-75009381D01*
X118638647Y-74884689D01*
X118744689Y-74778647D01*
X118869381Y-74695330D01*
X119007932Y-74637941D01*
X119155017Y-74608684D01*
X119304983Y-74608684D01*
X119452068Y-74637941D01*
G37*
G36*
X121992068Y-74637941D02*
G01*
X122130619Y-74695330D01*
X122255311Y-74778647D01*
X122361353Y-74884689D01*
X122444670Y-75009381D01*
X122502059Y-75147932D01*
X122531316Y-75295017D01*
X122531316Y-75444983D01*
X122502059Y-75592068D01*
X122444670Y-75730619D01*
X122361353Y-75855311D01*
X122255311Y-75961353D01*
X122130619Y-76044670D01*
X121992068Y-76102059D01*
X121844983Y-76131316D01*
X121695017Y-76131316D01*
X121547932Y-76102059D01*
X121409381Y-76044670D01*
X121284689Y-75961353D01*
X121178647Y-75855311D01*
X121095330Y-75730619D01*
X121037941Y-75592068D01*
X121008684Y-75444983D01*
X121008684Y-75295017D01*
X121037941Y-75147932D01*
X121095330Y-75009381D01*
X121178647Y-74884689D01*
X121284689Y-74778647D01*
X121409381Y-74695330D01*
X121547932Y-74637941D01*
X121695017Y-74608684D01*
X121844983Y-74608684D01*
X121992068Y-74637941D01*
G37*
G36*
X180452068Y-72107941D02*
G01*
X180590619Y-72165330D01*
X180715311Y-72248647D01*
X180821353Y-72354689D01*
X180904670Y-72479381D01*
X180962059Y-72617932D01*
X180991316Y-72765017D01*
X180991316Y-72914983D01*
X180962059Y-73062068D01*
X180904670Y-73200619D01*
X180821353Y-73325311D01*
X180715311Y-73431353D01*
X180590619Y-73514670D01*
X180452068Y-73572059D01*
X180304983Y-73601316D01*
X180155017Y-73601316D01*
X180007932Y-73572059D01*
X179869381Y-73514670D01*
X179744689Y-73431353D01*
X179638647Y-73325311D01*
X179555330Y-73200619D01*
X179497941Y-73062068D01*
X179468684Y-72914983D01*
X179468684Y-72765017D01*
X179497941Y-72617932D01*
X179555330Y-72479381D01*
X179638647Y-72354689D01*
X179744689Y-72248647D01*
X179869381Y-72165330D01*
X180007932Y-72107941D01*
X180155017Y-72078684D01*
X180304983Y-72078684D01*
X180452068Y-72107941D01*
G37*
G36*
X182992068Y-72107941D02*
G01*
X183130619Y-72165330D01*
X183255311Y-72248647D01*
X183361353Y-72354689D01*
X183444670Y-72479381D01*
X183502059Y-72617932D01*
X183531316Y-72765017D01*
X183531316Y-72914983D01*
X183502059Y-73062068D01*
X183444670Y-73200619D01*
X183361353Y-73325311D01*
X183255311Y-73431353D01*
X183130619Y-73514670D01*
X182992068Y-73572059D01*
X182844983Y-73601316D01*
X182695017Y-73601316D01*
X182547932Y-73572059D01*
X182409381Y-73514670D01*
X182284689Y-73431353D01*
X182178647Y-73325311D01*
X182095330Y-73200619D01*
X182037941Y-73062068D01*
X182008684Y-72914983D01*
X182008684Y-72765017D01*
X182037941Y-72617932D01*
X182095330Y-72479381D01*
X182178647Y-72354689D01*
X182284689Y-72248647D01*
X182409381Y-72165330D01*
X182547932Y-72107941D01*
X182695017Y-72078684D01*
X182844983Y-72078684D01*
X182992068Y-72107941D01*
G37*
G36*
X119452068Y-72097941D02*
G01*
X119590619Y-72155330D01*
X119715311Y-72238647D01*
X119821353Y-72344689D01*
X119904670Y-72469381D01*
X119962059Y-72607932D01*
X119991316Y-72755017D01*
X119991316Y-72904983D01*
X119962059Y-73052068D01*
X119904670Y-73190619D01*
X119821353Y-73315311D01*
X119715311Y-73421353D01*
X119590619Y-73504670D01*
X119452068Y-73562059D01*
X119304983Y-73591316D01*
X119155017Y-73591316D01*
X119007932Y-73562059D01*
X118869381Y-73504670D01*
X118744689Y-73421353D01*
X118638647Y-73315311D01*
X118555330Y-73190619D01*
X118497941Y-73052068D01*
X118468684Y-72904983D01*
X118468684Y-72755017D01*
X118497941Y-72607932D01*
X118555330Y-72469381D01*
X118638647Y-72344689D01*
X118744689Y-72238647D01*
X118869381Y-72155330D01*
X119007932Y-72097941D01*
X119155017Y-72068684D01*
X119304983Y-72068684D01*
X119452068Y-72097941D01*
G37*
G36*
X121992068Y-72097941D02*
G01*
X122130619Y-72155330D01*
X122255311Y-72238647D01*
X122361353Y-72344689D01*
X122444670Y-72469381D01*
X122502059Y-72607932D01*
X122531316Y-72755017D01*
X122531316Y-72904983D01*
X122502059Y-73052068D01*
X122444670Y-73190619D01*
X122361353Y-73315311D01*
X122255311Y-73421353D01*
X122130619Y-73504670D01*
X121992068Y-73562059D01*
X121844983Y-73591316D01*
X121695017Y-73591316D01*
X121547932Y-73562059D01*
X121409381Y-73504670D01*
X121284689Y-73421353D01*
X121178647Y-73315311D01*
X121095330Y-73190619D01*
X121037941Y-73052068D01*
X121008684Y-72904983D01*
X121008684Y-72755017D01*
X121037941Y-72607932D01*
X121095330Y-72469381D01*
X121178647Y-72344689D01*
X121284689Y-72238647D01*
X121409381Y-72155330D01*
X121547932Y-72097941D01*
X121695017Y-72068684D01*
X121844983Y-72068684D01*
X121992068Y-72097941D01*
G37*
G36*
X180452068Y-69567941D02*
G01*
X180590619Y-69625330D01*
X180715311Y-69708647D01*
X180821353Y-69814689D01*
X180904670Y-69939381D01*
X180962059Y-70077932D01*
X180991316Y-70225017D01*
X180991316Y-70374983D01*
X180962059Y-70522068D01*
X180904670Y-70660619D01*
X180821353Y-70785311D01*
X180715311Y-70891353D01*
X180590619Y-70974670D01*
X180452068Y-71032059D01*
X180304983Y-71061316D01*
X180155017Y-71061316D01*
X180007932Y-71032059D01*
X179869381Y-70974670D01*
X179744689Y-70891353D01*
X179638647Y-70785311D01*
X179555330Y-70660619D01*
X179497941Y-70522068D01*
X179468684Y-70374983D01*
X179468684Y-70225017D01*
X179497941Y-70077932D01*
X179555330Y-69939381D01*
X179638647Y-69814689D01*
X179744689Y-69708647D01*
X179869381Y-69625330D01*
X180007932Y-69567941D01*
X180155017Y-69538684D01*
X180304983Y-69538684D01*
X180452068Y-69567941D01*
G37*
G36*
X182992068Y-69567941D02*
G01*
X183130619Y-69625330D01*
X183255311Y-69708647D01*
X183361353Y-69814689D01*
X183444670Y-69939381D01*
X183502059Y-70077932D01*
X183531316Y-70225017D01*
X183531316Y-70374983D01*
X183502059Y-70522068D01*
X183444670Y-70660619D01*
X183361353Y-70785311D01*
X183255311Y-70891353D01*
X183130619Y-70974670D01*
X182992068Y-71032059D01*
X182844983Y-71061316D01*
X182695017Y-71061316D01*
X182547932Y-71032059D01*
X182409381Y-70974670D01*
X182284689Y-70891353D01*
X182178647Y-70785311D01*
X182095330Y-70660619D01*
X182037941Y-70522068D01*
X182008684Y-70374983D01*
X182008684Y-70225017D01*
X182037941Y-70077932D01*
X182095330Y-69939381D01*
X182178647Y-69814689D01*
X182284689Y-69708647D01*
X182409381Y-69625330D01*
X182547932Y-69567941D01*
X182695017Y-69538684D01*
X182844983Y-69538684D01*
X182992068Y-69567941D01*
G37*
G36*
X119452068Y-69557941D02*
G01*
X119590619Y-69615330D01*
X119715311Y-69698647D01*
X119821353Y-69804689D01*
X119904670Y-69929381D01*
X119962059Y-70067932D01*
X119991316Y-70215017D01*
X119991316Y-70364983D01*
X119962059Y-70512068D01*
X119904670Y-70650619D01*
X119821353Y-70775311D01*
X119715311Y-70881353D01*
X119590619Y-70964670D01*
X119452068Y-71022059D01*
X119304983Y-71051316D01*
X119155017Y-71051316D01*
X119007932Y-71022059D01*
X118869381Y-70964670D01*
X118744689Y-70881353D01*
X118638647Y-70775311D01*
X118555330Y-70650619D01*
X118497941Y-70512068D01*
X118468684Y-70364983D01*
X118468684Y-70215017D01*
X118497941Y-70067932D01*
X118555330Y-69929381D01*
X118638647Y-69804689D01*
X118744689Y-69698647D01*
X118869381Y-69615330D01*
X119007932Y-69557941D01*
X119155017Y-69528684D01*
X119304983Y-69528684D01*
X119452068Y-69557941D01*
G37*
G36*
X121992068Y-69557941D02*
G01*
X122130619Y-69615330D01*
X122255311Y-69698647D01*
X122361353Y-69804689D01*
X122444670Y-69929381D01*
X122502059Y-70067932D01*
X122531316Y-70215017D01*
X122531316Y-70364983D01*
X122502059Y-70512068D01*
X122444670Y-70650619D01*
X122361353Y-70775311D01*
X122255311Y-70881353D01*
X122130619Y-70964670D01*
X121992068Y-71022059D01*
X121844983Y-71051316D01*
X121695017Y-71051316D01*
X121547932Y-71022059D01*
X121409381Y-70964670D01*
X121284689Y-70881353D01*
X121178647Y-70775311D01*
X121095330Y-70650619D01*
X121037941Y-70512068D01*
X121008684Y-70364983D01*
X121008684Y-70215017D01*
X121037941Y-70067932D01*
X121095330Y-69929381D01*
X121178647Y-69804689D01*
X121284689Y-69698647D01*
X121409381Y-69615330D01*
X121547932Y-69557941D01*
X121695017Y-69528684D01*
X121844983Y-69528684D01*
X121992068Y-69557941D01*
G37*
G36*
X180452068Y-67027941D02*
G01*
X180590619Y-67085330D01*
X180715311Y-67168647D01*
X180821353Y-67274689D01*
X180904670Y-67399381D01*
X180962059Y-67537932D01*
X180991316Y-67685017D01*
X180991316Y-67834983D01*
X180962059Y-67982068D01*
X180904670Y-68120619D01*
X180821353Y-68245311D01*
X180715311Y-68351353D01*
X180590619Y-68434670D01*
X180452068Y-68492059D01*
X180304983Y-68521316D01*
X180155017Y-68521316D01*
X180007932Y-68492059D01*
X179869381Y-68434670D01*
X179744689Y-68351353D01*
X179638647Y-68245311D01*
X179555330Y-68120619D01*
X179497941Y-67982068D01*
X179468684Y-67834983D01*
X179468684Y-67685017D01*
X179497941Y-67537932D01*
X179555330Y-67399381D01*
X179638647Y-67274689D01*
X179744689Y-67168647D01*
X179869381Y-67085330D01*
X180007932Y-67027941D01*
X180155017Y-66998684D01*
X180304983Y-66998684D01*
X180452068Y-67027941D01*
G37*
G36*
X182992068Y-67027941D02*
G01*
X183130619Y-67085330D01*
X183255311Y-67168647D01*
X183361353Y-67274689D01*
X183444670Y-67399381D01*
X183502059Y-67537932D01*
X183531316Y-67685017D01*
X183531316Y-67834983D01*
X183502059Y-67982068D01*
X183444670Y-68120619D01*
X183361353Y-68245311D01*
X183255311Y-68351353D01*
X183130619Y-68434670D01*
X182992068Y-68492059D01*
X182844983Y-68521316D01*
X182695017Y-68521316D01*
X182547932Y-68492059D01*
X182409381Y-68434670D01*
X182284689Y-68351353D01*
X182178647Y-68245311D01*
X182095330Y-68120619D01*
X182037941Y-67982068D01*
X182008684Y-67834983D01*
X182008684Y-67685017D01*
X182037941Y-67537932D01*
X182095330Y-67399381D01*
X182178647Y-67274689D01*
X182284689Y-67168647D01*
X182409381Y-67085330D01*
X182547932Y-67027941D01*
X182695017Y-66998684D01*
X182844983Y-66998684D01*
X182992068Y-67027941D01*
G37*
G36*
X119452068Y-67017941D02*
G01*
X119590619Y-67075330D01*
X119715311Y-67158647D01*
X119821353Y-67264689D01*
X119904670Y-67389381D01*
X119962059Y-67527932D01*
X119991316Y-67675017D01*
X119991316Y-67824983D01*
X119962059Y-67972068D01*
X119904670Y-68110619D01*
X119821353Y-68235311D01*
X119715311Y-68341353D01*
X119590619Y-68424670D01*
X119452068Y-68482059D01*
X119304983Y-68511316D01*
X119155017Y-68511316D01*
X119007932Y-68482059D01*
X118869381Y-68424670D01*
X118744689Y-68341353D01*
X118638647Y-68235311D01*
X118555330Y-68110619D01*
X118497941Y-67972068D01*
X118468684Y-67824983D01*
X118468684Y-67675017D01*
X118497941Y-67527932D01*
X118555330Y-67389381D01*
X118638647Y-67264689D01*
X118744689Y-67158647D01*
X118869381Y-67075330D01*
X119007932Y-67017941D01*
X119155017Y-66988684D01*
X119304983Y-66988684D01*
X119452068Y-67017941D01*
G37*
G36*
X121992068Y-67017941D02*
G01*
X122130619Y-67075330D01*
X122255311Y-67158647D01*
X122361353Y-67264689D01*
X122444670Y-67389381D01*
X122502059Y-67527932D01*
X122531316Y-67675017D01*
X122531316Y-67824983D01*
X122502059Y-67972068D01*
X122444670Y-68110619D01*
X122361353Y-68235311D01*
X122255311Y-68341353D01*
X122130619Y-68424670D01*
X121992068Y-68482059D01*
X121844983Y-68511316D01*
X121695017Y-68511316D01*
X121547932Y-68482059D01*
X121409381Y-68424670D01*
X121284689Y-68341353D01*
X121178647Y-68235311D01*
X121095330Y-68110619D01*
X121037941Y-67972068D01*
X121008684Y-67824983D01*
X121008684Y-67675017D01*
X121037941Y-67527932D01*
X121095330Y-67389381D01*
X121178647Y-67264689D01*
X121284689Y-67158647D01*
X121409381Y-67075330D01*
X121547932Y-67017941D01*
X121695017Y-66988684D01*
X121844983Y-66988684D01*
X121992068Y-67017941D01*
G37*
G36*
X180452068Y-64487941D02*
G01*
X180590619Y-64545330D01*
X180715311Y-64628647D01*
X180821353Y-64734689D01*
X180904670Y-64859381D01*
X180962059Y-64997932D01*
X180991316Y-65145017D01*
X180991316Y-65294983D01*
X180962059Y-65442068D01*
X180904670Y-65580619D01*
X180821353Y-65705311D01*
X180715311Y-65811353D01*
X180590619Y-65894670D01*
X180452068Y-65952059D01*
X180304983Y-65981316D01*
X180155017Y-65981316D01*
X180007932Y-65952059D01*
X179869381Y-65894670D01*
X179744689Y-65811353D01*
X179638647Y-65705311D01*
X179555330Y-65580619D01*
X179497941Y-65442068D01*
X179468684Y-65294983D01*
X179468684Y-65145017D01*
X179497941Y-64997932D01*
X179555330Y-64859381D01*
X179638647Y-64734689D01*
X179744689Y-64628647D01*
X179869381Y-64545330D01*
X180007932Y-64487941D01*
X180155017Y-64458684D01*
X180304983Y-64458684D01*
X180452068Y-64487941D01*
G37*
G36*
X182992068Y-64487941D02*
G01*
X183130619Y-64545330D01*
X183255311Y-64628647D01*
X183361353Y-64734689D01*
X183444670Y-64859381D01*
X183502059Y-64997932D01*
X183531316Y-65145017D01*
X183531316Y-65294983D01*
X183502059Y-65442068D01*
X183444670Y-65580619D01*
X183361353Y-65705311D01*
X183255311Y-65811353D01*
X183130619Y-65894670D01*
X182992068Y-65952059D01*
X182844983Y-65981316D01*
X182695017Y-65981316D01*
X182547932Y-65952059D01*
X182409381Y-65894670D01*
X182284689Y-65811353D01*
X182178647Y-65705311D01*
X182095330Y-65580619D01*
X182037941Y-65442068D01*
X182008684Y-65294983D01*
X182008684Y-65145017D01*
X182037941Y-64997932D01*
X182095330Y-64859381D01*
X182178647Y-64734689D01*
X182284689Y-64628647D01*
X182409381Y-64545330D01*
X182547932Y-64487941D01*
X182695017Y-64458684D01*
X182844983Y-64458684D01*
X182992068Y-64487941D01*
G37*
G36*
X119452068Y-64477941D02*
G01*
X119590619Y-64535330D01*
X119715311Y-64618647D01*
X119821353Y-64724689D01*
X119904670Y-64849381D01*
X119962059Y-64987932D01*
X119991316Y-65135017D01*
X119991316Y-65284983D01*
X119962059Y-65432068D01*
X119904670Y-65570619D01*
X119821353Y-65695311D01*
X119715311Y-65801353D01*
X119590619Y-65884670D01*
X119452068Y-65942059D01*
X119304983Y-65971316D01*
X119155017Y-65971316D01*
X119007932Y-65942059D01*
X118869381Y-65884670D01*
X118744689Y-65801353D01*
X118638647Y-65695311D01*
X118555330Y-65570619D01*
X118497941Y-65432068D01*
X118468684Y-65284983D01*
X118468684Y-65135017D01*
X118497941Y-64987932D01*
X118555330Y-64849381D01*
X118638647Y-64724689D01*
X118744689Y-64618647D01*
X118869381Y-64535330D01*
X119007932Y-64477941D01*
X119155017Y-64448684D01*
X119304983Y-64448684D01*
X119452068Y-64477941D01*
G37*
G36*
X121992068Y-64477941D02*
G01*
X122130619Y-64535330D01*
X122255311Y-64618647D01*
X122361353Y-64724689D01*
X122444670Y-64849381D01*
X122502059Y-64987932D01*
X122531316Y-65135017D01*
X122531316Y-65284983D01*
X122502059Y-65432068D01*
X122444670Y-65570619D01*
X122361353Y-65695311D01*
X122255311Y-65801353D01*
X122130619Y-65884670D01*
X121992068Y-65942059D01*
X121844983Y-65971316D01*
X121695017Y-65971316D01*
X121547932Y-65942059D01*
X121409381Y-65884670D01*
X121284689Y-65801353D01*
X121178647Y-65695311D01*
X121095330Y-65570619D01*
X121037941Y-65432068D01*
X121008684Y-65284983D01*
X121008684Y-65135017D01*
X121037941Y-64987932D01*
X121095330Y-64849381D01*
X121178647Y-64724689D01*
X121284689Y-64618647D01*
X121409381Y-64535330D01*
X121547932Y-64477941D01*
X121695017Y-64448684D01*
X121844983Y-64448684D01*
X121992068Y-64477941D01*
G37*
G36*
X180452068Y-61947941D02*
G01*
X180590619Y-62005330D01*
X180715311Y-62088647D01*
X180821353Y-62194689D01*
X180904670Y-62319381D01*
X180962059Y-62457932D01*
X180991316Y-62605017D01*
X180991316Y-62754983D01*
X180962059Y-62902068D01*
X180904670Y-63040619D01*
X180821353Y-63165311D01*
X180715311Y-63271353D01*
X180590619Y-63354670D01*
X180452068Y-63412059D01*
X180304983Y-63441316D01*
X180155017Y-63441316D01*
X180007932Y-63412059D01*
X179869381Y-63354670D01*
X179744689Y-63271353D01*
X179638647Y-63165311D01*
X179555330Y-63040619D01*
X179497941Y-62902068D01*
X179468684Y-62754983D01*
X179468684Y-62605017D01*
X179497941Y-62457932D01*
X179555330Y-62319381D01*
X179638647Y-62194689D01*
X179744689Y-62088647D01*
X179869381Y-62005330D01*
X180007932Y-61947941D01*
X180155017Y-61918684D01*
X180304983Y-61918684D01*
X180452068Y-61947941D01*
G37*
G36*
X182992068Y-61947941D02*
G01*
X183130619Y-62005330D01*
X183255311Y-62088647D01*
X183361353Y-62194689D01*
X183444670Y-62319381D01*
X183502059Y-62457932D01*
X183531316Y-62605017D01*
X183531316Y-62754983D01*
X183502059Y-62902068D01*
X183444670Y-63040619D01*
X183361353Y-63165311D01*
X183255311Y-63271353D01*
X183130619Y-63354670D01*
X182992068Y-63412059D01*
X182844983Y-63441316D01*
X182695017Y-63441316D01*
X182547932Y-63412059D01*
X182409381Y-63354670D01*
X182284689Y-63271353D01*
X182178647Y-63165311D01*
X182095330Y-63040619D01*
X182037941Y-62902068D01*
X182008684Y-62754983D01*
X182008684Y-62605017D01*
X182037941Y-62457932D01*
X182095330Y-62319381D01*
X182178647Y-62194689D01*
X182284689Y-62088647D01*
X182409381Y-62005330D01*
X182547932Y-61947941D01*
X182695017Y-61918684D01*
X182844983Y-61918684D01*
X182992068Y-61947941D01*
G37*
G36*
X119452068Y-61937941D02*
G01*
X119590619Y-61995330D01*
X119715311Y-62078647D01*
X119821353Y-62184689D01*
X119904670Y-62309381D01*
X119962059Y-62447932D01*
X119991316Y-62595017D01*
X119991316Y-62744983D01*
X119962059Y-62892068D01*
X119904670Y-63030619D01*
X119821353Y-63155311D01*
X119715311Y-63261353D01*
X119590619Y-63344670D01*
X119452068Y-63402059D01*
X119304983Y-63431316D01*
X119155017Y-63431316D01*
X119007932Y-63402059D01*
X118869381Y-63344670D01*
X118744689Y-63261353D01*
X118638647Y-63155311D01*
X118555330Y-63030619D01*
X118497941Y-62892068D01*
X118468684Y-62744983D01*
X118468684Y-62595017D01*
X118497941Y-62447932D01*
X118555330Y-62309381D01*
X118638647Y-62184689D01*
X118744689Y-62078647D01*
X118869381Y-61995330D01*
X119007932Y-61937941D01*
X119155017Y-61908684D01*
X119304983Y-61908684D01*
X119452068Y-61937941D01*
G37*
G36*
X121992068Y-61937941D02*
G01*
X122130619Y-61995330D01*
X122255311Y-62078647D01*
X122361353Y-62184689D01*
X122444670Y-62309381D01*
X122502059Y-62447932D01*
X122531316Y-62595017D01*
X122531316Y-62744983D01*
X122502059Y-62892068D01*
X122444670Y-63030619D01*
X122361353Y-63155311D01*
X122255311Y-63261353D01*
X122130619Y-63344670D01*
X121992068Y-63402059D01*
X121844983Y-63431316D01*
X121695017Y-63431316D01*
X121547932Y-63402059D01*
X121409381Y-63344670D01*
X121284689Y-63261353D01*
X121178647Y-63155311D01*
X121095330Y-63030619D01*
X121037941Y-62892068D01*
X121008684Y-62744983D01*
X121008684Y-62595017D01*
X121037941Y-62447932D01*
X121095330Y-62309381D01*
X121178647Y-62184689D01*
X121284689Y-62078647D01*
X121409381Y-61995330D01*
X121547932Y-61937941D01*
X121695017Y-61908684D01*
X121844983Y-61908684D01*
X121992068Y-61937941D01*
G37*
G36*
X180452068Y-59407941D02*
G01*
X180590619Y-59465330D01*
X180715311Y-59548647D01*
X180821353Y-59654689D01*
X180904670Y-59779381D01*
X180962059Y-59917932D01*
X180991316Y-60065017D01*
X180991316Y-60214983D01*
X180962059Y-60362068D01*
X180904670Y-60500619D01*
X180821353Y-60625311D01*
X180715311Y-60731353D01*
X180590619Y-60814670D01*
X180452068Y-60872059D01*
X180304983Y-60901316D01*
X180155017Y-60901316D01*
X180007932Y-60872059D01*
X179869381Y-60814670D01*
X179744689Y-60731353D01*
X179638647Y-60625311D01*
X179555330Y-60500619D01*
X179497941Y-60362068D01*
X179468684Y-60214983D01*
X179468684Y-60065017D01*
X179497941Y-59917932D01*
X179555330Y-59779381D01*
X179638647Y-59654689D01*
X179744689Y-59548647D01*
X179869381Y-59465330D01*
X180007932Y-59407941D01*
X180155017Y-59378684D01*
X180304983Y-59378684D01*
X180452068Y-59407941D01*
G37*
G36*
X182992068Y-59407941D02*
G01*
X183130619Y-59465330D01*
X183255311Y-59548647D01*
X183361353Y-59654689D01*
X183444670Y-59779381D01*
X183502059Y-59917932D01*
X183531316Y-60065017D01*
X183531316Y-60214983D01*
X183502059Y-60362068D01*
X183444670Y-60500619D01*
X183361353Y-60625311D01*
X183255311Y-60731353D01*
X183130619Y-60814670D01*
X182992068Y-60872059D01*
X182844983Y-60901316D01*
X182695017Y-60901316D01*
X182547932Y-60872059D01*
X182409381Y-60814670D01*
X182284689Y-60731353D01*
X182178647Y-60625311D01*
X182095330Y-60500619D01*
X182037941Y-60362068D01*
X182008684Y-60214983D01*
X182008684Y-60065017D01*
X182037941Y-59917932D01*
X182095330Y-59779381D01*
X182178647Y-59654689D01*
X182284689Y-59548647D01*
X182409381Y-59465330D01*
X182547932Y-59407941D01*
X182695017Y-59378684D01*
X182844983Y-59378684D01*
X182992068Y-59407941D01*
G37*
G36*
X119452068Y-59397941D02*
G01*
X119590619Y-59455330D01*
X119715311Y-59538647D01*
X119821353Y-59644689D01*
X119904670Y-59769381D01*
X119962059Y-59907932D01*
X119991316Y-60055017D01*
X119991316Y-60204983D01*
X119962059Y-60352068D01*
X119904670Y-60490619D01*
X119821353Y-60615311D01*
X119715311Y-60721353D01*
X119590619Y-60804670D01*
X119452068Y-60862059D01*
X119304983Y-60891316D01*
X119155017Y-60891316D01*
X119007932Y-60862059D01*
X118869381Y-60804670D01*
X118744689Y-60721353D01*
X118638647Y-60615311D01*
X118555330Y-60490619D01*
X118497941Y-60352068D01*
X118468684Y-60204983D01*
X118468684Y-60055017D01*
X118497941Y-59907932D01*
X118555330Y-59769381D01*
X118638647Y-59644689D01*
X118744689Y-59538647D01*
X118869381Y-59455330D01*
X119007932Y-59397941D01*
X119155017Y-59368684D01*
X119304983Y-59368684D01*
X119452068Y-59397941D01*
G37*
G36*
X121992068Y-59397941D02*
G01*
X122130619Y-59455330D01*
X122255311Y-59538647D01*
X122361353Y-59644689D01*
X122444670Y-59769381D01*
X122502059Y-59907932D01*
X122531316Y-60055017D01*
X122531316Y-60204983D01*
X122502059Y-60352068D01*
X122444670Y-60490619D01*
X122361353Y-60615311D01*
X122255311Y-60721353D01*
X122130619Y-60804670D01*
X121992068Y-60862059D01*
X121844983Y-60891316D01*
X121695017Y-60891316D01*
X121547932Y-60862059D01*
X121409381Y-60804670D01*
X121284689Y-60721353D01*
X121178647Y-60615311D01*
X121095330Y-60490619D01*
X121037941Y-60352068D01*
X121008684Y-60204983D01*
X121008684Y-60055017D01*
X121037941Y-59907932D01*
X121095330Y-59769381D01*
X121178647Y-59644689D01*
X121284689Y-59538647D01*
X121409381Y-59455330D01*
X121547932Y-59397941D01*
X121695017Y-59368684D01*
X121844983Y-59368684D01*
X121992068Y-59397941D01*
G37*
G36*
X180452068Y-56867941D02*
G01*
X180590619Y-56925330D01*
X180715311Y-57008647D01*
X180821353Y-57114689D01*
X180904670Y-57239381D01*
X180962059Y-57377932D01*
X180991316Y-57525017D01*
X180991316Y-57674983D01*
X180962059Y-57822068D01*
X180904670Y-57960619D01*
X180821353Y-58085311D01*
X180715311Y-58191353D01*
X180590619Y-58274670D01*
X180452068Y-58332059D01*
X180304983Y-58361316D01*
X180155017Y-58361316D01*
X180007932Y-58332059D01*
X179869381Y-58274670D01*
X179744689Y-58191353D01*
X179638647Y-58085311D01*
X179555330Y-57960619D01*
X179497941Y-57822068D01*
X179468684Y-57674983D01*
X179468684Y-57525017D01*
X179497941Y-57377932D01*
X179555330Y-57239381D01*
X179638647Y-57114689D01*
X179744689Y-57008647D01*
X179869381Y-56925330D01*
X180007932Y-56867941D01*
X180155017Y-56838684D01*
X180304983Y-56838684D01*
X180452068Y-56867941D01*
G37*
G36*
X182992068Y-56867941D02*
G01*
X183130619Y-56925330D01*
X183255311Y-57008647D01*
X183361353Y-57114689D01*
X183444670Y-57239381D01*
X183502059Y-57377932D01*
X183531316Y-57525017D01*
X183531316Y-57674983D01*
X183502059Y-57822068D01*
X183444670Y-57960619D01*
X183361353Y-58085311D01*
X183255311Y-58191353D01*
X183130619Y-58274670D01*
X182992068Y-58332059D01*
X182844983Y-58361316D01*
X182695017Y-58361316D01*
X182547932Y-58332059D01*
X182409381Y-58274670D01*
X182284689Y-58191353D01*
X182178647Y-58085311D01*
X182095330Y-57960619D01*
X182037941Y-57822068D01*
X182008684Y-57674983D01*
X182008684Y-57525017D01*
X182037941Y-57377932D01*
X182095330Y-57239381D01*
X182178647Y-57114689D01*
X182284689Y-57008647D01*
X182409381Y-56925330D01*
X182547932Y-56867941D01*
X182695017Y-56838684D01*
X182844983Y-56838684D01*
X182992068Y-56867941D01*
G37*
G36*
X119452068Y-56857941D02*
G01*
X119590619Y-56915330D01*
X119715311Y-56998647D01*
X119821353Y-57104689D01*
X119904670Y-57229381D01*
X119962059Y-57367932D01*
X119991316Y-57515017D01*
X119991316Y-57664983D01*
X119962059Y-57812068D01*
X119904670Y-57950619D01*
X119821353Y-58075311D01*
X119715311Y-58181353D01*
X119590619Y-58264670D01*
X119452068Y-58322059D01*
X119304983Y-58351316D01*
X119155017Y-58351316D01*
X119007932Y-58322059D01*
X118869381Y-58264670D01*
X118744689Y-58181353D01*
X118638647Y-58075311D01*
X118555330Y-57950619D01*
X118497941Y-57812068D01*
X118468684Y-57664983D01*
X118468684Y-57515017D01*
X118497941Y-57367932D01*
X118555330Y-57229381D01*
X118638647Y-57104689D01*
X118744689Y-56998647D01*
X118869381Y-56915330D01*
X119007932Y-56857941D01*
X119155017Y-56828684D01*
X119304983Y-56828684D01*
X119452068Y-56857941D01*
G37*
G36*
X121992068Y-56857941D02*
G01*
X122130619Y-56915330D01*
X122255311Y-56998647D01*
X122361353Y-57104689D01*
X122444670Y-57229381D01*
X122502059Y-57367932D01*
X122531316Y-57515017D01*
X122531316Y-57664983D01*
X122502059Y-57812068D01*
X122444670Y-57950619D01*
X122361353Y-58075311D01*
X122255311Y-58181353D01*
X122130619Y-58264670D01*
X121992068Y-58322059D01*
X121844983Y-58351316D01*
X121695017Y-58351316D01*
X121547932Y-58322059D01*
X121409381Y-58264670D01*
X121284689Y-58181353D01*
X121178647Y-58075311D01*
X121095330Y-57950619D01*
X121037941Y-57812068D01*
X121008684Y-57664983D01*
X121008684Y-57515017D01*
X121037941Y-57367932D01*
X121095330Y-57229381D01*
X121178647Y-57104689D01*
X121284689Y-56998647D01*
X121409381Y-56915330D01*
X121547932Y-56857941D01*
X121695017Y-56828684D01*
X121844983Y-56828684D01*
X121992068Y-56857941D01*
G37*
G36*
X180452068Y-54327941D02*
G01*
X180590619Y-54385330D01*
X180715311Y-54468647D01*
X180821353Y-54574689D01*
X180904670Y-54699381D01*
X180962059Y-54837932D01*
X180991316Y-54985017D01*
X180991316Y-55134983D01*
X180962059Y-55282068D01*
X180904670Y-55420619D01*
X180821353Y-55545311D01*
X180715311Y-55651353D01*
X180590619Y-55734670D01*
X180452068Y-55792059D01*
X180304983Y-55821316D01*
X180155017Y-55821316D01*
X180007932Y-55792059D01*
X179869381Y-55734670D01*
X179744689Y-55651353D01*
X179638647Y-55545311D01*
X179555330Y-55420619D01*
X179497941Y-55282068D01*
X179468684Y-55134983D01*
X179468684Y-54985017D01*
X179497941Y-54837932D01*
X179555330Y-54699381D01*
X179638647Y-54574689D01*
X179744689Y-54468647D01*
X179869381Y-54385330D01*
X180007932Y-54327941D01*
X180155017Y-54298684D01*
X180304983Y-54298684D01*
X180452068Y-54327941D01*
G37*
G36*
X182992068Y-54327941D02*
G01*
X183130619Y-54385330D01*
X183255311Y-54468647D01*
X183361353Y-54574689D01*
X183444670Y-54699381D01*
X183502059Y-54837932D01*
X183531316Y-54985017D01*
X183531316Y-55134983D01*
X183502059Y-55282068D01*
X183444670Y-55420619D01*
X183361353Y-55545311D01*
X183255311Y-55651353D01*
X183130619Y-55734670D01*
X182992068Y-55792059D01*
X182844983Y-55821316D01*
X182695017Y-55821316D01*
X182547932Y-55792059D01*
X182409381Y-55734670D01*
X182284689Y-55651353D01*
X182178647Y-55545311D01*
X182095330Y-55420619D01*
X182037941Y-55282068D01*
X182008684Y-55134983D01*
X182008684Y-54985017D01*
X182037941Y-54837932D01*
X182095330Y-54699381D01*
X182178647Y-54574689D01*
X182284689Y-54468647D01*
X182409381Y-54385330D01*
X182547932Y-54327941D01*
X182695017Y-54298684D01*
X182844983Y-54298684D01*
X182992068Y-54327941D01*
G37*
G36*
X119452068Y-54317941D02*
G01*
X119590619Y-54375330D01*
X119715311Y-54458647D01*
X119821353Y-54564689D01*
X119904670Y-54689381D01*
X119962059Y-54827932D01*
X119991316Y-54975017D01*
X119991316Y-55124983D01*
X119962059Y-55272068D01*
X119904670Y-55410619D01*
X119821353Y-55535311D01*
X119715311Y-55641353D01*
X119590619Y-55724670D01*
X119452068Y-55782059D01*
X119304983Y-55811316D01*
X119155017Y-55811316D01*
X119007932Y-55782059D01*
X118869381Y-55724670D01*
X118744689Y-55641353D01*
X118638647Y-55535311D01*
X118555330Y-55410619D01*
X118497941Y-55272068D01*
X118468684Y-55124983D01*
X118468684Y-54975017D01*
X118497941Y-54827932D01*
X118555330Y-54689381D01*
X118638647Y-54564689D01*
X118744689Y-54458647D01*
X118869381Y-54375330D01*
X119007932Y-54317941D01*
X119155017Y-54288684D01*
X119304983Y-54288684D01*
X119452068Y-54317941D01*
G37*
G36*
X121992068Y-54317941D02*
G01*
X122130619Y-54375330D01*
X122255311Y-54458647D01*
X122361353Y-54564689D01*
X122444670Y-54689381D01*
X122502059Y-54827932D01*
X122531316Y-54975017D01*
X122531316Y-55124983D01*
X122502059Y-55272068D01*
X122444670Y-55410619D01*
X122361353Y-55535311D01*
X122255311Y-55641353D01*
X122130619Y-55724670D01*
X121992068Y-55782059D01*
X121844983Y-55811316D01*
X121695017Y-55811316D01*
X121547932Y-55782059D01*
X121409381Y-55724670D01*
X121284689Y-55641353D01*
X121178647Y-55535311D01*
X121095330Y-55410619D01*
X121037941Y-55272068D01*
X121008684Y-55124983D01*
X121008684Y-54975017D01*
X121037941Y-54827932D01*
X121095330Y-54689381D01*
X121178647Y-54564689D01*
X121284689Y-54458647D01*
X121409381Y-54375330D01*
X121547932Y-54317941D01*
X121695017Y-54288684D01*
X121844983Y-54288684D01*
X121992068Y-54317941D01*
G37*
G36*
X180995000Y-53285000D02*
G01*
X179465000Y-53285000D01*
X179465000Y-51755000D01*
X180995000Y-51755000D01*
X180995000Y-53285000D01*
G37*
G36*
X182992068Y-51787941D02*
G01*
X183130619Y-51845330D01*
X183255311Y-51928647D01*
X183361353Y-52034689D01*
X183444670Y-52159381D01*
X183502059Y-52297932D01*
X183531316Y-52445017D01*
X183531316Y-52594983D01*
X183502059Y-52742068D01*
X183444670Y-52880619D01*
X183361353Y-53005311D01*
X183255311Y-53111353D01*
X183130619Y-53194670D01*
X182992068Y-53252059D01*
X182844983Y-53281316D01*
X182695017Y-53281316D01*
X182547932Y-53252059D01*
X182409381Y-53194670D01*
X182284689Y-53111353D01*
X182178647Y-53005311D01*
X182095330Y-52880619D01*
X182037941Y-52742068D01*
X182008684Y-52594983D01*
X182008684Y-52445017D01*
X182037941Y-52297932D01*
X182095330Y-52159381D01*
X182178647Y-52034689D01*
X182284689Y-51928647D01*
X182409381Y-51845330D01*
X182547932Y-51787941D01*
X182695017Y-51758684D01*
X182844983Y-51758684D01*
X182992068Y-51787941D01*
G37*
G36*
X119995000Y-53275000D02*
G01*
X118465000Y-53275000D01*
X118465000Y-51745000D01*
X119995000Y-51745000D01*
X119995000Y-53275000D01*
G37*
G36*
X121992068Y-51777941D02*
G01*
X122130619Y-51835330D01*
X122255311Y-51918647D01*
X122361353Y-52024689D01*
X122444670Y-52149381D01*
X122502059Y-52287932D01*
X122531316Y-52435017D01*
X122531316Y-52584983D01*
X122502059Y-52732068D01*
X122444670Y-52870619D01*
X122361353Y-52995311D01*
X122255311Y-53101353D01*
X122130619Y-53184670D01*
X121992068Y-53242059D01*
X121844983Y-53271316D01*
X121695017Y-53271316D01*
X121547932Y-53242059D01*
X121409381Y-53184670D01*
X121284689Y-53101353D01*
X121178647Y-52995311D01*
X121095330Y-52870619D01*
X121037941Y-52732068D01*
X121008684Y-52584983D01*
X121008684Y-52435017D01*
X121037941Y-52287932D01*
X121095330Y-52149381D01*
X121178647Y-52024689D01*
X121284689Y-51918647D01*
X121409381Y-51835330D01*
X121547932Y-51777941D01*
X121695017Y-51748684D01*
X121844983Y-51748684D01*
X121992068Y-51777941D01*
G37*
M02*
