%TF.GenerationSoftware,KiCad,Pcbnew,9.0.7-9.0.7~ubuntu24.04.1*%
%TF.CreationDate,2026-01-13T16:34:36+01:00*%
%TF.ProjectId,digital_output,64696769-7461-46c5-9f6f-75747075742e,1.0*%
%TF.SameCoordinates,Original*%
%TF.FileFunction,Legend,Top*%
%TF.FilePolarity,Positive*%
%FSLAX46Y46*%
G04 Gerber Fmt 4.6, Leading zero omitted, Abs format (unit mm)*
G04 Created by KiCad (PCBNEW 9.0.7-9.0.7~ubuntu24.04.1) date 2026-01-13 16:34:36*
%MOMM*%
%LPD*%
G01*
G04 APERTURE LIST*
%ADD10C,0.150000*%
%ADD11C,0.254000*%
%ADD12C,0.120000*%
%ADD13C,0.200000*%
%ADD14C,0.100000*%
G04 APERTURE END LIST*
D10*
X173333333Y-90774819D02*
X173000000Y-90298628D01*
X172761905Y-90774819D02*
X172761905Y-89774819D01*
X172761905Y-89774819D02*
X173142857Y-89774819D01*
X173142857Y-89774819D02*
X173238095Y-89822438D01*
X173238095Y-89822438D02*
X173285714Y-89870057D01*
X173285714Y-89870057D02*
X173333333Y-89965295D01*
X173333333Y-89965295D02*
X173333333Y-90108152D01*
X173333333Y-90108152D02*
X173285714Y-90203390D01*
X173285714Y-90203390D02*
X173238095Y-90251009D01*
X173238095Y-90251009D02*
X173142857Y-90298628D01*
X173142857Y-90298628D02*
X172761905Y-90298628D01*
X173904762Y-90203390D02*
X173809524Y-90155771D01*
X173809524Y-90155771D02*
X173761905Y-90108152D01*
X173761905Y-90108152D02*
X173714286Y-90012914D01*
X173714286Y-90012914D02*
X173714286Y-89965295D01*
X173714286Y-89965295D02*
X173761905Y-89870057D01*
X173761905Y-89870057D02*
X173809524Y-89822438D01*
X173809524Y-89822438D02*
X173904762Y-89774819D01*
X173904762Y-89774819D02*
X174095238Y-89774819D01*
X174095238Y-89774819D02*
X174190476Y-89822438D01*
X174190476Y-89822438D02*
X174238095Y-89870057D01*
X174238095Y-89870057D02*
X174285714Y-89965295D01*
X174285714Y-89965295D02*
X174285714Y-90012914D01*
X174285714Y-90012914D02*
X174238095Y-90108152D01*
X174238095Y-90108152D02*
X174190476Y-90155771D01*
X174190476Y-90155771D02*
X174095238Y-90203390D01*
X174095238Y-90203390D02*
X173904762Y-90203390D01*
X173904762Y-90203390D02*
X173809524Y-90251009D01*
X173809524Y-90251009D02*
X173761905Y-90298628D01*
X173761905Y-90298628D02*
X173714286Y-90393866D01*
X173714286Y-90393866D02*
X173714286Y-90584342D01*
X173714286Y-90584342D02*
X173761905Y-90679580D01*
X173761905Y-90679580D02*
X173809524Y-90727200D01*
X173809524Y-90727200D02*
X173904762Y-90774819D01*
X173904762Y-90774819D02*
X174095238Y-90774819D01*
X174095238Y-90774819D02*
X174190476Y-90727200D01*
X174190476Y-90727200D02*
X174238095Y-90679580D01*
X174238095Y-90679580D02*
X174285714Y-90584342D01*
X174285714Y-90584342D02*
X174285714Y-90393866D01*
X174285714Y-90393866D02*
X174238095Y-90298628D01*
X174238095Y-90298628D02*
X174190476Y-90251009D01*
X174190476Y-90251009D02*
X174095238Y-90203390D01*
X158607142Y-60954819D02*
X158273809Y-60478628D01*
X158035714Y-60954819D02*
X158035714Y-59954819D01*
X158035714Y-59954819D02*
X158416666Y-59954819D01*
X158416666Y-59954819D02*
X158511904Y-60002438D01*
X158511904Y-60002438D02*
X158559523Y-60050057D01*
X158559523Y-60050057D02*
X158607142Y-60145295D01*
X158607142Y-60145295D02*
X158607142Y-60288152D01*
X158607142Y-60288152D02*
X158559523Y-60383390D01*
X158559523Y-60383390D02*
X158511904Y-60431009D01*
X158511904Y-60431009D02*
X158416666Y-60478628D01*
X158416666Y-60478628D02*
X158035714Y-60478628D01*
X158988095Y-60050057D02*
X159035714Y-60002438D01*
X159035714Y-60002438D02*
X159130952Y-59954819D01*
X159130952Y-59954819D02*
X159369047Y-59954819D01*
X159369047Y-59954819D02*
X159464285Y-60002438D01*
X159464285Y-60002438D02*
X159511904Y-60050057D01*
X159511904Y-60050057D02*
X159559523Y-60145295D01*
X159559523Y-60145295D02*
X159559523Y-60240533D01*
X159559523Y-60240533D02*
X159511904Y-60383390D01*
X159511904Y-60383390D02*
X158940476Y-60954819D01*
X158940476Y-60954819D02*
X159559523Y-60954819D01*
X159940476Y-60050057D02*
X159988095Y-60002438D01*
X159988095Y-60002438D02*
X160083333Y-59954819D01*
X160083333Y-59954819D02*
X160321428Y-59954819D01*
X160321428Y-59954819D02*
X160416666Y-60002438D01*
X160416666Y-60002438D02*
X160464285Y-60050057D01*
X160464285Y-60050057D02*
X160511904Y-60145295D01*
X160511904Y-60145295D02*
X160511904Y-60240533D01*
X160511904Y-60240533D02*
X160464285Y-60383390D01*
X160464285Y-60383390D02*
X159892857Y-60954819D01*
X159892857Y-60954819D02*
X160511904Y-60954819D01*
X164038095Y-70654819D02*
X164038095Y-71464342D01*
X164038095Y-71464342D02*
X164085714Y-71559580D01*
X164085714Y-71559580D02*
X164133333Y-71607200D01*
X164133333Y-71607200D02*
X164228571Y-71654819D01*
X164228571Y-71654819D02*
X164419047Y-71654819D01*
X164419047Y-71654819D02*
X164514285Y-71607200D01*
X164514285Y-71607200D02*
X164561904Y-71559580D01*
X164561904Y-71559580D02*
X164609523Y-71464342D01*
X164609523Y-71464342D02*
X164609523Y-70654819D01*
X164990476Y-70654819D02*
X165657142Y-70654819D01*
X165657142Y-70654819D02*
X165228571Y-71654819D01*
X144404761Y-65050057D02*
X144309523Y-65002438D01*
X144309523Y-65002438D02*
X144214285Y-64907200D01*
X144214285Y-64907200D02*
X144071428Y-64764342D01*
X144071428Y-64764342D02*
X143976190Y-64716723D01*
X143976190Y-64716723D02*
X143880952Y-64716723D01*
X143928571Y-64954819D02*
X143833333Y-64907200D01*
X143833333Y-64907200D02*
X143738095Y-64811961D01*
X143738095Y-64811961D02*
X143690476Y-64621485D01*
X143690476Y-64621485D02*
X143690476Y-64288152D01*
X143690476Y-64288152D02*
X143738095Y-64097676D01*
X143738095Y-64097676D02*
X143833333Y-64002438D01*
X143833333Y-64002438D02*
X143928571Y-63954819D01*
X143928571Y-63954819D02*
X144119047Y-63954819D01*
X144119047Y-63954819D02*
X144214285Y-64002438D01*
X144214285Y-64002438D02*
X144309523Y-64097676D01*
X144309523Y-64097676D02*
X144357142Y-64288152D01*
X144357142Y-64288152D02*
X144357142Y-64621485D01*
X144357142Y-64621485D02*
X144309523Y-64811961D01*
X144309523Y-64811961D02*
X144214285Y-64907200D01*
X144214285Y-64907200D02*
X144119047Y-64954819D01*
X144119047Y-64954819D02*
X143928571Y-64954819D01*
X144690476Y-63954819D02*
X145309523Y-63954819D01*
X145309523Y-63954819D02*
X144976190Y-64335771D01*
X144976190Y-64335771D02*
X145119047Y-64335771D01*
X145119047Y-64335771D02*
X145214285Y-64383390D01*
X145214285Y-64383390D02*
X145261904Y-64431009D01*
X145261904Y-64431009D02*
X145309523Y-64526247D01*
X145309523Y-64526247D02*
X145309523Y-64764342D01*
X145309523Y-64764342D02*
X145261904Y-64859580D01*
X145261904Y-64859580D02*
X145214285Y-64907200D01*
X145214285Y-64907200D02*
X145119047Y-64954819D01*
X145119047Y-64954819D02*
X144833333Y-64954819D01*
X144833333Y-64954819D02*
X144738095Y-64907200D01*
X144738095Y-64907200D02*
X144690476Y-64859580D01*
X172357142Y-70204819D02*
X172023809Y-69728628D01*
X171785714Y-70204819D02*
X171785714Y-69204819D01*
X171785714Y-69204819D02*
X172166666Y-69204819D01*
X172166666Y-69204819D02*
X172261904Y-69252438D01*
X172261904Y-69252438D02*
X172309523Y-69300057D01*
X172309523Y-69300057D02*
X172357142Y-69395295D01*
X172357142Y-69395295D02*
X172357142Y-69538152D01*
X172357142Y-69538152D02*
X172309523Y-69633390D01*
X172309523Y-69633390D02*
X172261904Y-69681009D01*
X172261904Y-69681009D02*
X172166666Y-69728628D01*
X172166666Y-69728628D02*
X171785714Y-69728628D01*
X173309523Y-70204819D02*
X172738095Y-70204819D01*
X173023809Y-70204819D02*
X173023809Y-69204819D01*
X173023809Y-69204819D02*
X172928571Y-69347676D01*
X172928571Y-69347676D02*
X172833333Y-69442914D01*
X172833333Y-69442914D02*
X172738095Y-69490533D01*
X174166666Y-69204819D02*
X173976190Y-69204819D01*
X173976190Y-69204819D02*
X173880952Y-69252438D01*
X173880952Y-69252438D02*
X173833333Y-69300057D01*
X173833333Y-69300057D02*
X173738095Y-69442914D01*
X173738095Y-69442914D02*
X173690476Y-69633390D01*
X173690476Y-69633390D02*
X173690476Y-70014342D01*
X173690476Y-70014342D02*
X173738095Y-70109580D01*
X173738095Y-70109580D02*
X173785714Y-70157200D01*
X173785714Y-70157200D02*
X173880952Y-70204819D01*
X173880952Y-70204819D02*
X174071428Y-70204819D01*
X174071428Y-70204819D02*
X174166666Y-70157200D01*
X174166666Y-70157200D02*
X174214285Y-70109580D01*
X174214285Y-70109580D02*
X174261904Y-70014342D01*
X174261904Y-70014342D02*
X174261904Y-69776247D01*
X174261904Y-69776247D02*
X174214285Y-69681009D01*
X174214285Y-69681009D02*
X174166666Y-69633390D01*
X174166666Y-69633390D02*
X174071428Y-69585771D01*
X174071428Y-69585771D02*
X173880952Y-69585771D01*
X173880952Y-69585771D02*
X173785714Y-69633390D01*
X173785714Y-69633390D02*
X173738095Y-69681009D01*
X173738095Y-69681009D02*
X173690476Y-69776247D01*
X166833333Y-90774819D02*
X166500000Y-90298628D01*
X166261905Y-90774819D02*
X166261905Y-89774819D01*
X166261905Y-89774819D02*
X166642857Y-89774819D01*
X166642857Y-89774819D02*
X166738095Y-89822438D01*
X166738095Y-89822438D02*
X166785714Y-89870057D01*
X166785714Y-89870057D02*
X166833333Y-89965295D01*
X166833333Y-89965295D02*
X166833333Y-90108152D01*
X166833333Y-90108152D02*
X166785714Y-90203390D01*
X166785714Y-90203390D02*
X166738095Y-90251009D01*
X166738095Y-90251009D02*
X166642857Y-90298628D01*
X166642857Y-90298628D02*
X166261905Y-90298628D01*
X167166667Y-89774819D02*
X167833333Y-89774819D01*
X167833333Y-89774819D02*
X167404762Y-90774819D01*
X153833333Y-90774819D02*
X153500000Y-90298628D01*
X153261905Y-90774819D02*
X153261905Y-89774819D01*
X153261905Y-89774819D02*
X153642857Y-89774819D01*
X153642857Y-89774819D02*
X153738095Y-89822438D01*
X153738095Y-89822438D02*
X153785714Y-89870057D01*
X153785714Y-89870057D02*
X153833333Y-89965295D01*
X153833333Y-89965295D02*
X153833333Y-90108152D01*
X153833333Y-90108152D02*
X153785714Y-90203390D01*
X153785714Y-90203390D02*
X153738095Y-90251009D01*
X153738095Y-90251009D02*
X153642857Y-90298628D01*
X153642857Y-90298628D02*
X153261905Y-90298628D01*
X154738095Y-89774819D02*
X154261905Y-89774819D01*
X154261905Y-89774819D02*
X154214286Y-90251009D01*
X154214286Y-90251009D02*
X154261905Y-90203390D01*
X154261905Y-90203390D02*
X154357143Y-90155771D01*
X154357143Y-90155771D02*
X154595238Y-90155771D01*
X154595238Y-90155771D02*
X154690476Y-90203390D01*
X154690476Y-90203390D02*
X154738095Y-90251009D01*
X154738095Y-90251009D02*
X154785714Y-90346247D01*
X154785714Y-90346247D02*
X154785714Y-90584342D01*
X154785714Y-90584342D02*
X154738095Y-90679580D01*
X154738095Y-90679580D02*
X154690476Y-90727200D01*
X154690476Y-90727200D02*
X154595238Y-90774819D01*
X154595238Y-90774819D02*
X154357143Y-90774819D01*
X154357143Y-90774819D02*
X154261905Y-90727200D01*
X154261905Y-90727200D02*
X154214286Y-90679580D01*
X131238095Y-70654819D02*
X131238095Y-71464342D01*
X131238095Y-71464342D02*
X131285714Y-71559580D01*
X131285714Y-71559580D02*
X131333333Y-71607200D01*
X131333333Y-71607200D02*
X131428571Y-71654819D01*
X131428571Y-71654819D02*
X131619047Y-71654819D01*
X131619047Y-71654819D02*
X131714285Y-71607200D01*
X131714285Y-71607200D02*
X131761904Y-71559580D01*
X131761904Y-71559580D02*
X131809523Y-71464342D01*
X131809523Y-71464342D02*
X131809523Y-70654819D01*
X132238095Y-70750057D02*
X132285714Y-70702438D01*
X132285714Y-70702438D02*
X132380952Y-70654819D01*
X132380952Y-70654819D02*
X132619047Y-70654819D01*
X132619047Y-70654819D02*
X132714285Y-70702438D01*
X132714285Y-70702438D02*
X132761904Y-70750057D01*
X132761904Y-70750057D02*
X132809523Y-70845295D01*
X132809523Y-70845295D02*
X132809523Y-70940533D01*
X132809523Y-70940533D02*
X132761904Y-71083390D01*
X132761904Y-71083390D02*
X132190476Y-71654819D01*
X132190476Y-71654819D02*
X132809523Y-71654819D01*
D11*
X183586667Y-111284318D02*
X183586667Y-112191461D01*
X183586667Y-112191461D02*
X183526190Y-112372889D01*
X183526190Y-112372889D02*
X183405238Y-112493842D01*
X183405238Y-112493842D02*
X183223809Y-112554318D01*
X183223809Y-112554318D02*
X183102857Y-112554318D01*
X184070476Y-111284318D02*
X184856667Y-111284318D01*
X184856667Y-111284318D02*
X184433333Y-111768127D01*
X184433333Y-111768127D02*
X184614762Y-111768127D01*
X184614762Y-111768127D02*
X184735714Y-111828603D01*
X184735714Y-111828603D02*
X184796190Y-111889080D01*
X184796190Y-111889080D02*
X184856667Y-112010032D01*
X184856667Y-112010032D02*
X184856667Y-112312413D01*
X184856667Y-112312413D02*
X184796190Y-112433365D01*
X184796190Y-112433365D02*
X184735714Y-112493842D01*
X184735714Y-112493842D02*
X184614762Y-112554318D01*
X184614762Y-112554318D02*
X184251905Y-112554318D01*
X184251905Y-112554318D02*
X184130952Y-112493842D01*
X184130952Y-112493842D02*
X184070476Y-112433365D01*
D10*
X171107142Y-60954819D02*
X170773809Y-60478628D01*
X170535714Y-60954819D02*
X170535714Y-59954819D01*
X170535714Y-59954819D02*
X170916666Y-59954819D01*
X170916666Y-59954819D02*
X171011904Y-60002438D01*
X171011904Y-60002438D02*
X171059523Y-60050057D01*
X171059523Y-60050057D02*
X171107142Y-60145295D01*
X171107142Y-60145295D02*
X171107142Y-60288152D01*
X171107142Y-60288152D02*
X171059523Y-60383390D01*
X171059523Y-60383390D02*
X171011904Y-60431009D01*
X171011904Y-60431009D02*
X170916666Y-60478628D01*
X170916666Y-60478628D02*
X170535714Y-60478628D01*
X171488095Y-60050057D02*
X171535714Y-60002438D01*
X171535714Y-60002438D02*
X171630952Y-59954819D01*
X171630952Y-59954819D02*
X171869047Y-59954819D01*
X171869047Y-59954819D02*
X171964285Y-60002438D01*
X171964285Y-60002438D02*
X172011904Y-60050057D01*
X172011904Y-60050057D02*
X172059523Y-60145295D01*
X172059523Y-60145295D02*
X172059523Y-60240533D01*
X172059523Y-60240533D02*
X172011904Y-60383390D01*
X172011904Y-60383390D02*
X171440476Y-60954819D01*
X171440476Y-60954819D02*
X172059523Y-60954819D01*
X172916666Y-60288152D02*
X172916666Y-60954819D01*
X172678571Y-59907200D02*
X172440476Y-60621485D01*
X172440476Y-60621485D02*
X173059523Y-60621485D01*
X146261905Y-93774819D02*
X146261905Y-92774819D01*
X146261905Y-92774819D02*
X146500000Y-92774819D01*
X146500000Y-92774819D02*
X146642857Y-92822438D01*
X146642857Y-92822438D02*
X146738095Y-92917676D01*
X146738095Y-92917676D02*
X146785714Y-93012914D01*
X146785714Y-93012914D02*
X146833333Y-93203390D01*
X146833333Y-93203390D02*
X146833333Y-93346247D01*
X146833333Y-93346247D02*
X146785714Y-93536723D01*
X146785714Y-93536723D02*
X146738095Y-93631961D01*
X146738095Y-93631961D02*
X146642857Y-93727200D01*
X146642857Y-93727200D02*
X146500000Y-93774819D01*
X146500000Y-93774819D02*
X146261905Y-93774819D01*
X147690476Y-93108152D02*
X147690476Y-93774819D01*
X147452381Y-92727200D02*
X147214286Y-93441485D01*
X147214286Y-93441485D02*
X147833333Y-93441485D01*
X145357142Y-60954819D02*
X145023809Y-60478628D01*
X144785714Y-60954819D02*
X144785714Y-59954819D01*
X144785714Y-59954819D02*
X145166666Y-59954819D01*
X145166666Y-59954819D02*
X145261904Y-60002438D01*
X145261904Y-60002438D02*
X145309523Y-60050057D01*
X145309523Y-60050057D02*
X145357142Y-60145295D01*
X145357142Y-60145295D02*
X145357142Y-60288152D01*
X145357142Y-60288152D02*
X145309523Y-60383390D01*
X145309523Y-60383390D02*
X145261904Y-60431009D01*
X145261904Y-60431009D02*
X145166666Y-60478628D01*
X145166666Y-60478628D02*
X144785714Y-60478628D01*
X145738095Y-60050057D02*
X145785714Y-60002438D01*
X145785714Y-60002438D02*
X145880952Y-59954819D01*
X145880952Y-59954819D02*
X146119047Y-59954819D01*
X146119047Y-59954819D02*
X146214285Y-60002438D01*
X146214285Y-60002438D02*
X146261904Y-60050057D01*
X146261904Y-60050057D02*
X146309523Y-60145295D01*
X146309523Y-60145295D02*
X146309523Y-60240533D01*
X146309523Y-60240533D02*
X146261904Y-60383390D01*
X146261904Y-60383390D02*
X145690476Y-60954819D01*
X145690476Y-60954819D02*
X146309523Y-60954819D01*
X146928571Y-59954819D02*
X147023809Y-59954819D01*
X147023809Y-59954819D02*
X147119047Y-60002438D01*
X147119047Y-60002438D02*
X147166666Y-60050057D01*
X147166666Y-60050057D02*
X147214285Y-60145295D01*
X147214285Y-60145295D02*
X147261904Y-60335771D01*
X147261904Y-60335771D02*
X147261904Y-60573866D01*
X147261904Y-60573866D02*
X147214285Y-60764342D01*
X147214285Y-60764342D02*
X147166666Y-60859580D01*
X147166666Y-60859580D02*
X147119047Y-60907200D01*
X147119047Y-60907200D02*
X147023809Y-60954819D01*
X147023809Y-60954819D02*
X146928571Y-60954819D01*
X146928571Y-60954819D02*
X146833333Y-60907200D01*
X146833333Y-60907200D02*
X146785714Y-60859580D01*
X146785714Y-60859580D02*
X146738095Y-60764342D01*
X146738095Y-60764342D02*
X146690476Y-60573866D01*
X146690476Y-60573866D02*
X146690476Y-60335771D01*
X146690476Y-60335771D02*
X146738095Y-60145295D01*
X146738095Y-60145295D02*
X146785714Y-60050057D01*
X146785714Y-60050057D02*
X146833333Y-60002438D01*
X146833333Y-60002438D02*
X146928571Y-59954819D01*
X126761905Y-93774819D02*
X126761905Y-92774819D01*
X126761905Y-92774819D02*
X127000000Y-92774819D01*
X127000000Y-92774819D02*
X127142857Y-92822438D01*
X127142857Y-92822438D02*
X127238095Y-92917676D01*
X127238095Y-92917676D02*
X127285714Y-93012914D01*
X127285714Y-93012914D02*
X127333333Y-93203390D01*
X127333333Y-93203390D02*
X127333333Y-93346247D01*
X127333333Y-93346247D02*
X127285714Y-93536723D01*
X127285714Y-93536723D02*
X127238095Y-93631961D01*
X127238095Y-93631961D02*
X127142857Y-93727200D01*
X127142857Y-93727200D02*
X127000000Y-93774819D01*
X127000000Y-93774819D02*
X126761905Y-93774819D01*
X128285714Y-93774819D02*
X127714286Y-93774819D01*
X128000000Y-93774819D02*
X128000000Y-92774819D01*
X128000000Y-92774819D02*
X127904762Y-92917676D01*
X127904762Y-92917676D02*
X127809524Y-93012914D01*
X127809524Y-93012914D02*
X127714286Y-93060533D01*
X157704761Y-65050057D02*
X157609523Y-65002438D01*
X157609523Y-65002438D02*
X157514285Y-64907200D01*
X157514285Y-64907200D02*
X157371428Y-64764342D01*
X157371428Y-64764342D02*
X157276190Y-64716723D01*
X157276190Y-64716723D02*
X157180952Y-64716723D01*
X157228571Y-64954819D02*
X157133333Y-64907200D01*
X157133333Y-64907200D02*
X157038095Y-64811961D01*
X157038095Y-64811961D02*
X156990476Y-64621485D01*
X156990476Y-64621485D02*
X156990476Y-64288152D01*
X156990476Y-64288152D02*
X157038095Y-64097676D01*
X157038095Y-64097676D02*
X157133333Y-64002438D01*
X157133333Y-64002438D02*
X157228571Y-63954819D01*
X157228571Y-63954819D02*
X157419047Y-63954819D01*
X157419047Y-63954819D02*
X157514285Y-64002438D01*
X157514285Y-64002438D02*
X157609523Y-64097676D01*
X157609523Y-64097676D02*
X157657142Y-64288152D01*
X157657142Y-64288152D02*
X157657142Y-64621485D01*
X157657142Y-64621485D02*
X157609523Y-64811961D01*
X157609523Y-64811961D02*
X157514285Y-64907200D01*
X157514285Y-64907200D02*
X157419047Y-64954819D01*
X157419047Y-64954819D02*
X157228571Y-64954819D01*
X158561904Y-63954819D02*
X158085714Y-63954819D01*
X158085714Y-63954819D02*
X158038095Y-64431009D01*
X158038095Y-64431009D02*
X158085714Y-64383390D01*
X158085714Y-64383390D02*
X158180952Y-64335771D01*
X158180952Y-64335771D02*
X158419047Y-64335771D01*
X158419047Y-64335771D02*
X158514285Y-64383390D01*
X158514285Y-64383390D02*
X158561904Y-64431009D01*
X158561904Y-64431009D02*
X158609523Y-64526247D01*
X158609523Y-64526247D02*
X158609523Y-64764342D01*
X158609523Y-64764342D02*
X158561904Y-64859580D01*
X158561904Y-64859580D02*
X158514285Y-64907200D01*
X158514285Y-64907200D02*
X158419047Y-64954819D01*
X158419047Y-64954819D02*
X158180952Y-64954819D01*
X158180952Y-64954819D02*
X158085714Y-64907200D01*
X158085714Y-64907200D02*
X158038095Y-64859580D01*
X157638095Y-70654819D02*
X157638095Y-71464342D01*
X157638095Y-71464342D02*
X157685714Y-71559580D01*
X157685714Y-71559580D02*
X157733333Y-71607200D01*
X157733333Y-71607200D02*
X157828571Y-71654819D01*
X157828571Y-71654819D02*
X158019047Y-71654819D01*
X158019047Y-71654819D02*
X158114285Y-71607200D01*
X158114285Y-71607200D02*
X158161904Y-71559580D01*
X158161904Y-71559580D02*
X158209523Y-71464342D01*
X158209523Y-71464342D02*
X158209523Y-70654819D01*
X159114285Y-70654819D02*
X158923809Y-70654819D01*
X158923809Y-70654819D02*
X158828571Y-70702438D01*
X158828571Y-70702438D02*
X158780952Y-70750057D01*
X158780952Y-70750057D02*
X158685714Y-70892914D01*
X158685714Y-70892914D02*
X158638095Y-71083390D01*
X158638095Y-71083390D02*
X158638095Y-71464342D01*
X158638095Y-71464342D02*
X158685714Y-71559580D01*
X158685714Y-71559580D02*
X158733333Y-71607200D01*
X158733333Y-71607200D02*
X158828571Y-71654819D01*
X158828571Y-71654819D02*
X159019047Y-71654819D01*
X159019047Y-71654819D02*
X159114285Y-71607200D01*
X159114285Y-71607200D02*
X159161904Y-71559580D01*
X159161904Y-71559580D02*
X159209523Y-71464342D01*
X159209523Y-71464342D02*
X159209523Y-71226247D01*
X159209523Y-71226247D02*
X159161904Y-71131009D01*
X159161904Y-71131009D02*
X159114285Y-71083390D01*
X159114285Y-71083390D02*
X159019047Y-71035771D01*
X159019047Y-71035771D02*
X158828571Y-71035771D01*
X158828571Y-71035771D02*
X158733333Y-71083390D01*
X158733333Y-71083390D02*
X158685714Y-71131009D01*
X158685714Y-71131009D02*
X158638095Y-71226247D01*
X170838095Y-70654819D02*
X170838095Y-71464342D01*
X170838095Y-71464342D02*
X170885714Y-71559580D01*
X170885714Y-71559580D02*
X170933333Y-71607200D01*
X170933333Y-71607200D02*
X171028571Y-71654819D01*
X171028571Y-71654819D02*
X171219047Y-71654819D01*
X171219047Y-71654819D02*
X171314285Y-71607200D01*
X171314285Y-71607200D02*
X171361904Y-71559580D01*
X171361904Y-71559580D02*
X171409523Y-71464342D01*
X171409523Y-71464342D02*
X171409523Y-70654819D01*
X172028571Y-71083390D02*
X171933333Y-71035771D01*
X171933333Y-71035771D02*
X171885714Y-70988152D01*
X171885714Y-70988152D02*
X171838095Y-70892914D01*
X171838095Y-70892914D02*
X171838095Y-70845295D01*
X171838095Y-70845295D02*
X171885714Y-70750057D01*
X171885714Y-70750057D02*
X171933333Y-70702438D01*
X171933333Y-70702438D02*
X172028571Y-70654819D01*
X172028571Y-70654819D02*
X172219047Y-70654819D01*
X172219047Y-70654819D02*
X172314285Y-70702438D01*
X172314285Y-70702438D02*
X172361904Y-70750057D01*
X172361904Y-70750057D02*
X172409523Y-70845295D01*
X172409523Y-70845295D02*
X172409523Y-70892914D01*
X172409523Y-70892914D02*
X172361904Y-70988152D01*
X172361904Y-70988152D02*
X172314285Y-71035771D01*
X172314285Y-71035771D02*
X172219047Y-71083390D01*
X172219047Y-71083390D02*
X172028571Y-71083390D01*
X172028571Y-71083390D02*
X171933333Y-71131009D01*
X171933333Y-71131009D02*
X171885714Y-71178628D01*
X171885714Y-71178628D02*
X171838095Y-71273866D01*
X171838095Y-71273866D02*
X171838095Y-71464342D01*
X171838095Y-71464342D02*
X171885714Y-71559580D01*
X171885714Y-71559580D02*
X171933333Y-71607200D01*
X171933333Y-71607200D02*
X172028571Y-71654819D01*
X172028571Y-71654819D02*
X172219047Y-71654819D01*
X172219047Y-71654819D02*
X172314285Y-71607200D01*
X172314285Y-71607200D02*
X172361904Y-71559580D01*
X172361904Y-71559580D02*
X172409523Y-71464342D01*
X172409523Y-71464342D02*
X172409523Y-71273866D01*
X172409523Y-71273866D02*
X172361904Y-71178628D01*
X172361904Y-71178628D02*
X172314285Y-71131009D01*
X172314285Y-71131009D02*
X172219047Y-71083390D01*
X132857142Y-70204819D02*
X132523809Y-69728628D01*
X132285714Y-70204819D02*
X132285714Y-69204819D01*
X132285714Y-69204819D02*
X132666666Y-69204819D01*
X132666666Y-69204819D02*
X132761904Y-69252438D01*
X132761904Y-69252438D02*
X132809523Y-69300057D01*
X132809523Y-69300057D02*
X132857142Y-69395295D01*
X132857142Y-69395295D02*
X132857142Y-69538152D01*
X132857142Y-69538152D02*
X132809523Y-69633390D01*
X132809523Y-69633390D02*
X132761904Y-69681009D01*
X132761904Y-69681009D02*
X132666666Y-69728628D01*
X132666666Y-69728628D02*
X132285714Y-69728628D01*
X133809523Y-70204819D02*
X133238095Y-70204819D01*
X133523809Y-70204819D02*
X133523809Y-69204819D01*
X133523809Y-69204819D02*
X133428571Y-69347676D01*
X133428571Y-69347676D02*
X133333333Y-69442914D01*
X133333333Y-69442914D02*
X133238095Y-69490533D01*
X134428571Y-69204819D02*
X134523809Y-69204819D01*
X134523809Y-69204819D02*
X134619047Y-69252438D01*
X134619047Y-69252438D02*
X134666666Y-69300057D01*
X134666666Y-69300057D02*
X134714285Y-69395295D01*
X134714285Y-69395295D02*
X134761904Y-69585771D01*
X134761904Y-69585771D02*
X134761904Y-69823866D01*
X134761904Y-69823866D02*
X134714285Y-70014342D01*
X134714285Y-70014342D02*
X134666666Y-70109580D01*
X134666666Y-70109580D02*
X134619047Y-70157200D01*
X134619047Y-70157200D02*
X134523809Y-70204819D01*
X134523809Y-70204819D02*
X134428571Y-70204819D01*
X134428571Y-70204819D02*
X134333333Y-70157200D01*
X134333333Y-70157200D02*
X134285714Y-70109580D01*
X134285714Y-70109580D02*
X134238095Y-70014342D01*
X134238095Y-70014342D02*
X134190476Y-69823866D01*
X134190476Y-69823866D02*
X134190476Y-69585771D01*
X134190476Y-69585771D02*
X134238095Y-69395295D01*
X134238095Y-69395295D02*
X134285714Y-69300057D01*
X134285714Y-69300057D02*
X134333333Y-69252438D01*
X134333333Y-69252438D02*
X134428571Y-69204819D01*
X132857142Y-60954819D02*
X132523809Y-60478628D01*
X132285714Y-60954819D02*
X132285714Y-59954819D01*
X132285714Y-59954819D02*
X132666666Y-59954819D01*
X132666666Y-59954819D02*
X132761904Y-60002438D01*
X132761904Y-60002438D02*
X132809523Y-60050057D01*
X132809523Y-60050057D02*
X132857142Y-60145295D01*
X132857142Y-60145295D02*
X132857142Y-60288152D01*
X132857142Y-60288152D02*
X132809523Y-60383390D01*
X132809523Y-60383390D02*
X132761904Y-60431009D01*
X132761904Y-60431009D02*
X132666666Y-60478628D01*
X132666666Y-60478628D02*
X132285714Y-60478628D01*
X133809523Y-60954819D02*
X133238095Y-60954819D01*
X133523809Y-60954819D02*
X133523809Y-59954819D01*
X133523809Y-59954819D02*
X133428571Y-60097676D01*
X133428571Y-60097676D02*
X133333333Y-60192914D01*
X133333333Y-60192914D02*
X133238095Y-60240533D01*
X134380952Y-60383390D02*
X134285714Y-60335771D01*
X134285714Y-60335771D02*
X134238095Y-60288152D01*
X134238095Y-60288152D02*
X134190476Y-60192914D01*
X134190476Y-60192914D02*
X134190476Y-60145295D01*
X134190476Y-60145295D02*
X134238095Y-60050057D01*
X134238095Y-60050057D02*
X134285714Y-60002438D01*
X134285714Y-60002438D02*
X134380952Y-59954819D01*
X134380952Y-59954819D02*
X134571428Y-59954819D01*
X134571428Y-59954819D02*
X134666666Y-60002438D01*
X134666666Y-60002438D02*
X134714285Y-60050057D01*
X134714285Y-60050057D02*
X134761904Y-60145295D01*
X134761904Y-60145295D02*
X134761904Y-60192914D01*
X134761904Y-60192914D02*
X134714285Y-60288152D01*
X134714285Y-60288152D02*
X134666666Y-60335771D01*
X134666666Y-60335771D02*
X134571428Y-60383390D01*
X134571428Y-60383390D02*
X134380952Y-60383390D01*
X134380952Y-60383390D02*
X134285714Y-60431009D01*
X134285714Y-60431009D02*
X134238095Y-60478628D01*
X134238095Y-60478628D02*
X134190476Y-60573866D01*
X134190476Y-60573866D02*
X134190476Y-60764342D01*
X134190476Y-60764342D02*
X134238095Y-60859580D01*
X134238095Y-60859580D02*
X134285714Y-60907200D01*
X134285714Y-60907200D02*
X134380952Y-60954819D01*
X134380952Y-60954819D02*
X134571428Y-60954819D01*
X134571428Y-60954819D02*
X134666666Y-60907200D01*
X134666666Y-60907200D02*
X134714285Y-60859580D01*
X134714285Y-60859580D02*
X134761904Y-60764342D01*
X134761904Y-60764342D02*
X134761904Y-60573866D01*
X134761904Y-60573866D02*
X134714285Y-60478628D01*
X134714285Y-60478628D02*
X134666666Y-60431009D01*
X134666666Y-60431009D02*
X134571428Y-60383390D01*
X126607142Y-60954819D02*
X126273809Y-60478628D01*
X126035714Y-60954819D02*
X126035714Y-59954819D01*
X126035714Y-59954819D02*
X126416666Y-59954819D01*
X126416666Y-59954819D02*
X126511904Y-60002438D01*
X126511904Y-60002438D02*
X126559523Y-60050057D01*
X126559523Y-60050057D02*
X126607142Y-60145295D01*
X126607142Y-60145295D02*
X126607142Y-60288152D01*
X126607142Y-60288152D02*
X126559523Y-60383390D01*
X126559523Y-60383390D02*
X126511904Y-60431009D01*
X126511904Y-60431009D02*
X126416666Y-60478628D01*
X126416666Y-60478628D02*
X126035714Y-60478628D01*
X127559523Y-60954819D02*
X126988095Y-60954819D01*
X127273809Y-60954819D02*
X127273809Y-59954819D01*
X127273809Y-59954819D02*
X127178571Y-60097676D01*
X127178571Y-60097676D02*
X127083333Y-60192914D01*
X127083333Y-60192914D02*
X126988095Y-60240533D01*
X127892857Y-59954819D02*
X128559523Y-59954819D01*
X128559523Y-59954819D02*
X128130952Y-60954819D01*
X166261905Y-93774819D02*
X166261905Y-92774819D01*
X166261905Y-92774819D02*
X166500000Y-92774819D01*
X166500000Y-92774819D02*
X166642857Y-92822438D01*
X166642857Y-92822438D02*
X166738095Y-92917676D01*
X166738095Y-92917676D02*
X166785714Y-93012914D01*
X166785714Y-93012914D02*
X166833333Y-93203390D01*
X166833333Y-93203390D02*
X166833333Y-93346247D01*
X166833333Y-93346247D02*
X166785714Y-93536723D01*
X166785714Y-93536723D02*
X166738095Y-93631961D01*
X166738095Y-93631961D02*
X166642857Y-93727200D01*
X166642857Y-93727200D02*
X166500000Y-93774819D01*
X166500000Y-93774819D02*
X166261905Y-93774819D01*
X167166667Y-92774819D02*
X167833333Y-92774819D01*
X167833333Y-92774819D02*
X167404762Y-93774819D01*
D11*
X129326667Y-113554318D02*
X129326667Y-114461461D01*
X129326667Y-114461461D02*
X129266190Y-114642889D01*
X129266190Y-114642889D02*
X129145238Y-114763842D01*
X129145238Y-114763842D02*
X128963809Y-114824318D01*
X128963809Y-114824318D02*
X128842857Y-114824318D01*
X130596667Y-114824318D02*
X129870952Y-114824318D01*
X130233809Y-114824318D02*
X130233809Y-113554318D01*
X130233809Y-113554318D02*
X130112857Y-113735746D01*
X130112857Y-113735746D02*
X129991905Y-113856699D01*
X129991905Y-113856699D02*
X129870952Y-113917175D01*
D10*
X140333333Y-90774819D02*
X140000000Y-90298628D01*
X139761905Y-90774819D02*
X139761905Y-89774819D01*
X139761905Y-89774819D02*
X140142857Y-89774819D01*
X140142857Y-89774819D02*
X140238095Y-89822438D01*
X140238095Y-89822438D02*
X140285714Y-89870057D01*
X140285714Y-89870057D02*
X140333333Y-89965295D01*
X140333333Y-89965295D02*
X140333333Y-90108152D01*
X140333333Y-90108152D02*
X140285714Y-90203390D01*
X140285714Y-90203390D02*
X140238095Y-90251009D01*
X140238095Y-90251009D02*
X140142857Y-90298628D01*
X140142857Y-90298628D02*
X139761905Y-90298628D01*
X140666667Y-89774819D02*
X141285714Y-89774819D01*
X141285714Y-89774819D02*
X140952381Y-90155771D01*
X140952381Y-90155771D02*
X141095238Y-90155771D01*
X141095238Y-90155771D02*
X141190476Y-90203390D01*
X141190476Y-90203390D02*
X141238095Y-90251009D01*
X141238095Y-90251009D02*
X141285714Y-90346247D01*
X141285714Y-90346247D02*
X141285714Y-90584342D01*
X141285714Y-90584342D02*
X141238095Y-90679580D01*
X141238095Y-90679580D02*
X141190476Y-90727200D01*
X141190476Y-90727200D02*
X141095238Y-90774819D01*
X141095238Y-90774819D02*
X140809524Y-90774819D01*
X140809524Y-90774819D02*
X140714286Y-90727200D01*
X140714286Y-90727200D02*
X140666667Y-90679580D01*
X139019642Y-60954819D02*
X138686309Y-60478628D01*
X138448214Y-60954819D02*
X138448214Y-59954819D01*
X138448214Y-59954819D02*
X138829166Y-59954819D01*
X138829166Y-59954819D02*
X138924404Y-60002438D01*
X138924404Y-60002438D02*
X138972023Y-60050057D01*
X138972023Y-60050057D02*
X139019642Y-60145295D01*
X139019642Y-60145295D02*
X139019642Y-60288152D01*
X139019642Y-60288152D02*
X138972023Y-60383390D01*
X138972023Y-60383390D02*
X138924404Y-60431009D01*
X138924404Y-60431009D02*
X138829166Y-60478628D01*
X138829166Y-60478628D02*
X138448214Y-60478628D01*
X139972023Y-60954819D02*
X139400595Y-60954819D01*
X139686309Y-60954819D02*
X139686309Y-59954819D01*
X139686309Y-59954819D02*
X139591071Y-60097676D01*
X139591071Y-60097676D02*
X139495833Y-60192914D01*
X139495833Y-60192914D02*
X139400595Y-60240533D01*
X140448214Y-60954819D02*
X140638690Y-60954819D01*
X140638690Y-60954819D02*
X140733928Y-60907200D01*
X140733928Y-60907200D02*
X140781547Y-60859580D01*
X140781547Y-60859580D02*
X140876785Y-60716723D01*
X140876785Y-60716723D02*
X140924404Y-60526247D01*
X140924404Y-60526247D02*
X140924404Y-60145295D01*
X140924404Y-60145295D02*
X140876785Y-60050057D01*
X140876785Y-60050057D02*
X140829166Y-60002438D01*
X140829166Y-60002438D02*
X140733928Y-59954819D01*
X140733928Y-59954819D02*
X140543452Y-59954819D01*
X140543452Y-59954819D02*
X140448214Y-60002438D01*
X140448214Y-60002438D02*
X140400595Y-60050057D01*
X140400595Y-60050057D02*
X140352976Y-60145295D01*
X140352976Y-60145295D02*
X140352976Y-60383390D01*
X140352976Y-60383390D02*
X140400595Y-60478628D01*
X140400595Y-60478628D02*
X140448214Y-60526247D01*
X140448214Y-60526247D02*
X140543452Y-60573866D01*
X140543452Y-60573866D02*
X140733928Y-60573866D01*
X140733928Y-60573866D02*
X140829166Y-60526247D01*
X140829166Y-60526247D02*
X140876785Y-60478628D01*
X140876785Y-60478628D02*
X140924404Y-60383390D01*
X170204761Y-64937557D02*
X170109523Y-64889938D01*
X170109523Y-64889938D02*
X170014285Y-64794700D01*
X170014285Y-64794700D02*
X169871428Y-64651842D01*
X169871428Y-64651842D02*
X169776190Y-64604223D01*
X169776190Y-64604223D02*
X169680952Y-64604223D01*
X169728571Y-64842319D02*
X169633333Y-64794700D01*
X169633333Y-64794700D02*
X169538095Y-64699461D01*
X169538095Y-64699461D02*
X169490476Y-64508985D01*
X169490476Y-64508985D02*
X169490476Y-64175652D01*
X169490476Y-64175652D02*
X169538095Y-63985176D01*
X169538095Y-63985176D02*
X169633333Y-63889938D01*
X169633333Y-63889938D02*
X169728571Y-63842319D01*
X169728571Y-63842319D02*
X169919047Y-63842319D01*
X169919047Y-63842319D02*
X170014285Y-63889938D01*
X170014285Y-63889938D02*
X170109523Y-63985176D01*
X170109523Y-63985176D02*
X170157142Y-64175652D01*
X170157142Y-64175652D02*
X170157142Y-64508985D01*
X170157142Y-64508985D02*
X170109523Y-64699461D01*
X170109523Y-64699461D02*
X170014285Y-64794700D01*
X170014285Y-64794700D02*
X169919047Y-64842319D01*
X169919047Y-64842319D02*
X169728571Y-64842319D01*
X170490476Y-63842319D02*
X171157142Y-63842319D01*
X171157142Y-63842319D02*
X170728571Y-64842319D01*
X127333333Y-90774819D02*
X127000000Y-90298628D01*
X126761905Y-90774819D02*
X126761905Y-89774819D01*
X126761905Y-89774819D02*
X127142857Y-89774819D01*
X127142857Y-89774819D02*
X127238095Y-89822438D01*
X127238095Y-89822438D02*
X127285714Y-89870057D01*
X127285714Y-89870057D02*
X127333333Y-89965295D01*
X127333333Y-89965295D02*
X127333333Y-90108152D01*
X127333333Y-90108152D02*
X127285714Y-90203390D01*
X127285714Y-90203390D02*
X127238095Y-90251009D01*
X127238095Y-90251009D02*
X127142857Y-90298628D01*
X127142857Y-90298628D02*
X126761905Y-90298628D01*
X128285714Y-90774819D02*
X127714286Y-90774819D01*
X128000000Y-90774819D02*
X128000000Y-89774819D01*
X128000000Y-89774819D02*
X127904762Y-89917676D01*
X127904762Y-89917676D02*
X127809524Y-90012914D01*
X127809524Y-90012914D02*
X127714286Y-90060533D01*
X127083333Y-70204819D02*
X126750000Y-69728628D01*
X126511905Y-70204819D02*
X126511905Y-69204819D01*
X126511905Y-69204819D02*
X126892857Y-69204819D01*
X126892857Y-69204819D02*
X126988095Y-69252438D01*
X126988095Y-69252438D02*
X127035714Y-69300057D01*
X127035714Y-69300057D02*
X127083333Y-69395295D01*
X127083333Y-69395295D02*
X127083333Y-69538152D01*
X127083333Y-69538152D02*
X127035714Y-69633390D01*
X127035714Y-69633390D02*
X126988095Y-69681009D01*
X126988095Y-69681009D02*
X126892857Y-69728628D01*
X126892857Y-69728628D02*
X126511905Y-69728628D01*
X127559524Y-70204819D02*
X127750000Y-70204819D01*
X127750000Y-70204819D02*
X127845238Y-70157200D01*
X127845238Y-70157200D02*
X127892857Y-70109580D01*
X127892857Y-70109580D02*
X127988095Y-69966723D01*
X127988095Y-69966723D02*
X128035714Y-69776247D01*
X128035714Y-69776247D02*
X128035714Y-69395295D01*
X128035714Y-69395295D02*
X127988095Y-69300057D01*
X127988095Y-69300057D02*
X127940476Y-69252438D01*
X127940476Y-69252438D02*
X127845238Y-69204819D01*
X127845238Y-69204819D02*
X127654762Y-69204819D01*
X127654762Y-69204819D02*
X127559524Y-69252438D01*
X127559524Y-69252438D02*
X127511905Y-69300057D01*
X127511905Y-69300057D02*
X127464286Y-69395295D01*
X127464286Y-69395295D02*
X127464286Y-69633390D01*
X127464286Y-69633390D02*
X127511905Y-69728628D01*
X127511905Y-69728628D02*
X127559524Y-69776247D01*
X127559524Y-69776247D02*
X127654762Y-69823866D01*
X127654762Y-69823866D02*
X127845238Y-69823866D01*
X127845238Y-69823866D02*
X127940476Y-69776247D01*
X127940476Y-69776247D02*
X127988095Y-69728628D01*
X127988095Y-69728628D02*
X128035714Y-69633390D01*
X176404761Y-64800057D02*
X176309523Y-64752438D01*
X176309523Y-64752438D02*
X176214285Y-64657200D01*
X176214285Y-64657200D02*
X176071428Y-64514342D01*
X176071428Y-64514342D02*
X175976190Y-64466723D01*
X175976190Y-64466723D02*
X175880952Y-64466723D01*
X175928571Y-64704819D02*
X175833333Y-64657200D01*
X175833333Y-64657200D02*
X175738095Y-64561961D01*
X175738095Y-64561961D02*
X175690476Y-64371485D01*
X175690476Y-64371485D02*
X175690476Y-64038152D01*
X175690476Y-64038152D02*
X175738095Y-63847676D01*
X175738095Y-63847676D02*
X175833333Y-63752438D01*
X175833333Y-63752438D02*
X175928571Y-63704819D01*
X175928571Y-63704819D02*
X176119047Y-63704819D01*
X176119047Y-63704819D02*
X176214285Y-63752438D01*
X176214285Y-63752438D02*
X176309523Y-63847676D01*
X176309523Y-63847676D02*
X176357142Y-64038152D01*
X176357142Y-64038152D02*
X176357142Y-64371485D01*
X176357142Y-64371485D02*
X176309523Y-64561961D01*
X176309523Y-64561961D02*
X176214285Y-64657200D01*
X176214285Y-64657200D02*
X176119047Y-64704819D01*
X176119047Y-64704819D02*
X175928571Y-64704819D01*
X176928571Y-64133390D02*
X176833333Y-64085771D01*
X176833333Y-64085771D02*
X176785714Y-64038152D01*
X176785714Y-64038152D02*
X176738095Y-63942914D01*
X176738095Y-63942914D02*
X176738095Y-63895295D01*
X176738095Y-63895295D02*
X176785714Y-63800057D01*
X176785714Y-63800057D02*
X176833333Y-63752438D01*
X176833333Y-63752438D02*
X176928571Y-63704819D01*
X176928571Y-63704819D02*
X177119047Y-63704819D01*
X177119047Y-63704819D02*
X177214285Y-63752438D01*
X177214285Y-63752438D02*
X177261904Y-63800057D01*
X177261904Y-63800057D02*
X177309523Y-63895295D01*
X177309523Y-63895295D02*
X177309523Y-63942914D01*
X177309523Y-63942914D02*
X177261904Y-64038152D01*
X177261904Y-64038152D02*
X177214285Y-64085771D01*
X177214285Y-64085771D02*
X177119047Y-64133390D01*
X177119047Y-64133390D02*
X176928571Y-64133390D01*
X176928571Y-64133390D02*
X176833333Y-64181009D01*
X176833333Y-64181009D02*
X176785714Y-64228628D01*
X176785714Y-64228628D02*
X176738095Y-64323866D01*
X176738095Y-64323866D02*
X176738095Y-64514342D01*
X176738095Y-64514342D02*
X176785714Y-64609580D01*
X176785714Y-64609580D02*
X176833333Y-64657200D01*
X176833333Y-64657200D02*
X176928571Y-64704819D01*
X176928571Y-64704819D02*
X177119047Y-64704819D01*
X177119047Y-64704819D02*
X177214285Y-64657200D01*
X177214285Y-64657200D02*
X177261904Y-64609580D01*
X177261904Y-64609580D02*
X177309523Y-64514342D01*
X177309523Y-64514342D02*
X177309523Y-64323866D01*
X177309523Y-64323866D02*
X177261904Y-64228628D01*
X177261904Y-64228628D02*
X177214285Y-64181009D01*
X177214285Y-64181009D02*
X177119047Y-64133390D01*
X138154761Y-64800057D02*
X138059523Y-64752438D01*
X138059523Y-64752438D02*
X137964285Y-64657200D01*
X137964285Y-64657200D02*
X137821428Y-64514342D01*
X137821428Y-64514342D02*
X137726190Y-64466723D01*
X137726190Y-64466723D02*
X137630952Y-64466723D01*
X137678571Y-64704819D02*
X137583333Y-64657200D01*
X137583333Y-64657200D02*
X137488095Y-64561961D01*
X137488095Y-64561961D02*
X137440476Y-64371485D01*
X137440476Y-64371485D02*
X137440476Y-64038152D01*
X137440476Y-64038152D02*
X137488095Y-63847676D01*
X137488095Y-63847676D02*
X137583333Y-63752438D01*
X137583333Y-63752438D02*
X137678571Y-63704819D01*
X137678571Y-63704819D02*
X137869047Y-63704819D01*
X137869047Y-63704819D02*
X137964285Y-63752438D01*
X137964285Y-63752438D02*
X138059523Y-63847676D01*
X138059523Y-63847676D02*
X138107142Y-64038152D01*
X138107142Y-64038152D02*
X138107142Y-64371485D01*
X138107142Y-64371485D02*
X138059523Y-64561961D01*
X138059523Y-64561961D02*
X137964285Y-64657200D01*
X137964285Y-64657200D02*
X137869047Y-64704819D01*
X137869047Y-64704819D02*
X137678571Y-64704819D01*
X138488095Y-63800057D02*
X138535714Y-63752438D01*
X138535714Y-63752438D02*
X138630952Y-63704819D01*
X138630952Y-63704819D02*
X138869047Y-63704819D01*
X138869047Y-63704819D02*
X138964285Y-63752438D01*
X138964285Y-63752438D02*
X139011904Y-63800057D01*
X139011904Y-63800057D02*
X139059523Y-63895295D01*
X139059523Y-63895295D02*
X139059523Y-63990533D01*
X139059523Y-63990533D02*
X139011904Y-64133390D01*
X139011904Y-64133390D02*
X138440476Y-64704819D01*
X138440476Y-64704819D02*
X139059523Y-64704819D01*
X124638095Y-70654819D02*
X124638095Y-71464342D01*
X124638095Y-71464342D02*
X124685714Y-71559580D01*
X124685714Y-71559580D02*
X124733333Y-71607200D01*
X124733333Y-71607200D02*
X124828571Y-71654819D01*
X124828571Y-71654819D02*
X125019047Y-71654819D01*
X125019047Y-71654819D02*
X125114285Y-71607200D01*
X125114285Y-71607200D02*
X125161904Y-71559580D01*
X125161904Y-71559580D02*
X125209523Y-71464342D01*
X125209523Y-71464342D02*
X125209523Y-70654819D01*
X126209523Y-71654819D02*
X125638095Y-71654819D01*
X125923809Y-71654819D02*
X125923809Y-70654819D01*
X125923809Y-70654819D02*
X125828571Y-70797676D01*
X125828571Y-70797676D02*
X125733333Y-70892914D01*
X125733333Y-70892914D02*
X125638095Y-70940533D01*
X159357142Y-70204819D02*
X159023809Y-69728628D01*
X158785714Y-70204819D02*
X158785714Y-69204819D01*
X158785714Y-69204819D02*
X159166666Y-69204819D01*
X159166666Y-69204819D02*
X159261904Y-69252438D01*
X159261904Y-69252438D02*
X159309523Y-69300057D01*
X159309523Y-69300057D02*
X159357142Y-69395295D01*
X159357142Y-69395295D02*
X159357142Y-69538152D01*
X159357142Y-69538152D02*
X159309523Y-69633390D01*
X159309523Y-69633390D02*
X159261904Y-69681009D01*
X159261904Y-69681009D02*
X159166666Y-69728628D01*
X159166666Y-69728628D02*
X158785714Y-69728628D01*
X160309523Y-70204819D02*
X159738095Y-70204819D01*
X160023809Y-70204819D02*
X160023809Y-69204819D01*
X160023809Y-69204819D02*
X159928571Y-69347676D01*
X159928571Y-69347676D02*
X159833333Y-69442914D01*
X159833333Y-69442914D02*
X159738095Y-69490533D01*
X161166666Y-69538152D02*
X161166666Y-70204819D01*
X160928571Y-69157200D02*
X160690476Y-69871485D01*
X160690476Y-69871485D02*
X161309523Y-69871485D01*
X151238095Y-70654819D02*
X151238095Y-71464342D01*
X151238095Y-71464342D02*
X151285714Y-71559580D01*
X151285714Y-71559580D02*
X151333333Y-71607200D01*
X151333333Y-71607200D02*
X151428571Y-71654819D01*
X151428571Y-71654819D02*
X151619047Y-71654819D01*
X151619047Y-71654819D02*
X151714285Y-71607200D01*
X151714285Y-71607200D02*
X151761904Y-71559580D01*
X151761904Y-71559580D02*
X151809523Y-71464342D01*
X151809523Y-71464342D02*
X151809523Y-70654819D01*
X152761904Y-70654819D02*
X152285714Y-70654819D01*
X152285714Y-70654819D02*
X152238095Y-71131009D01*
X152238095Y-71131009D02*
X152285714Y-71083390D01*
X152285714Y-71083390D02*
X152380952Y-71035771D01*
X152380952Y-71035771D02*
X152619047Y-71035771D01*
X152619047Y-71035771D02*
X152714285Y-71083390D01*
X152714285Y-71083390D02*
X152761904Y-71131009D01*
X152761904Y-71131009D02*
X152809523Y-71226247D01*
X152809523Y-71226247D02*
X152809523Y-71464342D01*
X152809523Y-71464342D02*
X152761904Y-71559580D01*
X152761904Y-71559580D02*
X152714285Y-71607200D01*
X152714285Y-71607200D02*
X152619047Y-71654819D01*
X152619047Y-71654819D02*
X152380952Y-71654819D01*
X152380952Y-71654819D02*
X152285714Y-71607200D01*
X152285714Y-71607200D02*
X152238095Y-71559580D01*
X165857142Y-70204819D02*
X165523809Y-69728628D01*
X165285714Y-70204819D02*
X165285714Y-69204819D01*
X165285714Y-69204819D02*
X165666666Y-69204819D01*
X165666666Y-69204819D02*
X165761904Y-69252438D01*
X165761904Y-69252438D02*
X165809523Y-69300057D01*
X165809523Y-69300057D02*
X165857142Y-69395295D01*
X165857142Y-69395295D02*
X165857142Y-69538152D01*
X165857142Y-69538152D02*
X165809523Y-69633390D01*
X165809523Y-69633390D02*
X165761904Y-69681009D01*
X165761904Y-69681009D02*
X165666666Y-69728628D01*
X165666666Y-69728628D02*
X165285714Y-69728628D01*
X166809523Y-70204819D02*
X166238095Y-70204819D01*
X166523809Y-70204819D02*
X166523809Y-69204819D01*
X166523809Y-69204819D02*
X166428571Y-69347676D01*
X166428571Y-69347676D02*
X166333333Y-69442914D01*
X166333333Y-69442914D02*
X166238095Y-69490533D01*
X167714285Y-69204819D02*
X167238095Y-69204819D01*
X167238095Y-69204819D02*
X167190476Y-69681009D01*
X167190476Y-69681009D02*
X167238095Y-69633390D01*
X167238095Y-69633390D02*
X167333333Y-69585771D01*
X167333333Y-69585771D02*
X167571428Y-69585771D01*
X167571428Y-69585771D02*
X167666666Y-69633390D01*
X167666666Y-69633390D02*
X167714285Y-69681009D01*
X167714285Y-69681009D02*
X167761904Y-69776247D01*
X167761904Y-69776247D02*
X167761904Y-70014342D01*
X167761904Y-70014342D02*
X167714285Y-70109580D01*
X167714285Y-70109580D02*
X167666666Y-70157200D01*
X167666666Y-70157200D02*
X167571428Y-70204819D01*
X167571428Y-70204819D02*
X167333333Y-70204819D01*
X167333333Y-70204819D02*
X167238095Y-70157200D01*
X167238095Y-70157200D02*
X167190476Y-70109580D01*
X133511905Y-93774819D02*
X133511905Y-92774819D01*
X133511905Y-92774819D02*
X133750000Y-92774819D01*
X133750000Y-92774819D02*
X133892857Y-92822438D01*
X133892857Y-92822438D02*
X133988095Y-92917676D01*
X133988095Y-92917676D02*
X134035714Y-93012914D01*
X134035714Y-93012914D02*
X134083333Y-93203390D01*
X134083333Y-93203390D02*
X134083333Y-93346247D01*
X134083333Y-93346247D02*
X134035714Y-93536723D01*
X134035714Y-93536723D02*
X133988095Y-93631961D01*
X133988095Y-93631961D02*
X133892857Y-93727200D01*
X133892857Y-93727200D02*
X133750000Y-93774819D01*
X133750000Y-93774819D02*
X133511905Y-93774819D01*
X134464286Y-92870057D02*
X134511905Y-92822438D01*
X134511905Y-92822438D02*
X134607143Y-92774819D01*
X134607143Y-92774819D02*
X134845238Y-92774819D01*
X134845238Y-92774819D02*
X134940476Y-92822438D01*
X134940476Y-92822438D02*
X134988095Y-92870057D01*
X134988095Y-92870057D02*
X135035714Y-92965295D01*
X135035714Y-92965295D02*
X135035714Y-93060533D01*
X135035714Y-93060533D02*
X134988095Y-93203390D01*
X134988095Y-93203390D02*
X134416667Y-93774819D01*
X134416667Y-93774819D02*
X135035714Y-93774819D01*
X150654761Y-65050057D02*
X150559523Y-65002438D01*
X150559523Y-65002438D02*
X150464285Y-64907200D01*
X150464285Y-64907200D02*
X150321428Y-64764342D01*
X150321428Y-64764342D02*
X150226190Y-64716723D01*
X150226190Y-64716723D02*
X150130952Y-64716723D01*
X150178571Y-64954819D02*
X150083333Y-64907200D01*
X150083333Y-64907200D02*
X149988095Y-64811961D01*
X149988095Y-64811961D02*
X149940476Y-64621485D01*
X149940476Y-64621485D02*
X149940476Y-64288152D01*
X149940476Y-64288152D02*
X149988095Y-64097676D01*
X149988095Y-64097676D02*
X150083333Y-64002438D01*
X150083333Y-64002438D02*
X150178571Y-63954819D01*
X150178571Y-63954819D02*
X150369047Y-63954819D01*
X150369047Y-63954819D02*
X150464285Y-64002438D01*
X150464285Y-64002438D02*
X150559523Y-64097676D01*
X150559523Y-64097676D02*
X150607142Y-64288152D01*
X150607142Y-64288152D02*
X150607142Y-64621485D01*
X150607142Y-64621485D02*
X150559523Y-64811961D01*
X150559523Y-64811961D02*
X150464285Y-64907200D01*
X150464285Y-64907200D02*
X150369047Y-64954819D01*
X150369047Y-64954819D02*
X150178571Y-64954819D01*
X151464285Y-64288152D02*
X151464285Y-64954819D01*
X151226190Y-63907200D02*
X150988095Y-64621485D01*
X150988095Y-64621485D02*
X151607142Y-64621485D01*
X153261905Y-93774819D02*
X153261905Y-92774819D01*
X153261905Y-92774819D02*
X153500000Y-92774819D01*
X153500000Y-92774819D02*
X153642857Y-92822438D01*
X153642857Y-92822438D02*
X153738095Y-92917676D01*
X153738095Y-92917676D02*
X153785714Y-93012914D01*
X153785714Y-93012914D02*
X153833333Y-93203390D01*
X153833333Y-93203390D02*
X153833333Y-93346247D01*
X153833333Y-93346247D02*
X153785714Y-93536723D01*
X153785714Y-93536723D02*
X153738095Y-93631961D01*
X153738095Y-93631961D02*
X153642857Y-93727200D01*
X153642857Y-93727200D02*
X153500000Y-93774819D01*
X153500000Y-93774819D02*
X153261905Y-93774819D01*
X154738095Y-92774819D02*
X154261905Y-92774819D01*
X154261905Y-92774819D02*
X154214286Y-93251009D01*
X154214286Y-93251009D02*
X154261905Y-93203390D01*
X154261905Y-93203390D02*
X154357143Y-93155771D01*
X154357143Y-93155771D02*
X154595238Y-93155771D01*
X154595238Y-93155771D02*
X154690476Y-93203390D01*
X154690476Y-93203390D02*
X154738095Y-93251009D01*
X154738095Y-93251009D02*
X154785714Y-93346247D01*
X154785714Y-93346247D02*
X154785714Y-93584342D01*
X154785714Y-93584342D02*
X154738095Y-93679580D01*
X154738095Y-93679580D02*
X154690476Y-93727200D01*
X154690476Y-93727200D02*
X154595238Y-93774819D01*
X154595238Y-93774819D02*
X154357143Y-93774819D01*
X154357143Y-93774819D02*
X154261905Y-93727200D01*
X154261905Y-93727200D02*
X154214286Y-93679580D01*
X133995833Y-90774819D02*
X133662500Y-90298628D01*
X133424405Y-90774819D02*
X133424405Y-89774819D01*
X133424405Y-89774819D02*
X133805357Y-89774819D01*
X133805357Y-89774819D02*
X133900595Y-89822438D01*
X133900595Y-89822438D02*
X133948214Y-89870057D01*
X133948214Y-89870057D02*
X133995833Y-89965295D01*
X133995833Y-89965295D02*
X133995833Y-90108152D01*
X133995833Y-90108152D02*
X133948214Y-90203390D01*
X133948214Y-90203390D02*
X133900595Y-90251009D01*
X133900595Y-90251009D02*
X133805357Y-90298628D01*
X133805357Y-90298628D02*
X133424405Y-90298628D01*
X134376786Y-89870057D02*
X134424405Y-89822438D01*
X134424405Y-89822438D02*
X134519643Y-89774819D01*
X134519643Y-89774819D02*
X134757738Y-89774819D01*
X134757738Y-89774819D02*
X134852976Y-89822438D01*
X134852976Y-89822438D02*
X134900595Y-89870057D01*
X134900595Y-89870057D02*
X134948214Y-89965295D01*
X134948214Y-89965295D02*
X134948214Y-90060533D01*
X134948214Y-90060533D02*
X134900595Y-90203390D01*
X134900595Y-90203390D02*
X134329167Y-90774819D01*
X134329167Y-90774819D02*
X134948214Y-90774819D01*
X163904761Y-64800057D02*
X163809523Y-64752438D01*
X163809523Y-64752438D02*
X163714285Y-64657200D01*
X163714285Y-64657200D02*
X163571428Y-64514342D01*
X163571428Y-64514342D02*
X163476190Y-64466723D01*
X163476190Y-64466723D02*
X163380952Y-64466723D01*
X163428571Y-64704819D02*
X163333333Y-64657200D01*
X163333333Y-64657200D02*
X163238095Y-64561961D01*
X163238095Y-64561961D02*
X163190476Y-64371485D01*
X163190476Y-64371485D02*
X163190476Y-64038152D01*
X163190476Y-64038152D02*
X163238095Y-63847676D01*
X163238095Y-63847676D02*
X163333333Y-63752438D01*
X163333333Y-63752438D02*
X163428571Y-63704819D01*
X163428571Y-63704819D02*
X163619047Y-63704819D01*
X163619047Y-63704819D02*
X163714285Y-63752438D01*
X163714285Y-63752438D02*
X163809523Y-63847676D01*
X163809523Y-63847676D02*
X163857142Y-64038152D01*
X163857142Y-64038152D02*
X163857142Y-64371485D01*
X163857142Y-64371485D02*
X163809523Y-64561961D01*
X163809523Y-64561961D02*
X163714285Y-64657200D01*
X163714285Y-64657200D02*
X163619047Y-64704819D01*
X163619047Y-64704819D02*
X163428571Y-64704819D01*
X164714285Y-63704819D02*
X164523809Y-63704819D01*
X164523809Y-63704819D02*
X164428571Y-63752438D01*
X164428571Y-63752438D02*
X164380952Y-63800057D01*
X164380952Y-63800057D02*
X164285714Y-63942914D01*
X164285714Y-63942914D02*
X164238095Y-64133390D01*
X164238095Y-64133390D02*
X164238095Y-64514342D01*
X164238095Y-64514342D02*
X164285714Y-64609580D01*
X164285714Y-64609580D02*
X164333333Y-64657200D01*
X164333333Y-64657200D02*
X164428571Y-64704819D01*
X164428571Y-64704819D02*
X164619047Y-64704819D01*
X164619047Y-64704819D02*
X164714285Y-64657200D01*
X164714285Y-64657200D02*
X164761904Y-64609580D01*
X164761904Y-64609580D02*
X164809523Y-64514342D01*
X164809523Y-64514342D02*
X164809523Y-64276247D01*
X164809523Y-64276247D02*
X164761904Y-64181009D01*
X164761904Y-64181009D02*
X164714285Y-64133390D01*
X164714285Y-64133390D02*
X164619047Y-64085771D01*
X164619047Y-64085771D02*
X164428571Y-64085771D01*
X164428571Y-64085771D02*
X164333333Y-64133390D01*
X164333333Y-64133390D02*
X164285714Y-64181009D01*
X164285714Y-64181009D02*
X164238095Y-64276247D01*
X139761905Y-93774819D02*
X139761905Y-92774819D01*
X139761905Y-92774819D02*
X140000000Y-92774819D01*
X140000000Y-92774819D02*
X140142857Y-92822438D01*
X140142857Y-92822438D02*
X140238095Y-92917676D01*
X140238095Y-92917676D02*
X140285714Y-93012914D01*
X140285714Y-93012914D02*
X140333333Y-93203390D01*
X140333333Y-93203390D02*
X140333333Y-93346247D01*
X140333333Y-93346247D02*
X140285714Y-93536723D01*
X140285714Y-93536723D02*
X140238095Y-93631961D01*
X140238095Y-93631961D02*
X140142857Y-93727200D01*
X140142857Y-93727200D02*
X140000000Y-93774819D01*
X140000000Y-93774819D02*
X139761905Y-93774819D01*
X140666667Y-92774819D02*
X141285714Y-92774819D01*
X141285714Y-92774819D02*
X140952381Y-93155771D01*
X140952381Y-93155771D02*
X141095238Y-93155771D01*
X141095238Y-93155771D02*
X141190476Y-93203390D01*
X141190476Y-93203390D02*
X141238095Y-93251009D01*
X141238095Y-93251009D02*
X141285714Y-93346247D01*
X141285714Y-93346247D02*
X141285714Y-93584342D01*
X141285714Y-93584342D02*
X141238095Y-93679580D01*
X141238095Y-93679580D02*
X141190476Y-93727200D01*
X141190476Y-93727200D02*
X141095238Y-93774819D01*
X141095238Y-93774819D02*
X140809524Y-93774819D01*
X140809524Y-93774819D02*
X140714286Y-93727200D01*
X140714286Y-93727200D02*
X140666667Y-93679580D01*
X145857142Y-70204819D02*
X145523809Y-69728628D01*
X145285714Y-70204819D02*
X145285714Y-69204819D01*
X145285714Y-69204819D02*
X145666666Y-69204819D01*
X145666666Y-69204819D02*
X145761904Y-69252438D01*
X145761904Y-69252438D02*
X145809523Y-69300057D01*
X145809523Y-69300057D02*
X145857142Y-69395295D01*
X145857142Y-69395295D02*
X145857142Y-69538152D01*
X145857142Y-69538152D02*
X145809523Y-69633390D01*
X145809523Y-69633390D02*
X145761904Y-69681009D01*
X145761904Y-69681009D02*
X145666666Y-69728628D01*
X145666666Y-69728628D02*
X145285714Y-69728628D01*
X146809523Y-70204819D02*
X146238095Y-70204819D01*
X146523809Y-70204819D02*
X146523809Y-69204819D01*
X146523809Y-69204819D02*
X146428571Y-69347676D01*
X146428571Y-69347676D02*
X146333333Y-69442914D01*
X146333333Y-69442914D02*
X146238095Y-69490533D01*
X147190476Y-69300057D02*
X147238095Y-69252438D01*
X147238095Y-69252438D02*
X147333333Y-69204819D01*
X147333333Y-69204819D02*
X147571428Y-69204819D01*
X147571428Y-69204819D02*
X147666666Y-69252438D01*
X147666666Y-69252438D02*
X147714285Y-69300057D01*
X147714285Y-69300057D02*
X147761904Y-69395295D01*
X147761904Y-69395295D02*
X147761904Y-69490533D01*
X147761904Y-69490533D02*
X147714285Y-69633390D01*
X147714285Y-69633390D02*
X147142857Y-70204819D01*
X147142857Y-70204819D02*
X147761904Y-70204819D01*
X146833333Y-90774819D02*
X146500000Y-90298628D01*
X146261905Y-90774819D02*
X146261905Y-89774819D01*
X146261905Y-89774819D02*
X146642857Y-89774819D01*
X146642857Y-89774819D02*
X146738095Y-89822438D01*
X146738095Y-89822438D02*
X146785714Y-89870057D01*
X146785714Y-89870057D02*
X146833333Y-89965295D01*
X146833333Y-89965295D02*
X146833333Y-90108152D01*
X146833333Y-90108152D02*
X146785714Y-90203390D01*
X146785714Y-90203390D02*
X146738095Y-90251009D01*
X146738095Y-90251009D02*
X146642857Y-90298628D01*
X146642857Y-90298628D02*
X146261905Y-90298628D01*
X147690476Y-90108152D02*
X147690476Y-90774819D01*
X147452381Y-89727200D02*
X147214286Y-90441485D01*
X147214286Y-90441485D02*
X147833333Y-90441485D01*
X159761905Y-93774819D02*
X159761905Y-92774819D01*
X159761905Y-92774819D02*
X160000000Y-92774819D01*
X160000000Y-92774819D02*
X160142857Y-92822438D01*
X160142857Y-92822438D02*
X160238095Y-92917676D01*
X160238095Y-92917676D02*
X160285714Y-93012914D01*
X160285714Y-93012914D02*
X160333333Y-93203390D01*
X160333333Y-93203390D02*
X160333333Y-93346247D01*
X160333333Y-93346247D02*
X160285714Y-93536723D01*
X160285714Y-93536723D02*
X160238095Y-93631961D01*
X160238095Y-93631961D02*
X160142857Y-93727200D01*
X160142857Y-93727200D02*
X160000000Y-93774819D01*
X160000000Y-93774819D02*
X159761905Y-93774819D01*
X161190476Y-92774819D02*
X161000000Y-92774819D01*
X161000000Y-92774819D02*
X160904762Y-92822438D01*
X160904762Y-92822438D02*
X160857143Y-92870057D01*
X160857143Y-92870057D02*
X160761905Y-93012914D01*
X160761905Y-93012914D02*
X160714286Y-93203390D01*
X160714286Y-93203390D02*
X160714286Y-93584342D01*
X160714286Y-93584342D02*
X160761905Y-93679580D01*
X160761905Y-93679580D02*
X160809524Y-93727200D01*
X160809524Y-93727200D02*
X160904762Y-93774819D01*
X160904762Y-93774819D02*
X161095238Y-93774819D01*
X161095238Y-93774819D02*
X161190476Y-93727200D01*
X161190476Y-93727200D02*
X161238095Y-93679580D01*
X161238095Y-93679580D02*
X161285714Y-93584342D01*
X161285714Y-93584342D02*
X161285714Y-93346247D01*
X161285714Y-93346247D02*
X161238095Y-93251009D01*
X161238095Y-93251009D02*
X161190476Y-93203390D01*
X161190476Y-93203390D02*
X161095238Y-93155771D01*
X161095238Y-93155771D02*
X160904762Y-93155771D01*
X160904762Y-93155771D02*
X160809524Y-93203390D01*
X160809524Y-93203390D02*
X160761905Y-93251009D01*
X160761905Y-93251009D02*
X160714286Y-93346247D01*
X172761905Y-93774819D02*
X172761905Y-92774819D01*
X172761905Y-92774819D02*
X173000000Y-92774819D01*
X173000000Y-92774819D02*
X173142857Y-92822438D01*
X173142857Y-92822438D02*
X173238095Y-92917676D01*
X173238095Y-92917676D02*
X173285714Y-93012914D01*
X173285714Y-93012914D02*
X173333333Y-93203390D01*
X173333333Y-93203390D02*
X173333333Y-93346247D01*
X173333333Y-93346247D02*
X173285714Y-93536723D01*
X173285714Y-93536723D02*
X173238095Y-93631961D01*
X173238095Y-93631961D02*
X173142857Y-93727200D01*
X173142857Y-93727200D02*
X173000000Y-93774819D01*
X173000000Y-93774819D02*
X172761905Y-93774819D01*
X173904762Y-93203390D02*
X173809524Y-93155771D01*
X173809524Y-93155771D02*
X173761905Y-93108152D01*
X173761905Y-93108152D02*
X173714286Y-93012914D01*
X173714286Y-93012914D02*
X173714286Y-92965295D01*
X173714286Y-92965295D02*
X173761905Y-92870057D01*
X173761905Y-92870057D02*
X173809524Y-92822438D01*
X173809524Y-92822438D02*
X173904762Y-92774819D01*
X173904762Y-92774819D02*
X174095238Y-92774819D01*
X174095238Y-92774819D02*
X174190476Y-92822438D01*
X174190476Y-92822438D02*
X174238095Y-92870057D01*
X174238095Y-92870057D02*
X174285714Y-92965295D01*
X174285714Y-92965295D02*
X174285714Y-93012914D01*
X174285714Y-93012914D02*
X174238095Y-93108152D01*
X174238095Y-93108152D02*
X174190476Y-93155771D01*
X174190476Y-93155771D02*
X174095238Y-93203390D01*
X174095238Y-93203390D02*
X173904762Y-93203390D01*
X173904762Y-93203390D02*
X173809524Y-93251009D01*
X173809524Y-93251009D02*
X173761905Y-93298628D01*
X173761905Y-93298628D02*
X173714286Y-93393866D01*
X173714286Y-93393866D02*
X173714286Y-93584342D01*
X173714286Y-93584342D02*
X173761905Y-93679580D01*
X173761905Y-93679580D02*
X173809524Y-93727200D01*
X173809524Y-93727200D02*
X173904762Y-93774819D01*
X173904762Y-93774819D02*
X174095238Y-93774819D01*
X174095238Y-93774819D02*
X174190476Y-93727200D01*
X174190476Y-93727200D02*
X174238095Y-93679580D01*
X174238095Y-93679580D02*
X174285714Y-93584342D01*
X174285714Y-93584342D02*
X174285714Y-93393866D01*
X174285714Y-93393866D02*
X174238095Y-93298628D01*
X174238095Y-93298628D02*
X174190476Y-93251009D01*
X174190476Y-93251009D02*
X174095238Y-93203390D01*
X164857142Y-60954819D02*
X164523809Y-60478628D01*
X164285714Y-60954819D02*
X164285714Y-59954819D01*
X164285714Y-59954819D02*
X164666666Y-59954819D01*
X164666666Y-59954819D02*
X164761904Y-60002438D01*
X164761904Y-60002438D02*
X164809523Y-60050057D01*
X164809523Y-60050057D02*
X164857142Y-60145295D01*
X164857142Y-60145295D02*
X164857142Y-60288152D01*
X164857142Y-60288152D02*
X164809523Y-60383390D01*
X164809523Y-60383390D02*
X164761904Y-60431009D01*
X164761904Y-60431009D02*
X164666666Y-60478628D01*
X164666666Y-60478628D02*
X164285714Y-60478628D01*
X165238095Y-60050057D02*
X165285714Y-60002438D01*
X165285714Y-60002438D02*
X165380952Y-59954819D01*
X165380952Y-59954819D02*
X165619047Y-59954819D01*
X165619047Y-59954819D02*
X165714285Y-60002438D01*
X165714285Y-60002438D02*
X165761904Y-60050057D01*
X165761904Y-60050057D02*
X165809523Y-60145295D01*
X165809523Y-60145295D02*
X165809523Y-60240533D01*
X165809523Y-60240533D02*
X165761904Y-60383390D01*
X165761904Y-60383390D02*
X165190476Y-60954819D01*
X165190476Y-60954819D02*
X165809523Y-60954819D01*
X166142857Y-59954819D02*
X166761904Y-59954819D01*
X166761904Y-59954819D02*
X166428571Y-60335771D01*
X166428571Y-60335771D02*
X166571428Y-60335771D01*
X166571428Y-60335771D02*
X166666666Y-60383390D01*
X166666666Y-60383390D02*
X166714285Y-60431009D01*
X166714285Y-60431009D02*
X166761904Y-60526247D01*
X166761904Y-60526247D02*
X166761904Y-60764342D01*
X166761904Y-60764342D02*
X166714285Y-60859580D01*
X166714285Y-60859580D02*
X166666666Y-60907200D01*
X166666666Y-60907200D02*
X166571428Y-60954819D01*
X166571428Y-60954819D02*
X166285714Y-60954819D01*
X166285714Y-60954819D02*
X166190476Y-60907200D01*
X166190476Y-60907200D02*
X166142857Y-60859580D01*
X152357142Y-60954819D02*
X152023809Y-60478628D01*
X151785714Y-60954819D02*
X151785714Y-59954819D01*
X151785714Y-59954819D02*
X152166666Y-59954819D01*
X152166666Y-59954819D02*
X152261904Y-60002438D01*
X152261904Y-60002438D02*
X152309523Y-60050057D01*
X152309523Y-60050057D02*
X152357142Y-60145295D01*
X152357142Y-60145295D02*
X152357142Y-60288152D01*
X152357142Y-60288152D02*
X152309523Y-60383390D01*
X152309523Y-60383390D02*
X152261904Y-60431009D01*
X152261904Y-60431009D02*
X152166666Y-60478628D01*
X152166666Y-60478628D02*
X151785714Y-60478628D01*
X152738095Y-60050057D02*
X152785714Y-60002438D01*
X152785714Y-60002438D02*
X152880952Y-59954819D01*
X152880952Y-59954819D02*
X153119047Y-59954819D01*
X153119047Y-59954819D02*
X153214285Y-60002438D01*
X153214285Y-60002438D02*
X153261904Y-60050057D01*
X153261904Y-60050057D02*
X153309523Y-60145295D01*
X153309523Y-60145295D02*
X153309523Y-60240533D01*
X153309523Y-60240533D02*
X153261904Y-60383390D01*
X153261904Y-60383390D02*
X152690476Y-60954819D01*
X152690476Y-60954819D02*
X153309523Y-60954819D01*
X154261904Y-60954819D02*
X153690476Y-60954819D01*
X153976190Y-60954819D02*
X153976190Y-59954819D01*
X153976190Y-59954819D02*
X153880952Y-60097676D01*
X153880952Y-60097676D02*
X153785714Y-60192914D01*
X153785714Y-60192914D02*
X153690476Y-60240533D01*
X131904761Y-65050057D02*
X131809523Y-65002438D01*
X131809523Y-65002438D02*
X131714285Y-64907200D01*
X131714285Y-64907200D02*
X131571428Y-64764342D01*
X131571428Y-64764342D02*
X131476190Y-64716723D01*
X131476190Y-64716723D02*
X131380952Y-64716723D01*
X131428571Y-64954819D02*
X131333333Y-64907200D01*
X131333333Y-64907200D02*
X131238095Y-64811961D01*
X131238095Y-64811961D02*
X131190476Y-64621485D01*
X131190476Y-64621485D02*
X131190476Y-64288152D01*
X131190476Y-64288152D02*
X131238095Y-64097676D01*
X131238095Y-64097676D02*
X131333333Y-64002438D01*
X131333333Y-64002438D02*
X131428571Y-63954819D01*
X131428571Y-63954819D02*
X131619047Y-63954819D01*
X131619047Y-63954819D02*
X131714285Y-64002438D01*
X131714285Y-64002438D02*
X131809523Y-64097676D01*
X131809523Y-64097676D02*
X131857142Y-64288152D01*
X131857142Y-64288152D02*
X131857142Y-64621485D01*
X131857142Y-64621485D02*
X131809523Y-64811961D01*
X131809523Y-64811961D02*
X131714285Y-64907200D01*
X131714285Y-64907200D02*
X131619047Y-64954819D01*
X131619047Y-64954819D02*
X131428571Y-64954819D01*
X132809523Y-64954819D02*
X132238095Y-64954819D01*
X132523809Y-64954819D02*
X132523809Y-63954819D01*
X132523809Y-63954819D02*
X132428571Y-64097676D01*
X132428571Y-64097676D02*
X132333333Y-64192914D01*
X132333333Y-64192914D02*
X132238095Y-64240533D01*
X152857142Y-70204819D02*
X152523809Y-69728628D01*
X152285714Y-70204819D02*
X152285714Y-69204819D01*
X152285714Y-69204819D02*
X152666666Y-69204819D01*
X152666666Y-69204819D02*
X152761904Y-69252438D01*
X152761904Y-69252438D02*
X152809523Y-69300057D01*
X152809523Y-69300057D02*
X152857142Y-69395295D01*
X152857142Y-69395295D02*
X152857142Y-69538152D01*
X152857142Y-69538152D02*
X152809523Y-69633390D01*
X152809523Y-69633390D02*
X152761904Y-69681009D01*
X152761904Y-69681009D02*
X152666666Y-69728628D01*
X152666666Y-69728628D02*
X152285714Y-69728628D01*
X153809523Y-70204819D02*
X153238095Y-70204819D01*
X153523809Y-70204819D02*
X153523809Y-69204819D01*
X153523809Y-69204819D02*
X153428571Y-69347676D01*
X153428571Y-69347676D02*
X153333333Y-69442914D01*
X153333333Y-69442914D02*
X153238095Y-69490533D01*
X154142857Y-69204819D02*
X154761904Y-69204819D01*
X154761904Y-69204819D02*
X154428571Y-69585771D01*
X154428571Y-69585771D02*
X154571428Y-69585771D01*
X154571428Y-69585771D02*
X154666666Y-69633390D01*
X154666666Y-69633390D02*
X154714285Y-69681009D01*
X154714285Y-69681009D02*
X154761904Y-69776247D01*
X154761904Y-69776247D02*
X154761904Y-70014342D01*
X154761904Y-70014342D02*
X154714285Y-70109580D01*
X154714285Y-70109580D02*
X154666666Y-70157200D01*
X154666666Y-70157200D02*
X154571428Y-70204819D01*
X154571428Y-70204819D02*
X154285714Y-70204819D01*
X154285714Y-70204819D02*
X154190476Y-70157200D01*
X154190476Y-70157200D02*
X154142857Y-70109580D01*
X139357142Y-70204819D02*
X139023809Y-69728628D01*
X138785714Y-70204819D02*
X138785714Y-69204819D01*
X138785714Y-69204819D02*
X139166666Y-69204819D01*
X139166666Y-69204819D02*
X139261904Y-69252438D01*
X139261904Y-69252438D02*
X139309523Y-69300057D01*
X139309523Y-69300057D02*
X139357142Y-69395295D01*
X139357142Y-69395295D02*
X139357142Y-69538152D01*
X139357142Y-69538152D02*
X139309523Y-69633390D01*
X139309523Y-69633390D02*
X139261904Y-69681009D01*
X139261904Y-69681009D02*
X139166666Y-69728628D01*
X139166666Y-69728628D02*
X138785714Y-69728628D01*
X140309523Y-70204819D02*
X139738095Y-70204819D01*
X140023809Y-70204819D02*
X140023809Y-69204819D01*
X140023809Y-69204819D02*
X139928571Y-69347676D01*
X139928571Y-69347676D02*
X139833333Y-69442914D01*
X139833333Y-69442914D02*
X139738095Y-69490533D01*
X141261904Y-70204819D02*
X140690476Y-70204819D01*
X140976190Y-70204819D02*
X140976190Y-69204819D01*
X140976190Y-69204819D02*
X140880952Y-69347676D01*
X140880952Y-69347676D02*
X140785714Y-69442914D01*
X140785714Y-69442914D02*
X140690476Y-69490533D01*
X160333333Y-90774819D02*
X160000000Y-90298628D01*
X159761905Y-90774819D02*
X159761905Y-89774819D01*
X159761905Y-89774819D02*
X160142857Y-89774819D01*
X160142857Y-89774819D02*
X160238095Y-89822438D01*
X160238095Y-89822438D02*
X160285714Y-89870057D01*
X160285714Y-89870057D02*
X160333333Y-89965295D01*
X160333333Y-89965295D02*
X160333333Y-90108152D01*
X160333333Y-90108152D02*
X160285714Y-90203390D01*
X160285714Y-90203390D02*
X160238095Y-90251009D01*
X160238095Y-90251009D02*
X160142857Y-90298628D01*
X160142857Y-90298628D02*
X159761905Y-90298628D01*
X161190476Y-89774819D02*
X161000000Y-89774819D01*
X161000000Y-89774819D02*
X160904762Y-89822438D01*
X160904762Y-89822438D02*
X160857143Y-89870057D01*
X160857143Y-89870057D02*
X160761905Y-90012914D01*
X160761905Y-90012914D02*
X160714286Y-90203390D01*
X160714286Y-90203390D02*
X160714286Y-90584342D01*
X160714286Y-90584342D02*
X160761905Y-90679580D01*
X160761905Y-90679580D02*
X160809524Y-90727200D01*
X160809524Y-90727200D02*
X160904762Y-90774819D01*
X160904762Y-90774819D02*
X161095238Y-90774819D01*
X161095238Y-90774819D02*
X161190476Y-90727200D01*
X161190476Y-90727200D02*
X161238095Y-90679580D01*
X161238095Y-90679580D02*
X161285714Y-90584342D01*
X161285714Y-90584342D02*
X161285714Y-90346247D01*
X161285714Y-90346247D02*
X161238095Y-90251009D01*
X161238095Y-90251009D02*
X161190476Y-90203390D01*
X161190476Y-90203390D02*
X161095238Y-90155771D01*
X161095238Y-90155771D02*
X160904762Y-90155771D01*
X160904762Y-90155771D02*
X160809524Y-90203390D01*
X160809524Y-90203390D02*
X160761905Y-90251009D01*
X160761905Y-90251009D02*
X160714286Y-90346247D01*
X137838095Y-70654819D02*
X137838095Y-71464342D01*
X137838095Y-71464342D02*
X137885714Y-71559580D01*
X137885714Y-71559580D02*
X137933333Y-71607200D01*
X137933333Y-71607200D02*
X138028571Y-71654819D01*
X138028571Y-71654819D02*
X138219047Y-71654819D01*
X138219047Y-71654819D02*
X138314285Y-71607200D01*
X138314285Y-71607200D02*
X138361904Y-71559580D01*
X138361904Y-71559580D02*
X138409523Y-71464342D01*
X138409523Y-71464342D02*
X138409523Y-70654819D01*
X138790476Y-70654819D02*
X139409523Y-70654819D01*
X139409523Y-70654819D02*
X139076190Y-71035771D01*
X139076190Y-71035771D02*
X139219047Y-71035771D01*
X139219047Y-71035771D02*
X139314285Y-71083390D01*
X139314285Y-71083390D02*
X139361904Y-71131009D01*
X139361904Y-71131009D02*
X139409523Y-71226247D01*
X139409523Y-71226247D02*
X139409523Y-71464342D01*
X139409523Y-71464342D02*
X139361904Y-71559580D01*
X139361904Y-71559580D02*
X139314285Y-71607200D01*
X139314285Y-71607200D02*
X139219047Y-71654819D01*
X139219047Y-71654819D02*
X138933333Y-71654819D01*
X138933333Y-71654819D02*
X138838095Y-71607200D01*
X138838095Y-71607200D02*
X138790476Y-71559580D01*
X144238095Y-70654819D02*
X144238095Y-71464342D01*
X144238095Y-71464342D02*
X144285714Y-71559580D01*
X144285714Y-71559580D02*
X144333333Y-71607200D01*
X144333333Y-71607200D02*
X144428571Y-71654819D01*
X144428571Y-71654819D02*
X144619047Y-71654819D01*
X144619047Y-71654819D02*
X144714285Y-71607200D01*
X144714285Y-71607200D02*
X144761904Y-71559580D01*
X144761904Y-71559580D02*
X144809523Y-71464342D01*
X144809523Y-71464342D02*
X144809523Y-70654819D01*
X145714285Y-70988152D02*
X145714285Y-71654819D01*
X145476190Y-70607200D02*
X145238095Y-71321485D01*
X145238095Y-71321485D02*
X145857142Y-71321485D01*
D11*
X122536667Y-111284318D02*
X122536667Y-112191461D01*
X122536667Y-112191461D02*
X122476190Y-112372889D01*
X122476190Y-112372889D02*
X122355238Y-112493842D01*
X122355238Y-112493842D02*
X122173809Y-112554318D01*
X122173809Y-112554318D02*
X122052857Y-112554318D01*
X123080952Y-111405270D02*
X123141428Y-111344794D01*
X123141428Y-111344794D02*
X123262381Y-111284318D01*
X123262381Y-111284318D02*
X123564762Y-111284318D01*
X123564762Y-111284318D02*
X123685714Y-111344794D01*
X123685714Y-111344794D02*
X123746190Y-111405270D01*
X123746190Y-111405270D02*
X123806667Y-111526222D01*
X123806667Y-111526222D02*
X123806667Y-111647175D01*
X123806667Y-111647175D02*
X123746190Y-111828603D01*
X123746190Y-111828603D02*
X123020476Y-112554318D01*
X123020476Y-112554318D02*
X123806667Y-112554318D01*
D12*
%TO.C,R8*%
X173245276Y-91227500D02*
X173754724Y-91227500D01*
X173245276Y-92272500D02*
X173754724Y-92272500D01*
%TO.C,R22*%
X161995276Y-59977500D02*
X162504724Y-59977500D01*
X161995276Y-61022500D02*
X162504724Y-61022500D01*
%TO.C,U7*%
X164900000Y-75715000D02*
X164900000Y-80785000D01*
X164900000Y-80785000D02*
X170100000Y-80785000D01*
X170100000Y-75715000D02*
X164900000Y-75715000D01*
X170100000Y-77250000D02*
X170100000Y-75715000D01*
X170100000Y-80785000D02*
X170100000Y-79250000D01*
X170160000Y-72015000D02*
X164840000Y-72015000D01*
X164840000Y-84485000D01*
X170160000Y-84485000D01*
X170160000Y-72015000D01*
X170100000Y-79250000D02*
G75*
G02*
X170100000Y-77250000I0J1000000D01*
G01*
%TO.C,Q3*%
X140190000Y-63590000D02*
X140240000Y-63590000D01*
X140190000Y-65410000D02*
X140190000Y-63590000D01*
X141190000Y-65410000D02*
X140190000Y-65410000D01*
X141360000Y-63590000D02*
X142140000Y-63590000D01*
X143260000Y-63590000D02*
X143310000Y-63590000D01*
X143310000Y-63590000D02*
X143310000Y-65410000D01*
X143310000Y-65410000D02*
X142310000Y-65410000D01*
X142130000Y-63050000D02*
X141800000Y-63290000D01*
X141800000Y-62810000D01*
X142130000Y-63050000D01*
G36*
X142130000Y-63050000D02*
G01*
X141800000Y-63290000D01*
X141800000Y-62810000D01*
X142130000Y-63050000D01*
G37*
%TO.C,R16*%
X174727500Y-70004724D02*
X174727500Y-69495276D01*
X175772500Y-70004724D02*
X175772500Y-69495276D01*
%TO.C,R7*%
X166745276Y-91227500D02*
X167254724Y-91227500D01*
X166745276Y-92272500D02*
X167254724Y-92272500D01*
%TO.C,R5*%
X153745276Y-91227500D02*
X154254724Y-91227500D01*
X153745276Y-92272500D02*
X154254724Y-92272500D01*
%TO.C,U2*%
X131900000Y-75715000D02*
X131900000Y-80785000D01*
X131900000Y-80785000D02*
X137100000Y-80785000D01*
X137100000Y-75715000D02*
X131900000Y-75715000D01*
X137100000Y-77250000D02*
X137100000Y-75715000D01*
X137100000Y-80785000D02*
X137100000Y-79250000D01*
X137160000Y-72015000D02*
X131840000Y-72015000D01*
X131840000Y-84485000D01*
X137160000Y-84485000D01*
X137160000Y-72015000D01*
X137100000Y-79250000D02*
G75*
G02*
X137100000Y-77250000I0J1000000D01*
G01*
D13*
%TO.C,J3*%
X179000000Y-51125000D02*
X184000000Y-51125000D01*
X179000000Y-109795000D02*
X179000000Y-51125000D01*
D14*
X180230000Y-50520000D02*
X180230000Y-50520000D01*
X180230000Y-50620000D02*
X180230000Y-50620000D01*
D13*
X184000000Y-51125000D02*
X184000000Y-109795000D01*
X184000000Y-109795000D02*
X179000000Y-109795000D01*
D14*
X180230000Y-50520000D02*
G75*
G02*
X180230000Y-50620000I0J-50000D01*
G01*
X180230000Y-50620000D02*
G75*
G02*
X180230000Y-50520000I0J50000D01*
G01*
D12*
%TO.C,R24*%
X174495276Y-59977500D02*
X175004724Y-59977500D01*
X174495276Y-61022500D02*
X175004724Y-61022500D01*
%TO.C,D4*%
X145340000Y-94015000D02*
X145340000Y-95485000D01*
X145340000Y-95485000D02*
X147800000Y-95485000D01*
X147800000Y-94015000D02*
X145340000Y-94015000D01*
%TO.C,R20*%
X148745276Y-59977500D02*
X149254724Y-59977500D01*
X148745276Y-61022500D02*
X149254724Y-61022500D01*
%TO.C,D1*%
X125840000Y-94015000D02*
X125840000Y-95485000D01*
X125840000Y-95485000D02*
X128300000Y-95485000D01*
X128300000Y-94015000D02*
X125840000Y-94015000D01*
%TO.C,Q5*%
X153440000Y-63590000D02*
X153490000Y-63590000D01*
X153440000Y-65410000D02*
X153440000Y-63590000D01*
X154440000Y-65410000D02*
X153440000Y-65410000D01*
X154610000Y-63590000D02*
X155390000Y-63590000D01*
X156510000Y-63590000D02*
X156560000Y-63590000D01*
X156560000Y-63590000D02*
X156560000Y-65410000D01*
X156560000Y-65410000D02*
X155560000Y-65410000D01*
X155380000Y-63050000D02*
X155050000Y-63290000D01*
X155050000Y-62810000D01*
X155380000Y-63050000D01*
G36*
X155380000Y-63050000D02*
G01*
X155050000Y-63290000D01*
X155050000Y-62810000D01*
X155380000Y-63050000D01*
G37*
%TO.C,U6*%
X158400000Y-75715000D02*
X158400000Y-80785000D01*
X158400000Y-80785000D02*
X163600000Y-80785000D01*
X163600000Y-75715000D02*
X158400000Y-75715000D01*
X163600000Y-77250000D02*
X163600000Y-75715000D01*
X163600000Y-80785000D02*
X163600000Y-79250000D01*
X163660000Y-72015000D02*
X158340000Y-72015000D01*
X158340000Y-84485000D01*
X163660000Y-84485000D01*
X163660000Y-72015000D01*
X163600000Y-79250000D02*
G75*
G02*
X163600000Y-77250000I0J1000000D01*
G01*
%TO.C,U8*%
X171400000Y-75715000D02*
X171400000Y-80785000D01*
X171400000Y-80785000D02*
X176600000Y-80785000D01*
X176600000Y-75715000D02*
X171400000Y-75715000D01*
X176600000Y-77250000D02*
X176600000Y-75715000D01*
X176600000Y-80785000D02*
X176600000Y-79250000D01*
X176660000Y-72015000D02*
X171340000Y-72015000D01*
X171340000Y-84485000D01*
X176660000Y-84485000D01*
X176660000Y-72015000D01*
X176600000Y-79250000D02*
G75*
G02*
X176600000Y-77250000I0J1000000D01*
G01*
%TO.C,R10*%
X135227500Y-70004724D02*
X135227500Y-69495276D01*
X136272500Y-70004724D02*
X136272500Y-69495276D01*
%TO.C,R18*%
X136245276Y-59977500D02*
X136754724Y-59977500D01*
X136245276Y-61022500D02*
X136754724Y-61022500D01*
%TO.C,R17*%
X129995276Y-59977500D02*
X130504724Y-59977500D01*
X129995276Y-61022500D02*
X130504724Y-61022500D01*
%TO.C,D7*%
X165340000Y-94015000D02*
X165340000Y-95485000D01*
X165340000Y-95485000D02*
X167800000Y-95485000D01*
X167800000Y-94015000D02*
X165340000Y-94015000D01*
D13*
%TO.C,J1*%
X131400000Y-111000000D02*
X131400000Y-111000000D01*
X131400000Y-111000000D02*
X131500000Y-111000000D01*
X131500000Y-111000000D02*
X131500000Y-111000000D01*
X132000000Y-107900000D02*
X155320000Y-107900000D01*
X132000000Y-114100000D02*
X132000000Y-107900000D01*
X155320000Y-107900000D02*
X155320000Y-114100000D01*
X155320000Y-114100000D02*
X132000000Y-114100000D01*
X131400000Y-111000000D02*
G75*
G02*
X131500000Y-111000000I50000J0D01*
G01*
X131500000Y-111000000D02*
G75*
G02*
X131400000Y-111000000I-50000J0D01*
G01*
D12*
%TO.C,R3*%
X140245276Y-91227500D02*
X140754724Y-91227500D01*
X140245276Y-92272500D02*
X140754724Y-92272500D01*
%TO.C,R19*%
X142407776Y-59977500D02*
X142917224Y-59977500D01*
X142407776Y-61022500D02*
X142917224Y-61022500D01*
%TO.C,Q7*%
X165940000Y-63477500D02*
X165990000Y-63477500D01*
X165940000Y-65297500D02*
X165940000Y-63477500D01*
X166940000Y-65297500D02*
X165940000Y-65297500D01*
X167110000Y-63477500D02*
X167890000Y-63477500D01*
X169010000Y-63477500D02*
X169060000Y-63477500D01*
X169060000Y-63477500D02*
X169060000Y-65297500D01*
X169060000Y-65297500D02*
X168060000Y-65297500D01*
X167880000Y-62937500D02*
X167550000Y-63177500D01*
X167550000Y-62697500D01*
X167880000Y-62937500D01*
G36*
X167880000Y-62937500D02*
G01*
X167550000Y-63177500D01*
X167550000Y-62697500D01*
X167880000Y-62937500D01*
G37*
%TO.C,R1*%
X127245276Y-91227500D02*
X127754724Y-91227500D01*
X127245276Y-92272500D02*
X127754724Y-92272500D01*
%TO.C,R9*%
X128727500Y-70004724D02*
X128727500Y-69495276D01*
X129772500Y-70004724D02*
X129772500Y-69495276D01*
%TO.C,Q8*%
X172190000Y-63340000D02*
X172240000Y-63340000D01*
X172190000Y-65160000D02*
X172190000Y-63340000D01*
X173190000Y-65160000D02*
X172190000Y-65160000D01*
X173360000Y-63340000D02*
X174140000Y-63340000D01*
X175260000Y-63340000D02*
X175310000Y-63340000D01*
X175310000Y-63340000D02*
X175310000Y-65160000D01*
X175310000Y-65160000D02*
X174310000Y-65160000D01*
X174130000Y-62800000D02*
X173800000Y-63040000D01*
X173800000Y-62560000D01*
X174130000Y-62800000D01*
G36*
X174130000Y-62800000D02*
G01*
X173800000Y-63040000D01*
X173800000Y-62560000D01*
X174130000Y-62800000D01*
G37*
%TO.C,Q2*%
X133940000Y-63477500D02*
X133990000Y-63477500D01*
X133940000Y-65297500D02*
X133940000Y-63477500D01*
X134940000Y-65297500D02*
X133940000Y-65297500D01*
X135110000Y-63477500D02*
X135890000Y-63477500D01*
X137010000Y-63477500D02*
X137060000Y-63477500D01*
X137060000Y-63477500D02*
X137060000Y-65297500D01*
X137060000Y-65297500D02*
X136060000Y-65297500D01*
X135880000Y-62937500D02*
X135550000Y-63177500D01*
X135550000Y-62697500D01*
X135880000Y-62937500D01*
G36*
X135880000Y-62937500D02*
G01*
X135550000Y-63177500D01*
X135550000Y-62697500D01*
X135880000Y-62937500D01*
G37*
%TO.C,U1*%
X125400000Y-75715000D02*
X125400000Y-80785000D01*
X125400000Y-80785000D02*
X130600000Y-80785000D01*
X130600000Y-75715000D02*
X125400000Y-75715000D01*
X130600000Y-77250000D02*
X130600000Y-75715000D01*
X130600000Y-80785000D02*
X130600000Y-79250000D01*
X130660000Y-72015000D02*
X125340000Y-72015000D01*
X125340000Y-84485000D01*
X130660000Y-84485000D01*
X130660000Y-72015000D01*
X130600000Y-79250000D02*
G75*
G02*
X130600000Y-77250000I0J1000000D01*
G01*
%TO.C,R14*%
X161727500Y-70004724D02*
X161727500Y-69495276D01*
X162772500Y-70004724D02*
X162772500Y-69495276D01*
%TO.C,U5*%
X151900000Y-75715000D02*
X151900000Y-80785000D01*
X151900000Y-80785000D02*
X157100000Y-80785000D01*
X157100000Y-75715000D02*
X151900000Y-75715000D01*
X157100000Y-77250000D02*
X157100000Y-75715000D01*
X157100000Y-80785000D02*
X157100000Y-79250000D01*
X157160000Y-72015000D02*
X151840000Y-72015000D01*
X151840000Y-84485000D01*
X157160000Y-84485000D01*
X157160000Y-72015000D01*
X157100000Y-79250000D02*
G75*
G02*
X157100000Y-77250000I0J1000000D01*
G01*
%TO.C,R15*%
X168227500Y-70004724D02*
X168227500Y-69495276D01*
X169272500Y-70004724D02*
X169272500Y-69495276D01*
%TO.C,D2*%
X132590000Y-94015000D02*
X132590000Y-95485000D01*
X132590000Y-95485000D02*
X135050000Y-95485000D01*
X135050000Y-94015000D02*
X132590000Y-94015000D01*
%TO.C,Q4*%
X146440000Y-63590000D02*
X146490000Y-63590000D01*
X146440000Y-65410000D02*
X146440000Y-63590000D01*
X147440000Y-65410000D02*
X146440000Y-65410000D01*
X147610000Y-63590000D02*
X148390000Y-63590000D01*
X149510000Y-63590000D02*
X149560000Y-63590000D01*
X149560000Y-63590000D02*
X149560000Y-65410000D01*
X149560000Y-65410000D02*
X148560000Y-65410000D01*
X148380000Y-63050000D02*
X148050000Y-63290000D01*
X148050000Y-62810000D01*
X148380000Y-63050000D01*
G36*
X148380000Y-63050000D02*
G01*
X148050000Y-63290000D01*
X148050000Y-62810000D01*
X148380000Y-63050000D01*
G37*
%TO.C,D5*%
X152340000Y-94015000D02*
X152340000Y-95485000D01*
X152340000Y-95485000D02*
X154800000Y-95485000D01*
X154800000Y-94015000D02*
X152340000Y-94015000D01*
%TO.C,R2*%
X133907776Y-91227500D02*
X134417224Y-91227500D01*
X133907776Y-92272500D02*
X134417224Y-92272500D01*
%TO.C,Q6*%
X159690000Y-63340000D02*
X159740000Y-63340000D01*
X159690000Y-65160000D02*
X159690000Y-63340000D01*
X160690000Y-65160000D02*
X159690000Y-65160000D01*
X160860000Y-63340000D02*
X161640000Y-63340000D01*
X162760000Y-63340000D02*
X162810000Y-63340000D01*
X162810000Y-63340000D02*
X162810000Y-65160000D01*
X162810000Y-65160000D02*
X161810000Y-65160000D01*
X161630000Y-62800000D02*
X161300000Y-63040000D01*
X161300000Y-62560000D01*
X161630000Y-62800000D01*
G36*
X161630000Y-62800000D02*
G01*
X161300000Y-63040000D01*
X161300000Y-62560000D01*
X161630000Y-62800000D01*
G37*
%TO.C,D3*%
X138840000Y-94015000D02*
X138840000Y-95485000D01*
X138840000Y-95485000D02*
X141300000Y-95485000D01*
X141300000Y-94015000D02*
X138840000Y-94015000D01*
%TO.C,R12*%
X148315000Y-70004724D02*
X148315000Y-69495276D01*
X149360000Y-70004724D02*
X149360000Y-69495276D01*
%TO.C,R4*%
X146745276Y-91227500D02*
X147254724Y-91227500D01*
X146745276Y-92272500D02*
X147254724Y-92272500D01*
%TO.C,D6*%
X158840000Y-94015000D02*
X158840000Y-95485000D01*
X158840000Y-95485000D02*
X161300000Y-95485000D01*
X161300000Y-94015000D02*
X158840000Y-94015000D01*
%TO.C,D8*%
X171840000Y-94015000D02*
X171840000Y-95485000D01*
X171840000Y-95485000D02*
X174300000Y-95485000D01*
X174300000Y-94015000D02*
X171840000Y-94015000D01*
%TO.C,R23*%
X168245276Y-59977500D02*
X168754724Y-59977500D01*
X168245276Y-61022500D02*
X168754724Y-61022500D01*
%TO.C,R21*%
X155745276Y-59977500D02*
X156254724Y-59977500D01*
X155745276Y-61022500D02*
X156254724Y-61022500D01*
%TO.C,Q1*%
X127690000Y-63590000D02*
X127740000Y-63590000D01*
X127690000Y-65410000D02*
X127690000Y-63590000D01*
X128690000Y-65410000D02*
X127690000Y-65410000D01*
X128860000Y-63590000D02*
X129640000Y-63590000D01*
X130760000Y-63590000D02*
X130810000Y-63590000D01*
X130810000Y-63590000D02*
X130810000Y-65410000D01*
X130810000Y-65410000D02*
X129810000Y-65410000D01*
X129630000Y-63050000D02*
X129300000Y-63290000D01*
X129300000Y-62810000D01*
X129630000Y-63050000D01*
G36*
X129630000Y-63050000D02*
G01*
X129300000Y-63290000D01*
X129300000Y-62810000D01*
X129630000Y-63050000D01*
G37*
%TO.C,R13*%
X155227500Y-70004724D02*
X155227500Y-69495276D01*
X156272500Y-70004724D02*
X156272500Y-69495276D01*
%TO.C,R11*%
X141727500Y-70004724D02*
X141727500Y-69495276D01*
X142772500Y-70004724D02*
X142772500Y-69495276D01*
%TO.C,R6*%
X160245276Y-91227500D02*
X160754724Y-91227500D01*
X160245276Y-92272500D02*
X160754724Y-92272500D01*
%TO.C,U3*%
X138400000Y-75715000D02*
X138400000Y-80785000D01*
X138400000Y-80785000D02*
X143600000Y-80785000D01*
X143600000Y-75715000D02*
X138400000Y-75715000D01*
X143600000Y-77250000D02*
X143600000Y-75715000D01*
X143600000Y-80785000D02*
X143600000Y-79250000D01*
X143660000Y-72015000D02*
X138340000Y-72015000D01*
X138340000Y-84485000D01*
X143660000Y-84485000D01*
X143660000Y-72015000D01*
X143600000Y-79250000D02*
G75*
G02*
X143600000Y-77250000I0J1000000D01*
G01*
%TO.C,U4*%
X144900000Y-75715000D02*
X144900000Y-80785000D01*
X144900000Y-80785000D02*
X150100000Y-80785000D01*
X150100000Y-75715000D02*
X144900000Y-75715000D01*
X150100000Y-77250000D02*
X150100000Y-75715000D01*
X150100000Y-80785000D02*
X150100000Y-79250000D01*
X150160000Y-72015000D02*
X144840000Y-72015000D01*
X144840000Y-84485000D01*
X150160000Y-84485000D01*
X150160000Y-72015000D01*
X150100000Y-79250000D02*
G75*
G02*
X150100000Y-77250000I0J1000000D01*
G01*
D13*
%TO.C,J2*%
X118000000Y-51115000D02*
X123000000Y-51115000D01*
X118000000Y-109785000D02*
X118000000Y-51115000D01*
D14*
X119230000Y-50510000D02*
X119230000Y-50510000D01*
X119230000Y-50610000D02*
X119230000Y-50610000D01*
D13*
X123000000Y-51115000D02*
X123000000Y-109785000D01*
X123000000Y-109785000D02*
X118000000Y-109785000D01*
D14*
X119230000Y-50510000D02*
G75*
G02*
X119230000Y-50610000I0J-50000D01*
G01*
X119230000Y-50610000D02*
G75*
G02*
X119230000Y-50510000I0J50000D01*
G01*
%TD*%
M02*
