M48
; DRILL file {KiCad 9.0.7-9.0.7~ubuntu24.04.1} date 2026-01-13T16:34:42+0100
; FORMAT={-:-/ absolute / metric / decimal}
; #@! TF.CreationDate,2026-01-13T16:34:42+01:00
; #@! TF.GenerationSoftware,Kicad,Pcbnew,9.0.7-9.0.7~ubuntu24.04.1
; #@! TF.FileFunction,Plated,1,4,PTH
FMAT,2
METRIC
; #@! TA.AperFunction,Plated,PTH,ViaDrill
T1C0.300
; #@! TA.AperFunction,Plated,PTH,ComponentDrill
T2C1.020
; #@! TA.AperFunction,Plated,PTH,ComponentDrill
T3C1.100
%
G90
G05
T1
X125.7Y-94.75
X129.2Y-85.4
X129.25Y-64.6
X131.75Y-68.0
X132.4Y-94.75
X135.5Y-64.5
X135.8Y-85.4
X138.0Y-67.75
X138.6Y-94.75
X141.75Y-64.6
X142.2Y-85.4
X144.5Y-67.75
X145.2Y-94.75
X148.0Y-64.6
X148.8Y-85.4
X150.75Y-67.75
X152.2Y-94.75
X155.0Y-64.6
X155.8Y-85.4
X158.0Y-67.75
X158.7Y-94.75
X161.25Y-64.3
X162.2Y-85.4
X164.0Y-67.75
X165.15Y-94.75
X167.5Y-64.4
X168.8Y-85.6
X171.0Y-67.75
X171.7Y-94.75
X173.75Y-64.3
X175.4Y-85.8
X176.75Y-67.75
T2
X119.23Y-52.51
X119.23Y-55.05
X119.23Y-57.59
X119.23Y-60.13
X119.23Y-62.67
X119.23Y-65.21
X119.23Y-67.75
X119.23Y-70.29
X119.23Y-72.83
X119.23Y-75.37
X119.23Y-77.91
X119.23Y-80.45
X119.23Y-82.99
X119.23Y-85.53
X119.23Y-88.07
X119.23Y-90.61
X119.23Y-93.15
X119.23Y-95.69
X119.23Y-98.23
X119.23Y-100.77
X119.23Y-103.31
X119.23Y-105.85
X119.23Y-108.39
X121.77Y-52.51
X121.77Y-55.05
X121.77Y-57.59
X121.77Y-60.13
X121.77Y-62.67
X121.77Y-65.21
X121.77Y-67.75
X121.77Y-70.29
X121.77Y-72.83
X121.77Y-75.37
X121.77Y-77.91
X121.77Y-80.45
X121.77Y-82.99
X121.77Y-85.53
X121.77Y-88.07
X121.77Y-90.61
X121.77Y-93.15
X121.77Y-95.69
X121.77Y-98.23
X121.77Y-100.77
X121.77Y-103.31
X121.77Y-105.85
X121.77Y-108.39
X180.23Y-52.52
X180.23Y-55.06
X180.23Y-57.6
X180.23Y-60.14
X180.23Y-62.68
X180.23Y-65.22
X180.23Y-67.76
X180.23Y-70.3
X180.23Y-72.84
X180.23Y-75.38
X180.23Y-77.92
X180.23Y-80.46
X180.23Y-83.0
X180.23Y-85.54
X180.23Y-88.08
X180.23Y-90.62
X180.23Y-93.16
X180.23Y-95.7
X180.23Y-98.24
X180.23Y-100.78
X180.23Y-103.32
X180.23Y-105.86
X180.23Y-108.4
X182.77Y-52.52
X182.77Y-55.06
X182.77Y-57.6
X182.77Y-60.14
X182.77Y-62.68
X182.77Y-65.22
X182.77Y-67.76
X182.77Y-70.3
X182.77Y-72.84
X182.77Y-75.38
X182.77Y-77.92
X182.77Y-80.46
X182.77Y-83.0
X182.77Y-85.54
X182.77Y-88.08
X182.77Y-90.62
X182.77Y-93.16
X182.77Y-95.7
X182.77Y-98.24
X182.77Y-100.78
X182.77Y-103.32
X182.77Y-105.86
X182.77Y-108.4
T3
X133.5Y-111.0
X136.04Y-111.0
X138.58Y-111.0
X141.12Y-111.0
X143.66Y-111.0
X146.2Y-111.0
X148.74Y-111.0
X151.28Y-111.0
X153.82Y-111.0
M30
