%TF.GenerationSoftware,KiCad,Pcbnew,9.0.7-9.0.7~ubuntu24.04.1*%
%TF.CreationDate,2026-01-13T16:34:36+01:00*%
%TF.ProjectId,digital_output,64696769-7461-46c5-9f6f-75747075742e,1.0*%
%TF.SameCoordinates,Original*%
%TF.FileFunction,Paste,Top*%
%TF.FilePolarity,Positive*%
%FSLAX46Y46*%
G04 Gerber Fmt 4.6, Leading zero omitted, Abs format (unit mm)*
G04 Created by KiCad (PCBNEW 9.0.7-9.0.7~ubuntu24.04.1) date 2026-01-13 16:34:36*
%MOMM*%
%LPD*%
G01*
G04 APERTURE LIST*
G04 Aperture macros list*
%AMRoundRect*
0 Rectangle with rounded corners*
0 $1 Rounding radius*
0 $2 $3 $4 $5 $6 $7 $8 $9 X,Y pos of 4 corners*
0 Add a 4 corners polygon primitive as box body*
4,1,4,$2,$3,$4,$5,$6,$7,$8,$9,$2,$3,0*
0 Add four circle primitives for the rounded corners*
1,1,$1+$1,$2,$3*
1,1,$1+$1,$4,$5*
1,1,$1+$1,$6,$7*
1,1,$1+$1,$8,$9*
0 Add four rect primitives between the rounded corners*
20,1,$1+$1,$2,$3,$4,$5,0*
20,1,$1+$1,$4,$5,$6,$7,0*
20,1,$1+$1,$6,$7,$8,$9,0*
20,1,$1+$1,$8,$9,$2,$3,0*%
G04 Aperture macros list end*
%ADD10RoundRect,0.237500X-0.250000X-0.237500X0.250000X-0.237500X0.250000X0.237500X-0.250000X0.237500X0*%
%ADD11RoundRect,0.250000X-0.550000X1.300000X-0.550000X-1.300000X0.550000X-1.300000X0.550000X1.300000X0*%
%ADD12RoundRect,0.150000X-0.150000X0.512500X-0.150000X-0.512500X0.150000X-0.512500X0.150000X0.512500X0*%
%ADD13RoundRect,0.237500X0.237500X-0.250000X0.237500X0.250000X-0.237500X0.250000X-0.237500X-0.250000X0*%
%ADD14RoundRect,0.237500X-0.287500X-0.237500X0.287500X-0.237500X0.287500X0.237500X-0.287500X0.237500X0*%
G04 APERTURE END LIST*
D10*
%TO.C,R8*%
X172587500Y-91750000D03*
X174412500Y-91750000D03*
%TD*%
%TO.C,R22*%
X161337500Y-60500000D03*
X163162500Y-60500000D03*
%TD*%
D11*
%TO.C,U7*%
X168770000Y-73805000D03*
X166230000Y-73805000D03*
X166230000Y-82695000D03*
X168770000Y-82695000D03*
%TD*%
D12*
%TO.C,Q3*%
X142700000Y-63362500D03*
X140800000Y-63362500D03*
X141750000Y-65637500D03*
%TD*%
D13*
%TO.C,R16*%
X175250000Y-70662500D03*
X175250000Y-68837500D03*
%TD*%
D10*
%TO.C,R7*%
X166087500Y-91750000D03*
X167912500Y-91750000D03*
%TD*%
%TO.C,R5*%
X153087500Y-91750000D03*
X154912500Y-91750000D03*
%TD*%
D11*
%TO.C,U2*%
X135770000Y-73805000D03*
X133230000Y-73805000D03*
X133230000Y-82695000D03*
X135770000Y-82695000D03*
%TD*%
D10*
%TO.C,R24*%
X173837500Y-60500000D03*
X175662500Y-60500000D03*
%TD*%
D14*
%TO.C,D4*%
X146125000Y-94750000D03*
X147875000Y-94750000D03*
%TD*%
D10*
%TO.C,R20*%
X148087500Y-60500000D03*
X149912500Y-60500000D03*
%TD*%
D14*
%TO.C,D1*%
X126625000Y-94750000D03*
X128375000Y-94750000D03*
%TD*%
D12*
%TO.C,Q5*%
X155950000Y-63362500D03*
X154050000Y-63362500D03*
X155000000Y-65637500D03*
%TD*%
D11*
%TO.C,U6*%
X162270000Y-73805000D03*
X159730000Y-73805000D03*
X159730000Y-82695000D03*
X162270000Y-82695000D03*
%TD*%
%TO.C,U8*%
X175270000Y-73805000D03*
X172730000Y-73805000D03*
X172730000Y-82695000D03*
X175270000Y-82695000D03*
%TD*%
D13*
%TO.C,R10*%
X135750000Y-70662500D03*
X135750000Y-68837500D03*
%TD*%
D10*
%TO.C,R18*%
X135587500Y-60500000D03*
X137412500Y-60500000D03*
%TD*%
%TO.C,R17*%
X129337500Y-60500000D03*
X131162500Y-60500000D03*
%TD*%
D14*
%TO.C,D7*%
X166125000Y-94750000D03*
X167875000Y-94750000D03*
%TD*%
D10*
%TO.C,R3*%
X139587500Y-91750000D03*
X141412500Y-91750000D03*
%TD*%
%TO.C,R19*%
X141750000Y-60500000D03*
X143575000Y-60500000D03*
%TD*%
D12*
%TO.C,Q7*%
X168450000Y-63250000D03*
X166550000Y-63250000D03*
X167500000Y-65525000D03*
%TD*%
D10*
%TO.C,R1*%
X126587500Y-91750000D03*
X128412500Y-91750000D03*
%TD*%
D13*
%TO.C,R9*%
X129250000Y-70662500D03*
X129250000Y-68837500D03*
%TD*%
D12*
%TO.C,Q8*%
X174700000Y-63112500D03*
X172800000Y-63112500D03*
X173750000Y-65387500D03*
%TD*%
%TO.C,Q2*%
X136450000Y-63250000D03*
X134550000Y-63250000D03*
X135500000Y-65525000D03*
%TD*%
D11*
%TO.C,U1*%
X129270000Y-73805000D03*
X126730000Y-73805000D03*
X126730000Y-82695000D03*
X129270000Y-82695000D03*
%TD*%
D13*
%TO.C,R14*%
X162250000Y-70662500D03*
X162250000Y-68837500D03*
%TD*%
D11*
%TO.C,U5*%
X155770000Y-73805000D03*
X153230000Y-73805000D03*
X153230000Y-82695000D03*
X155770000Y-82695000D03*
%TD*%
D13*
%TO.C,R15*%
X168750000Y-70662500D03*
X168750000Y-68837500D03*
%TD*%
D14*
%TO.C,D2*%
X133375000Y-94750000D03*
X135125000Y-94750000D03*
%TD*%
D12*
%TO.C,Q4*%
X148950000Y-63362500D03*
X147050000Y-63362500D03*
X148000000Y-65637500D03*
%TD*%
D14*
%TO.C,D5*%
X153125000Y-94750000D03*
X154875000Y-94750000D03*
%TD*%
D10*
%TO.C,R2*%
X133250000Y-91750000D03*
X135075000Y-91750000D03*
%TD*%
D12*
%TO.C,Q6*%
X162200000Y-63112500D03*
X160300000Y-63112500D03*
X161250000Y-65387500D03*
%TD*%
D14*
%TO.C,D3*%
X139625000Y-94750000D03*
X141375000Y-94750000D03*
%TD*%
D13*
%TO.C,R12*%
X148837500Y-70662500D03*
X148837500Y-68837500D03*
%TD*%
D10*
%TO.C,R4*%
X146087500Y-91750000D03*
X147912500Y-91750000D03*
%TD*%
D14*
%TO.C,D6*%
X159625000Y-94750000D03*
X161375000Y-94750000D03*
%TD*%
%TO.C,D8*%
X172625000Y-94750000D03*
X174375000Y-94750000D03*
%TD*%
D10*
%TO.C,R23*%
X167587500Y-60500000D03*
X169412500Y-60500000D03*
%TD*%
%TO.C,R21*%
X155087500Y-60500000D03*
X156912500Y-60500000D03*
%TD*%
D12*
%TO.C,Q1*%
X130200000Y-63362500D03*
X128300000Y-63362500D03*
X129250000Y-65637500D03*
%TD*%
D13*
%TO.C,R13*%
X155750000Y-70662500D03*
X155750000Y-68837500D03*
%TD*%
%TO.C,R11*%
X142250000Y-70662500D03*
X142250000Y-68837500D03*
%TD*%
D10*
%TO.C,R6*%
X159587500Y-91750000D03*
X161412500Y-91750000D03*
%TD*%
D11*
%TO.C,U3*%
X142270000Y-73805000D03*
X139730000Y-73805000D03*
X139730000Y-82695000D03*
X142270000Y-82695000D03*
%TD*%
%TO.C,U4*%
X148770000Y-73805000D03*
X146230000Y-73805000D03*
X146230000Y-82695000D03*
X148770000Y-82695000D03*
%TD*%
M02*
