%TF.GenerationSoftware,KiCad,Pcbnew,9.0.7-9.0.7~ubuntu24.04.1*%
%TF.CreationDate,2026-01-13T16:34:36+01:00*%
%TF.ProjectId,digital_output,64696769-7461-46c5-9f6f-75747075742e,1.0*%
%TF.SameCoordinates,Original*%
%TF.FileFunction,Copper,L3,Inr*%
%TF.FilePolarity,Positive*%
%FSLAX46Y46*%
G04 Gerber Fmt 4.6, Leading zero omitted, Abs format (unit mm)*
G04 Created by KiCad (PCBNEW 9.0.7-9.0.7~ubuntu24.04.1) date 2026-01-13 16:34:36*
%MOMM*%
%LPD*%
G01*
G04 APERTURE LIST*
%TA.AperFunction,ComponentPad*%
%ADD10R,1.530000X1.530000*%
%TD*%
%TA.AperFunction,ComponentPad*%
%ADD11C,1.530000*%
%TD*%
%TA.AperFunction,ComponentPad*%
%ADD12R,1.650000X1.650000*%
%TD*%
%TA.AperFunction,ComponentPad*%
%ADD13C,1.650000*%
%TD*%
%TA.AperFunction,ViaPad*%
%ADD14C,0.500000*%
%TD*%
G04 APERTURE END LIST*
D10*
%TO.N,unconnected-(J3-Pin_1-Pad1)*%
%TO.C,J3*%
X180230000Y-52520000D03*
D11*
%TO.N,unconnected-(J3-Pin_2-Pad2)*%
X182770000Y-52520000D03*
%TO.N,unconnected-(J3-Pin_3-Pad3)*%
X180230000Y-55060000D03*
%TO.N,unconnected-(J3-Pin_4-Pad4)*%
X182770000Y-55060000D03*
%TO.N,unconnected-(J3-Pin_5-Pad5)*%
X180230000Y-57600000D03*
%TO.N,unconnected-(J3-Pin_6-Pad6)*%
X182770000Y-57600000D03*
%TO.N,unconnected-(J3-Pin_7-Pad7)*%
X180230000Y-60140000D03*
%TO.N,unconnected-(J3-Pin_8-Pad8)*%
X182770000Y-60140000D03*
%TO.N,GND*%
X180230000Y-62680000D03*
%TO.N,unconnected-(J3-Pin_10-Pad10)*%
X182770000Y-62680000D03*
%TO.N,unconnected-(J3-Pin_11-Pad11)*%
X180230000Y-65220000D03*
%TO.N,unconnected-(J3-Pin_12-Pad12)*%
X182770000Y-65220000D03*
%TO.N,unconnected-(J3-Pin_13-Pad13)*%
X180230000Y-67760000D03*
%TO.N,unconnected-(J3-Pin_14-Pad14)*%
X182770000Y-67760000D03*
%TO.N,unconnected-(J3-Pin_15-Pad15)*%
X180230000Y-70300000D03*
%TO.N,unconnected-(J3-Pin_16-Pad16)*%
X182770000Y-70300000D03*
%TO.N,unconnected-(J3-Pin_17-Pad17)*%
X180230000Y-72840000D03*
%TO.N,unconnected-(J3-Pin_18-Pad18)*%
X182770000Y-72840000D03*
%TO.N,unconnected-(J3-Pin_19-Pad19)*%
X180230000Y-75380000D03*
%TO.N,GND*%
X182770000Y-75380000D03*
%TO.N,unconnected-(J3-Pin_21-Pad21)*%
X180230000Y-77920000D03*
%TO.N,unconnected-(J3-Pin_22-Pad22)*%
X182770000Y-77920000D03*
%TO.N,unconnected-(J3-Pin_23-Pad23)*%
X180230000Y-80460000D03*
%TO.N,unconnected-(J3-Pin_24-Pad24)*%
X182770000Y-80460000D03*
%TO.N,unconnected-(J3-Pin_25-Pad25)*%
X180230000Y-83000000D03*
%TO.N,unconnected-(J3-Pin_26-Pad26)*%
X182770000Y-83000000D03*
%TO.N,unconnected-(J3-Pin_27-Pad27)*%
X180230000Y-85540000D03*
%TO.N,unconnected-(J3-Pin_28-Pad28)*%
X182770000Y-85540000D03*
%TO.N,unconnected-(J3-Pin_29-Pad29)*%
X180230000Y-88080000D03*
%TO.N,unconnected-(J3-Pin_30-Pad30)*%
X182770000Y-88080000D03*
%TO.N,unconnected-(J3-Pin_31-Pad31)*%
X180230000Y-90620000D03*
%TO.N,unconnected-(J3-Pin_32-Pad32)*%
X182770000Y-90620000D03*
%TO.N,unconnected-(J3-Pin_33-Pad33)*%
X180230000Y-93160000D03*
%TO.N,DO_5*%
X182770000Y-93160000D03*
%TO.N,unconnected-(J3-Pin_35-Pad35)*%
X180230000Y-95700000D03*
%TO.N,DO_4*%
X182770000Y-95700000D03*
%TO.N,unconnected-(J3-Pin_37-Pad37)*%
X180230000Y-98240000D03*
%TO.N,DO_6*%
X182770000Y-98240000D03*
%TO.N,unconnected-(J3-Pin_39-Pad39)*%
X180230000Y-100780000D03*
%TO.N,DO_7*%
X182770000Y-100780000D03*
%TO.N,unconnected-(J3-Pin_41-Pad41)*%
X180230000Y-103320000D03*
%TO.N,unconnected-(J3-Pin_42-Pad42)*%
X182770000Y-103320000D03*
%TO.N,unconnected-(J3-Pin_43-Pad43)*%
X180230000Y-105860000D03*
%TO.N,unconnected-(J3-Pin_44-Pad44)*%
X182770000Y-105860000D03*
%TO.N,unconnected-(J3-Pin_45-Pad45)*%
X180230000Y-108400000D03*
%TO.N,unconnected-(J3-Pin_46-Pad46)*%
X182770000Y-108400000D03*
%TD*%
D12*
%TO.N,DI_OUT0*%
%TO.C,J1*%
X133500000Y-111000000D03*
D13*
%TO.N,DI_OUT1*%
X136040000Y-111000000D03*
%TO.N,DI_OUT2*%
X138580000Y-111000000D03*
%TO.N,DI_OUT3*%
X141120000Y-111000000D03*
%TO.N,DI_OUT4*%
X143660000Y-111000000D03*
%TO.N,DI_OUT5*%
X146200000Y-111000000D03*
%TO.N,DI_OUT6*%
X148740000Y-111000000D03*
%TO.N,DI_OUT7*%
X151280000Y-111000000D03*
%TO.N,GNDREF*%
X153820000Y-111000000D03*
%TD*%
D10*
%TO.N,unconnected-(J2-Pin_1-Pad1)*%
%TO.C,J2*%
X119230000Y-52510000D03*
D11*
%TO.N,unconnected-(J2-Pin_2-Pad2)*%
X121770000Y-52510000D03*
%TO.N,unconnected-(J2-Pin_3-Pad3)*%
X119230000Y-55050000D03*
%TO.N,unconnected-(J2-Pin_4-Pad4)*%
X121770000Y-55050000D03*
%TO.N,unconnected-(J2-Pin_5-Pad5)*%
X119230000Y-57590000D03*
%TO.N,unconnected-(J2-Pin_6-Pad6)*%
X121770000Y-57590000D03*
%TO.N,unconnected-(J2-Pin_7-Pad7)*%
X119230000Y-60130000D03*
%TO.N,GND*%
X121770000Y-60130000D03*
%TO.N,unconnected-(J2-Pin_9-Pad9)*%
X119230000Y-62670000D03*
%TO.N,unconnected-(J2-Pin_10-Pad10)*%
X121770000Y-62670000D03*
%TO.N,unconnected-(J2-Pin_11-Pad11)*%
X119230000Y-65210000D03*
%TO.N,unconnected-(J2-Pin_12-Pad12)*%
X121770000Y-65210000D03*
%TO.N,unconnected-(J2-Pin_13-Pad13)*%
X119230000Y-67750000D03*
%TO.N,unconnected-(J2-Pin_14-Pad14)*%
X121770000Y-67750000D03*
%TO.N,unconnected-(J2-Pin_15-Pad15)*%
X119230000Y-70290000D03*
%TO.N,unconnected-(J2-Pin_16-Pad16)*%
X121770000Y-70290000D03*
%TO.N,unconnected-(J2-Pin_17-Pad17)*%
X119230000Y-72830000D03*
%TO.N,unconnected-(J2-Pin_18-Pad18)*%
X121770000Y-72830000D03*
%TO.N,GND*%
X119230000Y-75370000D03*
X121770000Y-75370000D03*
%TO.N,unconnected-(J2-Pin_21-Pad21)*%
X119230000Y-77910000D03*
%TO.N,GND*%
X121770000Y-77910000D03*
%TO.N,unconnected-(J2-Pin_23-Pad23)*%
X119230000Y-80450000D03*
%TO.N,unconnected-(J2-Pin_24-Pad24)*%
X121770000Y-80450000D03*
%TO.N,unconnected-(J2-Pin_25-Pad25)*%
X119230000Y-82990000D03*
%TO.N,unconnected-(J2-Pin_26-Pad26)*%
X121770000Y-82990000D03*
%TO.N,+5V*%
X119230000Y-85530000D03*
%TO.N,unconnected-(J2-Pin_28-Pad28)*%
X121770000Y-85530000D03*
%TO.N,+24V*%
X119230000Y-88070000D03*
%TO.N,unconnected-(J2-Pin_30-Pad30)*%
X121770000Y-88070000D03*
%TO.N,unconnected-(J2-Pin_31-Pad31)*%
X119230000Y-90610000D03*
%TO.N,unconnected-(J2-Pin_32-Pad32)*%
X121770000Y-90610000D03*
%TO.N,unconnected-(J2-Pin_33-Pad33)*%
X119230000Y-93150000D03*
%TO.N,unconnected-(J2-Pin_34-Pad34)*%
X121770000Y-93150000D03*
%TO.N,unconnected-(J2-Pin_35-Pad35)*%
X119230000Y-95690000D03*
%TO.N,unconnected-(J2-Pin_36-Pad36)*%
X121770000Y-95690000D03*
%TO.N,unconnected-(J2-Pin_37-Pad37)*%
X119230000Y-98230000D03*
%TO.N,unconnected-(J2-Pin_38-Pad38)*%
X121770000Y-98230000D03*
%TO.N,unconnected-(J2-Pin_39-Pad39)*%
X119230000Y-100770000D03*
%TO.N,DO_0*%
X121770000Y-100770000D03*
%TO.N,unconnected-(J2-Pin_41-Pad41)*%
X119230000Y-103310000D03*
%TO.N,DO_1*%
X121770000Y-103310000D03*
%TO.N,unconnected-(J2-Pin_43-Pad43)*%
X119230000Y-105850000D03*
%TO.N,DO_2*%
X121770000Y-105850000D03*
%TO.N,unconnected-(J2-Pin_45-Pad45)*%
X119230000Y-108390000D03*
%TO.N,DO_3*%
X121770000Y-108390000D03*
%TD*%
D14*
%TO.N,GND*%
X167500000Y-64400000D03*
X148000000Y-64600000D03*
X129250000Y-64600000D03*
X141750000Y-64600000D03*
X155000000Y-64600000D03*
X173750000Y-64300000D03*
X161250000Y-64300000D03*
X135500000Y-64500000D03*
%TO.N,GNDREF*%
X165150000Y-94750000D03*
X125700000Y-94750000D03*
X145200000Y-94750000D03*
X158700000Y-94750000D03*
X138600000Y-94750000D03*
X152200000Y-94750000D03*
X171700000Y-94750000D03*
X132400000Y-94750000D03*
%TO.N,+24V*%
X135800000Y-85400000D03*
X168800000Y-85600000D03*
X129200000Y-85400000D03*
X162200000Y-85400000D03*
X148800000Y-85400000D03*
X142200000Y-85400000D03*
X155800000Y-85400000D03*
X175400000Y-85800000D03*
%TO.N,+5V*%
X150750000Y-67750000D03*
X138000000Y-67750000D03*
X158000000Y-67750000D03*
X131750000Y-68000000D03*
X171000000Y-67750000D03*
X164000000Y-67750000D03*
X176750000Y-67750000D03*
X144500000Y-67750000D03*
%TD*%
%TA.AperFunction,Conductor*%
%TO.N,GND*%
G36*
X182294755Y-75576853D02*
G01*
X182361898Y-75693147D01*
X182456853Y-75788102D01*
X182573147Y-75855245D01*
X182632425Y-75871128D01*
X182069134Y-76434417D01*
X182106994Y-76461924D01*
X182258722Y-76539234D01*
X182309518Y-76587209D01*
X182326313Y-76655030D01*
X182303776Y-76721165D01*
X182258723Y-76760203D01*
X182106735Y-76837645D01*
X181993997Y-76919555D01*
X181945582Y-76954731D01*
X181945580Y-76954733D01*
X181945579Y-76954733D01*
X181804733Y-77095579D01*
X181804733Y-77095580D01*
X181804731Y-77095582D01*
X181754447Y-77164790D01*
X181687647Y-77256733D01*
X181610485Y-77408172D01*
X181562510Y-77458968D01*
X181494689Y-77475763D01*
X181428554Y-77453225D01*
X181389515Y-77408172D01*
X181312352Y-77256733D01*
X181305276Y-77246994D01*
X181195269Y-77095582D01*
X181054418Y-76954731D01*
X180893266Y-76837647D01*
X180741827Y-76760485D01*
X180691031Y-76712510D01*
X180674236Y-76644689D01*
X180696773Y-76578554D01*
X180741827Y-76539515D01*
X180762004Y-76529234D01*
X180893266Y-76462353D01*
X181054418Y-76345269D01*
X181195269Y-76204418D01*
X181312353Y-76043266D01*
X181389795Y-75891276D01*
X181437769Y-75840481D01*
X181505590Y-75823686D01*
X181571725Y-75846223D01*
X181610765Y-75891277D01*
X181688077Y-76043008D01*
X181715580Y-76080863D01*
X181715581Y-76080864D01*
X182278871Y-75517574D01*
X182294755Y-75576853D01*
G37*
%TD.AperFunction*%
%TA.AperFunction,Conductor*%
G36*
X181571446Y-73306773D02*
G01*
X181610485Y-73351827D01*
X181687647Y-73503266D01*
X181804731Y-73664418D01*
X181945582Y-73805269D01*
X182106734Y-73922353D01*
X182196909Y-73968299D01*
X182258722Y-73999795D01*
X182309518Y-74047770D01*
X182326313Y-74115591D01*
X182303776Y-74181726D01*
X182258723Y-74220764D01*
X182106993Y-74298075D01*
X182069135Y-74325580D01*
X182069135Y-74325581D01*
X182632425Y-74888871D01*
X182573147Y-74904755D01*
X182456853Y-74971898D01*
X182361898Y-75066853D01*
X182294755Y-75183147D01*
X182278871Y-75242425D01*
X181715581Y-74679135D01*
X181715580Y-74679135D01*
X181688075Y-74716993D01*
X181610764Y-74868723D01*
X181562790Y-74919518D01*
X181494969Y-74936313D01*
X181428834Y-74913775D01*
X181389795Y-74868722D01*
X181312485Y-74716994D01*
X181312353Y-74716734D01*
X181195269Y-74555582D01*
X181054418Y-74414731D01*
X180893266Y-74297647D01*
X180874480Y-74288075D01*
X180741827Y-74220485D01*
X180691031Y-74172510D01*
X180674236Y-74104689D01*
X180696773Y-74038554D01*
X180741827Y-73999515D01*
X180760903Y-73989795D01*
X180893266Y-73922353D01*
X181054418Y-73805269D01*
X181195269Y-73664418D01*
X181312353Y-73503266D01*
X181389515Y-73351827D01*
X181437490Y-73301031D01*
X181505311Y-73284236D01*
X181571446Y-73306773D01*
G37*
%TD.AperFunction*%
%TA.AperFunction,Conductor*%
G36*
X181284417Y-63380863D02*
G01*
X181284418Y-63380863D01*
X181311924Y-63343005D01*
X181389234Y-63191277D01*
X181437208Y-63140481D01*
X181505029Y-63123686D01*
X181571164Y-63146223D01*
X181610204Y-63191277D01*
X181682552Y-63333266D01*
X181687647Y-63343266D01*
X181804731Y-63504418D01*
X181945582Y-63645269D01*
X182106734Y-63762353D01*
X182176453Y-63797877D01*
X182258172Y-63839515D01*
X182308968Y-63887490D01*
X182325763Y-63955311D01*
X182303225Y-64021446D01*
X182258172Y-64060485D01*
X182106733Y-64137647D01*
X182014790Y-64204447D01*
X181945582Y-64254731D01*
X181945580Y-64254733D01*
X181945579Y-64254733D01*
X181804733Y-64395579D01*
X181804733Y-64395580D01*
X181804731Y-64395582D01*
X181754447Y-64464790D01*
X181687647Y-64556733D01*
X181610485Y-64708172D01*
X181562510Y-64758968D01*
X181494689Y-64775763D01*
X181428554Y-64753225D01*
X181389515Y-64708172D01*
X181312352Y-64556733D01*
X181195269Y-64395582D01*
X181054418Y-64254731D01*
X180893266Y-64137647D01*
X180873640Y-64127647D01*
X180741277Y-64060204D01*
X180690481Y-64012229D01*
X180673686Y-63944408D01*
X180696224Y-63878273D01*
X180741277Y-63839234D01*
X180893005Y-63761924D01*
X180930863Y-63734418D01*
X180930863Y-63734417D01*
X180367574Y-63171128D01*
X180426853Y-63155245D01*
X180543147Y-63088102D01*
X180638102Y-62993147D01*
X180705245Y-62876853D01*
X180721128Y-62817574D01*
X181284417Y-63380863D01*
G37*
%TD.AperFunction*%
%TA.AperFunction,Conductor*%
G36*
X181571446Y-60606773D02*
G01*
X181610485Y-60651827D01*
X181687647Y-60803266D01*
X181804731Y-60964418D01*
X181945582Y-61105269D01*
X182106734Y-61222353D01*
X182176453Y-61257877D01*
X182258172Y-61299515D01*
X182308968Y-61347490D01*
X182325763Y-61415311D01*
X182303225Y-61481446D01*
X182258172Y-61520485D01*
X182106733Y-61597647D01*
X182068286Y-61625581D01*
X181945582Y-61714731D01*
X181945580Y-61714733D01*
X181945579Y-61714733D01*
X181804733Y-61855579D01*
X181804733Y-61855580D01*
X181804731Y-61855582D01*
X181769555Y-61903997D01*
X181687645Y-62016735D01*
X181610203Y-62168723D01*
X181562229Y-62219518D01*
X181494408Y-62236313D01*
X181428273Y-62213775D01*
X181389234Y-62168722D01*
X181311924Y-62016994D01*
X181284417Y-61979135D01*
X181284417Y-61979134D01*
X180721128Y-62542424D01*
X180705245Y-62483147D01*
X180638102Y-62366853D01*
X180543147Y-62271898D01*
X180426853Y-62204755D01*
X180367574Y-62188871D01*
X180930864Y-61625581D01*
X180930863Y-61625580D01*
X180893008Y-61598077D01*
X180741277Y-61520765D01*
X180690481Y-61472790D01*
X180673686Y-61404969D01*
X180696224Y-61338834D01*
X180741277Y-61299795D01*
X180741827Y-61299515D01*
X180893266Y-61222353D01*
X181054418Y-61105269D01*
X181195269Y-60964418D01*
X181312353Y-60803266D01*
X181389515Y-60651827D01*
X181437490Y-60601031D01*
X181505311Y-60584236D01*
X181571446Y-60606773D01*
G37*
%TD.AperFunction*%
%TA.AperFunction,Conductor*%
G36*
X121294755Y-78106853D02*
G01*
X121361898Y-78223147D01*
X121456853Y-78318102D01*
X121573147Y-78385245D01*
X121632425Y-78401128D01*
X121069134Y-78964417D01*
X121106994Y-78991924D01*
X121258722Y-79069234D01*
X121309518Y-79117209D01*
X121326313Y-79185030D01*
X121303776Y-79251165D01*
X121258723Y-79290203D01*
X121106735Y-79367645D01*
X120993997Y-79449555D01*
X120945582Y-79484731D01*
X120945580Y-79484733D01*
X120945579Y-79484733D01*
X120804733Y-79625579D01*
X120804733Y-79625580D01*
X120804731Y-79625582D01*
X120797468Y-79635579D01*
X120687647Y-79786733D01*
X120610485Y-79938172D01*
X120562510Y-79988968D01*
X120494689Y-80005763D01*
X120428554Y-79983225D01*
X120389515Y-79938172D01*
X120317448Y-79796734D01*
X120312353Y-79786734D01*
X120195269Y-79625582D01*
X120054418Y-79484731D01*
X119893266Y-79367647D01*
X119741827Y-79290485D01*
X119691031Y-79242510D01*
X119674236Y-79174689D01*
X119696773Y-79108554D01*
X119741827Y-79069515D01*
X119751116Y-79064781D01*
X119893266Y-78992353D01*
X120054418Y-78875269D01*
X120195269Y-78734418D01*
X120312353Y-78573266D01*
X120389795Y-78421276D01*
X120437769Y-78370481D01*
X120505590Y-78353686D01*
X120571725Y-78376223D01*
X120610765Y-78421277D01*
X120688077Y-78573008D01*
X120715580Y-78610863D01*
X120715581Y-78610864D01*
X121278871Y-78047574D01*
X121294755Y-78106853D01*
G37*
%TD.AperFunction*%
%TA.AperFunction,Conductor*%
G36*
X121294755Y-75566853D02*
G01*
X121361898Y-75683147D01*
X121456853Y-75778102D01*
X121573147Y-75845245D01*
X121632425Y-75861128D01*
X121069134Y-76424417D01*
X121106999Y-76451928D01*
X121259272Y-76529516D01*
X121310068Y-76577490D01*
X121326863Y-76645311D01*
X121304325Y-76711446D01*
X121259272Y-76750484D01*
X121106996Y-76828073D01*
X121106995Y-76828074D01*
X121069135Y-76855580D01*
X121069135Y-76855581D01*
X121632425Y-77418871D01*
X121573147Y-77434755D01*
X121456853Y-77501898D01*
X121361898Y-77596853D01*
X121294755Y-77713147D01*
X121278871Y-77772425D01*
X120715581Y-77209135D01*
X120715580Y-77209135D01*
X120688075Y-77246993D01*
X120610764Y-77398723D01*
X120562790Y-77449518D01*
X120494969Y-77466313D01*
X120428834Y-77443775D01*
X120389795Y-77398722D01*
X120317448Y-77256734D01*
X120312353Y-77246734D01*
X120195269Y-77085582D01*
X120054418Y-76944731D01*
X119893266Y-76827647D01*
X119893262Y-76827645D01*
X119741277Y-76750204D01*
X119690481Y-76702229D01*
X119673686Y-76634408D01*
X119696224Y-76568273D01*
X119741277Y-76529234D01*
X119893005Y-76451924D01*
X119930863Y-76424418D01*
X119930863Y-76424417D01*
X119367574Y-75861128D01*
X119426853Y-75845245D01*
X119543147Y-75778102D01*
X119638102Y-75683147D01*
X119705245Y-75566853D01*
X119721128Y-75507574D01*
X120284417Y-76070863D01*
X120284418Y-76070863D01*
X120311924Y-76033005D01*
X120389515Y-75880727D01*
X120437490Y-75829931D01*
X120505311Y-75813136D01*
X120571446Y-75835674D01*
X120610485Y-75880727D01*
X120688077Y-76033008D01*
X120715580Y-76070863D01*
X120715581Y-76070864D01*
X121278871Y-75507574D01*
X121294755Y-75566853D01*
G37*
%TD.AperFunction*%
%TA.AperFunction,Conductor*%
G36*
X120571446Y-73296773D02*
G01*
X120610485Y-73341827D01*
X120687647Y-73493266D01*
X120804731Y-73654418D01*
X120945582Y-73795269D01*
X121106734Y-73912353D01*
X121196909Y-73958299D01*
X121258722Y-73989795D01*
X121309518Y-74037770D01*
X121326313Y-74105591D01*
X121303776Y-74171726D01*
X121258723Y-74210764D01*
X121106993Y-74288075D01*
X121069135Y-74315580D01*
X121069135Y-74315581D01*
X121632425Y-74878871D01*
X121573147Y-74894755D01*
X121456853Y-74961898D01*
X121361898Y-75056853D01*
X121294755Y-75173147D01*
X121278871Y-75232425D01*
X120715581Y-74669135D01*
X120715580Y-74669135D01*
X120688074Y-74706995D01*
X120688073Y-74706996D01*
X120610484Y-74859272D01*
X120562510Y-74910068D01*
X120494689Y-74926863D01*
X120428554Y-74904325D01*
X120389516Y-74859272D01*
X120311928Y-74706999D01*
X120284417Y-74669135D01*
X120284417Y-74669134D01*
X119721128Y-75232424D01*
X119705245Y-75173147D01*
X119638102Y-75056853D01*
X119543147Y-74961898D01*
X119426853Y-74894755D01*
X119367574Y-74878871D01*
X119930864Y-74315581D01*
X119930863Y-74315580D01*
X119893008Y-74288077D01*
X119741277Y-74210765D01*
X119690481Y-74162790D01*
X119673686Y-74094969D01*
X119696224Y-74028834D01*
X119741277Y-73989795D01*
X119893266Y-73912353D01*
X120054418Y-73795269D01*
X120195269Y-73654418D01*
X120312353Y-73493266D01*
X120389515Y-73341827D01*
X120437490Y-73291031D01*
X120505311Y-73274236D01*
X120571446Y-73296773D01*
G37*
%TD.AperFunction*%
%TA.AperFunction,Conductor*%
G36*
X121294755Y-60326853D02*
G01*
X121361898Y-60443147D01*
X121456853Y-60538102D01*
X121573147Y-60605245D01*
X121632425Y-60621128D01*
X121069134Y-61184417D01*
X121106994Y-61211924D01*
X121258722Y-61289234D01*
X121309518Y-61337209D01*
X121326313Y-61405030D01*
X121303776Y-61471165D01*
X121258723Y-61510203D01*
X121106735Y-61587645D01*
X120993997Y-61669555D01*
X120945582Y-61704731D01*
X120945580Y-61704733D01*
X120945579Y-61704733D01*
X120804733Y-61845579D01*
X120804733Y-61845580D01*
X120804731Y-61845582D01*
X120797468Y-61855579D01*
X120687647Y-62006733D01*
X120610485Y-62158172D01*
X120562510Y-62208968D01*
X120494689Y-62225763D01*
X120428554Y-62203225D01*
X120389515Y-62158172D01*
X120347877Y-62076453D01*
X120312353Y-62006734D01*
X120195269Y-61845582D01*
X120054418Y-61704731D01*
X119893266Y-61587647D01*
X119741827Y-61510485D01*
X119691031Y-61462510D01*
X119674236Y-61394689D01*
X119696773Y-61328554D01*
X119741827Y-61289515D01*
X119751116Y-61284781D01*
X119893266Y-61212353D01*
X120054418Y-61095269D01*
X120195269Y-60954418D01*
X120312353Y-60793266D01*
X120389795Y-60641276D01*
X120437769Y-60590481D01*
X120505590Y-60573686D01*
X120571725Y-60596223D01*
X120610765Y-60641277D01*
X120688077Y-60793008D01*
X120715580Y-60830863D01*
X120715581Y-60830864D01*
X121278871Y-60267574D01*
X121294755Y-60326853D01*
G37*
%TD.AperFunction*%
%TA.AperFunction,Conductor*%
G36*
X120571446Y-58056773D02*
G01*
X120610485Y-58101827D01*
X120687647Y-58253266D01*
X120804731Y-58414418D01*
X120945582Y-58555269D01*
X121106734Y-58672353D01*
X121196909Y-58718299D01*
X121258722Y-58749795D01*
X121309518Y-58797770D01*
X121326313Y-58865591D01*
X121303776Y-58931726D01*
X121258723Y-58970764D01*
X121106993Y-59048075D01*
X121069135Y-59075580D01*
X121069135Y-59075581D01*
X121632425Y-59638871D01*
X121573147Y-59654755D01*
X121456853Y-59721898D01*
X121361898Y-59816853D01*
X121294755Y-59933147D01*
X121278871Y-59992425D01*
X120715581Y-59429135D01*
X120715580Y-59429135D01*
X120688075Y-59466993D01*
X120610764Y-59618723D01*
X120562790Y-59669518D01*
X120494969Y-59686313D01*
X120428834Y-59663775D01*
X120389795Y-59618722D01*
X120317448Y-59476734D01*
X120312353Y-59466734D01*
X120195269Y-59305582D01*
X120054418Y-59164731D01*
X119893266Y-59047647D01*
X119761453Y-58980485D01*
X119741827Y-58970485D01*
X119691031Y-58922510D01*
X119674236Y-58854689D01*
X119696773Y-58788554D01*
X119741827Y-58749515D01*
X119751116Y-58744781D01*
X119893266Y-58672353D01*
X120054418Y-58555269D01*
X120195269Y-58414418D01*
X120312353Y-58253266D01*
X120389515Y-58101827D01*
X120437490Y-58051031D01*
X120505311Y-58034236D01*
X120571446Y-58056773D01*
G37*
%TD.AperFunction*%
%TA.AperFunction,Conductor*%
G36*
X135006061Y-48701097D02*
G01*
X135016051Y-48702080D01*
X135143824Y-48714665D01*
X135167652Y-48719404D01*
X135294277Y-48757815D01*
X135316725Y-48767114D01*
X135433406Y-48829482D01*
X135453616Y-48842986D01*
X135555891Y-48926920D01*
X135573079Y-48944108D01*
X135657012Y-49046381D01*
X135670517Y-49066593D01*
X135732883Y-49183271D01*
X135742186Y-49205728D01*
X135780593Y-49332338D01*
X135785335Y-49356180D01*
X135798903Y-49493938D01*
X135799500Y-49506092D01*
X135799500Y-56264486D01*
X135829059Y-56451118D01*
X135887454Y-56630836D01*
X135973240Y-56799199D01*
X136084310Y-56952073D01*
X136217927Y-57085690D01*
X136370801Y-57196760D01*
X136450347Y-57237290D01*
X136539163Y-57282545D01*
X136539165Y-57282545D01*
X136539168Y-57282547D01*
X136604144Y-57303659D01*
X136718881Y-57340940D01*
X136905514Y-57370500D01*
X136905519Y-57370500D01*
X165094486Y-57370500D01*
X165281118Y-57340940D01*
X165460832Y-57282547D01*
X165629199Y-57196760D01*
X165782073Y-57085690D01*
X165915690Y-56952073D01*
X166026760Y-56799199D01*
X166112547Y-56630832D01*
X166170940Y-56451118D01*
X166178807Y-56401446D01*
X166200500Y-56264486D01*
X166200500Y-54750684D01*
X173309500Y-54750684D01*
X173309500Y-54989315D01*
X173309501Y-54989332D01*
X173331916Y-55159596D01*
X173340649Y-55225924D01*
X173340739Y-55226260D01*
X173402415Y-55456436D01*
X173493734Y-55676902D01*
X173493740Y-55676914D01*
X173613062Y-55883586D01*
X173613064Y-55883589D01*
X173613065Y-55883590D01*
X173758337Y-56072912D01*
X173758343Y-56072919D01*
X173927080Y-56241656D01*
X173927087Y-56241662D01*
X174035290Y-56324689D01*
X174116414Y-56386938D01*
X174323086Y-56506260D01*
X174323091Y-56506262D01*
X174323097Y-56506265D01*
X174418109Y-56545620D01*
X174543564Y-56597585D01*
X174774076Y-56659351D01*
X175010678Y-56690500D01*
X175010685Y-56690500D01*
X175249315Y-56690500D01*
X175249322Y-56690500D01*
X175485924Y-56659351D01*
X175716436Y-56597585D01*
X175930597Y-56508876D01*
X175936902Y-56506265D01*
X175936902Y-56506264D01*
X175936914Y-56506260D01*
X176143586Y-56386938D01*
X176332914Y-56241661D01*
X176501661Y-56072914D01*
X176646938Y-55883586D01*
X176766260Y-55676914D01*
X176857585Y-55456436D01*
X176919351Y-55225924D01*
X176950500Y-54989322D01*
X176950500Y-54750678D01*
X176919351Y-54514076D01*
X176857585Y-54283564D01*
X176779368Y-54094731D01*
X176766265Y-54063097D01*
X176766262Y-54063091D01*
X176766260Y-54063086D01*
X176646938Y-53856414D01*
X176548011Y-53727490D01*
X176501662Y-53667087D01*
X176501656Y-53667080D01*
X176332919Y-53498343D01*
X176332912Y-53498337D01*
X176143590Y-53353065D01*
X176143589Y-53353064D01*
X176143586Y-53353062D01*
X175936914Y-53233740D01*
X175936902Y-53233734D01*
X175716436Y-53142415D01*
X175485920Y-53080648D01*
X175249332Y-53049501D01*
X175249327Y-53049500D01*
X175249322Y-53049500D01*
X175010678Y-53049500D01*
X175010672Y-53049500D01*
X175010667Y-53049501D01*
X174774079Y-53080648D01*
X174543563Y-53142415D01*
X174323097Y-53233734D01*
X174323083Y-53233741D01*
X174116409Y-53353065D01*
X173927087Y-53498337D01*
X173927080Y-53498343D01*
X173758343Y-53667080D01*
X173758337Y-53667087D01*
X173613065Y-53856409D01*
X173493741Y-54063083D01*
X173493734Y-54063097D01*
X173402415Y-54283563D01*
X173340648Y-54514079D01*
X173309501Y-54750667D01*
X173309500Y-54750684D01*
X166200500Y-54750684D01*
X166200500Y-51707135D01*
X178964500Y-51707135D01*
X178964500Y-53332870D01*
X178964501Y-53332876D01*
X178970908Y-53392483D01*
X179021202Y-53527328D01*
X179021206Y-53527335D01*
X179107452Y-53642544D01*
X179107455Y-53642547D01*
X179222664Y-53728793D01*
X179222671Y-53728797D01*
X179357517Y-53779091D01*
X179357516Y-53779091D01*
X179364444Y-53779835D01*
X179417127Y-53785500D01*
X179449568Y-53785499D01*
X179516605Y-53805182D01*
X179562361Y-53857984D01*
X179572306Y-53927143D01*
X179543283Y-53990699D01*
X179522455Y-54009816D01*
X179405582Y-54094730D01*
X179264733Y-54235579D01*
X179264733Y-54235580D01*
X179264731Y-54235582D01*
X179229871Y-54283563D01*
X179147647Y-54396733D01*
X179057213Y-54574219D01*
X178995661Y-54763656D01*
X178995661Y-54763659D01*
X178964500Y-54960403D01*
X178964500Y-55159596D01*
X178995661Y-55356340D01*
X178995661Y-55356343D01*
X179057213Y-55545780D01*
X179142552Y-55713266D01*
X179147647Y-55723266D01*
X179264731Y-55884418D01*
X179405582Y-56025269D01*
X179566734Y-56142353D01*
X179636453Y-56177877D01*
X179718172Y-56219515D01*
X179768968Y-56267490D01*
X179785763Y-56335311D01*
X179763225Y-56401446D01*
X179718172Y-56440485D01*
X179566733Y-56517647D01*
X179474790Y-56584447D01*
X179405582Y-56634731D01*
X179405580Y-56634733D01*
X179405579Y-56634733D01*
X179264733Y-56775579D01*
X179264733Y-56775580D01*
X179264731Y-56775582D01*
X179221736Y-56834760D01*
X179147647Y-56936733D01*
X179057213Y-57114219D01*
X178995661Y-57303656D01*
X178995661Y-57303659D01*
X178964500Y-57500403D01*
X178964500Y-57699596D01*
X178995661Y-57896340D01*
X178995661Y-57896343D01*
X179057213Y-58085780D01*
X179070485Y-58111827D01*
X179147647Y-58263266D01*
X179264731Y-58424418D01*
X179405582Y-58565269D01*
X179566734Y-58682353D01*
X179636453Y-58717877D01*
X179718172Y-58759515D01*
X179768968Y-58807490D01*
X179785763Y-58875311D01*
X179763225Y-58941446D01*
X179718172Y-58980485D01*
X179566733Y-59057647D01*
X179474790Y-59124447D01*
X179405582Y-59174731D01*
X179405580Y-59174733D01*
X179405579Y-59174733D01*
X179264733Y-59315579D01*
X179264733Y-59315580D01*
X179264731Y-59315582D01*
X179214447Y-59384790D01*
X179147647Y-59476733D01*
X179057213Y-59654219D01*
X178995661Y-59843656D01*
X178995661Y-59843659D01*
X178964500Y-60040403D01*
X178964500Y-60239596D01*
X178995661Y-60436340D01*
X178995661Y-60436343D01*
X179057213Y-60625780D01*
X179070485Y-60651827D01*
X179147647Y-60803266D01*
X179264731Y-60964418D01*
X179405582Y-61105269D01*
X179566734Y-61222353D01*
X179656909Y-61268299D01*
X179718722Y-61299795D01*
X179769518Y-61347770D01*
X179786313Y-61415591D01*
X179763776Y-61481726D01*
X179718723Y-61520764D01*
X179566993Y-61598075D01*
X179529135Y-61625580D01*
X179529135Y-61625581D01*
X180092425Y-62188871D01*
X180033147Y-62204755D01*
X179916853Y-62271898D01*
X179821898Y-62366853D01*
X179754755Y-62483147D01*
X179738871Y-62542425D01*
X179175581Y-61979135D01*
X179175580Y-61979135D01*
X179148077Y-62016990D01*
X179057679Y-62194405D01*
X178996147Y-62383777D01*
X178965000Y-62580436D01*
X178965000Y-62779563D01*
X178996147Y-62976222D01*
X179057679Y-63165594D01*
X179148077Y-63343008D01*
X179175580Y-63380863D01*
X179175581Y-63380864D01*
X179738871Y-62817574D01*
X179754755Y-62876853D01*
X179821898Y-62993147D01*
X179916853Y-63088102D01*
X180033147Y-63155245D01*
X180092425Y-63171128D01*
X179529134Y-63734417D01*
X179566994Y-63761924D01*
X179718722Y-63839234D01*
X179769518Y-63887209D01*
X179786313Y-63955030D01*
X179763776Y-64021165D01*
X179718723Y-64060203D01*
X179566735Y-64137645D01*
X179453997Y-64219555D01*
X179405582Y-64254731D01*
X179405580Y-64254733D01*
X179405579Y-64254733D01*
X179264733Y-64395579D01*
X179264733Y-64395580D01*
X179264731Y-64395582D01*
X179214447Y-64464790D01*
X179147647Y-64556733D01*
X179057213Y-64734219D01*
X178995661Y-64923656D01*
X178995661Y-64923659D01*
X178964500Y-65120403D01*
X178964500Y-65319596D01*
X178995661Y-65516340D01*
X178995661Y-65516343D01*
X179057213Y-65705780D01*
X179070485Y-65731827D01*
X179147647Y-65883266D01*
X179264731Y-66044418D01*
X179405582Y-66185269D01*
X179566734Y-66302353D01*
X179636453Y-66337877D01*
X179718172Y-66379515D01*
X179768968Y-66427490D01*
X179785763Y-66495311D01*
X179763225Y-66561446D01*
X179718172Y-66600485D01*
X179566733Y-66677647D01*
X179474790Y-66744447D01*
X179405582Y-66794731D01*
X179405580Y-66794733D01*
X179405579Y-66794733D01*
X179264733Y-66935579D01*
X179264733Y-66935580D01*
X179264731Y-66935582D01*
X179218292Y-66999500D01*
X179147647Y-67096733D01*
X179057213Y-67274219D01*
X178995661Y-67463656D01*
X178995661Y-67463659D01*
X178964500Y-67660403D01*
X178964500Y-67859596D01*
X178995661Y-68056340D01*
X178995661Y-68056343D01*
X179057213Y-68245780D01*
X179101629Y-68332951D01*
X179147647Y-68423266D01*
X179264731Y-68584418D01*
X179405582Y-68725269D01*
X179566734Y-68842353D01*
X179636453Y-68877877D01*
X179718172Y-68919515D01*
X179768968Y-68967490D01*
X179785763Y-69035311D01*
X179763225Y-69101446D01*
X179718172Y-69140485D01*
X179566733Y-69217647D01*
X179474790Y-69284447D01*
X179405582Y-69334731D01*
X179405580Y-69334733D01*
X179405579Y-69334733D01*
X179264733Y-69475579D01*
X179264733Y-69475580D01*
X179264731Y-69475582D01*
X179214447Y-69544790D01*
X179147647Y-69636733D01*
X179057213Y-69814219D01*
X178995661Y-70003656D01*
X178995661Y-70003659D01*
X178964500Y-70200403D01*
X178964500Y-70399596D01*
X178995661Y-70596340D01*
X178995661Y-70596343D01*
X179057213Y-70785780D01*
X179070485Y-70811827D01*
X179147647Y-70963266D01*
X179264731Y-71124418D01*
X179405582Y-71265269D01*
X179566734Y-71382353D01*
X179636453Y-71417877D01*
X179718172Y-71459515D01*
X179768968Y-71507490D01*
X179785763Y-71575311D01*
X179763225Y-71641446D01*
X179718172Y-71680485D01*
X179566733Y-71757647D01*
X179474790Y-71824447D01*
X179405582Y-71874731D01*
X179405580Y-71874733D01*
X179405579Y-71874733D01*
X179264733Y-72015579D01*
X179264733Y-72015580D01*
X179264731Y-72015582D01*
X179214447Y-72084790D01*
X179147647Y-72176733D01*
X179057213Y-72354219D01*
X178995661Y-72543656D01*
X178995661Y-72543659D01*
X178964500Y-72740403D01*
X178964500Y-72939596D01*
X178995661Y-73136340D01*
X178995661Y-73136343D01*
X179057213Y-73325780D01*
X179070485Y-73351827D01*
X179147647Y-73503266D01*
X179264731Y-73664418D01*
X179405582Y-73805269D01*
X179566734Y-73922353D01*
X179636453Y-73957877D01*
X179718172Y-73999515D01*
X179768968Y-74047490D01*
X179785763Y-74115311D01*
X179763225Y-74181446D01*
X179718172Y-74220485D01*
X179566733Y-74297647D01*
X179528286Y-74325581D01*
X179405582Y-74414731D01*
X179405580Y-74414733D01*
X179405579Y-74414733D01*
X179264733Y-74555579D01*
X179264733Y-74555580D01*
X179264731Y-74555582D01*
X179214447Y-74624790D01*
X179147647Y-74716733D01*
X179057213Y-74894219D01*
X178995661Y-75083656D01*
X178995661Y-75083659D01*
X178964500Y-75280403D01*
X178964500Y-75479596D01*
X178995661Y-75676340D01*
X178995661Y-75676343D01*
X179057213Y-75865780D01*
X179142419Y-76033005D01*
X179147647Y-76043266D01*
X179264731Y-76204418D01*
X179405582Y-76345269D01*
X179566734Y-76462353D01*
X179636453Y-76497877D01*
X179718172Y-76539515D01*
X179768968Y-76587490D01*
X179785763Y-76655311D01*
X179763225Y-76721446D01*
X179718172Y-76760485D01*
X179566733Y-76837647D01*
X179474790Y-76904447D01*
X179405582Y-76954731D01*
X179405580Y-76954733D01*
X179405579Y-76954733D01*
X179264733Y-77095579D01*
X179264733Y-77095580D01*
X179264731Y-77095582D01*
X179214447Y-77164790D01*
X179147647Y-77256733D01*
X179057213Y-77434219D01*
X178995661Y-77623656D01*
X178995661Y-77623659D01*
X178964500Y-77820403D01*
X178964500Y-78019596D01*
X178995661Y-78216340D01*
X178995661Y-78216343D01*
X179057213Y-78405780D01*
X179092282Y-78474606D01*
X179147647Y-78583266D01*
X179264731Y-78744418D01*
X179405582Y-78885269D01*
X179566734Y-79002353D01*
X179636453Y-79037877D01*
X179718172Y-79079515D01*
X179768968Y-79127490D01*
X179785763Y-79195311D01*
X179763225Y-79261446D01*
X179718172Y-79300485D01*
X179566733Y-79377647D01*
X179474790Y-79444447D01*
X179405582Y-79494731D01*
X179405580Y-79494733D01*
X179405579Y-79494733D01*
X179264733Y-79635579D01*
X179264733Y-79635580D01*
X179264731Y-79635582D01*
X179214447Y-79704790D01*
X179147647Y-79796733D01*
X179057213Y-79974219D01*
X178995661Y-80163656D01*
X178995661Y-80163659D01*
X178964500Y-80360403D01*
X178964500Y-80559596D01*
X178995661Y-80756340D01*
X178995661Y-80756343D01*
X179057213Y-80945780D01*
X179070485Y-80971827D01*
X179147647Y-81123266D01*
X179264731Y-81284418D01*
X179405582Y-81425269D01*
X179566734Y-81542353D01*
X179636453Y-81577877D01*
X179718172Y-81619515D01*
X179768968Y-81667490D01*
X179785763Y-81735311D01*
X179763225Y-81801446D01*
X179718172Y-81840485D01*
X179566733Y-81917647D01*
X179474790Y-81984447D01*
X179405582Y-82034731D01*
X179405580Y-82034733D01*
X179405579Y-82034733D01*
X179264733Y-82175579D01*
X179264733Y-82175580D01*
X179264731Y-82175582D01*
X179214447Y-82244790D01*
X179147647Y-82336733D01*
X179057213Y-82514219D01*
X178995661Y-82703656D01*
X178995661Y-82703659D01*
X178964500Y-82900403D01*
X178964500Y-83099596D01*
X178995661Y-83296340D01*
X178995661Y-83296343D01*
X179057213Y-83485780D01*
X179070485Y-83511827D01*
X179147647Y-83663266D01*
X179264731Y-83824418D01*
X179405582Y-83965269D01*
X179566734Y-84082353D01*
X179636453Y-84117877D01*
X179718172Y-84159515D01*
X179768968Y-84207490D01*
X179785763Y-84275311D01*
X179763225Y-84341446D01*
X179718172Y-84380485D01*
X179566733Y-84457647D01*
X179474790Y-84524447D01*
X179405582Y-84574731D01*
X179405580Y-84574733D01*
X179405579Y-84574733D01*
X179264733Y-84715579D01*
X179264733Y-84715580D01*
X179264731Y-84715582D01*
X179214447Y-84784790D01*
X179147647Y-84876733D01*
X179057213Y-85054219D01*
X178995661Y-85243656D01*
X178995661Y-85243659D01*
X178964500Y-85440403D01*
X178964500Y-85639596D01*
X178995661Y-85836340D01*
X178995661Y-85836343D01*
X179057213Y-86025780D01*
X179070485Y-86051827D01*
X179147647Y-86203266D01*
X179264731Y-86364418D01*
X179405582Y-86505269D01*
X179566734Y-86622353D01*
X179636453Y-86657877D01*
X179718172Y-86699515D01*
X179768968Y-86747490D01*
X179785763Y-86815311D01*
X179763225Y-86881446D01*
X179718172Y-86920485D01*
X179566733Y-86997647D01*
X179474790Y-87064447D01*
X179405582Y-87114731D01*
X179405580Y-87114733D01*
X179405579Y-87114733D01*
X179264733Y-87255579D01*
X179264733Y-87255580D01*
X179264731Y-87255582D01*
X179214447Y-87324790D01*
X179147647Y-87416733D01*
X179057213Y-87594219D01*
X178995661Y-87783656D01*
X178995661Y-87783659D01*
X178964500Y-87980403D01*
X178964500Y-88179596D01*
X178995661Y-88376340D01*
X178995661Y-88376343D01*
X179057213Y-88565780D01*
X179070485Y-88591827D01*
X179147647Y-88743266D01*
X179264731Y-88904418D01*
X179405582Y-89045269D01*
X179566734Y-89162353D01*
X179636453Y-89197877D01*
X179718172Y-89239515D01*
X179768968Y-89287490D01*
X179785763Y-89355311D01*
X179763225Y-89421446D01*
X179718172Y-89460485D01*
X179566733Y-89537647D01*
X179474790Y-89604447D01*
X179405582Y-89654731D01*
X179405580Y-89654733D01*
X179405579Y-89654733D01*
X179264733Y-89795579D01*
X179264733Y-89795580D01*
X179264731Y-89795582D01*
X179214447Y-89864790D01*
X179147647Y-89956733D01*
X179057213Y-90134219D01*
X178995661Y-90323656D01*
X178995661Y-90323659D01*
X178964500Y-90520403D01*
X178964500Y-90719596D01*
X178995661Y-90916340D01*
X178995661Y-90916343D01*
X179057213Y-91105780D01*
X179070485Y-91131827D01*
X179147647Y-91283266D01*
X179264731Y-91444418D01*
X179405582Y-91585269D01*
X179566734Y-91702353D01*
X179636453Y-91737877D01*
X179718172Y-91779515D01*
X179768968Y-91827490D01*
X179785763Y-91895311D01*
X179763225Y-91961446D01*
X179718172Y-92000485D01*
X179566733Y-92077647D01*
X179474790Y-92144447D01*
X179405582Y-92194731D01*
X179405580Y-92194733D01*
X179405579Y-92194733D01*
X179264733Y-92335579D01*
X179264733Y-92335580D01*
X179264731Y-92335582D01*
X179214447Y-92404790D01*
X179147647Y-92496733D01*
X179057213Y-92674219D01*
X178995661Y-92863656D01*
X178995661Y-92863659D01*
X178964500Y-93060403D01*
X178964500Y-93259596D01*
X178995661Y-93456340D01*
X178995661Y-93456343D01*
X179057213Y-93645780D01*
X179070485Y-93671827D01*
X179147647Y-93823266D01*
X179264731Y-93984418D01*
X179405582Y-94125269D01*
X179566734Y-94242353D01*
X179636453Y-94277877D01*
X179718172Y-94319515D01*
X179768968Y-94367490D01*
X179785763Y-94435311D01*
X179763225Y-94501446D01*
X179718172Y-94540485D01*
X179566733Y-94617647D01*
X179474790Y-94684447D01*
X179405582Y-94734731D01*
X179405580Y-94734733D01*
X179405579Y-94734733D01*
X179264733Y-94875579D01*
X179264733Y-94875580D01*
X179264731Y-94875582D01*
X179214447Y-94944790D01*
X179147647Y-95036733D01*
X179057213Y-95214219D01*
X178995661Y-95403656D01*
X178995661Y-95403659D01*
X178964500Y-95600403D01*
X178964500Y-95799596D01*
X178995661Y-95996340D01*
X178995661Y-95996343D01*
X179057213Y-96185780D01*
X179070485Y-96211827D01*
X179147647Y-96363266D01*
X179264731Y-96524418D01*
X179405582Y-96665269D01*
X179566734Y-96782353D01*
X179636453Y-96817877D01*
X179718172Y-96859515D01*
X179768968Y-96907490D01*
X179785763Y-96975311D01*
X179763225Y-97041446D01*
X179718172Y-97080485D01*
X179566733Y-97157647D01*
X179474790Y-97224447D01*
X179405582Y-97274731D01*
X179405580Y-97274733D01*
X179405579Y-97274733D01*
X179264733Y-97415579D01*
X179264733Y-97415580D01*
X179264731Y-97415582D01*
X179214447Y-97484790D01*
X179147647Y-97576733D01*
X179057213Y-97754219D01*
X178995661Y-97943656D01*
X178995661Y-97943659D01*
X178964500Y-98140403D01*
X178964500Y-98339596D01*
X178995661Y-98536340D01*
X178995661Y-98536343D01*
X179057213Y-98725780D01*
X179070485Y-98751827D01*
X179147647Y-98903266D01*
X179264731Y-99064418D01*
X179405582Y-99205269D01*
X179566734Y-99322353D01*
X179636453Y-99357877D01*
X179718172Y-99399515D01*
X179768968Y-99447490D01*
X179785763Y-99515311D01*
X179763225Y-99581446D01*
X179718172Y-99620485D01*
X179566733Y-99697647D01*
X179474790Y-99764447D01*
X179405582Y-99814731D01*
X179405580Y-99814733D01*
X179405579Y-99814733D01*
X179264733Y-99955579D01*
X179264733Y-99955580D01*
X179264731Y-99955582D01*
X179214447Y-100024790D01*
X179147647Y-100116733D01*
X179057213Y-100294219D01*
X178995661Y-100483656D01*
X178995661Y-100483659D01*
X178964500Y-100680403D01*
X178964500Y-100879596D01*
X178995661Y-101076340D01*
X178995661Y-101076343D01*
X179057213Y-101265780D01*
X179070485Y-101291827D01*
X179147647Y-101443266D01*
X179264731Y-101604418D01*
X179405582Y-101745269D01*
X179566734Y-101862353D01*
X179636453Y-101897877D01*
X179718172Y-101939515D01*
X179768968Y-101987490D01*
X179785763Y-102055311D01*
X179763225Y-102121446D01*
X179718172Y-102160485D01*
X179566733Y-102237647D01*
X179474790Y-102304447D01*
X179405582Y-102354731D01*
X179405580Y-102354733D01*
X179405579Y-102354733D01*
X179264733Y-102495579D01*
X179264733Y-102495580D01*
X179264731Y-102495582D01*
X179214447Y-102564790D01*
X179147647Y-102656733D01*
X179057213Y-102834219D01*
X178995661Y-103023656D01*
X178995661Y-103023659D01*
X178964500Y-103220403D01*
X178964500Y-103419596D01*
X178995661Y-103616340D01*
X178995661Y-103616343D01*
X179057213Y-103805780D01*
X179070485Y-103831827D01*
X179147647Y-103983266D01*
X179264731Y-104144418D01*
X179405582Y-104285269D01*
X179566734Y-104402353D01*
X179636453Y-104437877D01*
X179718172Y-104479515D01*
X179768968Y-104527490D01*
X179785763Y-104595311D01*
X179763225Y-104661446D01*
X179718172Y-104700485D01*
X179566733Y-104777647D01*
X179474790Y-104844447D01*
X179405582Y-104894731D01*
X179405580Y-104894733D01*
X179405579Y-104894733D01*
X179264733Y-105035579D01*
X179264733Y-105035580D01*
X179264731Y-105035582D01*
X179214447Y-105104790D01*
X179147647Y-105196733D01*
X179057213Y-105374219D01*
X178995661Y-105563656D01*
X178995661Y-105563659D01*
X178964500Y-105760403D01*
X178964500Y-105959596D01*
X178995661Y-106156340D01*
X178995661Y-106156343D01*
X179057213Y-106345780D01*
X179070485Y-106371827D01*
X179147647Y-106523266D01*
X179264731Y-106684418D01*
X179405582Y-106825269D01*
X179566734Y-106942353D01*
X179636453Y-106977877D01*
X179718172Y-107019515D01*
X179768968Y-107067490D01*
X179785763Y-107135311D01*
X179763225Y-107201446D01*
X179718172Y-107240485D01*
X179566733Y-107317647D01*
X179474790Y-107384447D01*
X179405582Y-107434731D01*
X179405580Y-107434733D01*
X179405579Y-107434733D01*
X179264733Y-107575579D01*
X179264733Y-107575580D01*
X179264731Y-107575582D01*
X179214447Y-107644790D01*
X179147647Y-107736733D01*
X179057213Y-107914219D01*
X178995661Y-108103656D01*
X178995661Y-108103659D01*
X178964500Y-108300403D01*
X178964500Y-108499596D01*
X178995661Y-108696340D01*
X178995661Y-108696343D01*
X179057213Y-108885780D01*
X179070485Y-108911827D01*
X179147647Y-109063266D01*
X179264731Y-109224418D01*
X179405582Y-109365269D01*
X179566734Y-109482353D01*
X179724591Y-109562785D01*
X179744219Y-109572786D01*
X179933657Y-109634338D01*
X179933658Y-109634338D01*
X179933661Y-109634339D01*
X180130403Y-109665500D01*
X180130404Y-109665500D01*
X180329596Y-109665500D01*
X180329597Y-109665500D01*
X180526339Y-109634339D01*
X180526342Y-109634338D01*
X180526343Y-109634338D01*
X180715780Y-109572786D01*
X180715780Y-109572785D01*
X180715783Y-109572785D01*
X180893266Y-109482353D01*
X181054418Y-109365269D01*
X181195269Y-109224418D01*
X181312353Y-109063266D01*
X181389515Y-108911827D01*
X181437490Y-108861031D01*
X181505311Y-108844236D01*
X181571446Y-108866773D01*
X181610485Y-108911827D01*
X181687647Y-109063266D01*
X181804731Y-109224418D01*
X181945582Y-109365269D01*
X182106734Y-109482353D01*
X182264591Y-109562785D01*
X182284219Y-109572786D01*
X182473657Y-109634338D01*
X182473658Y-109634338D01*
X182473661Y-109634339D01*
X182670403Y-109665500D01*
X182670404Y-109665500D01*
X182869596Y-109665500D01*
X182869597Y-109665500D01*
X183066339Y-109634339D01*
X183066342Y-109634338D01*
X183066343Y-109634338D01*
X183255780Y-109572786D01*
X183255780Y-109572785D01*
X183255783Y-109572785D01*
X183433266Y-109482353D01*
X183594418Y-109365269D01*
X183735269Y-109224418D01*
X183852353Y-109063266D01*
X183942785Y-108885783D01*
X183954077Y-108851031D01*
X184004338Y-108696343D01*
X184004338Y-108696342D01*
X184004339Y-108696339D01*
X184035500Y-108499597D01*
X184035500Y-108300403D01*
X184004339Y-108103661D01*
X184004338Y-108103657D01*
X184004338Y-108103656D01*
X183942786Y-107914219D01*
X183852352Y-107736733D01*
X183735269Y-107575582D01*
X183594418Y-107434731D01*
X183433266Y-107317647D01*
X183281827Y-107240485D01*
X183231031Y-107192510D01*
X183214236Y-107124689D01*
X183236773Y-107058554D01*
X183281827Y-107019515D01*
X183301453Y-107009515D01*
X183433266Y-106942353D01*
X183594418Y-106825269D01*
X183735269Y-106684418D01*
X183852353Y-106523266D01*
X183942785Y-106345783D01*
X183954077Y-106311031D01*
X184004338Y-106156343D01*
X184004338Y-106156342D01*
X184004339Y-106156339D01*
X184035500Y-105959597D01*
X184035500Y-105760403D01*
X184004339Y-105563661D01*
X184004338Y-105563657D01*
X184004338Y-105563656D01*
X183942786Y-105374219D01*
X183852352Y-105196733D01*
X183735269Y-105035582D01*
X183594418Y-104894731D01*
X183433266Y-104777647D01*
X183281827Y-104700485D01*
X183231031Y-104652510D01*
X183214236Y-104584689D01*
X183236773Y-104518554D01*
X183281827Y-104479515D01*
X183301453Y-104469515D01*
X183433266Y-104402353D01*
X183594418Y-104285269D01*
X183735269Y-104144418D01*
X183852353Y-103983266D01*
X183942785Y-103805783D01*
X183955140Y-103767758D01*
X184004338Y-103616343D01*
X184004338Y-103616342D01*
X184004339Y-103616339D01*
X184035500Y-103419597D01*
X184035500Y-103220403D01*
X184004339Y-103023661D01*
X184004338Y-103023657D01*
X184004338Y-103023656D01*
X183942786Y-102834219D01*
X183852352Y-102656733D01*
X183735269Y-102495582D01*
X183594418Y-102354731D01*
X183433266Y-102237647D01*
X183281827Y-102160485D01*
X183231031Y-102112510D01*
X183214236Y-102044689D01*
X183236773Y-101978554D01*
X183281827Y-101939515D01*
X183301453Y-101929515D01*
X183433266Y-101862353D01*
X183594418Y-101745269D01*
X183735269Y-101604418D01*
X183852353Y-101443266D01*
X183942785Y-101265783D01*
X183954077Y-101231031D01*
X184004338Y-101076343D01*
X184004338Y-101076342D01*
X184004339Y-101076339D01*
X184035500Y-100879597D01*
X184035500Y-100680403D01*
X184004339Y-100483661D01*
X184004338Y-100483657D01*
X184004338Y-100483656D01*
X183942786Y-100294219D01*
X183852352Y-100116733D01*
X183735269Y-99955582D01*
X183594418Y-99814731D01*
X183433266Y-99697647D01*
X183281827Y-99620485D01*
X183231031Y-99572510D01*
X183214236Y-99504689D01*
X183236773Y-99438554D01*
X183281827Y-99399515D01*
X183301453Y-99389515D01*
X183433266Y-99322353D01*
X183594418Y-99205269D01*
X183735269Y-99064418D01*
X183852353Y-98903266D01*
X183942785Y-98725783D01*
X183955140Y-98687758D01*
X184004338Y-98536343D01*
X184004338Y-98536342D01*
X184004339Y-98536339D01*
X184035500Y-98339597D01*
X184035500Y-98140403D01*
X184004339Y-97943661D01*
X184004338Y-97943657D01*
X184004338Y-97943656D01*
X183942786Y-97754219D01*
X183852352Y-97576733D01*
X183735269Y-97415582D01*
X183594418Y-97274731D01*
X183433266Y-97157647D01*
X183281827Y-97080485D01*
X183231031Y-97032510D01*
X183214236Y-96964689D01*
X183236773Y-96898554D01*
X183281827Y-96859515D01*
X183301453Y-96849515D01*
X183433266Y-96782353D01*
X183594418Y-96665269D01*
X183735269Y-96524418D01*
X183852353Y-96363266D01*
X183942785Y-96185783D01*
X183954077Y-96151031D01*
X184004338Y-95996343D01*
X184004338Y-95996342D01*
X184004339Y-95996339D01*
X184035500Y-95799597D01*
X184035500Y-95600403D01*
X184004339Y-95403661D01*
X184004338Y-95403657D01*
X184004338Y-95403656D01*
X183942786Y-95214219D01*
X183852352Y-95036733D01*
X183735269Y-94875582D01*
X183594418Y-94734731D01*
X183433266Y-94617647D01*
X183281827Y-94540485D01*
X183231031Y-94492510D01*
X183214236Y-94424689D01*
X183236773Y-94358554D01*
X183281827Y-94319515D01*
X183301453Y-94309515D01*
X183433266Y-94242353D01*
X183594418Y-94125269D01*
X183735269Y-93984418D01*
X183852353Y-93823266D01*
X183942785Y-93645783D01*
X183955140Y-93607758D01*
X184004338Y-93456343D01*
X184004338Y-93456342D01*
X184004339Y-93456339D01*
X184035500Y-93259597D01*
X184035500Y-93060403D01*
X184004339Y-92863661D01*
X184004338Y-92863657D01*
X184004338Y-92863656D01*
X183942786Y-92674219D01*
X183852352Y-92496733D01*
X183735269Y-92335582D01*
X183594418Y-92194731D01*
X183433266Y-92077647D01*
X183281827Y-92000485D01*
X183231031Y-91952510D01*
X183214236Y-91884689D01*
X183236773Y-91818554D01*
X183281827Y-91779515D01*
X183301453Y-91769515D01*
X183433266Y-91702353D01*
X183594418Y-91585269D01*
X183735269Y-91444418D01*
X183852353Y-91283266D01*
X183942785Y-91105783D01*
X183954077Y-91071031D01*
X184004338Y-90916343D01*
X184004338Y-90916342D01*
X184004339Y-90916339D01*
X184035500Y-90719597D01*
X184035500Y-90520403D01*
X184004339Y-90323661D01*
X184004338Y-90323657D01*
X184004338Y-90323656D01*
X183942786Y-90134219D01*
X183852352Y-89956733D01*
X183735269Y-89795582D01*
X183594418Y-89654731D01*
X183433266Y-89537647D01*
X183281827Y-89460485D01*
X183231031Y-89412510D01*
X183214236Y-89344689D01*
X183236773Y-89278554D01*
X183281827Y-89239515D01*
X183301453Y-89229515D01*
X183433266Y-89162353D01*
X183594418Y-89045269D01*
X183735269Y-88904418D01*
X183852353Y-88743266D01*
X183942785Y-88565783D01*
X183955140Y-88527758D01*
X184004338Y-88376343D01*
X184004338Y-88376342D01*
X184004339Y-88376339D01*
X184035500Y-88179597D01*
X184035500Y-87980403D01*
X184004339Y-87783661D01*
X184004338Y-87783657D01*
X184004338Y-87783656D01*
X183942786Y-87594219D01*
X183852352Y-87416733D01*
X183735269Y-87255582D01*
X183594418Y-87114731D01*
X183433266Y-86997647D01*
X183281827Y-86920485D01*
X183231031Y-86872510D01*
X183214236Y-86804689D01*
X183236773Y-86738554D01*
X183281827Y-86699515D01*
X183301453Y-86689515D01*
X183433266Y-86622353D01*
X183594418Y-86505269D01*
X183735269Y-86364418D01*
X183852353Y-86203266D01*
X183942785Y-86025783D01*
X183954077Y-85991031D01*
X184004338Y-85836343D01*
X184004338Y-85836342D01*
X184004339Y-85836339D01*
X184035500Y-85639597D01*
X184035500Y-85440403D01*
X184004339Y-85243661D01*
X184004338Y-85243657D01*
X184004338Y-85243656D01*
X183942786Y-85054219D01*
X183852352Y-84876733D01*
X183735269Y-84715582D01*
X183594418Y-84574731D01*
X183433266Y-84457647D01*
X183281827Y-84380485D01*
X183231031Y-84332510D01*
X183214236Y-84264689D01*
X183236773Y-84198554D01*
X183281827Y-84159515D01*
X183301453Y-84149515D01*
X183433266Y-84082353D01*
X183594418Y-83965269D01*
X183735269Y-83824418D01*
X183852353Y-83663266D01*
X183942785Y-83485783D01*
X183955140Y-83447758D01*
X184004338Y-83296343D01*
X184004338Y-83296342D01*
X184004339Y-83296339D01*
X184035500Y-83099597D01*
X184035500Y-82900403D01*
X184004339Y-82703661D01*
X184004338Y-82703657D01*
X184004338Y-82703656D01*
X183942786Y-82514219D01*
X183852352Y-82336733D01*
X183735269Y-82175582D01*
X183594418Y-82034731D01*
X183433266Y-81917647D01*
X183281827Y-81840485D01*
X183231031Y-81792510D01*
X183214236Y-81724689D01*
X183236773Y-81658554D01*
X183281827Y-81619515D01*
X183301453Y-81609515D01*
X183433266Y-81542353D01*
X183594418Y-81425269D01*
X183735269Y-81284418D01*
X183852353Y-81123266D01*
X183942785Y-80945783D01*
X183954077Y-80911031D01*
X184004338Y-80756343D01*
X184004338Y-80756342D01*
X184004339Y-80756339D01*
X184035500Y-80559597D01*
X184035500Y-80360403D01*
X184004339Y-80163661D01*
X184004338Y-80163657D01*
X184004338Y-80163656D01*
X183942786Y-79974219D01*
X183852352Y-79796733D01*
X183735269Y-79635582D01*
X183594418Y-79494731D01*
X183433266Y-79377647D01*
X183281827Y-79300485D01*
X183231031Y-79252510D01*
X183214236Y-79184689D01*
X183236773Y-79118554D01*
X183281827Y-79079515D01*
X183302004Y-79069234D01*
X183433266Y-79002353D01*
X183594418Y-78885269D01*
X183735269Y-78744418D01*
X183852353Y-78583266D01*
X183942785Y-78405783D01*
X183955140Y-78367758D01*
X184004338Y-78216343D01*
X184004338Y-78216342D01*
X184004339Y-78216339D01*
X184035500Y-78019597D01*
X184035500Y-77820403D01*
X184004339Y-77623661D01*
X184004338Y-77623657D01*
X184004338Y-77623656D01*
X183942786Y-77434219D01*
X183942785Y-77434217D01*
X183852353Y-77256734D01*
X183735269Y-77095582D01*
X183594418Y-76954731D01*
X183433266Y-76837647D01*
X183413636Y-76827645D01*
X183281277Y-76760204D01*
X183230481Y-76712229D01*
X183213686Y-76644408D01*
X183236224Y-76578273D01*
X183281277Y-76539234D01*
X183433005Y-76461924D01*
X183470863Y-76434418D01*
X183470863Y-76434417D01*
X182907574Y-75871128D01*
X182966853Y-75855245D01*
X183083147Y-75788102D01*
X183178102Y-75693147D01*
X183245245Y-75576853D01*
X183261128Y-75517574D01*
X183824417Y-76080863D01*
X183824418Y-76080863D01*
X183851924Y-76043005D01*
X183942320Y-75865594D01*
X184003852Y-75676222D01*
X184035000Y-75479563D01*
X184035000Y-75280436D01*
X184003852Y-75083777D01*
X183942320Y-74894405D01*
X183851924Y-74716994D01*
X183824417Y-74679135D01*
X183824417Y-74679134D01*
X183261128Y-75242424D01*
X183245245Y-75183147D01*
X183178102Y-75066853D01*
X183083147Y-74971898D01*
X182966853Y-74904755D01*
X182907574Y-74888871D01*
X183470864Y-74325581D01*
X183470863Y-74325580D01*
X183433008Y-74298077D01*
X183281277Y-74220765D01*
X183230481Y-74172790D01*
X183213686Y-74104969D01*
X183236224Y-74038834D01*
X183281277Y-73999795D01*
X183300903Y-73989795D01*
X183433266Y-73922353D01*
X183594418Y-73805269D01*
X183735269Y-73664418D01*
X183852353Y-73503266D01*
X183942785Y-73325783D01*
X183954077Y-73291031D01*
X184004338Y-73136343D01*
X184004338Y-73136342D01*
X184004339Y-73136339D01*
X184035500Y-72939597D01*
X184035500Y-72740403D01*
X184004339Y-72543661D01*
X184004338Y-72543657D01*
X184004338Y-72543656D01*
X183942786Y-72354219D01*
X183852352Y-72176733D01*
X183735269Y-72015582D01*
X183594418Y-71874731D01*
X183433266Y-71757647D01*
X183281827Y-71680485D01*
X183231031Y-71632510D01*
X183214236Y-71564689D01*
X183236773Y-71498554D01*
X183281827Y-71459515D01*
X183301453Y-71449515D01*
X183433266Y-71382353D01*
X183594418Y-71265269D01*
X183735269Y-71124418D01*
X183852353Y-70963266D01*
X183942785Y-70785783D01*
X183955060Y-70748004D01*
X184004338Y-70596343D01*
X184004338Y-70596342D01*
X184004339Y-70596339D01*
X184035500Y-70399597D01*
X184035500Y-70200403D01*
X184004339Y-70003661D01*
X184004338Y-70003657D01*
X184004338Y-70003656D01*
X183942786Y-69814219D01*
X183852352Y-69636733D01*
X183735269Y-69475582D01*
X183594418Y-69334731D01*
X183433266Y-69217647D01*
X183281827Y-69140485D01*
X183231031Y-69092510D01*
X183214236Y-69024689D01*
X183236773Y-68958554D01*
X183281827Y-68919515D01*
X183301453Y-68909515D01*
X183433266Y-68842353D01*
X183594418Y-68725269D01*
X183735269Y-68584418D01*
X183852353Y-68423266D01*
X183942785Y-68245783D01*
X183955140Y-68207758D01*
X184004338Y-68056343D01*
X184004338Y-68056342D01*
X184004339Y-68056339D01*
X184035500Y-67859597D01*
X184035500Y-67660403D01*
X184004339Y-67463661D01*
X184004338Y-67463657D01*
X184004338Y-67463656D01*
X183942786Y-67274219D01*
X183888180Y-67167049D01*
X183852353Y-67096734D01*
X183735269Y-66935582D01*
X183594418Y-66794731D01*
X183433266Y-66677647D01*
X183281827Y-66600485D01*
X183231031Y-66552510D01*
X183214236Y-66484689D01*
X183236773Y-66418554D01*
X183281827Y-66379515D01*
X183301453Y-66369515D01*
X183433266Y-66302353D01*
X183594418Y-66185269D01*
X183735269Y-66044418D01*
X183852353Y-65883266D01*
X183942785Y-65705783D01*
X183955060Y-65668004D01*
X184004338Y-65516343D01*
X184004338Y-65516342D01*
X184004339Y-65516339D01*
X184035500Y-65319597D01*
X184035500Y-65120403D01*
X184004339Y-64923661D01*
X184004338Y-64923657D01*
X184004338Y-64923656D01*
X183942786Y-64734219D01*
X183852352Y-64556733D01*
X183735269Y-64395582D01*
X183594418Y-64254731D01*
X183433266Y-64137647D01*
X183281827Y-64060485D01*
X183231031Y-64012510D01*
X183214236Y-63944689D01*
X183236773Y-63878554D01*
X183281827Y-63839515D01*
X183301453Y-63829515D01*
X183433266Y-63762353D01*
X183594418Y-63645269D01*
X183735269Y-63504418D01*
X183852353Y-63343266D01*
X183942785Y-63165783D01*
X184004339Y-62976339D01*
X184035500Y-62779597D01*
X184035500Y-62580403D01*
X184004339Y-62383661D01*
X184004338Y-62383657D01*
X184004338Y-62383656D01*
X183942786Y-62194219D01*
X183852483Y-62016990D01*
X183852353Y-62016734D01*
X183735269Y-61855582D01*
X183594418Y-61714731D01*
X183433266Y-61597647D01*
X183413636Y-61587645D01*
X183281827Y-61520485D01*
X183231031Y-61472510D01*
X183214236Y-61404689D01*
X183236773Y-61338554D01*
X183281827Y-61299515D01*
X183302004Y-61289234D01*
X183433266Y-61222353D01*
X183594418Y-61105269D01*
X183735269Y-60964418D01*
X183852353Y-60803266D01*
X183942785Y-60625783D01*
X183954255Y-60590481D01*
X184004338Y-60436343D01*
X184004338Y-60436342D01*
X184004339Y-60436339D01*
X184035500Y-60239597D01*
X184035500Y-60040403D01*
X184004339Y-59843661D01*
X184004338Y-59843657D01*
X184004338Y-59843656D01*
X183942786Y-59654219D01*
X183942785Y-59654217D01*
X183852353Y-59476734D01*
X183735269Y-59315582D01*
X183594418Y-59174731D01*
X183433266Y-59057647D01*
X183281827Y-58980485D01*
X183231031Y-58932510D01*
X183214236Y-58864689D01*
X183236773Y-58798554D01*
X183281827Y-58759515D01*
X183301453Y-58749515D01*
X183433266Y-58682353D01*
X183594418Y-58565269D01*
X183735269Y-58424418D01*
X183852353Y-58263266D01*
X183942785Y-58085783D01*
X183955140Y-58047758D01*
X184004338Y-57896343D01*
X184004338Y-57896342D01*
X184004339Y-57896339D01*
X184035500Y-57699597D01*
X184035500Y-57500403D01*
X184004339Y-57303661D01*
X184004338Y-57303657D01*
X184004338Y-57303656D01*
X183942786Y-57114219D01*
X183869048Y-56969500D01*
X183852353Y-56936734D01*
X183735269Y-56775582D01*
X183594418Y-56634731D01*
X183433266Y-56517647D01*
X183281827Y-56440485D01*
X183231031Y-56392510D01*
X183214236Y-56324689D01*
X183236773Y-56258554D01*
X183281827Y-56219515D01*
X183301453Y-56209515D01*
X183433266Y-56142353D01*
X183594418Y-56025269D01*
X183735269Y-55884418D01*
X183852353Y-55723266D01*
X183942785Y-55545783D01*
X183955060Y-55508004D01*
X184004338Y-55356343D01*
X184004338Y-55356342D01*
X184004339Y-55356339D01*
X184035500Y-55159597D01*
X184035500Y-54960403D01*
X184004339Y-54763661D01*
X184004338Y-54763657D01*
X184004338Y-54763656D01*
X183942786Y-54574219D01*
X183912143Y-54514079D01*
X183852353Y-54396734D01*
X183735269Y-54235582D01*
X183594418Y-54094731D01*
X183433266Y-53977647D01*
X183281827Y-53900485D01*
X183231031Y-53852510D01*
X183214236Y-53784689D01*
X183236773Y-53718554D01*
X183281827Y-53679515D01*
X183320761Y-53659677D01*
X183433266Y-53602353D01*
X183594418Y-53485269D01*
X183735269Y-53344418D01*
X183852353Y-53183266D01*
X183942785Y-53005783D01*
X184004339Y-52816339D01*
X184035500Y-52619597D01*
X184035500Y-52420403D01*
X184004339Y-52223661D01*
X184004338Y-52223657D01*
X184004338Y-52223656D01*
X183942786Y-52034219D01*
X183901777Y-51953734D01*
X183852353Y-51856734D01*
X183735269Y-51695582D01*
X183594418Y-51554731D01*
X183433266Y-51437647D01*
X183334753Y-51387452D01*
X183255780Y-51347213D01*
X183066342Y-51285661D01*
X182918782Y-51262290D01*
X182869597Y-51254500D01*
X182670403Y-51254500D01*
X182604822Y-51264887D01*
X182473659Y-51285661D01*
X182473656Y-51285661D01*
X182284219Y-51347213D01*
X182106733Y-51437647D01*
X182017246Y-51502664D01*
X181945582Y-51554731D01*
X181945580Y-51554733D01*
X181945579Y-51554733D01*
X181804733Y-51695579D01*
X181804733Y-51695580D01*
X181804731Y-51695582D01*
X181751026Y-51769501D01*
X181719817Y-51812456D01*
X181664487Y-51855121D01*
X181594873Y-51861100D01*
X181533078Y-51828494D01*
X181498721Y-51767655D01*
X181495499Y-51739570D01*
X181495499Y-51707129D01*
X181495498Y-51707123D01*
X181495497Y-51707116D01*
X181489091Y-51647517D01*
X181485361Y-51637517D01*
X181438797Y-51512671D01*
X181438793Y-51512664D01*
X181352547Y-51397455D01*
X181352544Y-51397452D01*
X181237335Y-51311206D01*
X181237328Y-51311202D01*
X181102482Y-51260908D01*
X181102483Y-51260908D01*
X181042883Y-51254501D01*
X181042881Y-51254500D01*
X181042873Y-51254500D01*
X181042864Y-51254500D01*
X179417129Y-51254500D01*
X179417123Y-51254501D01*
X179357516Y-51260908D01*
X179222671Y-51311202D01*
X179222664Y-51311206D01*
X179107455Y-51397452D01*
X179107452Y-51397455D01*
X179021206Y-51512664D01*
X179021202Y-51512671D01*
X178970908Y-51647517D01*
X178965575Y-51697127D01*
X178964501Y-51707123D01*
X178964500Y-51707135D01*
X166200500Y-51707135D01*
X166200500Y-49506092D01*
X166201097Y-49493939D01*
X166209805Y-49405519D01*
X166214665Y-49356171D01*
X166219403Y-49332349D01*
X166257816Y-49205719D01*
X166267113Y-49183278D01*
X166329485Y-49066587D01*
X166342982Y-49046387D01*
X166426924Y-48944103D01*
X166444103Y-48926924D01*
X166546387Y-48842982D01*
X166566587Y-48829485D01*
X166683278Y-48767113D01*
X166705719Y-48757816D01*
X166832349Y-48719403D01*
X166856173Y-48714665D01*
X166985170Y-48701960D01*
X166993939Y-48701097D01*
X167006092Y-48700500D01*
X167039882Y-48700500D01*
X184960118Y-48700500D01*
X184993908Y-48700500D01*
X185006061Y-48701097D01*
X185016051Y-48702080D01*
X185143824Y-48714665D01*
X185167652Y-48719404D01*
X185294277Y-48757815D01*
X185316725Y-48767114D01*
X185433406Y-48829482D01*
X185453616Y-48842986D01*
X185555891Y-48926920D01*
X185573079Y-48944108D01*
X185657012Y-49046381D01*
X185670517Y-49066593D01*
X185732883Y-49183271D01*
X185742186Y-49205728D01*
X185780593Y-49332338D01*
X185785335Y-49356180D01*
X185798903Y-49493938D01*
X185799500Y-49506092D01*
X185799500Y-111995933D01*
X185799235Y-112004043D01*
X185784636Y-112226778D01*
X185782518Y-112242859D01*
X185739769Y-112457771D01*
X185735571Y-112473438D01*
X185665133Y-112680942D01*
X185658926Y-112695928D01*
X185562007Y-112892460D01*
X185553897Y-112906507D01*
X185432154Y-113088708D01*
X185422280Y-113101576D01*
X185277797Y-113266328D01*
X185266328Y-113277797D01*
X185101576Y-113422280D01*
X185088708Y-113432154D01*
X184906507Y-113553897D01*
X184892460Y-113562007D01*
X184695928Y-113658926D01*
X184680942Y-113665133D01*
X184473438Y-113735571D01*
X184457771Y-113739769D01*
X184242859Y-113782518D01*
X184226778Y-113784636D01*
X184004043Y-113799235D01*
X183995933Y-113799500D01*
X178434000Y-113799500D01*
X178366961Y-113779815D01*
X178321206Y-113727011D01*
X178310000Y-113675500D01*
X178310000Y-76440000D01*
X123710000Y-76440000D01*
X123710000Y-78465385D01*
X123708738Y-78483031D01*
X123694500Y-78582061D01*
X123694500Y-113675500D01*
X123674815Y-113742539D01*
X123622011Y-113788294D01*
X123570500Y-113799500D01*
X118004067Y-113799500D01*
X117995957Y-113799235D01*
X117773221Y-113784636D01*
X117757140Y-113782518D01*
X117542228Y-113739769D01*
X117526561Y-113735571D01*
X117319057Y-113665133D01*
X117304071Y-113658926D01*
X117107539Y-113562007D01*
X117093492Y-113553897D01*
X116911291Y-113432154D01*
X116898423Y-113422280D01*
X116733671Y-113277797D01*
X116722202Y-113266328D01*
X116669730Y-113206495D01*
X116577716Y-113101573D01*
X116567845Y-113088708D01*
X116557470Y-113073181D01*
X116446102Y-112906507D01*
X116437992Y-112892460D01*
X116435196Y-112886791D01*
X116341070Y-112695921D01*
X116334866Y-112680942D01*
X116264428Y-112473438D01*
X116260230Y-112457771D01*
X116247931Y-112395938D01*
X116217479Y-112242848D01*
X116215364Y-112226790D01*
X116200765Y-112004043D01*
X116200500Y-111995933D01*
X116200500Y-51697135D01*
X117964500Y-51697135D01*
X117964500Y-53322870D01*
X117964501Y-53322876D01*
X117970908Y-53382483D01*
X118021202Y-53517328D01*
X118021206Y-53517335D01*
X118107452Y-53632544D01*
X118107455Y-53632547D01*
X118222664Y-53718793D01*
X118222671Y-53718797D01*
X118357517Y-53769091D01*
X118357516Y-53769091D01*
X118364444Y-53769835D01*
X118417127Y-53775500D01*
X118449568Y-53775499D01*
X118516605Y-53795182D01*
X118562361Y-53847984D01*
X118572306Y-53917143D01*
X118543283Y-53980699D01*
X118522455Y-53999816D01*
X118405582Y-54084730D01*
X118264733Y-54225579D01*
X118264733Y-54225580D01*
X118264731Y-54225582D01*
X118257468Y-54235579D01*
X118147647Y-54386733D01*
X118057213Y-54564219D01*
X117995661Y-54753656D01*
X117995661Y-54753659D01*
X117964500Y-54950403D01*
X117964500Y-55149596D01*
X117995661Y-55346340D01*
X117995661Y-55346343D01*
X118057213Y-55535780D01*
X118070485Y-55561827D01*
X118147647Y-55713266D01*
X118264731Y-55874418D01*
X118405582Y-56015269D01*
X118566734Y-56132353D01*
X118636453Y-56167877D01*
X118718172Y-56209515D01*
X118768968Y-56257490D01*
X118785763Y-56325311D01*
X118763225Y-56391446D01*
X118718172Y-56430485D01*
X118566733Y-56507647D01*
X118474790Y-56574447D01*
X118405582Y-56624731D01*
X118405580Y-56624733D01*
X118405579Y-56624733D01*
X118264733Y-56765579D01*
X118264733Y-56765580D01*
X118264731Y-56765582D01*
X118257468Y-56775579D01*
X118147647Y-56926733D01*
X118057213Y-57104219D01*
X117995661Y-57293656D01*
X117995661Y-57293659D01*
X117964500Y-57490403D01*
X117964500Y-57689596D01*
X117995661Y-57886340D01*
X117995661Y-57886343D01*
X118057213Y-58075780D01*
X118062310Y-58085783D01*
X118147647Y-58253266D01*
X118264731Y-58414418D01*
X118405582Y-58555269D01*
X118566734Y-58672353D01*
X118636453Y-58707877D01*
X118718172Y-58749515D01*
X118768968Y-58797490D01*
X118785763Y-58865311D01*
X118763225Y-58931446D01*
X118718172Y-58970485D01*
X118566733Y-59047647D01*
X118528286Y-59075581D01*
X118405582Y-59164731D01*
X118405580Y-59164733D01*
X118405579Y-59164733D01*
X118264733Y-59305579D01*
X118264733Y-59305580D01*
X118264731Y-59305582D01*
X118257468Y-59315579D01*
X118147647Y-59466733D01*
X118057213Y-59644219D01*
X117995661Y-59833656D01*
X117995661Y-59833659D01*
X117964500Y-60030403D01*
X117964500Y-60229596D01*
X117995661Y-60426340D01*
X117995661Y-60426343D01*
X118057213Y-60615780D01*
X118075580Y-60651827D01*
X118147647Y-60793266D01*
X118264731Y-60954418D01*
X118405582Y-61095269D01*
X118566734Y-61212353D01*
X118636453Y-61247877D01*
X118718172Y-61289515D01*
X118768968Y-61337490D01*
X118785763Y-61405311D01*
X118763225Y-61471446D01*
X118718172Y-61510485D01*
X118566733Y-61587647D01*
X118514522Y-61625581D01*
X118405582Y-61704731D01*
X118405580Y-61704733D01*
X118405579Y-61704733D01*
X118264733Y-61845579D01*
X118264733Y-61845580D01*
X118264731Y-61845582D01*
X118257468Y-61855579D01*
X118147647Y-62006733D01*
X118057213Y-62184219D01*
X117995661Y-62373656D01*
X117995661Y-62373659D01*
X117978320Y-62483147D01*
X117964500Y-62570403D01*
X117964500Y-62769597D01*
X117966084Y-62779596D01*
X117995661Y-62966340D01*
X117995661Y-62966343D01*
X118057213Y-63155780D01*
X118062310Y-63165783D01*
X118147647Y-63333266D01*
X118264731Y-63494418D01*
X118405582Y-63635269D01*
X118566734Y-63752353D01*
X118636453Y-63787877D01*
X118718172Y-63829515D01*
X118768968Y-63877490D01*
X118785763Y-63945311D01*
X118763225Y-64011446D01*
X118718172Y-64050485D01*
X118566733Y-64127647D01*
X118474790Y-64194447D01*
X118405582Y-64244731D01*
X118405580Y-64244733D01*
X118405579Y-64244733D01*
X118264733Y-64385579D01*
X118264733Y-64385580D01*
X118264731Y-64385582D01*
X118257468Y-64395579D01*
X118147647Y-64546733D01*
X118057213Y-64724219D01*
X117995661Y-64913656D01*
X117995661Y-64913659D01*
X117964500Y-65110403D01*
X117964500Y-65309596D01*
X117995661Y-65506340D01*
X117995661Y-65506343D01*
X118057213Y-65695780D01*
X118070485Y-65721827D01*
X118147647Y-65873266D01*
X118264731Y-66034418D01*
X118405582Y-66175269D01*
X118566734Y-66292353D01*
X118636453Y-66327877D01*
X118718172Y-66369515D01*
X118768968Y-66417490D01*
X118785763Y-66485311D01*
X118763225Y-66551446D01*
X118718172Y-66590485D01*
X118566733Y-66667647D01*
X118474790Y-66734447D01*
X118405582Y-66784731D01*
X118405580Y-66784733D01*
X118405579Y-66784733D01*
X118264733Y-66925579D01*
X118264733Y-66925580D01*
X118264731Y-66925582D01*
X118257468Y-66935579D01*
X118147647Y-67086733D01*
X118057213Y-67264219D01*
X117995661Y-67453656D01*
X117995661Y-67453659D01*
X117964500Y-67650403D01*
X117964500Y-67849596D01*
X117995661Y-68046340D01*
X117995661Y-68046343D01*
X118057213Y-68235780D01*
X118118208Y-68355488D01*
X118147647Y-68413266D01*
X118264731Y-68574418D01*
X118405582Y-68715269D01*
X118566734Y-68832353D01*
X118636453Y-68867877D01*
X118718172Y-68909515D01*
X118768968Y-68957490D01*
X118785763Y-69025311D01*
X118763225Y-69091446D01*
X118718172Y-69130485D01*
X118566733Y-69207647D01*
X118474790Y-69274447D01*
X118405582Y-69324731D01*
X118405580Y-69324733D01*
X118405579Y-69324733D01*
X118264733Y-69465579D01*
X118264733Y-69465580D01*
X118264731Y-69465582D01*
X118257468Y-69475579D01*
X118147647Y-69626733D01*
X118057213Y-69804219D01*
X117995661Y-69993656D01*
X117995661Y-69993659D01*
X117964500Y-70190403D01*
X117964500Y-70389596D01*
X117995661Y-70586340D01*
X117995661Y-70586343D01*
X118057213Y-70775780D01*
X118070485Y-70801827D01*
X118147647Y-70953266D01*
X118264731Y-71114418D01*
X118405582Y-71255269D01*
X118566734Y-71372353D01*
X118636453Y-71407877D01*
X118718172Y-71449515D01*
X118768968Y-71497490D01*
X118785763Y-71565311D01*
X118763225Y-71631446D01*
X118718172Y-71670485D01*
X118566733Y-71747647D01*
X118474790Y-71814447D01*
X118405582Y-71864731D01*
X118405580Y-71864733D01*
X118405579Y-71864733D01*
X118264733Y-72005579D01*
X118264733Y-72005580D01*
X118264731Y-72005582D01*
X118257468Y-72015579D01*
X118147647Y-72166733D01*
X118057213Y-72344219D01*
X117995661Y-72533656D01*
X117995661Y-72533659D01*
X117964500Y-72730403D01*
X117964500Y-72929596D01*
X117995661Y-73126340D01*
X117995661Y-73126343D01*
X118057213Y-73315780D01*
X118062310Y-73325783D01*
X118147647Y-73493266D01*
X118264731Y-73654418D01*
X118405582Y-73795269D01*
X118566734Y-73912353D01*
X118656909Y-73958299D01*
X118718722Y-73989795D01*
X118769518Y-74037770D01*
X118786313Y-74105591D01*
X118763776Y-74171726D01*
X118718723Y-74210764D01*
X118566993Y-74288075D01*
X118529135Y-74315580D01*
X118529135Y-74315581D01*
X119092425Y-74878871D01*
X119033147Y-74894755D01*
X118916853Y-74961898D01*
X118821898Y-75056853D01*
X118754755Y-75173147D01*
X118738871Y-75232425D01*
X118175581Y-74669135D01*
X118175580Y-74669135D01*
X118148077Y-74706990D01*
X118057679Y-74884405D01*
X117996147Y-75073777D01*
X117965000Y-75270436D01*
X117965000Y-75469563D01*
X117996147Y-75666222D01*
X118057679Y-75855594D01*
X118148077Y-76033008D01*
X118175580Y-76070863D01*
X118175581Y-76070864D01*
X118738871Y-75507574D01*
X118754755Y-75566853D01*
X118821898Y-75683147D01*
X118916853Y-75778102D01*
X119033147Y-75845245D01*
X119092425Y-75861128D01*
X118529134Y-76424417D01*
X118566994Y-76451924D01*
X118718722Y-76529234D01*
X118769518Y-76577209D01*
X118786313Y-76645030D01*
X118763776Y-76711165D01*
X118718723Y-76750203D01*
X118566735Y-76827645D01*
X118453997Y-76909555D01*
X118405582Y-76944731D01*
X118405580Y-76944733D01*
X118405579Y-76944733D01*
X118264733Y-77085579D01*
X118264733Y-77085580D01*
X118264731Y-77085582D01*
X118257468Y-77095579D01*
X118147647Y-77246733D01*
X118057213Y-77424219D01*
X117995661Y-77613656D01*
X117995661Y-77613659D01*
X117964500Y-77810403D01*
X117964500Y-78009596D01*
X117995661Y-78206340D01*
X117995661Y-78206343D01*
X118057213Y-78395780D01*
X118070916Y-78422673D01*
X118147647Y-78573266D01*
X118264731Y-78734418D01*
X118405582Y-78875269D01*
X118566734Y-78992353D01*
X118636453Y-79027877D01*
X118718172Y-79069515D01*
X118768968Y-79117490D01*
X118785763Y-79185311D01*
X118763225Y-79251446D01*
X118718172Y-79290485D01*
X118566733Y-79367647D01*
X118474790Y-79434447D01*
X118405582Y-79484731D01*
X118405580Y-79484733D01*
X118405579Y-79484733D01*
X118264733Y-79625579D01*
X118264733Y-79625580D01*
X118264731Y-79625582D01*
X118257468Y-79635579D01*
X118147647Y-79786733D01*
X118057213Y-79964219D01*
X117995661Y-80153656D01*
X117995661Y-80153659D01*
X117964500Y-80350403D01*
X117964500Y-80549596D01*
X117995661Y-80746340D01*
X117995661Y-80746343D01*
X118057213Y-80935780D01*
X118062310Y-80945783D01*
X118147647Y-81113266D01*
X118264731Y-81274418D01*
X118405582Y-81415269D01*
X118566734Y-81532353D01*
X118636453Y-81567877D01*
X118718172Y-81609515D01*
X118768968Y-81657490D01*
X118785763Y-81725311D01*
X118763225Y-81791446D01*
X118718172Y-81830485D01*
X118566733Y-81907647D01*
X118474790Y-81974447D01*
X118405582Y-82024731D01*
X118405580Y-82024733D01*
X118405579Y-82024733D01*
X118264733Y-82165579D01*
X118264733Y-82165580D01*
X118264731Y-82165582D01*
X118257468Y-82175579D01*
X118147647Y-82326733D01*
X118057213Y-82504219D01*
X117995661Y-82693656D01*
X117995661Y-82693659D01*
X117964500Y-82890403D01*
X117964500Y-83089596D01*
X117995661Y-83286340D01*
X117995661Y-83286343D01*
X118057213Y-83475780D01*
X118070485Y-83501827D01*
X118147647Y-83653266D01*
X118264731Y-83814418D01*
X118405582Y-83955269D01*
X118566734Y-84072353D01*
X118636453Y-84107877D01*
X118718172Y-84149515D01*
X118768968Y-84197490D01*
X118785763Y-84265311D01*
X118763225Y-84331446D01*
X118718172Y-84370485D01*
X118566733Y-84447647D01*
X118474790Y-84514447D01*
X118405582Y-84564731D01*
X118405580Y-84564733D01*
X118405579Y-84564733D01*
X118264733Y-84705579D01*
X118264733Y-84705580D01*
X118264731Y-84705582D01*
X118257468Y-84715579D01*
X118147647Y-84866733D01*
X118057213Y-85044219D01*
X117995661Y-85233656D01*
X117995661Y-85233659D01*
X117964500Y-85430403D01*
X117964500Y-85629596D01*
X117995661Y-85826340D01*
X117995661Y-85826343D01*
X118057213Y-86015780D01*
X118062310Y-86025783D01*
X118147647Y-86193266D01*
X118264731Y-86354418D01*
X118405582Y-86495269D01*
X118566734Y-86612353D01*
X118636453Y-86647877D01*
X118718172Y-86689515D01*
X118768968Y-86737490D01*
X118785763Y-86805311D01*
X118763225Y-86871446D01*
X118718172Y-86910485D01*
X118566733Y-86987647D01*
X118474790Y-87054447D01*
X118405582Y-87104731D01*
X118405580Y-87104733D01*
X118405579Y-87104733D01*
X118264733Y-87245579D01*
X118264733Y-87245580D01*
X118264731Y-87245582D01*
X118257468Y-87255579D01*
X118147647Y-87406733D01*
X118057213Y-87584219D01*
X117995661Y-87773656D01*
X117995661Y-87773659D01*
X117964500Y-87970403D01*
X117964500Y-88169596D01*
X117995661Y-88366340D01*
X117995661Y-88366343D01*
X118057213Y-88555780D01*
X118070485Y-88581827D01*
X118147647Y-88733266D01*
X118264731Y-88894418D01*
X118405582Y-89035269D01*
X118566734Y-89152353D01*
X118636453Y-89187877D01*
X118718172Y-89229515D01*
X118768968Y-89277490D01*
X118785763Y-89345311D01*
X118763225Y-89411446D01*
X118718172Y-89450485D01*
X118566733Y-89527647D01*
X118474790Y-89594447D01*
X118405582Y-89644731D01*
X118405580Y-89644733D01*
X118405579Y-89644733D01*
X118264733Y-89785579D01*
X118264733Y-89785580D01*
X118264731Y-89785582D01*
X118257468Y-89795579D01*
X118147647Y-89946733D01*
X118057213Y-90124219D01*
X117995661Y-90313656D01*
X117995661Y-90313659D01*
X117964500Y-90510403D01*
X117964500Y-90709596D01*
X117995661Y-90906340D01*
X117995661Y-90906343D01*
X118057213Y-91095780D01*
X118062310Y-91105783D01*
X118147647Y-91273266D01*
X118264731Y-91434418D01*
X118405582Y-91575269D01*
X118566734Y-91692353D01*
X118636453Y-91727877D01*
X118718172Y-91769515D01*
X118768968Y-91817490D01*
X118785763Y-91885311D01*
X118763225Y-91951446D01*
X118718172Y-91990485D01*
X118566733Y-92067647D01*
X118474790Y-92134447D01*
X118405582Y-92184731D01*
X118405580Y-92184733D01*
X118405579Y-92184733D01*
X118264733Y-92325579D01*
X118264733Y-92325580D01*
X118264731Y-92325582D01*
X118257468Y-92335579D01*
X118147647Y-92486733D01*
X118057213Y-92664219D01*
X117995661Y-92853656D01*
X117995661Y-92853659D01*
X117964500Y-93050403D01*
X117964500Y-93249596D01*
X117995661Y-93446340D01*
X117995661Y-93446343D01*
X118057213Y-93635780D01*
X118070485Y-93661827D01*
X118147647Y-93813266D01*
X118264731Y-93974418D01*
X118405582Y-94115269D01*
X118566734Y-94232353D01*
X118636453Y-94267877D01*
X118718172Y-94309515D01*
X118768968Y-94357490D01*
X118785763Y-94425311D01*
X118763225Y-94491446D01*
X118718172Y-94530485D01*
X118566733Y-94607647D01*
X118474790Y-94674447D01*
X118405582Y-94724731D01*
X118405580Y-94724733D01*
X118405579Y-94724733D01*
X118264733Y-94865579D01*
X118264733Y-94865580D01*
X118264731Y-94865582D01*
X118257468Y-94875579D01*
X118147647Y-95026733D01*
X118057213Y-95204219D01*
X117995661Y-95393656D01*
X117995661Y-95393659D01*
X117964500Y-95590403D01*
X117964500Y-95789596D01*
X117995661Y-95986340D01*
X117995661Y-95986343D01*
X118057213Y-96175780D01*
X118062310Y-96185783D01*
X118147647Y-96353266D01*
X118264731Y-96514418D01*
X118405582Y-96655269D01*
X118566734Y-96772353D01*
X118636453Y-96807877D01*
X118718172Y-96849515D01*
X118768968Y-96897490D01*
X118785763Y-96965311D01*
X118763225Y-97031446D01*
X118718172Y-97070485D01*
X118566733Y-97147647D01*
X118474790Y-97214447D01*
X118405582Y-97264731D01*
X118405580Y-97264733D01*
X118405579Y-97264733D01*
X118264733Y-97405579D01*
X118264733Y-97405580D01*
X118264731Y-97405582D01*
X118257468Y-97415579D01*
X118147647Y-97566733D01*
X118057213Y-97744219D01*
X117995661Y-97933656D01*
X117995661Y-97933659D01*
X117964500Y-98130403D01*
X117964500Y-98329596D01*
X117995661Y-98526340D01*
X117995661Y-98526343D01*
X118057213Y-98715780D01*
X118070485Y-98741827D01*
X118147647Y-98893266D01*
X118264731Y-99054418D01*
X118405582Y-99195269D01*
X118566734Y-99312353D01*
X118636453Y-99347877D01*
X118718172Y-99389515D01*
X118768968Y-99437490D01*
X118785763Y-99505311D01*
X118763225Y-99571446D01*
X118718172Y-99610485D01*
X118566733Y-99687647D01*
X118474790Y-99754447D01*
X118405582Y-99804731D01*
X118405580Y-99804733D01*
X118405579Y-99804733D01*
X118264733Y-99945579D01*
X118264733Y-99945580D01*
X118264731Y-99945582D01*
X118257468Y-99955579D01*
X118147647Y-100106733D01*
X118057213Y-100284219D01*
X117995661Y-100473656D01*
X117995661Y-100473659D01*
X117964500Y-100670403D01*
X117964500Y-100869596D01*
X117995661Y-101066340D01*
X117995661Y-101066343D01*
X118057213Y-101255780D01*
X118062310Y-101265783D01*
X118147647Y-101433266D01*
X118264731Y-101594418D01*
X118405582Y-101735269D01*
X118566734Y-101852353D01*
X118636453Y-101887877D01*
X118718172Y-101929515D01*
X118768968Y-101977490D01*
X118785763Y-102045311D01*
X118763225Y-102111446D01*
X118718172Y-102150485D01*
X118566733Y-102227647D01*
X118474790Y-102294447D01*
X118405582Y-102344731D01*
X118405580Y-102344733D01*
X118405579Y-102344733D01*
X118264733Y-102485579D01*
X118264733Y-102485580D01*
X118264731Y-102485582D01*
X118257468Y-102495579D01*
X118147647Y-102646733D01*
X118057213Y-102824219D01*
X117995661Y-103013656D01*
X117995661Y-103013659D01*
X117964500Y-103210403D01*
X117964500Y-103409596D01*
X117995661Y-103606340D01*
X117995661Y-103606343D01*
X118057213Y-103795780D01*
X118070485Y-103821827D01*
X118147647Y-103973266D01*
X118264731Y-104134418D01*
X118405582Y-104275269D01*
X118566734Y-104392353D01*
X118636453Y-104427877D01*
X118718172Y-104469515D01*
X118768968Y-104517490D01*
X118785763Y-104585311D01*
X118763225Y-104651446D01*
X118718172Y-104690485D01*
X118566733Y-104767647D01*
X118474790Y-104834447D01*
X118405582Y-104884731D01*
X118405580Y-104884733D01*
X118405579Y-104884733D01*
X118264733Y-105025579D01*
X118264733Y-105025580D01*
X118264731Y-105025582D01*
X118257468Y-105035579D01*
X118147647Y-105186733D01*
X118057213Y-105364219D01*
X117995661Y-105553656D01*
X117995661Y-105553659D01*
X117964500Y-105750403D01*
X117964500Y-105949596D01*
X117995661Y-106146340D01*
X117995661Y-106146343D01*
X118057213Y-106335780D01*
X118062310Y-106345783D01*
X118147647Y-106513266D01*
X118264731Y-106674418D01*
X118405582Y-106815269D01*
X118566734Y-106932353D01*
X118636453Y-106967877D01*
X118718172Y-107009515D01*
X118768968Y-107057490D01*
X118785763Y-107125311D01*
X118763225Y-107191446D01*
X118718172Y-107230485D01*
X118566733Y-107307647D01*
X118474790Y-107374447D01*
X118405582Y-107424731D01*
X118405580Y-107424733D01*
X118405579Y-107424733D01*
X118264733Y-107565579D01*
X118264733Y-107565580D01*
X118264731Y-107565582D01*
X118257468Y-107575579D01*
X118147647Y-107726733D01*
X118057213Y-107904219D01*
X117995661Y-108093656D01*
X117995661Y-108093659D01*
X117964500Y-108290403D01*
X117964500Y-108489596D01*
X117995661Y-108686340D01*
X117995661Y-108686343D01*
X118057213Y-108875780D01*
X118062310Y-108885783D01*
X118147647Y-109053266D01*
X118264731Y-109214418D01*
X118405582Y-109355269D01*
X118566734Y-109472353D01*
X118744217Y-109562785D01*
X118744219Y-109562786D01*
X118933657Y-109624338D01*
X118933658Y-109624338D01*
X118933661Y-109624339D01*
X119130403Y-109655500D01*
X119130404Y-109655500D01*
X119329596Y-109655500D01*
X119329597Y-109655500D01*
X119526339Y-109624339D01*
X119526342Y-109624338D01*
X119526343Y-109624338D01*
X119715780Y-109562786D01*
X119715780Y-109562785D01*
X119715783Y-109562785D01*
X119893266Y-109472353D01*
X120054418Y-109355269D01*
X120195269Y-109214418D01*
X120312353Y-109053266D01*
X120389515Y-108901827D01*
X120437490Y-108851031D01*
X120505311Y-108834236D01*
X120571446Y-108856773D01*
X120610485Y-108901827D01*
X120687647Y-109053266D01*
X120804731Y-109214418D01*
X120945582Y-109355269D01*
X121106734Y-109472353D01*
X121284217Y-109562785D01*
X121284219Y-109562786D01*
X121473657Y-109624338D01*
X121473658Y-109624338D01*
X121473661Y-109624339D01*
X121670403Y-109655500D01*
X121670404Y-109655500D01*
X121869596Y-109655500D01*
X121869597Y-109655500D01*
X122066339Y-109624339D01*
X122066342Y-109624338D01*
X122066343Y-109624338D01*
X122255780Y-109562786D01*
X122255780Y-109562785D01*
X122255783Y-109562785D01*
X122433266Y-109472353D01*
X122594418Y-109355269D01*
X122735269Y-109214418D01*
X122852353Y-109053266D01*
X122942785Y-108875783D01*
X122953035Y-108844236D01*
X123004338Y-108686343D01*
X123004338Y-108686342D01*
X123004339Y-108686339D01*
X123035500Y-108489597D01*
X123035500Y-108290403D01*
X123004339Y-108093661D01*
X123004338Y-108093657D01*
X123004338Y-108093656D01*
X122942786Y-107904219D01*
X122857448Y-107736734D01*
X122852353Y-107726734D01*
X122735269Y-107565582D01*
X122594418Y-107424731D01*
X122433266Y-107307647D01*
X122281827Y-107230485D01*
X122231031Y-107182510D01*
X122214236Y-107114689D01*
X122236773Y-107048554D01*
X122281827Y-107009515D01*
X122291116Y-107004781D01*
X122433266Y-106932353D01*
X122594418Y-106815269D01*
X122735269Y-106674418D01*
X122852353Y-106513266D01*
X122942785Y-106335783D01*
X122953035Y-106304236D01*
X123004338Y-106146343D01*
X123004338Y-106146342D01*
X123004339Y-106146339D01*
X123035500Y-105949597D01*
X123035500Y-105750403D01*
X123004339Y-105553661D01*
X123004338Y-105553657D01*
X123004338Y-105553656D01*
X122942786Y-105364219D01*
X122857448Y-105196734D01*
X122852353Y-105186734D01*
X122735269Y-105025582D01*
X122594418Y-104884731D01*
X122433266Y-104767647D01*
X122281827Y-104690485D01*
X122231031Y-104642510D01*
X122214236Y-104574689D01*
X122236773Y-104508554D01*
X122281827Y-104469515D01*
X122291116Y-104464781D01*
X122433266Y-104392353D01*
X122594418Y-104275269D01*
X122735269Y-104134418D01*
X122852353Y-103973266D01*
X122942785Y-103795783D01*
X122955140Y-103757758D01*
X123004338Y-103606343D01*
X123004338Y-103606342D01*
X123004339Y-103606339D01*
X123035500Y-103409597D01*
X123035500Y-103210403D01*
X123004339Y-103013661D01*
X123004338Y-103013657D01*
X123004338Y-103013656D01*
X122942786Y-102824219D01*
X122857448Y-102656734D01*
X122852353Y-102646734D01*
X122735269Y-102485582D01*
X122594418Y-102344731D01*
X122433266Y-102227647D01*
X122281827Y-102150485D01*
X122231031Y-102102510D01*
X122214236Y-102034689D01*
X122236773Y-101968554D01*
X122281827Y-101929515D01*
X122291116Y-101924781D01*
X122433266Y-101852353D01*
X122594418Y-101735269D01*
X122735269Y-101594418D01*
X122852353Y-101433266D01*
X122942785Y-101255783D01*
X122953035Y-101224236D01*
X123004338Y-101066343D01*
X123004338Y-101066342D01*
X123004339Y-101066339D01*
X123035500Y-100869597D01*
X123035500Y-100670403D01*
X123004339Y-100473661D01*
X123004338Y-100473657D01*
X123004338Y-100473656D01*
X122942786Y-100284219D01*
X122857448Y-100116734D01*
X122852353Y-100106734D01*
X122735269Y-99945582D01*
X122594418Y-99804731D01*
X122433266Y-99687647D01*
X122281827Y-99610485D01*
X122231031Y-99562510D01*
X122214236Y-99494689D01*
X122236773Y-99428554D01*
X122281827Y-99389515D01*
X122291116Y-99384781D01*
X122433266Y-99312353D01*
X122594418Y-99195269D01*
X122735269Y-99054418D01*
X122852353Y-98893266D01*
X122942785Y-98715783D01*
X122955140Y-98677758D01*
X123004338Y-98526343D01*
X123004338Y-98526342D01*
X123004339Y-98526339D01*
X123035500Y-98329597D01*
X123035500Y-98130403D01*
X123004339Y-97933661D01*
X123004338Y-97933657D01*
X123004338Y-97933656D01*
X122942786Y-97744219D01*
X122857448Y-97576734D01*
X122852353Y-97566734D01*
X122735269Y-97405582D01*
X122594418Y-97264731D01*
X122433266Y-97147647D01*
X122281827Y-97070485D01*
X122231031Y-97022510D01*
X122214236Y-96954689D01*
X122236773Y-96888554D01*
X122281827Y-96849515D01*
X122291116Y-96844781D01*
X122433266Y-96772353D01*
X122594418Y-96655269D01*
X122735269Y-96514418D01*
X122852353Y-96353266D01*
X122942785Y-96175783D01*
X122953035Y-96144236D01*
X123004338Y-95986343D01*
X123004338Y-95986342D01*
X123004339Y-95986339D01*
X123035500Y-95789597D01*
X123035500Y-95590403D01*
X123004339Y-95393661D01*
X123004338Y-95393657D01*
X123004338Y-95393656D01*
X122942786Y-95204219D01*
X122857448Y-95036734D01*
X122852353Y-95026734D01*
X122735269Y-94865582D01*
X122594418Y-94724731D01*
X122433266Y-94607647D01*
X122281827Y-94530485D01*
X122231031Y-94482510D01*
X122214236Y-94414689D01*
X122236773Y-94348554D01*
X122281827Y-94309515D01*
X122291116Y-94304781D01*
X122433266Y-94232353D01*
X122594418Y-94115269D01*
X122735269Y-93974418D01*
X122852353Y-93813266D01*
X122942785Y-93635783D01*
X122955140Y-93597758D01*
X123004338Y-93446343D01*
X123004338Y-93446342D01*
X123004339Y-93446339D01*
X123035500Y-93249597D01*
X123035500Y-93050403D01*
X123004339Y-92853661D01*
X123004338Y-92853657D01*
X123004338Y-92853656D01*
X122942786Y-92664219D01*
X122857448Y-92496734D01*
X122852353Y-92486734D01*
X122735269Y-92325582D01*
X122594418Y-92184731D01*
X122433266Y-92067647D01*
X122281827Y-91990485D01*
X122231031Y-91942510D01*
X122214236Y-91874689D01*
X122236773Y-91808554D01*
X122281827Y-91769515D01*
X122291116Y-91764781D01*
X122433266Y-91692353D01*
X122594418Y-91575269D01*
X122735269Y-91434418D01*
X122852353Y-91273266D01*
X122942785Y-91095783D01*
X122953035Y-91064236D01*
X123004338Y-90906343D01*
X123004338Y-90906342D01*
X123004339Y-90906339D01*
X123035500Y-90709597D01*
X123035500Y-90510403D01*
X123004339Y-90313661D01*
X123004338Y-90313657D01*
X123004338Y-90313656D01*
X122942786Y-90124219D01*
X122857448Y-89956734D01*
X122852353Y-89946734D01*
X122735269Y-89785582D01*
X122594418Y-89644731D01*
X122433266Y-89527647D01*
X122281827Y-89450485D01*
X122231031Y-89402510D01*
X122214236Y-89334689D01*
X122236773Y-89268554D01*
X122281827Y-89229515D01*
X122291116Y-89224781D01*
X122433266Y-89152353D01*
X122594418Y-89035269D01*
X122735269Y-88894418D01*
X122852353Y-88733266D01*
X122942785Y-88555783D01*
X122955140Y-88517758D01*
X123004338Y-88366343D01*
X123004338Y-88366342D01*
X123004339Y-88366339D01*
X123035500Y-88169597D01*
X123035500Y-87970403D01*
X123004339Y-87773661D01*
X123004338Y-87773657D01*
X123004338Y-87773656D01*
X122942786Y-87584219D01*
X122857448Y-87416734D01*
X122852353Y-87406734D01*
X122735269Y-87245582D01*
X122594418Y-87104731D01*
X122433266Y-86987647D01*
X122281827Y-86910485D01*
X122231031Y-86862510D01*
X122214236Y-86794689D01*
X122236773Y-86728554D01*
X122281827Y-86689515D01*
X122291116Y-86684781D01*
X122433266Y-86612353D01*
X122594418Y-86495269D01*
X122735269Y-86354418D01*
X122852353Y-86193266D01*
X122942785Y-86015783D01*
X122953035Y-85984236D01*
X123004338Y-85826343D01*
X123004338Y-85826342D01*
X123004339Y-85826339D01*
X123035500Y-85629597D01*
X123035500Y-85430403D01*
X123004339Y-85233661D01*
X123004338Y-85233657D01*
X123004338Y-85233656D01*
X122942786Y-85044219D01*
X122857448Y-84876734D01*
X122852353Y-84866734D01*
X122735269Y-84705582D01*
X122594418Y-84564731D01*
X122433266Y-84447647D01*
X122281827Y-84370485D01*
X122231031Y-84322510D01*
X122214236Y-84254689D01*
X122236773Y-84188554D01*
X122281827Y-84149515D01*
X122291116Y-84144781D01*
X122433266Y-84072353D01*
X122594418Y-83955269D01*
X122735269Y-83814418D01*
X122852353Y-83653266D01*
X122942785Y-83475783D01*
X122955140Y-83437758D01*
X123004338Y-83286343D01*
X123004338Y-83286342D01*
X123004339Y-83286339D01*
X123035500Y-83089597D01*
X123035500Y-82890403D01*
X123004339Y-82693661D01*
X123004338Y-82693657D01*
X123004338Y-82693656D01*
X122942786Y-82504219D01*
X122857448Y-82336734D01*
X122852353Y-82326734D01*
X122735269Y-82165582D01*
X122594418Y-82024731D01*
X122433266Y-81907647D01*
X122281827Y-81830485D01*
X122231031Y-81782510D01*
X122214236Y-81714689D01*
X122236773Y-81648554D01*
X122281827Y-81609515D01*
X122291116Y-81604781D01*
X122433266Y-81532353D01*
X122594418Y-81415269D01*
X122735269Y-81274418D01*
X122852353Y-81113266D01*
X122942785Y-80935783D01*
X122953035Y-80904236D01*
X123004338Y-80746343D01*
X123004338Y-80746342D01*
X123004339Y-80746339D01*
X123035500Y-80549597D01*
X123035500Y-80350403D01*
X123004339Y-80153661D01*
X123004338Y-80153657D01*
X123004338Y-80153656D01*
X122942786Y-79964219D01*
X122857448Y-79796734D01*
X122852353Y-79786734D01*
X122735269Y-79625582D01*
X122594418Y-79484731D01*
X122433266Y-79367647D01*
X122433262Y-79367645D01*
X122281277Y-79290204D01*
X122230481Y-79242229D01*
X122213686Y-79174408D01*
X122236224Y-79108273D01*
X122281277Y-79069234D01*
X122433005Y-78991924D01*
X122470863Y-78964418D01*
X122470863Y-78964417D01*
X121907574Y-78401128D01*
X121966853Y-78385245D01*
X122083147Y-78318102D01*
X122178102Y-78223147D01*
X122245245Y-78106853D01*
X122261128Y-78047574D01*
X122824417Y-78610863D01*
X122824418Y-78610863D01*
X122851924Y-78573005D01*
X122942320Y-78395594D01*
X123003852Y-78206222D01*
X123035000Y-78009563D01*
X123035000Y-77810436D01*
X123003852Y-77613777D01*
X122942320Y-77424405D01*
X122851924Y-77246994D01*
X122824417Y-77209135D01*
X122824417Y-77209134D01*
X122261128Y-77772424D01*
X122245245Y-77713147D01*
X122178102Y-77596853D01*
X122083147Y-77501898D01*
X121966853Y-77434755D01*
X121907574Y-77418871D01*
X122470864Y-76855581D01*
X122470863Y-76855580D01*
X122433008Y-76828077D01*
X122280727Y-76750485D01*
X122229931Y-76702510D01*
X122213136Y-76634689D01*
X122235674Y-76568554D01*
X122280727Y-76529515D01*
X122433005Y-76451924D01*
X122470863Y-76424418D01*
X122470863Y-76424417D01*
X121907574Y-75861128D01*
X121966853Y-75845245D01*
X122083147Y-75778102D01*
X122178102Y-75683147D01*
X122245245Y-75566853D01*
X122261128Y-75507574D01*
X122824417Y-76070863D01*
X122824418Y-76070863D01*
X122851924Y-76033005D01*
X122942320Y-75855594D01*
X123003852Y-75666222D01*
X123035000Y-75469563D01*
X123035000Y-75270436D01*
X123003852Y-75073777D01*
X122942320Y-74884405D01*
X122851924Y-74706994D01*
X122824417Y-74669135D01*
X122824417Y-74669134D01*
X122261128Y-75232424D01*
X122245245Y-75173147D01*
X122178102Y-75056853D01*
X122083147Y-74961898D01*
X121966853Y-74894755D01*
X121907574Y-74878871D01*
X122470864Y-74315581D01*
X122470863Y-74315580D01*
X122433008Y-74288077D01*
X122281277Y-74210765D01*
X122230481Y-74162790D01*
X122213686Y-74094969D01*
X122236224Y-74028834D01*
X122281277Y-73989795D01*
X122433266Y-73912353D01*
X122594418Y-73795269D01*
X122735269Y-73654418D01*
X122852353Y-73493266D01*
X122942785Y-73315783D01*
X122953035Y-73284236D01*
X123004338Y-73126343D01*
X123004338Y-73126342D01*
X123004339Y-73126339D01*
X123035500Y-72929597D01*
X123035500Y-72730403D01*
X123004339Y-72533661D01*
X123004338Y-72533657D01*
X123004338Y-72533656D01*
X122942786Y-72344219D01*
X122857448Y-72176734D01*
X122852353Y-72166734D01*
X122735269Y-72005582D01*
X122594418Y-71864731D01*
X122433266Y-71747647D01*
X122281827Y-71670485D01*
X122231031Y-71622510D01*
X122214236Y-71554689D01*
X122236773Y-71488554D01*
X122281827Y-71449515D01*
X122291116Y-71444781D01*
X122433266Y-71372353D01*
X122594418Y-71255269D01*
X122735269Y-71114418D01*
X122852353Y-70953266D01*
X122942785Y-70775783D01*
X122955140Y-70737758D01*
X123004338Y-70586343D01*
X123004338Y-70586342D01*
X123004339Y-70586339D01*
X123035500Y-70389597D01*
X123035500Y-70190403D01*
X123004339Y-69993661D01*
X123004338Y-69993657D01*
X123004338Y-69993656D01*
X122942786Y-69804219D01*
X122857448Y-69636734D01*
X122852353Y-69626734D01*
X122735269Y-69465582D01*
X122594418Y-69324731D01*
X122433266Y-69207647D01*
X122281827Y-69130485D01*
X122231031Y-69082510D01*
X122214236Y-69014689D01*
X122236773Y-68948554D01*
X122281827Y-68909515D01*
X122291116Y-68904781D01*
X122433266Y-68832353D01*
X122594418Y-68715269D01*
X122735269Y-68574418D01*
X122852353Y-68413266D01*
X122942785Y-68235783D01*
X122953035Y-68204236D01*
X122995378Y-68073920D01*
X130999499Y-68073920D01*
X131028340Y-68218907D01*
X131028343Y-68218917D01*
X131084912Y-68355488D01*
X131084919Y-68355501D01*
X131167048Y-68478415D01*
X131167051Y-68478419D01*
X131271580Y-68582948D01*
X131271584Y-68582951D01*
X131394498Y-68665080D01*
X131394511Y-68665087D01*
X131531082Y-68721656D01*
X131531087Y-68721658D01*
X131531091Y-68721658D01*
X131531092Y-68721659D01*
X131676079Y-68750500D01*
X131676082Y-68750500D01*
X131823920Y-68750500D01*
X131921462Y-68731096D01*
X131968913Y-68721658D01*
X132105495Y-68665084D01*
X132228416Y-68582951D01*
X132332951Y-68478416D01*
X132415084Y-68355495D01*
X132471658Y-68218913D01*
X132500500Y-68073918D01*
X132500500Y-67926082D01*
X132500500Y-67926079D01*
X132480178Y-67823920D01*
X137249499Y-67823920D01*
X137278340Y-67968907D01*
X137278343Y-67968917D01*
X137334912Y-68105488D01*
X137334919Y-68105501D01*
X137417048Y-68228415D01*
X137417051Y-68228419D01*
X137521580Y-68332948D01*
X137521584Y-68332951D01*
X137644498Y-68415080D01*
X137644511Y-68415087D01*
X137781082Y-68471656D01*
X137781087Y-68471658D01*
X137781091Y-68471658D01*
X137781092Y-68471659D01*
X137926079Y-68500500D01*
X137926082Y-68500500D01*
X138073920Y-68500500D01*
X138184944Y-68478415D01*
X138218913Y-68471658D01*
X138355495Y-68415084D01*
X138478416Y-68332951D01*
X138582951Y-68228416D01*
X138665084Y-68105495D01*
X138721658Y-67968913D01*
X138750500Y-67823920D01*
X143749499Y-67823920D01*
X143778340Y-67968907D01*
X143778343Y-67968917D01*
X143834912Y-68105488D01*
X143834919Y-68105501D01*
X143917048Y-68228415D01*
X143917051Y-68228419D01*
X144021580Y-68332948D01*
X144021584Y-68332951D01*
X144144498Y-68415080D01*
X144144511Y-68415087D01*
X144281082Y-68471656D01*
X144281087Y-68471658D01*
X144281091Y-68471658D01*
X144281092Y-68471659D01*
X144426079Y-68500500D01*
X144426082Y-68500500D01*
X144573920Y-68500500D01*
X144684944Y-68478415D01*
X144718913Y-68471658D01*
X144855495Y-68415084D01*
X144978416Y-68332951D01*
X145082951Y-68228416D01*
X145165084Y-68105495D01*
X145221658Y-67968913D01*
X145250500Y-67823920D01*
X149999499Y-67823920D01*
X150028340Y-67968907D01*
X150028343Y-67968917D01*
X150084912Y-68105488D01*
X150084919Y-68105501D01*
X150167048Y-68228415D01*
X150167051Y-68228419D01*
X150271580Y-68332948D01*
X150271584Y-68332951D01*
X150394498Y-68415080D01*
X150394511Y-68415087D01*
X150531082Y-68471656D01*
X150531087Y-68471658D01*
X150531091Y-68471658D01*
X150531092Y-68471659D01*
X150676079Y-68500500D01*
X150676082Y-68500500D01*
X150823920Y-68500500D01*
X150934944Y-68478415D01*
X150968913Y-68471658D01*
X151105495Y-68415084D01*
X151228416Y-68332951D01*
X151332951Y-68228416D01*
X151415084Y-68105495D01*
X151471658Y-67968913D01*
X151500500Y-67823920D01*
X157249499Y-67823920D01*
X157278340Y-67968907D01*
X157278343Y-67968917D01*
X157334912Y-68105488D01*
X157334919Y-68105501D01*
X157417048Y-68228415D01*
X157417051Y-68228419D01*
X157521580Y-68332948D01*
X157521584Y-68332951D01*
X157644498Y-68415080D01*
X157644511Y-68415087D01*
X157781082Y-68471656D01*
X157781087Y-68471658D01*
X157781091Y-68471658D01*
X157781092Y-68471659D01*
X157926079Y-68500500D01*
X157926082Y-68500500D01*
X158073920Y-68500500D01*
X158184944Y-68478415D01*
X158218913Y-68471658D01*
X158355495Y-68415084D01*
X158478416Y-68332951D01*
X158582951Y-68228416D01*
X158665084Y-68105495D01*
X158721658Y-67968913D01*
X158750500Y-67823920D01*
X163249499Y-67823920D01*
X163278340Y-67968907D01*
X163278343Y-67968917D01*
X163334912Y-68105488D01*
X163334919Y-68105501D01*
X163417048Y-68228415D01*
X163417051Y-68228419D01*
X163521580Y-68332948D01*
X163521584Y-68332951D01*
X163644498Y-68415080D01*
X163644511Y-68415087D01*
X163781082Y-68471656D01*
X163781087Y-68471658D01*
X163781091Y-68471658D01*
X163781092Y-68471659D01*
X163926079Y-68500500D01*
X163926082Y-68500500D01*
X164073920Y-68500500D01*
X164184944Y-68478415D01*
X164218913Y-68471658D01*
X164355495Y-68415084D01*
X164478416Y-68332951D01*
X164582951Y-68228416D01*
X164665084Y-68105495D01*
X164721658Y-67968913D01*
X164750500Y-67823920D01*
X170249499Y-67823920D01*
X170278340Y-67968907D01*
X170278343Y-67968917D01*
X170334912Y-68105488D01*
X170334919Y-68105501D01*
X170417048Y-68228415D01*
X170417051Y-68228419D01*
X170521580Y-68332948D01*
X170521584Y-68332951D01*
X170644498Y-68415080D01*
X170644511Y-68415087D01*
X170781082Y-68471656D01*
X170781087Y-68471658D01*
X170781091Y-68471658D01*
X170781092Y-68471659D01*
X170926079Y-68500500D01*
X170926082Y-68500500D01*
X171073920Y-68500500D01*
X171184944Y-68478415D01*
X171218913Y-68471658D01*
X171355495Y-68415084D01*
X171478416Y-68332951D01*
X171582951Y-68228416D01*
X171665084Y-68105495D01*
X171721658Y-67968913D01*
X171750500Y-67823920D01*
X175999499Y-67823920D01*
X176028340Y-67968907D01*
X176028343Y-67968917D01*
X176084912Y-68105488D01*
X176084919Y-68105501D01*
X176167048Y-68228415D01*
X176167051Y-68228419D01*
X176271580Y-68332948D01*
X176271584Y-68332951D01*
X176394498Y-68415080D01*
X176394511Y-68415087D01*
X176531082Y-68471656D01*
X176531087Y-68471658D01*
X176531091Y-68471658D01*
X176531092Y-68471659D01*
X176676079Y-68500500D01*
X176676082Y-68500500D01*
X176823920Y-68500500D01*
X176934944Y-68478415D01*
X176968913Y-68471658D01*
X177105495Y-68415084D01*
X177228416Y-68332951D01*
X177332951Y-68228416D01*
X177415084Y-68105495D01*
X177471658Y-67968913D01*
X177500500Y-67823918D01*
X177500500Y-67676082D01*
X177500500Y-67676079D01*
X177471659Y-67531092D01*
X177471658Y-67531091D01*
X177471658Y-67531087D01*
X177467720Y-67521580D01*
X177415087Y-67394511D01*
X177415080Y-67394498D01*
X177332951Y-67271584D01*
X177332948Y-67271580D01*
X177228419Y-67167051D01*
X177228415Y-67167048D01*
X177105501Y-67084919D01*
X177105488Y-67084912D01*
X176968917Y-67028343D01*
X176968907Y-67028340D01*
X176823920Y-66999500D01*
X176823918Y-66999500D01*
X176676082Y-66999500D01*
X176676080Y-66999500D01*
X176531092Y-67028340D01*
X176531082Y-67028343D01*
X176394511Y-67084912D01*
X176394498Y-67084919D01*
X176271584Y-67167048D01*
X176271580Y-67167051D01*
X176167051Y-67271580D01*
X176167048Y-67271584D01*
X176084919Y-67394498D01*
X176084912Y-67394511D01*
X176028343Y-67531082D01*
X176028340Y-67531092D01*
X175999500Y-67676079D01*
X175999500Y-67676082D01*
X175999500Y-67823918D01*
X175999500Y-67823920D01*
X175999499Y-67823920D01*
X171750500Y-67823920D01*
X171750500Y-67823918D01*
X171750500Y-67676082D01*
X171750500Y-67676079D01*
X171721659Y-67531092D01*
X171721658Y-67531091D01*
X171721658Y-67531087D01*
X171717720Y-67521580D01*
X171665087Y-67394511D01*
X171665080Y-67394498D01*
X171582951Y-67271584D01*
X171582948Y-67271580D01*
X171478419Y-67167051D01*
X171478415Y-67167048D01*
X171355501Y-67084919D01*
X171355488Y-67084912D01*
X171218917Y-67028343D01*
X171218907Y-67028340D01*
X171073920Y-66999500D01*
X171073918Y-66999500D01*
X170926082Y-66999500D01*
X170926080Y-66999500D01*
X170781092Y-67028340D01*
X170781082Y-67028343D01*
X170644511Y-67084912D01*
X170644498Y-67084919D01*
X170521584Y-67167048D01*
X170521580Y-67167051D01*
X170417051Y-67271580D01*
X170417048Y-67271584D01*
X170334919Y-67394498D01*
X170334912Y-67394511D01*
X170278343Y-67531082D01*
X170278340Y-67531092D01*
X170249500Y-67676079D01*
X170249500Y-67676082D01*
X170249500Y-67823918D01*
X170249500Y-67823920D01*
X170249499Y-67823920D01*
X164750500Y-67823920D01*
X164750500Y-67823918D01*
X164750500Y-67676082D01*
X164750500Y-67676079D01*
X164721659Y-67531092D01*
X164721658Y-67531091D01*
X164721658Y-67531087D01*
X164717720Y-67521580D01*
X164665087Y-67394511D01*
X164665080Y-67394498D01*
X164582951Y-67271584D01*
X164582948Y-67271580D01*
X164478419Y-67167051D01*
X164478415Y-67167048D01*
X164355501Y-67084919D01*
X164355488Y-67084912D01*
X164218917Y-67028343D01*
X164218907Y-67028340D01*
X164073920Y-66999500D01*
X164073918Y-66999500D01*
X163926082Y-66999500D01*
X163926080Y-66999500D01*
X163781092Y-67028340D01*
X163781082Y-67028343D01*
X163644511Y-67084912D01*
X163644498Y-67084919D01*
X163521584Y-67167048D01*
X163521580Y-67167051D01*
X163417051Y-67271580D01*
X163417048Y-67271584D01*
X163334919Y-67394498D01*
X163334912Y-67394511D01*
X163278343Y-67531082D01*
X163278340Y-67531092D01*
X163249500Y-67676079D01*
X163249500Y-67676082D01*
X163249500Y-67823918D01*
X163249500Y-67823920D01*
X163249499Y-67823920D01*
X158750500Y-67823920D01*
X158750500Y-67823918D01*
X158750500Y-67676082D01*
X158750500Y-67676079D01*
X158721659Y-67531092D01*
X158721658Y-67531091D01*
X158721658Y-67531087D01*
X158717720Y-67521580D01*
X158665087Y-67394511D01*
X158665080Y-67394498D01*
X158582951Y-67271584D01*
X158582948Y-67271580D01*
X158478419Y-67167051D01*
X158478415Y-67167048D01*
X158355501Y-67084919D01*
X158355488Y-67084912D01*
X158218917Y-67028343D01*
X158218907Y-67028340D01*
X158073920Y-66999500D01*
X158073918Y-66999500D01*
X157926082Y-66999500D01*
X157926080Y-66999500D01*
X157781092Y-67028340D01*
X157781082Y-67028343D01*
X157644511Y-67084912D01*
X157644498Y-67084919D01*
X157521584Y-67167048D01*
X157521580Y-67167051D01*
X157417051Y-67271580D01*
X157417048Y-67271584D01*
X157334919Y-67394498D01*
X157334912Y-67394511D01*
X157278343Y-67531082D01*
X157278340Y-67531092D01*
X157249500Y-67676079D01*
X157249500Y-67676082D01*
X157249500Y-67823918D01*
X157249500Y-67823920D01*
X157249499Y-67823920D01*
X151500500Y-67823920D01*
X151500500Y-67823918D01*
X151500500Y-67676082D01*
X151500500Y-67676079D01*
X151471659Y-67531092D01*
X151471658Y-67531091D01*
X151471658Y-67531087D01*
X151467720Y-67521580D01*
X151415087Y-67394511D01*
X151415080Y-67394498D01*
X151332951Y-67271584D01*
X151332948Y-67271580D01*
X151228419Y-67167051D01*
X151228415Y-67167048D01*
X151105501Y-67084919D01*
X151105488Y-67084912D01*
X150968917Y-67028343D01*
X150968907Y-67028340D01*
X150823920Y-66999500D01*
X150823918Y-66999500D01*
X150676082Y-66999500D01*
X150676080Y-66999500D01*
X150531092Y-67028340D01*
X150531082Y-67028343D01*
X150394511Y-67084912D01*
X150394498Y-67084919D01*
X150271584Y-67167048D01*
X150271580Y-67167051D01*
X150167051Y-67271580D01*
X150167048Y-67271584D01*
X150084919Y-67394498D01*
X150084912Y-67394511D01*
X150028343Y-67531082D01*
X150028340Y-67531092D01*
X149999500Y-67676079D01*
X149999500Y-67676082D01*
X149999500Y-67823918D01*
X149999500Y-67823920D01*
X149999499Y-67823920D01*
X145250500Y-67823920D01*
X145250500Y-67823918D01*
X145250500Y-67676082D01*
X145250500Y-67676079D01*
X145221659Y-67531092D01*
X145221658Y-67531091D01*
X145221658Y-67531087D01*
X145217720Y-67521580D01*
X145165087Y-67394511D01*
X145165080Y-67394498D01*
X145082951Y-67271584D01*
X145082948Y-67271580D01*
X144978419Y-67167051D01*
X144978415Y-67167048D01*
X144855501Y-67084919D01*
X144855488Y-67084912D01*
X144718917Y-67028343D01*
X144718907Y-67028340D01*
X144573920Y-66999500D01*
X144573918Y-66999500D01*
X144426082Y-66999500D01*
X144426080Y-66999500D01*
X144281092Y-67028340D01*
X144281082Y-67028343D01*
X144144511Y-67084912D01*
X144144498Y-67084919D01*
X144021584Y-67167048D01*
X144021580Y-67167051D01*
X143917051Y-67271580D01*
X143917048Y-67271584D01*
X143834919Y-67394498D01*
X143834912Y-67394511D01*
X143778343Y-67531082D01*
X143778340Y-67531092D01*
X143749500Y-67676079D01*
X143749500Y-67676082D01*
X143749500Y-67823918D01*
X143749500Y-67823920D01*
X143749499Y-67823920D01*
X138750500Y-67823920D01*
X138750500Y-67823918D01*
X138750500Y-67676082D01*
X138750500Y-67676079D01*
X138721659Y-67531092D01*
X138721658Y-67531091D01*
X138721658Y-67531087D01*
X138717720Y-67521580D01*
X138665087Y-67394511D01*
X138665080Y-67394498D01*
X138582951Y-67271584D01*
X138582948Y-67271580D01*
X138478419Y-67167051D01*
X138478415Y-67167048D01*
X138355501Y-67084919D01*
X138355488Y-67084912D01*
X138218917Y-67028343D01*
X138218907Y-67028340D01*
X138073920Y-66999500D01*
X138073918Y-66999500D01*
X137926082Y-66999500D01*
X137926080Y-66999500D01*
X137781092Y-67028340D01*
X137781082Y-67028343D01*
X137644511Y-67084912D01*
X137644498Y-67084919D01*
X137521584Y-67167048D01*
X137521580Y-67167051D01*
X137417051Y-67271580D01*
X137417048Y-67271584D01*
X137334919Y-67394498D01*
X137334912Y-67394511D01*
X137278343Y-67531082D01*
X137278340Y-67531092D01*
X137249500Y-67676079D01*
X137249500Y-67676082D01*
X137249500Y-67823918D01*
X137249500Y-67823920D01*
X137249499Y-67823920D01*
X132480178Y-67823920D01*
X132471659Y-67781092D01*
X132471658Y-67781091D01*
X132471658Y-67781087D01*
X132471656Y-67781082D01*
X132445296Y-67717442D01*
X132415085Y-67644507D01*
X132415080Y-67644498D01*
X132332951Y-67521584D01*
X132332948Y-67521580D01*
X132228419Y-67417051D01*
X132228415Y-67417048D01*
X132105501Y-67334919D01*
X132105488Y-67334912D01*
X131968917Y-67278343D01*
X131968907Y-67278340D01*
X131823920Y-67249500D01*
X131823918Y-67249500D01*
X131676082Y-67249500D01*
X131676080Y-67249500D01*
X131531092Y-67278340D01*
X131531082Y-67278343D01*
X131394511Y-67334912D01*
X131394498Y-67334919D01*
X131271584Y-67417048D01*
X131271580Y-67417051D01*
X131167051Y-67521580D01*
X131167048Y-67521584D01*
X131084919Y-67644498D01*
X131084912Y-67644511D01*
X131028343Y-67781082D01*
X131028340Y-67781092D01*
X130999500Y-67926079D01*
X130999500Y-67926082D01*
X130999500Y-68073918D01*
X130999500Y-68073920D01*
X130999499Y-68073920D01*
X122995378Y-68073920D01*
X123004338Y-68046343D01*
X123004338Y-68046342D01*
X123004339Y-68046339D01*
X123035500Y-67849597D01*
X123035500Y-67650403D01*
X123004339Y-67453661D01*
X123004338Y-67453657D01*
X123004338Y-67453656D01*
X122942786Y-67264219D01*
X122929514Y-67238172D01*
X122852353Y-67086734D01*
X122735269Y-66925582D01*
X122594418Y-66784731D01*
X122433266Y-66667647D01*
X122281827Y-66590485D01*
X122231031Y-66542510D01*
X122214236Y-66474689D01*
X122236773Y-66408554D01*
X122281827Y-66369515D01*
X122291116Y-66364781D01*
X122433266Y-66292353D01*
X122594418Y-66175269D01*
X122735269Y-66034418D01*
X122852353Y-65873266D01*
X122942785Y-65695783D01*
X122955140Y-65657758D01*
X123004338Y-65506343D01*
X123004338Y-65506342D01*
X123004339Y-65506339D01*
X123035500Y-65309597D01*
X123035500Y-65110403D01*
X123004339Y-64913661D01*
X123004338Y-64913657D01*
X123004338Y-64913656D01*
X122942786Y-64724219D01*
X122857448Y-64556734D01*
X122852353Y-64546734D01*
X122735269Y-64385582D01*
X122594418Y-64244731D01*
X122433266Y-64127647D01*
X122281827Y-64050485D01*
X122231031Y-64002510D01*
X122214236Y-63934689D01*
X122236773Y-63868554D01*
X122281827Y-63829515D01*
X122291116Y-63824781D01*
X122433266Y-63752353D01*
X122594418Y-63635269D01*
X122735269Y-63494418D01*
X122852353Y-63333266D01*
X122942785Y-63155783D01*
X122953214Y-63123686D01*
X123004338Y-62966343D01*
X123004338Y-62966342D01*
X123004339Y-62966339D01*
X123035500Y-62769597D01*
X123035500Y-62570403D01*
X123004339Y-62373661D01*
X123004338Y-62373657D01*
X123004338Y-62373656D01*
X122942786Y-62184219D01*
X122929514Y-62158172D01*
X122852353Y-62006734D01*
X122735269Y-61845582D01*
X122594418Y-61704731D01*
X122433266Y-61587647D01*
X122433262Y-61587645D01*
X122281277Y-61510204D01*
X122230481Y-61462229D01*
X122213686Y-61394408D01*
X122236224Y-61328273D01*
X122281277Y-61289234D01*
X122433005Y-61211924D01*
X122470863Y-61184418D01*
X122470863Y-61184417D01*
X121907574Y-60621128D01*
X121966853Y-60605245D01*
X122083147Y-60538102D01*
X122178102Y-60443147D01*
X122245245Y-60326853D01*
X122261128Y-60267574D01*
X122824417Y-60830863D01*
X122824418Y-60830863D01*
X122851924Y-60793005D01*
X122942320Y-60615594D01*
X123003852Y-60426222D01*
X123035000Y-60229563D01*
X123035000Y-60030436D01*
X123003852Y-59833777D01*
X122942320Y-59644405D01*
X122851924Y-59466994D01*
X122824417Y-59429135D01*
X122824417Y-59429134D01*
X122261128Y-59992424D01*
X122245245Y-59933147D01*
X122178102Y-59816853D01*
X122083147Y-59721898D01*
X121966853Y-59654755D01*
X121907574Y-59638871D01*
X122470864Y-59075581D01*
X122470863Y-59075580D01*
X122433008Y-59048077D01*
X122281277Y-58970765D01*
X122230481Y-58922790D01*
X122213686Y-58854969D01*
X122236224Y-58788834D01*
X122281277Y-58749795D01*
X122281827Y-58749515D01*
X122433266Y-58672353D01*
X122594418Y-58555269D01*
X122735269Y-58414418D01*
X122852353Y-58253266D01*
X122942785Y-58075783D01*
X122953035Y-58044236D01*
X123004338Y-57886343D01*
X123004338Y-57886342D01*
X123004339Y-57886339D01*
X123035500Y-57689597D01*
X123035500Y-57490403D01*
X123004339Y-57293661D01*
X123004338Y-57293657D01*
X123004338Y-57293656D01*
X122942786Y-57104219D01*
X122933345Y-57085690D01*
X122852353Y-56926734D01*
X122735269Y-56765582D01*
X122594418Y-56624731D01*
X122433266Y-56507647D01*
X122371067Y-56475955D01*
X122281827Y-56430485D01*
X122231031Y-56382510D01*
X122214236Y-56314689D01*
X122236773Y-56248554D01*
X122281827Y-56209515D01*
X122336913Y-56181447D01*
X122433266Y-56132353D01*
X122594418Y-56015269D01*
X122735269Y-55874418D01*
X122852353Y-55713266D01*
X122942785Y-55535783D01*
X122955140Y-55497758D01*
X123004338Y-55346343D01*
X123004338Y-55346342D01*
X123004339Y-55346339D01*
X123035500Y-55149597D01*
X123035500Y-54950403D01*
X123004339Y-54753661D01*
X123004338Y-54753657D01*
X123004338Y-54753656D01*
X122942786Y-54564219D01*
X122857541Y-54396916D01*
X122852353Y-54386734D01*
X122735269Y-54225582D01*
X122594418Y-54084731D01*
X122433266Y-53967647D01*
X122281827Y-53890485D01*
X122231031Y-53842510D01*
X122214236Y-53774689D01*
X122236773Y-53708554D01*
X122281827Y-53669515D01*
X122301135Y-53659677D01*
X122433266Y-53592353D01*
X122594418Y-53475269D01*
X122599003Y-53470684D01*
X125049500Y-53470684D01*
X125049500Y-53709315D01*
X125049501Y-53709332D01*
X125080459Y-53944487D01*
X125080649Y-53945924D01*
X125086470Y-53967647D01*
X125142415Y-54176436D01*
X125233734Y-54396902D01*
X125233740Y-54396914D01*
X125353062Y-54603586D01*
X125353064Y-54603589D01*
X125353065Y-54603590D01*
X125498337Y-54792912D01*
X125498343Y-54792919D01*
X125667080Y-54961656D01*
X125667086Y-54961661D01*
X125856414Y-55106938D01*
X126063086Y-55226260D01*
X126063091Y-55226262D01*
X126063097Y-55226265D01*
X126158109Y-55265620D01*
X126283564Y-55317585D01*
X126514076Y-55379351D01*
X126750678Y-55410500D01*
X126750685Y-55410500D01*
X126989315Y-55410500D01*
X126989322Y-55410500D01*
X127225924Y-55379351D01*
X127456436Y-55317585D01*
X127676914Y-55226260D01*
X127883586Y-55106938D01*
X128072914Y-54961661D01*
X128241661Y-54792914D01*
X128386938Y-54603586D01*
X128506260Y-54396914D01*
X128597585Y-54176436D01*
X128659351Y-53945924D01*
X128690500Y-53709322D01*
X128690500Y-53470678D01*
X128659351Y-53234076D01*
X128597585Y-53003564D01*
X128520036Y-52816343D01*
X128506265Y-52783097D01*
X128506262Y-52783091D01*
X128506260Y-52783086D01*
X128386938Y-52576414D01*
X128241661Y-52387086D01*
X128241656Y-52387080D01*
X128072919Y-52218343D01*
X128072912Y-52218337D01*
X127883590Y-52073065D01*
X127883589Y-52073064D01*
X127883586Y-52073062D01*
X127676914Y-51953740D01*
X127676902Y-51953734D01*
X127456436Y-51862415D01*
X127225920Y-51800648D01*
X126989332Y-51769501D01*
X126989327Y-51769500D01*
X126989322Y-51769500D01*
X126750678Y-51769500D01*
X126750672Y-51769500D01*
X126750667Y-51769501D01*
X126514079Y-51800648D01*
X126283563Y-51862415D01*
X126063097Y-51953734D01*
X126063083Y-51953741D01*
X125856409Y-52073065D01*
X125667087Y-52218337D01*
X125667080Y-52218343D01*
X125498343Y-52387080D01*
X125498337Y-52387087D01*
X125353065Y-52576409D01*
X125233741Y-52783083D01*
X125233734Y-52783097D01*
X125142415Y-53003563D01*
X125080648Y-53234079D01*
X125049501Y-53470667D01*
X125049500Y-53470684D01*
X122599003Y-53470684D01*
X122735269Y-53334418D01*
X122852353Y-53173266D01*
X122942785Y-52995783D01*
X123001089Y-52816343D01*
X123004338Y-52806343D01*
X123004338Y-52806342D01*
X123004339Y-52806339D01*
X123035500Y-52609597D01*
X123035500Y-52410403D01*
X123004339Y-52213661D01*
X123004338Y-52213657D01*
X123004338Y-52213656D01*
X122942786Y-52024219D01*
X122906872Y-51953734D01*
X122852353Y-51846734D01*
X122735269Y-51685582D01*
X122594418Y-51544731D01*
X122433266Y-51427647D01*
X122354379Y-51387452D01*
X122255780Y-51337213D01*
X122066342Y-51275661D01*
X121918782Y-51252290D01*
X121869597Y-51244500D01*
X121670403Y-51244500D01*
X121607266Y-51254500D01*
X121473659Y-51275661D01*
X121473656Y-51275661D01*
X121284219Y-51337213D01*
X121106733Y-51427647D01*
X121014790Y-51494447D01*
X120945582Y-51544731D01*
X120945580Y-51544733D01*
X120945579Y-51544733D01*
X120804733Y-51685579D01*
X120804733Y-51685580D01*
X120804731Y-51685582D01*
X120743761Y-51769500D01*
X120719817Y-51802456D01*
X120664487Y-51845121D01*
X120594873Y-51851100D01*
X120533078Y-51818494D01*
X120498721Y-51757655D01*
X120495499Y-51729570D01*
X120495499Y-51697129D01*
X120495498Y-51697123D01*
X120495497Y-51697116D01*
X120489091Y-51637517D01*
X120438796Y-51502669D01*
X120438795Y-51502668D01*
X120438793Y-51502664D01*
X120352547Y-51387455D01*
X120352544Y-51387452D01*
X120237335Y-51301206D01*
X120237328Y-51301202D01*
X120102482Y-51250908D01*
X120102483Y-51250908D01*
X120042883Y-51244501D01*
X120042881Y-51244500D01*
X120042873Y-51244500D01*
X120042864Y-51244500D01*
X118417129Y-51244500D01*
X118417123Y-51244501D01*
X118357516Y-51250908D01*
X118222671Y-51301202D01*
X118222664Y-51301206D01*
X118107455Y-51387452D01*
X118107452Y-51387455D01*
X118021206Y-51502664D01*
X118021202Y-51502671D01*
X117970908Y-51637517D01*
X117965741Y-51685580D01*
X117964501Y-51697123D01*
X117964500Y-51697135D01*
X116200500Y-51697135D01*
X116200500Y-49506092D01*
X116201097Y-49493939D01*
X116209805Y-49405519D01*
X116214665Y-49356171D01*
X116219403Y-49332349D01*
X116257816Y-49205719D01*
X116267113Y-49183278D01*
X116329485Y-49066587D01*
X116342982Y-49046387D01*
X116426924Y-48944103D01*
X116444103Y-48926924D01*
X116546387Y-48842982D01*
X116566587Y-48829485D01*
X116683278Y-48767113D01*
X116705719Y-48757816D01*
X116832349Y-48719403D01*
X116856173Y-48714665D01*
X116985170Y-48701960D01*
X116993939Y-48701097D01*
X117006092Y-48700500D01*
X117039882Y-48700500D01*
X134960118Y-48700500D01*
X134993908Y-48700500D01*
X135006061Y-48701097D01*
G37*
%TD.AperFunction*%
%TD*%
%TA.AperFunction,Conductor*%
%TO.N,GNDREF*%
G36*
X177743039Y-78477747D02*
G01*
X177788794Y-78530551D01*
X177800000Y-78582062D01*
X177800000Y-113675500D01*
X177780315Y-113742539D01*
X177727511Y-113788294D01*
X177676000Y-113799500D01*
X163960116Y-113799500D01*
X163886425Y-113830024D01*
X163886424Y-113830025D01*
X161953269Y-115763181D01*
X161891946Y-115796666D01*
X161865588Y-115799500D01*
X129134412Y-115799500D01*
X129067373Y-115779815D01*
X129046731Y-115763181D01*
X127113574Y-113830024D01*
X127039883Y-113799500D01*
X127039882Y-113799500D01*
X124324000Y-113799500D01*
X124256961Y-113779815D01*
X124211206Y-113727011D01*
X124200000Y-113675500D01*
X124200000Y-113380022D01*
X158039500Y-113380022D01*
X158039500Y-113619977D01*
X158070818Y-113857868D01*
X158070819Y-113857873D01*
X158070820Y-113857879D01*
X158070821Y-113857881D01*
X158132924Y-114089656D01*
X158224749Y-114311340D01*
X158224753Y-114311350D01*
X158344728Y-114519153D01*
X158490802Y-114709520D01*
X158490808Y-114709527D01*
X158660472Y-114879191D01*
X158660479Y-114879197D01*
X158850846Y-115025271D01*
X159058649Y-115145246D01*
X159058650Y-115145246D01*
X159058653Y-115145248D01*
X159280342Y-115237075D01*
X159512121Y-115299180D01*
X159680139Y-115321299D01*
X159750022Y-115330500D01*
X159750023Y-115330500D01*
X159989978Y-115330500D01*
X160043992Y-115323388D01*
X160227879Y-115299180D01*
X160459658Y-115237075D01*
X160681347Y-115145248D01*
X160889154Y-115025271D01*
X161079522Y-114879196D01*
X161249196Y-114709522D01*
X161395271Y-114519154D01*
X161515248Y-114311347D01*
X161607075Y-114089658D01*
X161669180Y-113857879D01*
X161700500Y-113619977D01*
X161700500Y-113380023D01*
X161669180Y-113142121D01*
X161607075Y-112910342D01*
X161515248Y-112688653D01*
X161395271Y-112480846D01*
X161343211Y-112413000D01*
X161249197Y-112290479D01*
X161249191Y-112290472D01*
X161079527Y-112120808D01*
X161079520Y-112120802D01*
X160889153Y-111974728D01*
X160681350Y-111854753D01*
X160681340Y-111854749D01*
X160459656Y-111762924D01*
X160343768Y-111731872D01*
X160227879Y-111700820D01*
X160227873Y-111700819D01*
X160227868Y-111700818D01*
X159989978Y-111669500D01*
X159989977Y-111669500D01*
X159750023Y-111669500D01*
X159750022Y-111669500D01*
X159512131Y-111700818D01*
X159512124Y-111700819D01*
X159512121Y-111700820D01*
X159463138Y-111713944D01*
X159280343Y-111762924D01*
X159058659Y-111854749D01*
X159058649Y-111854753D01*
X158850846Y-111974728D01*
X158660479Y-112120802D01*
X158660472Y-112120808D01*
X158490808Y-112290472D01*
X158490802Y-112290479D01*
X158344728Y-112480846D01*
X158224753Y-112688649D01*
X158224749Y-112688659D01*
X158132924Y-112910343D01*
X158070821Y-113142118D01*
X158070818Y-113142131D01*
X158039500Y-113380022D01*
X124200000Y-113380022D01*
X124200000Y-110127135D01*
X132174500Y-110127135D01*
X132174500Y-111872870D01*
X132174501Y-111872876D01*
X132180908Y-111932483D01*
X132231202Y-112067328D01*
X132231206Y-112067335D01*
X132317452Y-112182544D01*
X132317455Y-112182547D01*
X132432664Y-112268793D01*
X132432671Y-112268797D01*
X132567517Y-112319091D01*
X132567516Y-112319091D01*
X132574444Y-112319835D01*
X132627127Y-112325500D01*
X134372872Y-112325499D01*
X134432483Y-112319091D01*
X134567331Y-112268796D01*
X134682546Y-112182546D01*
X134768796Y-112067331D01*
X134819091Y-111932483D01*
X134819091Y-111932481D01*
X134820874Y-111924938D01*
X134823757Y-111925619D01*
X134845147Y-111873896D01*
X134902517Y-111834014D01*
X134972340Y-111831480D01*
X135029425Y-111863965D01*
X135176495Y-112011035D01*
X135345286Y-112133670D01*
X135433116Y-112178421D01*
X135531179Y-112228387D01*
X135531181Y-112228387D01*
X135531184Y-112228389D01*
X135637545Y-112262948D01*
X135729610Y-112292862D01*
X135935676Y-112325500D01*
X135935681Y-112325500D01*
X136144324Y-112325500D01*
X136350389Y-112292862D01*
X136357745Y-112290472D01*
X136548816Y-112228389D01*
X136734714Y-112133670D01*
X136903505Y-112011035D01*
X137051035Y-111863505D01*
X137173670Y-111694714D01*
X137199515Y-111643990D01*
X137247489Y-111593194D01*
X137315310Y-111576398D01*
X137381445Y-111598935D01*
X137420485Y-111643990D01*
X137446328Y-111694712D01*
X137528086Y-111807241D01*
X137568965Y-111863505D01*
X137716495Y-112011035D01*
X137885286Y-112133670D01*
X137973116Y-112178421D01*
X138071179Y-112228387D01*
X138071181Y-112228387D01*
X138071184Y-112228389D01*
X138177545Y-112262948D01*
X138269610Y-112292862D01*
X138475676Y-112325500D01*
X138475681Y-112325500D01*
X138684324Y-112325500D01*
X138890389Y-112292862D01*
X138897745Y-112290472D01*
X139088816Y-112228389D01*
X139274714Y-112133670D01*
X139443505Y-112011035D01*
X139591035Y-111863505D01*
X139713670Y-111694714D01*
X139739515Y-111643990D01*
X139787489Y-111593194D01*
X139855310Y-111576398D01*
X139921445Y-111598935D01*
X139960485Y-111643990D01*
X139986328Y-111694712D01*
X140068086Y-111807241D01*
X140108965Y-111863505D01*
X140256495Y-112011035D01*
X140425286Y-112133670D01*
X140513116Y-112178421D01*
X140611179Y-112228387D01*
X140611181Y-112228387D01*
X140611184Y-112228389D01*
X140717545Y-112262948D01*
X140809610Y-112292862D01*
X141015676Y-112325500D01*
X141015681Y-112325500D01*
X141224324Y-112325500D01*
X141430389Y-112292862D01*
X141437745Y-112290472D01*
X141628816Y-112228389D01*
X141814714Y-112133670D01*
X141983505Y-112011035D01*
X142131035Y-111863505D01*
X142253670Y-111694714D01*
X142279515Y-111643990D01*
X142327489Y-111593194D01*
X142395310Y-111576398D01*
X142461445Y-111598935D01*
X142500485Y-111643990D01*
X142526328Y-111694712D01*
X142608086Y-111807241D01*
X142648965Y-111863505D01*
X142796495Y-112011035D01*
X142965286Y-112133670D01*
X143053116Y-112178421D01*
X143151179Y-112228387D01*
X143151181Y-112228387D01*
X143151184Y-112228389D01*
X143257545Y-112262948D01*
X143349610Y-112292862D01*
X143555676Y-112325500D01*
X143555681Y-112325500D01*
X143764324Y-112325500D01*
X143970389Y-112292862D01*
X143977745Y-112290472D01*
X144168816Y-112228389D01*
X144354714Y-112133670D01*
X144523505Y-112011035D01*
X144671035Y-111863505D01*
X144793670Y-111694714D01*
X144819515Y-111643990D01*
X144867489Y-111593194D01*
X144935310Y-111576398D01*
X145001445Y-111598935D01*
X145040485Y-111643990D01*
X145066328Y-111694712D01*
X145148086Y-111807241D01*
X145188965Y-111863505D01*
X145336495Y-112011035D01*
X145505286Y-112133670D01*
X145593116Y-112178421D01*
X145691179Y-112228387D01*
X145691181Y-112228387D01*
X145691184Y-112228389D01*
X145797545Y-112262948D01*
X145889610Y-112292862D01*
X146095676Y-112325500D01*
X146095681Y-112325500D01*
X146304324Y-112325500D01*
X146510389Y-112292862D01*
X146517745Y-112290472D01*
X146708816Y-112228389D01*
X146894714Y-112133670D01*
X147063505Y-112011035D01*
X147211035Y-111863505D01*
X147333670Y-111694714D01*
X147359515Y-111643990D01*
X147407489Y-111593194D01*
X147475310Y-111576398D01*
X147541445Y-111598935D01*
X147580485Y-111643990D01*
X147606328Y-111694712D01*
X147688086Y-111807241D01*
X147728965Y-111863505D01*
X147876495Y-112011035D01*
X148045286Y-112133670D01*
X148133116Y-112178421D01*
X148231179Y-112228387D01*
X148231181Y-112228387D01*
X148231184Y-112228389D01*
X148337545Y-112262948D01*
X148429610Y-112292862D01*
X148635676Y-112325500D01*
X148635681Y-112325500D01*
X148844324Y-112325500D01*
X149050389Y-112292862D01*
X149057745Y-112290472D01*
X149248816Y-112228389D01*
X149434714Y-112133670D01*
X149603505Y-112011035D01*
X149751035Y-111863505D01*
X149873670Y-111694714D01*
X149899515Y-111643990D01*
X149947489Y-111593194D01*
X150015310Y-111576398D01*
X150081445Y-111598935D01*
X150120485Y-111643990D01*
X150146328Y-111694712D01*
X150228086Y-111807241D01*
X150268965Y-111863505D01*
X150416495Y-112011035D01*
X150585286Y-112133670D01*
X150673116Y-112178421D01*
X150771179Y-112228387D01*
X150771181Y-112228387D01*
X150771184Y-112228389D01*
X150877545Y-112262948D01*
X150969610Y-112292862D01*
X151175676Y-112325500D01*
X151175681Y-112325500D01*
X151384324Y-112325500D01*
X151590389Y-112292862D01*
X151597745Y-112290472D01*
X151788816Y-112228389D01*
X151974714Y-112133670D01*
X152143505Y-112011035D01*
X152291035Y-111863505D01*
X152413670Y-111694714D01*
X152439796Y-111643437D01*
X152487769Y-111592642D01*
X152555590Y-111575846D01*
X152621725Y-111598383D01*
X152660766Y-111643437D01*
X152686759Y-111694451D01*
X152722627Y-111743818D01*
X152722627Y-111743819D01*
X153296212Y-111170234D01*
X153307482Y-111212292D01*
X153379890Y-111337708D01*
X153482292Y-111440110D01*
X153607708Y-111512518D01*
X153649765Y-111523787D01*
X153076179Y-112097371D01*
X153076180Y-112097372D01*
X153125543Y-112133236D01*
X153125556Y-112133244D01*
X153311372Y-112227924D01*
X153509727Y-112292373D01*
X153715721Y-112325000D01*
X153924279Y-112325000D01*
X154130272Y-112292373D01*
X154328627Y-112227924D01*
X154514451Y-112133240D01*
X154563818Y-112097372D01*
X154563818Y-112097371D01*
X153990234Y-111523787D01*
X154032292Y-111512518D01*
X154157708Y-111440110D01*
X154260110Y-111337708D01*
X154332518Y-111212292D01*
X154343787Y-111170234D01*
X154917371Y-111743818D01*
X154917372Y-111743818D01*
X154953240Y-111694451D01*
X155047924Y-111508627D01*
X155112373Y-111310272D01*
X155145000Y-111104279D01*
X155145000Y-110895720D01*
X155112373Y-110689727D01*
X155047924Y-110491372D01*
X154953244Y-110305556D01*
X154953236Y-110305543D01*
X154917372Y-110256180D01*
X154917371Y-110256179D01*
X154343787Y-110829764D01*
X154332518Y-110787708D01*
X154260110Y-110662292D01*
X154157708Y-110559890D01*
X154032292Y-110487482D01*
X153990233Y-110476212D01*
X154563819Y-109902627D01*
X154514451Y-109866759D01*
X154328627Y-109772075D01*
X154130272Y-109707626D01*
X153924279Y-109675000D01*
X153715721Y-109675000D01*
X153509727Y-109707626D01*
X153311372Y-109772075D01*
X153125552Y-109866757D01*
X153076180Y-109902627D01*
X153649766Y-110476212D01*
X153607708Y-110487482D01*
X153482292Y-110559890D01*
X153379890Y-110662292D01*
X153307482Y-110787708D01*
X153296212Y-110829765D01*
X152722627Y-110256180D01*
X152686755Y-110305555D01*
X152660765Y-110356563D01*
X152612790Y-110407358D01*
X152544969Y-110424153D01*
X152478834Y-110401615D01*
X152439796Y-110356561D01*
X152413671Y-110305287D01*
X152372791Y-110249022D01*
X152291035Y-110136495D01*
X152143505Y-109988965D01*
X151974714Y-109866330D01*
X151788820Y-109771612D01*
X151590389Y-109707137D01*
X151384324Y-109674500D01*
X151384319Y-109674500D01*
X151175681Y-109674500D01*
X151175676Y-109674500D01*
X150969610Y-109707137D01*
X150771179Y-109771612D01*
X150585285Y-109866330D01*
X150416493Y-109988966D01*
X150268966Y-110136493D01*
X150146330Y-110305285D01*
X150120485Y-110356010D01*
X150072510Y-110406806D01*
X150004690Y-110423601D01*
X149938555Y-110401064D01*
X149899515Y-110356010D01*
X149897610Y-110352271D01*
X149873670Y-110305286D01*
X149751035Y-110136495D01*
X149603505Y-109988965D01*
X149434714Y-109866330D01*
X149248820Y-109771612D01*
X149050389Y-109707137D01*
X148844324Y-109674500D01*
X148844319Y-109674500D01*
X148635681Y-109674500D01*
X148635676Y-109674500D01*
X148429610Y-109707137D01*
X148231179Y-109771612D01*
X148045285Y-109866330D01*
X147876493Y-109988966D01*
X147728966Y-110136493D01*
X147606330Y-110305285D01*
X147580485Y-110356010D01*
X147532510Y-110406806D01*
X147464690Y-110423601D01*
X147398555Y-110401064D01*
X147359515Y-110356010D01*
X147357610Y-110352271D01*
X147333670Y-110305286D01*
X147211035Y-110136495D01*
X147063505Y-109988965D01*
X146894714Y-109866330D01*
X146708820Y-109771612D01*
X146510389Y-109707137D01*
X146304324Y-109674500D01*
X146304319Y-109674500D01*
X146095681Y-109674500D01*
X146095676Y-109674500D01*
X145889610Y-109707137D01*
X145691179Y-109771612D01*
X145505285Y-109866330D01*
X145336493Y-109988966D01*
X145188966Y-110136493D01*
X145066330Y-110305285D01*
X145040485Y-110356010D01*
X144992510Y-110406806D01*
X144924690Y-110423601D01*
X144858555Y-110401064D01*
X144819515Y-110356010D01*
X144817610Y-110352271D01*
X144793670Y-110305286D01*
X144671035Y-110136495D01*
X144523505Y-109988965D01*
X144354714Y-109866330D01*
X144168820Y-109771612D01*
X143970389Y-109707137D01*
X143764324Y-109674500D01*
X143764319Y-109674500D01*
X143555681Y-109674500D01*
X143555676Y-109674500D01*
X143349610Y-109707137D01*
X143151179Y-109771612D01*
X142965285Y-109866330D01*
X142796493Y-109988966D01*
X142648966Y-110136493D01*
X142526330Y-110305285D01*
X142500485Y-110356010D01*
X142452510Y-110406806D01*
X142384690Y-110423601D01*
X142318555Y-110401064D01*
X142279515Y-110356010D01*
X142277610Y-110352271D01*
X142253670Y-110305286D01*
X142131035Y-110136495D01*
X141983505Y-109988965D01*
X141814714Y-109866330D01*
X141628820Y-109771612D01*
X141430389Y-109707137D01*
X141224324Y-109674500D01*
X141224319Y-109674500D01*
X141015681Y-109674500D01*
X141015676Y-109674500D01*
X140809610Y-109707137D01*
X140611179Y-109771612D01*
X140425285Y-109866330D01*
X140256493Y-109988966D01*
X140108966Y-110136493D01*
X139986330Y-110305285D01*
X139960485Y-110356010D01*
X139912510Y-110406806D01*
X139844690Y-110423601D01*
X139778555Y-110401064D01*
X139739515Y-110356010D01*
X139737610Y-110352271D01*
X139713670Y-110305286D01*
X139591035Y-110136495D01*
X139443505Y-109988965D01*
X139274714Y-109866330D01*
X139088820Y-109771612D01*
X138890389Y-109707137D01*
X138684324Y-109674500D01*
X138684319Y-109674500D01*
X138475681Y-109674500D01*
X138475676Y-109674500D01*
X138269610Y-109707137D01*
X138071179Y-109771612D01*
X137885285Y-109866330D01*
X137716493Y-109988966D01*
X137568966Y-110136493D01*
X137446330Y-110305285D01*
X137420485Y-110356010D01*
X137372510Y-110406806D01*
X137304690Y-110423601D01*
X137238555Y-110401064D01*
X137199515Y-110356010D01*
X137197610Y-110352271D01*
X137173670Y-110305286D01*
X137051035Y-110136495D01*
X136903505Y-109988965D01*
X136734714Y-109866330D01*
X136548820Y-109771612D01*
X136350389Y-109707137D01*
X136144324Y-109674500D01*
X136144319Y-109674500D01*
X135935681Y-109674500D01*
X135935676Y-109674500D01*
X135729610Y-109707137D01*
X135531179Y-109771612D01*
X135345285Y-109866330D01*
X135176496Y-109988964D01*
X135029426Y-110136034D01*
X134968103Y-110169518D01*
X134898411Y-110164534D01*
X134842478Y-110122662D01*
X134823515Y-110074444D01*
X134820876Y-110075068D01*
X134819092Y-110067520D01*
X134768797Y-109932671D01*
X134768793Y-109932664D01*
X134682547Y-109817455D01*
X134682544Y-109817452D01*
X134567335Y-109731206D01*
X134567328Y-109731202D01*
X134432482Y-109680908D01*
X134432483Y-109680908D01*
X134372883Y-109674501D01*
X134372881Y-109674500D01*
X134372873Y-109674500D01*
X134372864Y-109674500D01*
X132627129Y-109674500D01*
X132627123Y-109674501D01*
X132567516Y-109680908D01*
X132432671Y-109731202D01*
X132432664Y-109731206D01*
X132317455Y-109817452D01*
X132317452Y-109817455D01*
X132231206Y-109932664D01*
X132231202Y-109932671D01*
X132180908Y-110067517D01*
X132174501Y-110127116D01*
X132174500Y-110127135D01*
X124200000Y-110127135D01*
X124200000Y-85473920D01*
X128449499Y-85473920D01*
X128478340Y-85618907D01*
X128478343Y-85618917D01*
X128534912Y-85755488D01*
X128534919Y-85755501D01*
X128617048Y-85878415D01*
X128617051Y-85878419D01*
X128721580Y-85982948D01*
X128721584Y-85982951D01*
X128844498Y-86065080D01*
X128844511Y-86065087D01*
X128981082Y-86121656D01*
X128981087Y-86121658D01*
X128981091Y-86121658D01*
X128981092Y-86121659D01*
X129126079Y-86150500D01*
X129126082Y-86150500D01*
X129273920Y-86150500D01*
X129371462Y-86131096D01*
X129418913Y-86121658D01*
X129555495Y-86065084D01*
X129678416Y-85982951D01*
X129782951Y-85878416D01*
X129865084Y-85755495D01*
X129921658Y-85618913D01*
X129950500Y-85473920D01*
X135049499Y-85473920D01*
X135078340Y-85618907D01*
X135078343Y-85618917D01*
X135134912Y-85755488D01*
X135134919Y-85755501D01*
X135217048Y-85878415D01*
X135217051Y-85878419D01*
X135321580Y-85982948D01*
X135321584Y-85982951D01*
X135444498Y-86065080D01*
X135444511Y-86065087D01*
X135581082Y-86121656D01*
X135581087Y-86121658D01*
X135581091Y-86121658D01*
X135581092Y-86121659D01*
X135726079Y-86150500D01*
X135726082Y-86150500D01*
X135873920Y-86150500D01*
X135971462Y-86131096D01*
X136018913Y-86121658D01*
X136155495Y-86065084D01*
X136278416Y-85982951D01*
X136382951Y-85878416D01*
X136465084Y-85755495D01*
X136521658Y-85618913D01*
X136550500Y-85473920D01*
X141449499Y-85473920D01*
X141478340Y-85618907D01*
X141478343Y-85618917D01*
X141534912Y-85755488D01*
X141534919Y-85755501D01*
X141617048Y-85878415D01*
X141617051Y-85878419D01*
X141721580Y-85982948D01*
X141721584Y-85982951D01*
X141844498Y-86065080D01*
X141844511Y-86065087D01*
X141981082Y-86121656D01*
X141981087Y-86121658D01*
X141981091Y-86121658D01*
X141981092Y-86121659D01*
X142126079Y-86150500D01*
X142126082Y-86150500D01*
X142273920Y-86150500D01*
X142371462Y-86131096D01*
X142418913Y-86121658D01*
X142555495Y-86065084D01*
X142678416Y-85982951D01*
X142782951Y-85878416D01*
X142865084Y-85755495D01*
X142921658Y-85618913D01*
X142950500Y-85473920D01*
X148049499Y-85473920D01*
X148078340Y-85618907D01*
X148078343Y-85618917D01*
X148134912Y-85755488D01*
X148134919Y-85755501D01*
X148217048Y-85878415D01*
X148217051Y-85878419D01*
X148321580Y-85982948D01*
X148321584Y-85982951D01*
X148444498Y-86065080D01*
X148444511Y-86065087D01*
X148581082Y-86121656D01*
X148581087Y-86121658D01*
X148581091Y-86121658D01*
X148581092Y-86121659D01*
X148726079Y-86150500D01*
X148726082Y-86150500D01*
X148873920Y-86150500D01*
X148971462Y-86131096D01*
X149018913Y-86121658D01*
X149155495Y-86065084D01*
X149278416Y-85982951D01*
X149382951Y-85878416D01*
X149465084Y-85755495D01*
X149521658Y-85618913D01*
X149550500Y-85473920D01*
X155049499Y-85473920D01*
X155078340Y-85618907D01*
X155078343Y-85618917D01*
X155134912Y-85755488D01*
X155134919Y-85755501D01*
X155217048Y-85878415D01*
X155217051Y-85878419D01*
X155321580Y-85982948D01*
X155321584Y-85982951D01*
X155444498Y-86065080D01*
X155444511Y-86065087D01*
X155581082Y-86121656D01*
X155581087Y-86121658D01*
X155581091Y-86121658D01*
X155581092Y-86121659D01*
X155726079Y-86150500D01*
X155726082Y-86150500D01*
X155873920Y-86150500D01*
X155971462Y-86131096D01*
X156018913Y-86121658D01*
X156155495Y-86065084D01*
X156278416Y-85982951D01*
X156382951Y-85878416D01*
X156465084Y-85755495D01*
X156521658Y-85618913D01*
X156550500Y-85473920D01*
X161449499Y-85473920D01*
X161478340Y-85618907D01*
X161478343Y-85618917D01*
X161534912Y-85755488D01*
X161534919Y-85755501D01*
X161617048Y-85878415D01*
X161617051Y-85878419D01*
X161721580Y-85982948D01*
X161721584Y-85982951D01*
X161844498Y-86065080D01*
X161844511Y-86065087D01*
X161981082Y-86121656D01*
X161981087Y-86121658D01*
X161981091Y-86121658D01*
X161981092Y-86121659D01*
X162126079Y-86150500D01*
X162126082Y-86150500D01*
X162273920Y-86150500D01*
X162371462Y-86131096D01*
X162418913Y-86121658D01*
X162555495Y-86065084D01*
X162678416Y-85982951D01*
X162782951Y-85878416D01*
X162865084Y-85755495D01*
X162898873Y-85673920D01*
X168049499Y-85673920D01*
X168078340Y-85818907D01*
X168078343Y-85818917D01*
X168134912Y-85955488D01*
X168134919Y-85955501D01*
X168217048Y-86078415D01*
X168217051Y-86078419D01*
X168321580Y-86182948D01*
X168321584Y-86182951D01*
X168444498Y-86265080D01*
X168444511Y-86265087D01*
X168581082Y-86321656D01*
X168581087Y-86321658D01*
X168581091Y-86321658D01*
X168581092Y-86321659D01*
X168726079Y-86350500D01*
X168726082Y-86350500D01*
X168873920Y-86350500D01*
X168971462Y-86331096D01*
X169018913Y-86321658D01*
X169155495Y-86265084D01*
X169278416Y-86182951D01*
X169382951Y-86078416D01*
X169465084Y-85955495D01*
X169498873Y-85873920D01*
X174649499Y-85873920D01*
X174678340Y-86018907D01*
X174678343Y-86018917D01*
X174734912Y-86155488D01*
X174734919Y-86155501D01*
X174817048Y-86278415D01*
X174817051Y-86278419D01*
X174921580Y-86382948D01*
X174921584Y-86382951D01*
X175044498Y-86465080D01*
X175044511Y-86465087D01*
X175181082Y-86521656D01*
X175181087Y-86521658D01*
X175181091Y-86521658D01*
X175181092Y-86521659D01*
X175326079Y-86550500D01*
X175326082Y-86550500D01*
X175473920Y-86550500D01*
X175571462Y-86531096D01*
X175618913Y-86521658D01*
X175755495Y-86465084D01*
X175878416Y-86382951D01*
X175982951Y-86278416D01*
X176065084Y-86155495D01*
X176121658Y-86018913D01*
X176149605Y-85878419D01*
X176150500Y-85873920D01*
X176150500Y-85726079D01*
X176121659Y-85581092D01*
X176121658Y-85581091D01*
X176121658Y-85581087D01*
X176098873Y-85526079D01*
X176065087Y-85444511D01*
X176065080Y-85444498D01*
X175982951Y-85321584D01*
X175982948Y-85321580D01*
X175878419Y-85217051D01*
X175878415Y-85217048D01*
X175755501Y-85134919D01*
X175755488Y-85134912D01*
X175618917Y-85078343D01*
X175618907Y-85078340D01*
X175473920Y-85049500D01*
X175473918Y-85049500D01*
X175326082Y-85049500D01*
X175326080Y-85049500D01*
X175181092Y-85078340D01*
X175181082Y-85078343D01*
X175044511Y-85134912D01*
X175044498Y-85134919D01*
X174921584Y-85217048D01*
X174921580Y-85217051D01*
X174817051Y-85321580D01*
X174817048Y-85321584D01*
X174734919Y-85444498D01*
X174734912Y-85444511D01*
X174678343Y-85581082D01*
X174678340Y-85581092D01*
X174649500Y-85726079D01*
X174649500Y-85726082D01*
X174649500Y-85873918D01*
X174649500Y-85873920D01*
X174649499Y-85873920D01*
X169498873Y-85873920D01*
X169521658Y-85818913D01*
X169550500Y-85673918D01*
X169550500Y-85526082D01*
X169550500Y-85526079D01*
X169521659Y-85381092D01*
X169521658Y-85381091D01*
X169521658Y-85381087D01*
X169497011Y-85321584D01*
X169465087Y-85244511D01*
X169465080Y-85244498D01*
X169382951Y-85121584D01*
X169382948Y-85121580D01*
X169278419Y-85017051D01*
X169278415Y-85017048D01*
X169155501Y-84934919D01*
X169155488Y-84934912D01*
X169018917Y-84878343D01*
X169018907Y-84878340D01*
X168873920Y-84849500D01*
X168873918Y-84849500D01*
X168726082Y-84849500D01*
X168726080Y-84849500D01*
X168581092Y-84878340D01*
X168581082Y-84878343D01*
X168444511Y-84934912D01*
X168444498Y-84934919D01*
X168321584Y-85017048D01*
X168321580Y-85017051D01*
X168217051Y-85121580D01*
X168217048Y-85121584D01*
X168134919Y-85244498D01*
X168134912Y-85244511D01*
X168078343Y-85381082D01*
X168078340Y-85381092D01*
X168049500Y-85526079D01*
X168049500Y-85526082D01*
X168049500Y-85673918D01*
X168049500Y-85673920D01*
X168049499Y-85673920D01*
X162898873Y-85673920D01*
X162921658Y-85618913D01*
X162950500Y-85473918D01*
X162950500Y-85326082D01*
X162950500Y-85326079D01*
X162921659Y-85181092D01*
X162921658Y-85181091D01*
X162921658Y-85181087D01*
X162902535Y-85134919D01*
X162865087Y-85044511D01*
X162865080Y-85044498D01*
X162782951Y-84921584D01*
X162782948Y-84921580D01*
X162678419Y-84817051D01*
X162678415Y-84817048D01*
X162555501Y-84734919D01*
X162555488Y-84734912D01*
X162418917Y-84678343D01*
X162418907Y-84678340D01*
X162273920Y-84649500D01*
X162273918Y-84649500D01*
X162126082Y-84649500D01*
X162126080Y-84649500D01*
X161981092Y-84678340D01*
X161981082Y-84678343D01*
X161844511Y-84734912D01*
X161844498Y-84734919D01*
X161721584Y-84817048D01*
X161721580Y-84817051D01*
X161617051Y-84921580D01*
X161617048Y-84921584D01*
X161534919Y-85044498D01*
X161534912Y-85044511D01*
X161478343Y-85181082D01*
X161478340Y-85181092D01*
X161449500Y-85326079D01*
X161449500Y-85326082D01*
X161449500Y-85473918D01*
X161449500Y-85473920D01*
X161449499Y-85473920D01*
X156550500Y-85473920D01*
X156550500Y-85473918D01*
X156550500Y-85326082D01*
X156550500Y-85326079D01*
X156521659Y-85181092D01*
X156521658Y-85181091D01*
X156521658Y-85181087D01*
X156502535Y-85134919D01*
X156465087Y-85044511D01*
X156465080Y-85044498D01*
X156382951Y-84921584D01*
X156382948Y-84921580D01*
X156278419Y-84817051D01*
X156278415Y-84817048D01*
X156155501Y-84734919D01*
X156155488Y-84734912D01*
X156018917Y-84678343D01*
X156018907Y-84678340D01*
X155873920Y-84649500D01*
X155873918Y-84649500D01*
X155726082Y-84649500D01*
X155726080Y-84649500D01*
X155581092Y-84678340D01*
X155581082Y-84678343D01*
X155444511Y-84734912D01*
X155444498Y-84734919D01*
X155321584Y-84817048D01*
X155321580Y-84817051D01*
X155217051Y-84921580D01*
X155217048Y-84921584D01*
X155134919Y-85044498D01*
X155134912Y-85044511D01*
X155078343Y-85181082D01*
X155078340Y-85181092D01*
X155049500Y-85326079D01*
X155049500Y-85326082D01*
X155049500Y-85473918D01*
X155049500Y-85473920D01*
X155049499Y-85473920D01*
X149550500Y-85473920D01*
X149550500Y-85473918D01*
X149550500Y-85326082D01*
X149550500Y-85326079D01*
X149521659Y-85181092D01*
X149521658Y-85181091D01*
X149521658Y-85181087D01*
X149502535Y-85134919D01*
X149465087Y-85044511D01*
X149465080Y-85044498D01*
X149382951Y-84921584D01*
X149382948Y-84921580D01*
X149278419Y-84817051D01*
X149278415Y-84817048D01*
X149155501Y-84734919D01*
X149155488Y-84734912D01*
X149018917Y-84678343D01*
X149018907Y-84678340D01*
X148873920Y-84649500D01*
X148873918Y-84649500D01*
X148726082Y-84649500D01*
X148726080Y-84649500D01*
X148581092Y-84678340D01*
X148581082Y-84678343D01*
X148444511Y-84734912D01*
X148444498Y-84734919D01*
X148321584Y-84817048D01*
X148321580Y-84817051D01*
X148217051Y-84921580D01*
X148217048Y-84921584D01*
X148134919Y-85044498D01*
X148134912Y-85044511D01*
X148078343Y-85181082D01*
X148078340Y-85181092D01*
X148049500Y-85326079D01*
X148049500Y-85326082D01*
X148049500Y-85473918D01*
X148049500Y-85473920D01*
X148049499Y-85473920D01*
X142950500Y-85473920D01*
X142950500Y-85473918D01*
X142950500Y-85326082D01*
X142950500Y-85326079D01*
X142921659Y-85181092D01*
X142921658Y-85181091D01*
X142921658Y-85181087D01*
X142902535Y-85134919D01*
X142865087Y-85044511D01*
X142865080Y-85044498D01*
X142782951Y-84921584D01*
X142782948Y-84921580D01*
X142678419Y-84817051D01*
X142678415Y-84817048D01*
X142555501Y-84734919D01*
X142555488Y-84734912D01*
X142418917Y-84678343D01*
X142418907Y-84678340D01*
X142273920Y-84649500D01*
X142273918Y-84649500D01*
X142126082Y-84649500D01*
X142126080Y-84649500D01*
X141981092Y-84678340D01*
X141981082Y-84678343D01*
X141844511Y-84734912D01*
X141844498Y-84734919D01*
X141721584Y-84817048D01*
X141721580Y-84817051D01*
X141617051Y-84921580D01*
X141617048Y-84921584D01*
X141534919Y-85044498D01*
X141534912Y-85044511D01*
X141478343Y-85181082D01*
X141478340Y-85181092D01*
X141449500Y-85326079D01*
X141449500Y-85326082D01*
X141449500Y-85473918D01*
X141449500Y-85473920D01*
X141449499Y-85473920D01*
X136550500Y-85473920D01*
X136550500Y-85473918D01*
X136550500Y-85326082D01*
X136550500Y-85326079D01*
X136521659Y-85181092D01*
X136521658Y-85181091D01*
X136521658Y-85181087D01*
X136502535Y-85134919D01*
X136465087Y-85044511D01*
X136465080Y-85044498D01*
X136382951Y-84921584D01*
X136382948Y-84921580D01*
X136278419Y-84817051D01*
X136278415Y-84817048D01*
X136155501Y-84734919D01*
X136155488Y-84734912D01*
X136018917Y-84678343D01*
X136018907Y-84678340D01*
X135873920Y-84649500D01*
X135873918Y-84649500D01*
X135726082Y-84649500D01*
X135726080Y-84649500D01*
X135581092Y-84678340D01*
X135581082Y-84678343D01*
X135444511Y-84734912D01*
X135444498Y-84734919D01*
X135321584Y-84817048D01*
X135321580Y-84817051D01*
X135217051Y-84921580D01*
X135217048Y-84921584D01*
X135134919Y-85044498D01*
X135134912Y-85044511D01*
X135078343Y-85181082D01*
X135078340Y-85181092D01*
X135049500Y-85326079D01*
X135049500Y-85326082D01*
X135049500Y-85473918D01*
X135049500Y-85473920D01*
X135049499Y-85473920D01*
X129950500Y-85473920D01*
X129950500Y-85473918D01*
X129950500Y-85326082D01*
X129950500Y-85326079D01*
X129921659Y-85181092D01*
X129921658Y-85181091D01*
X129921658Y-85181087D01*
X129902535Y-85134919D01*
X129865087Y-85044511D01*
X129865080Y-85044498D01*
X129782951Y-84921584D01*
X129782948Y-84921580D01*
X129678419Y-84817051D01*
X129678415Y-84817048D01*
X129555501Y-84734919D01*
X129555488Y-84734912D01*
X129418917Y-84678343D01*
X129418907Y-84678340D01*
X129273920Y-84649500D01*
X129273918Y-84649500D01*
X129126082Y-84649500D01*
X129126080Y-84649500D01*
X128981092Y-84678340D01*
X128981082Y-84678343D01*
X128844511Y-84734912D01*
X128844498Y-84734919D01*
X128721584Y-84817048D01*
X128721580Y-84817051D01*
X128617051Y-84921580D01*
X128617048Y-84921584D01*
X128534919Y-85044498D01*
X128534912Y-85044511D01*
X128478343Y-85181082D01*
X128478340Y-85181092D01*
X128449500Y-85326079D01*
X128449500Y-85326082D01*
X128449500Y-85473918D01*
X128449500Y-85473920D01*
X128449499Y-85473920D01*
X124200000Y-85473920D01*
X124200000Y-78582062D01*
X124219685Y-78515023D01*
X124272489Y-78469268D01*
X124324000Y-78458062D01*
X177676000Y-78458062D01*
X177743039Y-78477747D01*
G37*
%TD.AperFunction*%
%TD*%
M02*
