%TF.GenerationSoftware,KiCad,Pcbnew,9.0.7-9.0.7~ubuntu24.04.1*%
%TF.CreationDate,2026-01-13T16:37:34+01:00*%
%TF.ProjectId,can_uart,63616e5f-7561-4727-942e-6b696361645f,1.0*%
%TF.SameCoordinates,Original*%
%TF.FileFunction,Soldermask,Bot*%
%TF.FilePolarity,Negative*%
%FSLAX46Y46*%
G04 Gerber Fmt 4.6, Leading zero omitted, Abs format (unit mm)*
G04 Created by KiCad (PCBNEW 9.0.7-9.0.7~ubuntu24.04.1) date 2026-01-13 16:37:34*
%MOMM*%
%LPD*%
G01*
G04 APERTURE LIST*
G04 APERTURE END LIST*
G36*
X119482068Y-109697941D02*
G01*
X119620619Y-109755330D01*
X119745311Y-109838647D01*
X119851353Y-109944689D01*
X119934670Y-110069381D01*
X119992059Y-110207932D01*
X120021316Y-110355017D01*
X120021316Y-110504983D01*
X119992059Y-110652068D01*
X119934670Y-110790619D01*
X119851353Y-110915311D01*
X119745311Y-111021353D01*
X119620619Y-111104670D01*
X119482068Y-111162059D01*
X119334983Y-111191316D01*
X119185017Y-111191316D01*
X119037932Y-111162059D01*
X118899381Y-111104670D01*
X118774689Y-111021353D01*
X118668647Y-110915311D01*
X118585330Y-110790619D01*
X118527941Y-110652068D01*
X118498684Y-110504983D01*
X118498684Y-110355017D01*
X118527941Y-110207932D01*
X118585330Y-110069381D01*
X118668647Y-109944689D01*
X118774689Y-109838647D01*
X118899381Y-109755330D01*
X119037932Y-109697941D01*
X119185017Y-109668684D01*
X119334983Y-109668684D01*
X119482068Y-109697941D01*
G37*
G36*
X122022068Y-109697941D02*
G01*
X122160619Y-109755330D01*
X122285311Y-109838647D01*
X122391353Y-109944689D01*
X122474670Y-110069381D01*
X122532059Y-110207932D01*
X122561316Y-110355017D01*
X122561316Y-110504983D01*
X122532059Y-110652068D01*
X122474670Y-110790619D01*
X122391353Y-110915311D01*
X122285311Y-111021353D01*
X122160619Y-111104670D01*
X122022068Y-111162059D01*
X121874983Y-111191316D01*
X121725017Y-111191316D01*
X121577932Y-111162059D01*
X121439381Y-111104670D01*
X121314689Y-111021353D01*
X121208647Y-110915311D01*
X121125330Y-110790619D01*
X121067941Y-110652068D01*
X121038684Y-110504983D01*
X121038684Y-110355017D01*
X121067941Y-110207932D01*
X121125330Y-110069381D01*
X121208647Y-109944689D01*
X121314689Y-109838647D01*
X121439381Y-109755330D01*
X121577932Y-109697941D01*
X121725017Y-109668684D01*
X121874983Y-109668684D01*
X122022068Y-109697941D01*
G37*
G36*
X180422068Y-109697941D02*
G01*
X180560619Y-109755330D01*
X180685311Y-109838647D01*
X180791353Y-109944689D01*
X180874670Y-110069381D01*
X180932059Y-110207932D01*
X180961316Y-110355017D01*
X180961316Y-110504983D01*
X180932059Y-110652068D01*
X180874670Y-110790619D01*
X180791353Y-110915311D01*
X180685311Y-111021353D01*
X180560619Y-111104670D01*
X180422068Y-111162059D01*
X180274983Y-111191316D01*
X180125017Y-111191316D01*
X179977932Y-111162059D01*
X179839381Y-111104670D01*
X179714689Y-111021353D01*
X179608647Y-110915311D01*
X179525330Y-110790619D01*
X179467941Y-110652068D01*
X179438684Y-110504983D01*
X179438684Y-110355017D01*
X179467941Y-110207932D01*
X179525330Y-110069381D01*
X179608647Y-109944689D01*
X179714689Y-109838647D01*
X179839381Y-109755330D01*
X179977932Y-109697941D01*
X180125017Y-109668684D01*
X180274983Y-109668684D01*
X180422068Y-109697941D01*
G37*
G36*
X182962068Y-109697941D02*
G01*
X183100619Y-109755330D01*
X183225311Y-109838647D01*
X183331353Y-109944689D01*
X183414670Y-110069381D01*
X183472059Y-110207932D01*
X183501316Y-110355017D01*
X183501316Y-110504983D01*
X183472059Y-110652068D01*
X183414670Y-110790619D01*
X183331353Y-110915311D01*
X183225311Y-111021353D01*
X183100619Y-111104670D01*
X182962068Y-111162059D01*
X182814983Y-111191316D01*
X182665017Y-111191316D01*
X182517932Y-111162059D01*
X182379381Y-111104670D01*
X182254689Y-111021353D01*
X182148647Y-110915311D01*
X182065330Y-110790619D01*
X182007941Y-110652068D01*
X181978684Y-110504983D01*
X181978684Y-110355017D01*
X182007941Y-110207932D01*
X182065330Y-110069381D01*
X182148647Y-109944689D01*
X182254689Y-109838647D01*
X182379381Y-109755330D01*
X182517932Y-109697941D01*
X182665017Y-109668684D01*
X182814983Y-109668684D01*
X182962068Y-109697941D01*
G37*
G36*
X119482068Y-107157941D02*
G01*
X119620619Y-107215330D01*
X119745311Y-107298647D01*
X119851353Y-107404689D01*
X119934670Y-107529381D01*
X119992059Y-107667932D01*
X120021316Y-107815017D01*
X120021316Y-107964983D01*
X119992059Y-108112068D01*
X119934670Y-108250619D01*
X119851353Y-108375311D01*
X119745311Y-108481353D01*
X119620619Y-108564670D01*
X119482068Y-108622059D01*
X119334983Y-108651316D01*
X119185017Y-108651316D01*
X119037932Y-108622059D01*
X118899381Y-108564670D01*
X118774689Y-108481353D01*
X118668647Y-108375311D01*
X118585330Y-108250619D01*
X118527941Y-108112068D01*
X118498684Y-107964983D01*
X118498684Y-107815017D01*
X118527941Y-107667932D01*
X118585330Y-107529381D01*
X118668647Y-107404689D01*
X118774689Y-107298647D01*
X118899381Y-107215330D01*
X119037932Y-107157941D01*
X119185017Y-107128684D01*
X119334983Y-107128684D01*
X119482068Y-107157941D01*
G37*
G36*
X122022068Y-107157941D02*
G01*
X122160619Y-107215330D01*
X122285311Y-107298647D01*
X122391353Y-107404689D01*
X122474670Y-107529381D01*
X122532059Y-107667932D01*
X122561316Y-107815017D01*
X122561316Y-107964983D01*
X122532059Y-108112068D01*
X122474670Y-108250619D01*
X122391353Y-108375311D01*
X122285311Y-108481353D01*
X122160619Y-108564670D01*
X122022068Y-108622059D01*
X121874983Y-108651316D01*
X121725017Y-108651316D01*
X121577932Y-108622059D01*
X121439381Y-108564670D01*
X121314689Y-108481353D01*
X121208647Y-108375311D01*
X121125330Y-108250619D01*
X121067941Y-108112068D01*
X121038684Y-107964983D01*
X121038684Y-107815017D01*
X121067941Y-107667932D01*
X121125330Y-107529381D01*
X121208647Y-107404689D01*
X121314689Y-107298647D01*
X121439381Y-107215330D01*
X121577932Y-107157941D01*
X121725017Y-107128684D01*
X121874983Y-107128684D01*
X122022068Y-107157941D01*
G37*
G36*
X180422068Y-107157941D02*
G01*
X180560619Y-107215330D01*
X180685311Y-107298647D01*
X180791353Y-107404689D01*
X180874670Y-107529381D01*
X180932059Y-107667932D01*
X180961316Y-107815017D01*
X180961316Y-107964983D01*
X180932059Y-108112068D01*
X180874670Y-108250619D01*
X180791353Y-108375311D01*
X180685311Y-108481353D01*
X180560619Y-108564670D01*
X180422068Y-108622059D01*
X180274983Y-108651316D01*
X180125017Y-108651316D01*
X179977932Y-108622059D01*
X179839381Y-108564670D01*
X179714689Y-108481353D01*
X179608647Y-108375311D01*
X179525330Y-108250619D01*
X179467941Y-108112068D01*
X179438684Y-107964983D01*
X179438684Y-107815017D01*
X179467941Y-107667932D01*
X179525330Y-107529381D01*
X179608647Y-107404689D01*
X179714689Y-107298647D01*
X179839381Y-107215330D01*
X179977932Y-107157941D01*
X180125017Y-107128684D01*
X180274983Y-107128684D01*
X180422068Y-107157941D01*
G37*
G36*
X182962068Y-107157941D02*
G01*
X183100619Y-107215330D01*
X183225311Y-107298647D01*
X183331353Y-107404689D01*
X183414670Y-107529381D01*
X183472059Y-107667932D01*
X183501316Y-107815017D01*
X183501316Y-107964983D01*
X183472059Y-108112068D01*
X183414670Y-108250619D01*
X183331353Y-108375311D01*
X183225311Y-108481353D01*
X183100619Y-108564670D01*
X182962068Y-108622059D01*
X182814983Y-108651316D01*
X182665017Y-108651316D01*
X182517932Y-108622059D01*
X182379381Y-108564670D01*
X182254689Y-108481353D01*
X182148647Y-108375311D01*
X182065330Y-108250619D01*
X182007941Y-108112068D01*
X181978684Y-107964983D01*
X181978684Y-107815017D01*
X182007941Y-107667932D01*
X182065330Y-107529381D01*
X182148647Y-107404689D01*
X182254689Y-107298647D01*
X182379381Y-107215330D01*
X182517932Y-107157941D01*
X182665017Y-107128684D01*
X182814983Y-107128684D01*
X182962068Y-107157941D01*
G37*
G36*
X119482068Y-104617941D02*
G01*
X119620619Y-104675330D01*
X119745311Y-104758647D01*
X119851353Y-104864689D01*
X119934670Y-104989381D01*
X119992059Y-105127932D01*
X120021316Y-105275017D01*
X120021316Y-105424983D01*
X119992059Y-105572068D01*
X119934670Y-105710619D01*
X119851353Y-105835311D01*
X119745311Y-105941353D01*
X119620619Y-106024670D01*
X119482068Y-106082059D01*
X119334983Y-106111316D01*
X119185017Y-106111316D01*
X119037932Y-106082059D01*
X118899381Y-106024670D01*
X118774689Y-105941353D01*
X118668647Y-105835311D01*
X118585330Y-105710619D01*
X118527941Y-105572068D01*
X118498684Y-105424983D01*
X118498684Y-105275017D01*
X118527941Y-105127932D01*
X118585330Y-104989381D01*
X118668647Y-104864689D01*
X118774689Y-104758647D01*
X118899381Y-104675330D01*
X119037932Y-104617941D01*
X119185017Y-104588684D01*
X119334983Y-104588684D01*
X119482068Y-104617941D01*
G37*
G36*
X122022068Y-104617941D02*
G01*
X122160619Y-104675330D01*
X122285311Y-104758647D01*
X122391353Y-104864689D01*
X122474670Y-104989381D01*
X122532059Y-105127932D01*
X122561316Y-105275017D01*
X122561316Y-105424983D01*
X122532059Y-105572068D01*
X122474670Y-105710619D01*
X122391353Y-105835311D01*
X122285311Y-105941353D01*
X122160619Y-106024670D01*
X122022068Y-106082059D01*
X121874983Y-106111316D01*
X121725017Y-106111316D01*
X121577932Y-106082059D01*
X121439381Y-106024670D01*
X121314689Y-105941353D01*
X121208647Y-105835311D01*
X121125330Y-105710619D01*
X121067941Y-105572068D01*
X121038684Y-105424983D01*
X121038684Y-105275017D01*
X121067941Y-105127932D01*
X121125330Y-104989381D01*
X121208647Y-104864689D01*
X121314689Y-104758647D01*
X121439381Y-104675330D01*
X121577932Y-104617941D01*
X121725017Y-104588684D01*
X121874983Y-104588684D01*
X122022068Y-104617941D01*
G37*
G36*
X180422068Y-104617941D02*
G01*
X180560619Y-104675330D01*
X180685311Y-104758647D01*
X180791353Y-104864689D01*
X180874670Y-104989381D01*
X180932059Y-105127932D01*
X180961316Y-105275017D01*
X180961316Y-105424983D01*
X180932059Y-105572068D01*
X180874670Y-105710619D01*
X180791353Y-105835311D01*
X180685311Y-105941353D01*
X180560619Y-106024670D01*
X180422068Y-106082059D01*
X180274983Y-106111316D01*
X180125017Y-106111316D01*
X179977932Y-106082059D01*
X179839381Y-106024670D01*
X179714689Y-105941353D01*
X179608647Y-105835311D01*
X179525330Y-105710619D01*
X179467941Y-105572068D01*
X179438684Y-105424983D01*
X179438684Y-105275017D01*
X179467941Y-105127932D01*
X179525330Y-104989381D01*
X179608647Y-104864689D01*
X179714689Y-104758647D01*
X179839381Y-104675330D01*
X179977932Y-104617941D01*
X180125017Y-104588684D01*
X180274983Y-104588684D01*
X180422068Y-104617941D01*
G37*
G36*
X182962068Y-104617941D02*
G01*
X183100619Y-104675330D01*
X183225311Y-104758647D01*
X183331353Y-104864689D01*
X183414670Y-104989381D01*
X183472059Y-105127932D01*
X183501316Y-105275017D01*
X183501316Y-105424983D01*
X183472059Y-105572068D01*
X183414670Y-105710619D01*
X183331353Y-105835311D01*
X183225311Y-105941353D01*
X183100619Y-106024670D01*
X182962068Y-106082059D01*
X182814983Y-106111316D01*
X182665017Y-106111316D01*
X182517932Y-106082059D01*
X182379381Y-106024670D01*
X182254689Y-105941353D01*
X182148647Y-105835311D01*
X182065330Y-105710619D01*
X182007941Y-105572068D01*
X181978684Y-105424983D01*
X181978684Y-105275017D01*
X182007941Y-105127932D01*
X182065330Y-104989381D01*
X182148647Y-104864689D01*
X182254689Y-104758647D01*
X182379381Y-104675330D01*
X182517932Y-104617941D01*
X182665017Y-104588684D01*
X182814983Y-104588684D01*
X182962068Y-104617941D01*
G37*
G36*
X119482068Y-102077941D02*
G01*
X119620619Y-102135330D01*
X119745311Y-102218647D01*
X119851353Y-102324689D01*
X119934670Y-102449381D01*
X119992059Y-102587932D01*
X120021316Y-102735017D01*
X120021316Y-102884983D01*
X119992059Y-103032068D01*
X119934670Y-103170619D01*
X119851353Y-103295311D01*
X119745311Y-103401353D01*
X119620619Y-103484670D01*
X119482068Y-103542059D01*
X119334983Y-103571316D01*
X119185017Y-103571316D01*
X119037932Y-103542059D01*
X118899381Y-103484670D01*
X118774689Y-103401353D01*
X118668647Y-103295311D01*
X118585330Y-103170619D01*
X118527941Y-103032068D01*
X118498684Y-102884983D01*
X118498684Y-102735017D01*
X118527941Y-102587932D01*
X118585330Y-102449381D01*
X118668647Y-102324689D01*
X118774689Y-102218647D01*
X118899381Y-102135330D01*
X119037932Y-102077941D01*
X119185017Y-102048684D01*
X119334983Y-102048684D01*
X119482068Y-102077941D01*
G37*
G36*
X122022068Y-102077941D02*
G01*
X122160619Y-102135330D01*
X122285311Y-102218647D01*
X122391353Y-102324689D01*
X122474670Y-102449381D01*
X122532059Y-102587932D01*
X122561316Y-102735017D01*
X122561316Y-102884983D01*
X122532059Y-103032068D01*
X122474670Y-103170619D01*
X122391353Y-103295311D01*
X122285311Y-103401353D01*
X122160619Y-103484670D01*
X122022068Y-103542059D01*
X121874983Y-103571316D01*
X121725017Y-103571316D01*
X121577932Y-103542059D01*
X121439381Y-103484670D01*
X121314689Y-103401353D01*
X121208647Y-103295311D01*
X121125330Y-103170619D01*
X121067941Y-103032068D01*
X121038684Y-102884983D01*
X121038684Y-102735017D01*
X121067941Y-102587932D01*
X121125330Y-102449381D01*
X121208647Y-102324689D01*
X121314689Y-102218647D01*
X121439381Y-102135330D01*
X121577932Y-102077941D01*
X121725017Y-102048684D01*
X121874983Y-102048684D01*
X122022068Y-102077941D01*
G37*
G36*
X180422068Y-102077941D02*
G01*
X180560619Y-102135330D01*
X180685311Y-102218647D01*
X180791353Y-102324689D01*
X180874670Y-102449381D01*
X180932059Y-102587932D01*
X180961316Y-102735017D01*
X180961316Y-102884983D01*
X180932059Y-103032068D01*
X180874670Y-103170619D01*
X180791353Y-103295311D01*
X180685311Y-103401353D01*
X180560619Y-103484670D01*
X180422068Y-103542059D01*
X180274983Y-103571316D01*
X180125017Y-103571316D01*
X179977932Y-103542059D01*
X179839381Y-103484670D01*
X179714689Y-103401353D01*
X179608647Y-103295311D01*
X179525330Y-103170619D01*
X179467941Y-103032068D01*
X179438684Y-102884983D01*
X179438684Y-102735017D01*
X179467941Y-102587932D01*
X179525330Y-102449381D01*
X179608647Y-102324689D01*
X179714689Y-102218647D01*
X179839381Y-102135330D01*
X179977932Y-102077941D01*
X180125017Y-102048684D01*
X180274983Y-102048684D01*
X180422068Y-102077941D01*
G37*
G36*
X182962068Y-102077941D02*
G01*
X183100619Y-102135330D01*
X183225311Y-102218647D01*
X183331353Y-102324689D01*
X183414670Y-102449381D01*
X183472059Y-102587932D01*
X183501316Y-102735017D01*
X183501316Y-102884983D01*
X183472059Y-103032068D01*
X183414670Y-103170619D01*
X183331353Y-103295311D01*
X183225311Y-103401353D01*
X183100619Y-103484670D01*
X182962068Y-103542059D01*
X182814983Y-103571316D01*
X182665017Y-103571316D01*
X182517932Y-103542059D01*
X182379381Y-103484670D01*
X182254689Y-103401353D01*
X182148647Y-103295311D01*
X182065330Y-103170619D01*
X182007941Y-103032068D01*
X181978684Y-102884983D01*
X181978684Y-102735017D01*
X182007941Y-102587932D01*
X182065330Y-102449381D01*
X182148647Y-102324689D01*
X182254689Y-102218647D01*
X182379381Y-102135330D01*
X182517932Y-102077941D01*
X182665017Y-102048684D01*
X182814983Y-102048684D01*
X182962068Y-102077941D01*
G37*
G36*
X119482068Y-99537941D02*
G01*
X119620619Y-99595330D01*
X119745311Y-99678647D01*
X119851353Y-99784689D01*
X119934670Y-99909381D01*
X119992059Y-100047932D01*
X120021316Y-100195017D01*
X120021316Y-100344983D01*
X119992059Y-100492068D01*
X119934670Y-100630619D01*
X119851353Y-100755311D01*
X119745311Y-100861353D01*
X119620619Y-100944670D01*
X119482068Y-101002059D01*
X119334983Y-101031316D01*
X119185017Y-101031316D01*
X119037932Y-101002059D01*
X118899381Y-100944670D01*
X118774689Y-100861353D01*
X118668647Y-100755311D01*
X118585330Y-100630619D01*
X118527941Y-100492068D01*
X118498684Y-100344983D01*
X118498684Y-100195017D01*
X118527941Y-100047932D01*
X118585330Y-99909381D01*
X118668647Y-99784689D01*
X118774689Y-99678647D01*
X118899381Y-99595330D01*
X119037932Y-99537941D01*
X119185017Y-99508684D01*
X119334983Y-99508684D01*
X119482068Y-99537941D01*
G37*
G36*
X122022068Y-99537941D02*
G01*
X122160619Y-99595330D01*
X122285311Y-99678647D01*
X122391353Y-99784689D01*
X122474670Y-99909381D01*
X122532059Y-100047932D01*
X122561316Y-100195017D01*
X122561316Y-100344983D01*
X122532059Y-100492068D01*
X122474670Y-100630619D01*
X122391353Y-100755311D01*
X122285311Y-100861353D01*
X122160619Y-100944670D01*
X122022068Y-101002059D01*
X121874983Y-101031316D01*
X121725017Y-101031316D01*
X121577932Y-101002059D01*
X121439381Y-100944670D01*
X121314689Y-100861353D01*
X121208647Y-100755311D01*
X121125330Y-100630619D01*
X121067941Y-100492068D01*
X121038684Y-100344983D01*
X121038684Y-100195017D01*
X121067941Y-100047932D01*
X121125330Y-99909381D01*
X121208647Y-99784689D01*
X121314689Y-99678647D01*
X121439381Y-99595330D01*
X121577932Y-99537941D01*
X121725017Y-99508684D01*
X121874983Y-99508684D01*
X122022068Y-99537941D01*
G37*
G36*
X180422068Y-99537941D02*
G01*
X180560619Y-99595330D01*
X180685311Y-99678647D01*
X180791353Y-99784689D01*
X180874670Y-99909381D01*
X180932059Y-100047932D01*
X180961316Y-100195017D01*
X180961316Y-100344983D01*
X180932059Y-100492068D01*
X180874670Y-100630619D01*
X180791353Y-100755311D01*
X180685311Y-100861353D01*
X180560619Y-100944670D01*
X180422068Y-101002059D01*
X180274983Y-101031316D01*
X180125017Y-101031316D01*
X179977932Y-101002059D01*
X179839381Y-100944670D01*
X179714689Y-100861353D01*
X179608647Y-100755311D01*
X179525330Y-100630619D01*
X179467941Y-100492068D01*
X179438684Y-100344983D01*
X179438684Y-100195017D01*
X179467941Y-100047932D01*
X179525330Y-99909381D01*
X179608647Y-99784689D01*
X179714689Y-99678647D01*
X179839381Y-99595330D01*
X179977932Y-99537941D01*
X180125017Y-99508684D01*
X180274983Y-99508684D01*
X180422068Y-99537941D01*
G37*
G36*
X182962068Y-99537941D02*
G01*
X183100619Y-99595330D01*
X183225311Y-99678647D01*
X183331353Y-99784689D01*
X183414670Y-99909381D01*
X183472059Y-100047932D01*
X183501316Y-100195017D01*
X183501316Y-100344983D01*
X183472059Y-100492068D01*
X183414670Y-100630619D01*
X183331353Y-100755311D01*
X183225311Y-100861353D01*
X183100619Y-100944670D01*
X182962068Y-101002059D01*
X182814983Y-101031316D01*
X182665017Y-101031316D01*
X182517932Y-101002059D01*
X182379381Y-100944670D01*
X182254689Y-100861353D01*
X182148647Y-100755311D01*
X182065330Y-100630619D01*
X182007941Y-100492068D01*
X181978684Y-100344983D01*
X181978684Y-100195017D01*
X182007941Y-100047932D01*
X182065330Y-99909381D01*
X182148647Y-99784689D01*
X182254689Y-99678647D01*
X182379381Y-99595330D01*
X182517932Y-99537941D01*
X182665017Y-99508684D01*
X182814983Y-99508684D01*
X182962068Y-99537941D01*
G37*
G36*
X156151476Y-98517117D02*
G01*
X156275819Y-98588907D01*
X156377344Y-98690432D01*
X156449134Y-98814775D01*
X156486295Y-98953462D01*
X156486295Y-99097040D01*
X156449134Y-99235727D01*
X156377344Y-99360070D01*
X156275819Y-99461595D01*
X156151476Y-99533385D01*
X156012789Y-99570546D01*
X155869211Y-99570546D01*
X155730524Y-99533385D01*
X155606181Y-99461595D01*
X155504656Y-99360070D01*
X155432866Y-99235727D01*
X155395705Y-99097040D01*
X155395705Y-98953462D01*
X155432866Y-98814775D01*
X155504656Y-98690432D01*
X155606181Y-98588907D01*
X155730524Y-98517117D01*
X155869211Y-98479956D01*
X156012789Y-98479956D01*
X156151476Y-98517117D01*
G37*
G36*
X158691476Y-98517117D02*
G01*
X158815819Y-98588907D01*
X158917344Y-98690432D01*
X158989134Y-98814775D01*
X159026295Y-98953462D01*
X159026295Y-99097040D01*
X158989134Y-99235727D01*
X158917344Y-99360070D01*
X158815819Y-99461595D01*
X158691476Y-99533385D01*
X158552789Y-99570546D01*
X158409211Y-99570546D01*
X158270524Y-99533385D01*
X158146181Y-99461595D01*
X158044656Y-99360070D01*
X157972866Y-99235727D01*
X157935705Y-99097040D01*
X157935705Y-98953462D01*
X157972866Y-98814775D01*
X158044656Y-98690432D01*
X158146181Y-98588907D01*
X158270524Y-98517117D01*
X158409211Y-98479956D01*
X158552789Y-98479956D01*
X158691476Y-98517117D01*
G37*
G36*
X131110476Y-98431866D02*
G01*
X131234819Y-98503656D01*
X131336344Y-98605181D01*
X131408134Y-98729524D01*
X131445295Y-98868211D01*
X131445295Y-99011789D01*
X131408134Y-99150476D01*
X131336344Y-99274819D01*
X131234819Y-99376344D01*
X131110476Y-99448134D01*
X130971789Y-99485295D01*
X130828211Y-99485295D01*
X130689524Y-99448134D01*
X130565181Y-99376344D01*
X130463656Y-99274819D01*
X130391866Y-99150476D01*
X130354705Y-99011789D01*
X130354705Y-98868211D01*
X130391866Y-98729524D01*
X130463656Y-98605181D01*
X130565181Y-98503656D01*
X130689524Y-98431866D01*
X130828211Y-98394705D01*
X130971789Y-98394705D01*
X131110476Y-98431866D01*
G37*
G36*
X133650476Y-98431866D02*
G01*
X133774819Y-98503656D01*
X133876344Y-98605181D01*
X133948134Y-98729524D01*
X133985295Y-98868211D01*
X133985295Y-99011789D01*
X133948134Y-99150476D01*
X133876344Y-99274819D01*
X133774819Y-99376344D01*
X133650476Y-99448134D01*
X133511789Y-99485295D01*
X133368211Y-99485295D01*
X133229524Y-99448134D01*
X133105181Y-99376344D01*
X133003656Y-99274819D01*
X132931866Y-99150476D01*
X132894705Y-99011789D01*
X132894705Y-98868211D01*
X132931866Y-98729524D01*
X133003656Y-98605181D01*
X133105181Y-98503656D01*
X133229524Y-98431866D01*
X133368211Y-98394705D01*
X133511789Y-98394705D01*
X133650476Y-98431866D01*
G37*
G36*
X136190476Y-98431866D02*
G01*
X136314819Y-98503656D01*
X136416344Y-98605181D01*
X136488134Y-98729524D01*
X136525295Y-98868211D01*
X136525295Y-99011789D01*
X136488134Y-99150476D01*
X136416344Y-99274819D01*
X136314819Y-99376344D01*
X136190476Y-99448134D01*
X136051789Y-99485295D01*
X135908211Y-99485295D01*
X135769524Y-99448134D01*
X135645181Y-99376344D01*
X135543656Y-99274819D01*
X135471866Y-99150476D01*
X135434705Y-99011789D01*
X135434705Y-98868211D01*
X135471866Y-98729524D01*
X135543656Y-98605181D01*
X135645181Y-98503656D01*
X135769524Y-98431866D01*
X135908211Y-98394705D01*
X136051789Y-98394705D01*
X136190476Y-98431866D01*
G37*
G36*
X119482068Y-96997941D02*
G01*
X119620619Y-97055330D01*
X119745311Y-97138647D01*
X119851353Y-97244689D01*
X119934670Y-97369381D01*
X119992059Y-97507932D01*
X120021316Y-97655017D01*
X120021316Y-97804983D01*
X119992059Y-97952068D01*
X119934670Y-98090619D01*
X119851353Y-98215311D01*
X119745311Y-98321353D01*
X119620619Y-98404670D01*
X119482068Y-98462059D01*
X119334983Y-98491316D01*
X119185017Y-98491316D01*
X119037932Y-98462059D01*
X118899381Y-98404670D01*
X118774689Y-98321353D01*
X118668647Y-98215311D01*
X118585330Y-98090619D01*
X118527941Y-97952068D01*
X118498684Y-97804983D01*
X118498684Y-97655017D01*
X118527941Y-97507932D01*
X118585330Y-97369381D01*
X118668647Y-97244689D01*
X118774689Y-97138647D01*
X118899381Y-97055330D01*
X119037932Y-96997941D01*
X119185017Y-96968684D01*
X119334983Y-96968684D01*
X119482068Y-96997941D01*
G37*
G36*
X122022068Y-96997941D02*
G01*
X122160619Y-97055330D01*
X122285311Y-97138647D01*
X122391353Y-97244689D01*
X122474670Y-97369381D01*
X122532059Y-97507932D01*
X122561316Y-97655017D01*
X122561316Y-97804983D01*
X122532059Y-97952068D01*
X122474670Y-98090619D01*
X122391353Y-98215311D01*
X122285311Y-98321353D01*
X122160619Y-98404670D01*
X122022068Y-98462059D01*
X121874983Y-98491316D01*
X121725017Y-98491316D01*
X121577932Y-98462059D01*
X121439381Y-98404670D01*
X121314689Y-98321353D01*
X121208647Y-98215311D01*
X121125330Y-98090619D01*
X121067941Y-97952068D01*
X121038684Y-97804983D01*
X121038684Y-97655017D01*
X121067941Y-97507932D01*
X121125330Y-97369381D01*
X121208647Y-97244689D01*
X121314689Y-97138647D01*
X121439381Y-97055330D01*
X121577932Y-96997941D01*
X121725017Y-96968684D01*
X121874983Y-96968684D01*
X122022068Y-96997941D01*
G37*
G36*
X180422068Y-96997941D02*
G01*
X180560619Y-97055330D01*
X180685311Y-97138647D01*
X180791353Y-97244689D01*
X180874670Y-97369381D01*
X180932059Y-97507932D01*
X180961316Y-97655017D01*
X180961316Y-97804983D01*
X180932059Y-97952068D01*
X180874670Y-98090619D01*
X180791353Y-98215311D01*
X180685311Y-98321353D01*
X180560619Y-98404670D01*
X180422068Y-98462059D01*
X180274983Y-98491316D01*
X180125017Y-98491316D01*
X179977932Y-98462059D01*
X179839381Y-98404670D01*
X179714689Y-98321353D01*
X179608647Y-98215311D01*
X179525330Y-98090619D01*
X179467941Y-97952068D01*
X179438684Y-97804983D01*
X179438684Y-97655017D01*
X179467941Y-97507932D01*
X179525330Y-97369381D01*
X179608647Y-97244689D01*
X179714689Y-97138647D01*
X179839381Y-97055330D01*
X179977932Y-96997941D01*
X180125017Y-96968684D01*
X180274983Y-96968684D01*
X180422068Y-96997941D01*
G37*
G36*
X182962068Y-96997941D02*
G01*
X183100619Y-97055330D01*
X183225311Y-97138647D01*
X183331353Y-97244689D01*
X183414670Y-97369381D01*
X183472059Y-97507932D01*
X183501316Y-97655017D01*
X183501316Y-97804983D01*
X183472059Y-97952068D01*
X183414670Y-98090619D01*
X183331353Y-98215311D01*
X183225311Y-98321353D01*
X183100619Y-98404670D01*
X182962068Y-98462059D01*
X182814983Y-98491316D01*
X182665017Y-98491316D01*
X182517932Y-98462059D01*
X182379381Y-98404670D01*
X182254689Y-98321353D01*
X182148647Y-98215311D01*
X182065330Y-98090619D01*
X182007941Y-97952068D01*
X181978684Y-97804983D01*
X181978684Y-97655017D01*
X182007941Y-97507932D01*
X182065330Y-97369381D01*
X182148647Y-97244689D01*
X182254689Y-97138647D01*
X182379381Y-97055330D01*
X182517932Y-96997941D01*
X182665017Y-96968684D01*
X182814983Y-96968684D01*
X182962068Y-96997941D01*
G37*
G36*
X156766000Y-97310251D02*
G01*
X155116000Y-97310251D01*
X155116000Y-95660251D01*
X156766000Y-95660251D01*
X156766000Y-97310251D01*
G37*
G36*
X158720485Y-95695775D02*
G01*
X158869902Y-95757666D01*
X159004374Y-95847517D01*
X159118734Y-95961877D01*
X159208585Y-96096349D01*
X159270476Y-96245766D01*
X159302027Y-96404387D01*
X159302027Y-96566115D01*
X159270476Y-96724736D01*
X159208585Y-96874153D01*
X159118734Y-97008625D01*
X159004374Y-97122985D01*
X158869902Y-97212836D01*
X158720485Y-97274727D01*
X158561864Y-97306278D01*
X158400136Y-97306278D01*
X158241515Y-97274727D01*
X158092098Y-97212836D01*
X157957626Y-97122985D01*
X157843266Y-97008625D01*
X157753415Y-96874153D01*
X157691524Y-96724736D01*
X157659973Y-96566115D01*
X157659973Y-96404387D01*
X157691524Y-96245766D01*
X157753415Y-96096349D01*
X157843266Y-95961877D01*
X157957626Y-95847517D01*
X158092098Y-95757666D01*
X158241515Y-95695775D01*
X158400136Y-95664224D01*
X158561864Y-95664224D01*
X158720485Y-95695775D01*
G37*
G36*
X131725000Y-97225000D02*
G01*
X130075000Y-97225000D01*
X130075000Y-95575000D01*
X131725000Y-95575000D01*
X131725000Y-97225000D01*
G37*
G36*
X133679485Y-95610524D02*
G01*
X133828902Y-95672415D01*
X133963374Y-95762266D01*
X134077734Y-95876626D01*
X134167585Y-96011098D01*
X134229476Y-96160515D01*
X134261027Y-96319136D01*
X134261027Y-96480864D01*
X134229476Y-96639485D01*
X134167585Y-96788902D01*
X134077734Y-96923374D01*
X133963374Y-97037734D01*
X133828902Y-97127585D01*
X133679485Y-97189476D01*
X133520864Y-97221027D01*
X133359136Y-97221027D01*
X133200515Y-97189476D01*
X133051098Y-97127585D01*
X132916626Y-97037734D01*
X132802266Y-96923374D01*
X132712415Y-96788902D01*
X132650524Y-96639485D01*
X132618973Y-96480864D01*
X132618973Y-96319136D01*
X132650524Y-96160515D01*
X132712415Y-96011098D01*
X132802266Y-95876626D01*
X132916626Y-95762266D01*
X133051098Y-95672415D01*
X133200515Y-95610524D01*
X133359136Y-95578973D01*
X133520864Y-95578973D01*
X133679485Y-95610524D01*
G37*
G36*
X136219485Y-95610524D02*
G01*
X136368902Y-95672415D01*
X136503374Y-95762266D01*
X136617734Y-95876626D01*
X136707585Y-96011098D01*
X136769476Y-96160515D01*
X136801027Y-96319136D01*
X136801027Y-96480864D01*
X136769476Y-96639485D01*
X136707585Y-96788902D01*
X136617734Y-96923374D01*
X136503374Y-97037734D01*
X136368902Y-97127585D01*
X136219485Y-97189476D01*
X136060864Y-97221027D01*
X135899136Y-97221027D01*
X135740515Y-97189476D01*
X135591098Y-97127585D01*
X135456626Y-97037734D01*
X135342266Y-96923374D01*
X135252415Y-96788902D01*
X135190524Y-96639485D01*
X135158973Y-96480864D01*
X135158973Y-96319136D01*
X135190524Y-96160515D01*
X135252415Y-96011098D01*
X135342266Y-95876626D01*
X135456626Y-95762266D01*
X135591098Y-95672415D01*
X135740515Y-95610524D01*
X135899136Y-95578973D01*
X136060864Y-95578973D01*
X136219485Y-95610524D01*
G37*
G36*
X119482068Y-94457941D02*
G01*
X119620619Y-94515330D01*
X119745311Y-94598647D01*
X119851353Y-94704689D01*
X119934670Y-94829381D01*
X119992059Y-94967932D01*
X120021316Y-95115017D01*
X120021316Y-95264983D01*
X119992059Y-95412068D01*
X119934670Y-95550619D01*
X119851353Y-95675311D01*
X119745311Y-95781353D01*
X119620619Y-95864670D01*
X119482068Y-95922059D01*
X119334983Y-95951316D01*
X119185017Y-95951316D01*
X119037932Y-95922059D01*
X118899381Y-95864670D01*
X118774689Y-95781353D01*
X118668647Y-95675311D01*
X118585330Y-95550619D01*
X118527941Y-95412068D01*
X118498684Y-95264983D01*
X118498684Y-95115017D01*
X118527941Y-94967932D01*
X118585330Y-94829381D01*
X118668647Y-94704689D01*
X118774689Y-94598647D01*
X118899381Y-94515330D01*
X119037932Y-94457941D01*
X119185017Y-94428684D01*
X119334983Y-94428684D01*
X119482068Y-94457941D01*
G37*
G36*
X122022068Y-94457941D02*
G01*
X122160619Y-94515330D01*
X122285311Y-94598647D01*
X122391353Y-94704689D01*
X122474670Y-94829381D01*
X122532059Y-94967932D01*
X122561316Y-95115017D01*
X122561316Y-95264983D01*
X122532059Y-95412068D01*
X122474670Y-95550619D01*
X122391353Y-95675311D01*
X122285311Y-95781353D01*
X122160619Y-95864670D01*
X122022068Y-95922059D01*
X121874983Y-95951316D01*
X121725017Y-95951316D01*
X121577932Y-95922059D01*
X121439381Y-95864670D01*
X121314689Y-95781353D01*
X121208647Y-95675311D01*
X121125330Y-95550619D01*
X121067941Y-95412068D01*
X121038684Y-95264983D01*
X121038684Y-95115017D01*
X121067941Y-94967932D01*
X121125330Y-94829381D01*
X121208647Y-94704689D01*
X121314689Y-94598647D01*
X121439381Y-94515330D01*
X121577932Y-94457941D01*
X121725017Y-94428684D01*
X121874983Y-94428684D01*
X122022068Y-94457941D01*
G37*
G36*
X180422068Y-94457941D02*
G01*
X180560619Y-94515330D01*
X180685311Y-94598647D01*
X180791353Y-94704689D01*
X180874670Y-94829381D01*
X180932059Y-94967932D01*
X180961316Y-95115017D01*
X180961316Y-95264983D01*
X180932059Y-95412068D01*
X180874670Y-95550619D01*
X180791353Y-95675311D01*
X180685311Y-95781353D01*
X180560619Y-95864670D01*
X180422068Y-95922059D01*
X180274983Y-95951316D01*
X180125017Y-95951316D01*
X179977932Y-95922059D01*
X179839381Y-95864670D01*
X179714689Y-95781353D01*
X179608647Y-95675311D01*
X179525330Y-95550619D01*
X179467941Y-95412068D01*
X179438684Y-95264983D01*
X179438684Y-95115017D01*
X179467941Y-94967932D01*
X179525330Y-94829381D01*
X179608647Y-94704689D01*
X179714689Y-94598647D01*
X179839381Y-94515330D01*
X179977932Y-94457941D01*
X180125017Y-94428684D01*
X180274983Y-94428684D01*
X180422068Y-94457941D01*
G37*
G36*
X182962068Y-94457941D02*
G01*
X183100619Y-94515330D01*
X183225311Y-94598647D01*
X183331353Y-94704689D01*
X183414670Y-94829381D01*
X183472059Y-94967932D01*
X183501316Y-95115017D01*
X183501316Y-95264983D01*
X183472059Y-95412068D01*
X183414670Y-95550619D01*
X183331353Y-95675311D01*
X183225311Y-95781353D01*
X183100619Y-95864670D01*
X182962068Y-95922059D01*
X182814983Y-95951316D01*
X182665017Y-95951316D01*
X182517932Y-95922059D01*
X182379381Y-95864670D01*
X182254689Y-95781353D01*
X182148647Y-95675311D01*
X182065330Y-95550619D01*
X182007941Y-95412068D01*
X181978684Y-95264983D01*
X181978684Y-95115017D01*
X182007941Y-94967932D01*
X182065330Y-94829381D01*
X182148647Y-94704689D01*
X182254689Y-94598647D01*
X182379381Y-94515330D01*
X182517932Y-94457941D01*
X182665017Y-94428684D01*
X182814983Y-94428684D01*
X182962068Y-94457941D01*
G37*
G36*
X119482068Y-91917941D02*
G01*
X119620619Y-91975330D01*
X119745311Y-92058647D01*
X119851353Y-92164689D01*
X119934670Y-92289381D01*
X119992059Y-92427932D01*
X120021316Y-92575017D01*
X120021316Y-92724983D01*
X119992059Y-92872068D01*
X119934670Y-93010619D01*
X119851353Y-93135311D01*
X119745311Y-93241353D01*
X119620619Y-93324670D01*
X119482068Y-93382059D01*
X119334983Y-93411316D01*
X119185017Y-93411316D01*
X119037932Y-93382059D01*
X118899381Y-93324670D01*
X118774689Y-93241353D01*
X118668647Y-93135311D01*
X118585330Y-93010619D01*
X118527941Y-92872068D01*
X118498684Y-92724983D01*
X118498684Y-92575017D01*
X118527941Y-92427932D01*
X118585330Y-92289381D01*
X118668647Y-92164689D01*
X118774689Y-92058647D01*
X118899381Y-91975330D01*
X119037932Y-91917941D01*
X119185017Y-91888684D01*
X119334983Y-91888684D01*
X119482068Y-91917941D01*
G37*
G36*
X122022068Y-91917941D02*
G01*
X122160619Y-91975330D01*
X122285311Y-92058647D01*
X122391353Y-92164689D01*
X122474670Y-92289381D01*
X122532059Y-92427932D01*
X122561316Y-92575017D01*
X122561316Y-92724983D01*
X122532059Y-92872068D01*
X122474670Y-93010619D01*
X122391353Y-93135311D01*
X122285311Y-93241353D01*
X122160619Y-93324670D01*
X122022068Y-93382059D01*
X121874983Y-93411316D01*
X121725017Y-93411316D01*
X121577932Y-93382059D01*
X121439381Y-93324670D01*
X121314689Y-93241353D01*
X121208647Y-93135311D01*
X121125330Y-93010619D01*
X121067941Y-92872068D01*
X121038684Y-92724983D01*
X121038684Y-92575017D01*
X121067941Y-92427932D01*
X121125330Y-92289381D01*
X121208647Y-92164689D01*
X121314689Y-92058647D01*
X121439381Y-91975330D01*
X121577932Y-91917941D01*
X121725017Y-91888684D01*
X121874983Y-91888684D01*
X122022068Y-91917941D01*
G37*
G36*
X180422068Y-91917941D02*
G01*
X180560619Y-91975330D01*
X180685311Y-92058647D01*
X180791353Y-92164689D01*
X180874670Y-92289381D01*
X180932059Y-92427932D01*
X180961316Y-92575017D01*
X180961316Y-92724983D01*
X180932059Y-92872068D01*
X180874670Y-93010619D01*
X180791353Y-93135311D01*
X180685311Y-93241353D01*
X180560619Y-93324670D01*
X180422068Y-93382059D01*
X180274983Y-93411316D01*
X180125017Y-93411316D01*
X179977932Y-93382059D01*
X179839381Y-93324670D01*
X179714689Y-93241353D01*
X179608647Y-93135311D01*
X179525330Y-93010619D01*
X179467941Y-92872068D01*
X179438684Y-92724983D01*
X179438684Y-92575017D01*
X179467941Y-92427932D01*
X179525330Y-92289381D01*
X179608647Y-92164689D01*
X179714689Y-92058647D01*
X179839381Y-91975330D01*
X179977932Y-91917941D01*
X180125017Y-91888684D01*
X180274983Y-91888684D01*
X180422068Y-91917941D01*
G37*
G36*
X182962068Y-91917941D02*
G01*
X183100619Y-91975330D01*
X183225311Y-92058647D01*
X183331353Y-92164689D01*
X183414670Y-92289381D01*
X183472059Y-92427932D01*
X183501316Y-92575017D01*
X183501316Y-92724983D01*
X183472059Y-92872068D01*
X183414670Y-93010619D01*
X183331353Y-93135311D01*
X183225311Y-93241353D01*
X183100619Y-93324670D01*
X182962068Y-93382059D01*
X182814983Y-93411316D01*
X182665017Y-93411316D01*
X182517932Y-93382059D01*
X182379381Y-93324670D01*
X182254689Y-93241353D01*
X182148647Y-93135311D01*
X182065330Y-93010619D01*
X182007941Y-92872068D01*
X181978684Y-92724983D01*
X181978684Y-92575017D01*
X182007941Y-92427932D01*
X182065330Y-92289381D01*
X182148647Y-92164689D01*
X182254689Y-92058647D01*
X182379381Y-91975330D01*
X182517932Y-91917941D01*
X182665017Y-91888684D01*
X182814983Y-91888684D01*
X182962068Y-91917941D01*
G37*
G36*
X119482068Y-89377941D02*
G01*
X119620619Y-89435330D01*
X119745311Y-89518647D01*
X119851353Y-89624689D01*
X119934670Y-89749381D01*
X119992059Y-89887932D01*
X120021316Y-90035017D01*
X120021316Y-90184983D01*
X119992059Y-90332068D01*
X119934670Y-90470619D01*
X119851353Y-90595311D01*
X119745311Y-90701353D01*
X119620619Y-90784670D01*
X119482068Y-90842059D01*
X119334983Y-90871316D01*
X119185017Y-90871316D01*
X119037932Y-90842059D01*
X118899381Y-90784670D01*
X118774689Y-90701353D01*
X118668647Y-90595311D01*
X118585330Y-90470619D01*
X118527941Y-90332068D01*
X118498684Y-90184983D01*
X118498684Y-90035017D01*
X118527941Y-89887932D01*
X118585330Y-89749381D01*
X118668647Y-89624689D01*
X118774689Y-89518647D01*
X118899381Y-89435330D01*
X119037932Y-89377941D01*
X119185017Y-89348684D01*
X119334983Y-89348684D01*
X119482068Y-89377941D01*
G37*
G36*
X122022068Y-89377941D02*
G01*
X122160619Y-89435330D01*
X122285311Y-89518647D01*
X122391353Y-89624689D01*
X122474670Y-89749381D01*
X122532059Y-89887932D01*
X122561316Y-90035017D01*
X122561316Y-90184983D01*
X122532059Y-90332068D01*
X122474670Y-90470619D01*
X122391353Y-90595311D01*
X122285311Y-90701353D01*
X122160619Y-90784670D01*
X122022068Y-90842059D01*
X121874983Y-90871316D01*
X121725017Y-90871316D01*
X121577932Y-90842059D01*
X121439381Y-90784670D01*
X121314689Y-90701353D01*
X121208647Y-90595311D01*
X121125330Y-90470619D01*
X121067941Y-90332068D01*
X121038684Y-90184983D01*
X121038684Y-90035017D01*
X121067941Y-89887932D01*
X121125330Y-89749381D01*
X121208647Y-89624689D01*
X121314689Y-89518647D01*
X121439381Y-89435330D01*
X121577932Y-89377941D01*
X121725017Y-89348684D01*
X121874983Y-89348684D01*
X122022068Y-89377941D01*
G37*
G36*
X180422068Y-89377941D02*
G01*
X180560619Y-89435330D01*
X180685311Y-89518647D01*
X180791353Y-89624689D01*
X180874670Y-89749381D01*
X180932059Y-89887932D01*
X180961316Y-90035017D01*
X180961316Y-90184983D01*
X180932059Y-90332068D01*
X180874670Y-90470619D01*
X180791353Y-90595311D01*
X180685311Y-90701353D01*
X180560619Y-90784670D01*
X180422068Y-90842059D01*
X180274983Y-90871316D01*
X180125017Y-90871316D01*
X179977932Y-90842059D01*
X179839381Y-90784670D01*
X179714689Y-90701353D01*
X179608647Y-90595311D01*
X179525330Y-90470619D01*
X179467941Y-90332068D01*
X179438684Y-90184983D01*
X179438684Y-90035017D01*
X179467941Y-89887932D01*
X179525330Y-89749381D01*
X179608647Y-89624689D01*
X179714689Y-89518647D01*
X179839381Y-89435330D01*
X179977932Y-89377941D01*
X180125017Y-89348684D01*
X180274983Y-89348684D01*
X180422068Y-89377941D01*
G37*
G36*
X182962068Y-89377941D02*
G01*
X183100619Y-89435330D01*
X183225311Y-89518647D01*
X183331353Y-89624689D01*
X183414670Y-89749381D01*
X183472059Y-89887932D01*
X183501316Y-90035017D01*
X183501316Y-90184983D01*
X183472059Y-90332068D01*
X183414670Y-90470619D01*
X183331353Y-90595311D01*
X183225311Y-90701353D01*
X183100619Y-90784670D01*
X182962068Y-90842059D01*
X182814983Y-90871316D01*
X182665017Y-90871316D01*
X182517932Y-90842059D01*
X182379381Y-90784670D01*
X182254689Y-90701353D01*
X182148647Y-90595311D01*
X182065330Y-90470619D01*
X182007941Y-90332068D01*
X181978684Y-90184983D01*
X181978684Y-90035017D01*
X182007941Y-89887932D01*
X182065330Y-89749381D01*
X182148647Y-89624689D01*
X182254689Y-89518647D01*
X182379381Y-89435330D01*
X182517932Y-89377941D01*
X182665017Y-89348684D01*
X182814983Y-89348684D01*
X182962068Y-89377941D01*
G37*
G36*
X119482068Y-86837941D02*
G01*
X119620619Y-86895330D01*
X119745311Y-86978647D01*
X119851353Y-87084689D01*
X119934670Y-87209381D01*
X119992059Y-87347932D01*
X120021316Y-87495017D01*
X120021316Y-87644983D01*
X119992059Y-87792068D01*
X119934670Y-87930619D01*
X119851353Y-88055311D01*
X119745311Y-88161353D01*
X119620619Y-88244670D01*
X119482068Y-88302059D01*
X119334983Y-88331316D01*
X119185017Y-88331316D01*
X119037932Y-88302059D01*
X118899381Y-88244670D01*
X118774689Y-88161353D01*
X118668647Y-88055311D01*
X118585330Y-87930619D01*
X118527941Y-87792068D01*
X118498684Y-87644983D01*
X118498684Y-87495017D01*
X118527941Y-87347932D01*
X118585330Y-87209381D01*
X118668647Y-87084689D01*
X118774689Y-86978647D01*
X118899381Y-86895330D01*
X119037932Y-86837941D01*
X119185017Y-86808684D01*
X119334983Y-86808684D01*
X119482068Y-86837941D01*
G37*
G36*
X122022068Y-86837941D02*
G01*
X122160619Y-86895330D01*
X122285311Y-86978647D01*
X122391353Y-87084689D01*
X122474670Y-87209381D01*
X122532059Y-87347932D01*
X122561316Y-87495017D01*
X122561316Y-87644983D01*
X122532059Y-87792068D01*
X122474670Y-87930619D01*
X122391353Y-88055311D01*
X122285311Y-88161353D01*
X122160619Y-88244670D01*
X122022068Y-88302059D01*
X121874983Y-88331316D01*
X121725017Y-88331316D01*
X121577932Y-88302059D01*
X121439381Y-88244670D01*
X121314689Y-88161353D01*
X121208647Y-88055311D01*
X121125330Y-87930619D01*
X121067941Y-87792068D01*
X121038684Y-87644983D01*
X121038684Y-87495017D01*
X121067941Y-87347932D01*
X121125330Y-87209381D01*
X121208647Y-87084689D01*
X121314689Y-86978647D01*
X121439381Y-86895330D01*
X121577932Y-86837941D01*
X121725017Y-86808684D01*
X121874983Y-86808684D01*
X122022068Y-86837941D01*
G37*
G36*
X180422068Y-86837941D02*
G01*
X180560619Y-86895330D01*
X180685311Y-86978647D01*
X180791353Y-87084689D01*
X180874670Y-87209381D01*
X180932059Y-87347932D01*
X180961316Y-87495017D01*
X180961316Y-87644983D01*
X180932059Y-87792068D01*
X180874670Y-87930619D01*
X180791353Y-88055311D01*
X180685311Y-88161353D01*
X180560619Y-88244670D01*
X180422068Y-88302059D01*
X180274983Y-88331316D01*
X180125017Y-88331316D01*
X179977932Y-88302059D01*
X179839381Y-88244670D01*
X179714689Y-88161353D01*
X179608647Y-88055311D01*
X179525330Y-87930619D01*
X179467941Y-87792068D01*
X179438684Y-87644983D01*
X179438684Y-87495017D01*
X179467941Y-87347932D01*
X179525330Y-87209381D01*
X179608647Y-87084689D01*
X179714689Y-86978647D01*
X179839381Y-86895330D01*
X179977932Y-86837941D01*
X180125017Y-86808684D01*
X180274983Y-86808684D01*
X180422068Y-86837941D01*
G37*
G36*
X182962068Y-86837941D02*
G01*
X183100619Y-86895330D01*
X183225311Y-86978647D01*
X183331353Y-87084689D01*
X183414670Y-87209381D01*
X183472059Y-87347932D01*
X183501316Y-87495017D01*
X183501316Y-87644983D01*
X183472059Y-87792068D01*
X183414670Y-87930619D01*
X183331353Y-88055311D01*
X183225311Y-88161353D01*
X183100619Y-88244670D01*
X182962068Y-88302059D01*
X182814983Y-88331316D01*
X182665017Y-88331316D01*
X182517932Y-88302059D01*
X182379381Y-88244670D01*
X182254689Y-88161353D01*
X182148647Y-88055311D01*
X182065330Y-87930619D01*
X182007941Y-87792068D01*
X181978684Y-87644983D01*
X181978684Y-87495017D01*
X182007941Y-87347932D01*
X182065330Y-87209381D01*
X182148647Y-87084689D01*
X182254689Y-86978647D01*
X182379381Y-86895330D01*
X182517932Y-86837941D01*
X182665017Y-86808684D01*
X182814983Y-86808684D01*
X182962068Y-86837941D01*
G37*
G36*
X119482068Y-84297941D02*
G01*
X119620619Y-84355330D01*
X119745311Y-84438647D01*
X119851353Y-84544689D01*
X119934670Y-84669381D01*
X119992059Y-84807932D01*
X120021316Y-84955017D01*
X120021316Y-85104983D01*
X119992059Y-85252068D01*
X119934670Y-85390619D01*
X119851353Y-85515311D01*
X119745311Y-85621353D01*
X119620619Y-85704670D01*
X119482068Y-85762059D01*
X119334983Y-85791316D01*
X119185017Y-85791316D01*
X119037932Y-85762059D01*
X118899381Y-85704670D01*
X118774689Y-85621353D01*
X118668647Y-85515311D01*
X118585330Y-85390619D01*
X118527941Y-85252068D01*
X118498684Y-85104983D01*
X118498684Y-84955017D01*
X118527941Y-84807932D01*
X118585330Y-84669381D01*
X118668647Y-84544689D01*
X118774689Y-84438647D01*
X118899381Y-84355330D01*
X119037932Y-84297941D01*
X119185017Y-84268684D01*
X119334983Y-84268684D01*
X119482068Y-84297941D01*
G37*
G36*
X122022068Y-84297941D02*
G01*
X122160619Y-84355330D01*
X122285311Y-84438647D01*
X122391353Y-84544689D01*
X122474670Y-84669381D01*
X122532059Y-84807932D01*
X122561316Y-84955017D01*
X122561316Y-85104983D01*
X122532059Y-85252068D01*
X122474670Y-85390619D01*
X122391353Y-85515311D01*
X122285311Y-85621353D01*
X122160619Y-85704670D01*
X122022068Y-85762059D01*
X121874983Y-85791316D01*
X121725017Y-85791316D01*
X121577932Y-85762059D01*
X121439381Y-85704670D01*
X121314689Y-85621353D01*
X121208647Y-85515311D01*
X121125330Y-85390619D01*
X121067941Y-85252068D01*
X121038684Y-85104983D01*
X121038684Y-84955017D01*
X121067941Y-84807932D01*
X121125330Y-84669381D01*
X121208647Y-84544689D01*
X121314689Y-84438647D01*
X121439381Y-84355330D01*
X121577932Y-84297941D01*
X121725017Y-84268684D01*
X121874983Y-84268684D01*
X122022068Y-84297941D01*
G37*
G36*
X180422068Y-84297941D02*
G01*
X180560619Y-84355330D01*
X180685311Y-84438647D01*
X180791353Y-84544689D01*
X180874670Y-84669381D01*
X180932059Y-84807932D01*
X180961316Y-84955017D01*
X180961316Y-85104983D01*
X180932059Y-85252068D01*
X180874670Y-85390619D01*
X180791353Y-85515311D01*
X180685311Y-85621353D01*
X180560619Y-85704670D01*
X180422068Y-85762059D01*
X180274983Y-85791316D01*
X180125017Y-85791316D01*
X179977932Y-85762059D01*
X179839381Y-85704670D01*
X179714689Y-85621353D01*
X179608647Y-85515311D01*
X179525330Y-85390619D01*
X179467941Y-85252068D01*
X179438684Y-85104983D01*
X179438684Y-84955017D01*
X179467941Y-84807932D01*
X179525330Y-84669381D01*
X179608647Y-84544689D01*
X179714689Y-84438647D01*
X179839381Y-84355330D01*
X179977932Y-84297941D01*
X180125017Y-84268684D01*
X180274983Y-84268684D01*
X180422068Y-84297941D01*
G37*
G36*
X182962068Y-84297941D02*
G01*
X183100619Y-84355330D01*
X183225311Y-84438647D01*
X183331353Y-84544689D01*
X183414670Y-84669381D01*
X183472059Y-84807932D01*
X183501316Y-84955017D01*
X183501316Y-85104983D01*
X183472059Y-85252068D01*
X183414670Y-85390619D01*
X183331353Y-85515311D01*
X183225311Y-85621353D01*
X183100619Y-85704670D01*
X182962068Y-85762059D01*
X182814983Y-85791316D01*
X182665017Y-85791316D01*
X182517932Y-85762059D01*
X182379381Y-85704670D01*
X182254689Y-85621353D01*
X182148647Y-85515311D01*
X182065330Y-85390619D01*
X182007941Y-85252068D01*
X181978684Y-85104983D01*
X181978684Y-84955017D01*
X182007941Y-84807932D01*
X182065330Y-84669381D01*
X182148647Y-84544689D01*
X182254689Y-84438647D01*
X182379381Y-84355330D01*
X182517932Y-84297941D01*
X182665017Y-84268684D01*
X182814983Y-84268684D01*
X182962068Y-84297941D01*
G37*
G36*
X119482068Y-81757941D02*
G01*
X119620619Y-81815330D01*
X119745311Y-81898647D01*
X119851353Y-82004689D01*
X119934670Y-82129381D01*
X119992059Y-82267932D01*
X120021316Y-82415017D01*
X120021316Y-82564983D01*
X119992059Y-82712068D01*
X119934670Y-82850619D01*
X119851353Y-82975311D01*
X119745311Y-83081353D01*
X119620619Y-83164670D01*
X119482068Y-83222059D01*
X119334983Y-83251316D01*
X119185017Y-83251316D01*
X119037932Y-83222059D01*
X118899381Y-83164670D01*
X118774689Y-83081353D01*
X118668647Y-82975311D01*
X118585330Y-82850619D01*
X118527941Y-82712068D01*
X118498684Y-82564983D01*
X118498684Y-82415017D01*
X118527941Y-82267932D01*
X118585330Y-82129381D01*
X118668647Y-82004689D01*
X118774689Y-81898647D01*
X118899381Y-81815330D01*
X119037932Y-81757941D01*
X119185017Y-81728684D01*
X119334983Y-81728684D01*
X119482068Y-81757941D01*
G37*
G36*
X122022068Y-81757941D02*
G01*
X122160619Y-81815330D01*
X122285311Y-81898647D01*
X122391353Y-82004689D01*
X122474670Y-82129381D01*
X122532059Y-82267932D01*
X122561316Y-82415017D01*
X122561316Y-82564983D01*
X122532059Y-82712068D01*
X122474670Y-82850619D01*
X122391353Y-82975311D01*
X122285311Y-83081353D01*
X122160619Y-83164670D01*
X122022068Y-83222059D01*
X121874983Y-83251316D01*
X121725017Y-83251316D01*
X121577932Y-83222059D01*
X121439381Y-83164670D01*
X121314689Y-83081353D01*
X121208647Y-82975311D01*
X121125330Y-82850619D01*
X121067941Y-82712068D01*
X121038684Y-82564983D01*
X121038684Y-82415017D01*
X121067941Y-82267932D01*
X121125330Y-82129381D01*
X121208647Y-82004689D01*
X121314689Y-81898647D01*
X121439381Y-81815330D01*
X121577932Y-81757941D01*
X121725017Y-81728684D01*
X121874983Y-81728684D01*
X122022068Y-81757941D01*
G37*
G36*
X180422068Y-81757941D02*
G01*
X180560619Y-81815330D01*
X180685311Y-81898647D01*
X180791353Y-82004689D01*
X180874670Y-82129381D01*
X180932059Y-82267932D01*
X180961316Y-82415017D01*
X180961316Y-82564983D01*
X180932059Y-82712068D01*
X180874670Y-82850619D01*
X180791353Y-82975311D01*
X180685311Y-83081353D01*
X180560619Y-83164670D01*
X180422068Y-83222059D01*
X180274983Y-83251316D01*
X180125017Y-83251316D01*
X179977932Y-83222059D01*
X179839381Y-83164670D01*
X179714689Y-83081353D01*
X179608647Y-82975311D01*
X179525330Y-82850619D01*
X179467941Y-82712068D01*
X179438684Y-82564983D01*
X179438684Y-82415017D01*
X179467941Y-82267932D01*
X179525330Y-82129381D01*
X179608647Y-82004689D01*
X179714689Y-81898647D01*
X179839381Y-81815330D01*
X179977932Y-81757941D01*
X180125017Y-81728684D01*
X180274983Y-81728684D01*
X180422068Y-81757941D01*
G37*
G36*
X182962068Y-81757941D02*
G01*
X183100619Y-81815330D01*
X183225311Y-81898647D01*
X183331353Y-82004689D01*
X183414670Y-82129381D01*
X183472059Y-82267932D01*
X183501316Y-82415017D01*
X183501316Y-82564983D01*
X183472059Y-82712068D01*
X183414670Y-82850619D01*
X183331353Y-82975311D01*
X183225311Y-83081353D01*
X183100619Y-83164670D01*
X182962068Y-83222059D01*
X182814983Y-83251316D01*
X182665017Y-83251316D01*
X182517932Y-83222059D01*
X182379381Y-83164670D01*
X182254689Y-83081353D01*
X182148647Y-82975311D01*
X182065330Y-82850619D01*
X182007941Y-82712068D01*
X181978684Y-82564983D01*
X181978684Y-82415017D01*
X182007941Y-82267932D01*
X182065330Y-82129381D01*
X182148647Y-82004689D01*
X182254689Y-81898647D01*
X182379381Y-81815330D01*
X182517932Y-81757941D01*
X182665017Y-81728684D01*
X182814983Y-81728684D01*
X182962068Y-81757941D01*
G37*
G36*
X119482068Y-79217941D02*
G01*
X119620619Y-79275330D01*
X119745311Y-79358647D01*
X119851353Y-79464689D01*
X119934670Y-79589381D01*
X119992059Y-79727932D01*
X120021316Y-79875017D01*
X120021316Y-80024983D01*
X119992059Y-80172068D01*
X119934670Y-80310619D01*
X119851353Y-80435311D01*
X119745311Y-80541353D01*
X119620619Y-80624670D01*
X119482068Y-80682059D01*
X119334983Y-80711316D01*
X119185017Y-80711316D01*
X119037932Y-80682059D01*
X118899381Y-80624670D01*
X118774689Y-80541353D01*
X118668647Y-80435311D01*
X118585330Y-80310619D01*
X118527941Y-80172068D01*
X118498684Y-80024983D01*
X118498684Y-79875017D01*
X118527941Y-79727932D01*
X118585330Y-79589381D01*
X118668647Y-79464689D01*
X118774689Y-79358647D01*
X118899381Y-79275330D01*
X119037932Y-79217941D01*
X119185017Y-79188684D01*
X119334983Y-79188684D01*
X119482068Y-79217941D01*
G37*
G36*
X122022068Y-79217941D02*
G01*
X122160619Y-79275330D01*
X122285311Y-79358647D01*
X122391353Y-79464689D01*
X122474670Y-79589381D01*
X122532059Y-79727932D01*
X122561316Y-79875017D01*
X122561316Y-80024983D01*
X122532059Y-80172068D01*
X122474670Y-80310619D01*
X122391353Y-80435311D01*
X122285311Y-80541353D01*
X122160619Y-80624670D01*
X122022068Y-80682059D01*
X121874983Y-80711316D01*
X121725017Y-80711316D01*
X121577932Y-80682059D01*
X121439381Y-80624670D01*
X121314689Y-80541353D01*
X121208647Y-80435311D01*
X121125330Y-80310619D01*
X121067941Y-80172068D01*
X121038684Y-80024983D01*
X121038684Y-79875017D01*
X121067941Y-79727932D01*
X121125330Y-79589381D01*
X121208647Y-79464689D01*
X121314689Y-79358647D01*
X121439381Y-79275330D01*
X121577932Y-79217941D01*
X121725017Y-79188684D01*
X121874983Y-79188684D01*
X122022068Y-79217941D01*
G37*
G36*
X180422068Y-79217941D02*
G01*
X180560619Y-79275330D01*
X180685311Y-79358647D01*
X180791353Y-79464689D01*
X180874670Y-79589381D01*
X180932059Y-79727932D01*
X180961316Y-79875017D01*
X180961316Y-80024983D01*
X180932059Y-80172068D01*
X180874670Y-80310619D01*
X180791353Y-80435311D01*
X180685311Y-80541353D01*
X180560619Y-80624670D01*
X180422068Y-80682059D01*
X180274983Y-80711316D01*
X180125017Y-80711316D01*
X179977932Y-80682059D01*
X179839381Y-80624670D01*
X179714689Y-80541353D01*
X179608647Y-80435311D01*
X179525330Y-80310619D01*
X179467941Y-80172068D01*
X179438684Y-80024983D01*
X179438684Y-79875017D01*
X179467941Y-79727932D01*
X179525330Y-79589381D01*
X179608647Y-79464689D01*
X179714689Y-79358647D01*
X179839381Y-79275330D01*
X179977932Y-79217941D01*
X180125017Y-79188684D01*
X180274983Y-79188684D01*
X180422068Y-79217941D01*
G37*
G36*
X182962068Y-79217941D02*
G01*
X183100619Y-79275330D01*
X183225311Y-79358647D01*
X183331353Y-79464689D01*
X183414670Y-79589381D01*
X183472059Y-79727932D01*
X183501316Y-79875017D01*
X183501316Y-80024983D01*
X183472059Y-80172068D01*
X183414670Y-80310619D01*
X183331353Y-80435311D01*
X183225311Y-80541353D01*
X183100619Y-80624670D01*
X182962068Y-80682059D01*
X182814983Y-80711316D01*
X182665017Y-80711316D01*
X182517932Y-80682059D01*
X182379381Y-80624670D01*
X182254689Y-80541353D01*
X182148647Y-80435311D01*
X182065330Y-80310619D01*
X182007941Y-80172068D01*
X181978684Y-80024983D01*
X181978684Y-79875017D01*
X182007941Y-79727932D01*
X182065330Y-79589381D01*
X182148647Y-79464689D01*
X182254689Y-79358647D01*
X182379381Y-79275330D01*
X182517932Y-79217941D01*
X182665017Y-79188684D01*
X182814983Y-79188684D01*
X182962068Y-79217941D01*
G37*
G36*
X119482068Y-76677941D02*
G01*
X119620619Y-76735330D01*
X119745311Y-76818647D01*
X119851353Y-76924689D01*
X119934670Y-77049381D01*
X119992059Y-77187932D01*
X120021316Y-77335017D01*
X120021316Y-77484983D01*
X119992059Y-77632068D01*
X119934670Y-77770619D01*
X119851353Y-77895311D01*
X119745311Y-78001353D01*
X119620619Y-78084670D01*
X119482068Y-78142059D01*
X119334983Y-78171316D01*
X119185017Y-78171316D01*
X119037932Y-78142059D01*
X118899381Y-78084670D01*
X118774689Y-78001353D01*
X118668647Y-77895311D01*
X118585330Y-77770619D01*
X118527941Y-77632068D01*
X118498684Y-77484983D01*
X118498684Y-77335017D01*
X118527941Y-77187932D01*
X118585330Y-77049381D01*
X118668647Y-76924689D01*
X118774689Y-76818647D01*
X118899381Y-76735330D01*
X119037932Y-76677941D01*
X119185017Y-76648684D01*
X119334983Y-76648684D01*
X119482068Y-76677941D01*
G37*
G36*
X122022068Y-76677941D02*
G01*
X122160619Y-76735330D01*
X122285311Y-76818647D01*
X122391353Y-76924689D01*
X122474670Y-77049381D01*
X122532059Y-77187932D01*
X122561316Y-77335017D01*
X122561316Y-77484983D01*
X122532059Y-77632068D01*
X122474670Y-77770619D01*
X122391353Y-77895311D01*
X122285311Y-78001353D01*
X122160619Y-78084670D01*
X122022068Y-78142059D01*
X121874983Y-78171316D01*
X121725017Y-78171316D01*
X121577932Y-78142059D01*
X121439381Y-78084670D01*
X121314689Y-78001353D01*
X121208647Y-77895311D01*
X121125330Y-77770619D01*
X121067941Y-77632068D01*
X121038684Y-77484983D01*
X121038684Y-77335017D01*
X121067941Y-77187932D01*
X121125330Y-77049381D01*
X121208647Y-76924689D01*
X121314689Y-76818647D01*
X121439381Y-76735330D01*
X121577932Y-76677941D01*
X121725017Y-76648684D01*
X121874983Y-76648684D01*
X122022068Y-76677941D01*
G37*
G36*
X180422068Y-76677941D02*
G01*
X180560619Y-76735330D01*
X180685311Y-76818647D01*
X180791353Y-76924689D01*
X180874670Y-77049381D01*
X180932059Y-77187932D01*
X180961316Y-77335017D01*
X180961316Y-77484983D01*
X180932059Y-77632068D01*
X180874670Y-77770619D01*
X180791353Y-77895311D01*
X180685311Y-78001353D01*
X180560619Y-78084670D01*
X180422068Y-78142059D01*
X180274983Y-78171316D01*
X180125017Y-78171316D01*
X179977932Y-78142059D01*
X179839381Y-78084670D01*
X179714689Y-78001353D01*
X179608647Y-77895311D01*
X179525330Y-77770619D01*
X179467941Y-77632068D01*
X179438684Y-77484983D01*
X179438684Y-77335017D01*
X179467941Y-77187932D01*
X179525330Y-77049381D01*
X179608647Y-76924689D01*
X179714689Y-76818647D01*
X179839381Y-76735330D01*
X179977932Y-76677941D01*
X180125017Y-76648684D01*
X180274983Y-76648684D01*
X180422068Y-76677941D01*
G37*
G36*
X182962068Y-76677941D02*
G01*
X183100619Y-76735330D01*
X183225311Y-76818647D01*
X183331353Y-76924689D01*
X183414670Y-77049381D01*
X183472059Y-77187932D01*
X183501316Y-77335017D01*
X183501316Y-77484983D01*
X183472059Y-77632068D01*
X183414670Y-77770619D01*
X183331353Y-77895311D01*
X183225311Y-78001353D01*
X183100619Y-78084670D01*
X182962068Y-78142059D01*
X182814983Y-78171316D01*
X182665017Y-78171316D01*
X182517932Y-78142059D01*
X182379381Y-78084670D01*
X182254689Y-78001353D01*
X182148647Y-77895311D01*
X182065330Y-77770619D01*
X182007941Y-77632068D01*
X181978684Y-77484983D01*
X181978684Y-77335017D01*
X182007941Y-77187932D01*
X182065330Y-77049381D01*
X182148647Y-76924689D01*
X182254689Y-76818647D01*
X182379381Y-76735330D01*
X182517932Y-76677941D01*
X182665017Y-76648684D01*
X182814983Y-76648684D01*
X182962068Y-76677941D01*
G37*
G36*
X119482068Y-74137941D02*
G01*
X119620619Y-74195330D01*
X119745311Y-74278647D01*
X119851353Y-74384689D01*
X119934670Y-74509381D01*
X119992059Y-74647932D01*
X120021316Y-74795017D01*
X120021316Y-74944983D01*
X119992059Y-75092068D01*
X119934670Y-75230619D01*
X119851353Y-75355311D01*
X119745311Y-75461353D01*
X119620619Y-75544670D01*
X119482068Y-75602059D01*
X119334983Y-75631316D01*
X119185017Y-75631316D01*
X119037932Y-75602059D01*
X118899381Y-75544670D01*
X118774689Y-75461353D01*
X118668647Y-75355311D01*
X118585330Y-75230619D01*
X118527941Y-75092068D01*
X118498684Y-74944983D01*
X118498684Y-74795017D01*
X118527941Y-74647932D01*
X118585330Y-74509381D01*
X118668647Y-74384689D01*
X118774689Y-74278647D01*
X118899381Y-74195330D01*
X119037932Y-74137941D01*
X119185017Y-74108684D01*
X119334983Y-74108684D01*
X119482068Y-74137941D01*
G37*
G36*
X122022068Y-74137941D02*
G01*
X122160619Y-74195330D01*
X122285311Y-74278647D01*
X122391353Y-74384689D01*
X122474670Y-74509381D01*
X122532059Y-74647932D01*
X122561316Y-74795017D01*
X122561316Y-74944983D01*
X122532059Y-75092068D01*
X122474670Y-75230619D01*
X122391353Y-75355311D01*
X122285311Y-75461353D01*
X122160619Y-75544670D01*
X122022068Y-75602059D01*
X121874983Y-75631316D01*
X121725017Y-75631316D01*
X121577932Y-75602059D01*
X121439381Y-75544670D01*
X121314689Y-75461353D01*
X121208647Y-75355311D01*
X121125330Y-75230619D01*
X121067941Y-75092068D01*
X121038684Y-74944983D01*
X121038684Y-74795017D01*
X121067941Y-74647932D01*
X121125330Y-74509381D01*
X121208647Y-74384689D01*
X121314689Y-74278647D01*
X121439381Y-74195330D01*
X121577932Y-74137941D01*
X121725017Y-74108684D01*
X121874983Y-74108684D01*
X122022068Y-74137941D01*
G37*
G36*
X180422068Y-74137941D02*
G01*
X180560619Y-74195330D01*
X180685311Y-74278647D01*
X180791353Y-74384689D01*
X180874670Y-74509381D01*
X180932059Y-74647932D01*
X180961316Y-74795017D01*
X180961316Y-74944983D01*
X180932059Y-75092068D01*
X180874670Y-75230619D01*
X180791353Y-75355311D01*
X180685311Y-75461353D01*
X180560619Y-75544670D01*
X180422068Y-75602059D01*
X180274983Y-75631316D01*
X180125017Y-75631316D01*
X179977932Y-75602059D01*
X179839381Y-75544670D01*
X179714689Y-75461353D01*
X179608647Y-75355311D01*
X179525330Y-75230619D01*
X179467941Y-75092068D01*
X179438684Y-74944983D01*
X179438684Y-74795017D01*
X179467941Y-74647932D01*
X179525330Y-74509381D01*
X179608647Y-74384689D01*
X179714689Y-74278647D01*
X179839381Y-74195330D01*
X179977932Y-74137941D01*
X180125017Y-74108684D01*
X180274983Y-74108684D01*
X180422068Y-74137941D01*
G37*
G36*
X182962068Y-74137941D02*
G01*
X183100619Y-74195330D01*
X183225311Y-74278647D01*
X183331353Y-74384689D01*
X183414670Y-74509381D01*
X183472059Y-74647932D01*
X183501316Y-74795017D01*
X183501316Y-74944983D01*
X183472059Y-75092068D01*
X183414670Y-75230619D01*
X183331353Y-75355311D01*
X183225311Y-75461353D01*
X183100619Y-75544670D01*
X182962068Y-75602059D01*
X182814983Y-75631316D01*
X182665017Y-75631316D01*
X182517932Y-75602059D01*
X182379381Y-75544670D01*
X182254689Y-75461353D01*
X182148647Y-75355311D01*
X182065330Y-75230619D01*
X182007941Y-75092068D01*
X181978684Y-74944983D01*
X181978684Y-74795017D01*
X182007941Y-74647932D01*
X182065330Y-74509381D01*
X182148647Y-74384689D01*
X182254689Y-74278647D01*
X182379381Y-74195330D01*
X182517932Y-74137941D01*
X182665017Y-74108684D01*
X182814983Y-74108684D01*
X182962068Y-74137941D01*
G37*
G36*
X119482068Y-71597941D02*
G01*
X119620619Y-71655330D01*
X119745311Y-71738647D01*
X119851353Y-71844689D01*
X119934670Y-71969381D01*
X119992059Y-72107932D01*
X120021316Y-72255017D01*
X120021316Y-72404983D01*
X119992059Y-72552068D01*
X119934670Y-72690619D01*
X119851353Y-72815311D01*
X119745311Y-72921353D01*
X119620619Y-73004670D01*
X119482068Y-73062059D01*
X119334983Y-73091316D01*
X119185017Y-73091316D01*
X119037932Y-73062059D01*
X118899381Y-73004670D01*
X118774689Y-72921353D01*
X118668647Y-72815311D01*
X118585330Y-72690619D01*
X118527941Y-72552068D01*
X118498684Y-72404983D01*
X118498684Y-72255017D01*
X118527941Y-72107932D01*
X118585330Y-71969381D01*
X118668647Y-71844689D01*
X118774689Y-71738647D01*
X118899381Y-71655330D01*
X119037932Y-71597941D01*
X119185017Y-71568684D01*
X119334983Y-71568684D01*
X119482068Y-71597941D01*
G37*
G36*
X122022068Y-71597941D02*
G01*
X122160619Y-71655330D01*
X122285311Y-71738647D01*
X122391353Y-71844689D01*
X122474670Y-71969381D01*
X122532059Y-72107932D01*
X122561316Y-72255017D01*
X122561316Y-72404983D01*
X122532059Y-72552068D01*
X122474670Y-72690619D01*
X122391353Y-72815311D01*
X122285311Y-72921353D01*
X122160619Y-73004670D01*
X122022068Y-73062059D01*
X121874983Y-73091316D01*
X121725017Y-73091316D01*
X121577932Y-73062059D01*
X121439381Y-73004670D01*
X121314689Y-72921353D01*
X121208647Y-72815311D01*
X121125330Y-72690619D01*
X121067941Y-72552068D01*
X121038684Y-72404983D01*
X121038684Y-72255017D01*
X121067941Y-72107932D01*
X121125330Y-71969381D01*
X121208647Y-71844689D01*
X121314689Y-71738647D01*
X121439381Y-71655330D01*
X121577932Y-71597941D01*
X121725017Y-71568684D01*
X121874983Y-71568684D01*
X122022068Y-71597941D01*
G37*
G36*
X180422068Y-71597941D02*
G01*
X180560619Y-71655330D01*
X180685311Y-71738647D01*
X180791353Y-71844689D01*
X180874670Y-71969381D01*
X180932059Y-72107932D01*
X180961316Y-72255017D01*
X180961316Y-72404983D01*
X180932059Y-72552068D01*
X180874670Y-72690619D01*
X180791353Y-72815311D01*
X180685311Y-72921353D01*
X180560619Y-73004670D01*
X180422068Y-73062059D01*
X180274983Y-73091316D01*
X180125017Y-73091316D01*
X179977932Y-73062059D01*
X179839381Y-73004670D01*
X179714689Y-72921353D01*
X179608647Y-72815311D01*
X179525330Y-72690619D01*
X179467941Y-72552068D01*
X179438684Y-72404983D01*
X179438684Y-72255017D01*
X179467941Y-72107932D01*
X179525330Y-71969381D01*
X179608647Y-71844689D01*
X179714689Y-71738647D01*
X179839381Y-71655330D01*
X179977932Y-71597941D01*
X180125017Y-71568684D01*
X180274983Y-71568684D01*
X180422068Y-71597941D01*
G37*
G36*
X182962068Y-71597941D02*
G01*
X183100619Y-71655330D01*
X183225311Y-71738647D01*
X183331353Y-71844689D01*
X183414670Y-71969381D01*
X183472059Y-72107932D01*
X183501316Y-72255017D01*
X183501316Y-72404983D01*
X183472059Y-72552068D01*
X183414670Y-72690619D01*
X183331353Y-72815311D01*
X183225311Y-72921353D01*
X183100619Y-73004670D01*
X182962068Y-73062059D01*
X182814983Y-73091316D01*
X182665017Y-73091316D01*
X182517932Y-73062059D01*
X182379381Y-73004670D01*
X182254689Y-72921353D01*
X182148647Y-72815311D01*
X182065330Y-72690619D01*
X182007941Y-72552068D01*
X181978684Y-72404983D01*
X181978684Y-72255017D01*
X182007941Y-72107932D01*
X182065330Y-71969381D01*
X182148647Y-71844689D01*
X182254689Y-71738647D01*
X182379381Y-71655330D01*
X182517932Y-71597941D01*
X182665017Y-71568684D01*
X182814983Y-71568684D01*
X182962068Y-71597941D01*
G37*
G36*
X119482068Y-69057941D02*
G01*
X119620619Y-69115330D01*
X119745311Y-69198647D01*
X119851353Y-69304689D01*
X119934670Y-69429381D01*
X119992059Y-69567932D01*
X120021316Y-69715017D01*
X120021316Y-69864983D01*
X119992059Y-70012068D01*
X119934670Y-70150619D01*
X119851353Y-70275311D01*
X119745311Y-70381353D01*
X119620619Y-70464670D01*
X119482068Y-70522059D01*
X119334983Y-70551316D01*
X119185017Y-70551316D01*
X119037932Y-70522059D01*
X118899381Y-70464670D01*
X118774689Y-70381353D01*
X118668647Y-70275311D01*
X118585330Y-70150619D01*
X118527941Y-70012068D01*
X118498684Y-69864983D01*
X118498684Y-69715017D01*
X118527941Y-69567932D01*
X118585330Y-69429381D01*
X118668647Y-69304689D01*
X118774689Y-69198647D01*
X118899381Y-69115330D01*
X119037932Y-69057941D01*
X119185017Y-69028684D01*
X119334983Y-69028684D01*
X119482068Y-69057941D01*
G37*
G36*
X122022068Y-69057941D02*
G01*
X122160619Y-69115330D01*
X122285311Y-69198647D01*
X122391353Y-69304689D01*
X122474670Y-69429381D01*
X122532059Y-69567932D01*
X122561316Y-69715017D01*
X122561316Y-69864983D01*
X122532059Y-70012068D01*
X122474670Y-70150619D01*
X122391353Y-70275311D01*
X122285311Y-70381353D01*
X122160619Y-70464670D01*
X122022068Y-70522059D01*
X121874983Y-70551316D01*
X121725017Y-70551316D01*
X121577932Y-70522059D01*
X121439381Y-70464670D01*
X121314689Y-70381353D01*
X121208647Y-70275311D01*
X121125330Y-70150619D01*
X121067941Y-70012068D01*
X121038684Y-69864983D01*
X121038684Y-69715017D01*
X121067941Y-69567932D01*
X121125330Y-69429381D01*
X121208647Y-69304689D01*
X121314689Y-69198647D01*
X121439381Y-69115330D01*
X121577932Y-69057941D01*
X121725017Y-69028684D01*
X121874983Y-69028684D01*
X122022068Y-69057941D01*
G37*
G36*
X180422068Y-69057941D02*
G01*
X180560619Y-69115330D01*
X180685311Y-69198647D01*
X180791353Y-69304689D01*
X180874670Y-69429381D01*
X180932059Y-69567932D01*
X180961316Y-69715017D01*
X180961316Y-69864983D01*
X180932059Y-70012068D01*
X180874670Y-70150619D01*
X180791353Y-70275311D01*
X180685311Y-70381353D01*
X180560619Y-70464670D01*
X180422068Y-70522059D01*
X180274983Y-70551316D01*
X180125017Y-70551316D01*
X179977932Y-70522059D01*
X179839381Y-70464670D01*
X179714689Y-70381353D01*
X179608647Y-70275311D01*
X179525330Y-70150619D01*
X179467941Y-70012068D01*
X179438684Y-69864983D01*
X179438684Y-69715017D01*
X179467941Y-69567932D01*
X179525330Y-69429381D01*
X179608647Y-69304689D01*
X179714689Y-69198647D01*
X179839381Y-69115330D01*
X179977932Y-69057941D01*
X180125017Y-69028684D01*
X180274983Y-69028684D01*
X180422068Y-69057941D01*
G37*
G36*
X182962068Y-69057941D02*
G01*
X183100619Y-69115330D01*
X183225311Y-69198647D01*
X183331353Y-69304689D01*
X183414670Y-69429381D01*
X183472059Y-69567932D01*
X183501316Y-69715017D01*
X183501316Y-69864983D01*
X183472059Y-70012068D01*
X183414670Y-70150619D01*
X183331353Y-70275311D01*
X183225311Y-70381353D01*
X183100619Y-70464670D01*
X182962068Y-70522059D01*
X182814983Y-70551316D01*
X182665017Y-70551316D01*
X182517932Y-70522059D01*
X182379381Y-70464670D01*
X182254689Y-70381353D01*
X182148647Y-70275311D01*
X182065330Y-70150619D01*
X182007941Y-70012068D01*
X181978684Y-69864983D01*
X181978684Y-69715017D01*
X182007941Y-69567932D01*
X182065330Y-69429381D01*
X182148647Y-69304689D01*
X182254689Y-69198647D01*
X182379381Y-69115330D01*
X182517932Y-69057941D01*
X182665017Y-69028684D01*
X182814983Y-69028684D01*
X182962068Y-69057941D01*
G37*
G36*
X119482068Y-66517941D02*
G01*
X119620619Y-66575330D01*
X119745311Y-66658647D01*
X119851353Y-66764689D01*
X119934670Y-66889381D01*
X119992059Y-67027932D01*
X120021316Y-67175017D01*
X120021316Y-67324983D01*
X119992059Y-67472068D01*
X119934670Y-67610619D01*
X119851353Y-67735311D01*
X119745311Y-67841353D01*
X119620619Y-67924670D01*
X119482068Y-67982059D01*
X119334983Y-68011316D01*
X119185017Y-68011316D01*
X119037932Y-67982059D01*
X118899381Y-67924670D01*
X118774689Y-67841353D01*
X118668647Y-67735311D01*
X118585330Y-67610619D01*
X118527941Y-67472068D01*
X118498684Y-67324983D01*
X118498684Y-67175017D01*
X118527941Y-67027932D01*
X118585330Y-66889381D01*
X118668647Y-66764689D01*
X118774689Y-66658647D01*
X118899381Y-66575330D01*
X119037932Y-66517941D01*
X119185017Y-66488684D01*
X119334983Y-66488684D01*
X119482068Y-66517941D01*
G37*
G36*
X122022068Y-66517941D02*
G01*
X122160619Y-66575330D01*
X122285311Y-66658647D01*
X122391353Y-66764689D01*
X122474670Y-66889381D01*
X122532059Y-67027932D01*
X122561316Y-67175017D01*
X122561316Y-67324983D01*
X122532059Y-67472068D01*
X122474670Y-67610619D01*
X122391353Y-67735311D01*
X122285311Y-67841353D01*
X122160619Y-67924670D01*
X122022068Y-67982059D01*
X121874983Y-68011316D01*
X121725017Y-68011316D01*
X121577932Y-67982059D01*
X121439381Y-67924670D01*
X121314689Y-67841353D01*
X121208647Y-67735311D01*
X121125330Y-67610619D01*
X121067941Y-67472068D01*
X121038684Y-67324983D01*
X121038684Y-67175017D01*
X121067941Y-67027932D01*
X121125330Y-66889381D01*
X121208647Y-66764689D01*
X121314689Y-66658647D01*
X121439381Y-66575330D01*
X121577932Y-66517941D01*
X121725017Y-66488684D01*
X121874983Y-66488684D01*
X122022068Y-66517941D01*
G37*
G36*
X180422068Y-66517941D02*
G01*
X180560619Y-66575330D01*
X180685311Y-66658647D01*
X180791353Y-66764689D01*
X180874670Y-66889381D01*
X180932059Y-67027932D01*
X180961316Y-67175017D01*
X180961316Y-67324983D01*
X180932059Y-67472068D01*
X180874670Y-67610619D01*
X180791353Y-67735311D01*
X180685311Y-67841353D01*
X180560619Y-67924670D01*
X180422068Y-67982059D01*
X180274983Y-68011316D01*
X180125017Y-68011316D01*
X179977932Y-67982059D01*
X179839381Y-67924670D01*
X179714689Y-67841353D01*
X179608647Y-67735311D01*
X179525330Y-67610619D01*
X179467941Y-67472068D01*
X179438684Y-67324983D01*
X179438684Y-67175017D01*
X179467941Y-67027932D01*
X179525330Y-66889381D01*
X179608647Y-66764689D01*
X179714689Y-66658647D01*
X179839381Y-66575330D01*
X179977932Y-66517941D01*
X180125017Y-66488684D01*
X180274983Y-66488684D01*
X180422068Y-66517941D01*
G37*
G36*
X182962068Y-66517941D02*
G01*
X183100619Y-66575330D01*
X183225311Y-66658647D01*
X183331353Y-66764689D01*
X183414670Y-66889381D01*
X183472059Y-67027932D01*
X183501316Y-67175017D01*
X183501316Y-67324983D01*
X183472059Y-67472068D01*
X183414670Y-67610619D01*
X183331353Y-67735311D01*
X183225311Y-67841353D01*
X183100619Y-67924670D01*
X182962068Y-67982059D01*
X182814983Y-68011316D01*
X182665017Y-68011316D01*
X182517932Y-67982059D01*
X182379381Y-67924670D01*
X182254689Y-67841353D01*
X182148647Y-67735311D01*
X182065330Y-67610619D01*
X182007941Y-67472068D01*
X181978684Y-67324983D01*
X181978684Y-67175017D01*
X182007941Y-67027932D01*
X182065330Y-66889381D01*
X182148647Y-66764689D01*
X182254689Y-66658647D01*
X182379381Y-66575330D01*
X182517932Y-66517941D01*
X182665017Y-66488684D01*
X182814983Y-66488684D01*
X182962068Y-66517941D01*
G37*
G36*
X119482068Y-63977941D02*
G01*
X119620619Y-64035330D01*
X119745311Y-64118647D01*
X119851353Y-64224689D01*
X119934670Y-64349381D01*
X119992059Y-64487932D01*
X120021316Y-64635017D01*
X120021316Y-64784983D01*
X119992059Y-64932068D01*
X119934670Y-65070619D01*
X119851353Y-65195311D01*
X119745311Y-65301353D01*
X119620619Y-65384670D01*
X119482068Y-65442059D01*
X119334983Y-65471316D01*
X119185017Y-65471316D01*
X119037932Y-65442059D01*
X118899381Y-65384670D01*
X118774689Y-65301353D01*
X118668647Y-65195311D01*
X118585330Y-65070619D01*
X118527941Y-64932068D01*
X118498684Y-64784983D01*
X118498684Y-64635017D01*
X118527941Y-64487932D01*
X118585330Y-64349381D01*
X118668647Y-64224689D01*
X118774689Y-64118647D01*
X118899381Y-64035330D01*
X119037932Y-63977941D01*
X119185017Y-63948684D01*
X119334983Y-63948684D01*
X119482068Y-63977941D01*
G37*
G36*
X122022068Y-63977941D02*
G01*
X122160619Y-64035330D01*
X122285311Y-64118647D01*
X122391353Y-64224689D01*
X122474670Y-64349381D01*
X122532059Y-64487932D01*
X122561316Y-64635017D01*
X122561316Y-64784983D01*
X122532059Y-64932068D01*
X122474670Y-65070619D01*
X122391353Y-65195311D01*
X122285311Y-65301353D01*
X122160619Y-65384670D01*
X122022068Y-65442059D01*
X121874983Y-65471316D01*
X121725017Y-65471316D01*
X121577932Y-65442059D01*
X121439381Y-65384670D01*
X121314689Y-65301353D01*
X121208647Y-65195311D01*
X121125330Y-65070619D01*
X121067941Y-64932068D01*
X121038684Y-64784983D01*
X121038684Y-64635017D01*
X121067941Y-64487932D01*
X121125330Y-64349381D01*
X121208647Y-64224689D01*
X121314689Y-64118647D01*
X121439381Y-64035330D01*
X121577932Y-63977941D01*
X121725017Y-63948684D01*
X121874983Y-63948684D01*
X122022068Y-63977941D01*
G37*
G36*
X180422068Y-63977941D02*
G01*
X180560619Y-64035330D01*
X180685311Y-64118647D01*
X180791353Y-64224689D01*
X180874670Y-64349381D01*
X180932059Y-64487932D01*
X180961316Y-64635017D01*
X180961316Y-64784983D01*
X180932059Y-64932068D01*
X180874670Y-65070619D01*
X180791353Y-65195311D01*
X180685311Y-65301353D01*
X180560619Y-65384670D01*
X180422068Y-65442059D01*
X180274983Y-65471316D01*
X180125017Y-65471316D01*
X179977932Y-65442059D01*
X179839381Y-65384670D01*
X179714689Y-65301353D01*
X179608647Y-65195311D01*
X179525330Y-65070619D01*
X179467941Y-64932068D01*
X179438684Y-64784983D01*
X179438684Y-64635017D01*
X179467941Y-64487932D01*
X179525330Y-64349381D01*
X179608647Y-64224689D01*
X179714689Y-64118647D01*
X179839381Y-64035330D01*
X179977932Y-63977941D01*
X180125017Y-63948684D01*
X180274983Y-63948684D01*
X180422068Y-63977941D01*
G37*
G36*
X182962068Y-63977941D02*
G01*
X183100619Y-64035330D01*
X183225311Y-64118647D01*
X183331353Y-64224689D01*
X183414670Y-64349381D01*
X183472059Y-64487932D01*
X183501316Y-64635017D01*
X183501316Y-64784983D01*
X183472059Y-64932068D01*
X183414670Y-65070619D01*
X183331353Y-65195311D01*
X183225311Y-65301353D01*
X183100619Y-65384670D01*
X182962068Y-65442059D01*
X182814983Y-65471316D01*
X182665017Y-65471316D01*
X182517932Y-65442059D01*
X182379381Y-65384670D01*
X182254689Y-65301353D01*
X182148647Y-65195311D01*
X182065330Y-65070619D01*
X182007941Y-64932068D01*
X181978684Y-64784983D01*
X181978684Y-64635017D01*
X182007941Y-64487932D01*
X182065330Y-64349381D01*
X182148647Y-64224689D01*
X182254689Y-64118647D01*
X182379381Y-64035330D01*
X182517932Y-63977941D01*
X182665017Y-63948684D01*
X182814983Y-63948684D01*
X182962068Y-63977941D01*
G37*
G36*
X119482068Y-61437941D02*
G01*
X119620619Y-61495330D01*
X119745311Y-61578647D01*
X119851353Y-61684689D01*
X119934670Y-61809381D01*
X119992059Y-61947932D01*
X120021316Y-62095017D01*
X120021316Y-62244983D01*
X119992059Y-62392068D01*
X119934670Y-62530619D01*
X119851353Y-62655311D01*
X119745311Y-62761353D01*
X119620619Y-62844670D01*
X119482068Y-62902059D01*
X119334983Y-62931316D01*
X119185017Y-62931316D01*
X119037932Y-62902059D01*
X118899381Y-62844670D01*
X118774689Y-62761353D01*
X118668647Y-62655311D01*
X118585330Y-62530619D01*
X118527941Y-62392068D01*
X118498684Y-62244983D01*
X118498684Y-62095017D01*
X118527941Y-61947932D01*
X118585330Y-61809381D01*
X118668647Y-61684689D01*
X118774689Y-61578647D01*
X118899381Y-61495330D01*
X119037932Y-61437941D01*
X119185017Y-61408684D01*
X119334983Y-61408684D01*
X119482068Y-61437941D01*
G37*
G36*
X122022068Y-61437941D02*
G01*
X122160619Y-61495330D01*
X122285311Y-61578647D01*
X122391353Y-61684689D01*
X122474670Y-61809381D01*
X122532059Y-61947932D01*
X122561316Y-62095017D01*
X122561316Y-62244983D01*
X122532059Y-62392068D01*
X122474670Y-62530619D01*
X122391353Y-62655311D01*
X122285311Y-62761353D01*
X122160619Y-62844670D01*
X122022068Y-62902059D01*
X121874983Y-62931316D01*
X121725017Y-62931316D01*
X121577932Y-62902059D01*
X121439381Y-62844670D01*
X121314689Y-62761353D01*
X121208647Y-62655311D01*
X121125330Y-62530619D01*
X121067941Y-62392068D01*
X121038684Y-62244983D01*
X121038684Y-62095017D01*
X121067941Y-61947932D01*
X121125330Y-61809381D01*
X121208647Y-61684689D01*
X121314689Y-61578647D01*
X121439381Y-61495330D01*
X121577932Y-61437941D01*
X121725017Y-61408684D01*
X121874983Y-61408684D01*
X122022068Y-61437941D01*
G37*
G36*
X180422068Y-61437941D02*
G01*
X180560619Y-61495330D01*
X180685311Y-61578647D01*
X180791353Y-61684689D01*
X180874670Y-61809381D01*
X180932059Y-61947932D01*
X180961316Y-62095017D01*
X180961316Y-62244983D01*
X180932059Y-62392068D01*
X180874670Y-62530619D01*
X180791353Y-62655311D01*
X180685311Y-62761353D01*
X180560619Y-62844670D01*
X180422068Y-62902059D01*
X180274983Y-62931316D01*
X180125017Y-62931316D01*
X179977932Y-62902059D01*
X179839381Y-62844670D01*
X179714689Y-62761353D01*
X179608647Y-62655311D01*
X179525330Y-62530619D01*
X179467941Y-62392068D01*
X179438684Y-62244983D01*
X179438684Y-62095017D01*
X179467941Y-61947932D01*
X179525330Y-61809381D01*
X179608647Y-61684689D01*
X179714689Y-61578647D01*
X179839381Y-61495330D01*
X179977932Y-61437941D01*
X180125017Y-61408684D01*
X180274983Y-61408684D01*
X180422068Y-61437941D01*
G37*
G36*
X182962068Y-61437941D02*
G01*
X183100619Y-61495330D01*
X183225311Y-61578647D01*
X183331353Y-61684689D01*
X183414670Y-61809381D01*
X183472059Y-61947932D01*
X183501316Y-62095017D01*
X183501316Y-62244983D01*
X183472059Y-62392068D01*
X183414670Y-62530619D01*
X183331353Y-62655311D01*
X183225311Y-62761353D01*
X183100619Y-62844670D01*
X182962068Y-62902059D01*
X182814983Y-62931316D01*
X182665017Y-62931316D01*
X182517932Y-62902059D01*
X182379381Y-62844670D01*
X182254689Y-62761353D01*
X182148647Y-62655311D01*
X182065330Y-62530619D01*
X182007941Y-62392068D01*
X181978684Y-62244983D01*
X181978684Y-62095017D01*
X182007941Y-61947932D01*
X182065330Y-61809381D01*
X182148647Y-61684689D01*
X182254689Y-61578647D01*
X182379381Y-61495330D01*
X182517932Y-61437941D01*
X182665017Y-61408684D01*
X182814983Y-61408684D01*
X182962068Y-61437941D01*
G37*
G36*
X119482068Y-58897941D02*
G01*
X119620619Y-58955330D01*
X119745311Y-59038647D01*
X119851353Y-59144689D01*
X119934670Y-59269381D01*
X119992059Y-59407932D01*
X120021316Y-59555017D01*
X120021316Y-59704983D01*
X119992059Y-59852068D01*
X119934670Y-59990619D01*
X119851353Y-60115311D01*
X119745311Y-60221353D01*
X119620619Y-60304670D01*
X119482068Y-60362059D01*
X119334983Y-60391316D01*
X119185017Y-60391316D01*
X119037932Y-60362059D01*
X118899381Y-60304670D01*
X118774689Y-60221353D01*
X118668647Y-60115311D01*
X118585330Y-59990619D01*
X118527941Y-59852068D01*
X118498684Y-59704983D01*
X118498684Y-59555017D01*
X118527941Y-59407932D01*
X118585330Y-59269381D01*
X118668647Y-59144689D01*
X118774689Y-59038647D01*
X118899381Y-58955330D01*
X119037932Y-58897941D01*
X119185017Y-58868684D01*
X119334983Y-58868684D01*
X119482068Y-58897941D01*
G37*
G36*
X122022068Y-58897941D02*
G01*
X122160619Y-58955330D01*
X122285311Y-59038647D01*
X122391353Y-59144689D01*
X122474670Y-59269381D01*
X122532059Y-59407932D01*
X122561316Y-59555017D01*
X122561316Y-59704983D01*
X122532059Y-59852068D01*
X122474670Y-59990619D01*
X122391353Y-60115311D01*
X122285311Y-60221353D01*
X122160619Y-60304670D01*
X122022068Y-60362059D01*
X121874983Y-60391316D01*
X121725017Y-60391316D01*
X121577932Y-60362059D01*
X121439381Y-60304670D01*
X121314689Y-60221353D01*
X121208647Y-60115311D01*
X121125330Y-59990619D01*
X121067941Y-59852068D01*
X121038684Y-59704983D01*
X121038684Y-59555017D01*
X121067941Y-59407932D01*
X121125330Y-59269381D01*
X121208647Y-59144689D01*
X121314689Y-59038647D01*
X121439381Y-58955330D01*
X121577932Y-58897941D01*
X121725017Y-58868684D01*
X121874983Y-58868684D01*
X122022068Y-58897941D01*
G37*
G36*
X180422068Y-58897941D02*
G01*
X180560619Y-58955330D01*
X180685311Y-59038647D01*
X180791353Y-59144689D01*
X180874670Y-59269381D01*
X180932059Y-59407932D01*
X180961316Y-59555017D01*
X180961316Y-59704983D01*
X180932059Y-59852068D01*
X180874670Y-59990619D01*
X180791353Y-60115311D01*
X180685311Y-60221353D01*
X180560619Y-60304670D01*
X180422068Y-60362059D01*
X180274983Y-60391316D01*
X180125017Y-60391316D01*
X179977932Y-60362059D01*
X179839381Y-60304670D01*
X179714689Y-60221353D01*
X179608647Y-60115311D01*
X179525330Y-59990619D01*
X179467941Y-59852068D01*
X179438684Y-59704983D01*
X179438684Y-59555017D01*
X179467941Y-59407932D01*
X179525330Y-59269381D01*
X179608647Y-59144689D01*
X179714689Y-59038647D01*
X179839381Y-58955330D01*
X179977932Y-58897941D01*
X180125017Y-58868684D01*
X180274983Y-58868684D01*
X180422068Y-58897941D01*
G37*
G36*
X182962068Y-58897941D02*
G01*
X183100619Y-58955330D01*
X183225311Y-59038647D01*
X183331353Y-59144689D01*
X183414670Y-59269381D01*
X183472059Y-59407932D01*
X183501316Y-59555017D01*
X183501316Y-59704983D01*
X183472059Y-59852068D01*
X183414670Y-59990619D01*
X183331353Y-60115311D01*
X183225311Y-60221353D01*
X183100619Y-60304670D01*
X182962068Y-60362059D01*
X182814983Y-60391316D01*
X182665017Y-60391316D01*
X182517932Y-60362059D01*
X182379381Y-60304670D01*
X182254689Y-60221353D01*
X182148647Y-60115311D01*
X182065330Y-59990619D01*
X182007941Y-59852068D01*
X181978684Y-59704983D01*
X181978684Y-59555017D01*
X182007941Y-59407932D01*
X182065330Y-59269381D01*
X182148647Y-59144689D01*
X182254689Y-59038647D01*
X182379381Y-58955330D01*
X182517932Y-58897941D01*
X182665017Y-58868684D01*
X182814983Y-58868684D01*
X182962068Y-58897941D01*
G37*
G36*
X119482068Y-56357941D02*
G01*
X119620619Y-56415330D01*
X119745311Y-56498647D01*
X119851353Y-56604689D01*
X119934670Y-56729381D01*
X119992059Y-56867932D01*
X120021316Y-57015017D01*
X120021316Y-57164983D01*
X119992059Y-57312068D01*
X119934670Y-57450619D01*
X119851353Y-57575311D01*
X119745311Y-57681353D01*
X119620619Y-57764670D01*
X119482068Y-57822059D01*
X119334983Y-57851316D01*
X119185017Y-57851316D01*
X119037932Y-57822059D01*
X118899381Y-57764670D01*
X118774689Y-57681353D01*
X118668647Y-57575311D01*
X118585330Y-57450619D01*
X118527941Y-57312068D01*
X118498684Y-57164983D01*
X118498684Y-57015017D01*
X118527941Y-56867932D01*
X118585330Y-56729381D01*
X118668647Y-56604689D01*
X118774689Y-56498647D01*
X118899381Y-56415330D01*
X119037932Y-56357941D01*
X119185017Y-56328684D01*
X119334983Y-56328684D01*
X119482068Y-56357941D01*
G37*
G36*
X122022068Y-56357941D02*
G01*
X122160619Y-56415330D01*
X122285311Y-56498647D01*
X122391353Y-56604689D01*
X122474670Y-56729381D01*
X122532059Y-56867932D01*
X122561316Y-57015017D01*
X122561316Y-57164983D01*
X122532059Y-57312068D01*
X122474670Y-57450619D01*
X122391353Y-57575311D01*
X122285311Y-57681353D01*
X122160619Y-57764670D01*
X122022068Y-57822059D01*
X121874983Y-57851316D01*
X121725017Y-57851316D01*
X121577932Y-57822059D01*
X121439381Y-57764670D01*
X121314689Y-57681353D01*
X121208647Y-57575311D01*
X121125330Y-57450619D01*
X121067941Y-57312068D01*
X121038684Y-57164983D01*
X121038684Y-57015017D01*
X121067941Y-56867932D01*
X121125330Y-56729381D01*
X121208647Y-56604689D01*
X121314689Y-56498647D01*
X121439381Y-56415330D01*
X121577932Y-56357941D01*
X121725017Y-56328684D01*
X121874983Y-56328684D01*
X122022068Y-56357941D01*
G37*
G36*
X180422068Y-56357941D02*
G01*
X180560619Y-56415330D01*
X180685311Y-56498647D01*
X180791353Y-56604689D01*
X180874670Y-56729381D01*
X180932059Y-56867932D01*
X180961316Y-57015017D01*
X180961316Y-57164983D01*
X180932059Y-57312068D01*
X180874670Y-57450619D01*
X180791353Y-57575311D01*
X180685311Y-57681353D01*
X180560619Y-57764670D01*
X180422068Y-57822059D01*
X180274983Y-57851316D01*
X180125017Y-57851316D01*
X179977932Y-57822059D01*
X179839381Y-57764670D01*
X179714689Y-57681353D01*
X179608647Y-57575311D01*
X179525330Y-57450619D01*
X179467941Y-57312068D01*
X179438684Y-57164983D01*
X179438684Y-57015017D01*
X179467941Y-56867932D01*
X179525330Y-56729381D01*
X179608647Y-56604689D01*
X179714689Y-56498647D01*
X179839381Y-56415330D01*
X179977932Y-56357941D01*
X180125017Y-56328684D01*
X180274983Y-56328684D01*
X180422068Y-56357941D01*
G37*
G36*
X182962068Y-56357941D02*
G01*
X183100619Y-56415330D01*
X183225311Y-56498647D01*
X183331353Y-56604689D01*
X183414670Y-56729381D01*
X183472059Y-56867932D01*
X183501316Y-57015017D01*
X183501316Y-57164983D01*
X183472059Y-57312068D01*
X183414670Y-57450619D01*
X183331353Y-57575311D01*
X183225311Y-57681353D01*
X183100619Y-57764670D01*
X182962068Y-57822059D01*
X182814983Y-57851316D01*
X182665017Y-57851316D01*
X182517932Y-57822059D01*
X182379381Y-57764670D01*
X182254689Y-57681353D01*
X182148647Y-57575311D01*
X182065330Y-57450619D01*
X182007941Y-57312068D01*
X181978684Y-57164983D01*
X181978684Y-57015017D01*
X182007941Y-56867932D01*
X182065330Y-56729381D01*
X182148647Y-56604689D01*
X182254689Y-56498647D01*
X182379381Y-56415330D01*
X182517932Y-56357941D01*
X182665017Y-56328684D01*
X182814983Y-56328684D01*
X182962068Y-56357941D01*
G37*
G36*
X120025000Y-55315000D02*
G01*
X118495000Y-55315000D01*
X118495000Y-53785000D01*
X120025000Y-53785000D01*
X120025000Y-55315000D01*
G37*
G36*
X180965000Y-55315000D02*
G01*
X179435000Y-55315000D01*
X179435000Y-53785000D01*
X180965000Y-53785000D01*
X180965000Y-55315000D01*
G37*
G36*
X122022068Y-53817941D02*
G01*
X122160619Y-53875330D01*
X122285311Y-53958647D01*
X122391353Y-54064689D01*
X122474670Y-54189381D01*
X122532059Y-54327932D01*
X122561316Y-54475017D01*
X122561316Y-54624983D01*
X122532059Y-54772068D01*
X122474670Y-54910619D01*
X122391353Y-55035311D01*
X122285311Y-55141353D01*
X122160619Y-55224670D01*
X122022068Y-55282059D01*
X121874983Y-55311316D01*
X121725017Y-55311316D01*
X121577932Y-55282059D01*
X121439381Y-55224670D01*
X121314689Y-55141353D01*
X121208647Y-55035311D01*
X121125330Y-54910619D01*
X121067941Y-54772068D01*
X121038684Y-54624983D01*
X121038684Y-54475017D01*
X121067941Y-54327932D01*
X121125330Y-54189381D01*
X121208647Y-54064689D01*
X121314689Y-53958647D01*
X121439381Y-53875330D01*
X121577932Y-53817941D01*
X121725017Y-53788684D01*
X121874983Y-53788684D01*
X122022068Y-53817941D01*
G37*
G36*
X182962068Y-53817941D02*
G01*
X183100619Y-53875330D01*
X183225311Y-53958647D01*
X183331353Y-54064689D01*
X183414670Y-54189381D01*
X183472059Y-54327932D01*
X183501316Y-54475017D01*
X183501316Y-54624983D01*
X183472059Y-54772068D01*
X183414670Y-54910619D01*
X183331353Y-55035311D01*
X183225311Y-55141353D01*
X183100619Y-55224670D01*
X182962068Y-55282059D01*
X182814983Y-55311316D01*
X182665017Y-55311316D01*
X182517932Y-55282059D01*
X182379381Y-55224670D01*
X182254689Y-55141353D01*
X182148647Y-55035311D01*
X182065330Y-54910619D01*
X182007941Y-54772068D01*
X181978684Y-54624983D01*
X181978684Y-54475017D01*
X182007941Y-54327932D01*
X182065330Y-54189381D01*
X182148647Y-54064689D01*
X182254689Y-53958647D01*
X182379381Y-53875330D01*
X182517932Y-53817941D01*
X182665017Y-53788684D01*
X182814983Y-53788684D01*
X182962068Y-53817941D01*
G37*
M02*
