%TF.GenerationSoftware,KiCad,Pcbnew,9.0.7-9.0.7~ubuntu24.04.1*%
%TF.CreationDate,2026-01-13T16:37:34+01:00*%
%TF.ProjectId,can_uart,63616e5f-7561-4727-942e-6b696361645f,1.0*%
%TF.SameCoordinates,Original*%
%TF.FileFunction,Soldermask,Top*%
%TF.FilePolarity,Negative*%
%FSLAX46Y46*%
G04 Gerber Fmt 4.6, Leading zero omitted, Abs format (unit mm)*
G04 Created by KiCad (PCBNEW 9.0.7-9.0.7~ubuntu24.04.1) date 2026-01-13 16:37:34*
%MOMM*%
%LPD*%
G01*
G04 APERTURE LIST*
G04 APERTURE END LIST*
G36*
X119482068Y-109697941D02*
G01*
X119620619Y-109755330D01*
X119745311Y-109838647D01*
X119851353Y-109944689D01*
X119934670Y-110069381D01*
X119992059Y-110207932D01*
X120021316Y-110355017D01*
X120021316Y-110504983D01*
X119992059Y-110652068D01*
X119934670Y-110790619D01*
X119851353Y-110915311D01*
X119745311Y-111021353D01*
X119620619Y-111104670D01*
X119482068Y-111162059D01*
X119334983Y-111191316D01*
X119185017Y-111191316D01*
X119037932Y-111162059D01*
X118899381Y-111104670D01*
X118774689Y-111021353D01*
X118668647Y-110915311D01*
X118585330Y-110790619D01*
X118527941Y-110652068D01*
X118498684Y-110504983D01*
X118498684Y-110355017D01*
X118527941Y-110207932D01*
X118585330Y-110069381D01*
X118668647Y-109944689D01*
X118774689Y-109838647D01*
X118899381Y-109755330D01*
X119037932Y-109697941D01*
X119185017Y-109668684D01*
X119334983Y-109668684D01*
X119482068Y-109697941D01*
G37*
G36*
X122022068Y-109697941D02*
G01*
X122160619Y-109755330D01*
X122285311Y-109838647D01*
X122391353Y-109944689D01*
X122474670Y-110069381D01*
X122532059Y-110207932D01*
X122561316Y-110355017D01*
X122561316Y-110504983D01*
X122532059Y-110652068D01*
X122474670Y-110790619D01*
X122391353Y-110915311D01*
X122285311Y-111021353D01*
X122160619Y-111104670D01*
X122022068Y-111162059D01*
X121874983Y-111191316D01*
X121725017Y-111191316D01*
X121577932Y-111162059D01*
X121439381Y-111104670D01*
X121314689Y-111021353D01*
X121208647Y-110915311D01*
X121125330Y-110790619D01*
X121067941Y-110652068D01*
X121038684Y-110504983D01*
X121038684Y-110355017D01*
X121067941Y-110207932D01*
X121125330Y-110069381D01*
X121208647Y-109944689D01*
X121314689Y-109838647D01*
X121439381Y-109755330D01*
X121577932Y-109697941D01*
X121725017Y-109668684D01*
X121874983Y-109668684D01*
X122022068Y-109697941D01*
G37*
G36*
X180422068Y-109697941D02*
G01*
X180560619Y-109755330D01*
X180685311Y-109838647D01*
X180791353Y-109944689D01*
X180874670Y-110069381D01*
X180932059Y-110207932D01*
X180961316Y-110355017D01*
X180961316Y-110504983D01*
X180932059Y-110652068D01*
X180874670Y-110790619D01*
X180791353Y-110915311D01*
X180685311Y-111021353D01*
X180560619Y-111104670D01*
X180422068Y-111162059D01*
X180274983Y-111191316D01*
X180125017Y-111191316D01*
X179977932Y-111162059D01*
X179839381Y-111104670D01*
X179714689Y-111021353D01*
X179608647Y-110915311D01*
X179525330Y-110790619D01*
X179467941Y-110652068D01*
X179438684Y-110504983D01*
X179438684Y-110355017D01*
X179467941Y-110207932D01*
X179525330Y-110069381D01*
X179608647Y-109944689D01*
X179714689Y-109838647D01*
X179839381Y-109755330D01*
X179977932Y-109697941D01*
X180125017Y-109668684D01*
X180274983Y-109668684D01*
X180422068Y-109697941D01*
G37*
G36*
X182962068Y-109697941D02*
G01*
X183100619Y-109755330D01*
X183225311Y-109838647D01*
X183331353Y-109944689D01*
X183414670Y-110069381D01*
X183472059Y-110207932D01*
X183501316Y-110355017D01*
X183501316Y-110504983D01*
X183472059Y-110652068D01*
X183414670Y-110790619D01*
X183331353Y-110915311D01*
X183225311Y-111021353D01*
X183100619Y-111104670D01*
X182962068Y-111162059D01*
X182814983Y-111191316D01*
X182665017Y-111191316D01*
X182517932Y-111162059D01*
X182379381Y-111104670D01*
X182254689Y-111021353D01*
X182148647Y-110915311D01*
X182065330Y-110790619D01*
X182007941Y-110652068D01*
X181978684Y-110504983D01*
X181978684Y-110355017D01*
X182007941Y-110207932D01*
X182065330Y-110069381D01*
X182148647Y-109944689D01*
X182254689Y-109838647D01*
X182379381Y-109755330D01*
X182517932Y-109697941D01*
X182665017Y-109668684D01*
X182814983Y-109668684D01*
X182962068Y-109697941D01*
G37*
G36*
X119482068Y-107157941D02*
G01*
X119620619Y-107215330D01*
X119745311Y-107298647D01*
X119851353Y-107404689D01*
X119934670Y-107529381D01*
X119992059Y-107667932D01*
X120021316Y-107815017D01*
X120021316Y-107964983D01*
X119992059Y-108112068D01*
X119934670Y-108250619D01*
X119851353Y-108375311D01*
X119745311Y-108481353D01*
X119620619Y-108564670D01*
X119482068Y-108622059D01*
X119334983Y-108651316D01*
X119185017Y-108651316D01*
X119037932Y-108622059D01*
X118899381Y-108564670D01*
X118774689Y-108481353D01*
X118668647Y-108375311D01*
X118585330Y-108250619D01*
X118527941Y-108112068D01*
X118498684Y-107964983D01*
X118498684Y-107815017D01*
X118527941Y-107667932D01*
X118585330Y-107529381D01*
X118668647Y-107404689D01*
X118774689Y-107298647D01*
X118899381Y-107215330D01*
X119037932Y-107157941D01*
X119185017Y-107128684D01*
X119334983Y-107128684D01*
X119482068Y-107157941D01*
G37*
G36*
X122022068Y-107157941D02*
G01*
X122160619Y-107215330D01*
X122285311Y-107298647D01*
X122391353Y-107404689D01*
X122474670Y-107529381D01*
X122532059Y-107667932D01*
X122561316Y-107815017D01*
X122561316Y-107964983D01*
X122532059Y-108112068D01*
X122474670Y-108250619D01*
X122391353Y-108375311D01*
X122285311Y-108481353D01*
X122160619Y-108564670D01*
X122022068Y-108622059D01*
X121874983Y-108651316D01*
X121725017Y-108651316D01*
X121577932Y-108622059D01*
X121439381Y-108564670D01*
X121314689Y-108481353D01*
X121208647Y-108375311D01*
X121125330Y-108250619D01*
X121067941Y-108112068D01*
X121038684Y-107964983D01*
X121038684Y-107815017D01*
X121067941Y-107667932D01*
X121125330Y-107529381D01*
X121208647Y-107404689D01*
X121314689Y-107298647D01*
X121439381Y-107215330D01*
X121577932Y-107157941D01*
X121725017Y-107128684D01*
X121874983Y-107128684D01*
X122022068Y-107157941D01*
G37*
G36*
X180422068Y-107157941D02*
G01*
X180560619Y-107215330D01*
X180685311Y-107298647D01*
X180791353Y-107404689D01*
X180874670Y-107529381D01*
X180932059Y-107667932D01*
X180961316Y-107815017D01*
X180961316Y-107964983D01*
X180932059Y-108112068D01*
X180874670Y-108250619D01*
X180791353Y-108375311D01*
X180685311Y-108481353D01*
X180560619Y-108564670D01*
X180422068Y-108622059D01*
X180274983Y-108651316D01*
X180125017Y-108651316D01*
X179977932Y-108622059D01*
X179839381Y-108564670D01*
X179714689Y-108481353D01*
X179608647Y-108375311D01*
X179525330Y-108250619D01*
X179467941Y-108112068D01*
X179438684Y-107964983D01*
X179438684Y-107815017D01*
X179467941Y-107667932D01*
X179525330Y-107529381D01*
X179608647Y-107404689D01*
X179714689Y-107298647D01*
X179839381Y-107215330D01*
X179977932Y-107157941D01*
X180125017Y-107128684D01*
X180274983Y-107128684D01*
X180422068Y-107157941D01*
G37*
G36*
X182962068Y-107157941D02*
G01*
X183100619Y-107215330D01*
X183225311Y-107298647D01*
X183331353Y-107404689D01*
X183414670Y-107529381D01*
X183472059Y-107667932D01*
X183501316Y-107815017D01*
X183501316Y-107964983D01*
X183472059Y-108112068D01*
X183414670Y-108250619D01*
X183331353Y-108375311D01*
X183225311Y-108481353D01*
X183100619Y-108564670D01*
X182962068Y-108622059D01*
X182814983Y-108651316D01*
X182665017Y-108651316D01*
X182517932Y-108622059D01*
X182379381Y-108564670D01*
X182254689Y-108481353D01*
X182148647Y-108375311D01*
X182065330Y-108250619D01*
X182007941Y-108112068D01*
X181978684Y-107964983D01*
X181978684Y-107815017D01*
X182007941Y-107667932D01*
X182065330Y-107529381D01*
X182148647Y-107404689D01*
X182254689Y-107298647D01*
X182379381Y-107215330D01*
X182517932Y-107157941D01*
X182665017Y-107128684D01*
X182814983Y-107128684D01*
X182962068Y-107157941D01*
G37*
G36*
X119482068Y-104617941D02*
G01*
X119620619Y-104675330D01*
X119745311Y-104758647D01*
X119851353Y-104864689D01*
X119934670Y-104989381D01*
X119992059Y-105127932D01*
X120021316Y-105275017D01*
X120021316Y-105424983D01*
X119992059Y-105572068D01*
X119934670Y-105710619D01*
X119851353Y-105835311D01*
X119745311Y-105941353D01*
X119620619Y-106024670D01*
X119482068Y-106082059D01*
X119334983Y-106111316D01*
X119185017Y-106111316D01*
X119037932Y-106082059D01*
X118899381Y-106024670D01*
X118774689Y-105941353D01*
X118668647Y-105835311D01*
X118585330Y-105710619D01*
X118527941Y-105572068D01*
X118498684Y-105424983D01*
X118498684Y-105275017D01*
X118527941Y-105127932D01*
X118585330Y-104989381D01*
X118668647Y-104864689D01*
X118774689Y-104758647D01*
X118899381Y-104675330D01*
X119037932Y-104617941D01*
X119185017Y-104588684D01*
X119334983Y-104588684D01*
X119482068Y-104617941D01*
G37*
G36*
X122022068Y-104617941D02*
G01*
X122160619Y-104675330D01*
X122285311Y-104758647D01*
X122391353Y-104864689D01*
X122474670Y-104989381D01*
X122532059Y-105127932D01*
X122561316Y-105275017D01*
X122561316Y-105424983D01*
X122532059Y-105572068D01*
X122474670Y-105710619D01*
X122391353Y-105835311D01*
X122285311Y-105941353D01*
X122160619Y-106024670D01*
X122022068Y-106082059D01*
X121874983Y-106111316D01*
X121725017Y-106111316D01*
X121577932Y-106082059D01*
X121439381Y-106024670D01*
X121314689Y-105941353D01*
X121208647Y-105835311D01*
X121125330Y-105710619D01*
X121067941Y-105572068D01*
X121038684Y-105424983D01*
X121038684Y-105275017D01*
X121067941Y-105127932D01*
X121125330Y-104989381D01*
X121208647Y-104864689D01*
X121314689Y-104758647D01*
X121439381Y-104675330D01*
X121577932Y-104617941D01*
X121725017Y-104588684D01*
X121874983Y-104588684D01*
X122022068Y-104617941D01*
G37*
G36*
X180422068Y-104617941D02*
G01*
X180560619Y-104675330D01*
X180685311Y-104758647D01*
X180791353Y-104864689D01*
X180874670Y-104989381D01*
X180932059Y-105127932D01*
X180961316Y-105275017D01*
X180961316Y-105424983D01*
X180932059Y-105572068D01*
X180874670Y-105710619D01*
X180791353Y-105835311D01*
X180685311Y-105941353D01*
X180560619Y-106024670D01*
X180422068Y-106082059D01*
X180274983Y-106111316D01*
X180125017Y-106111316D01*
X179977932Y-106082059D01*
X179839381Y-106024670D01*
X179714689Y-105941353D01*
X179608647Y-105835311D01*
X179525330Y-105710619D01*
X179467941Y-105572068D01*
X179438684Y-105424983D01*
X179438684Y-105275017D01*
X179467941Y-105127932D01*
X179525330Y-104989381D01*
X179608647Y-104864689D01*
X179714689Y-104758647D01*
X179839381Y-104675330D01*
X179977932Y-104617941D01*
X180125017Y-104588684D01*
X180274983Y-104588684D01*
X180422068Y-104617941D01*
G37*
G36*
X182962068Y-104617941D02*
G01*
X183100619Y-104675330D01*
X183225311Y-104758647D01*
X183331353Y-104864689D01*
X183414670Y-104989381D01*
X183472059Y-105127932D01*
X183501316Y-105275017D01*
X183501316Y-105424983D01*
X183472059Y-105572068D01*
X183414670Y-105710619D01*
X183331353Y-105835311D01*
X183225311Y-105941353D01*
X183100619Y-106024670D01*
X182962068Y-106082059D01*
X182814983Y-106111316D01*
X182665017Y-106111316D01*
X182517932Y-106082059D01*
X182379381Y-106024670D01*
X182254689Y-105941353D01*
X182148647Y-105835311D01*
X182065330Y-105710619D01*
X182007941Y-105572068D01*
X181978684Y-105424983D01*
X181978684Y-105275017D01*
X182007941Y-105127932D01*
X182065330Y-104989381D01*
X182148647Y-104864689D01*
X182254689Y-104758647D01*
X182379381Y-104675330D01*
X182517932Y-104617941D01*
X182665017Y-104588684D01*
X182814983Y-104588684D01*
X182962068Y-104617941D01*
G37*
G36*
X119482068Y-102077941D02*
G01*
X119620619Y-102135330D01*
X119745311Y-102218647D01*
X119851353Y-102324689D01*
X119934670Y-102449381D01*
X119992059Y-102587932D01*
X120021316Y-102735017D01*
X120021316Y-102884983D01*
X119992059Y-103032068D01*
X119934670Y-103170619D01*
X119851353Y-103295311D01*
X119745311Y-103401353D01*
X119620619Y-103484670D01*
X119482068Y-103542059D01*
X119334983Y-103571316D01*
X119185017Y-103571316D01*
X119037932Y-103542059D01*
X118899381Y-103484670D01*
X118774689Y-103401353D01*
X118668647Y-103295311D01*
X118585330Y-103170619D01*
X118527941Y-103032068D01*
X118498684Y-102884983D01*
X118498684Y-102735017D01*
X118527941Y-102587932D01*
X118585330Y-102449381D01*
X118668647Y-102324689D01*
X118774689Y-102218647D01*
X118899381Y-102135330D01*
X119037932Y-102077941D01*
X119185017Y-102048684D01*
X119334983Y-102048684D01*
X119482068Y-102077941D01*
G37*
G36*
X122022068Y-102077941D02*
G01*
X122160619Y-102135330D01*
X122285311Y-102218647D01*
X122391353Y-102324689D01*
X122474670Y-102449381D01*
X122532059Y-102587932D01*
X122561316Y-102735017D01*
X122561316Y-102884983D01*
X122532059Y-103032068D01*
X122474670Y-103170619D01*
X122391353Y-103295311D01*
X122285311Y-103401353D01*
X122160619Y-103484670D01*
X122022068Y-103542059D01*
X121874983Y-103571316D01*
X121725017Y-103571316D01*
X121577932Y-103542059D01*
X121439381Y-103484670D01*
X121314689Y-103401353D01*
X121208647Y-103295311D01*
X121125330Y-103170619D01*
X121067941Y-103032068D01*
X121038684Y-102884983D01*
X121038684Y-102735017D01*
X121067941Y-102587932D01*
X121125330Y-102449381D01*
X121208647Y-102324689D01*
X121314689Y-102218647D01*
X121439381Y-102135330D01*
X121577932Y-102077941D01*
X121725017Y-102048684D01*
X121874983Y-102048684D01*
X122022068Y-102077941D01*
G37*
G36*
X180422068Y-102077941D02*
G01*
X180560619Y-102135330D01*
X180685311Y-102218647D01*
X180791353Y-102324689D01*
X180874670Y-102449381D01*
X180932059Y-102587932D01*
X180961316Y-102735017D01*
X180961316Y-102884983D01*
X180932059Y-103032068D01*
X180874670Y-103170619D01*
X180791353Y-103295311D01*
X180685311Y-103401353D01*
X180560619Y-103484670D01*
X180422068Y-103542059D01*
X180274983Y-103571316D01*
X180125017Y-103571316D01*
X179977932Y-103542059D01*
X179839381Y-103484670D01*
X179714689Y-103401353D01*
X179608647Y-103295311D01*
X179525330Y-103170619D01*
X179467941Y-103032068D01*
X179438684Y-102884983D01*
X179438684Y-102735017D01*
X179467941Y-102587932D01*
X179525330Y-102449381D01*
X179608647Y-102324689D01*
X179714689Y-102218647D01*
X179839381Y-102135330D01*
X179977932Y-102077941D01*
X180125017Y-102048684D01*
X180274983Y-102048684D01*
X180422068Y-102077941D01*
G37*
G36*
X182962068Y-102077941D02*
G01*
X183100619Y-102135330D01*
X183225311Y-102218647D01*
X183331353Y-102324689D01*
X183414670Y-102449381D01*
X183472059Y-102587932D01*
X183501316Y-102735017D01*
X183501316Y-102884983D01*
X183472059Y-103032068D01*
X183414670Y-103170619D01*
X183331353Y-103295311D01*
X183225311Y-103401353D01*
X183100619Y-103484670D01*
X182962068Y-103542059D01*
X182814983Y-103571316D01*
X182665017Y-103571316D01*
X182517932Y-103542059D01*
X182379381Y-103484670D01*
X182254689Y-103401353D01*
X182148647Y-103295311D01*
X182065330Y-103170619D01*
X182007941Y-103032068D01*
X181978684Y-102884983D01*
X181978684Y-102735017D01*
X182007941Y-102587932D01*
X182065330Y-102449381D01*
X182148647Y-102324689D01*
X182254689Y-102218647D01*
X182379381Y-102135330D01*
X182517932Y-102077941D01*
X182665017Y-102048684D01*
X182814983Y-102048684D01*
X182962068Y-102077941D01*
G37*
G36*
X119482068Y-99537941D02*
G01*
X119620619Y-99595330D01*
X119745311Y-99678647D01*
X119851353Y-99784689D01*
X119934670Y-99909381D01*
X119992059Y-100047932D01*
X120021316Y-100195017D01*
X120021316Y-100344983D01*
X119992059Y-100492068D01*
X119934670Y-100630619D01*
X119851353Y-100755311D01*
X119745311Y-100861353D01*
X119620619Y-100944670D01*
X119482068Y-101002059D01*
X119334983Y-101031316D01*
X119185017Y-101031316D01*
X119037932Y-101002059D01*
X118899381Y-100944670D01*
X118774689Y-100861353D01*
X118668647Y-100755311D01*
X118585330Y-100630619D01*
X118527941Y-100492068D01*
X118498684Y-100344983D01*
X118498684Y-100195017D01*
X118527941Y-100047932D01*
X118585330Y-99909381D01*
X118668647Y-99784689D01*
X118774689Y-99678647D01*
X118899381Y-99595330D01*
X119037932Y-99537941D01*
X119185017Y-99508684D01*
X119334983Y-99508684D01*
X119482068Y-99537941D01*
G37*
G36*
X122022068Y-99537941D02*
G01*
X122160619Y-99595330D01*
X122285311Y-99678647D01*
X122391353Y-99784689D01*
X122474670Y-99909381D01*
X122532059Y-100047932D01*
X122561316Y-100195017D01*
X122561316Y-100344983D01*
X122532059Y-100492068D01*
X122474670Y-100630619D01*
X122391353Y-100755311D01*
X122285311Y-100861353D01*
X122160619Y-100944670D01*
X122022068Y-101002059D01*
X121874983Y-101031316D01*
X121725017Y-101031316D01*
X121577932Y-101002059D01*
X121439381Y-100944670D01*
X121314689Y-100861353D01*
X121208647Y-100755311D01*
X121125330Y-100630619D01*
X121067941Y-100492068D01*
X121038684Y-100344983D01*
X121038684Y-100195017D01*
X121067941Y-100047932D01*
X121125330Y-99909381D01*
X121208647Y-99784689D01*
X121314689Y-99678647D01*
X121439381Y-99595330D01*
X121577932Y-99537941D01*
X121725017Y-99508684D01*
X121874983Y-99508684D01*
X122022068Y-99537941D01*
G37*
G36*
X180422068Y-99537941D02*
G01*
X180560619Y-99595330D01*
X180685311Y-99678647D01*
X180791353Y-99784689D01*
X180874670Y-99909381D01*
X180932059Y-100047932D01*
X180961316Y-100195017D01*
X180961316Y-100344983D01*
X180932059Y-100492068D01*
X180874670Y-100630619D01*
X180791353Y-100755311D01*
X180685311Y-100861353D01*
X180560619Y-100944670D01*
X180422068Y-101002059D01*
X180274983Y-101031316D01*
X180125017Y-101031316D01*
X179977932Y-101002059D01*
X179839381Y-100944670D01*
X179714689Y-100861353D01*
X179608647Y-100755311D01*
X179525330Y-100630619D01*
X179467941Y-100492068D01*
X179438684Y-100344983D01*
X179438684Y-100195017D01*
X179467941Y-100047932D01*
X179525330Y-99909381D01*
X179608647Y-99784689D01*
X179714689Y-99678647D01*
X179839381Y-99595330D01*
X179977932Y-99537941D01*
X180125017Y-99508684D01*
X180274983Y-99508684D01*
X180422068Y-99537941D01*
G37*
G36*
X182962068Y-99537941D02*
G01*
X183100619Y-99595330D01*
X183225311Y-99678647D01*
X183331353Y-99784689D01*
X183414670Y-99909381D01*
X183472059Y-100047932D01*
X183501316Y-100195017D01*
X183501316Y-100344983D01*
X183472059Y-100492068D01*
X183414670Y-100630619D01*
X183331353Y-100755311D01*
X183225311Y-100861353D01*
X183100619Y-100944670D01*
X182962068Y-101002059D01*
X182814983Y-101031316D01*
X182665017Y-101031316D01*
X182517932Y-101002059D01*
X182379381Y-100944670D01*
X182254689Y-100861353D01*
X182148647Y-100755311D01*
X182065330Y-100630619D01*
X182007941Y-100492068D01*
X181978684Y-100344983D01*
X181978684Y-100195017D01*
X182007941Y-100047932D01*
X182065330Y-99909381D01*
X182148647Y-99784689D01*
X182254689Y-99678647D01*
X182379381Y-99595330D01*
X182517932Y-99537941D01*
X182665017Y-99508684D01*
X182814983Y-99508684D01*
X182962068Y-99537941D01*
G37*
G36*
X156151476Y-98517117D02*
G01*
X156275819Y-98588907D01*
X156377344Y-98690432D01*
X156449134Y-98814775D01*
X156486295Y-98953462D01*
X156486295Y-99097040D01*
X156449134Y-99235727D01*
X156377344Y-99360070D01*
X156275819Y-99461595D01*
X156151476Y-99533385D01*
X156012789Y-99570546D01*
X155869211Y-99570546D01*
X155730524Y-99533385D01*
X155606181Y-99461595D01*
X155504656Y-99360070D01*
X155432866Y-99235727D01*
X155395705Y-99097040D01*
X155395705Y-98953462D01*
X155432866Y-98814775D01*
X155504656Y-98690432D01*
X155606181Y-98588907D01*
X155730524Y-98517117D01*
X155869211Y-98479956D01*
X156012789Y-98479956D01*
X156151476Y-98517117D01*
G37*
G36*
X158691476Y-98517117D02*
G01*
X158815819Y-98588907D01*
X158917344Y-98690432D01*
X158989134Y-98814775D01*
X159026295Y-98953462D01*
X159026295Y-99097040D01*
X158989134Y-99235727D01*
X158917344Y-99360070D01*
X158815819Y-99461595D01*
X158691476Y-99533385D01*
X158552789Y-99570546D01*
X158409211Y-99570546D01*
X158270524Y-99533385D01*
X158146181Y-99461595D01*
X158044656Y-99360070D01*
X157972866Y-99235727D01*
X157935705Y-99097040D01*
X157935705Y-98953462D01*
X157972866Y-98814775D01*
X158044656Y-98690432D01*
X158146181Y-98588907D01*
X158270524Y-98517117D01*
X158409211Y-98479956D01*
X158552789Y-98479956D01*
X158691476Y-98517117D01*
G37*
G36*
X131110476Y-98431866D02*
G01*
X131234819Y-98503656D01*
X131336344Y-98605181D01*
X131408134Y-98729524D01*
X131445295Y-98868211D01*
X131445295Y-99011789D01*
X131408134Y-99150476D01*
X131336344Y-99274819D01*
X131234819Y-99376344D01*
X131110476Y-99448134D01*
X130971789Y-99485295D01*
X130828211Y-99485295D01*
X130689524Y-99448134D01*
X130565181Y-99376344D01*
X130463656Y-99274819D01*
X130391866Y-99150476D01*
X130354705Y-99011789D01*
X130354705Y-98868211D01*
X130391866Y-98729524D01*
X130463656Y-98605181D01*
X130565181Y-98503656D01*
X130689524Y-98431866D01*
X130828211Y-98394705D01*
X130971789Y-98394705D01*
X131110476Y-98431866D01*
G37*
G36*
X133650476Y-98431866D02*
G01*
X133774819Y-98503656D01*
X133876344Y-98605181D01*
X133948134Y-98729524D01*
X133985295Y-98868211D01*
X133985295Y-99011789D01*
X133948134Y-99150476D01*
X133876344Y-99274819D01*
X133774819Y-99376344D01*
X133650476Y-99448134D01*
X133511789Y-99485295D01*
X133368211Y-99485295D01*
X133229524Y-99448134D01*
X133105181Y-99376344D01*
X133003656Y-99274819D01*
X132931866Y-99150476D01*
X132894705Y-99011789D01*
X132894705Y-98868211D01*
X132931866Y-98729524D01*
X133003656Y-98605181D01*
X133105181Y-98503656D01*
X133229524Y-98431866D01*
X133368211Y-98394705D01*
X133511789Y-98394705D01*
X133650476Y-98431866D01*
G37*
G36*
X136190476Y-98431866D02*
G01*
X136314819Y-98503656D01*
X136416344Y-98605181D01*
X136488134Y-98729524D01*
X136525295Y-98868211D01*
X136525295Y-99011789D01*
X136488134Y-99150476D01*
X136416344Y-99274819D01*
X136314819Y-99376344D01*
X136190476Y-99448134D01*
X136051789Y-99485295D01*
X135908211Y-99485295D01*
X135769524Y-99448134D01*
X135645181Y-99376344D01*
X135543656Y-99274819D01*
X135471866Y-99150476D01*
X135434705Y-99011789D01*
X135434705Y-98868211D01*
X135471866Y-98729524D01*
X135543656Y-98605181D01*
X135645181Y-98503656D01*
X135769524Y-98431866D01*
X135908211Y-98394705D01*
X136051789Y-98394705D01*
X136190476Y-98431866D01*
G37*
G36*
X119482068Y-96997941D02*
G01*
X119620619Y-97055330D01*
X119745311Y-97138647D01*
X119851353Y-97244689D01*
X119934670Y-97369381D01*
X119992059Y-97507932D01*
X120021316Y-97655017D01*
X120021316Y-97804983D01*
X119992059Y-97952068D01*
X119934670Y-98090619D01*
X119851353Y-98215311D01*
X119745311Y-98321353D01*
X119620619Y-98404670D01*
X119482068Y-98462059D01*
X119334983Y-98491316D01*
X119185017Y-98491316D01*
X119037932Y-98462059D01*
X118899381Y-98404670D01*
X118774689Y-98321353D01*
X118668647Y-98215311D01*
X118585330Y-98090619D01*
X118527941Y-97952068D01*
X118498684Y-97804983D01*
X118498684Y-97655017D01*
X118527941Y-97507932D01*
X118585330Y-97369381D01*
X118668647Y-97244689D01*
X118774689Y-97138647D01*
X118899381Y-97055330D01*
X119037932Y-96997941D01*
X119185017Y-96968684D01*
X119334983Y-96968684D01*
X119482068Y-96997941D01*
G37*
G36*
X122022068Y-96997941D02*
G01*
X122160619Y-97055330D01*
X122285311Y-97138647D01*
X122391353Y-97244689D01*
X122474670Y-97369381D01*
X122532059Y-97507932D01*
X122561316Y-97655017D01*
X122561316Y-97804983D01*
X122532059Y-97952068D01*
X122474670Y-98090619D01*
X122391353Y-98215311D01*
X122285311Y-98321353D01*
X122160619Y-98404670D01*
X122022068Y-98462059D01*
X121874983Y-98491316D01*
X121725017Y-98491316D01*
X121577932Y-98462059D01*
X121439381Y-98404670D01*
X121314689Y-98321353D01*
X121208647Y-98215311D01*
X121125330Y-98090619D01*
X121067941Y-97952068D01*
X121038684Y-97804983D01*
X121038684Y-97655017D01*
X121067941Y-97507932D01*
X121125330Y-97369381D01*
X121208647Y-97244689D01*
X121314689Y-97138647D01*
X121439381Y-97055330D01*
X121577932Y-96997941D01*
X121725017Y-96968684D01*
X121874983Y-96968684D01*
X122022068Y-96997941D01*
G37*
G36*
X180422068Y-96997941D02*
G01*
X180560619Y-97055330D01*
X180685311Y-97138647D01*
X180791353Y-97244689D01*
X180874670Y-97369381D01*
X180932059Y-97507932D01*
X180961316Y-97655017D01*
X180961316Y-97804983D01*
X180932059Y-97952068D01*
X180874670Y-98090619D01*
X180791353Y-98215311D01*
X180685311Y-98321353D01*
X180560619Y-98404670D01*
X180422068Y-98462059D01*
X180274983Y-98491316D01*
X180125017Y-98491316D01*
X179977932Y-98462059D01*
X179839381Y-98404670D01*
X179714689Y-98321353D01*
X179608647Y-98215311D01*
X179525330Y-98090619D01*
X179467941Y-97952068D01*
X179438684Y-97804983D01*
X179438684Y-97655017D01*
X179467941Y-97507932D01*
X179525330Y-97369381D01*
X179608647Y-97244689D01*
X179714689Y-97138647D01*
X179839381Y-97055330D01*
X179977932Y-96997941D01*
X180125017Y-96968684D01*
X180274983Y-96968684D01*
X180422068Y-96997941D01*
G37*
G36*
X182962068Y-96997941D02*
G01*
X183100619Y-97055330D01*
X183225311Y-97138647D01*
X183331353Y-97244689D01*
X183414670Y-97369381D01*
X183472059Y-97507932D01*
X183501316Y-97655017D01*
X183501316Y-97804983D01*
X183472059Y-97952068D01*
X183414670Y-98090619D01*
X183331353Y-98215311D01*
X183225311Y-98321353D01*
X183100619Y-98404670D01*
X182962068Y-98462059D01*
X182814983Y-98491316D01*
X182665017Y-98491316D01*
X182517932Y-98462059D01*
X182379381Y-98404670D01*
X182254689Y-98321353D01*
X182148647Y-98215311D01*
X182065330Y-98090619D01*
X182007941Y-97952068D01*
X181978684Y-97804983D01*
X181978684Y-97655017D01*
X182007941Y-97507932D01*
X182065330Y-97369381D01*
X182148647Y-97244689D01*
X182254689Y-97138647D01*
X182379381Y-97055330D01*
X182517932Y-96997941D01*
X182665017Y-96968684D01*
X182814983Y-96968684D01*
X182962068Y-96997941D01*
G37*
G36*
X156766000Y-97310251D02*
G01*
X155116000Y-97310251D01*
X155116000Y-95660251D01*
X156766000Y-95660251D01*
X156766000Y-97310251D01*
G37*
G36*
X158720485Y-95695775D02*
G01*
X158869902Y-95757666D01*
X159004374Y-95847517D01*
X159118734Y-95961877D01*
X159208585Y-96096349D01*
X159270476Y-96245766D01*
X159302027Y-96404387D01*
X159302027Y-96566115D01*
X159270476Y-96724736D01*
X159208585Y-96874153D01*
X159118734Y-97008625D01*
X159004374Y-97122985D01*
X158869902Y-97212836D01*
X158720485Y-97274727D01*
X158561864Y-97306278D01*
X158400136Y-97306278D01*
X158241515Y-97274727D01*
X158092098Y-97212836D01*
X157957626Y-97122985D01*
X157843266Y-97008625D01*
X157753415Y-96874153D01*
X157691524Y-96724736D01*
X157659973Y-96566115D01*
X157659973Y-96404387D01*
X157691524Y-96245766D01*
X157753415Y-96096349D01*
X157843266Y-95961877D01*
X157957626Y-95847517D01*
X158092098Y-95757666D01*
X158241515Y-95695775D01*
X158400136Y-95664224D01*
X158561864Y-95664224D01*
X158720485Y-95695775D01*
G37*
G36*
X131725000Y-97225000D02*
G01*
X130075000Y-97225000D01*
X130075000Y-95575000D01*
X131725000Y-95575000D01*
X131725000Y-97225000D01*
G37*
G36*
X133679485Y-95610524D02*
G01*
X133828902Y-95672415D01*
X133963374Y-95762266D01*
X134077734Y-95876626D01*
X134167585Y-96011098D01*
X134229476Y-96160515D01*
X134261027Y-96319136D01*
X134261027Y-96480864D01*
X134229476Y-96639485D01*
X134167585Y-96788902D01*
X134077734Y-96923374D01*
X133963374Y-97037734D01*
X133828902Y-97127585D01*
X133679485Y-97189476D01*
X133520864Y-97221027D01*
X133359136Y-97221027D01*
X133200515Y-97189476D01*
X133051098Y-97127585D01*
X132916626Y-97037734D01*
X132802266Y-96923374D01*
X132712415Y-96788902D01*
X132650524Y-96639485D01*
X132618973Y-96480864D01*
X132618973Y-96319136D01*
X132650524Y-96160515D01*
X132712415Y-96011098D01*
X132802266Y-95876626D01*
X132916626Y-95762266D01*
X133051098Y-95672415D01*
X133200515Y-95610524D01*
X133359136Y-95578973D01*
X133520864Y-95578973D01*
X133679485Y-95610524D01*
G37*
G36*
X136219485Y-95610524D02*
G01*
X136368902Y-95672415D01*
X136503374Y-95762266D01*
X136617734Y-95876626D01*
X136707585Y-96011098D01*
X136769476Y-96160515D01*
X136801027Y-96319136D01*
X136801027Y-96480864D01*
X136769476Y-96639485D01*
X136707585Y-96788902D01*
X136617734Y-96923374D01*
X136503374Y-97037734D01*
X136368902Y-97127585D01*
X136219485Y-97189476D01*
X136060864Y-97221027D01*
X135899136Y-97221027D01*
X135740515Y-97189476D01*
X135591098Y-97127585D01*
X135456626Y-97037734D01*
X135342266Y-96923374D01*
X135252415Y-96788902D01*
X135190524Y-96639485D01*
X135158973Y-96480864D01*
X135158973Y-96319136D01*
X135190524Y-96160515D01*
X135252415Y-96011098D01*
X135342266Y-95876626D01*
X135456626Y-95762266D01*
X135591098Y-95672415D01*
X135740515Y-95610524D01*
X135899136Y-95578973D01*
X136060864Y-95578973D01*
X136219485Y-95610524D01*
G37*
G36*
X119482068Y-94457941D02*
G01*
X119620619Y-94515330D01*
X119745311Y-94598647D01*
X119851353Y-94704689D01*
X119934670Y-94829381D01*
X119992059Y-94967932D01*
X120021316Y-95115017D01*
X120021316Y-95264983D01*
X119992059Y-95412068D01*
X119934670Y-95550619D01*
X119851353Y-95675311D01*
X119745311Y-95781353D01*
X119620619Y-95864670D01*
X119482068Y-95922059D01*
X119334983Y-95951316D01*
X119185017Y-95951316D01*
X119037932Y-95922059D01*
X118899381Y-95864670D01*
X118774689Y-95781353D01*
X118668647Y-95675311D01*
X118585330Y-95550619D01*
X118527941Y-95412068D01*
X118498684Y-95264983D01*
X118498684Y-95115017D01*
X118527941Y-94967932D01*
X118585330Y-94829381D01*
X118668647Y-94704689D01*
X118774689Y-94598647D01*
X118899381Y-94515330D01*
X119037932Y-94457941D01*
X119185017Y-94428684D01*
X119334983Y-94428684D01*
X119482068Y-94457941D01*
G37*
G36*
X122022068Y-94457941D02*
G01*
X122160619Y-94515330D01*
X122285311Y-94598647D01*
X122391353Y-94704689D01*
X122474670Y-94829381D01*
X122532059Y-94967932D01*
X122561316Y-95115017D01*
X122561316Y-95264983D01*
X122532059Y-95412068D01*
X122474670Y-95550619D01*
X122391353Y-95675311D01*
X122285311Y-95781353D01*
X122160619Y-95864670D01*
X122022068Y-95922059D01*
X121874983Y-95951316D01*
X121725017Y-95951316D01*
X121577932Y-95922059D01*
X121439381Y-95864670D01*
X121314689Y-95781353D01*
X121208647Y-95675311D01*
X121125330Y-95550619D01*
X121067941Y-95412068D01*
X121038684Y-95264983D01*
X121038684Y-95115017D01*
X121067941Y-94967932D01*
X121125330Y-94829381D01*
X121208647Y-94704689D01*
X121314689Y-94598647D01*
X121439381Y-94515330D01*
X121577932Y-94457941D01*
X121725017Y-94428684D01*
X121874983Y-94428684D01*
X122022068Y-94457941D01*
G37*
G36*
X180422068Y-94457941D02*
G01*
X180560619Y-94515330D01*
X180685311Y-94598647D01*
X180791353Y-94704689D01*
X180874670Y-94829381D01*
X180932059Y-94967932D01*
X180961316Y-95115017D01*
X180961316Y-95264983D01*
X180932059Y-95412068D01*
X180874670Y-95550619D01*
X180791353Y-95675311D01*
X180685311Y-95781353D01*
X180560619Y-95864670D01*
X180422068Y-95922059D01*
X180274983Y-95951316D01*
X180125017Y-95951316D01*
X179977932Y-95922059D01*
X179839381Y-95864670D01*
X179714689Y-95781353D01*
X179608647Y-95675311D01*
X179525330Y-95550619D01*
X179467941Y-95412068D01*
X179438684Y-95264983D01*
X179438684Y-95115017D01*
X179467941Y-94967932D01*
X179525330Y-94829381D01*
X179608647Y-94704689D01*
X179714689Y-94598647D01*
X179839381Y-94515330D01*
X179977932Y-94457941D01*
X180125017Y-94428684D01*
X180274983Y-94428684D01*
X180422068Y-94457941D01*
G37*
G36*
X182962068Y-94457941D02*
G01*
X183100619Y-94515330D01*
X183225311Y-94598647D01*
X183331353Y-94704689D01*
X183414670Y-94829381D01*
X183472059Y-94967932D01*
X183501316Y-95115017D01*
X183501316Y-95264983D01*
X183472059Y-95412068D01*
X183414670Y-95550619D01*
X183331353Y-95675311D01*
X183225311Y-95781353D01*
X183100619Y-95864670D01*
X182962068Y-95922059D01*
X182814983Y-95951316D01*
X182665017Y-95951316D01*
X182517932Y-95922059D01*
X182379381Y-95864670D01*
X182254689Y-95781353D01*
X182148647Y-95675311D01*
X182065330Y-95550619D01*
X182007941Y-95412068D01*
X181978684Y-95264983D01*
X181978684Y-95115017D01*
X182007941Y-94967932D01*
X182065330Y-94829381D01*
X182148647Y-94704689D01*
X182254689Y-94598647D01*
X182379381Y-94515330D01*
X182517932Y-94457941D01*
X182665017Y-94428684D01*
X182814983Y-94428684D01*
X182962068Y-94457941D01*
G37*
G36*
X163840731Y-92025642D02*
G01*
X163893272Y-92031738D01*
X163911223Y-92039664D01*
X163933171Y-92044030D01*
X163956666Y-92059729D01*
X163978390Y-92069321D01*
X163993226Y-92084157D01*
X164014277Y-92098223D01*
X164028342Y-92119273D01*
X164043178Y-92134109D01*
X164052769Y-92155830D01*
X164068470Y-92179329D01*
X164072835Y-92201277D01*
X164080760Y-92219224D01*
X164086852Y-92271747D01*
X164087500Y-92275000D01*
X164087500Y-93225000D01*
X164086854Y-93228243D01*
X164080761Y-93280772D01*
X164072836Y-93298719D01*
X164068470Y-93320671D01*
X164052767Y-93344171D01*
X164043178Y-93365890D01*
X164028344Y-93380723D01*
X164014277Y-93401777D01*
X163993223Y-93415844D01*
X163978390Y-93430678D01*
X163956670Y-93440267D01*
X163933171Y-93455970D01*
X163911220Y-93460336D01*
X163893275Y-93468260D01*
X163840754Y-93474352D01*
X163837500Y-93475000D01*
X163162500Y-93475000D01*
X163159258Y-93474355D01*
X163106727Y-93468261D01*
X163088778Y-93460335D01*
X163066829Y-93455970D01*
X163043330Y-93440268D01*
X163021609Y-93430678D01*
X163006773Y-93415842D01*
X162985723Y-93401777D01*
X162971657Y-93380726D01*
X162956821Y-93365890D01*
X162947229Y-93344166D01*
X162931530Y-93320671D01*
X162927164Y-93298724D01*
X162919239Y-93280775D01*
X162913144Y-93228242D01*
X162912500Y-93225000D01*
X162912500Y-92275000D01*
X162913142Y-92271770D01*
X162919238Y-92219227D01*
X162927164Y-92201274D01*
X162931530Y-92179329D01*
X162947228Y-92155835D01*
X162956821Y-92134109D01*
X162971659Y-92119270D01*
X162985723Y-92098223D01*
X163006770Y-92084159D01*
X163021609Y-92069321D01*
X163043335Y-92059727D01*
X163066829Y-92044030D01*
X163088773Y-92039665D01*
X163106724Y-92031739D01*
X163159259Y-92025644D01*
X163162500Y-92025000D01*
X163837500Y-92025000D01*
X163840731Y-92025642D01*
G37*
G36*
X165915731Y-92025642D02*
G01*
X165968272Y-92031738D01*
X165986223Y-92039664D01*
X166008171Y-92044030D01*
X166031666Y-92059729D01*
X166053390Y-92069321D01*
X166068226Y-92084157D01*
X166089277Y-92098223D01*
X166103342Y-92119273D01*
X166118178Y-92134109D01*
X166127769Y-92155830D01*
X166143470Y-92179329D01*
X166147835Y-92201277D01*
X166155760Y-92219224D01*
X166161852Y-92271747D01*
X166162500Y-92275000D01*
X166162500Y-93225000D01*
X166161854Y-93228243D01*
X166155761Y-93280772D01*
X166147836Y-93298719D01*
X166143470Y-93320671D01*
X166127767Y-93344171D01*
X166118178Y-93365890D01*
X166103344Y-93380723D01*
X166089277Y-93401777D01*
X166068223Y-93415844D01*
X166053390Y-93430678D01*
X166031670Y-93440267D01*
X166008171Y-93455970D01*
X165986220Y-93460336D01*
X165968275Y-93468260D01*
X165915754Y-93474352D01*
X165912500Y-93475000D01*
X165237500Y-93475000D01*
X165234258Y-93474355D01*
X165181727Y-93468261D01*
X165163778Y-93460335D01*
X165141829Y-93455970D01*
X165118330Y-93440268D01*
X165096609Y-93430678D01*
X165081773Y-93415842D01*
X165060723Y-93401777D01*
X165046657Y-93380726D01*
X165031821Y-93365890D01*
X165022229Y-93344166D01*
X165006530Y-93320671D01*
X165002164Y-93298724D01*
X164994239Y-93280775D01*
X164988144Y-93228242D01*
X164987500Y-93225000D01*
X164987500Y-92275000D01*
X164988142Y-92271770D01*
X164994238Y-92219227D01*
X165002164Y-92201274D01*
X165006530Y-92179329D01*
X165022228Y-92155835D01*
X165031821Y-92134109D01*
X165046659Y-92119270D01*
X165060723Y-92098223D01*
X165081770Y-92084159D01*
X165096609Y-92069321D01*
X165118335Y-92059727D01*
X165141829Y-92044030D01*
X165163773Y-92039665D01*
X165181724Y-92031739D01*
X165234259Y-92025644D01*
X165237500Y-92025000D01*
X165912500Y-92025000D01*
X165915731Y-92025642D01*
G37*
G36*
X119482068Y-91917941D02*
G01*
X119620619Y-91975330D01*
X119745311Y-92058647D01*
X119851353Y-92164689D01*
X119934670Y-92289381D01*
X119992059Y-92427932D01*
X120021316Y-92575017D01*
X120021316Y-92724983D01*
X119992059Y-92872068D01*
X119934670Y-93010619D01*
X119851353Y-93135311D01*
X119745311Y-93241353D01*
X119620619Y-93324670D01*
X119482068Y-93382059D01*
X119334983Y-93411316D01*
X119185017Y-93411316D01*
X119037932Y-93382059D01*
X118899381Y-93324670D01*
X118774689Y-93241353D01*
X118668647Y-93135311D01*
X118585330Y-93010619D01*
X118527941Y-92872068D01*
X118498684Y-92724983D01*
X118498684Y-92575017D01*
X118527941Y-92427932D01*
X118585330Y-92289381D01*
X118668647Y-92164689D01*
X118774689Y-92058647D01*
X118899381Y-91975330D01*
X119037932Y-91917941D01*
X119185017Y-91888684D01*
X119334983Y-91888684D01*
X119482068Y-91917941D01*
G37*
G36*
X122022068Y-91917941D02*
G01*
X122160619Y-91975330D01*
X122285311Y-92058647D01*
X122391353Y-92164689D01*
X122474670Y-92289381D01*
X122532059Y-92427932D01*
X122561316Y-92575017D01*
X122561316Y-92724983D01*
X122532059Y-92872068D01*
X122474670Y-93010619D01*
X122391353Y-93135311D01*
X122285311Y-93241353D01*
X122160619Y-93324670D01*
X122022068Y-93382059D01*
X121874983Y-93411316D01*
X121725017Y-93411316D01*
X121577932Y-93382059D01*
X121439381Y-93324670D01*
X121314689Y-93241353D01*
X121208647Y-93135311D01*
X121125330Y-93010619D01*
X121067941Y-92872068D01*
X121038684Y-92724983D01*
X121038684Y-92575017D01*
X121067941Y-92427932D01*
X121125330Y-92289381D01*
X121208647Y-92164689D01*
X121314689Y-92058647D01*
X121439381Y-91975330D01*
X121577932Y-91917941D01*
X121725017Y-91888684D01*
X121874983Y-91888684D01*
X122022068Y-91917941D01*
G37*
G36*
X180422068Y-91917941D02*
G01*
X180560619Y-91975330D01*
X180685311Y-92058647D01*
X180791353Y-92164689D01*
X180874670Y-92289381D01*
X180932059Y-92427932D01*
X180961316Y-92575017D01*
X180961316Y-92724983D01*
X180932059Y-92872068D01*
X180874670Y-93010619D01*
X180791353Y-93135311D01*
X180685311Y-93241353D01*
X180560619Y-93324670D01*
X180422068Y-93382059D01*
X180274983Y-93411316D01*
X180125017Y-93411316D01*
X179977932Y-93382059D01*
X179839381Y-93324670D01*
X179714689Y-93241353D01*
X179608647Y-93135311D01*
X179525330Y-93010619D01*
X179467941Y-92872068D01*
X179438684Y-92724983D01*
X179438684Y-92575017D01*
X179467941Y-92427932D01*
X179525330Y-92289381D01*
X179608647Y-92164689D01*
X179714689Y-92058647D01*
X179839381Y-91975330D01*
X179977932Y-91917941D01*
X180125017Y-91888684D01*
X180274983Y-91888684D01*
X180422068Y-91917941D01*
G37*
G36*
X182962068Y-91917941D02*
G01*
X183100619Y-91975330D01*
X183225311Y-92058647D01*
X183331353Y-92164689D01*
X183414670Y-92289381D01*
X183472059Y-92427932D01*
X183501316Y-92575017D01*
X183501316Y-92724983D01*
X183472059Y-92872068D01*
X183414670Y-93010619D01*
X183331353Y-93135311D01*
X183225311Y-93241353D01*
X183100619Y-93324670D01*
X182962068Y-93382059D01*
X182814983Y-93411316D01*
X182665017Y-93411316D01*
X182517932Y-93382059D01*
X182379381Y-93324670D01*
X182254689Y-93241353D01*
X182148647Y-93135311D01*
X182065330Y-93010619D01*
X182007941Y-92872068D01*
X181978684Y-92724983D01*
X181978684Y-92575017D01*
X182007941Y-92427932D01*
X182065330Y-92289381D01*
X182148647Y-92164689D01*
X182254689Y-92058647D01*
X182379381Y-91975330D01*
X182517932Y-91917941D01*
X182665017Y-91888684D01*
X182814983Y-91888684D01*
X182962068Y-91917941D01*
G37*
G36*
X156468403Y-90471669D02*
G01*
X156517066Y-90504185D01*
X156549582Y-90552848D01*
X156561000Y-90610251D01*
X156561000Y-91635251D01*
X156549582Y-91692654D01*
X156517066Y-91741317D01*
X156468403Y-91773833D01*
X156411000Y-91785251D01*
X156111000Y-91785251D01*
X156053597Y-91773833D01*
X156004934Y-91741317D01*
X155972418Y-91692654D01*
X155961000Y-91635251D01*
X155961000Y-90610251D01*
X155972418Y-90552848D01*
X156004934Y-90504185D01*
X156053597Y-90471669D01*
X156111000Y-90460251D01*
X156411000Y-90460251D01*
X156468403Y-90471669D01*
G37*
G36*
X158368403Y-90471669D02*
G01*
X158417066Y-90504185D01*
X158449582Y-90552848D01*
X158461000Y-90610251D01*
X158461000Y-91635251D01*
X158449582Y-91692654D01*
X158417066Y-91741317D01*
X158368403Y-91773833D01*
X158311000Y-91785251D01*
X158011000Y-91785251D01*
X157953597Y-91773833D01*
X157904934Y-91741317D01*
X157872418Y-91692654D01*
X157861000Y-91635251D01*
X157861000Y-90610251D01*
X157872418Y-90552848D01*
X157904934Y-90504185D01*
X157953597Y-90471669D01*
X158011000Y-90460251D01*
X158311000Y-90460251D01*
X158368403Y-90471669D01*
G37*
G36*
X163890731Y-90125642D02*
G01*
X163943272Y-90131738D01*
X163961223Y-90139664D01*
X163983171Y-90144030D01*
X164006666Y-90159729D01*
X164028390Y-90169321D01*
X164043226Y-90184157D01*
X164064277Y-90198223D01*
X164078342Y-90219273D01*
X164093178Y-90234109D01*
X164102769Y-90255830D01*
X164118470Y-90279329D01*
X164122835Y-90301277D01*
X164130760Y-90319224D01*
X164136852Y-90371747D01*
X164137500Y-90375000D01*
X164137500Y-90925000D01*
X164136854Y-90928243D01*
X164130761Y-90980772D01*
X164122836Y-90998719D01*
X164118470Y-91020671D01*
X164102767Y-91044171D01*
X164093178Y-91065890D01*
X164078344Y-91080723D01*
X164064277Y-91101777D01*
X164043223Y-91115844D01*
X164028390Y-91130678D01*
X164006670Y-91140267D01*
X163983171Y-91155970D01*
X163961220Y-91160336D01*
X163943275Y-91168260D01*
X163890754Y-91174352D01*
X163887500Y-91175000D01*
X163187500Y-91175000D01*
X163184258Y-91174355D01*
X163131727Y-91168261D01*
X163113778Y-91160335D01*
X163091829Y-91155970D01*
X163068330Y-91140268D01*
X163046609Y-91130678D01*
X163031773Y-91115842D01*
X163010723Y-91101777D01*
X162996657Y-91080726D01*
X162981821Y-91065890D01*
X162972229Y-91044166D01*
X162956530Y-91020671D01*
X162952164Y-90998724D01*
X162944239Y-90980775D01*
X162938144Y-90928242D01*
X162937500Y-90925000D01*
X162937500Y-90375000D01*
X162938142Y-90371770D01*
X162944238Y-90319227D01*
X162952164Y-90301274D01*
X162956530Y-90279329D01*
X162972228Y-90255835D01*
X162981821Y-90234109D01*
X162996659Y-90219270D01*
X163010723Y-90198223D01*
X163031770Y-90184159D01*
X163046609Y-90169321D01*
X163068335Y-90159727D01*
X163091829Y-90144030D01*
X163113773Y-90139665D01*
X163131724Y-90131739D01*
X163184259Y-90125644D01*
X163187500Y-90125000D01*
X163887500Y-90125000D01*
X163890731Y-90125642D01*
G37*
G36*
X165890731Y-90125642D02*
G01*
X165943272Y-90131738D01*
X165961223Y-90139664D01*
X165983171Y-90144030D01*
X166006666Y-90159729D01*
X166028390Y-90169321D01*
X166043226Y-90184157D01*
X166064277Y-90198223D01*
X166078342Y-90219273D01*
X166093178Y-90234109D01*
X166102769Y-90255830D01*
X166118470Y-90279329D01*
X166122835Y-90301277D01*
X166130760Y-90319224D01*
X166136852Y-90371747D01*
X166137500Y-90375000D01*
X166137500Y-90925000D01*
X166136854Y-90928243D01*
X166130761Y-90980772D01*
X166122836Y-90998719D01*
X166118470Y-91020671D01*
X166102767Y-91044171D01*
X166093178Y-91065890D01*
X166078344Y-91080723D01*
X166064277Y-91101777D01*
X166043223Y-91115844D01*
X166028390Y-91130678D01*
X166006670Y-91140267D01*
X165983171Y-91155970D01*
X165961220Y-91160336D01*
X165943275Y-91168260D01*
X165890754Y-91174352D01*
X165887500Y-91175000D01*
X165187500Y-91175000D01*
X165184258Y-91174355D01*
X165131727Y-91168261D01*
X165113778Y-91160335D01*
X165091829Y-91155970D01*
X165068330Y-91140268D01*
X165046609Y-91130678D01*
X165031773Y-91115842D01*
X165010723Y-91101777D01*
X164996657Y-91080726D01*
X164981821Y-91065890D01*
X164972229Y-91044166D01*
X164956530Y-91020671D01*
X164952164Y-90998724D01*
X164944239Y-90980775D01*
X164938144Y-90928242D01*
X164937500Y-90925000D01*
X164937500Y-90375000D01*
X164938142Y-90371770D01*
X164944238Y-90319227D01*
X164952164Y-90301274D01*
X164956530Y-90279329D01*
X164972228Y-90255835D01*
X164981821Y-90234109D01*
X164996659Y-90219270D01*
X165010723Y-90198223D01*
X165031770Y-90184159D01*
X165046609Y-90169321D01*
X165068335Y-90159727D01*
X165091829Y-90144030D01*
X165113773Y-90139665D01*
X165131724Y-90131739D01*
X165184259Y-90125644D01*
X165187500Y-90125000D01*
X165887500Y-90125000D01*
X165890731Y-90125642D01*
G37*
G36*
X119482068Y-89377941D02*
G01*
X119620619Y-89435330D01*
X119745311Y-89518647D01*
X119851353Y-89624689D01*
X119934670Y-89749381D01*
X119992059Y-89887932D01*
X120021316Y-90035017D01*
X120021316Y-90184983D01*
X119992059Y-90332068D01*
X119934670Y-90470619D01*
X119851353Y-90595311D01*
X119745311Y-90701353D01*
X119620619Y-90784670D01*
X119482068Y-90842059D01*
X119334983Y-90871316D01*
X119185017Y-90871316D01*
X119037932Y-90842059D01*
X118899381Y-90784670D01*
X118774689Y-90701353D01*
X118668647Y-90595311D01*
X118585330Y-90470619D01*
X118527941Y-90332068D01*
X118498684Y-90184983D01*
X118498684Y-90035017D01*
X118527941Y-89887932D01*
X118585330Y-89749381D01*
X118668647Y-89624689D01*
X118774689Y-89518647D01*
X118899381Y-89435330D01*
X119037932Y-89377941D01*
X119185017Y-89348684D01*
X119334983Y-89348684D01*
X119482068Y-89377941D01*
G37*
G36*
X122022068Y-89377941D02*
G01*
X122160619Y-89435330D01*
X122285311Y-89518647D01*
X122391353Y-89624689D01*
X122474670Y-89749381D01*
X122532059Y-89887932D01*
X122561316Y-90035017D01*
X122561316Y-90184983D01*
X122532059Y-90332068D01*
X122474670Y-90470619D01*
X122391353Y-90595311D01*
X122285311Y-90701353D01*
X122160619Y-90784670D01*
X122022068Y-90842059D01*
X121874983Y-90871316D01*
X121725017Y-90871316D01*
X121577932Y-90842059D01*
X121439381Y-90784670D01*
X121314689Y-90701353D01*
X121208647Y-90595311D01*
X121125330Y-90470619D01*
X121067941Y-90332068D01*
X121038684Y-90184983D01*
X121038684Y-90035017D01*
X121067941Y-89887932D01*
X121125330Y-89749381D01*
X121208647Y-89624689D01*
X121314689Y-89518647D01*
X121439381Y-89435330D01*
X121577932Y-89377941D01*
X121725017Y-89348684D01*
X121874983Y-89348684D01*
X122022068Y-89377941D01*
G37*
G36*
X180422068Y-89377941D02*
G01*
X180560619Y-89435330D01*
X180685311Y-89518647D01*
X180791353Y-89624689D01*
X180874670Y-89749381D01*
X180932059Y-89887932D01*
X180961316Y-90035017D01*
X180961316Y-90184983D01*
X180932059Y-90332068D01*
X180874670Y-90470619D01*
X180791353Y-90595311D01*
X180685311Y-90701353D01*
X180560619Y-90784670D01*
X180422068Y-90842059D01*
X180274983Y-90871316D01*
X180125017Y-90871316D01*
X179977932Y-90842059D01*
X179839381Y-90784670D01*
X179714689Y-90701353D01*
X179608647Y-90595311D01*
X179525330Y-90470619D01*
X179467941Y-90332068D01*
X179438684Y-90184983D01*
X179438684Y-90035017D01*
X179467941Y-89887932D01*
X179525330Y-89749381D01*
X179608647Y-89624689D01*
X179714689Y-89518647D01*
X179839381Y-89435330D01*
X179977932Y-89377941D01*
X180125017Y-89348684D01*
X180274983Y-89348684D01*
X180422068Y-89377941D01*
G37*
G36*
X182962068Y-89377941D02*
G01*
X183100619Y-89435330D01*
X183225311Y-89518647D01*
X183331353Y-89624689D01*
X183414670Y-89749381D01*
X183472059Y-89887932D01*
X183501316Y-90035017D01*
X183501316Y-90184983D01*
X183472059Y-90332068D01*
X183414670Y-90470619D01*
X183331353Y-90595311D01*
X183225311Y-90701353D01*
X183100619Y-90784670D01*
X182962068Y-90842059D01*
X182814983Y-90871316D01*
X182665017Y-90871316D01*
X182517932Y-90842059D01*
X182379381Y-90784670D01*
X182254689Y-90701353D01*
X182148647Y-90595311D01*
X182065330Y-90470619D01*
X182007941Y-90332068D01*
X181978684Y-90184983D01*
X181978684Y-90035017D01*
X182007941Y-89887932D01*
X182065330Y-89749381D01*
X182148647Y-89624689D01*
X182254689Y-89518647D01*
X182379381Y-89435330D01*
X182517932Y-89377941D01*
X182665017Y-89348684D01*
X182814983Y-89348684D01*
X182962068Y-89377941D01*
G37*
G36*
X133957403Y-89273918D02*
G01*
X134006066Y-89306434D01*
X134038582Y-89355097D01*
X134050000Y-89412500D01*
X134050000Y-90587500D01*
X134038582Y-90644903D01*
X134006066Y-90693566D01*
X133957403Y-90726082D01*
X133900000Y-90737500D01*
X133600000Y-90737500D01*
X133542597Y-90726082D01*
X133493934Y-90693566D01*
X133461418Y-90644903D01*
X133450000Y-90587500D01*
X133450000Y-89412500D01*
X133461418Y-89355097D01*
X133493934Y-89306434D01*
X133542597Y-89273918D01*
X133600000Y-89262500D01*
X133900000Y-89262500D01*
X133957403Y-89273918D01*
G37*
G36*
X135857403Y-89273918D02*
G01*
X135906066Y-89306434D01*
X135938582Y-89355097D01*
X135950000Y-89412500D01*
X135950000Y-90587500D01*
X135938582Y-90644903D01*
X135906066Y-90693566D01*
X135857403Y-90726082D01*
X135800000Y-90737500D01*
X135500000Y-90737500D01*
X135442597Y-90726082D01*
X135393934Y-90693566D01*
X135361418Y-90644903D01*
X135350000Y-90587500D01*
X135350000Y-89412500D01*
X135361418Y-89355097D01*
X135393934Y-89306434D01*
X135442597Y-89273918D01*
X135500000Y-89262500D01*
X135800000Y-89262500D01*
X135857403Y-89273918D01*
G37*
G36*
X157418403Y-88196669D02*
G01*
X157467066Y-88229185D01*
X157499582Y-88277848D01*
X157511000Y-88335251D01*
X157511000Y-89360251D01*
X157499582Y-89417654D01*
X157467066Y-89466317D01*
X157418403Y-89498833D01*
X157361000Y-89510251D01*
X157061000Y-89510251D01*
X157003597Y-89498833D01*
X156954934Y-89466317D01*
X156922418Y-89417654D01*
X156911000Y-89360251D01*
X156911000Y-88335251D01*
X156922418Y-88277848D01*
X156954934Y-88229185D01*
X157003597Y-88196669D01*
X157061000Y-88185251D01*
X157361000Y-88185251D01*
X157418403Y-88196669D01*
G37*
G36*
X163890731Y-87825642D02*
G01*
X163943272Y-87831738D01*
X163961223Y-87839664D01*
X163983171Y-87844030D01*
X164006666Y-87859729D01*
X164028390Y-87869321D01*
X164043226Y-87884157D01*
X164064277Y-87898223D01*
X164078342Y-87919273D01*
X164093178Y-87934109D01*
X164102769Y-87955830D01*
X164118470Y-87979329D01*
X164122835Y-88001277D01*
X164130760Y-88019224D01*
X164136852Y-88071747D01*
X164137500Y-88075000D01*
X164137500Y-88625000D01*
X164136854Y-88628243D01*
X164130761Y-88680772D01*
X164122836Y-88698719D01*
X164118470Y-88720671D01*
X164102767Y-88744171D01*
X164093178Y-88765890D01*
X164078344Y-88780723D01*
X164064277Y-88801777D01*
X164043223Y-88815844D01*
X164028390Y-88830678D01*
X164006670Y-88840267D01*
X163983171Y-88855970D01*
X163961220Y-88860336D01*
X163943275Y-88868260D01*
X163890754Y-88874352D01*
X163887500Y-88875000D01*
X163187500Y-88875000D01*
X163184258Y-88874355D01*
X163131727Y-88868261D01*
X163113778Y-88860335D01*
X163091829Y-88855970D01*
X163068330Y-88840268D01*
X163046609Y-88830678D01*
X163031773Y-88815842D01*
X163010723Y-88801777D01*
X162996657Y-88780726D01*
X162981821Y-88765890D01*
X162972229Y-88744166D01*
X162956530Y-88720671D01*
X162952164Y-88698724D01*
X162944239Y-88680775D01*
X162938144Y-88628242D01*
X162937500Y-88625000D01*
X162937500Y-88075000D01*
X162938142Y-88071770D01*
X162944238Y-88019227D01*
X162952164Y-88001274D01*
X162956530Y-87979329D01*
X162972228Y-87955835D01*
X162981821Y-87934109D01*
X162996659Y-87919270D01*
X163010723Y-87898223D01*
X163031770Y-87884159D01*
X163046609Y-87869321D01*
X163068335Y-87859727D01*
X163091829Y-87844030D01*
X163113773Y-87839665D01*
X163131724Y-87831739D01*
X163184259Y-87825644D01*
X163187500Y-87825000D01*
X163887500Y-87825000D01*
X163890731Y-87825642D01*
G37*
G36*
X165890731Y-87825642D02*
G01*
X165943272Y-87831738D01*
X165961223Y-87839664D01*
X165983171Y-87844030D01*
X166006666Y-87859729D01*
X166028390Y-87869321D01*
X166043226Y-87884157D01*
X166064277Y-87898223D01*
X166078342Y-87919273D01*
X166093178Y-87934109D01*
X166102769Y-87955830D01*
X166118470Y-87979329D01*
X166122835Y-88001277D01*
X166130760Y-88019224D01*
X166136852Y-88071747D01*
X166137500Y-88075000D01*
X166137500Y-88625000D01*
X166136854Y-88628243D01*
X166130761Y-88680772D01*
X166122836Y-88698719D01*
X166118470Y-88720671D01*
X166102767Y-88744171D01*
X166093178Y-88765890D01*
X166078344Y-88780723D01*
X166064277Y-88801777D01*
X166043223Y-88815844D01*
X166028390Y-88830678D01*
X166006670Y-88840267D01*
X165983171Y-88855970D01*
X165961220Y-88860336D01*
X165943275Y-88868260D01*
X165890754Y-88874352D01*
X165887500Y-88875000D01*
X165187500Y-88875000D01*
X165184258Y-88874355D01*
X165131727Y-88868261D01*
X165113778Y-88860335D01*
X165091829Y-88855970D01*
X165068330Y-88840268D01*
X165046609Y-88830678D01*
X165031773Y-88815842D01*
X165010723Y-88801777D01*
X164996657Y-88780726D01*
X164981821Y-88765890D01*
X164972229Y-88744166D01*
X164956530Y-88720671D01*
X164952164Y-88698724D01*
X164944239Y-88680775D01*
X164938144Y-88628242D01*
X164937500Y-88625000D01*
X164937500Y-88075000D01*
X164938142Y-88071770D01*
X164944238Y-88019227D01*
X164952164Y-88001274D01*
X164956530Y-87979329D01*
X164972228Y-87955835D01*
X164981821Y-87934109D01*
X164996659Y-87919270D01*
X165010723Y-87898223D01*
X165031770Y-87884159D01*
X165046609Y-87869321D01*
X165068335Y-87859727D01*
X165091829Y-87844030D01*
X165113773Y-87839665D01*
X165131724Y-87831739D01*
X165184259Y-87825644D01*
X165187500Y-87825000D01*
X165887500Y-87825000D01*
X165890731Y-87825642D01*
G37*
G36*
X134907403Y-87398918D02*
G01*
X134956066Y-87431434D01*
X134988582Y-87480097D01*
X135000000Y-87537500D01*
X135000000Y-88712500D01*
X134988582Y-88769903D01*
X134956066Y-88818566D01*
X134907403Y-88851082D01*
X134850000Y-88862500D01*
X134550000Y-88862500D01*
X134492597Y-88851082D01*
X134443934Y-88818566D01*
X134411418Y-88769903D01*
X134400000Y-88712500D01*
X134400000Y-87537500D01*
X134411418Y-87480097D01*
X134443934Y-87431434D01*
X134492597Y-87398918D01*
X134550000Y-87387500D01*
X134850000Y-87387500D01*
X134907403Y-87398918D01*
G37*
G36*
X119482068Y-86837941D02*
G01*
X119620619Y-86895330D01*
X119745311Y-86978647D01*
X119851353Y-87084689D01*
X119934670Y-87209381D01*
X119992059Y-87347932D01*
X120021316Y-87495017D01*
X120021316Y-87644983D01*
X119992059Y-87792068D01*
X119934670Y-87930619D01*
X119851353Y-88055311D01*
X119745311Y-88161353D01*
X119620619Y-88244670D01*
X119482068Y-88302059D01*
X119334983Y-88331316D01*
X119185017Y-88331316D01*
X119037932Y-88302059D01*
X118899381Y-88244670D01*
X118774689Y-88161353D01*
X118668647Y-88055311D01*
X118585330Y-87930619D01*
X118527941Y-87792068D01*
X118498684Y-87644983D01*
X118498684Y-87495017D01*
X118527941Y-87347932D01*
X118585330Y-87209381D01*
X118668647Y-87084689D01*
X118774689Y-86978647D01*
X118899381Y-86895330D01*
X119037932Y-86837941D01*
X119185017Y-86808684D01*
X119334983Y-86808684D01*
X119482068Y-86837941D01*
G37*
G36*
X122022068Y-86837941D02*
G01*
X122160619Y-86895330D01*
X122285311Y-86978647D01*
X122391353Y-87084689D01*
X122474670Y-87209381D01*
X122532059Y-87347932D01*
X122561316Y-87495017D01*
X122561316Y-87644983D01*
X122532059Y-87792068D01*
X122474670Y-87930619D01*
X122391353Y-88055311D01*
X122285311Y-88161353D01*
X122160619Y-88244670D01*
X122022068Y-88302059D01*
X121874983Y-88331316D01*
X121725017Y-88331316D01*
X121577932Y-88302059D01*
X121439381Y-88244670D01*
X121314689Y-88161353D01*
X121208647Y-88055311D01*
X121125330Y-87930619D01*
X121067941Y-87792068D01*
X121038684Y-87644983D01*
X121038684Y-87495017D01*
X121067941Y-87347932D01*
X121125330Y-87209381D01*
X121208647Y-87084689D01*
X121314689Y-86978647D01*
X121439381Y-86895330D01*
X121577932Y-86837941D01*
X121725017Y-86808684D01*
X121874983Y-86808684D01*
X122022068Y-86837941D01*
G37*
G36*
X180422068Y-86837941D02*
G01*
X180560619Y-86895330D01*
X180685311Y-86978647D01*
X180791353Y-87084689D01*
X180874670Y-87209381D01*
X180932059Y-87347932D01*
X180961316Y-87495017D01*
X180961316Y-87644983D01*
X180932059Y-87792068D01*
X180874670Y-87930619D01*
X180791353Y-88055311D01*
X180685311Y-88161353D01*
X180560619Y-88244670D01*
X180422068Y-88302059D01*
X180274983Y-88331316D01*
X180125017Y-88331316D01*
X179977932Y-88302059D01*
X179839381Y-88244670D01*
X179714689Y-88161353D01*
X179608647Y-88055311D01*
X179525330Y-87930619D01*
X179467941Y-87792068D01*
X179438684Y-87644983D01*
X179438684Y-87495017D01*
X179467941Y-87347932D01*
X179525330Y-87209381D01*
X179608647Y-87084689D01*
X179714689Y-86978647D01*
X179839381Y-86895330D01*
X179977932Y-86837941D01*
X180125017Y-86808684D01*
X180274983Y-86808684D01*
X180422068Y-86837941D01*
G37*
G36*
X182962068Y-86837941D02*
G01*
X183100619Y-86895330D01*
X183225311Y-86978647D01*
X183331353Y-87084689D01*
X183414670Y-87209381D01*
X183472059Y-87347932D01*
X183501316Y-87495017D01*
X183501316Y-87644983D01*
X183472059Y-87792068D01*
X183414670Y-87930619D01*
X183331353Y-88055311D01*
X183225311Y-88161353D01*
X183100619Y-88244670D01*
X182962068Y-88302059D01*
X182814983Y-88331316D01*
X182665017Y-88331316D01*
X182517932Y-88302059D01*
X182379381Y-88244670D01*
X182254689Y-88161353D01*
X182148647Y-88055311D01*
X182065330Y-87930619D01*
X182007941Y-87792068D01*
X181978684Y-87644983D01*
X181978684Y-87495017D01*
X182007941Y-87347932D01*
X182065330Y-87209381D01*
X182148647Y-87084689D01*
X182254689Y-86978647D01*
X182379381Y-86895330D01*
X182517932Y-86837941D01*
X182665017Y-86808684D01*
X182814983Y-86808684D01*
X182962068Y-86837941D01*
G37*
G36*
X160190730Y-86775642D02*
G01*
X160240412Y-86781406D01*
X160257389Y-86788902D01*
X160278387Y-86793079D01*
X160300867Y-86808099D01*
X160321326Y-86817133D01*
X160335298Y-86831105D01*
X160355438Y-86844562D01*
X160368894Y-86864701D01*
X160382866Y-86878673D01*
X160391899Y-86899130D01*
X160406921Y-86921613D01*
X160411098Y-86942611D01*
X160418592Y-86959584D01*
X160424353Y-87009247D01*
X160425000Y-87012500D01*
X160425000Y-87487500D01*
X160424354Y-87490742D01*
X160418593Y-87540412D01*
X160411098Y-87557385D01*
X160406921Y-87578387D01*
X160391897Y-87600871D01*
X160382866Y-87621326D01*
X160368896Y-87635295D01*
X160355438Y-87655438D01*
X160335295Y-87668896D01*
X160321326Y-87682866D01*
X160300871Y-87691897D01*
X160278387Y-87706921D01*
X160257386Y-87711098D01*
X160240415Y-87718592D01*
X160190753Y-87724352D01*
X160187500Y-87725000D01*
X159587500Y-87725000D01*
X159584258Y-87724355D01*
X159534587Y-87718593D01*
X159517613Y-87711098D01*
X159496613Y-87706921D01*
X159474130Y-87691898D01*
X159453673Y-87682866D01*
X159439701Y-87668894D01*
X159419562Y-87655438D01*
X159406105Y-87635298D01*
X159392133Y-87621326D01*
X159383099Y-87600866D01*
X159368079Y-87578387D01*
X159363902Y-87557390D01*
X159356407Y-87540415D01*
X159350644Y-87490741D01*
X159350000Y-87487500D01*
X159350000Y-87012500D01*
X159350642Y-87009270D01*
X159356406Y-86959587D01*
X159363902Y-86942608D01*
X159368079Y-86921613D01*
X159383098Y-86899134D01*
X159392133Y-86878673D01*
X159406107Y-86864698D01*
X159419562Y-86844562D01*
X159439698Y-86831107D01*
X159453673Y-86817133D01*
X159474135Y-86808098D01*
X159496613Y-86793079D01*
X159517607Y-86788902D01*
X159534584Y-86781407D01*
X159584259Y-86775644D01*
X159587500Y-86775000D01*
X160187500Y-86775000D01*
X160190730Y-86775642D01*
G37*
G36*
X161915730Y-86775642D02*
G01*
X161965412Y-86781406D01*
X161982389Y-86788902D01*
X162003387Y-86793079D01*
X162025867Y-86808099D01*
X162046326Y-86817133D01*
X162060298Y-86831105D01*
X162080438Y-86844562D01*
X162093894Y-86864701D01*
X162107866Y-86878673D01*
X162116899Y-86899130D01*
X162131921Y-86921613D01*
X162136098Y-86942611D01*
X162143592Y-86959584D01*
X162149353Y-87009247D01*
X162150000Y-87012500D01*
X162150000Y-87487500D01*
X162149354Y-87490742D01*
X162143593Y-87540412D01*
X162136098Y-87557385D01*
X162131921Y-87578387D01*
X162116897Y-87600871D01*
X162107866Y-87621326D01*
X162093896Y-87635295D01*
X162080438Y-87655438D01*
X162060295Y-87668896D01*
X162046326Y-87682866D01*
X162025871Y-87691897D01*
X162003387Y-87706921D01*
X161982386Y-87711098D01*
X161965415Y-87718592D01*
X161915753Y-87724352D01*
X161912500Y-87725000D01*
X161312500Y-87725000D01*
X161309258Y-87724355D01*
X161259587Y-87718593D01*
X161242613Y-87711098D01*
X161221613Y-87706921D01*
X161199130Y-87691898D01*
X161178673Y-87682866D01*
X161164701Y-87668894D01*
X161144562Y-87655438D01*
X161131105Y-87635298D01*
X161117133Y-87621326D01*
X161108099Y-87600866D01*
X161093079Y-87578387D01*
X161088902Y-87557390D01*
X161081407Y-87540415D01*
X161075644Y-87490741D01*
X161075000Y-87487500D01*
X161075000Y-87012500D01*
X161075642Y-87009270D01*
X161081406Y-86959587D01*
X161088902Y-86942608D01*
X161093079Y-86921613D01*
X161108098Y-86899134D01*
X161117133Y-86878673D01*
X161131107Y-86864698D01*
X161144562Y-86844562D01*
X161164698Y-86831107D01*
X161178673Y-86817133D01*
X161199135Y-86808098D01*
X161221613Y-86793079D01*
X161242607Y-86788902D01*
X161259584Y-86781407D01*
X161309259Y-86775644D01*
X161312500Y-86775000D01*
X161912500Y-86775000D01*
X161915730Y-86775642D01*
G37*
G36*
X163803231Y-85525642D02*
G01*
X163855772Y-85531738D01*
X163873723Y-85539664D01*
X163895671Y-85544030D01*
X163919166Y-85559729D01*
X163940890Y-85569321D01*
X163955726Y-85584157D01*
X163976777Y-85598223D01*
X163990842Y-85619273D01*
X164005678Y-85634109D01*
X164015269Y-85655830D01*
X164030970Y-85679329D01*
X164035335Y-85701277D01*
X164043260Y-85719224D01*
X164049352Y-85771747D01*
X164050000Y-85775000D01*
X164050000Y-86725000D01*
X164049354Y-86728243D01*
X164043261Y-86780772D01*
X164035336Y-86798719D01*
X164030970Y-86820671D01*
X164015267Y-86844171D01*
X164005678Y-86865890D01*
X163990844Y-86880723D01*
X163976777Y-86901777D01*
X163955723Y-86915844D01*
X163940890Y-86930678D01*
X163919170Y-86940267D01*
X163895671Y-86955970D01*
X163873720Y-86960336D01*
X163855775Y-86968260D01*
X163803254Y-86974352D01*
X163800000Y-86975000D01*
X163125000Y-86975000D01*
X163121758Y-86974355D01*
X163069227Y-86968261D01*
X163051278Y-86960335D01*
X163029329Y-86955970D01*
X163005830Y-86940268D01*
X162984109Y-86930678D01*
X162969273Y-86915842D01*
X162948223Y-86901777D01*
X162934157Y-86880726D01*
X162919321Y-86865890D01*
X162909729Y-86844166D01*
X162894030Y-86820671D01*
X162889664Y-86798724D01*
X162881739Y-86780775D01*
X162875644Y-86728242D01*
X162875000Y-86725000D01*
X162875000Y-85775000D01*
X162875642Y-85771770D01*
X162881738Y-85719227D01*
X162889664Y-85701274D01*
X162894030Y-85679329D01*
X162909728Y-85655835D01*
X162919321Y-85634109D01*
X162934159Y-85619270D01*
X162948223Y-85598223D01*
X162969270Y-85584159D01*
X162984109Y-85569321D01*
X163005835Y-85559727D01*
X163029329Y-85544030D01*
X163051273Y-85539665D01*
X163069224Y-85531739D01*
X163121759Y-85525644D01*
X163125000Y-85525000D01*
X163800000Y-85525000D01*
X163803231Y-85525642D01*
G37*
G36*
X165878231Y-85525642D02*
G01*
X165930772Y-85531738D01*
X165948723Y-85539664D01*
X165970671Y-85544030D01*
X165994166Y-85559729D01*
X166015890Y-85569321D01*
X166030726Y-85584157D01*
X166051777Y-85598223D01*
X166065842Y-85619273D01*
X166080678Y-85634109D01*
X166090269Y-85655830D01*
X166105970Y-85679329D01*
X166110335Y-85701277D01*
X166118260Y-85719224D01*
X166124352Y-85771747D01*
X166125000Y-85775000D01*
X166125000Y-86725000D01*
X166124354Y-86728243D01*
X166118261Y-86780772D01*
X166110336Y-86798719D01*
X166105970Y-86820671D01*
X166090267Y-86844171D01*
X166080678Y-86865890D01*
X166065844Y-86880723D01*
X166051777Y-86901777D01*
X166030723Y-86915844D01*
X166015890Y-86930678D01*
X165994170Y-86940267D01*
X165970671Y-86955970D01*
X165948720Y-86960336D01*
X165930775Y-86968260D01*
X165878254Y-86974352D01*
X165875000Y-86975000D01*
X165200000Y-86975000D01*
X165196758Y-86974355D01*
X165144227Y-86968261D01*
X165126278Y-86960335D01*
X165104329Y-86955970D01*
X165080830Y-86940268D01*
X165059109Y-86930678D01*
X165044273Y-86915842D01*
X165023223Y-86901777D01*
X165009157Y-86880726D01*
X164994321Y-86865890D01*
X164984729Y-86844166D01*
X164969030Y-86820671D01*
X164964664Y-86798724D01*
X164956739Y-86780775D01*
X164950644Y-86728242D01*
X164950000Y-86725000D01*
X164950000Y-85775000D01*
X164950642Y-85771770D01*
X164956738Y-85719227D01*
X164964664Y-85701274D01*
X164969030Y-85679329D01*
X164984728Y-85655835D01*
X164994321Y-85634109D01*
X165009159Y-85619270D01*
X165023223Y-85598223D01*
X165044270Y-85584159D01*
X165059109Y-85569321D01*
X165080835Y-85559727D01*
X165104329Y-85544030D01*
X165126273Y-85539665D01*
X165144224Y-85531739D01*
X165196759Y-85525644D01*
X165200000Y-85525000D01*
X165875000Y-85525000D01*
X165878231Y-85525642D01*
G37*
G36*
X129940730Y-85775642D02*
G01*
X129990412Y-85781406D01*
X130007389Y-85788902D01*
X130028387Y-85793079D01*
X130050867Y-85808099D01*
X130071326Y-85817133D01*
X130085298Y-85831105D01*
X130105438Y-85844562D01*
X130118894Y-85864701D01*
X130132866Y-85878673D01*
X130141899Y-85899130D01*
X130156921Y-85921613D01*
X130161098Y-85942611D01*
X130168592Y-85959584D01*
X130174353Y-86009247D01*
X130175000Y-86012500D01*
X130175000Y-86487500D01*
X130174354Y-86490742D01*
X130168593Y-86540412D01*
X130161098Y-86557385D01*
X130156921Y-86578387D01*
X130141897Y-86600871D01*
X130132866Y-86621326D01*
X130118896Y-86635295D01*
X130105438Y-86655438D01*
X130085295Y-86668896D01*
X130071326Y-86682866D01*
X130050871Y-86691897D01*
X130028387Y-86706921D01*
X130007386Y-86711098D01*
X129990415Y-86718592D01*
X129940753Y-86724352D01*
X129937500Y-86725000D01*
X129337500Y-86725000D01*
X129334258Y-86724355D01*
X129284587Y-86718593D01*
X129267613Y-86711098D01*
X129246613Y-86706921D01*
X129224130Y-86691898D01*
X129203673Y-86682866D01*
X129189701Y-86668894D01*
X129169562Y-86655438D01*
X129156105Y-86635298D01*
X129142133Y-86621326D01*
X129133099Y-86600866D01*
X129118079Y-86578387D01*
X129113902Y-86557390D01*
X129106407Y-86540415D01*
X129100644Y-86490741D01*
X129100000Y-86487500D01*
X129100000Y-86012500D01*
X129100642Y-86009270D01*
X129106406Y-85959587D01*
X129113902Y-85942608D01*
X129118079Y-85921613D01*
X129133098Y-85899134D01*
X129142133Y-85878673D01*
X129156107Y-85864698D01*
X129169562Y-85844562D01*
X129189698Y-85831107D01*
X129203673Y-85817133D01*
X129224135Y-85808098D01*
X129246613Y-85793079D01*
X129267607Y-85788902D01*
X129284584Y-85781407D01*
X129334259Y-85775644D01*
X129337500Y-85775000D01*
X129937500Y-85775000D01*
X129940730Y-85775642D01*
G37*
G36*
X131665730Y-85775642D02*
G01*
X131715412Y-85781406D01*
X131732389Y-85788902D01*
X131753387Y-85793079D01*
X131775867Y-85808099D01*
X131796326Y-85817133D01*
X131810298Y-85831105D01*
X131830438Y-85844562D01*
X131843894Y-85864701D01*
X131857866Y-85878673D01*
X131866899Y-85899130D01*
X131881921Y-85921613D01*
X131886098Y-85942611D01*
X131893592Y-85959584D01*
X131899353Y-86009247D01*
X131900000Y-86012500D01*
X131900000Y-86487500D01*
X131899354Y-86490742D01*
X131893593Y-86540412D01*
X131886098Y-86557385D01*
X131881921Y-86578387D01*
X131866897Y-86600871D01*
X131857866Y-86621326D01*
X131843896Y-86635295D01*
X131830438Y-86655438D01*
X131810295Y-86668896D01*
X131796326Y-86682866D01*
X131775871Y-86691897D01*
X131753387Y-86706921D01*
X131732386Y-86711098D01*
X131715415Y-86718592D01*
X131665753Y-86724352D01*
X131662500Y-86725000D01*
X131062500Y-86725000D01*
X131059258Y-86724355D01*
X131009587Y-86718593D01*
X130992613Y-86711098D01*
X130971613Y-86706921D01*
X130949130Y-86691898D01*
X130928673Y-86682866D01*
X130914701Y-86668894D01*
X130894562Y-86655438D01*
X130881105Y-86635298D01*
X130867133Y-86621326D01*
X130858099Y-86600866D01*
X130843079Y-86578387D01*
X130838902Y-86557390D01*
X130831407Y-86540415D01*
X130825644Y-86490741D01*
X130825000Y-86487500D01*
X130825000Y-86012500D01*
X130825642Y-86009270D01*
X130831406Y-85959587D01*
X130838902Y-85942608D01*
X130843079Y-85921613D01*
X130858098Y-85899134D01*
X130867133Y-85878673D01*
X130881107Y-85864698D01*
X130894562Y-85844562D01*
X130914698Y-85831107D01*
X130928673Y-85817133D01*
X130949135Y-85808098D01*
X130971613Y-85793079D01*
X130992607Y-85788902D01*
X131009584Y-85781407D01*
X131059259Y-85775644D01*
X131062500Y-85775000D01*
X131662500Y-85775000D01*
X131665730Y-85775642D01*
G37*
G36*
X154090730Y-85025642D02*
G01*
X154140412Y-85031406D01*
X154157389Y-85038902D01*
X154178387Y-85043079D01*
X154200867Y-85058099D01*
X154221326Y-85067133D01*
X154235298Y-85081105D01*
X154255438Y-85094562D01*
X154268894Y-85114701D01*
X154282866Y-85128673D01*
X154291899Y-85149130D01*
X154306921Y-85171613D01*
X154311098Y-85192611D01*
X154318592Y-85209584D01*
X154324353Y-85259247D01*
X154325000Y-85262500D01*
X154325000Y-85737500D01*
X154324354Y-85740742D01*
X154318593Y-85790412D01*
X154311098Y-85807385D01*
X154306921Y-85828387D01*
X154291897Y-85850871D01*
X154282866Y-85871326D01*
X154268896Y-85885295D01*
X154255438Y-85905438D01*
X154235295Y-85918896D01*
X154221326Y-85932866D01*
X154200871Y-85941897D01*
X154178387Y-85956921D01*
X154157386Y-85961098D01*
X154140415Y-85968592D01*
X154090753Y-85974352D01*
X154087500Y-85975000D01*
X153587500Y-85975000D01*
X153584258Y-85974355D01*
X153534587Y-85968593D01*
X153517613Y-85961098D01*
X153496613Y-85956921D01*
X153474130Y-85941898D01*
X153453673Y-85932866D01*
X153439701Y-85918894D01*
X153419562Y-85905438D01*
X153406105Y-85885298D01*
X153392133Y-85871326D01*
X153383099Y-85850866D01*
X153368079Y-85828387D01*
X153363902Y-85807390D01*
X153356407Y-85790415D01*
X153350644Y-85740741D01*
X153350000Y-85737500D01*
X153350000Y-85262500D01*
X153350642Y-85259270D01*
X153356406Y-85209587D01*
X153363902Y-85192608D01*
X153368079Y-85171613D01*
X153383098Y-85149134D01*
X153392133Y-85128673D01*
X153406107Y-85114698D01*
X153419562Y-85094562D01*
X153439698Y-85081107D01*
X153453673Y-85067133D01*
X153474135Y-85058098D01*
X153496613Y-85043079D01*
X153517607Y-85038902D01*
X153534584Y-85031407D01*
X153584259Y-85025644D01*
X153587500Y-85025000D01*
X154087500Y-85025000D01*
X154090730Y-85025642D01*
G37*
G36*
X155915730Y-85025642D02*
G01*
X155965412Y-85031406D01*
X155982389Y-85038902D01*
X156003387Y-85043079D01*
X156025867Y-85058099D01*
X156046326Y-85067133D01*
X156060298Y-85081105D01*
X156080438Y-85094562D01*
X156093894Y-85114701D01*
X156107866Y-85128673D01*
X156116899Y-85149130D01*
X156131921Y-85171613D01*
X156136098Y-85192611D01*
X156143592Y-85209584D01*
X156149353Y-85259247D01*
X156150000Y-85262500D01*
X156150000Y-85737500D01*
X156149354Y-85740742D01*
X156143593Y-85790412D01*
X156136098Y-85807385D01*
X156131921Y-85828387D01*
X156116897Y-85850871D01*
X156107866Y-85871326D01*
X156093896Y-85885295D01*
X156080438Y-85905438D01*
X156060295Y-85918896D01*
X156046326Y-85932866D01*
X156025871Y-85941897D01*
X156003387Y-85956921D01*
X155982386Y-85961098D01*
X155965415Y-85968592D01*
X155915753Y-85974352D01*
X155912500Y-85975000D01*
X155412500Y-85975000D01*
X155409258Y-85974355D01*
X155359587Y-85968593D01*
X155342613Y-85961098D01*
X155321613Y-85956921D01*
X155299130Y-85941898D01*
X155278673Y-85932866D01*
X155264701Y-85918894D01*
X155244562Y-85905438D01*
X155231105Y-85885298D01*
X155217133Y-85871326D01*
X155208099Y-85850866D01*
X155193079Y-85828387D01*
X155188902Y-85807390D01*
X155181407Y-85790415D01*
X155175644Y-85740741D01*
X155175000Y-85737500D01*
X155175000Y-85262500D01*
X155175642Y-85259270D01*
X155181406Y-85209587D01*
X155188902Y-85192608D01*
X155193079Y-85171613D01*
X155208098Y-85149134D01*
X155217133Y-85128673D01*
X155231107Y-85114698D01*
X155244562Y-85094562D01*
X155264698Y-85081107D01*
X155278673Y-85067133D01*
X155299135Y-85058098D01*
X155321613Y-85043079D01*
X155342607Y-85038902D01*
X155359584Y-85031407D01*
X155409259Y-85025644D01*
X155412500Y-85025000D01*
X155912500Y-85025000D01*
X155915730Y-85025642D01*
G37*
G36*
X160190730Y-85025642D02*
G01*
X160240412Y-85031406D01*
X160257389Y-85038902D01*
X160278387Y-85043079D01*
X160300867Y-85058099D01*
X160321326Y-85067133D01*
X160335298Y-85081105D01*
X160355438Y-85094562D01*
X160368894Y-85114701D01*
X160382866Y-85128673D01*
X160391899Y-85149130D01*
X160406921Y-85171613D01*
X160411098Y-85192611D01*
X160418592Y-85209584D01*
X160424353Y-85259247D01*
X160425000Y-85262500D01*
X160425000Y-85737500D01*
X160424354Y-85740742D01*
X160418593Y-85790412D01*
X160411098Y-85807385D01*
X160406921Y-85828387D01*
X160391897Y-85850871D01*
X160382866Y-85871326D01*
X160368896Y-85885295D01*
X160355438Y-85905438D01*
X160335295Y-85918896D01*
X160321326Y-85932866D01*
X160300871Y-85941897D01*
X160278387Y-85956921D01*
X160257386Y-85961098D01*
X160240415Y-85968592D01*
X160190753Y-85974352D01*
X160187500Y-85975000D01*
X159587500Y-85975000D01*
X159584258Y-85974355D01*
X159534587Y-85968593D01*
X159517613Y-85961098D01*
X159496613Y-85956921D01*
X159474130Y-85941898D01*
X159453673Y-85932866D01*
X159439701Y-85918894D01*
X159419562Y-85905438D01*
X159406105Y-85885298D01*
X159392133Y-85871326D01*
X159383099Y-85850866D01*
X159368079Y-85828387D01*
X159363902Y-85807390D01*
X159356407Y-85790415D01*
X159350644Y-85740741D01*
X159350000Y-85737500D01*
X159350000Y-85262500D01*
X159350642Y-85259270D01*
X159356406Y-85209587D01*
X159363902Y-85192608D01*
X159368079Y-85171613D01*
X159383098Y-85149134D01*
X159392133Y-85128673D01*
X159406107Y-85114698D01*
X159419562Y-85094562D01*
X159439698Y-85081107D01*
X159453673Y-85067133D01*
X159474135Y-85058098D01*
X159496613Y-85043079D01*
X159517607Y-85038902D01*
X159534584Y-85031407D01*
X159584259Y-85025644D01*
X159587500Y-85025000D01*
X160187500Y-85025000D01*
X160190730Y-85025642D01*
G37*
G36*
X161915730Y-85025642D02*
G01*
X161965412Y-85031406D01*
X161982389Y-85038902D01*
X162003387Y-85043079D01*
X162025867Y-85058099D01*
X162046326Y-85067133D01*
X162060298Y-85081105D01*
X162080438Y-85094562D01*
X162093894Y-85114701D01*
X162107866Y-85128673D01*
X162116899Y-85149130D01*
X162131921Y-85171613D01*
X162136098Y-85192611D01*
X162143592Y-85209584D01*
X162149353Y-85259247D01*
X162150000Y-85262500D01*
X162150000Y-85737500D01*
X162149354Y-85740742D01*
X162143593Y-85790412D01*
X162136098Y-85807385D01*
X162131921Y-85828387D01*
X162116897Y-85850871D01*
X162107866Y-85871326D01*
X162093896Y-85885295D01*
X162080438Y-85905438D01*
X162060295Y-85918896D01*
X162046326Y-85932866D01*
X162025871Y-85941897D01*
X162003387Y-85956921D01*
X161982386Y-85961098D01*
X161965415Y-85968592D01*
X161915753Y-85974352D01*
X161912500Y-85975000D01*
X161312500Y-85975000D01*
X161309258Y-85974355D01*
X161259587Y-85968593D01*
X161242613Y-85961098D01*
X161221613Y-85956921D01*
X161199130Y-85941898D01*
X161178673Y-85932866D01*
X161164701Y-85918894D01*
X161144562Y-85905438D01*
X161131105Y-85885298D01*
X161117133Y-85871326D01*
X161108099Y-85850866D01*
X161093079Y-85828387D01*
X161088902Y-85807390D01*
X161081407Y-85790415D01*
X161075644Y-85740741D01*
X161075000Y-85737500D01*
X161075000Y-85262500D01*
X161075642Y-85259270D01*
X161081406Y-85209587D01*
X161088902Y-85192608D01*
X161093079Y-85171613D01*
X161108098Y-85149134D01*
X161117133Y-85128673D01*
X161131107Y-85114698D01*
X161144562Y-85094562D01*
X161164698Y-85081107D01*
X161178673Y-85067133D01*
X161199135Y-85058098D01*
X161221613Y-85043079D01*
X161242607Y-85038902D01*
X161259584Y-85031407D01*
X161309259Y-85025644D01*
X161312500Y-85025000D01*
X161912500Y-85025000D01*
X161915730Y-85025642D01*
G37*
G36*
X119482068Y-84297941D02*
G01*
X119620619Y-84355330D01*
X119745311Y-84438647D01*
X119851353Y-84544689D01*
X119934670Y-84669381D01*
X119992059Y-84807932D01*
X120021316Y-84955017D01*
X120021316Y-85104983D01*
X119992059Y-85252068D01*
X119934670Y-85390619D01*
X119851353Y-85515311D01*
X119745311Y-85621353D01*
X119620619Y-85704670D01*
X119482068Y-85762059D01*
X119334983Y-85791316D01*
X119185017Y-85791316D01*
X119037932Y-85762059D01*
X118899381Y-85704670D01*
X118774689Y-85621353D01*
X118668647Y-85515311D01*
X118585330Y-85390619D01*
X118527941Y-85252068D01*
X118498684Y-85104983D01*
X118498684Y-84955017D01*
X118527941Y-84807932D01*
X118585330Y-84669381D01*
X118668647Y-84544689D01*
X118774689Y-84438647D01*
X118899381Y-84355330D01*
X119037932Y-84297941D01*
X119185017Y-84268684D01*
X119334983Y-84268684D01*
X119482068Y-84297941D01*
G37*
G36*
X122022068Y-84297941D02*
G01*
X122160619Y-84355330D01*
X122285311Y-84438647D01*
X122391353Y-84544689D01*
X122474670Y-84669381D01*
X122532059Y-84807932D01*
X122561316Y-84955017D01*
X122561316Y-85104983D01*
X122532059Y-85252068D01*
X122474670Y-85390619D01*
X122391353Y-85515311D01*
X122285311Y-85621353D01*
X122160619Y-85704670D01*
X122022068Y-85762059D01*
X121874983Y-85791316D01*
X121725017Y-85791316D01*
X121577932Y-85762059D01*
X121439381Y-85704670D01*
X121314689Y-85621353D01*
X121208647Y-85515311D01*
X121125330Y-85390619D01*
X121067941Y-85252068D01*
X121038684Y-85104983D01*
X121038684Y-84955017D01*
X121067941Y-84807932D01*
X121125330Y-84669381D01*
X121208647Y-84544689D01*
X121314689Y-84438647D01*
X121439381Y-84355330D01*
X121577932Y-84297941D01*
X121725017Y-84268684D01*
X121874983Y-84268684D01*
X122022068Y-84297941D01*
G37*
G36*
X180422068Y-84297941D02*
G01*
X180560619Y-84355330D01*
X180685311Y-84438647D01*
X180791353Y-84544689D01*
X180874670Y-84669381D01*
X180932059Y-84807932D01*
X180961316Y-84955017D01*
X180961316Y-85104983D01*
X180932059Y-85252068D01*
X180874670Y-85390619D01*
X180791353Y-85515311D01*
X180685311Y-85621353D01*
X180560619Y-85704670D01*
X180422068Y-85762059D01*
X180274983Y-85791316D01*
X180125017Y-85791316D01*
X179977932Y-85762059D01*
X179839381Y-85704670D01*
X179714689Y-85621353D01*
X179608647Y-85515311D01*
X179525330Y-85390619D01*
X179467941Y-85252068D01*
X179438684Y-85104983D01*
X179438684Y-84955017D01*
X179467941Y-84807932D01*
X179525330Y-84669381D01*
X179608647Y-84544689D01*
X179714689Y-84438647D01*
X179839381Y-84355330D01*
X179977932Y-84297941D01*
X180125017Y-84268684D01*
X180274983Y-84268684D01*
X180422068Y-84297941D01*
G37*
G36*
X182962068Y-84297941D02*
G01*
X183100619Y-84355330D01*
X183225311Y-84438647D01*
X183331353Y-84544689D01*
X183414670Y-84669381D01*
X183472059Y-84807932D01*
X183501316Y-84955017D01*
X183501316Y-85104983D01*
X183472059Y-85252068D01*
X183414670Y-85390619D01*
X183331353Y-85515311D01*
X183225311Y-85621353D01*
X183100619Y-85704670D01*
X182962068Y-85762059D01*
X182814983Y-85791316D01*
X182665017Y-85791316D01*
X182517932Y-85762059D01*
X182379381Y-85704670D01*
X182254689Y-85621353D01*
X182148647Y-85515311D01*
X182065330Y-85390619D01*
X182007941Y-85252068D01*
X181978684Y-85104983D01*
X181978684Y-84955017D01*
X182007941Y-84807932D01*
X182065330Y-84669381D01*
X182148647Y-84544689D01*
X182254689Y-84438647D01*
X182379381Y-84355330D01*
X182517932Y-84297941D01*
X182665017Y-84268684D01*
X182814983Y-84268684D01*
X182962068Y-84297941D01*
G37*
G36*
X133170000Y-84750000D02*
G01*
X132520000Y-84750000D01*
X132520000Y-82900000D01*
X133170000Y-82900000D01*
X133170000Y-84750000D01*
G37*
G36*
X134440000Y-84750000D02*
G01*
X133790000Y-84750000D01*
X133790000Y-82900000D01*
X134440000Y-82900000D01*
X134440000Y-84750000D01*
G37*
G36*
X135710000Y-84750000D02*
G01*
X135060000Y-84750000D01*
X135060000Y-82900000D01*
X135710000Y-82900000D01*
X135710000Y-84750000D01*
G37*
G36*
X136980000Y-84750000D02*
G01*
X136330000Y-84750000D01*
X136330000Y-82900000D01*
X136980000Y-82900000D01*
X136980000Y-84750000D01*
G37*
G36*
X154242403Y-81886418D02*
G01*
X154291066Y-81918934D01*
X154323582Y-81967597D01*
X154335000Y-82025000D01*
X154335000Y-83775000D01*
X154323582Y-83832403D01*
X154291066Y-83881066D01*
X154242403Y-83913582D01*
X154185000Y-83925000D01*
X153885000Y-83925000D01*
X153827597Y-83913582D01*
X153778934Y-83881066D01*
X153746418Y-83832403D01*
X153735000Y-83775000D01*
X153735000Y-82025000D01*
X153746418Y-81967597D01*
X153778934Y-81918934D01*
X153827597Y-81886418D01*
X153885000Y-81875000D01*
X154185000Y-81875000D01*
X154242403Y-81886418D01*
G37*
G36*
X155512403Y-81886418D02*
G01*
X155561066Y-81918934D01*
X155593582Y-81967597D01*
X155605000Y-82025000D01*
X155605000Y-83775000D01*
X155593582Y-83832403D01*
X155561066Y-83881066D01*
X155512403Y-83913582D01*
X155455000Y-83925000D01*
X155155000Y-83925000D01*
X155097597Y-83913582D01*
X155048934Y-83881066D01*
X155016418Y-83832403D01*
X155005000Y-83775000D01*
X155005000Y-82025000D01*
X155016418Y-81967597D01*
X155048934Y-81918934D01*
X155097597Y-81886418D01*
X155155000Y-81875000D01*
X155455000Y-81875000D01*
X155512403Y-81886418D01*
G37*
G36*
X156782403Y-81886418D02*
G01*
X156831066Y-81918934D01*
X156863582Y-81967597D01*
X156875000Y-82025000D01*
X156875000Y-83775000D01*
X156863582Y-83832403D01*
X156831066Y-83881066D01*
X156782403Y-83913582D01*
X156725000Y-83925000D01*
X156425000Y-83925000D01*
X156367597Y-83913582D01*
X156318934Y-83881066D01*
X156286418Y-83832403D01*
X156275000Y-83775000D01*
X156275000Y-82025000D01*
X156286418Y-81967597D01*
X156318934Y-81918934D01*
X156367597Y-81886418D01*
X156425000Y-81875000D01*
X156725000Y-81875000D01*
X156782403Y-81886418D01*
G37*
G36*
X158052403Y-81886418D02*
G01*
X158101066Y-81918934D01*
X158133582Y-81967597D01*
X158145000Y-82025000D01*
X158145000Y-83775000D01*
X158133582Y-83832403D01*
X158101066Y-83881066D01*
X158052403Y-83913582D01*
X157995000Y-83925000D01*
X157695000Y-83925000D01*
X157637597Y-83913582D01*
X157588934Y-83881066D01*
X157556418Y-83832403D01*
X157545000Y-83775000D01*
X157545000Y-82025000D01*
X157556418Y-81967597D01*
X157588934Y-81918934D01*
X157637597Y-81886418D01*
X157695000Y-81875000D01*
X157995000Y-81875000D01*
X158052403Y-81886418D01*
G37*
G36*
X159322403Y-81886418D02*
G01*
X159371066Y-81918934D01*
X159403582Y-81967597D01*
X159415000Y-82025000D01*
X159415000Y-83775000D01*
X159403582Y-83832403D01*
X159371066Y-83881066D01*
X159322403Y-83913582D01*
X159265000Y-83925000D01*
X158965000Y-83925000D01*
X158907597Y-83913582D01*
X158858934Y-83881066D01*
X158826418Y-83832403D01*
X158815000Y-83775000D01*
X158815000Y-82025000D01*
X158826418Y-81967597D01*
X158858934Y-81918934D01*
X158907597Y-81886418D01*
X158965000Y-81875000D01*
X159265000Y-81875000D01*
X159322403Y-81886418D01*
G37*
G36*
X160592403Y-81886418D02*
G01*
X160641066Y-81918934D01*
X160673582Y-81967597D01*
X160685000Y-82025000D01*
X160685000Y-83775000D01*
X160673582Y-83832403D01*
X160641066Y-83881066D01*
X160592403Y-83913582D01*
X160535000Y-83925000D01*
X160235000Y-83925000D01*
X160177597Y-83913582D01*
X160128934Y-83881066D01*
X160096418Y-83832403D01*
X160085000Y-83775000D01*
X160085000Y-82025000D01*
X160096418Y-81967597D01*
X160128934Y-81918934D01*
X160177597Y-81886418D01*
X160235000Y-81875000D01*
X160535000Y-81875000D01*
X160592403Y-81886418D01*
G37*
G36*
X161862403Y-81886418D02*
G01*
X161911066Y-81918934D01*
X161943582Y-81967597D01*
X161955000Y-82025000D01*
X161955000Y-83775000D01*
X161943582Y-83832403D01*
X161911066Y-83881066D01*
X161862403Y-83913582D01*
X161805000Y-83925000D01*
X161505000Y-83925000D01*
X161447597Y-83913582D01*
X161398934Y-83881066D01*
X161366418Y-83832403D01*
X161355000Y-83775000D01*
X161355000Y-82025000D01*
X161366418Y-81967597D01*
X161398934Y-81918934D01*
X161447597Y-81886418D01*
X161505000Y-81875000D01*
X161805000Y-81875000D01*
X161862403Y-81886418D01*
G37*
G36*
X163132403Y-81886418D02*
G01*
X163181066Y-81918934D01*
X163213582Y-81967597D01*
X163225000Y-82025000D01*
X163225000Y-83775000D01*
X163213582Y-83832403D01*
X163181066Y-83881066D01*
X163132403Y-83913582D01*
X163075000Y-83925000D01*
X162775000Y-83925000D01*
X162717597Y-83913582D01*
X162668934Y-83881066D01*
X162636418Y-83832403D01*
X162625000Y-83775000D01*
X162625000Y-82025000D01*
X162636418Y-81967597D01*
X162668934Y-81918934D01*
X162717597Y-81886418D01*
X162775000Y-81875000D01*
X163075000Y-81875000D01*
X163132403Y-81886418D01*
G37*
G36*
X164402403Y-81886418D02*
G01*
X164451066Y-81918934D01*
X164483582Y-81967597D01*
X164495000Y-82025000D01*
X164495000Y-83775000D01*
X164483582Y-83832403D01*
X164451066Y-83881066D01*
X164402403Y-83913582D01*
X164345000Y-83925000D01*
X164045000Y-83925000D01*
X163987597Y-83913582D01*
X163938934Y-83881066D01*
X163906418Y-83832403D01*
X163895000Y-83775000D01*
X163895000Y-82025000D01*
X163906418Y-81967597D01*
X163938934Y-81918934D01*
X163987597Y-81886418D01*
X164045000Y-81875000D01*
X164345000Y-81875000D01*
X164402403Y-81886418D01*
G37*
G36*
X165672403Y-81886418D02*
G01*
X165721066Y-81918934D01*
X165753582Y-81967597D01*
X165765000Y-82025000D01*
X165765000Y-83775000D01*
X165753582Y-83832403D01*
X165721066Y-83881066D01*
X165672403Y-83913582D01*
X165615000Y-83925000D01*
X165315000Y-83925000D01*
X165257597Y-83913582D01*
X165208934Y-83881066D01*
X165176418Y-83832403D01*
X165165000Y-83775000D01*
X165165000Y-82025000D01*
X165176418Y-81967597D01*
X165208934Y-81918934D01*
X165257597Y-81886418D01*
X165315000Y-81875000D01*
X165615000Y-81875000D01*
X165672403Y-81886418D01*
G37*
G36*
X119482068Y-81757941D02*
G01*
X119620619Y-81815330D01*
X119745311Y-81898647D01*
X119851353Y-82004689D01*
X119934670Y-82129381D01*
X119992059Y-82267932D01*
X120021316Y-82415017D01*
X120021316Y-82564983D01*
X119992059Y-82712068D01*
X119934670Y-82850619D01*
X119851353Y-82975311D01*
X119745311Y-83081353D01*
X119620619Y-83164670D01*
X119482068Y-83222059D01*
X119334983Y-83251316D01*
X119185017Y-83251316D01*
X119037932Y-83222059D01*
X118899381Y-83164670D01*
X118774689Y-83081353D01*
X118668647Y-82975311D01*
X118585330Y-82850619D01*
X118527941Y-82712068D01*
X118498684Y-82564983D01*
X118498684Y-82415017D01*
X118527941Y-82267932D01*
X118585330Y-82129381D01*
X118668647Y-82004689D01*
X118774689Y-81898647D01*
X118899381Y-81815330D01*
X119037932Y-81757941D01*
X119185017Y-81728684D01*
X119334983Y-81728684D01*
X119482068Y-81757941D01*
G37*
G36*
X122022068Y-81757941D02*
G01*
X122160619Y-81815330D01*
X122285311Y-81898647D01*
X122391353Y-82004689D01*
X122474670Y-82129381D01*
X122532059Y-82267932D01*
X122561316Y-82415017D01*
X122561316Y-82564983D01*
X122532059Y-82712068D01*
X122474670Y-82850619D01*
X122391353Y-82975311D01*
X122285311Y-83081353D01*
X122160619Y-83164670D01*
X122022068Y-83222059D01*
X121874983Y-83251316D01*
X121725017Y-83251316D01*
X121577932Y-83222059D01*
X121439381Y-83164670D01*
X121314689Y-83081353D01*
X121208647Y-82975311D01*
X121125330Y-82850619D01*
X121067941Y-82712068D01*
X121038684Y-82564983D01*
X121038684Y-82415017D01*
X121067941Y-82267932D01*
X121125330Y-82129381D01*
X121208647Y-82004689D01*
X121314689Y-81898647D01*
X121439381Y-81815330D01*
X121577932Y-81757941D01*
X121725017Y-81728684D01*
X121874983Y-81728684D01*
X122022068Y-81757941D01*
G37*
G36*
X180422068Y-81757941D02*
G01*
X180560619Y-81815330D01*
X180685311Y-81898647D01*
X180791353Y-82004689D01*
X180874670Y-82129381D01*
X180932059Y-82267932D01*
X180961316Y-82415017D01*
X180961316Y-82564983D01*
X180932059Y-82712068D01*
X180874670Y-82850619D01*
X180791353Y-82975311D01*
X180685311Y-83081353D01*
X180560619Y-83164670D01*
X180422068Y-83222059D01*
X180274983Y-83251316D01*
X180125017Y-83251316D01*
X179977932Y-83222059D01*
X179839381Y-83164670D01*
X179714689Y-83081353D01*
X179608647Y-82975311D01*
X179525330Y-82850619D01*
X179467941Y-82712068D01*
X179438684Y-82564983D01*
X179438684Y-82415017D01*
X179467941Y-82267932D01*
X179525330Y-82129381D01*
X179608647Y-82004689D01*
X179714689Y-81898647D01*
X179839381Y-81815330D01*
X179977932Y-81757941D01*
X180125017Y-81728684D01*
X180274983Y-81728684D01*
X180422068Y-81757941D01*
G37*
G36*
X182962068Y-81757941D02*
G01*
X183100619Y-81815330D01*
X183225311Y-81898647D01*
X183331353Y-82004689D01*
X183414670Y-82129381D01*
X183472059Y-82267932D01*
X183501316Y-82415017D01*
X183501316Y-82564983D01*
X183472059Y-82712068D01*
X183414670Y-82850619D01*
X183331353Y-82975311D01*
X183225311Y-83081353D01*
X183100619Y-83164670D01*
X182962068Y-83222059D01*
X182814983Y-83251316D01*
X182665017Y-83251316D01*
X182517932Y-83222059D01*
X182379381Y-83164670D01*
X182254689Y-83081353D01*
X182148647Y-82975311D01*
X182065330Y-82850619D01*
X182007941Y-82712068D01*
X181978684Y-82564983D01*
X181978684Y-82415017D01*
X182007941Y-82267932D01*
X182065330Y-82129381D01*
X182148647Y-82004689D01*
X182254689Y-81898647D01*
X182379381Y-81815330D01*
X182517932Y-81757941D01*
X182665017Y-81728684D01*
X182814983Y-81728684D01*
X182962068Y-81757941D01*
G37*
G36*
X119482068Y-79217941D02*
G01*
X119620619Y-79275330D01*
X119745311Y-79358647D01*
X119851353Y-79464689D01*
X119934670Y-79589381D01*
X119992059Y-79727932D01*
X120021316Y-79875017D01*
X120021316Y-80024983D01*
X119992059Y-80172068D01*
X119934670Y-80310619D01*
X119851353Y-80435311D01*
X119745311Y-80541353D01*
X119620619Y-80624670D01*
X119482068Y-80682059D01*
X119334983Y-80711316D01*
X119185017Y-80711316D01*
X119037932Y-80682059D01*
X118899381Y-80624670D01*
X118774689Y-80541353D01*
X118668647Y-80435311D01*
X118585330Y-80310619D01*
X118527941Y-80172068D01*
X118498684Y-80024983D01*
X118498684Y-79875017D01*
X118527941Y-79727932D01*
X118585330Y-79589381D01*
X118668647Y-79464689D01*
X118774689Y-79358647D01*
X118899381Y-79275330D01*
X119037932Y-79217941D01*
X119185017Y-79188684D01*
X119334983Y-79188684D01*
X119482068Y-79217941D01*
G37*
G36*
X122022068Y-79217941D02*
G01*
X122160619Y-79275330D01*
X122285311Y-79358647D01*
X122391353Y-79464689D01*
X122474670Y-79589381D01*
X122532059Y-79727932D01*
X122561316Y-79875017D01*
X122561316Y-80024983D01*
X122532059Y-80172068D01*
X122474670Y-80310619D01*
X122391353Y-80435311D01*
X122285311Y-80541353D01*
X122160619Y-80624670D01*
X122022068Y-80682059D01*
X121874983Y-80711316D01*
X121725017Y-80711316D01*
X121577932Y-80682059D01*
X121439381Y-80624670D01*
X121314689Y-80541353D01*
X121208647Y-80435311D01*
X121125330Y-80310619D01*
X121067941Y-80172068D01*
X121038684Y-80024983D01*
X121038684Y-79875017D01*
X121067941Y-79727932D01*
X121125330Y-79589381D01*
X121208647Y-79464689D01*
X121314689Y-79358647D01*
X121439381Y-79275330D01*
X121577932Y-79217941D01*
X121725017Y-79188684D01*
X121874983Y-79188684D01*
X122022068Y-79217941D01*
G37*
G36*
X180422068Y-79217941D02*
G01*
X180560619Y-79275330D01*
X180685311Y-79358647D01*
X180791353Y-79464689D01*
X180874670Y-79589381D01*
X180932059Y-79727932D01*
X180961316Y-79875017D01*
X180961316Y-80024983D01*
X180932059Y-80172068D01*
X180874670Y-80310619D01*
X180791353Y-80435311D01*
X180685311Y-80541353D01*
X180560619Y-80624670D01*
X180422068Y-80682059D01*
X180274983Y-80711316D01*
X180125017Y-80711316D01*
X179977932Y-80682059D01*
X179839381Y-80624670D01*
X179714689Y-80541353D01*
X179608647Y-80435311D01*
X179525330Y-80310619D01*
X179467941Y-80172068D01*
X179438684Y-80024983D01*
X179438684Y-79875017D01*
X179467941Y-79727932D01*
X179525330Y-79589381D01*
X179608647Y-79464689D01*
X179714689Y-79358647D01*
X179839381Y-79275330D01*
X179977932Y-79217941D01*
X180125017Y-79188684D01*
X180274983Y-79188684D01*
X180422068Y-79217941D01*
G37*
G36*
X182962068Y-79217941D02*
G01*
X183100619Y-79275330D01*
X183225311Y-79358647D01*
X183331353Y-79464689D01*
X183414670Y-79589381D01*
X183472059Y-79727932D01*
X183501316Y-79875017D01*
X183501316Y-80024983D01*
X183472059Y-80172068D01*
X183414670Y-80310619D01*
X183331353Y-80435311D01*
X183225311Y-80541353D01*
X183100619Y-80624670D01*
X182962068Y-80682059D01*
X182814983Y-80711316D01*
X182665017Y-80711316D01*
X182517932Y-80682059D01*
X182379381Y-80624670D01*
X182254689Y-80541353D01*
X182148647Y-80435311D01*
X182065330Y-80310619D01*
X182007941Y-80172068D01*
X181978684Y-80024983D01*
X181978684Y-79875017D01*
X182007941Y-79727932D01*
X182065330Y-79589381D01*
X182148647Y-79464689D01*
X182254689Y-79358647D01*
X182379381Y-79275330D01*
X182517932Y-79217941D01*
X182665017Y-79188684D01*
X182814983Y-79188684D01*
X182962068Y-79217941D01*
G37*
G36*
X119482068Y-76677941D02*
G01*
X119620619Y-76735330D01*
X119745311Y-76818647D01*
X119851353Y-76924689D01*
X119934670Y-77049381D01*
X119992059Y-77187932D01*
X120021316Y-77335017D01*
X120021316Y-77484983D01*
X119992059Y-77632068D01*
X119934670Y-77770619D01*
X119851353Y-77895311D01*
X119745311Y-78001353D01*
X119620619Y-78084670D01*
X119482068Y-78142059D01*
X119334983Y-78171316D01*
X119185017Y-78171316D01*
X119037932Y-78142059D01*
X118899381Y-78084670D01*
X118774689Y-78001353D01*
X118668647Y-77895311D01*
X118585330Y-77770619D01*
X118527941Y-77632068D01*
X118498684Y-77484983D01*
X118498684Y-77335017D01*
X118527941Y-77187932D01*
X118585330Y-77049381D01*
X118668647Y-76924689D01*
X118774689Y-76818647D01*
X118899381Y-76735330D01*
X119037932Y-76677941D01*
X119185017Y-76648684D01*
X119334983Y-76648684D01*
X119482068Y-76677941D01*
G37*
G36*
X122022068Y-76677941D02*
G01*
X122160619Y-76735330D01*
X122285311Y-76818647D01*
X122391353Y-76924689D01*
X122474670Y-77049381D01*
X122532059Y-77187932D01*
X122561316Y-77335017D01*
X122561316Y-77484983D01*
X122532059Y-77632068D01*
X122474670Y-77770619D01*
X122391353Y-77895311D01*
X122285311Y-78001353D01*
X122160619Y-78084670D01*
X122022068Y-78142059D01*
X121874983Y-78171316D01*
X121725017Y-78171316D01*
X121577932Y-78142059D01*
X121439381Y-78084670D01*
X121314689Y-78001353D01*
X121208647Y-77895311D01*
X121125330Y-77770619D01*
X121067941Y-77632068D01*
X121038684Y-77484983D01*
X121038684Y-77335017D01*
X121067941Y-77187932D01*
X121125330Y-77049381D01*
X121208647Y-76924689D01*
X121314689Y-76818647D01*
X121439381Y-76735330D01*
X121577932Y-76677941D01*
X121725017Y-76648684D01*
X121874983Y-76648684D01*
X122022068Y-76677941D01*
G37*
G36*
X180422068Y-76677941D02*
G01*
X180560619Y-76735330D01*
X180685311Y-76818647D01*
X180791353Y-76924689D01*
X180874670Y-77049381D01*
X180932059Y-77187932D01*
X180961316Y-77335017D01*
X180961316Y-77484983D01*
X180932059Y-77632068D01*
X180874670Y-77770619D01*
X180791353Y-77895311D01*
X180685311Y-78001353D01*
X180560619Y-78084670D01*
X180422068Y-78142059D01*
X180274983Y-78171316D01*
X180125017Y-78171316D01*
X179977932Y-78142059D01*
X179839381Y-78084670D01*
X179714689Y-78001353D01*
X179608647Y-77895311D01*
X179525330Y-77770619D01*
X179467941Y-77632068D01*
X179438684Y-77484983D01*
X179438684Y-77335017D01*
X179467941Y-77187932D01*
X179525330Y-77049381D01*
X179608647Y-76924689D01*
X179714689Y-76818647D01*
X179839381Y-76735330D01*
X179977932Y-76677941D01*
X180125017Y-76648684D01*
X180274983Y-76648684D01*
X180422068Y-76677941D01*
G37*
G36*
X182962068Y-76677941D02*
G01*
X183100619Y-76735330D01*
X183225311Y-76818647D01*
X183331353Y-76924689D01*
X183414670Y-77049381D01*
X183472059Y-77187932D01*
X183501316Y-77335017D01*
X183501316Y-77484983D01*
X183472059Y-77632068D01*
X183414670Y-77770619D01*
X183331353Y-77895311D01*
X183225311Y-78001353D01*
X183100619Y-78084670D01*
X182962068Y-78142059D01*
X182814983Y-78171316D01*
X182665017Y-78171316D01*
X182517932Y-78142059D01*
X182379381Y-78084670D01*
X182254689Y-78001353D01*
X182148647Y-77895311D01*
X182065330Y-77770619D01*
X182007941Y-77632068D01*
X181978684Y-77484983D01*
X181978684Y-77335017D01*
X182007941Y-77187932D01*
X182065330Y-77049381D01*
X182148647Y-76924689D01*
X182254689Y-76818647D01*
X182379381Y-76735330D01*
X182517932Y-76677941D01*
X182665017Y-76648684D01*
X182814983Y-76648684D01*
X182962068Y-76677941D01*
G37*
G36*
X119482068Y-74137941D02*
G01*
X119620619Y-74195330D01*
X119745311Y-74278647D01*
X119851353Y-74384689D01*
X119934670Y-74509381D01*
X119992059Y-74647932D01*
X120021316Y-74795017D01*
X120021316Y-74944983D01*
X119992059Y-75092068D01*
X119934670Y-75230619D01*
X119851353Y-75355311D01*
X119745311Y-75461353D01*
X119620619Y-75544670D01*
X119482068Y-75602059D01*
X119334983Y-75631316D01*
X119185017Y-75631316D01*
X119037932Y-75602059D01*
X118899381Y-75544670D01*
X118774689Y-75461353D01*
X118668647Y-75355311D01*
X118585330Y-75230619D01*
X118527941Y-75092068D01*
X118498684Y-74944983D01*
X118498684Y-74795017D01*
X118527941Y-74647932D01*
X118585330Y-74509381D01*
X118668647Y-74384689D01*
X118774689Y-74278647D01*
X118899381Y-74195330D01*
X119037932Y-74137941D01*
X119185017Y-74108684D01*
X119334983Y-74108684D01*
X119482068Y-74137941D01*
G37*
G36*
X122022068Y-74137941D02*
G01*
X122160619Y-74195330D01*
X122285311Y-74278647D01*
X122391353Y-74384689D01*
X122474670Y-74509381D01*
X122532059Y-74647932D01*
X122561316Y-74795017D01*
X122561316Y-74944983D01*
X122532059Y-75092068D01*
X122474670Y-75230619D01*
X122391353Y-75355311D01*
X122285311Y-75461353D01*
X122160619Y-75544670D01*
X122022068Y-75602059D01*
X121874983Y-75631316D01*
X121725017Y-75631316D01*
X121577932Y-75602059D01*
X121439381Y-75544670D01*
X121314689Y-75461353D01*
X121208647Y-75355311D01*
X121125330Y-75230619D01*
X121067941Y-75092068D01*
X121038684Y-74944983D01*
X121038684Y-74795017D01*
X121067941Y-74647932D01*
X121125330Y-74509381D01*
X121208647Y-74384689D01*
X121314689Y-74278647D01*
X121439381Y-74195330D01*
X121577932Y-74137941D01*
X121725017Y-74108684D01*
X121874983Y-74108684D01*
X122022068Y-74137941D01*
G37*
G36*
X180422068Y-74137941D02*
G01*
X180560619Y-74195330D01*
X180685311Y-74278647D01*
X180791353Y-74384689D01*
X180874670Y-74509381D01*
X180932059Y-74647932D01*
X180961316Y-74795017D01*
X180961316Y-74944983D01*
X180932059Y-75092068D01*
X180874670Y-75230619D01*
X180791353Y-75355311D01*
X180685311Y-75461353D01*
X180560619Y-75544670D01*
X180422068Y-75602059D01*
X180274983Y-75631316D01*
X180125017Y-75631316D01*
X179977932Y-75602059D01*
X179839381Y-75544670D01*
X179714689Y-75461353D01*
X179608647Y-75355311D01*
X179525330Y-75230619D01*
X179467941Y-75092068D01*
X179438684Y-74944983D01*
X179438684Y-74795017D01*
X179467941Y-74647932D01*
X179525330Y-74509381D01*
X179608647Y-74384689D01*
X179714689Y-74278647D01*
X179839381Y-74195330D01*
X179977932Y-74137941D01*
X180125017Y-74108684D01*
X180274983Y-74108684D01*
X180422068Y-74137941D01*
G37*
G36*
X182962068Y-74137941D02*
G01*
X183100619Y-74195330D01*
X183225311Y-74278647D01*
X183331353Y-74384689D01*
X183414670Y-74509381D01*
X183472059Y-74647932D01*
X183501316Y-74795017D01*
X183501316Y-74944983D01*
X183472059Y-75092068D01*
X183414670Y-75230619D01*
X183331353Y-75355311D01*
X183225311Y-75461353D01*
X183100619Y-75544670D01*
X182962068Y-75602059D01*
X182814983Y-75631316D01*
X182665017Y-75631316D01*
X182517932Y-75602059D01*
X182379381Y-75544670D01*
X182254689Y-75461353D01*
X182148647Y-75355311D01*
X182065330Y-75230619D01*
X182007941Y-75092068D01*
X181978684Y-74944983D01*
X181978684Y-74795017D01*
X182007941Y-74647932D01*
X182065330Y-74509381D01*
X182148647Y-74384689D01*
X182254689Y-74278647D01*
X182379381Y-74195330D01*
X182517932Y-74137941D01*
X182665017Y-74108684D01*
X182814983Y-74108684D01*
X182962068Y-74137941D01*
G37*
G36*
X154242403Y-72586418D02*
G01*
X154291066Y-72618934D01*
X154323582Y-72667597D01*
X154335000Y-72725000D01*
X154335000Y-74475000D01*
X154323582Y-74532403D01*
X154291066Y-74581066D01*
X154242403Y-74613582D01*
X154185000Y-74625000D01*
X153885000Y-74625000D01*
X153827597Y-74613582D01*
X153778934Y-74581066D01*
X153746418Y-74532403D01*
X153735000Y-74475000D01*
X153735000Y-72725000D01*
X153746418Y-72667597D01*
X153778934Y-72618934D01*
X153827597Y-72586418D01*
X153885000Y-72575000D01*
X154185000Y-72575000D01*
X154242403Y-72586418D01*
G37*
G36*
X155512403Y-72586418D02*
G01*
X155561066Y-72618934D01*
X155593582Y-72667597D01*
X155605000Y-72725000D01*
X155605000Y-74475000D01*
X155593582Y-74532403D01*
X155561066Y-74581066D01*
X155512403Y-74613582D01*
X155455000Y-74625000D01*
X155155000Y-74625000D01*
X155097597Y-74613582D01*
X155048934Y-74581066D01*
X155016418Y-74532403D01*
X155005000Y-74475000D01*
X155005000Y-72725000D01*
X155016418Y-72667597D01*
X155048934Y-72618934D01*
X155097597Y-72586418D01*
X155155000Y-72575000D01*
X155455000Y-72575000D01*
X155512403Y-72586418D01*
G37*
G36*
X156782403Y-72586418D02*
G01*
X156831066Y-72618934D01*
X156863582Y-72667597D01*
X156875000Y-72725000D01*
X156875000Y-74475000D01*
X156863582Y-74532403D01*
X156831066Y-74581066D01*
X156782403Y-74613582D01*
X156725000Y-74625000D01*
X156425000Y-74625000D01*
X156367597Y-74613582D01*
X156318934Y-74581066D01*
X156286418Y-74532403D01*
X156275000Y-74475000D01*
X156275000Y-72725000D01*
X156286418Y-72667597D01*
X156318934Y-72618934D01*
X156367597Y-72586418D01*
X156425000Y-72575000D01*
X156725000Y-72575000D01*
X156782403Y-72586418D01*
G37*
G36*
X158052403Y-72586418D02*
G01*
X158101066Y-72618934D01*
X158133582Y-72667597D01*
X158145000Y-72725000D01*
X158145000Y-74475000D01*
X158133582Y-74532403D01*
X158101066Y-74581066D01*
X158052403Y-74613582D01*
X157995000Y-74625000D01*
X157695000Y-74625000D01*
X157637597Y-74613582D01*
X157588934Y-74581066D01*
X157556418Y-74532403D01*
X157545000Y-74475000D01*
X157545000Y-72725000D01*
X157556418Y-72667597D01*
X157588934Y-72618934D01*
X157637597Y-72586418D01*
X157695000Y-72575000D01*
X157995000Y-72575000D01*
X158052403Y-72586418D01*
G37*
G36*
X159322403Y-72586418D02*
G01*
X159371066Y-72618934D01*
X159403582Y-72667597D01*
X159415000Y-72725000D01*
X159415000Y-74475000D01*
X159403582Y-74532403D01*
X159371066Y-74581066D01*
X159322403Y-74613582D01*
X159265000Y-74625000D01*
X158965000Y-74625000D01*
X158907597Y-74613582D01*
X158858934Y-74581066D01*
X158826418Y-74532403D01*
X158815000Y-74475000D01*
X158815000Y-72725000D01*
X158826418Y-72667597D01*
X158858934Y-72618934D01*
X158907597Y-72586418D01*
X158965000Y-72575000D01*
X159265000Y-72575000D01*
X159322403Y-72586418D01*
G37*
G36*
X160592403Y-72586418D02*
G01*
X160641066Y-72618934D01*
X160673582Y-72667597D01*
X160685000Y-72725000D01*
X160685000Y-74475000D01*
X160673582Y-74532403D01*
X160641066Y-74581066D01*
X160592403Y-74613582D01*
X160535000Y-74625000D01*
X160235000Y-74625000D01*
X160177597Y-74613582D01*
X160128934Y-74581066D01*
X160096418Y-74532403D01*
X160085000Y-74475000D01*
X160085000Y-72725000D01*
X160096418Y-72667597D01*
X160128934Y-72618934D01*
X160177597Y-72586418D01*
X160235000Y-72575000D01*
X160535000Y-72575000D01*
X160592403Y-72586418D01*
G37*
G36*
X161862403Y-72586418D02*
G01*
X161911066Y-72618934D01*
X161943582Y-72667597D01*
X161955000Y-72725000D01*
X161955000Y-74475000D01*
X161943582Y-74532403D01*
X161911066Y-74581066D01*
X161862403Y-74613582D01*
X161805000Y-74625000D01*
X161505000Y-74625000D01*
X161447597Y-74613582D01*
X161398934Y-74581066D01*
X161366418Y-74532403D01*
X161355000Y-74475000D01*
X161355000Y-72725000D01*
X161366418Y-72667597D01*
X161398934Y-72618934D01*
X161447597Y-72586418D01*
X161505000Y-72575000D01*
X161805000Y-72575000D01*
X161862403Y-72586418D01*
G37*
G36*
X163132403Y-72586418D02*
G01*
X163181066Y-72618934D01*
X163213582Y-72667597D01*
X163225000Y-72725000D01*
X163225000Y-74475000D01*
X163213582Y-74532403D01*
X163181066Y-74581066D01*
X163132403Y-74613582D01*
X163075000Y-74625000D01*
X162775000Y-74625000D01*
X162717597Y-74613582D01*
X162668934Y-74581066D01*
X162636418Y-74532403D01*
X162625000Y-74475000D01*
X162625000Y-72725000D01*
X162636418Y-72667597D01*
X162668934Y-72618934D01*
X162717597Y-72586418D01*
X162775000Y-72575000D01*
X163075000Y-72575000D01*
X163132403Y-72586418D01*
G37*
G36*
X164402403Y-72586418D02*
G01*
X164451066Y-72618934D01*
X164483582Y-72667597D01*
X164495000Y-72725000D01*
X164495000Y-74475000D01*
X164483582Y-74532403D01*
X164451066Y-74581066D01*
X164402403Y-74613582D01*
X164345000Y-74625000D01*
X164045000Y-74625000D01*
X163987597Y-74613582D01*
X163938934Y-74581066D01*
X163906418Y-74532403D01*
X163895000Y-74475000D01*
X163895000Y-72725000D01*
X163906418Y-72667597D01*
X163938934Y-72618934D01*
X163987597Y-72586418D01*
X164045000Y-72575000D01*
X164345000Y-72575000D01*
X164402403Y-72586418D01*
G37*
G36*
X165672403Y-72586418D02*
G01*
X165721066Y-72618934D01*
X165753582Y-72667597D01*
X165765000Y-72725000D01*
X165765000Y-74475000D01*
X165753582Y-74532403D01*
X165721066Y-74581066D01*
X165672403Y-74613582D01*
X165615000Y-74625000D01*
X165315000Y-74625000D01*
X165257597Y-74613582D01*
X165208934Y-74581066D01*
X165176418Y-74532403D01*
X165165000Y-74475000D01*
X165165000Y-72725000D01*
X165176418Y-72667597D01*
X165208934Y-72618934D01*
X165257597Y-72586418D01*
X165315000Y-72575000D01*
X165615000Y-72575000D01*
X165672403Y-72586418D01*
G37*
G36*
X133170000Y-74100000D02*
G01*
X132520000Y-74100000D01*
X132520000Y-72250000D01*
X133170000Y-72250000D01*
X133170000Y-74100000D01*
G37*
G36*
X134440000Y-74100000D02*
G01*
X133790000Y-74100000D01*
X133790000Y-72250000D01*
X134440000Y-72250000D01*
X134440000Y-74100000D01*
G37*
G36*
X135710000Y-74100000D02*
G01*
X135060000Y-74100000D01*
X135060000Y-72250000D01*
X135710000Y-72250000D01*
X135710000Y-74100000D01*
G37*
G36*
X136980000Y-74100000D02*
G01*
X136330000Y-74100000D01*
X136330000Y-72250000D01*
X136980000Y-72250000D01*
X136980000Y-74100000D01*
G37*
G36*
X119482068Y-71597941D02*
G01*
X119620619Y-71655330D01*
X119745311Y-71738647D01*
X119851353Y-71844689D01*
X119934670Y-71969381D01*
X119992059Y-72107932D01*
X120021316Y-72255017D01*
X120021316Y-72404983D01*
X119992059Y-72552068D01*
X119934670Y-72690619D01*
X119851353Y-72815311D01*
X119745311Y-72921353D01*
X119620619Y-73004670D01*
X119482068Y-73062059D01*
X119334983Y-73091316D01*
X119185017Y-73091316D01*
X119037932Y-73062059D01*
X118899381Y-73004670D01*
X118774689Y-72921353D01*
X118668647Y-72815311D01*
X118585330Y-72690619D01*
X118527941Y-72552068D01*
X118498684Y-72404983D01*
X118498684Y-72255017D01*
X118527941Y-72107932D01*
X118585330Y-71969381D01*
X118668647Y-71844689D01*
X118774689Y-71738647D01*
X118899381Y-71655330D01*
X119037932Y-71597941D01*
X119185017Y-71568684D01*
X119334983Y-71568684D01*
X119482068Y-71597941D01*
G37*
G36*
X122022068Y-71597941D02*
G01*
X122160619Y-71655330D01*
X122285311Y-71738647D01*
X122391353Y-71844689D01*
X122474670Y-71969381D01*
X122532059Y-72107932D01*
X122561316Y-72255017D01*
X122561316Y-72404983D01*
X122532059Y-72552068D01*
X122474670Y-72690619D01*
X122391353Y-72815311D01*
X122285311Y-72921353D01*
X122160619Y-73004670D01*
X122022068Y-73062059D01*
X121874983Y-73091316D01*
X121725017Y-73091316D01*
X121577932Y-73062059D01*
X121439381Y-73004670D01*
X121314689Y-72921353D01*
X121208647Y-72815311D01*
X121125330Y-72690619D01*
X121067941Y-72552068D01*
X121038684Y-72404983D01*
X121038684Y-72255017D01*
X121067941Y-72107932D01*
X121125330Y-71969381D01*
X121208647Y-71844689D01*
X121314689Y-71738647D01*
X121439381Y-71655330D01*
X121577932Y-71597941D01*
X121725017Y-71568684D01*
X121874983Y-71568684D01*
X122022068Y-71597941D01*
G37*
G36*
X180422068Y-71597941D02*
G01*
X180560619Y-71655330D01*
X180685311Y-71738647D01*
X180791353Y-71844689D01*
X180874670Y-71969381D01*
X180932059Y-72107932D01*
X180961316Y-72255017D01*
X180961316Y-72404983D01*
X180932059Y-72552068D01*
X180874670Y-72690619D01*
X180791353Y-72815311D01*
X180685311Y-72921353D01*
X180560619Y-73004670D01*
X180422068Y-73062059D01*
X180274983Y-73091316D01*
X180125017Y-73091316D01*
X179977932Y-73062059D01*
X179839381Y-73004670D01*
X179714689Y-72921353D01*
X179608647Y-72815311D01*
X179525330Y-72690619D01*
X179467941Y-72552068D01*
X179438684Y-72404983D01*
X179438684Y-72255017D01*
X179467941Y-72107932D01*
X179525330Y-71969381D01*
X179608647Y-71844689D01*
X179714689Y-71738647D01*
X179839381Y-71655330D01*
X179977932Y-71597941D01*
X180125017Y-71568684D01*
X180274983Y-71568684D01*
X180422068Y-71597941D01*
G37*
G36*
X182962068Y-71597941D02*
G01*
X183100619Y-71655330D01*
X183225311Y-71738647D01*
X183331353Y-71844689D01*
X183414670Y-71969381D01*
X183472059Y-72107932D01*
X183501316Y-72255017D01*
X183501316Y-72404983D01*
X183472059Y-72552068D01*
X183414670Y-72690619D01*
X183331353Y-72815311D01*
X183225311Y-72921353D01*
X183100619Y-73004670D01*
X182962068Y-73062059D01*
X182814983Y-73091316D01*
X182665017Y-73091316D01*
X182517932Y-73062059D01*
X182379381Y-73004670D01*
X182254689Y-72921353D01*
X182148647Y-72815311D01*
X182065330Y-72690619D01*
X182007941Y-72552068D01*
X181978684Y-72404983D01*
X181978684Y-72255017D01*
X182007941Y-72107932D01*
X182065330Y-71969381D01*
X182148647Y-71844689D01*
X182254689Y-71738647D01*
X182379381Y-71655330D01*
X182517932Y-71597941D01*
X182665017Y-71568684D01*
X182814983Y-71568684D01*
X182962068Y-71597941D01*
G37*
G36*
X129940730Y-70275642D02*
G01*
X129990412Y-70281406D01*
X130007389Y-70288902D01*
X130028387Y-70293079D01*
X130050867Y-70308099D01*
X130071326Y-70317133D01*
X130085298Y-70331105D01*
X130105438Y-70344562D01*
X130118894Y-70364701D01*
X130132866Y-70378673D01*
X130141899Y-70399130D01*
X130156921Y-70421613D01*
X130161098Y-70442611D01*
X130168592Y-70459584D01*
X130174353Y-70509247D01*
X130175000Y-70512500D01*
X130175000Y-70987500D01*
X130174354Y-70990742D01*
X130168593Y-71040412D01*
X130161098Y-71057385D01*
X130156921Y-71078387D01*
X130141897Y-71100871D01*
X130132866Y-71121326D01*
X130118896Y-71135295D01*
X130105438Y-71155438D01*
X130085295Y-71168896D01*
X130071326Y-71182866D01*
X130050871Y-71191897D01*
X130028387Y-71206921D01*
X130007386Y-71211098D01*
X129990415Y-71218592D01*
X129940753Y-71224352D01*
X129937500Y-71225000D01*
X129337500Y-71225000D01*
X129334258Y-71224355D01*
X129284587Y-71218593D01*
X129267613Y-71211098D01*
X129246613Y-71206921D01*
X129224130Y-71191898D01*
X129203673Y-71182866D01*
X129189701Y-71168894D01*
X129169562Y-71155438D01*
X129156105Y-71135298D01*
X129142133Y-71121326D01*
X129133099Y-71100866D01*
X129118079Y-71078387D01*
X129113902Y-71057390D01*
X129106407Y-71040415D01*
X129100644Y-70990741D01*
X129100000Y-70987500D01*
X129100000Y-70512500D01*
X129100642Y-70509270D01*
X129106406Y-70459587D01*
X129113902Y-70442608D01*
X129118079Y-70421613D01*
X129133098Y-70399134D01*
X129142133Y-70378673D01*
X129156107Y-70364698D01*
X129169562Y-70344562D01*
X129189698Y-70331107D01*
X129203673Y-70317133D01*
X129224135Y-70308098D01*
X129246613Y-70293079D01*
X129267607Y-70288902D01*
X129284584Y-70281407D01*
X129334259Y-70275644D01*
X129337500Y-70275000D01*
X129937500Y-70275000D01*
X129940730Y-70275642D01*
G37*
G36*
X131665730Y-70275642D02*
G01*
X131715412Y-70281406D01*
X131732389Y-70288902D01*
X131753387Y-70293079D01*
X131775867Y-70308099D01*
X131796326Y-70317133D01*
X131810298Y-70331105D01*
X131830438Y-70344562D01*
X131843894Y-70364701D01*
X131857866Y-70378673D01*
X131866899Y-70399130D01*
X131881921Y-70421613D01*
X131886098Y-70442611D01*
X131893592Y-70459584D01*
X131899353Y-70509247D01*
X131900000Y-70512500D01*
X131900000Y-70987500D01*
X131899354Y-70990742D01*
X131893593Y-71040412D01*
X131886098Y-71057385D01*
X131881921Y-71078387D01*
X131866897Y-71100871D01*
X131857866Y-71121326D01*
X131843896Y-71135295D01*
X131830438Y-71155438D01*
X131810295Y-71168896D01*
X131796326Y-71182866D01*
X131775871Y-71191897D01*
X131753387Y-71206921D01*
X131732386Y-71211098D01*
X131715415Y-71218592D01*
X131665753Y-71224352D01*
X131662500Y-71225000D01*
X131062500Y-71225000D01*
X131059258Y-71224355D01*
X131009587Y-71218593D01*
X130992613Y-71211098D01*
X130971613Y-71206921D01*
X130949130Y-71191898D01*
X130928673Y-71182866D01*
X130914701Y-71168894D01*
X130894562Y-71155438D01*
X130881105Y-71135298D01*
X130867133Y-71121326D01*
X130858099Y-71100866D01*
X130843079Y-71078387D01*
X130838902Y-71057390D01*
X130831407Y-71040415D01*
X130825644Y-70990741D01*
X130825000Y-70987500D01*
X130825000Y-70512500D01*
X130825642Y-70509270D01*
X130831406Y-70459587D01*
X130838902Y-70442608D01*
X130843079Y-70421613D01*
X130858098Y-70399134D01*
X130867133Y-70378673D01*
X130881107Y-70364698D01*
X130894562Y-70344562D01*
X130914698Y-70331107D01*
X130928673Y-70317133D01*
X130949135Y-70308098D01*
X130971613Y-70293079D01*
X130992607Y-70288902D01*
X131009584Y-70281407D01*
X131059259Y-70275644D01*
X131062500Y-70275000D01*
X131662500Y-70275000D01*
X131665730Y-70275642D01*
G37*
G36*
X160690730Y-70275642D02*
G01*
X160740412Y-70281406D01*
X160757389Y-70288902D01*
X160778387Y-70293079D01*
X160800867Y-70308099D01*
X160821326Y-70317133D01*
X160835298Y-70331105D01*
X160855438Y-70344562D01*
X160868894Y-70364701D01*
X160882866Y-70378673D01*
X160891899Y-70399130D01*
X160906921Y-70421613D01*
X160911098Y-70442611D01*
X160918592Y-70459584D01*
X160924353Y-70509247D01*
X160925000Y-70512500D01*
X160925000Y-70987500D01*
X160924354Y-70990742D01*
X160918593Y-71040412D01*
X160911098Y-71057385D01*
X160906921Y-71078387D01*
X160891897Y-71100871D01*
X160882866Y-71121326D01*
X160868896Y-71135295D01*
X160855438Y-71155438D01*
X160835295Y-71168896D01*
X160821326Y-71182866D01*
X160800871Y-71191897D01*
X160778387Y-71206921D01*
X160757386Y-71211098D01*
X160740415Y-71218592D01*
X160690753Y-71224352D01*
X160687500Y-71225000D01*
X160087500Y-71225000D01*
X160084258Y-71224355D01*
X160034587Y-71218593D01*
X160017613Y-71211098D01*
X159996613Y-71206921D01*
X159974130Y-71191898D01*
X159953673Y-71182866D01*
X159939701Y-71168894D01*
X159919562Y-71155438D01*
X159906105Y-71135298D01*
X159892133Y-71121326D01*
X159883099Y-71100866D01*
X159868079Y-71078387D01*
X159863902Y-71057390D01*
X159856407Y-71040415D01*
X159850644Y-70990741D01*
X159850000Y-70987500D01*
X159850000Y-70512500D01*
X159850642Y-70509270D01*
X159856406Y-70459587D01*
X159863902Y-70442608D01*
X159868079Y-70421613D01*
X159883098Y-70399134D01*
X159892133Y-70378673D01*
X159906107Y-70364698D01*
X159919562Y-70344562D01*
X159939698Y-70331107D01*
X159953673Y-70317133D01*
X159974135Y-70308098D01*
X159996613Y-70293079D01*
X160017607Y-70288902D01*
X160034584Y-70281407D01*
X160084259Y-70275644D01*
X160087500Y-70275000D01*
X160687500Y-70275000D01*
X160690730Y-70275642D01*
G37*
G36*
X162415730Y-70275642D02*
G01*
X162465412Y-70281406D01*
X162482389Y-70288902D01*
X162503387Y-70293079D01*
X162525867Y-70308099D01*
X162546326Y-70317133D01*
X162560298Y-70331105D01*
X162580438Y-70344562D01*
X162593894Y-70364701D01*
X162607866Y-70378673D01*
X162616899Y-70399130D01*
X162631921Y-70421613D01*
X162636098Y-70442611D01*
X162643592Y-70459584D01*
X162649353Y-70509247D01*
X162650000Y-70512500D01*
X162650000Y-70987500D01*
X162649354Y-70990742D01*
X162643593Y-71040412D01*
X162636098Y-71057385D01*
X162631921Y-71078387D01*
X162616897Y-71100871D01*
X162607866Y-71121326D01*
X162593896Y-71135295D01*
X162580438Y-71155438D01*
X162560295Y-71168896D01*
X162546326Y-71182866D01*
X162525871Y-71191897D01*
X162503387Y-71206921D01*
X162482386Y-71211098D01*
X162465415Y-71218592D01*
X162415753Y-71224352D01*
X162412500Y-71225000D01*
X161812500Y-71225000D01*
X161809258Y-71224355D01*
X161759587Y-71218593D01*
X161742613Y-71211098D01*
X161721613Y-71206921D01*
X161699130Y-71191898D01*
X161678673Y-71182866D01*
X161664701Y-71168894D01*
X161644562Y-71155438D01*
X161631105Y-71135298D01*
X161617133Y-71121326D01*
X161608099Y-71100866D01*
X161593079Y-71078387D01*
X161588902Y-71057390D01*
X161581407Y-71040415D01*
X161575644Y-70990741D01*
X161575000Y-70987500D01*
X161575000Y-70512500D01*
X161575642Y-70509270D01*
X161581406Y-70459587D01*
X161588902Y-70442608D01*
X161593079Y-70421613D01*
X161608098Y-70399134D01*
X161617133Y-70378673D01*
X161631107Y-70364698D01*
X161644562Y-70344562D01*
X161664698Y-70331107D01*
X161678673Y-70317133D01*
X161699135Y-70308098D01*
X161721613Y-70293079D01*
X161742607Y-70288902D01*
X161759584Y-70281407D01*
X161809259Y-70275644D01*
X161812500Y-70275000D01*
X162412500Y-70275000D01*
X162415730Y-70275642D01*
G37*
G36*
X164803231Y-69775642D02*
G01*
X164855772Y-69781738D01*
X164873723Y-69789664D01*
X164895671Y-69794030D01*
X164919166Y-69809729D01*
X164940890Y-69819321D01*
X164955726Y-69834157D01*
X164976777Y-69848223D01*
X164990842Y-69869273D01*
X165005678Y-69884109D01*
X165015269Y-69905830D01*
X165030970Y-69929329D01*
X165035335Y-69951277D01*
X165043260Y-69969224D01*
X165049352Y-70021747D01*
X165050000Y-70025000D01*
X165050000Y-70975000D01*
X165049354Y-70978243D01*
X165043261Y-71030772D01*
X165035336Y-71048719D01*
X165030970Y-71070671D01*
X165015267Y-71094171D01*
X165005678Y-71115890D01*
X164990844Y-71130723D01*
X164976777Y-71151777D01*
X164955723Y-71165844D01*
X164940890Y-71180678D01*
X164919170Y-71190267D01*
X164895671Y-71205970D01*
X164873720Y-71210336D01*
X164855775Y-71218260D01*
X164803254Y-71224352D01*
X164800000Y-71225000D01*
X164125000Y-71225000D01*
X164121758Y-71224355D01*
X164069227Y-71218261D01*
X164051278Y-71210335D01*
X164029329Y-71205970D01*
X164005830Y-71190268D01*
X163984109Y-71180678D01*
X163969273Y-71165842D01*
X163948223Y-71151777D01*
X163934157Y-71130726D01*
X163919321Y-71115890D01*
X163909729Y-71094166D01*
X163894030Y-71070671D01*
X163889664Y-71048724D01*
X163881739Y-71030775D01*
X163875644Y-70978242D01*
X163875000Y-70975000D01*
X163875000Y-70025000D01*
X163875642Y-70021770D01*
X163881738Y-69969227D01*
X163889664Y-69951274D01*
X163894030Y-69929329D01*
X163909728Y-69905835D01*
X163919321Y-69884109D01*
X163934159Y-69869270D01*
X163948223Y-69848223D01*
X163969270Y-69834159D01*
X163984109Y-69819321D01*
X164005835Y-69809727D01*
X164029329Y-69794030D01*
X164051273Y-69789665D01*
X164069224Y-69781739D01*
X164121759Y-69775644D01*
X164125000Y-69775000D01*
X164800000Y-69775000D01*
X164803231Y-69775642D01*
G37*
G36*
X166878231Y-69775642D02*
G01*
X166930772Y-69781738D01*
X166948723Y-69789664D01*
X166970671Y-69794030D01*
X166994166Y-69809729D01*
X167015890Y-69819321D01*
X167030726Y-69834157D01*
X167051777Y-69848223D01*
X167065842Y-69869273D01*
X167080678Y-69884109D01*
X167090269Y-69905830D01*
X167105970Y-69929329D01*
X167110335Y-69951277D01*
X167118260Y-69969224D01*
X167124352Y-70021747D01*
X167125000Y-70025000D01*
X167125000Y-70975000D01*
X167124354Y-70978243D01*
X167118261Y-71030772D01*
X167110336Y-71048719D01*
X167105970Y-71070671D01*
X167090267Y-71094171D01*
X167080678Y-71115890D01*
X167065844Y-71130723D01*
X167051777Y-71151777D01*
X167030723Y-71165844D01*
X167015890Y-71180678D01*
X166994170Y-71190267D01*
X166970671Y-71205970D01*
X166948720Y-71210336D01*
X166930775Y-71218260D01*
X166878254Y-71224352D01*
X166875000Y-71225000D01*
X166200000Y-71225000D01*
X166196758Y-71224355D01*
X166144227Y-71218261D01*
X166126278Y-71210335D01*
X166104329Y-71205970D01*
X166080830Y-71190268D01*
X166059109Y-71180678D01*
X166044273Y-71165842D01*
X166023223Y-71151777D01*
X166009157Y-71130726D01*
X165994321Y-71115890D01*
X165984729Y-71094166D01*
X165969030Y-71070671D01*
X165964664Y-71048724D01*
X165956739Y-71030775D01*
X165950644Y-70978242D01*
X165950000Y-70975000D01*
X165950000Y-70025000D01*
X165950642Y-70021770D01*
X165956738Y-69969227D01*
X165964664Y-69951274D01*
X165969030Y-69929329D01*
X165984728Y-69905835D01*
X165994321Y-69884109D01*
X166009159Y-69869270D01*
X166023223Y-69848223D01*
X166044270Y-69834159D01*
X166059109Y-69819321D01*
X166080835Y-69809727D01*
X166104329Y-69794030D01*
X166126273Y-69789665D01*
X166144224Y-69781739D01*
X166196759Y-69775644D01*
X166200000Y-69775000D01*
X166875000Y-69775000D01*
X166878231Y-69775642D01*
G37*
G36*
X119482068Y-69057941D02*
G01*
X119620619Y-69115330D01*
X119745311Y-69198647D01*
X119851353Y-69304689D01*
X119934670Y-69429381D01*
X119992059Y-69567932D01*
X120021316Y-69715017D01*
X120021316Y-69864983D01*
X119992059Y-70012068D01*
X119934670Y-70150619D01*
X119851353Y-70275311D01*
X119745311Y-70381353D01*
X119620619Y-70464670D01*
X119482068Y-70522059D01*
X119334983Y-70551316D01*
X119185017Y-70551316D01*
X119037932Y-70522059D01*
X118899381Y-70464670D01*
X118774689Y-70381353D01*
X118668647Y-70275311D01*
X118585330Y-70150619D01*
X118527941Y-70012068D01*
X118498684Y-69864983D01*
X118498684Y-69715017D01*
X118527941Y-69567932D01*
X118585330Y-69429381D01*
X118668647Y-69304689D01*
X118774689Y-69198647D01*
X118899381Y-69115330D01*
X119037932Y-69057941D01*
X119185017Y-69028684D01*
X119334983Y-69028684D01*
X119482068Y-69057941D01*
G37*
G36*
X122022068Y-69057941D02*
G01*
X122160619Y-69115330D01*
X122285311Y-69198647D01*
X122391353Y-69304689D01*
X122474670Y-69429381D01*
X122532059Y-69567932D01*
X122561316Y-69715017D01*
X122561316Y-69864983D01*
X122532059Y-70012068D01*
X122474670Y-70150619D01*
X122391353Y-70275311D01*
X122285311Y-70381353D01*
X122160619Y-70464670D01*
X122022068Y-70522059D01*
X121874983Y-70551316D01*
X121725017Y-70551316D01*
X121577932Y-70522059D01*
X121439381Y-70464670D01*
X121314689Y-70381353D01*
X121208647Y-70275311D01*
X121125330Y-70150619D01*
X121067941Y-70012068D01*
X121038684Y-69864983D01*
X121038684Y-69715017D01*
X121067941Y-69567932D01*
X121125330Y-69429381D01*
X121208647Y-69304689D01*
X121314689Y-69198647D01*
X121439381Y-69115330D01*
X121577932Y-69057941D01*
X121725017Y-69028684D01*
X121874983Y-69028684D01*
X122022068Y-69057941D01*
G37*
G36*
X180422068Y-69057941D02*
G01*
X180560619Y-69115330D01*
X180685311Y-69198647D01*
X180791353Y-69304689D01*
X180874670Y-69429381D01*
X180932059Y-69567932D01*
X180961316Y-69715017D01*
X180961316Y-69864983D01*
X180932059Y-70012068D01*
X180874670Y-70150619D01*
X180791353Y-70275311D01*
X180685311Y-70381353D01*
X180560619Y-70464670D01*
X180422068Y-70522059D01*
X180274983Y-70551316D01*
X180125017Y-70551316D01*
X179977932Y-70522059D01*
X179839381Y-70464670D01*
X179714689Y-70381353D01*
X179608647Y-70275311D01*
X179525330Y-70150619D01*
X179467941Y-70012068D01*
X179438684Y-69864983D01*
X179438684Y-69715017D01*
X179467941Y-69567932D01*
X179525330Y-69429381D01*
X179608647Y-69304689D01*
X179714689Y-69198647D01*
X179839381Y-69115330D01*
X179977932Y-69057941D01*
X180125017Y-69028684D01*
X180274983Y-69028684D01*
X180422068Y-69057941D01*
G37*
G36*
X182962068Y-69057941D02*
G01*
X183100619Y-69115330D01*
X183225311Y-69198647D01*
X183331353Y-69304689D01*
X183414670Y-69429381D01*
X183472059Y-69567932D01*
X183501316Y-69715017D01*
X183501316Y-69864983D01*
X183472059Y-70012068D01*
X183414670Y-70150619D01*
X183331353Y-70275311D01*
X183225311Y-70381353D01*
X183100619Y-70464670D01*
X182962068Y-70522059D01*
X182814983Y-70551316D01*
X182665017Y-70551316D01*
X182517932Y-70522059D01*
X182379381Y-70464670D01*
X182254689Y-70381353D01*
X182148647Y-70275311D01*
X182065330Y-70150619D01*
X182007941Y-70012068D01*
X181978684Y-69864983D01*
X181978684Y-69715017D01*
X182007941Y-69567932D01*
X182065330Y-69429381D01*
X182148647Y-69304689D01*
X182254689Y-69198647D01*
X182379381Y-69115330D01*
X182517932Y-69057941D01*
X182665017Y-69028684D01*
X182814983Y-69028684D01*
X182962068Y-69057941D01*
G37*
G36*
X162353231Y-68125642D02*
G01*
X162405772Y-68131738D01*
X162423723Y-68139664D01*
X162445671Y-68144030D01*
X162469166Y-68159729D01*
X162490890Y-68169321D01*
X162505726Y-68184157D01*
X162526777Y-68198223D01*
X162540842Y-68219273D01*
X162555678Y-68234109D01*
X162565269Y-68255830D01*
X162580970Y-68279329D01*
X162585335Y-68301277D01*
X162593260Y-68319224D01*
X162599352Y-68371747D01*
X162600000Y-68375000D01*
X162600000Y-68925000D01*
X162599354Y-68928243D01*
X162593261Y-68980772D01*
X162585336Y-68998719D01*
X162580970Y-69020671D01*
X162565267Y-69044171D01*
X162555678Y-69065890D01*
X162540844Y-69080723D01*
X162526777Y-69101777D01*
X162505723Y-69115844D01*
X162490890Y-69130678D01*
X162469170Y-69140267D01*
X162445671Y-69155970D01*
X162423720Y-69160336D01*
X162405775Y-69168260D01*
X162353254Y-69174352D01*
X162350000Y-69175000D01*
X161650000Y-69175000D01*
X161646758Y-69174355D01*
X161594227Y-69168261D01*
X161576278Y-69160335D01*
X161554329Y-69155970D01*
X161530830Y-69140268D01*
X161509109Y-69130678D01*
X161494273Y-69115842D01*
X161473223Y-69101777D01*
X161459157Y-69080726D01*
X161444321Y-69065890D01*
X161434729Y-69044166D01*
X161419030Y-69020671D01*
X161414664Y-68998724D01*
X161406739Y-68980775D01*
X161400644Y-68928242D01*
X161400000Y-68925000D01*
X161400000Y-68375000D01*
X161400642Y-68371770D01*
X161406738Y-68319227D01*
X161414664Y-68301274D01*
X161419030Y-68279329D01*
X161434728Y-68255835D01*
X161444321Y-68234109D01*
X161459159Y-68219270D01*
X161473223Y-68198223D01*
X161494270Y-68184159D01*
X161509109Y-68169321D01*
X161530835Y-68159727D01*
X161554329Y-68144030D01*
X161576273Y-68139665D01*
X161594224Y-68131739D01*
X161646759Y-68125644D01*
X161650000Y-68125000D01*
X162350000Y-68125000D01*
X162353231Y-68125642D01*
G37*
G36*
X164853231Y-68025642D02*
G01*
X164905772Y-68031738D01*
X164923723Y-68039664D01*
X164945671Y-68044030D01*
X164969166Y-68059729D01*
X164990890Y-68069321D01*
X165005726Y-68084157D01*
X165026777Y-68098223D01*
X165040842Y-68119273D01*
X165055678Y-68134109D01*
X165065269Y-68155830D01*
X165080970Y-68179329D01*
X165085335Y-68201277D01*
X165093260Y-68219224D01*
X165099352Y-68271747D01*
X165100000Y-68275000D01*
X165100000Y-68825000D01*
X165099354Y-68828243D01*
X165093261Y-68880772D01*
X165085336Y-68898719D01*
X165080970Y-68920671D01*
X165065267Y-68944171D01*
X165055678Y-68965890D01*
X165040844Y-68980723D01*
X165026777Y-69001777D01*
X165005723Y-69015844D01*
X164990890Y-69030678D01*
X164969170Y-69040267D01*
X164945671Y-69055970D01*
X164923720Y-69060336D01*
X164905775Y-69068260D01*
X164853254Y-69074352D01*
X164850000Y-69075000D01*
X164150000Y-69075000D01*
X164146758Y-69074355D01*
X164094227Y-69068261D01*
X164076278Y-69060335D01*
X164054329Y-69055970D01*
X164030830Y-69040268D01*
X164009109Y-69030678D01*
X163994273Y-69015842D01*
X163973223Y-69001777D01*
X163959157Y-68980726D01*
X163944321Y-68965890D01*
X163934729Y-68944166D01*
X163919030Y-68920671D01*
X163914664Y-68898724D01*
X163906739Y-68880775D01*
X163900644Y-68828242D01*
X163900000Y-68825000D01*
X163900000Y-68275000D01*
X163900642Y-68271770D01*
X163906738Y-68219227D01*
X163914664Y-68201274D01*
X163919030Y-68179329D01*
X163934728Y-68155835D01*
X163944321Y-68134109D01*
X163959159Y-68119270D01*
X163973223Y-68098223D01*
X163994270Y-68084159D01*
X164009109Y-68069321D01*
X164030835Y-68059727D01*
X164054329Y-68044030D01*
X164076273Y-68039665D01*
X164094224Y-68031739D01*
X164146759Y-68025644D01*
X164150000Y-68025000D01*
X164850000Y-68025000D01*
X164853231Y-68025642D01*
G37*
G36*
X119482068Y-66517941D02*
G01*
X119620619Y-66575330D01*
X119745311Y-66658647D01*
X119851353Y-66764689D01*
X119934670Y-66889381D01*
X119992059Y-67027932D01*
X120021316Y-67175017D01*
X120021316Y-67324983D01*
X119992059Y-67472068D01*
X119934670Y-67610619D01*
X119851353Y-67735311D01*
X119745311Y-67841353D01*
X119620619Y-67924670D01*
X119482068Y-67982059D01*
X119334983Y-68011316D01*
X119185017Y-68011316D01*
X119037932Y-67982059D01*
X118899381Y-67924670D01*
X118774689Y-67841353D01*
X118668647Y-67735311D01*
X118585330Y-67610619D01*
X118527941Y-67472068D01*
X118498684Y-67324983D01*
X118498684Y-67175017D01*
X118527941Y-67027932D01*
X118585330Y-66889381D01*
X118668647Y-66764689D01*
X118774689Y-66658647D01*
X118899381Y-66575330D01*
X119037932Y-66517941D01*
X119185017Y-66488684D01*
X119334983Y-66488684D01*
X119482068Y-66517941D01*
G37*
G36*
X122022068Y-66517941D02*
G01*
X122160619Y-66575330D01*
X122285311Y-66658647D01*
X122391353Y-66764689D01*
X122474670Y-66889381D01*
X122532059Y-67027932D01*
X122561316Y-67175017D01*
X122561316Y-67324983D01*
X122532059Y-67472068D01*
X122474670Y-67610619D01*
X122391353Y-67735311D01*
X122285311Y-67841353D01*
X122160619Y-67924670D01*
X122022068Y-67982059D01*
X121874983Y-68011316D01*
X121725017Y-68011316D01*
X121577932Y-67982059D01*
X121439381Y-67924670D01*
X121314689Y-67841353D01*
X121208647Y-67735311D01*
X121125330Y-67610619D01*
X121067941Y-67472068D01*
X121038684Y-67324983D01*
X121038684Y-67175017D01*
X121067941Y-67027932D01*
X121125330Y-66889381D01*
X121208647Y-66764689D01*
X121314689Y-66658647D01*
X121439381Y-66575330D01*
X121577932Y-66517941D01*
X121725017Y-66488684D01*
X121874983Y-66488684D01*
X122022068Y-66517941D01*
G37*
G36*
X180422068Y-66517941D02*
G01*
X180560619Y-66575330D01*
X180685311Y-66658647D01*
X180791353Y-66764689D01*
X180874670Y-66889381D01*
X180932059Y-67027932D01*
X180961316Y-67175017D01*
X180961316Y-67324983D01*
X180932059Y-67472068D01*
X180874670Y-67610619D01*
X180791353Y-67735311D01*
X180685311Y-67841353D01*
X180560619Y-67924670D01*
X180422068Y-67982059D01*
X180274983Y-68011316D01*
X180125017Y-68011316D01*
X179977932Y-67982059D01*
X179839381Y-67924670D01*
X179714689Y-67841353D01*
X179608647Y-67735311D01*
X179525330Y-67610619D01*
X179467941Y-67472068D01*
X179438684Y-67324983D01*
X179438684Y-67175017D01*
X179467941Y-67027932D01*
X179525330Y-66889381D01*
X179608647Y-66764689D01*
X179714689Y-66658647D01*
X179839381Y-66575330D01*
X179977932Y-66517941D01*
X180125017Y-66488684D01*
X180274983Y-66488684D01*
X180422068Y-66517941D01*
G37*
G36*
X182962068Y-66517941D02*
G01*
X183100619Y-66575330D01*
X183225311Y-66658647D01*
X183331353Y-66764689D01*
X183414670Y-66889381D01*
X183472059Y-67027932D01*
X183501316Y-67175017D01*
X183501316Y-67324983D01*
X183472059Y-67472068D01*
X183414670Y-67610619D01*
X183331353Y-67735311D01*
X183225311Y-67841353D01*
X183100619Y-67924670D01*
X182962068Y-67982059D01*
X182814983Y-68011316D01*
X182665017Y-68011316D01*
X182517932Y-67982059D01*
X182379381Y-67924670D01*
X182254689Y-67841353D01*
X182148647Y-67735311D01*
X182065330Y-67610619D01*
X182007941Y-67472068D01*
X181978684Y-67324983D01*
X181978684Y-67175017D01*
X182007941Y-67027932D01*
X182065330Y-66889381D01*
X182148647Y-66764689D01*
X182254689Y-66658647D01*
X182379381Y-66575330D01*
X182517932Y-66517941D01*
X182665017Y-66488684D01*
X182814983Y-66488684D01*
X182962068Y-66517941D01*
G37*
G36*
X162353231Y-65825642D02*
G01*
X162405772Y-65831738D01*
X162423723Y-65839664D01*
X162445671Y-65844030D01*
X162469166Y-65859729D01*
X162490890Y-65869321D01*
X162505726Y-65884157D01*
X162526777Y-65898223D01*
X162540842Y-65919273D01*
X162555678Y-65934109D01*
X162565269Y-65955830D01*
X162580970Y-65979329D01*
X162585335Y-66001277D01*
X162593260Y-66019224D01*
X162599352Y-66071747D01*
X162600000Y-66075000D01*
X162600000Y-66625000D01*
X162599354Y-66628243D01*
X162593261Y-66680772D01*
X162585336Y-66698719D01*
X162580970Y-66720671D01*
X162565267Y-66744171D01*
X162555678Y-66765890D01*
X162540844Y-66780723D01*
X162526777Y-66801777D01*
X162505723Y-66815844D01*
X162490890Y-66830678D01*
X162469170Y-66840267D01*
X162445671Y-66855970D01*
X162423720Y-66860336D01*
X162405775Y-66868260D01*
X162353254Y-66874352D01*
X162350000Y-66875000D01*
X161650000Y-66875000D01*
X161646758Y-66874355D01*
X161594227Y-66868261D01*
X161576278Y-66860335D01*
X161554329Y-66855970D01*
X161530830Y-66840268D01*
X161509109Y-66830678D01*
X161494273Y-66815842D01*
X161473223Y-66801777D01*
X161459157Y-66780726D01*
X161444321Y-66765890D01*
X161434729Y-66744166D01*
X161419030Y-66720671D01*
X161414664Y-66698724D01*
X161406739Y-66680775D01*
X161400644Y-66628242D01*
X161400000Y-66625000D01*
X161400000Y-66075000D01*
X161400642Y-66071770D01*
X161406738Y-66019227D01*
X161414664Y-66001274D01*
X161419030Y-65979329D01*
X161434728Y-65955835D01*
X161444321Y-65934109D01*
X161459159Y-65919270D01*
X161473223Y-65898223D01*
X161494270Y-65884159D01*
X161509109Y-65869321D01*
X161530835Y-65859727D01*
X161554329Y-65844030D01*
X161576273Y-65839665D01*
X161594224Y-65831739D01*
X161646759Y-65825644D01*
X161650000Y-65825000D01*
X162350000Y-65825000D01*
X162353231Y-65825642D01*
G37*
G36*
X164853231Y-65725642D02*
G01*
X164905772Y-65731738D01*
X164923723Y-65739664D01*
X164945671Y-65744030D01*
X164969166Y-65759729D01*
X164990890Y-65769321D01*
X165005726Y-65784157D01*
X165026777Y-65798223D01*
X165040842Y-65819273D01*
X165055678Y-65834109D01*
X165065269Y-65855830D01*
X165080970Y-65879329D01*
X165085335Y-65901277D01*
X165093260Y-65919224D01*
X165099352Y-65971747D01*
X165100000Y-65975000D01*
X165100000Y-66525000D01*
X165099354Y-66528243D01*
X165093261Y-66580772D01*
X165085336Y-66598719D01*
X165080970Y-66620671D01*
X165065267Y-66644171D01*
X165055678Y-66665890D01*
X165040844Y-66680723D01*
X165026777Y-66701777D01*
X165005723Y-66715844D01*
X164990890Y-66730678D01*
X164969170Y-66740267D01*
X164945671Y-66755970D01*
X164923720Y-66760336D01*
X164905775Y-66768260D01*
X164853254Y-66774352D01*
X164850000Y-66775000D01*
X164150000Y-66775000D01*
X164146758Y-66774355D01*
X164094227Y-66768261D01*
X164076278Y-66760335D01*
X164054329Y-66755970D01*
X164030830Y-66740268D01*
X164009109Y-66730678D01*
X163994273Y-66715842D01*
X163973223Y-66701777D01*
X163959157Y-66680726D01*
X163944321Y-66665890D01*
X163934729Y-66644166D01*
X163919030Y-66620671D01*
X163914664Y-66598724D01*
X163906739Y-66580775D01*
X163900644Y-66528242D01*
X163900000Y-66525000D01*
X163900000Y-65975000D01*
X163900642Y-65971770D01*
X163906738Y-65919227D01*
X163914664Y-65901274D01*
X163919030Y-65879329D01*
X163934728Y-65855835D01*
X163944321Y-65834109D01*
X163959159Y-65819270D01*
X163973223Y-65798223D01*
X163994270Y-65784159D01*
X164009109Y-65769321D01*
X164030835Y-65759727D01*
X164054329Y-65744030D01*
X164076273Y-65739665D01*
X164094224Y-65731739D01*
X164146759Y-65725644D01*
X164150000Y-65725000D01*
X164850000Y-65725000D01*
X164853231Y-65725642D01*
G37*
G36*
X119482068Y-63977941D02*
G01*
X119620619Y-64035330D01*
X119745311Y-64118647D01*
X119851353Y-64224689D01*
X119934670Y-64349381D01*
X119992059Y-64487932D01*
X120021316Y-64635017D01*
X120021316Y-64784983D01*
X119992059Y-64932068D01*
X119934670Y-65070619D01*
X119851353Y-65195311D01*
X119745311Y-65301353D01*
X119620619Y-65384670D01*
X119482068Y-65442059D01*
X119334983Y-65471316D01*
X119185017Y-65471316D01*
X119037932Y-65442059D01*
X118899381Y-65384670D01*
X118774689Y-65301353D01*
X118668647Y-65195311D01*
X118585330Y-65070619D01*
X118527941Y-64932068D01*
X118498684Y-64784983D01*
X118498684Y-64635017D01*
X118527941Y-64487932D01*
X118585330Y-64349381D01*
X118668647Y-64224689D01*
X118774689Y-64118647D01*
X118899381Y-64035330D01*
X119037932Y-63977941D01*
X119185017Y-63948684D01*
X119334983Y-63948684D01*
X119482068Y-63977941D01*
G37*
G36*
X122022068Y-63977941D02*
G01*
X122160619Y-64035330D01*
X122285311Y-64118647D01*
X122391353Y-64224689D01*
X122474670Y-64349381D01*
X122532059Y-64487932D01*
X122561316Y-64635017D01*
X122561316Y-64784983D01*
X122532059Y-64932068D01*
X122474670Y-65070619D01*
X122391353Y-65195311D01*
X122285311Y-65301353D01*
X122160619Y-65384670D01*
X122022068Y-65442059D01*
X121874983Y-65471316D01*
X121725017Y-65471316D01*
X121577932Y-65442059D01*
X121439381Y-65384670D01*
X121314689Y-65301353D01*
X121208647Y-65195311D01*
X121125330Y-65070619D01*
X121067941Y-64932068D01*
X121038684Y-64784983D01*
X121038684Y-64635017D01*
X121067941Y-64487932D01*
X121125330Y-64349381D01*
X121208647Y-64224689D01*
X121314689Y-64118647D01*
X121439381Y-64035330D01*
X121577932Y-63977941D01*
X121725017Y-63948684D01*
X121874983Y-63948684D01*
X122022068Y-63977941D01*
G37*
G36*
X180422068Y-63977941D02*
G01*
X180560619Y-64035330D01*
X180685311Y-64118647D01*
X180791353Y-64224689D01*
X180874670Y-64349381D01*
X180932059Y-64487932D01*
X180961316Y-64635017D01*
X180961316Y-64784983D01*
X180932059Y-64932068D01*
X180874670Y-65070619D01*
X180791353Y-65195311D01*
X180685311Y-65301353D01*
X180560619Y-65384670D01*
X180422068Y-65442059D01*
X180274983Y-65471316D01*
X180125017Y-65471316D01*
X179977932Y-65442059D01*
X179839381Y-65384670D01*
X179714689Y-65301353D01*
X179608647Y-65195311D01*
X179525330Y-65070619D01*
X179467941Y-64932068D01*
X179438684Y-64784983D01*
X179438684Y-64635017D01*
X179467941Y-64487932D01*
X179525330Y-64349381D01*
X179608647Y-64224689D01*
X179714689Y-64118647D01*
X179839381Y-64035330D01*
X179977932Y-63977941D01*
X180125017Y-63948684D01*
X180274983Y-63948684D01*
X180422068Y-63977941D01*
G37*
G36*
X182962068Y-63977941D02*
G01*
X183100619Y-64035330D01*
X183225311Y-64118647D01*
X183331353Y-64224689D01*
X183414670Y-64349381D01*
X183472059Y-64487932D01*
X183501316Y-64635017D01*
X183501316Y-64784983D01*
X183472059Y-64932068D01*
X183414670Y-65070619D01*
X183331353Y-65195311D01*
X183225311Y-65301353D01*
X183100619Y-65384670D01*
X182962068Y-65442059D01*
X182814983Y-65471316D01*
X182665017Y-65471316D01*
X182517932Y-65442059D01*
X182379381Y-65384670D01*
X182254689Y-65301353D01*
X182148647Y-65195311D01*
X182065330Y-65070619D01*
X182007941Y-64932068D01*
X181978684Y-64784983D01*
X181978684Y-64635017D01*
X182007941Y-64487932D01*
X182065330Y-64349381D01*
X182148647Y-64224689D01*
X182254689Y-64118647D01*
X182379381Y-64035330D01*
X182517932Y-63977941D01*
X182665017Y-63948684D01*
X182814983Y-63948684D01*
X182962068Y-63977941D01*
G37*
G36*
X164803231Y-63425642D02*
G01*
X164855772Y-63431738D01*
X164873723Y-63439664D01*
X164895671Y-63444030D01*
X164919166Y-63459729D01*
X164940890Y-63469321D01*
X164955726Y-63484157D01*
X164976777Y-63498223D01*
X164990842Y-63519273D01*
X165005678Y-63534109D01*
X165015269Y-63555830D01*
X165030970Y-63579329D01*
X165035335Y-63601277D01*
X165043260Y-63619224D01*
X165049352Y-63671747D01*
X165050000Y-63675000D01*
X165050000Y-64625000D01*
X165049354Y-64628243D01*
X165043261Y-64680772D01*
X165035336Y-64698719D01*
X165030970Y-64720671D01*
X165015267Y-64744171D01*
X165005678Y-64765890D01*
X164990844Y-64780723D01*
X164976777Y-64801777D01*
X164955723Y-64815844D01*
X164940890Y-64830678D01*
X164919170Y-64840267D01*
X164895671Y-64855970D01*
X164873720Y-64860336D01*
X164855775Y-64868260D01*
X164803254Y-64874352D01*
X164800000Y-64875000D01*
X164125000Y-64875000D01*
X164121758Y-64874355D01*
X164069227Y-64868261D01*
X164051278Y-64860335D01*
X164029329Y-64855970D01*
X164005830Y-64840268D01*
X163984109Y-64830678D01*
X163969273Y-64815842D01*
X163948223Y-64801777D01*
X163934157Y-64780726D01*
X163919321Y-64765890D01*
X163909729Y-64744166D01*
X163894030Y-64720671D01*
X163889664Y-64698724D01*
X163881739Y-64680775D01*
X163875644Y-64628242D01*
X163875000Y-64625000D01*
X163875000Y-63675000D01*
X163875642Y-63671770D01*
X163881738Y-63619227D01*
X163889664Y-63601274D01*
X163894030Y-63579329D01*
X163909728Y-63555835D01*
X163919321Y-63534109D01*
X163934159Y-63519270D01*
X163948223Y-63498223D01*
X163969270Y-63484159D01*
X163984109Y-63469321D01*
X164005835Y-63459727D01*
X164029329Y-63444030D01*
X164051273Y-63439665D01*
X164069224Y-63431739D01*
X164121759Y-63425644D01*
X164125000Y-63425000D01*
X164800000Y-63425000D01*
X164803231Y-63425642D01*
G37*
G36*
X166878231Y-63425642D02*
G01*
X166930772Y-63431738D01*
X166948723Y-63439664D01*
X166970671Y-63444030D01*
X166994166Y-63459729D01*
X167015890Y-63469321D01*
X167030726Y-63484157D01*
X167051777Y-63498223D01*
X167065842Y-63519273D01*
X167080678Y-63534109D01*
X167090269Y-63555830D01*
X167105970Y-63579329D01*
X167110335Y-63601277D01*
X167118260Y-63619224D01*
X167124352Y-63671747D01*
X167125000Y-63675000D01*
X167125000Y-64625000D01*
X167124354Y-64628243D01*
X167118261Y-64680772D01*
X167110336Y-64698719D01*
X167105970Y-64720671D01*
X167090267Y-64744171D01*
X167080678Y-64765890D01*
X167065844Y-64780723D01*
X167051777Y-64801777D01*
X167030723Y-64815844D01*
X167015890Y-64830678D01*
X166994170Y-64840267D01*
X166970671Y-64855970D01*
X166948720Y-64860336D01*
X166930775Y-64868260D01*
X166878254Y-64874352D01*
X166875000Y-64875000D01*
X166200000Y-64875000D01*
X166196758Y-64874355D01*
X166144227Y-64868261D01*
X166126278Y-64860335D01*
X166104329Y-64855970D01*
X166080830Y-64840268D01*
X166059109Y-64830678D01*
X166044273Y-64815842D01*
X166023223Y-64801777D01*
X166009157Y-64780726D01*
X165994321Y-64765890D01*
X165984729Y-64744166D01*
X165969030Y-64720671D01*
X165964664Y-64698724D01*
X165956739Y-64680775D01*
X165950644Y-64628242D01*
X165950000Y-64625000D01*
X165950000Y-63675000D01*
X165950642Y-63671770D01*
X165956738Y-63619227D01*
X165964664Y-63601274D01*
X165969030Y-63579329D01*
X165984728Y-63555835D01*
X165994321Y-63534109D01*
X166009159Y-63519270D01*
X166023223Y-63498223D01*
X166044270Y-63484159D01*
X166059109Y-63469321D01*
X166080835Y-63459727D01*
X166104329Y-63444030D01*
X166126273Y-63439665D01*
X166144224Y-63431739D01*
X166196759Y-63425644D01*
X166200000Y-63425000D01*
X166875000Y-63425000D01*
X166878231Y-63425642D01*
G37*
G36*
X160440730Y-63775642D02*
G01*
X160490412Y-63781406D01*
X160507389Y-63788902D01*
X160528387Y-63793079D01*
X160550867Y-63808099D01*
X160571326Y-63817133D01*
X160585298Y-63831105D01*
X160605438Y-63844562D01*
X160618894Y-63864701D01*
X160632866Y-63878673D01*
X160641899Y-63899130D01*
X160656921Y-63921613D01*
X160661098Y-63942611D01*
X160668592Y-63959584D01*
X160674353Y-64009247D01*
X160675000Y-64012500D01*
X160675000Y-64487500D01*
X160674354Y-64490742D01*
X160668593Y-64540412D01*
X160661098Y-64557385D01*
X160656921Y-64578387D01*
X160641897Y-64600871D01*
X160632866Y-64621326D01*
X160618896Y-64635295D01*
X160605438Y-64655438D01*
X160585295Y-64668896D01*
X160571326Y-64682866D01*
X160550871Y-64691897D01*
X160528387Y-64706921D01*
X160507386Y-64711098D01*
X160490415Y-64718592D01*
X160440753Y-64724352D01*
X160437500Y-64725000D01*
X159837500Y-64725000D01*
X159834258Y-64724355D01*
X159784587Y-64718593D01*
X159767613Y-64711098D01*
X159746613Y-64706921D01*
X159724130Y-64691898D01*
X159703673Y-64682866D01*
X159689701Y-64668894D01*
X159669562Y-64655438D01*
X159656105Y-64635298D01*
X159642133Y-64621326D01*
X159633099Y-64600866D01*
X159618079Y-64578387D01*
X159613902Y-64557390D01*
X159606407Y-64540415D01*
X159600644Y-64490741D01*
X159600000Y-64487500D01*
X159600000Y-64012500D01*
X159600642Y-64009270D01*
X159606406Y-63959587D01*
X159613902Y-63942608D01*
X159618079Y-63921613D01*
X159633098Y-63899134D01*
X159642133Y-63878673D01*
X159656107Y-63864698D01*
X159669562Y-63844562D01*
X159689698Y-63831107D01*
X159703673Y-63817133D01*
X159724135Y-63808098D01*
X159746613Y-63793079D01*
X159767607Y-63788902D01*
X159784584Y-63781407D01*
X159834259Y-63775644D01*
X159837500Y-63775000D01*
X160437500Y-63775000D01*
X160440730Y-63775642D01*
G37*
G36*
X162165730Y-63775642D02*
G01*
X162215412Y-63781406D01*
X162232389Y-63788902D01*
X162253387Y-63793079D01*
X162275867Y-63808099D01*
X162296326Y-63817133D01*
X162310298Y-63831105D01*
X162330438Y-63844562D01*
X162343894Y-63864701D01*
X162357866Y-63878673D01*
X162366899Y-63899130D01*
X162381921Y-63921613D01*
X162386098Y-63942611D01*
X162393592Y-63959584D01*
X162399353Y-64009247D01*
X162400000Y-64012500D01*
X162400000Y-64487500D01*
X162399354Y-64490742D01*
X162393593Y-64540412D01*
X162386098Y-64557385D01*
X162381921Y-64578387D01*
X162366897Y-64600871D01*
X162357866Y-64621326D01*
X162343896Y-64635295D01*
X162330438Y-64655438D01*
X162310295Y-64668896D01*
X162296326Y-64682866D01*
X162275871Y-64691897D01*
X162253387Y-64706921D01*
X162232386Y-64711098D01*
X162215415Y-64718592D01*
X162165753Y-64724352D01*
X162162500Y-64725000D01*
X161562500Y-64725000D01*
X161559258Y-64724355D01*
X161509587Y-64718593D01*
X161492613Y-64711098D01*
X161471613Y-64706921D01*
X161449130Y-64691898D01*
X161428673Y-64682866D01*
X161414701Y-64668894D01*
X161394562Y-64655438D01*
X161381105Y-64635298D01*
X161367133Y-64621326D01*
X161358099Y-64600866D01*
X161343079Y-64578387D01*
X161338902Y-64557390D01*
X161331407Y-64540415D01*
X161325644Y-64490741D01*
X161325000Y-64487500D01*
X161325000Y-64012500D01*
X161325642Y-64009270D01*
X161331406Y-63959587D01*
X161338902Y-63942608D01*
X161343079Y-63921613D01*
X161358098Y-63899134D01*
X161367133Y-63878673D01*
X161381107Y-63864698D01*
X161394562Y-63844562D01*
X161414698Y-63831107D01*
X161428673Y-63817133D01*
X161449135Y-63808098D01*
X161471613Y-63793079D01*
X161492607Y-63788902D01*
X161509584Y-63781407D01*
X161559259Y-63775644D01*
X161562500Y-63775000D01*
X162162500Y-63775000D01*
X162165730Y-63775642D01*
G37*
G36*
X119482068Y-61437941D02*
G01*
X119620619Y-61495330D01*
X119745311Y-61578647D01*
X119851353Y-61684689D01*
X119934670Y-61809381D01*
X119992059Y-61947932D01*
X120021316Y-62095017D01*
X120021316Y-62244983D01*
X119992059Y-62392068D01*
X119934670Y-62530619D01*
X119851353Y-62655311D01*
X119745311Y-62761353D01*
X119620619Y-62844670D01*
X119482068Y-62902059D01*
X119334983Y-62931316D01*
X119185017Y-62931316D01*
X119037932Y-62902059D01*
X118899381Y-62844670D01*
X118774689Y-62761353D01*
X118668647Y-62655311D01*
X118585330Y-62530619D01*
X118527941Y-62392068D01*
X118498684Y-62244983D01*
X118498684Y-62095017D01*
X118527941Y-61947932D01*
X118585330Y-61809381D01*
X118668647Y-61684689D01*
X118774689Y-61578647D01*
X118899381Y-61495330D01*
X119037932Y-61437941D01*
X119185017Y-61408684D01*
X119334983Y-61408684D01*
X119482068Y-61437941D01*
G37*
G36*
X122022068Y-61437941D02*
G01*
X122160619Y-61495330D01*
X122285311Y-61578647D01*
X122391353Y-61684689D01*
X122474670Y-61809381D01*
X122532059Y-61947932D01*
X122561316Y-62095017D01*
X122561316Y-62244983D01*
X122532059Y-62392068D01*
X122474670Y-62530619D01*
X122391353Y-62655311D01*
X122285311Y-62761353D01*
X122160619Y-62844670D01*
X122022068Y-62902059D01*
X121874983Y-62931316D01*
X121725017Y-62931316D01*
X121577932Y-62902059D01*
X121439381Y-62844670D01*
X121314689Y-62761353D01*
X121208647Y-62655311D01*
X121125330Y-62530619D01*
X121067941Y-62392068D01*
X121038684Y-62244983D01*
X121038684Y-62095017D01*
X121067941Y-61947932D01*
X121125330Y-61809381D01*
X121208647Y-61684689D01*
X121314689Y-61578647D01*
X121439381Y-61495330D01*
X121577932Y-61437941D01*
X121725017Y-61408684D01*
X121874983Y-61408684D01*
X122022068Y-61437941D01*
G37*
G36*
X180422068Y-61437941D02*
G01*
X180560619Y-61495330D01*
X180685311Y-61578647D01*
X180791353Y-61684689D01*
X180874670Y-61809381D01*
X180932059Y-61947932D01*
X180961316Y-62095017D01*
X180961316Y-62244983D01*
X180932059Y-62392068D01*
X180874670Y-62530619D01*
X180791353Y-62655311D01*
X180685311Y-62761353D01*
X180560619Y-62844670D01*
X180422068Y-62902059D01*
X180274983Y-62931316D01*
X180125017Y-62931316D01*
X179977932Y-62902059D01*
X179839381Y-62844670D01*
X179714689Y-62761353D01*
X179608647Y-62655311D01*
X179525330Y-62530619D01*
X179467941Y-62392068D01*
X179438684Y-62244983D01*
X179438684Y-62095017D01*
X179467941Y-61947932D01*
X179525330Y-61809381D01*
X179608647Y-61684689D01*
X179714689Y-61578647D01*
X179839381Y-61495330D01*
X179977932Y-61437941D01*
X180125017Y-61408684D01*
X180274983Y-61408684D01*
X180422068Y-61437941D01*
G37*
G36*
X182962068Y-61437941D02*
G01*
X183100619Y-61495330D01*
X183225311Y-61578647D01*
X183331353Y-61684689D01*
X183414670Y-61809381D01*
X183472059Y-61947932D01*
X183501316Y-62095017D01*
X183501316Y-62244983D01*
X183472059Y-62392068D01*
X183414670Y-62530619D01*
X183331353Y-62655311D01*
X183225311Y-62761353D01*
X183100619Y-62844670D01*
X182962068Y-62902059D01*
X182814983Y-62931316D01*
X182665017Y-62931316D01*
X182517932Y-62902059D01*
X182379381Y-62844670D01*
X182254689Y-62761353D01*
X182148647Y-62655311D01*
X182065330Y-62530619D01*
X182007941Y-62392068D01*
X181978684Y-62244983D01*
X181978684Y-62095017D01*
X182007941Y-61947932D01*
X182065330Y-61809381D01*
X182148647Y-61684689D01*
X182254689Y-61578647D01*
X182379381Y-61495330D01*
X182517932Y-61437941D01*
X182665017Y-61408684D01*
X182814983Y-61408684D01*
X182962068Y-61437941D01*
G37*
G36*
X119482068Y-58897941D02*
G01*
X119620619Y-58955330D01*
X119745311Y-59038647D01*
X119851353Y-59144689D01*
X119934670Y-59269381D01*
X119992059Y-59407932D01*
X120021316Y-59555017D01*
X120021316Y-59704983D01*
X119992059Y-59852068D01*
X119934670Y-59990619D01*
X119851353Y-60115311D01*
X119745311Y-60221353D01*
X119620619Y-60304670D01*
X119482068Y-60362059D01*
X119334983Y-60391316D01*
X119185017Y-60391316D01*
X119037932Y-60362059D01*
X118899381Y-60304670D01*
X118774689Y-60221353D01*
X118668647Y-60115311D01*
X118585330Y-59990619D01*
X118527941Y-59852068D01*
X118498684Y-59704983D01*
X118498684Y-59555017D01*
X118527941Y-59407932D01*
X118585330Y-59269381D01*
X118668647Y-59144689D01*
X118774689Y-59038647D01*
X118899381Y-58955330D01*
X119037932Y-58897941D01*
X119185017Y-58868684D01*
X119334983Y-58868684D01*
X119482068Y-58897941D01*
G37*
G36*
X122022068Y-58897941D02*
G01*
X122160619Y-58955330D01*
X122285311Y-59038647D01*
X122391353Y-59144689D01*
X122474670Y-59269381D01*
X122532059Y-59407932D01*
X122561316Y-59555017D01*
X122561316Y-59704983D01*
X122532059Y-59852068D01*
X122474670Y-59990619D01*
X122391353Y-60115311D01*
X122285311Y-60221353D01*
X122160619Y-60304670D01*
X122022068Y-60362059D01*
X121874983Y-60391316D01*
X121725017Y-60391316D01*
X121577932Y-60362059D01*
X121439381Y-60304670D01*
X121314689Y-60221353D01*
X121208647Y-60115311D01*
X121125330Y-59990619D01*
X121067941Y-59852068D01*
X121038684Y-59704983D01*
X121038684Y-59555017D01*
X121067941Y-59407932D01*
X121125330Y-59269381D01*
X121208647Y-59144689D01*
X121314689Y-59038647D01*
X121439381Y-58955330D01*
X121577932Y-58897941D01*
X121725017Y-58868684D01*
X121874983Y-58868684D01*
X122022068Y-58897941D01*
G37*
G36*
X180422068Y-58897941D02*
G01*
X180560619Y-58955330D01*
X180685311Y-59038647D01*
X180791353Y-59144689D01*
X180874670Y-59269381D01*
X180932059Y-59407932D01*
X180961316Y-59555017D01*
X180961316Y-59704983D01*
X180932059Y-59852068D01*
X180874670Y-59990619D01*
X180791353Y-60115311D01*
X180685311Y-60221353D01*
X180560619Y-60304670D01*
X180422068Y-60362059D01*
X180274983Y-60391316D01*
X180125017Y-60391316D01*
X179977932Y-60362059D01*
X179839381Y-60304670D01*
X179714689Y-60221353D01*
X179608647Y-60115311D01*
X179525330Y-59990619D01*
X179467941Y-59852068D01*
X179438684Y-59704983D01*
X179438684Y-59555017D01*
X179467941Y-59407932D01*
X179525330Y-59269381D01*
X179608647Y-59144689D01*
X179714689Y-59038647D01*
X179839381Y-58955330D01*
X179977932Y-58897941D01*
X180125017Y-58868684D01*
X180274983Y-58868684D01*
X180422068Y-58897941D01*
G37*
G36*
X182962068Y-58897941D02*
G01*
X183100619Y-58955330D01*
X183225311Y-59038647D01*
X183331353Y-59144689D01*
X183414670Y-59269381D01*
X183472059Y-59407932D01*
X183501316Y-59555017D01*
X183501316Y-59704983D01*
X183472059Y-59852068D01*
X183414670Y-59990619D01*
X183331353Y-60115311D01*
X183225311Y-60221353D01*
X183100619Y-60304670D01*
X182962068Y-60362059D01*
X182814983Y-60391316D01*
X182665017Y-60391316D01*
X182517932Y-60362059D01*
X182379381Y-60304670D01*
X182254689Y-60221353D01*
X182148647Y-60115311D01*
X182065330Y-59990619D01*
X182007941Y-59852068D01*
X181978684Y-59704983D01*
X181978684Y-59555017D01*
X182007941Y-59407932D01*
X182065330Y-59269381D01*
X182148647Y-59144689D01*
X182254689Y-59038647D01*
X182379381Y-58955330D01*
X182517932Y-58897941D01*
X182665017Y-58868684D01*
X182814983Y-58868684D01*
X182962068Y-58897941D01*
G37*
G36*
X119482068Y-56357941D02*
G01*
X119620619Y-56415330D01*
X119745311Y-56498647D01*
X119851353Y-56604689D01*
X119934670Y-56729381D01*
X119992059Y-56867932D01*
X120021316Y-57015017D01*
X120021316Y-57164983D01*
X119992059Y-57312068D01*
X119934670Y-57450619D01*
X119851353Y-57575311D01*
X119745311Y-57681353D01*
X119620619Y-57764670D01*
X119482068Y-57822059D01*
X119334983Y-57851316D01*
X119185017Y-57851316D01*
X119037932Y-57822059D01*
X118899381Y-57764670D01*
X118774689Y-57681353D01*
X118668647Y-57575311D01*
X118585330Y-57450619D01*
X118527941Y-57312068D01*
X118498684Y-57164983D01*
X118498684Y-57015017D01*
X118527941Y-56867932D01*
X118585330Y-56729381D01*
X118668647Y-56604689D01*
X118774689Y-56498647D01*
X118899381Y-56415330D01*
X119037932Y-56357941D01*
X119185017Y-56328684D01*
X119334983Y-56328684D01*
X119482068Y-56357941D01*
G37*
G36*
X122022068Y-56357941D02*
G01*
X122160619Y-56415330D01*
X122285311Y-56498647D01*
X122391353Y-56604689D01*
X122474670Y-56729381D01*
X122532059Y-56867932D01*
X122561316Y-57015017D01*
X122561316Y-57164983D01*
X122532059Y-57312068D01*
X122474670Y-57450619D01*
X122391353Y-57575311D01*
X122285311Y-57681353D01*
X122160619Y-57764670D01*
X122022068Y-57822059D01*
X121874983Y-57851316D01*
X121725017Y-57851316D01*
X121577932Y-57822059D01*
X121439381Y-57764670D01*
X121314689Y-57681353D01*
X121208647Y-57575311D01*
X121125330Y-57450619D01*
X121067941Y-57312068D01*
X121038684Y-57164983D01*
X121038684Y-57015017D01*
X121067941Y-56867932D01*
X121125330Y-56729381D01*
X121208647Y-56604689D01*
X121314689Y-56498647D01*
X121439381Y-56415330D01*
X121577932Y-56357941D01*
X121725017Y-56328684D01*
X121874983Y-56328684D01*
X122022068Y-56357941D01*
G37*
G36*
X180422068Y-56357941D02*
G01*
X180560619Y-56415330D01*
X180685311Y-56498647D01*
X180791353Y-56604689D01*
X180874670Y-56729381D01*
X180932059Y-56867932D01*
X180961316Y-57015017D01*
X180961316Y-57164983D01*
X180932059Y-57312068D01*
X180874670Y-57450619D01*
X180791353Y-57575311D01*
X180685311Y-57681353D01*
X180560619Y-57764670D01*
X180422068Y-57822059D01*
X180274983Y-57851316D01*
X180125017Y-57851316D01*
X179977932Y-57822059D01*
X179839381Y-57764670D01*
X179714689Y-57681353D01*
X179608647Y-57575311D01*
X179525330Y-57450619D01*
X179467941Y-57312068D01*
X179438684Y-57164983D01*
X179438684Y-57015017D01*
X179467941Y-56867932D01*
X179525330Y-56729381D01*
X179608647Y-56604689D01*
X179714689Y-56498647D01*
X179839381Y-56415330D01*
X179977932Y-56357941D01*
X180125017Y-56328684D01*
X180274983Y-56328684D01*
X180422068Y-56357941D01*
G37*
G36*
X182962068Y-56357941D02*
G01*
X183100619Y-56415330D01*
X183225311Y-56498647D01*
X183331353Y-56604689D01*
X183414670Y-56729381D01*
X183472059Y-56867932D01*
X183501316Y-57015017D01*
X183501316Y-57164983D01*
X183472059Y-57312068D01*
X183414670Y-57450619D01*
X183331353Y-57575311D01*
X183225311Y-57681353D01*
X183100619Y-57764670D01*
X182962068Y-57822059D01*
X182814983Y-57851316D01*
X182665017Y-57851316D01*
X182517932Y-57822059D01*
X182379381Y-57764670D01*
X182254689Y-57681353D01*
X182148647Y-57575311D01*
X182065330Y-57450619D01*
X182007941Y-57312068D01*
X181978684Y-57164983D01*
X181978684Y-57015017D01*
X182007941Y-56867932D01*
X182065330Y-56729381D01*
X182148647Y-56604689D01*
X182254689Y-56498647D01*
X182379381Y-56415330D01*
X182517932Y-56357941D01*
X182665017Y-56328684D01*
X182814983Y-56328684D01*
X182962068Y-56357941D01*
G37*
G36*
X120025000Y-55315000D02*
G01*
X118495000Y-55315000D01*
X118495000Y-53785000D01*
X120025000Y-53785000D01*
X120025000Y-55315000D01*
G37*
G36*
X180965000Y-55315000D02*
G01*
X179435000Y-55315000D01*
X179435000Y-53785000D01*
X180965000Y-53785000D01*
X180965000Y-55315000D01*
G37*
G36*
X122022068Y-53817941D02*
G01*
X122160619Y-53875330D01*
X122285311Y-53958647D01*
X122391353Y-54064689D01*
X122474670Y-54189381D01*
X122532059Y-54327932D01*
X122561316Y-54475017D01*
X122561316Y-54624983D01*
X122532059Y-54772068D01*
X122474670Y-54910619D01*
X122391353Y-55035311D01*
X122285311Y-55141353D01*
X122160619Y-55224670D01*
X122022068Y-55282059D01*
X121874983Y-55311316D01*
X121725017Y-55311316D01*
X121577932Y-55282059D01*
X121439381Y-55224670D01*
X121314689Y-55141353D01*
X121208647Y-55035311D01*
X121125330Y-54910619D01*
X121067941Y-54772068D01*
X121038684Y-54624983D01*
X121038684Y-54475017D01*
X121067941Y-54327932D01*
X121125330Y-54189381D01*
X121208647Y-54064689D01*
X121314689Y-53958647D01*
X121439381Y-53875330D01*
X121577932Y-53817941D01*
X121725017Y-53788684D01*
X121874983Y-53788684D01*
X122022068Y-53817941D01*
G37*
G36*
X182962068Y-53817941D02*
G01*
X183100619Y-53875330D01*
X183225311Y-53958647D01*
X183331353Y-54064689D01*
X183414670Y-54189381D01*
X183472059Y-54327932D01*
X183501316Y-54475017D01*
X183501316Y-54624983D01*
X183472059Y-54772068D01*
X183414670Y-54910619D01*
X183331353Y-55035311D01*
X183225311Y-55141353D01*
X183100619Y-55224670D01*
X182962068Y-55282059D01*
X182814983Y-55311316D01*
X182665017Y-55311316D01*
X182517932Y-55282059D01*
X182379381Y-55224670D01*
X182254689Y-55141353D01*
X182148647Y-55035311D01*
X182065330Y-54910619D01*
X182007941Y-54772068D01*
X181978684Y-54624983D01*
X181978684Y-54475017D01*
X182007941Y-54327932D01*
X182065330Y-54189381D01*
X182148647Y-54064689D01*
X182254689Y-53958647D01*
X182379381Y-53875330D01*
X182517932Y-53817941D01*
X182665017Y-53788684D01*
X182814983Y-53788684D01*
X182962068Y-53817941D01*
G37*
M02*
