%TF.GenerationSoftware,KiCad,Pcbnew,9.0.7-9.0.7~ubuntu24.04.1*%
%TF.CreationDate,2026-01-13T16:37:34+01:00*%
%TF.ProjectId,can_uart,63616e5f-7561-4727-942e-6b696361645f,1.0*%
%TF.SameCoordinates,Original*%
%TF.FileFunction,Copper,L2,Inr*%
%TF.FilePolarity,Positive*%
%FSLAX46Y46*%
G04 Gerber Fmt 4.6, Leading zero omitted, Abs format (unit mm)*
G04 Created by KiCad (PCBNEW 9.0.7-9.0.7~ubuntu24.04.1) date 2026-01-13 16:37:34*
%MOMM*%
%LPD*%
G01*
G04 APERTURE LIST*
%TA.AperFunction,ComponentPad*%
%ADD10R,1.530000X1.530000*%
%TD*%
%TA.AperFunction,ComponentPad*%
%ADD11C,1.530000*%
%TD*%
%TA.AperFunction,ComponentPad*%
%ADD12R,1.650000X1.650000*%
%TD*%
%TA.AperFunction,ComponentPad*%
%ADD13C,1.650000*%
%TD*%
%TA.AperFunction,ViaPad*%
%ADD14C,0.500000*%
%TD*%
G04 APERTURE END LIST*
D10*
%TO.N,unconnected-(J4-Pin_1-Pad1)*%
%TO.C,J4*%
X180200000Y-54550000D03*
D11*
%TO.N,unconnected-(J4-Pin_2-Pad2)*%
X182740000Y-54550000D03*
%TO.N,CAN_RX*%
X180200000Y-57090000D03*
%TO.N,unconnected-(J4-Pin_4-Pad4)*%
X182740000Y-57090000D03*
%TO.N,CAN_TX*%
X180200000Y-59630000D03*
%TO.N,unconnected-(J4-Pin_6-Pad6)*%
X182740000Y-59630000D03*
%TO.N,unconnected-(J4-Pin_7-Pad7)*%
X180200000Y-62170000D03*
%TO.N,unconnected-(J4-Pin_8-Pad8)*%
X182740000Y-62170000D03*
%TO.N,GND*%
X180200000Y-64710000D03*
%TO.N,unconnected-(J4-Pin_10-Pad10)*%
X182740000Y-64710000D03*
%TO.N,unconnected-(J4-Pin_11-Pad11)*%
X180200000Y-67250000D03*
%TO.N,unconnected-(J4-Pin_12-Pad12)*%
X182740000Y-67250000D03*
%TO.N,unconnected-(J4-Pin_13-Pad13)*%
X180200000Y-69790000D03*
%TO.N,unconnected-(J4-Pin_14-Pad14)*%
X182740000Y-69790000D03*
%TO.N,unconnected-(J4-Pin_15-Pad15)*%
X180200000Y-72330000D03*
%TO.N,unconnected-(J4-Pin_16-Pad16)*%
X182740000Y-72330000D03*
%TO.N,unconnected-(J4-Pin_17-Pad17)*%
X180200000Y-74870000D03*
%TO.N,unconnected-(J4-Pin_18-Pad18)*%
X182740000Y-74870000D03*
%TO.N,unconnected-(J4-Pin_19-Pad19)*%
X180200000Y-77410000D03*
%TO.N,GND*%
X182740000Y-77410000D03*
%TO.N,unconnected-(J4-Pin_21-Pad21)*%
X180200000Y-79950000D03*
%TO.N,unconnected-(J4-Pin_22-Pad22)*%
X182740000Y-79950000D03*
%TO.N,unconnected-(J4-Pin_23-Pad23)*%
X180200000Y-82490000D03*
%TO.N,unconnected-(J4-Pin_24-Pad24)*%
X182740000Y-82490000D03*
%TO.N,unconnected-(J4-Pin_25-Pad25)*%
X180200000Y-85030000D03*
%TO.N,unconnected-(J4-Pin_26-Pad26)*%
X182740000Y-85030000D03*
%TO.N,unconnected-(J4-Pin_27-Pad27)*%
X180200000Y-87570000D03*
%TO.N,unconnected-(J4-Pin_28-Pad28)*%
X182740000Y-87570000D03*
%TO.N,unconnected-(J4-Pin_29-Pad29)*%
X180200000Y-90110000D03*
%TO.N,unconnected-(J4-Pin_30-Pad30)*%
X182740000Y-90110000D03*
%TO.N,unconnected-(J4-Pin_31-Pad31)*%
X180200000Y-92650000D03*
%TO.N,unconnected-(J4-Pin_32-Pad32)*%
X182740000Y-92650000D03*
%TO.N,unconnected-(J4-Pin_33-Pad33)*%
X180200000Y-95190000D03*
%TO.N,unconnected-(J4-Pin_34-Pad34)*%
X182740000Y-95190000D03*
%TO.N,unconnected-(J4-Pin_35-Pad35)*%
X180200000Y-97730000D03*
%TO.N,unconnected-(J4-Pin_36-Pad36)*%
X182740000Y-97730000D03*
%TO.N,unconnected-(J4-Pin_37-Pad37)*%
X180200000Y-100270000D03*
%TO.N,unconnected-(J4-Pin_38-Pad38)*%
X182740000Y-100270000D03*
%TO.N,unconnected-(J4-Pin_39-Pad39)*%
X180200000Y-102810000D03*
%TO.N,unconnected-(J4-Pin_40-Pad40)*%
X182740000Y-102810000D03*
%TO.N,unconnected-(J4-Pin_41-Pad41)*%
X180200000Y-105350000D03*
%TO.N,unconnected-(J4-Pin_42-Pad42)*%
X182740000Y-105350000D03*
%TO.N,unconnected-(J4-Pin_43-Pad43)*%
X180200000Y-107890000D03*
%TO.N,unconnected-(J4-Pin_44-Pad44)*%
X182740000Y-107890000D03*
%TO.N,unconnected-(J4-Pin_45-Pad45)*%
X180200000Y-110430000D03*
%TO.N,unconnected-(J4-Pin_46-Pad46)*%
X182740000Y-110430000D03*
%TD*%
D12*
%TO.N,+3V*%
%TO.C,J1*%
X130900000Y-96400000D03*
D13*
%TO.N,O_UART_TX*%
X133440000Y-96400000D03*
%TO.N,O_UART_RX*%
X135980000Y-96400000D03*
%TD*%
D12*
%TO.N,CAN_N*%
%TO.C,J2*%
X155941000Y-96485251D03*
D13*
%TO.N,CAN_P*%
X158481000Y-96485251D03*
%TD*%
D10*
%TO.N,unconnected-(J3-Pin_1-Pad1)*%
%TO.C,J3*%
X119260000Y-54550000D03*
D11*
%TO.N,unconnected-(J3-Pin_2-Pad2)*%
X121800000Y-54550000D03*
%TO.N,unconnected-(J3-Pin_3-Pad3)*%
X119260000Y-57090000D03*
%TO.N,unconnected-(J3-Pin_4-Pad4)*%
X121800000Y-57090000D03*
%TO.N,unconnected-(J3-Pin_5-Pad5)*%
X119260000Y-59630000D03*
%TO.N,unconnected-(J3-Pin_6-Pad6)*%
X121800000Y-59630000D03*
%TO.N,unconnected-(J3-Pin_7-Pad7)*%
X119260000Y-62170000D03*
%TO.N,unconnected-(J3-Pin_8-Pad8)*%
X121800000Y-62170000D03*
%TO.N,unconnected-(J3-Pin_9-Pad9)*%
X119260000Y-64710000D03*
%TO.N,unconnected-(J3-Pin_10-Pad10)*%
X121800000Y-64710000D03*
%TO.N,unconnected-(J3-Pin_11-Pad11)*%
X119260000Y-67250000D03*
%TO.N,unconnected-(J3-Pin_12-Pad12)*%
X121800000Y-67250000D03*
%TO.N,unconnected-(J3-Pin_13-Pad13)*%
X119260000Y-69790000D03*
%TO.N,unconnected-(J3-Pin_14-Pad14)*%
X121800000Y-69790000D03*
%TO.N,unconnected-(J3-Pin_15-Pad15)*%
X119260000Y-72330000D03*
%TO.N,unconnected-(J3-Pin_16-Pad16)*%
X121800000Y-72330000D03*
%TO.N,unconnected-(J3-Pin_17-Pad17)*%
X119260000Y-74870000D03*
%TO.N,unconnected-(J3-Pin_18-Pad18)*%
X121800000Y-74870000D03*
%TO.N,unconnected-(J3-Pin_19-Pad19)*%
X119260000Y-77410000D03*
%TO.N,GND*%
X121800000Y-77410000D03*
%TO.N,unconnected-(J3-Pin_21-Pad21)*%
X119260000Y-79950000D03*
%TO.N,GND*%
X121800000Y-79950000D03*
%TO.N,unconnected-(J3-Pin_23-Pad23)*%
X119260000Y-82490000D03*
%TO.N,unconnected-(J3-Pin_24-Pad24)*%
X121800000Y-82490000D03*
%TO.N,+3V3*%
X119260000Y-85030000D03*
%TO.N,unconnected-(J3-Pin_26-Pad26)*%
X121800000Y-85030000D03*
%TO.N,+5V*%
X119260000Y-87570000D03*
%TO.N,UART_TX*%
X121800000Y-87570000D03*
%TO.N,unconnected-(J3-Pin_29-Pad29)*%
X119260000Y-90110000D03*
%TO.N,UART_RX*%
X121800000Y-90110000D03*
%TO.N,unconnected-(J3-Pin_31-Pad31)*%
X119260000Y-92650000D03*
%TO.N,unconnected-(J3-Pin_32-Pad32)*%
X121800000Y-92650000D03*
%TO.N,unconnected-(J3-Pin_33-Pad33)*%
X119260000Y-95190000D03*
%TO.N,unconnected-(J3-Pin_34-Pad34)*%
X121800000Y-95190000D03*
%TO.N,unconnected-(J3-Pin_35-Pad35)*%
X119260000Y-97730000D03*
%TO.N,unconnected-(J3-Pin_36-Pad36)*%
X121800000Y-97730000D03*
%TO.N,unconnected-(J3-Pin_37-Pad37)*%
X119260000Y-100270000D03*
%TO.N,unconnected-(J3-Pin_38-Pad38)*%
X121800000Y-100270000D03*
%TO.N,unconnected-(J3-Pin_39-Pad39)*%
X119260000Y-102810000D03*
%TO.N,unconnected-(J3-Pin_40-Pad40)*%
X121800000Y-102810000D03*
%TO.N,unconnected-(J3-Pin_41-Pad41)*%
X119260000Y-105350000D03*
%TO.N,unconnected-(J3-Pin_42-Pad42)*%
X121800000Y-105350000D03*
%TO.N,unconnected-(J3-Pin_43-Pad43)*%
X119260000Y-107890000D03*
%TO.N,unconnected-(J3-Pin_44-Pad44)*%
X121800000Y-107890000D03*
%TO.N,unconnected-(J3-Pin_45-Pad45)*%
X119260000Y-110430000D03*
%TO.N,unconnected-(J3-Pin_46-Pad46)*%
X121800000Y-110430000D03*
%TD*%
D14*
%TO.N,GND*%
X166537500Y-69250000D03*
X165465000Y-71785000D03*
X154035000Y-71785000D03*
X129637500Y-69750000D03*
X136655000Y-71750000D03*
X155305000Y-71805000D03*
X160137500Y-65250000D03*
X160387500Y-69750000D03*
X166537500Y-62900000D03*
X164195000Y-71805000D03*
%TO.N,+3V3*%
X131800000Y-65200000D03*
X128500000Y-66400000D03*
X156300000Y-64100000D03*
X130000000Y-73000000D03*
%TO.N,+5V*%
X155200000Y-63600000D03*
%TO.N,CAN_GND_ISO*%
X153837500Y-86437500D03*
X162500000Y-90650000D03*
X158900000Y-85500000D03*
X157211000Y-90000000D03*
X159000000Y-87250000D03*
X163500000Y-94100000D03*
%TO.N,GNDREF*%
X129637500Y-87200000D03*
X136655000Y-85200000D03*
X134700000Y-89300000D03*
%TD*%
%TA.AperFunction,Conductor*%
%TO.N,GND*%
G36*
X121324755Y-80146853D02*
G01*
X121391898Y-80263147D01*
X121486853Y-80358102D01*
X121603147Y-80425245D01*
X121662425Y-80441128D01*
X121099134Y-81004417D01*
X121136994Y-81031924D01*
X121288722Y-81109234D01*
X121339518Y-81157209D01*
X121356313Y-81225030D01*
X121333776Y-81291165D01*
X121288723Y-81330203D01*
X121136735Y-81407645D01*
X121023997Y-81489555D01*
X120975582Y-81524731D01*
X120975580Y-81524733D01*
X120975579Y-81524733D01*
X120834733Y-81665579D01*
X120834733Y-81665580D01*
X120834731Y-81665582D01*
X120784447Y-81734790D01*
X120717647Y-81826733D01*
X120640485Y-81978172D01*
X120592510Y-82028968D01*
X120524689Y-82045763D01*
X120458554Y-82023225D01*
X120419515Y-81978172D01*
X120342352Y-81826733D01*
X120225269Y-81665582D01*
X120084418Y-81524731D01*
X119923266Y-81407647D01*
X119771827Y-81330485D01*
X119721031Y-81282510D01*
X119704236Y-81214689D01*
X119726773Y-81148554D01*
X119771827Y-81109515D01*
X119781116Y-81104781D01*
X119923266Y-81032353D01*
X120084418Y-80915269D01*
X120225269Y-80774418D01*
X120342353Y-80613266D01*
X120419795Y-80461276D01*
X120467769Y-80410481D01*
X120535590Y-80393686D01*
X120601725Y-80416223D01*
X120640765Y-80461277D01*
X120718077Y-80613008D01*
X120745580Y-80650863D01*
X120745581Y-80650864D01*
X121308871Y-80087574D01*
X121324755Y-80146853D01*
G37*
%TD.AperFunction*%
%TA.AperFunction,Conductor*%
G36*
X121324755Y-77606853D02*
G01*
X121391898Y-77723147D01*
X121486853Y-77818102D01*
X121603147Y-77885245D01*
X121662425Y-77901128D01*
X121099134Y-78464417D01*
X121136999Y-78491928D01*
X121289272Y-78569516D01*
X121340068Y-78617490D01*
X121356863Y-78685311D01*
X121334325Y-78751446D01*
X121289272Y-78790484D01*
X121136996Y-78868073D01*
X121136995Y-78868074D01*
X121099135Y-78895580D01*
X121099135Y-78895581D01*
X121662425Y-79458871D01*
X121603147Y-79474755D01*
X121486853Y-79541898D01*
X121391898Y-79636853D01*
X121324755Y-79753147D01*
X121308871Y-79812425D01*
X120745581Y-79249135D01*
X120745580Y-79249135D01*
X120718075Y-79286993D01*
X120640764Y-79438723D01*
X120592790Y-79489518D01*
X120524969Y-79506313D01*
X120458834Y-79483775D01*
X120419795Y-79438722D01*
X120342485Y-79286994D01*
X120342353Y-79286734D01*
X120225269Y-79125582D01*
X120084418Y-78984731D01*
X119923266Y-78867647D01*
X119771827Y-78790485D01*
X119721031Y-78742510D01*
X119704236Y-78674689D01*
X119726773Y-78608554D01*
X119771827Y-78569515D01*
X119781116Y-78564781D01*
X119923266Y-78492353D01*
X120084418Y-78375269D01*
X120225269Y-78234418D01*
X120342353Y-78073266D01*
X120419795Y-77921276D01*
X120467769Y-77870481D01*
X120535590Y-77853686D01*
X120601725Y-77876223D01*
X120640765Y-77921277D01*
X120718077Y-78073008D01*
X120745580Y-78110863D01*
X120745581Y-78110864D01*
X121308871Y-77547574D01*
X121324755Y-77606853D01*
G37*
%TD.AperFunction*%
%TA.AperFunction,Conductor*%
G36*
X120601446Y-75336773D02*
G01*
X120640485Y-75381827D01*
X120717647Y-75533266D01*
X120834731Y-75694418D01*
X120975582Y-75835269D01*
X121136734Y-75952353D01*
X121226909Y-75998299D01*
X121288722Y-76029795D01*
X121339518Y-76077770D01*
X121356313Y-76145591D01*
X121333776Y-76211726D01*
X121288723Y-76250764D01*
X121136993Y-76328075D01*
X121099135Y-76355580D01*
X121099135Y-76355581D01*
X121662425Y-76918871D01*
X121603147Y-76934755D01*
X121486853Y-77001898D01*
X121391898Y-77096853D01*
X121324755Y-77213147D01*
X121308871Y-77272425D01*
X120745581Y-76709135D01*
X120745580Y-76709135D01*
X120718075Y-76746993D01*
X120640764Y-76898723D01*
X120592790Y-76949518D01*
X120524969Y-76966313D01*
X120458834Y-76943775D01*
X120419795Y-76898722D01*
X120342485Y-76746994D01*
X120342353Y-76746734D01*
X120225269Y-76585582D01*
X120084418Y-76444731D01*
X119923266Y-76327647D01*
X119771827Y-76250485D01*
X119721031Y-76202510D01*
X119704236Y-76134689D01*
X119726773Y-76068554D01*
X119771827Y-76029515D01*
X119781116Y-76024781D01*
X119923266Y-75952353D01*
X120084418Y-75835269D01*
X120225269Y-75694418D01*
X120342353Y-75533266D01*
X120419515Y-75381827D01*
X120467490Y-75331031D01*
X120535311Y-75314236D01*
X120601446Y-75336773D01*
G37*
%TD.AperFunction*%
%TA.AperFunction,Conductor*%
G36*
X182264755Y-77606853D02*
G01*
X182331898Y-77723147D01*
X182426853Y-77818102D01*
X182543147Y-77885245D01*
X182602425Y-77901128D01*
X182039134Y-78464417D01*
X182076994Y-78491924D01*
X182228722Y-78569234D01*
X182279518Y-78617209D01*
X182296313Y-78685030D01*
X182273776Y-78751165D01*
X182228723Y-78790203D01*
X182076735Y-78867645D01*
X181963997Y-78949555D01*
X181915582Y-78984731D01*
X181915580Y-78984733D01*
X181915579Y-78984733D01*
X181774733Y-79125579D01*
X181774733Y-79125580D01*
X181774731Y-79125582D01*
X181724447Y-79194790D01*
X181657647Y-79286733D01*
X181580485Y-79438172D01*
X181532510Y-79488968D01*
X181464689Y-79505763D01*
X181398554Y-79483225D01*
X181359515Y-79438172D01*
X181282485Y-79286994D01*
X181282353Y-79286734D01*
X181165269Y-79125582D01*
X181024418Y-78984731D01*
X180863266Y-78867647D01*
X180711827Y-78790485D01*
X180661031Y-78742510D01*
X180644236Y-78674689D01*
X180666773Y-78608554D01*
X180711827Y-78569515D01*
X180721116Y-78564781D01*
X180863266Y-78492353D01*
X181024418Y-78375269D01*
X181165269Y-78234418D01*
X181282353Y-78073266D01*
X181359795Y-77921276D01*
X181407769Y-77870481D01*
X181475590Y-77853686D01*
X181541725Y-77876223D01*
X181580765Y-77921277D01*
X181658077Y-78073008D01*
X181685580Y-78110863D01*
X181685581Y-78110864D01*
X182248871Y-77547574D01*
X182264755Y-77606853D01*
G37*
%TD.AperFunction*%
%TA.AperFunction,Conductor*%
G36*
X181541446Y-75336773D02*
G01*
X181580485Y-75381827D01*
X181657647Y-75533266D01*
X181774731Y-75694418D01*
X181915582Y-75835269D01*
X182076734Y-75952353D01*
X182166909Y-75998299D01*
X182228722Y-76029795D01*
X182279518Y-76077770D01*
X182296313Y-76145591D01*
X182273776Y-76211726D01*
X182228723Y-76250764D01*
X182076993Y-76328075D01*
X182039135Y-76355580D01*
X182039135Y-76355581D01*
X182602425Y-76918871D01*
X182543147Y-76934755D01*
X182426853Y-77001898D01*
X182331898Y-77096853D01*
X182264755Y-77213147D01*
X182248871Y-77272425D01*
X181685581Y-76709135D01*
X181685580Y-76709135D01*
X181658075Y-76746993D01*
X181580764Y-76898723D01*
X181532790Y-76949518D01*
X181464969Y-76966313D01*
X181398834Y-76943775D01*
X181359795Y-76898722D01*
X181282485Y-76746994D01*
X181282353Y-76746734D01*
X181165269Y-76585582D01*
X181024418Y-76444731D01*
X180863266Y-76327647D01*
X180711827Y-76250485D01*
X180661031Y-76202510D01*
X180644236Y-76134689D01*
X180666773Y-76068554D01*
X180711827Y-76029515D01*
X180721116Y-76024781D01*
X180863266Y-75952353D01*
X181024418Y-75835269D01*
X181165269Y-75694418D01*
X181282353Y-75533266D01*
X181359515Y-75381827D01*
X181407490Y-75331031D01*
X181475311Y-75314236D01*
X181541446Y-75336773D01*
G37*
%TD.AperFunction*%
%TA.AperFunction,Conductor*%
G36*
X181254417Y-65410863D02*
G01*
X181254418Y-65410863D01*
X181281924Y-65373005D01*
X181359234Y-65221277D01*
X181407208Y-65170481D01*
X181475029Y-65153686D01*
X181541164Y-65176223D01*
X181580204Y-65221277D01*
X181657514Y-65373005D01*
X181657647Y-65373266D01*
X181774731Y-65534418D01*
X181915582Y-65675269D01*
X182076734Y-65792353D01*
X182125201Y-65817048D01*
X182228172Y-65869515D01*
X182278968Y-65917490D01*
X182295763Y-65985311D01*
X182273225Y-66051446D01*
X182228172Y-66090485D01*
X182076733Y-66167647D01*
X181984790Y-66234447D01*
X181915582Y-66284731D01*
X181915580Y-66284733D01*
X181915579Y-66284733D01*
X181774733Y-66425579D01*
X181774733Y-66425580D01*
X181774731Y-66425582D01*
X181739613Y-66473918D01*
X181657647Y-66586733D01*
X181580485Y-66738172D01*
X181532510Y-66788968D01*
X181464689Y-66805763D01*
X181398554Y-66783225D01*
X181359515Y-66738172D01*
X181282352Y-66586733D01*
X181165269Y-66425582D01*
X181024418Y-66284731D01*
X180863266Y-66167647D01*
X180863262Y-66167645D01*
X180711277Y-66090204D01*
X180660481Y-66042229D01*
X180643686Y-65974408D01*
X180666224Y-65908273D01*
X180711277Y-65869234D01*
X180863005Y-65791924D01*
X180900863Y-65764418D01*
X180900863Y-65764417D01*
X180337574Y-65201128D01*
X180396853Y-65185245D01*
X180513147Y-65118102D01*
X180608102Y-65023147D01*
X180675245Y-64906853D01*
X180691128Y-64847574D01*
X181254417Y-65410863D01*
G37*
%TD.AperFunction*%
%TA.AperFunction,Conductor*%
G36*
X181541446Y-62636773D02*
G01*
X181580485Y-62681827D01*
X181657647Y-62833266D01*
X181774731Y-62994418D01*
X181915582Y-63135269D01*
X182076734Y-63252353D01*
X182146453Y-63287877D01*
X182228172Y-63329515D01*
X182278968Y-63377490D01*
X182295763Y-63445311D01*
X182273225Y-63511446D01*
X182228172Y-63550485D01*
X182076733Y-63627647D01*
X181984790Y-63694447D01*
X181915582Y-63744731D01*
X181915580Y-63744733D01*
X181915579Y-63744733D01*
X181774733Y-63885579D01*
X181774733Y-63885580D01*
X181774731Y-63885582D01*
X181739555Y-63933997D01*
X181657645Y-64046735D01*
X181580203Y-64198723D01*
X181532229Y-64249518D01*
X181464408Y-64266313D01*
X181398273Y-64243775D01*
X181359234Y-64198722D01*
X181281924Y-64046994D01*
X181254417Y-64009135D01*
X181254417Y-64009134D01*
X180691128Y-64572424D01*
X180675245Y-64513147D01*
X180608102Y-64396853D01*
X180513147Y-64301898D01*
X180396853Y-64234755D01*
X180337574Y-64218871D01*
X180900864Y-63655581D01*
X180900863Y-63655580D01*
X180863008Y-63628077D01*
X180711277Y-63550765D01*
X180660481Y-63502790D01*
X180643686Y-63434969D01*
X180666224Y-63368834D01*
X180711277Y-63329795D01*
X180711827Y-63329515D01*
X180863266Y-63252353D01*
X181024418Y-63135269D01*
X181165269Y-62994418D01*
X181282353Y-62833266D01*
X181359515Y-62681827D01*
X181407490Y-62631031D01*
X181475311Y-62614236D01*
X181541446Y-62636773D01*
G37*
%TD.AperFunction*%
%TA.AperFunction,Conductor*%
G36*
X135006061Y-50701097D02*
G01*
X135016051Y-50702080D01*
X135143824Y-50714665D01*
X135167652Y-50719404D01*
X135294277Y-50757815D01*
X135316725Y-50767114D01*
X135433406Y-50829482D01*
X135453616Y-50842986D01*
X135555891Y-50926920D01*
X135573079Y-50944108D01*
X135657012Y-51046381D01*
X135670517Y-51066593D01*
X135732883Y-51183271D01*
X135742186Y-51205728D01*
X135780593Y-51332338D01*
X135785335Y-51356180D01*
X135798903Y-51493938D01*
X135799500Y-51506092D01*
X135799500Y-58264486D01*
X135829059Y-58451118D01*
X135887454Y-58630836D01*
X135904725Y-58664731D01*
X135973240Y-58799199D01*
X136084310Y-58952073D01*
X136217927Y-59085690D01*
X136370801Y-59196760D01*
X136450347Y-59237290D01*
X136539163Y-59282545D01*
X136539165Y-59282545D01*
X136539168Y-59282547D01*
X136635497Y-59313846D01*
X136718881Y-59340940D01*
X136905514Y-59370500D01*
X136905519Y-59370500D01*
X165094486Y-59370500D01*
X165281118Y-59340940D01*
X165303526Y-59333659D01*
X165460832Y-59282547D01*
X165629199Y-59196760D01*
X165782073Y-59085690D01*
X165915690Y-58952073D01*
X166026760Y-58799199D01*
X166112547Y-58630832D01*
X166170940Y-58451118D01*
X166175471Y-58422510D01*
X166200500Y-58264486D01*
X166200500Y-56750684D01*
X173309500Y-56750684D01*
X173309500Y-56989315D01*
X173309501Y-56989332D01*
X173324983Y-57106934D01*
X173340649Y-57225924D01*
X173390106Y-57410498D01*
X173402415Y-57456436D01*
X173493734Y-57676902D01*
X173493740Y-57676914D01*
X173613062Y-57883586D01*
X173613064Y-57883589D01*
X173613065Y-57883590D01*
X173758337Y-58072912D01*
X173758343Y-58072919D01*
X173927080Y-58241656D01*
X173927087Y-58241662D01*
X174034834Y-58324339D01*
X174116414Y-58386938D01*
X174323086Y-58506260D01*
X174323091Y-58506262D01*
X174323097Y-58506265D01*
X174418109Y-58545620D01*
X174543564Y-58597585D01*
X174774076Y-58659351D01*
X175010678Y-58690500D01*
X175010685Y-58690500D01*
X175249315Y-58690500D01*
X175249322Y-58690500D01*
X175485924Y-58659351D01*
X175716436Y-58597585D01*
X175936914Y-58506260D01*
X176143586Y-58386938D01*
X176332914Y-58241661D01*
X176501661Y-58072914D01*
X176646938Y-57883586D01*
X176766260Y-57676914D01*
X176857585Y-57456436D01*
X176919351Y-57225924D01*
X176950500Y-56989322D01*
X176950500Y-56750678D01*
X176919351Y-56514076D01*
X176857585Y-56283564D01*
X176766260Y-56063086D01*
X176646938Y-55856414D01*
X176564174Y-55748554D01*
X176501662Y-55667087D01*
X176501656Y-55667080D01*
X176332919Y-55498343D01*
X176332912Y-55498337D01*
X176143590Y-55353065D01*
X176143589Y-55353064D01*
X176143586Y-55353062D01*
X175936914Y-55233740D01*
X175936902Y-55233734D01*
X175716436Y-55142415D01*
X175485920Y-55080648D01*
X175249332Y-55049501D01*
X175249327Y-55049500D01*
X175249322Y-55049500D01*
X175010678Y-55049500D01*
X175010672Y-55049500D01*
X175010667Y-55049501D01*
X174774079Y-55080648D01*
X174543563Y-55142415D01*
X174323097Y-55233734D01*
X174323083Y-55233741D01*
X174116409Y-55353065D01*
X173927087Y-55498337D01*
X173927080Y-55498343D01*
X173758343Y-55667080D01*
X173758337Y-55667087D01*
X173613065Y-55856409D01*
X173493741Y-56063083D01*
X173493734Y-56063097D01*
X173402415Y-56283563D01*
X173340648Y-56514079D01*
X173309501Y-56750667D01*
X173309500Y-56750684D01*
X166200500Y-56750684D01*
X166200500Y-53737135D01*
X178934500Y-53737135D01*
X178934500Y-55362870D01*
X178934501Y-55362876D01*
X178940908Y-55422483D01*
X178991202Y-55557328D01*
X178991206Y-55557335D01*
X179077452Y-55672544D01*
X179077455Y-55672547D01*
X179192664Y-55758793D01*
X179192671Y-55758797D01*
X179327517Y-55809091D01*
X179327516Y-55809091D01*
X179334444Y-55809835D01*
X179387127Y-55815500D01*
X179419568Y-55815499D01*
X179486605Y-55835182D01*
X179532361Y-55887984D01*
X179542306Y-55957143D01*
X179513283Y-56020699D01*
X179492455Y-56039816D01*
X179375582Y-56124730D01*
X179234733Y-56265579D01*
X179234733Y-56265580D01*
X179234731Y-56265582D01*
X179190267Y-56326781D01*
X179117647Y-56426733D01*
X179027213Y-56604219D01*
X178965661Y-56793656D01*
X178965661Y-56793659D01*
X178934500Y-56990403D01*
X178934500Y-57189596D01*
X178965661Y-57386340D01*
X178965661Y-57386343D01*
X179027213Y-57575780D01*
X179078744Y-57676914D01*
X179117647Y-57753266D01*
X179234731Y-57914418D01*
X179375582Y-58055269D01*
X179536734Y-58172353D01*
X179606453Y-58207877D01*
X179688172Y-58249515D01*
X179738968Y-58297490D01*
X179755763Y-58365311D01*
X179733225Y-58431446D01*
X179688172Y-58470485D01*
X179536733Y-58547647D01*
X179468000Y-58597585D01*
X179375582Y-58664731D01*
X179375580Y-58664733D01*
X179375579Y-58664733D01*
X179234733Y-58805579D01*
X179234733Y-58805580D01*
X179234731Y-58805582D01*
X179213532Y-58834760D01*
X179117647Y-58966733D01*
X179027213Y-59144219D01*
X178965661Y-59333656D01*
X178965661Y-59333659D01*
X178934500Y-59530403D01*
X178934500Y-59729596D01*
X178965661Y-59926340D01*
X178965661Y-59926343D01*
X179027213Y-60115780D01*
X179027215Y-60115783D01*
X179117647Y-60293266D01*
X179234731Y-60454418D01*
X179375582Y-60595269D01*
X179536734Y-60712353D01*
X179606453Y-60747877D01*
X179688172Y-60789515D01*
X179738968Y-60837490D01*
X179755763Y-60905311D01*
X179733225Y-60971446D01*
X179688172Y-61010485D01*
X179536733Y-61087647D01*
X179444790Y-61154447D01*
X179375582Y-61204731D01*
X179375580Y-61204733D01*
X179375579Y-61204733D01*
X179234733Y-61345579D01*
X179234733Y-61345580D01*
X179234731Y-61345582D01*
X179184447Y-61414790D01*
X179117647Y-61506733D01*
X179027213Y-61684219D01*
X178965661Y-61873656D01*
X178965661Y-61873659D01*
X178934500Y-62070403D01*
X178934500Y-62269596D01*
X178965661Y-62466340D01*
X178965661Y-62466343D01*
X179027213Y-62655780D01*
X179040485Y-62681827D01*
X179117647Y-62833266D01*
X179234731Y-62994418D01*
X179375582Y-63135269D01*
X179536734Y-63252353D01*
X179626909Y-63298299D01*
X179688722Y-63329795D01*
X179739518Y-63377770D01*
X179756313Y-63445591D01*
X179733776Y-63511726D01*
X179688723Y-63550764D01*
X179536993Y-63628075D01*
X179499135Y-63655580D01*
X179499135Y-63655581D01*
X180062425Y-64218871D01*
X180003147Y-64234755D01*
X179886853Y-64301898D01*
X179791898Y-64396853D01*
X179724755Y-64513147D01*
X179708871Y-64572425D01*
X179145581Y-64009135D01*
X179145580Y-64009135D01*
X179118077Y-64046990D01*
X179027679Y-64224405D01*
X178966147Y-64413777D01*
X178935000Y-64610436D01*
X178935000Y-64809563D01*
X178966147Y-65006222D01*
X179027679Y-65195594D01*
X179118077Y-65373008D01*
X179145580Y-65410863D01*
X179145581Y-65410864D01*
X179708871Y-64847574D01*
X179724755Y-64906853D01*
X179791898Y-65023147D01*
X179886853Y-65118102D01*
X180003147Y-65185245D01*
X180062425Y-65201128D01*
X179499134Y-65764417D01*
X179536994Y-65791924D01*
X179688722Y-65869234D01*
X179739518Y-65917209D01*
X179756313Y-65985030D01*
X179733776Y-66051165D01*
X179688723Y-66090203D01*
X179536735Y-66167645D01*
X179423997Y-66249555D01*
X179375582Y-66284731D01*
X179375580Y-66284733D01*
X179375579Y-66284733D01*
X179234733Y-66425579D01*
X179234733Y-66425580D01*
X179234731Y-66425582D01*
X179199613Y-66473918D01*
X179117647Y-66586733D01*
X179027213Y-66764219D01*
X178965661Y-66953656D01*
X178965661Y-66953659D01*
X178934500Y-67150403D01*
X178934500Y-67349596D01*
X178965661Y-67546340D01*
X178965661Y-67546343D01*
X179027213Y-67735780D01*
X179040485Y-67761827D01*
X179117647Y-67913266D01*
X179234731Y-68074418D01*
X179375582Y-68215269D01*
X179536734Y-68332353D01*
X179606453Y-68367877D01*
X179688172Y-68409515D01*
X179738968Y-68457490D01*
X179755763Y-68525311D01*
X179733225Y-68591446D01*
X179688172Y-68630485D01*
X179536733Y-68707647D01*
X179444790Y-68774447D01*
X179375582Y-68824731D01*
X179375580Y-68824733D01*
X179375579Y-68824733D01*
X179234733Y-68965579D01*
X179234733Y-68965580D01*
X179234731Y-68965582D01*
X179184447Y-69034790D01*
X179117647Y-69126733D01*
X179027213Y-69304219D01*
X178965661Y-69493656D01*
X178965661Y-69493659D01*
X178934500Y-69690403D01*
X178934500Y-69889596D01*
X178965661Y-70086340D01*
X178965661Y-70086343D01*
X179027213Y-70275780D01*
X179027215Y-70275783D01*
X179117647Y-70453266D01*
X179234731Y-70614418D01*
X179375582Y-70755269D01*
X179536734Y-70872353D01*
X179606453Y-70907877D01*
X179688172Y-70949515D01*
X179738968Y-70997490D01*
X179755763Y-71065311D01*
X179733225Y-71131446D01*
X179688172Y-71170485D01*
X179536733Y-71247647D01*
X179444790Y-71314447D01*
X179375582Y-71364731D01*
X179375580Y-71364733D01*
X179375579Y-71364733D01*
X179234733Y-71505579D01*
X179234733Y-71505580D01*
X179234731Y-71505582D01*
X179184447Y-71574790D01*
X179117647Y-71666733D01*
X179027213Y-71844219D01*
X178965661Y-72033656D01*
X178965661Y-72033659D01*
X178934500Y-72230403D01*
X178934500Y-72429596D01*
X178965661Y-72626340D01*
X178965661Y-72626343D01*
X179027213Y-72815780D01*
X179083415Y-72926082D01*
X179117647Y-72993266D01*
X179234731Y-73154418D01*
X179375582Y-73295269D01*
X179536734Y-73412353D01*
X179606453Y-73447877D01*
X179688172Y-73489515D01*
X179738968Y-73537490D01*
X179755763Y-73605311D01*
X179733225Y-73671446D01*
X179688172Y-73710485D01*
X179536733Y-73787647D01*
X179444790Y-73854447D01*
X179375582Y-73904731D01*
X179375580Y-73904733D01*
X179375579Y-73904733D01*
X179234733Y-74045579D01*
X179234733Y-74045580D01*
X179234731Y-74045582D01*
X179184447Y-74114790D01*
X179117647Y-74206733D01*
X179027213Y-74384219D01*
X178965661Y-74573656D01*
X178965661Y-74573659D01*
X178934500Y-74770403D01*
X178934500Y-74969596D01*
X178965661Y-75166340D01*
X178965661Y-75166343D01*
X179027213Y-75355780D01*
X179027215Y-75355783D01*
X179117647Y-75533266D01*
X179234731Y-75694418D01*
X179375582Y-75835269D01*
X179536734Y-75952353D01*
X179606453Y-75987877D01*
X179688172Y-76029515D01*
X179738968Y-76077490D01*
X179755763Y-76145311D01*
X179733225Y-76211446D01*
X179688172Y-76250485D01*
X179536733Y-76327647D01*
X179498286Y-76355581D01*
X179375582Y-76444731D01*
X179375580Y-76444733D01*
X179375579Y-76444733D01*
X179234733Y-76585579D01*
X179234733Y-76585580D01*
X179234731Y-76585582D01*
X179184447Y-76654790D01*
X179117647Y-76746733D01*
X179027213Y-76924219D01*
X178965661Y-77113656D01*
X178965661Y-77113659D01*
X178934500Y-77310403D01*
X178934500Y-77509596D01*
X178965661Y-77706340D01*
X178965661Y-77706343D01*
X179027213Y-77895780D01*
X179117514Y-78073005D01*
X179117647Y-78073266D01*
X179234731Y-78234418D01*
X179375582Y-78375269D01*
X179536734Y-78492353D01*
X179606453Y-78527877D01*
X179688172Y-78569515D01*
X179738968Y-78617490D01*
X179755763Y-78685311D01*
X179733225Y-78751446D01*
X179688172Y-78790485D01*
X179536733Y-78867647D01*
X179498286Y-78895581D01*
X179375582Y-78984731D01*
X179375580Y-78984733D01*
X179375579Y-78984733D01*
X179234733Y-79125579D01*
X179234733Y-79125580D01*
X179234731Y-79125582D01*
X179184447Y-79194790D01*
X179117647Y-79286733D01*
X179027213Y-79464219D01*
X178965661Y-79653656D01*
X178965661Y-79653659D01*
X178934500Y-79850403D01*
X178934500Y-80049596D01*
X178965661Y-80246340D01*
X178965661Y-80246343D01*
X179027213Y-80435780D01*
X179040485Y-80461827D01*
X179117647Y-80613266D01*
X179234731Y-80774418D01*
X179375582Y-80915269D01*
X179536734Y-81032353D01*
X179606453Y-81067877D01*
X179688172Y-81109515D01*
X179738968Y-81157490D01*
X179755763Y-81225311D01*
X179733225Y-81291446D01*
X179688172Y-81330485D01*
X179536733Y-81407647D01*
X179444790Y-81474447D01*
X179375582Y-81524731D01*
X179375580Y-81524733D01*
X179375579Y-81524733D01*
X179234733Y-81665579D01*
X179234733Y-81665580D01*
X179234731Y-81665582D01*
X179184447Y-81734790D01*
X179117647Y-81826733D01*
X179027213Y-82004219D01*
X178965661Y-82193656D01*
X178965661Y-82193659D01*
X178934500Y-82390403D01*
X178934500Y-82589596D01*
X178965661Y-82786340D01*
X178965661Y-82786343D01*
X179027213Y-82975780D01*
X179040485Y-83001827D01*
X179117647Y-83153266D01*
X179234731Y-83314418D01*
X179375582Y-83455269D01*
X179536734Y-83572353D01*
X179606453Y-83607877D01*
X179688172Y-83649515D01*
X179738968Y-83697490D01*
X179755763Y-83765311D01*
X179733225Y-83831446D01*
X179688172Y-83870485D01*
X179536733Y-83947647D01*
X179444790Y-84014447D01*
X179375582Y-84064731D01*
X179375580Y-84064733D01*
X179375579Y-84064733D01*
X179234733Y-84205579D01*
X179234733Y-84205580D01*
X179234731Y-84205582D01*
X179212940Y-84235575D01*
X179117647Y-84366733D01*
X179027213Y-84544219D01*
X178965661Y-84733656D01*
X178965661Y-84733659D01*
X178934500Y-84930403D01*
X178934500Y-85129596D01*
X178965661Y-85326340D01*
X178965661Y-85326343D01*
X179027213Y-85515780D01*
X179040485Y-85541827D01*
X179117647Y-85693266D01*
X179234731Y-85854418D01*
X179375582Y-85995269D01*
X179536734Y-86112353D01*
X179606453Y-86147877D01*
X179688172Y-86189515D01*
X179738968Y-86237490D01*
X179755763Y-86305311D01*
X179733225Y-86371446D01*
X179688172Y-86410485D01*
X179536733Y-86487647D01*
X179444790Y-86554447D01*
X179375582Y-86604731D01*
X179375580Y-86604733D01*
X179375579Y-86604733D01*
X179234733Y-86745579D01*
X179234733Y-86745580D01*
X179234731Y-86745582D01*
X179184447Y-86814790D01*
X179117647Y-86906733D01*
X179027213Y-87084219D01*
X178965661Y-87273656D01*
X178965661Y-87273659D01*
X178934500Y-87470403D01*
X178934500Y-87669596D01*
X178965661Y-87866340D01*
X178965661Y-87866343D01*
X179027213Y-88055780D01*
X179040485Y-88081827D01*
X179117647Y-88233266D01*
X179234731Y-88394418D01*
X179375582Y-88535269D01*
X179536734Y-88652353D01*
X179606453Y-88687877D01*
X179688172Y-88729515D01*
X179738968Y-88777490D01*
X179755763Y-88845311D01*
X179733225Y-88911446D01*
X179688172Y-88950485D01*
X179536733Y-89027647D01*
X179444790Y-89094447D01*
X179375582Y-89144731D01*
X179375580Y-89144733D01*
X179375579Y-89144733D01*
X179234733Y-89285579D01*
X179234733Y-89285580D01*
X179234731Y-89285582D01*
X179184447Y-89354790D01*
X179117647Y-89446733D01*
X179027213Y-89624219D01*
X178965661Y-89813656D01*
X178965661Y-89813659D01*
X178934500Y-90010403D01*
X178934500Y-90209596D01*
X178965661Y-90406340D01*
X178965661Y-90406343D01*
X179027213Y-90595780D01*
X179040485Y-90621827D01*
X179117647Y-90773266D01*
X179234731Y-90934418D01*
X179375582Y-91075269D01*
X179536734Y-91192353D01*
X179606453Y-91227877D01*
X179688172Y-91269515D01*
X179738968Y-91317490D01*
X179755763Y-91385311D01*
X179733225Y-91451446D01*
X179688172Y-91490485D01*
X179536733Y-91567647D01*
X179444790Y-91634447D01*
X179375582Y-91684731D01*
X179375580Y-91684733D01*
X179375579Y-91684733D01*
X179234733Y-91825579D01*
X179234733Y-91825580D01*
X179234731Y-91825582D01*
X179184447Y-91894790D01*
X179117647Y-91986733D01*
X179027213Y-92164219D01*
X178965661Y-92353656D01*
X178965661Y-92353659D01*
X178934500Y-92550403D01*
X178934500Y-92749596D01*
X178965661Y-92946340D01*
X178965661Y-92946343D01*
X179027213Y-93135780D01*
X179040485Y-93161827D01*
X179117647Y-93313266D01*
X179234731Y-93474418D01*
X179375582Y-93615269D01*
X179536734Y-93732353D01*
X179606453Y-93767877D01*
X179688172Y-93809515D01*
X179738968Y-93857490D01*
X179755763Y-93925311D01*
X179733225Y-93991446D01*
X179688172Y-94030485D01*
X179536733Y-94107647D01*
X179444790Y-94174447D01*
X179375582Y-94224731D01*
X179375580Y-94224733D01*
X179375579Y-94224733D01*
X179234733Y-94365579D01*
X179234733Y-94365580D01*
X179234731Y-94365582D01*
X179184447Y-94434790D01*
X179117647Y-94526733D01*
X179027213Y-94704219D01*
X178965661Y-94893656D01*
X178965661Y-94893659D01*
X178934500Y-95090403D01*
X178934500Y-95289596D01*
X178965661Y-95486340D01*
X178965661Y-95486343D01*
X179027213Y-95675780D01*
X179100537Y-95819685D01*
X179117647Y-95853266D01*
X179234731Y-96014418D01*
X179375582Y-96155269D01*
X179536734Y-96272353D01*
X179582506Y-96295675D01*
X179688172Y-96349515D01*
X179738968Y-96397490D01*
X179755763Y-96465311D01*
X179733225Y-96531446D01*
X179688172Y-96570485D01*
X179536733Y-96647647D01*
X179450377Y-96710389D01*
X179375582Y-96764731D01*
X179375580Y-96764733D01*
X179375579Y-96764733D01*
X179234733Y-96905579D01*
X179234733Y-96905580D01*
X179234731Y-96905582D01*
X179184447Y-96974790D01*
X179117647Y-97066733D01*
X179027213Y-97244219D01*
X178965661Y-97433656D01*
X178965661Y-97433659D01*
X178934500Y-97630403D01*
X178934500Y-97829596D01*
X178965661Y-98026340D01*
X178965661Y-98026343D01*
X179027213Y-98215780D01*
X179117647Y-98393266D01*
X179234731Y-98554418D01*
X179375582Y-98695269D01*
X179536734Y-98812353D01*
X179606453Y-98847877D01*
X179688172Y-98889515D01*
X179738968Y-98937490D01*
X179755763Y-99005311D01*
X179733225Y-99071446D01*
X179688172Y-99110485D01*
X179536733Y-99187647D01*
X179444790Y-99254447D01*
X179375582Y-99304731D01*
X179375580Y-99304733D01*
X179375579Y-99304733D01*
X179234733Y-99445579D01*
X179234733Y-99445580D01*
X179234731Y-99445582D01*
X179184447Y-99514790D01*
X179117647Y-99606733D01*
X179027213Y-99784219D01*
X178965661Y-99973656D01*
X178965661Y-99973659D01*
X178934500Y-100170403D01*
X178934500Y-100369596D01*
X178965661Y-100566340D01*
X178965661Y-100566343D01*
X179027213Y-100755780D01*
X179040485Y-100781827D01*
X179117647Y-100933266D01*
X179234731Y-101094418D01*
X179375582Y-101235269D01*
X179536734Y-101352353D01*
X179606453Y-101387877D01*
X179688172Y-101429515D01*
X179738968Y-101477490D01*
X179755763Y-101545311D01*
X179733225Y-101611446D01*
X179688172Y-101650485D01*
X179536733Y-101727647D01*
X179444790Y-101794447D01*
X179375582Y-101844731D01*
X179375580Y-101844733D01*
X179375579Y-101844733D01*
X179234733Y-101985579D01*
X179234733Y-101985580D01*
X179234731Y-101985582D01*
X179184447Y-102054790D01*
X179117647Y-102146733D01*
X179027213Y-102324219D01*
X178965661Y-102513656D01*
X178965661Y-102513659D01*
X178934500Y-102710403D01*
X178934500Y-102909596D01*
X178965661Y-103106340D01*
X178965661Y-103106343D01*
X179027213Y-103295780D01*
X179040485Y-103321827D01*
X179117647Y-103473266D01*
X179234731Y-103634418D01*
X179375582Y-103775269D01*
X179536734Y-103892353D01*
X179606453Y-103927877D01*
X179688172Y-103969515D01*
X179738968Y-104017490D01*
X179755763Y-104085311D01*
X179733225Y-104151446D01*
X179688172Y-104190485D01*
X179536733Y-104267647D01*
X179444790Y-104334447D01*
X179375582Y-104384731D01*
X179375580Y-104384733D01*
X179375579Y-104384733D01*
X179234733Y-104525579D01*
X179234733Y-104525580D01*
X179234731Y-104525582D01*
X179184447Y-104594790D01*
X179117647Y-104686733D01*
X179027213Y-104864219D01*
X178965661Y-105053656D01*
X178965661Y-105053659D01*
X178934500Y-105250403D01*
X178934500Y-105449596D01*
X178965661Y-105646340D01*
X178965661Y-105646343D01*
X179027213Y-105835780D01*
X179040485Y-105861827D01*
X179117647Y-106013266D01*
X179234731Y-106174418D01*
X179375582Y-106315269D01*
X179536734Y-106432353D01*
X179606453Y-106467877D01*
X179688172Y-106509515D01*
X179738968Y-106557490D01*
X179755763Y-106625311D01*
X179733225Y-106691446D01*
X179688172Y-106730485D01*
X179536733Y-106807647D01*
X179444790Y-106874447D01*
X179375582Y-106924731D01*
X179375580Y-106924733D01*
X179375579Y-106924733D01*
X179234733Y-107065579D01*
X179234733Y-107065580D01*
X179234731Y-107065582D01*
X179184447Y-107134790D01*
X179117647Y-107226733D01*
X179027213Y-107404219D01*
X178965661Y-107593656D01*
X178965661Y-107593659D01*
X178934500Y-107790403D01*
X178934500Y-107989596D01*
X178965661Y-108186340D01*
X178965661Y-108186343D01*
X179027213Y-108375780D01*
X179040485Y-108401827D01*
X179117647Y-108553266D01*
X179234731Y-108714418D01*
X179375582Y-108855269D01*
X179536734Y-108972353D01*
X179606453Y-109007877D01*
X179688172Y-109049515D01*
X179738968Y-109097490D01*
X179755763Y-109165311D01*
X179733225Y-109231446D01*
X179688172Y-109270485D01*
X179536733Y-109347647D01*
X179444790Y-109414447D01*
X179375582Y-109464731D01*
X179375580Y-109464733D01*
X179375579Y-109464733D01*
X179234733Y-109605579D01*
X179234733Y-109605580D01*
X179234731Y-109605582D01*
X179184447Y-109674790D01*
X179117647Y-109766733D01*
X179027213Y-109944219D01*
X178965661Y-110133656D01*
X178965661Y-110133659D01*
X178934500Y-110330403D01*
X178934500Y-110529596D01*
X178965661Y-110726340D01*
X178965661Y-110726343D01*
X179027213Y-110915780D01*
X179027215Y-110915783D01*
X179117647Y-111093266D01*
X179234731Y-111254418D01*
X179375582Y-111395269D01*
X179536734Y-111512353D01*
X179714217Y-111602785D01*
X179714219Y-111602786D01*
X179903657Y-111664338D01*
X179903658Y-111664338D01*
X179903661Y-111664339D01*
X180100403Y-111695500D01*
X180100404Y-111695500D01*
X180299596Y-111695500D01*
X180299597Y-111695500D01*
X180496339Y-111664339D01*
X180496342Y-111664338D01*
X180496343Y-111664338D01*
X180685780Y-111602786D01*
X180685780Y-111602785D01*
X180685783Y-111602785D01*
X180863266Y-111512353D01*
X181024418Y-111395269D01*
X181165269Y-111254418D01*
X181282353Y-111093266D01*
X181359515Y-110941827D01*
X181407490Y-110891031D01*
X181475311Y-110874236D01*
X181541446Y-110896773D01*
X181580485Y-110941827D01*
X181657647Y-111093266D01*
X181774731Y-111254418D01*
X181915582Y-111395269D01*
X182076734Y-111512353D01*
X182254217Y-111602785D01*
X182254219Y-111602786D01*
X182443657Y-111664338D01*
X182443658Y-111664338D01*
X182443661Y-111664339D01*
X182640403Y-111695500D01*
X182640404Y-111695500D01*
X182839596Y-111695500D01*
X182839597Y-111695500D01*
X183036339Y-111664339D01*
X183036342Y-111664338D01*
X183036343Y-111664338D01*
X183225780Y-111602786D01*
X183225780Y-111602785D01*
X183225783Y-111602785D01*
X183403266Y-111512353D01*
X183564418Y-111395269D01*
X183705269Y-111254418D01*
X183822353Y-111093266D01*
X183912785Y-110915783D01*
X183920827Y-110891031D01*
X183974338Y-110726343D01*
X183974338Y-110726342D01*
X183974339Y-110726339D01*
X184005500Y-110529597D01*
X184005500Y-110330403D01*
X183974339Y-110133661D01*
X183974338Y-110133657D01*
X183974338Y-110133656D01*
X183912786Y-109944219D01*
X183822352Y-109766733D01*
X183705269Y-109605582D01*
X183564418Y-109464731D01*
X183403266Y-109347647D01*
X183251827Y-109270485D01*
X183201031Y-109222510D01*
X183184236Y-109154689D01*
X183206773Y-109088554D01*
X183251827Y-109049515D01*
X183261116Y-109044781D01*
X183403266Y-108972353D01*
X183564418Y-108855269D01*
X183705269Y-108714418D01*
X183822353Y-108553266D01*
X183912785Y-108375783D01*
X183925140Y-108337758D01*
X183974338Y-108186343D01*
X183974338Y-108186342D01*
X183974339Y-108186339D01*
X184005500Y-107989597D01*
X184005500Y-107790403D01*
X183974339Y-107593661D01*
X183974338Y-107593657D01*
X183974338Y-107593656D01*
X183912786Y-107404219D01*
X183822352Y-107226733D01*
X183705269Y-107065582D01*
X183564418Y-106924731D01*
X183403266Y-106807647D01*
X183251827Y-106730485D01*
X183201031Y-106682510D01*
X183184236Y-106614689D01*
X183206773Y-106548554D01*
X183251827Y-106509515D01*
X183261116Y-106504781D01*
X183403266Y-106432353D01*
X183564418Y-106315269D01*
X183705269Y-106174418D01*
X183822353Y-106013266D01*
X183912785Y-105835783D01*
X183925140Y-105797758D01*
X183974338Y-105646343D01*
X183974338Y-105646342D01*
X183974339Y-105646339D01*
X184005500Y-105449597D01*
X184005500Y-105250403D01*
X183974339Y-105053661D01*
X183974338Y-105053657D01*
X183974338Y-105053656D01*
X183912786Y-104864219D01*
X183822352Y-104686733D01*
X183705269Y-104525582D01*
X183564418Y-104384731D01*
X183403266Y-104267647D01*
X183251827Y-104190485D01*
X183201031Y-104142510D01*
X183184236Y-104074689D01*
X183206773Y-104008554D01*
X183251827Y-103969515D01*
X183261116Y-103964781D01*
X183403266Y-103892353D01*
X183564418Y-103775269D01*
X183705269Y-103634418D01*
X183822353Y-103473266D01*
X183912785Y-103295783D01*
X183925140Y-103257758D01*
X183974338Y-103106343D01*
X183974338Y-103106342D01*
X183974339Y-103106339D01*
X184005500Y-102909597D01*
X184005500Y-102710403D01*
X183974339Y-102513661D01*
X183974338Y-102513657D01*
X183974338Y-102513656D01*
X183912786Y-102324219D01*
X183822352Y-102146733D01*
X183705269Y-101985582D01*
X183564418Y-101844731D01*
X183403266Y-101727647D01*
X183251827Y-101650485D01*
X183201031Y-101602510D01*
X183184236Y-101534689D01*
X183206773Y-101468554D01*
X183251827Y-101429515D01*
X183261116Y-101424781D01*
X183403266Y-101352353D01*
X183564418Y-101235269D01*
X183705269Y-101094418D01*
X183822353Y-100933266D01*
X183912785Y-100755783D01*
X183925140Y-100717758D01*
X183974338Y-100566343D01*
X183974338Y-100566342D01*
X183974339Y-100566339D01*
X184005500Y-100369597D01*
X184005500Y-100170403D01*
X183974339Y-99973661D01*
X183974338Y-99973657D01*
X183974338Y-99973656D01*
X183912786Y-99784219D01*
X183892548Y-99744499D01*
X183822353Y-99606734D01*
X183705269Y-99445582D01*
X183564418Y-99304731D01*
X183403266Y-99187647D01*
X183251827Y-99110485D01*
X183201031Y-99062510D01*
X183184236Y-98994689D01*
X183206773Y-98928554D01*
X183251827Y-98889515D01*
X183261116Y-98884781D01*
X183403266Y-98812353D01*
X183564418Y-98695269D01*
X183705269Y-98554418D01*
X183822353Y-98393266D01*
X183912785Y-98215783D01*
X183925140Y-98177758D01*
X183974338Y-98026343D01*
X183974338Y-98026342D01*
X183974339Y-98026339D01*
X184005500Y-97829597D01*
X184005500Y-97630403D01*
X183974339Y-97433661D01*
X183974338Y-97433657D01*
X183974338Y-97433656D01*
X183912786Y-97244219D01*
X183880047Y-97179965D01*
X183822353Y-97066734D01*
X183705269Y-96905582D01*
X183564418Y-96764731D01*
X183403266Y-96647647D01*
X183251827Y-96570485D01*
X183201031Y-96522510D01*
X183184236Y-96454689D01*
X183206773Y-96388554D01*
X183251827Y-96349515D01*
X183261116Y-96344781D01*
X183403266Y-96272353D01*
X183564418Y-96155269D01*
X183705269Y-96014418D01*
X183822353Y-95853266D01*
X183912785Y-95675783D01*
X183925140Y-95637758D01*
X183974338Y-95486343D01*
X183974338Y-95486342D01*
X183974339Y-95486339D01*
X184005500Y-95289597D01*
X184005500Y-95090403D01*
X183974339Y-94893661D01*
X183974338Y-94893657D01*
X183974338Y-94893656D01*
X183912786Y-94704219D01*
X183822352Y-94526733D01*
X183705269Y-94365582D01*
X183564418Y-94224731D01*
X183403266Y-94107647D01*
X183251827Y-94030485D01*
X183201031Y-93982510D01*
X183184236Y-93914689D01*
X183206773Y-93848554D01*
X183251827Y-93809515D01*
X183261116Y-93804781D01*
X183403266Y-93732353D01*
X183564418Y-93615269D01*
X183705269Y-93474418D01*
X183822353Y-93313266D01*
X183912785Y-93135783D01*
X183925140Y-93097758D01*
X183974338Y-92946343D01*
X183974338Y-92946342D01*
X183974339Y-92946339D01*
X184005500Y-92749597D01*
X184005500Y-92550403D01*
X183974339Y-92353661D01*
X183974338Y-92353657D01*
X183974338Y-92353656D01*
X183912786Y-92164219D01*
X183822352Y-91986733D01*
X183705269Y-91825582D01*
X183564418Y-91684731D01*
X183403266Y-91567647D01*
X183251827Y-91490485D01*
X183201031Y-91442510D01*
X183184236Y-91374689D01*
X183206773Y-91308554D01*
X183251827Y-91269515D01*
X183261116Y-91264781D01*
X183403266Y-91192353D01*
X183564418Y-91075269D01*
X183705269Y-90934418D01*
X183822353Y-90773266D01*
X183912785Y-90595783D01*
X183925140Y-90557758D01*
X183974338Y-90406343D01*
X183974338Y-90406342D01*
X183974339Y-90406339D01*
X184005500Y-90209597D01*
X184005500Y-90010403D01*
X183974339Y-89813661D01*
X183974338Y-89813657D01*
X183974338Y-89813656D01*
X183912786Y-89624219D01*
X183822352Y-89446733D01*
X183705269Y-89285582D01*
X183564418Y-89144731D01*
X183403266Y-89027647D01*
X183251827Y-88950485D01*
X183201031Y-88902510D01*
X183184236Y-88834689D01*
X183206773Y-88768554D01*
X183251827Y-88729515D01*
X183261116Y-88724781D01*
X183403266Y-88652353D01*
X183564418Y-88535269D01*
X183705269Y-88394418D01*
X183822353Y-88233266D01*
X183912785Y-88055783D01*
X183925140Y-88017758D01*
X183974338Y-87866343D01*
X183974338Y-87866342D01*
X183974339Y-87866339D01*
X184005500Y-87669597D01*
X184005500Y-87470403D01*
X183974339Y-87273661D01*
X183974338Y-87273657D01*
X183974338Y-87273656D01*
X183912786Y-87084219D01*
X183822352Y-86906733D01*
X183705269Y-86745582D01*
X183564418Y-86604731D01*
X183403266Y-86487647D01*
X183251827Y-86410485D01*
X183201031Y-86362510D01*
X183184236Y-86294689D01*
X183206773Y-86228554D01*
X183251827Y-86189515D01*
X183261116Y-86184781D01*
X183403266Y-86112353D01*
X183564418Y-85995269D01*
X183705269Y-85854418D01*
X183822353Y-85693266D01*
X183912785Y-85515783D01*
X183925140Y-85477758D01*
X183974338Y-85326343D01*
X183974338Y-85326342D01*
X183974339Y-85326339D01*
X184005500Y-85129597D01*
X184005500Y-84930403D01*
X183974339Y-84733661D01*
X183974338Y-84733657D01*
X183974338Y-84733656D01*
X183912786Y-84544219D01*
X183822352Y-84366733D01*
X183705269Y-84205582D01*
X183564418Y-84064731D01*
X183403266Y-83947647D01*
X183251827Y-83870485D01*
X183201031Y-83822510D01*
X183184236Y-83754689D01*
X183206773Y-83688554D01*
X183251827Y-83649515D01*
X183261116Y-83644781D01*
X183403266Y-83572353D01*
X183564418Y-83455269D01*
X183705269Y-83314418D01*
X183822353Y-83153266D01*
X183912785Y-82975783D01*
X183925140Y-82937758D01*
X183974338Y-82786343D01*
X183974338Y-82786342D01*
X183974339Y-82786339D01*
X184005500Y-82589597D01*
X184005500Y-82390403D01*
X183974339Y-82193661D01*
X183974338Y-82193657D01*
X183974338Y-82193656D01*
X183912786Y-82004219D01*
X183822352Y-81826733D01*
X183705269Y-81665582D01*
X183564418Y-81524731D01*
X183403266Y-81407647D01*
X183251827Y-81330485D01*
X183201031Y-81282510D01*
X183184236Y-81214689D01*
X183206773Y-81148554D01*
X183251827Y-81109515D01*
X183261116Y-81104781D01*
X183403266Y-81032353D01*
X183564418Y-80915269D01*
X183705269Y-80774418D01*
X183822353Y-80613266D01*
X183912785Y-80435783D01*
X183921006Y-80410481D01*
X183974338Y-80246343D01*
X183974338Y-80246342D01*
X183974339Y-80246339D01*
X184005500Y-80049597D01*
X184005500Y-79850403D01*
X183974339Y-79653661D01*
X183974338Y-79653657D01*
X183974338Y-79653656D01*
X183912786Y-79464219D01*
X183822485Y-79286994D01*
X183822353Y-79286734D01*
X183705269Y-79125582D01*
X183564418Y-78984731D01*
X183403266Y-78867647D01*
X183403262Y-78867645D01*
X183251277Y-78790204D01*
X183200481Y-78742229D01*
X183183686Y-78674408D01*
X183206224Y-78608273D01*
X183251277Y-78569234D01*
X183403005Y-78491924D01*
X183440863Y-78464418D01*
X183440863Y-78464417D01*
X182877574Y-77901128D01*
X182936853Y-77885245D01*
X183053147Y-77818102D01*
X183148102Y-77723147D01*
X183215245Y-77606853D01*
X183231128Y-77547574D01*
X183794417Y-78110863D01*
X183794418Y-78110863D01*
X183821924Y-78073005D01*
X183912320Y-77895594D01*
X183973852Y-77706222D01*
X184005000Y-77509563D01*
X184005000Y-77310436D01*
X183973852Y-77113777D01*
X183912320Y-76924405D01*
X183821924Y-76746994D01*
X183794417Y-76709135D01*
X183794417Y-76709134D01*
X183231128Y-77272424D01*
X183215245Y-77213147D01*
X183148102Y-77096853D01*
X183053147Y-77001898D01*
X182936853Y-76934755D01*
X182877574Y-76918871D01*
X183440864Y-76355581D01*
X183440863Y-76355580D01*
X183403008Y-76328077D01*
X183251277Y-76250765D01*
X183200481Y-76202790D01*
X183183686Y-76134969D01*
X183206224Y-76068834D01*
X183251277Y-76029795D01*
X183251827Y-76029515D01*
X183403266Y-75952353D01*
X183564418Y-75835269D01*
X183705269Y-75694418D01*
X183822353Y-75533266D01*
X183912785Y-75355783D01*
X183920827Y-75331031D01*
X183974338Y-75166343D01*
X183974338Y-75166342D01*
X183974339Y-75166339D01*
X184005500Y-74969597D01*
X184005500Y-74770403D01*
X183974339Y-74573661D01*
X183974338Y-74573657D01*
X183974338Y-74573656D01*
X183912786Y-74384219D01*
X183822352Y-74206733D01*
X183705269Y-74045582D01*
X183564418Y-73904731D01*
X183403266Y-73787647D01*
X183251827Y-73710485D01*
X183201031Y-73662510D01*
X183184236Y-73594689D01*
X183206773Y-73528554D01*
X183251827Y-73489515D01*
X183273612Y-73478415D01*
X183403266Y-73412353D01*
X183564418Y-73295269D01*
X183705269Y-73154418D01*
X183822353Y-72993266D01*
X183912785Y-72815783D01*
X183925140Y-72777758D01*
X183974338Y-72626343D01*
X183974338Y-72626342D01*
X183974339Y-72626339D01*
X184005500Y-72429597D01*
X184005500Y-72230403D01*
X183974339Y-72033661D01*
X183974338Y-72033657D01*
X183974338Y-72033656D01*
X183912786Y-71844219D01*
X183822352Y-71666733D01*
X183705269Y-71505582D01*
X183564418Y-71364731D01*
X183403266Y-71247647D01*
X183251827Y-71170485D01*
X183201031Y-71122510D01*
X183184236Y-71054689D01*
X183206773Y-70988554D01*
X183251827Y-70949515D01*
X183261116Y-70944781D01*
X183403266Y-70872353D01*
X183564418Y-70755269D01*
X183705269Y-70614418D01*
X183822353Y-70453266D01*
X183912785Y-70275783D01*
X183920827Y-70251031D01*
X183974338Y-70086343D01*
X183974338Y-70086342D01*
X183974339Y-70086339D01*
X184005500Y-69889597D01*
X184005500Y-69690403D01*
X183974339Y-69493661D01*
X183974338Y-69493657D01*
X183974338Y-69493656D01*
X183912786Y-69304219D01*
X183822352Y-69126733D01*
X183705269Y-68965582D01*
X183564418Y-68824731D01*
X183403266Y-68707647D01*
X183251827Y-68630485D01*
X183201031Y-68582510D01*
X183184236Y-68514689D01*
X183206773Y-68448554D01*
X183251827Y-68409515D01*
X183261116Y-68404781D01*
X183403266Y-68332353D01*
X183564418Y-68215269D01*
X183705269Y-68074418D01*
X183822353Y-67913266D01*
X183912785Y-67735783D01*
X183925140Y-67697758D01*
X183974338Y-67546343D01*
X183974338Y-67546342D01*
X183974339Y-67546339D01*
X184005500Y-67349597D01*
X184005500Y-67150403D01*
X183974339Y-66953661D01*
X183974338Y-66953657D01*
X183974338Y-66953656D01*
X183912786Y-66764219D01*
X183822352Y-66586733D01*
X183705269Y-66425582D01*
X183564418Y-66284731D01*
X183403266Y-66167647D01*
X183251827Y-66090485D01*
X183201031Y-66042510D01*
X183184236Y-65974689D01*
X183206773Y-65908554D01*
X183251827Y-65869515D01*
X183261116Y-65864781D01*
X183403266Y-65792353D01*
X183564418Y-65675269D01*
X183705269Y-65534418D01*
X183822353Y-65373266D01*
X183912785Y-65195783D01*
X183921006Y-65170481D01*
X183974338Y-65006343D01*
X183974338Y-65006342D01*
X183974339Y-65006339D01*
X184005500Y-64809597D01*
X184005500Y-64610403D01*
X183974339Y-64413661D01*
X183974338Y-64413657D01*
X183974338Y-64413656D01*
X183912786Y-64224219D01*
X183838497Y-64078419D01*
X183822353Y-64046734D01*
X183705269Y-63885582D01*
X183564418Y-63744731D01*
X183403266Y-63627647D01*
X183391359Y-63621580D01*
X183251827Y-63550485D01*
X183201031Y-63502510D01*
X183184236Y-63434689D01*
X183206773Y-63368554D01*
X183251827Y-63329515D01*
X183269426Y-63320548D01*
X183403266Y-63252353D01*
X183564418Y-63135269D01*
X183705269Y-62994418D01*
X183822353Y-62833266D01*
X183912785Y-62655783D01*
X183925140Y-62617758D01*
X183974338Y-62466343D01*
X183974338Y-62466342D01*
X183974339Y-62466339D01*
X184005500Y-62269597D01*
X184005500Y-62070403D01*
X183974339Y-61873661D01*
X183974338Y-61873657D01*
X183974338Y-61873656D01*
X183912786Y-61684219D01*
X183822352Y-61506733D01*
X183705269Y-61345582D01*
X183564418Y-61204731D01*
X183403266Y-61087647D01*
X183251827Y-61010485D01*
X183201031Y-60962510D01*
X183184236Y-60894689D01*
X183206773Y-60828554D01*
X183251827Y-60789515D01*
X183261116Y-60784781D01*
X183403266Y-60712353D01*
X183564418Y-60595269D01*
X183705269Y-60454418D01*
X183822353Y-60293266D01*
X183912785Y-60115783D01*
X183920827Y-60091031D01*
X183974338Y-59926343D01*
X183974338Y-59926342D01*
X183974339Y-59926339D01*
X184005500Y-59729597D01*
X184005500Y-59530403D01*
X183974339Y-59333661D01*
X183974338Y-59333657D01*
X183974338Y-59333656D01*
X183912786Y-59144219D01*
X183882964Y-59085690D01*
X183822353Y-58966734D01*
X183705269Y-58805582D01*
X183564418Y-58664731D01*
X183403266Y-58547647D01*
X183251827Y-58470485D01*
X183201031Y-58422510D01*
X183184236Y-58354689D01*
X183206773Y-58288554D01*
X183251827Y-58249515D01*
X183267251Y-58241656D01*
X183403266Y-58172353D01*
X183564418Y-58055269D01*
X183705269Y-57914418D01*
X183822353Y-57753266D01*
X183912785Y-57575783D01*
X183925140Y-57537758D01*
X183974338Y-57386343D01*
X183974338Y-57386342D01*
X183974339Y-57386339D01*
X184005500Y-57189597D01*
X184005500Y-56990403D01*
X183974339Y-56793661D01*
X183974338Y-56793657D01*
X183974338Y-56793656D01*
X183912786Y-56604219D01*
X183822352Y-56426733D01*
X183705269Y-56265582D01*
X183564418Y-56124731D01*
X183403266Y-56007647D01*
X183251827Y-55930485D01*
X183201031Y-55882510D01*
X183184236Y-55814689D01*
X183206773Y-55748554D01*
X183251827Y-55709515D01*
X183267806Y-55701373D01*
X183403266Y-55632353D01*
X183564418Y-55515269D01*
X183705269Y-55374418D01*
X183822353Y-55213266D01*
X183912785Y-55035783D01*
X183974339Y-54846339D01*
X184005500Y-54649597D01*
X184005500Y-54450403D01*
X183974339Y-54253661D01*
X183974338Y-54253657D01*
X183974338Y-54253656D01*
X183912786Y-54064219D01*
X183912785Y-54064217D01*
X183822353Y-53886734D01*
X183705269Y-53725582D01*
X183564418Y-53584731D01*
X183403266Y-53467647D01*
X183324379Y-53427452D01*
X183225780Y-53377213D01*
X183036342Y-53315661D01*
X182888782Y-53292290D01*
X182839597Y-53284500D01*
X182640403Y-53284500D01*
X182574822Y-53294887D01*
X182443659Y-53315661D01*
X182443656Y-53315661D01*
X182254219Y-53377213D01*
X182076733Y-53467647D01*
X181984790Y-53534447D01*
X181915582Y-53584731D01*
X181915580Y-53584733D01*
X181915579Y-53584733D01*
X181774733Y-53725579D01*
X181774733Y-53725580D01*
X181774731Y-53725582D01*
X181720192Y-53800649D01*
X181689817Y-53842456D01*
X181634487Y-53885121D01*
X181564873Y-53891100D01*
X181503078Y-53858494D01*
X181468721Y-53797655D01*
X181465499Y-53769570D01*
X181465499Y-53737129D01*
X181465498Y-53737123D01*
X181465497Y-53737116D01*
X181459091Y-53677517D01*
X181408796Y-53542669D01*
X181408795Y-53542668D01*
X181408793Y-53542664D01*
X181322547Y-53427455D01*
X181322544Y-53427452D01*
X181207335Y-53341206D01*
X181207328Y-53341202D01*
X181072482Y-53290908D01*
X181072483Y-53290908D01*
X181012883Y-53284501D01*
X181012881Y-53284500D01*
X181012873Y-53284500D01*
X181012864Y-53284500D01*
X179387129Y-53284500D01*
X179387123Y-53284501D01*
X179327516Y-53290908D01*
X179192671Y-53341202D01*
X179192664Y-53341206D01*
X179077455Y-53427452D01*
X179077452Y-53427455D01*
X178991206Y-53542664D01*
X178991202Y-53542671D01*
X178940908Y-53677517D01*
X178935741Y-53725580D01*
X178934501Y-53737123D01*
X178934500Y-53737135D01*
X166200500Y-53737135D01*
X166200500Y-51506092D01*
X166201097Y-51493939D01*
X166209805Y-51405519D01*
X166214665Y-51356171D01*
X166219403Y-51332349D01*
X166257816Y-51205719D01*
X166267113Y-51183278D01*
X166329485Y-51066587D01*
X166342982Y-51046387D01*
X166426924Y-50944103D01*
X166444103Y-50926924D01*
X166546387Y-50842982D01*
X166566587Y-50829485D01*
X166683278Y-50767113D01*
X166705719Y-50757816D01*
X166832349Y-50719403D01*
X166856173Y-50714665D01*
X166985170Y-50701960D01*
X166993939Y-50701097D01*
X167006092Y-50700500D01*
X167039882Y-50700500D01*
X184960118Y-50700500D01*
X184993908Y-50700500D01*
X185006061Y-50701097D01*
X185016051Y-50702080D01*
X185143824Y-50714665D01*
X185167652Y-50719404D01*
X185294277Y-50757815D01*
X185316725Y-50767114D01*
X185433406Y-50829482D01*
X185453616Y-50842986D01*
X185555891Y-50926920D01*
X185573079Y-50944108D01*
X185657012Y-51046381D01*
X185670517Y-51066593D01*
X185732883Y-51183271D01*
X185742186Y-51205728D01*
X185780593Y-51332338D01*
X185785335Y-51356180D01*
X185798903Y-51493938D01*
X185799500Y-51506092D01*
X185799500Y-113995933D01*
X185799235Y-114004043D01*
X185784636Y-114226778D01*
X185782518Y-114242859D01*
X185739769Y-114457771D01*
X185735571Y-114473438D01*
X185665133Y-114680942D01*
X185658926Y-114695928D01*
X185562007Y-114892460D01*
X185553897Y-114906507D01*
X185432154Y-115088708D01*
X185422280Y-115101576D01*
X185277797Y-115266328D01*
X185266328Y-115277797D01*
X185101576Y-115422280D01*
X185088708Y-115432154D01*
X184906507Y-115553897D01*
X184892460Y-115562007D01*
X184695928Y-115658926D01*
X184680942Y-115665133D01*
X184473438Y-115735571D01*
X184457771Y-115739769D01*
X184242859Y-115782518D01*
X184226778Y-115784636D01*
X184004043Y-115799235D01*
X183995933Y-115799500D01*
X164324500Y-115799500D01*
X164257461Y-115779815D01*
X164211706Y-115727011D01*
X164200500Y-115675500D01*
X164200500Y-104060119D01*
X164200499Y-104060116D01*
X164182843Y-104017490D01*
X164169976Y-103986426D01*
X164113574Y-103930024D01*
X162113574Y-101930024D01*
X162039883Y-101899500D01*
X162039882Y-101899500D01*
X129039882Y-101899500D01*
X128960118Y-101899500D01*
X128960116Y-101899500D01*
X128886425Y-101930024D01*
X126830024Y-103986425D01*
X126799500Y-104060116D01*
X126799500Y-115675500D01*
X126779815Y-115742539D01*
X126727011Y-115788294D01*
X126675500Y-115799500D01*
X118004067Y-115799500D01*
X117995957Y-115799235D01*
X117773221Y-115784636D01*
X117757140Y-115782518D01*
X117542228Y-115739769D01*
X117526561Y-115735571D01*
X117319057Y-115665133D01*
X117304071Y-115658926D01*
X117107539Y-115562007D01*
X117093492Y-115553897D01*
X116911291Y-115432154D01*
X116898423Y-115422280D01*
X116733671Y-115277797D01*
X116722202Y-115266328D01*
X116669730Y-115206495D01*
X116577716Y-115101573D01*
X116567845Y-115088708D01*
X116446102Y-114906507D01*
X116437992Y-114892460D01*
X116435196Y-114886791D01*
X116341070Y-114695921D01*
X116334866Y-114680942D01*
X116264428Y-114473438D01*
X116260230Y-114457771D01*
X116248217Y-114397376D01*
X116217479Y-114242848D01*
X116215364Y-114226790D01*
X116200765Y-114004043D01*
X116200500Y-113995933D01*
X116200500Y-53737135D01*
X117994500Y-53737135D01*
X117994500Y-55362870D01*
X117994501Y-55362876D01*
X118000908Y-55422483D01*
X118051202Y-55557328D01*
X118051206Y-55557335D01*
X118137452Y-55672544D01*
X118137455Y-55672547D01*
X118252664Y-55758793D01*
X118252671Y-55758797D01*
X118387517Y-55809091D01*
X118387516Y-55809091D01*
X118394444Y-55809835D01*
X118447127Y-55815500D01*
X118479568Y-55815499D01*
X118546605Y-55835182D01*
X118592361Y-55887984D01*
X118602306Y-55957143D01*
X118573283Y-56020699D01*
X118552455Y-56039816D01*
X118435582Y-56124730D01*
X118294733Y-56265579D01*
X118294733Y-56265580D01*
X118294731Y-56265582D01*
X118250267Y-56326781D01*
X118177647Y-56426733D01*
X118087213Y-56604219D01*
X118025661Y-56793656D01*
X118025661Y-56793659D01*
X117994500Y-56990403D01*
X117994500Y-57189596D01*
X118025661Y-57386340D01*
X118025661Y-57386343D01*
X118087213Y-57575780D01*
X118138744Y-57676914D01*
X118177647Y-57753266D01*
X118294731Y-57914418D01*
X118435582Y-58055269D01*
X118596734Y-58172353D01*
X118666453Y-58207877D01*
X118748172Y-58249515D01*
X118798968Y-58297490D01*
X118815763Y-58365311D01*
X118793225Y-58431446D01*
X118748172Y-58470485D01*
X118596733Y-58547647D01*
X118528000Y-58597585D01*
X118435582Y-58664731D01*
X118435580Y-58664733D01*
X118435579Y-58664733D01*
X118294733Y-58805579D01*
X118294733Y-58805580D01*
X118294731Y-58805582D01*
X118273532Y-58834760D01*
X118177647Y-58966733D01*
X118087213Y-59144219D01*
X118025661Y-59333656D01*
X118025661Y-59333659D01*
X117994500Y-59530403D01*
X117994500Y-59729596D01*
X118025661Y-59926340D01*
X118025661Y-59926343D01*
X118087213Y-60115780D01*
X118087215Y-60115783D01*
X118177647Y-60293266D01*
X118294731Y-60454418D01*
X118435582Y-60595269D01*
X118596734Y-60712353D01*
X118666453Y-60747877D01*
X118748172Y-60789515D01*
X118798968Y-60837490D01*
X118815763Y-60905311D01*
X118793225Y-60971446D01*
X118748172Y-61010485D01*
X118596733Y-61087647D01*
X118504790Y-61154447D01*
X118435582Y-61204731D01*
X118435580Y-61204733D01*
X118435579Y-61204733D01*
X118294733Y-61345579D01*
X118294733Y-61345580D01*
X118294731Y-61345582D01*
X118244447Y-61414790D01*
X118177647Y-61506733D01*
X118087213Y-61684219D01*
X118025661Y-61873656D01*
X118025661Y-61873659D01*
X117994500Y-62070403D01*
X117994500Y-62269596D01*
X118025661Y-62466340D01*
X118025661Y-62466343D01*
X118087213Y-62655780D01*
X118100485Y-62681827D01*
X118177647Y-62833266D01*
X118294731Y-62994418D01*
X118435582Y-63135269D01*
X118596734Y-63252353D01*
X118666453Y-63287877D01*
X118748172Y-63329515D01*
X118798968Y-63377490D01*
X118815763Y-63445311D01*
X118793225Y-63511446D01*
X118748172Y-63550485D01*
X118596733Y-63627647D01*
X118504790Y-63694447D01*
X118435582Y-63744731D01*
X118435580Y-63744733D01*
X118435579Y-63744733D01*
X118294733Y-63885579D01*
X118294733Y-63885580D01*
X118294731Y-63885582D01*
X118244447Y-63954790D01*
X118177647Y-64046733D01*
X118087213Y-64224219D01*
X118025661Y-64413656D01*
X118025661Y-64413659D01*
X118006177Y-64536679D01*
X117994500Y-64610403D01*
X117994500Y-64809597D01*
X118009904Y-64906853D01*
X118025661Y-65006340D01*
X118025661Y-65006343D01*
X118087213Y-65195780D01*
X118177514Y-65373005D01*
X118177647Y-65373266D01*
X118294731Y-65534418D01*
X118435582Y-65675269D01*
X118596734Y-65792353D01*
X118645201Y-65817048D01*
X118748172Y-65869515D01*
X118798968Y-65917490D01*
X118815763Y-65985311D01*
X118793225Y-66051446D01*
X118748172Y-66090485D01*
X118596733Y-66167647D01*
X118504790Y-66234447D01*
X118435582Y-66284731D01*
X118435580Y-66284733D01*
X118435579Y-66284733D01*
X118294733Y-66425579D01*
X118294733Y-66425580D01*
X118294731Y-66425582D01*
X118259613Y-66473918D01*
X118177647Y-66586733D01*
X118087213Y-66764219D01*
X118025661Y-66953656D01*
X118025661Y-66953659D01*
X117994500Y-67150403D01*
X117994500Y-67349596D01*
X118025661Y-67546340D01*
X118025661Y-67546343D01*
X118087213Y-67735780D01*
X118100485Y-67761827D01*
X118177647Y-67913266D01*
X118294731Y-68074418D01*
X118435582Y-68215269D01*
X118596734Y-68332353D01*
X118666453Y-68367877D01*
X118748172Y-68409515D01*
X118798968Y-68457490D01*
X118815763Y-68525311D01*
X118793225Y-68591446D01*
X118748172Y-68630485D01*
X118596733Y-68707647D01*
X118504790Y-68774447D01*
X118435582Y-68824731D01*
X118435580Y-68824733D01*
X118435579Y-68824733D01*
X118294733Y-68965579D01*
X118294733Y-68965580D01*
X118294731Y-68965582D01*
X118244447Y-69034790D01*
X118177647Y-69126733D01*
X118087213Y-69304219D01*
X118025661Y-69493656D01*
X118025661Y-69493659D01*
X117994500Y-69690403D01*
X117994500Y-69889596D01*
X118025661Y-70086340D01*
X118025661Y-70086343D01*
X118087213Y-70275780D01*
X118087215Y-70275783D01*
X118177647Y-70453266D01*
X118294731Y-70614418D01*
X118435582Y-70755269D01*
X118596734Y-70872353D01*
X118666453Y-70907877D01*
X118748172Y-70949515D01*
X118798968Y-70997490D01*
X118815763Y-71065311D01*
X118793225Y-71131446D01*
X118748172Y-71170485D01*
X118596733Y-71247647D01*
X118504790Y-71314447D01*
X118435582Y-71364731D01*
X118435580Y-71364733D01*
X118435579Y-71364733D01*
X118294733Y-71505579D01*
X118294733Y-71505580D01*
X118294731Y-71505582D01*
X118244447Y-71574790D01*
X118177647Y-71666733D01*
X118087213Y-71844219D01*
X118025661Y-72033656D01*
X118025661Y-72033659D01*
X117994500Y-72230403D01*
X117994500Y-72429596D01*
X118025661Y-72626340D01*
X118025661Y-72626343D01*
X118087213Y-72815780D01*
X118143415Y-72926082D01*
X118177647Y-72993266D01*
X118294731Y-73154418D01*
X118435582Y-73295269D01*
X118596734Y-73412353D01*
X118666453Y-73447877D01*
X118748172Y-73489515D01*
X118798968Y-73537490D01*
X118815763Y-73605311D01*
X118793225Y-73671446D01*
X118748172Y-73710485D01*
X118596733Y-73787647D01*
X118504790Y-73854447D01*
X118435582Y-73904731D01*
X118435580Y-73904733D01*
X118435579Y-73904733D01*
X118294733Y-74045579D01*
X118294733Y-74045580D01*
X118294731Y-74045582D01*
X118244447Y-74114790D01*
X118177647Y-74206733D01*
X118087213Y-74384219D01*
X118025661Y-74573656D01*
X118025661Y-74573659D01*
X117994500Y-74770403D01*
X117994500Y-74969596D01*
X118025661Y-75166340D01*
X118025661Y-75166343D01*
X118087213Y-75355780D01*
X118087215Y-75355783D01*
X118177647Y-75533266D01*
X118294731Y-75694418D01*
X118435582Y-75835269D01*
X118596734Y-75952353D01*
X118666453Y-75987877D01*
X118748172Y-76029515D01*
X118798968Y-76077490D01*
X118815763Y-76145311D01*
X118793225Y-76211446D01*
X118748172Y-76250485D01*
X118596733Y-76327647D01*
X118558286Y-76355581D01*
X118435582Y-76444731D01*
X118435580Y-76444733D01*
X118435579Y-76444733D01*
X118294733Y-76585579D01*
X118294733Y-76585580D01*
X118294731Y-76585582D01*
X118244447Y-76654790D01*
X118177647Y-76746733D01*
X118087213Y-76924219D01*
X118025661Y-77113656D01*
X118025661Y-77113659D01*
X117994500Y-77310403D01*
X117994500Y-77509596D01*
X118025661Y-77706340D01*
X118025661Y-77706343D01*
X118087213Y-77895780D01*
X118177514Y-78073005D01*
X118177647Y-78073266D01*
X118294731Y-78234418D01*
X118435582Y-78375269D01*
X118596734Y-78492353D01*
X118666453Y-78527877D01*
X118748172Y-78569515D01*
X118798968Y-78617490D01*
X118815763Y-78685311D01*
X118793225Y-78751446D01*
X118748172Y-78790485D01*
X118596733Y-78867647D01*
X118558286Y-78895581D01*
X118435582Y-78984731D01*
X118435580Y-78984733D01*
X118435579Y-78984733D01*
X118294733Y-79125579D01*
X118294733Y-79125580D01*
X118294731Y-79125582D01*
X118244447Y-79194790D01*
X118177647Y-79286733D01*
X118087213Y-79464219D01*
X118025661Y-79653656D01*
X118025661Y-79653659D01*
X117994500Y-79850403D01*
X117994500Y-80049596D01*
X118025661Y-80246340D01*
X118025661Y-80246343D01*
X118087213Y-80435780D01*
X118100485Y-80461827D01*
X118177647Y-80613266D01*
X118294731Y-80774418D01*
X118435582Y-80915269D01*
X118596734Y-81032353D01*
X118666453Y-81067877D01*
X118748172Y-81109515D01*
X118798968Y-81157490D01*
X118815763Y-81225311D01*
X118793225Y-81291446D01*
X118748172Y-81330485D01*
X118596733Y-81407647D01*
X118504790Y-81474447D01*
X118435582Y-81524731D01*
X118435580Y-81524733D01*
X118435579Y-81524733D01*
X118294733Y-81665579D01*
X118294733Y-81665580D01*
X118294731Y-81665582D01*
X118244447Y-81734790D01*
X118177647Y-81826733D01*
X118087213Y-82004219D01*
X118025661Y-82193656D01*
X118025661Y-82193659D01*
X117994500Y-82390403D01*
X117994500Y-82589596D01*
X118025661Y-82786340D01*
X118025661Y-82786343D01*
X118087213Y-82975780D01*
X118100485Y-83001827D01*
X118177647Y-83153266D01*
X118294731Y-83314418D01*
X118435582Y-83455269D01*
X118596734Y-83572353D01*
X118666453Y-83607877D01*
X118748172Y-83649515D01*
X118798968Y-83697490D01*
X118815763Y-83765311D01*
X118793225Y-83831446D01*
X118748172Y-83870485D01*
X118596733Y-83947647D01*
X118504790Y-84014447D01*
X118435582Y-84064731D01*
X118435580Y-84064733D01*
X118435579Y-84064733D01*
X118294733Y-84205579D01*
X118294733Y-84205580D01*
X118294731Y-84205582D01*
X118272940Y-84235575D01*
X118177647Y-84366733D01*
X118087213Y-84544219D01*
X118025661Y-84733656D01*
X118025661Y-84733659D01*
X117994500Y-84930403D01*
X117994500Y-85129596D01*
X118025661Y-85326340D01*
X118025661Y-85326343D01*
X118087213Y-85515780D01*
X118100485Y-85541827D01*
X118177647Y-85693266D01*
X118294731Y-85854418D01*
X118435582Y-85995269D01*
X118596734Y-86112353D01*
X118666453Y-86147877D01*
X118748172Y-86189515D01*
X118798968Y-86237490D01*
X118815763Y-86305311D01*
X118793225Y-86371446D01*
X118748172Y-86410485D01*
X118596733Y-86487647D01*
X118504790Y-86554447D01*
X118435582Y-86604731D01*
X118435580Y-86604733D01*
X118435579Y-86604733D01*
X118294733Y-86745579D01*
X118294733Y-86745580D01*
X118294731Y-86745582D01*
X118244447Y-86814790D01*
X118177647Y-86906733D01*
X118087213Y-87084219D01*
X118025661Y-87273656D01*
X118025661Y-87273659D01*
X117994500Y-87470403D01*
X117994500Y-87669596D01*
X118025661Y-87866340D01*
X118025661Y-87866343D01*
X118087213Y-88055780D01*
X118100485Y-88081827D01*
X118177647Y-88233266D01*
X118294731Y-88394418D01*
X118435582Y-88535269D01*
X118596734Y-88652353D01*
X118666453Y-88687877D01*
X118748172Y-88729515D01*
X118798968Y-88777490D01*
X118815763Y-88845311D01*
X118793225Y-88911446D01*
X118748172Y-88950485D01*
X118596733Y-89027647D01*
X118504790Y-89094447D01*
X118435582Y-89144731D01*
X118435580Y-89144733D01*
X118435579Y-89144733D01*
X118294733Y-89285579D01*
X118294733Y-89285580D01*
X118294731Y-89285582D01*
X118244447Y-89354790D01*
X118177647Y-89446733D01*
X118087213Y-89624219D01*
X118025661Y-89813656D01*
X118025661Y-89813659D01*
X117994500Y-90010403D01*
X117994500Y-90209596D01*
X118025661Y-90406340D01*
X118025661Y-90406343D01*
X118087213Y-90595780D01*
X118100485Y-90621827D01*
X118177647Y-90773266D01*
X118294731Y-90934418D01*
X118435582Y-91075269D01*
X118596734Y-91192353D01*
X118666453Y-91227877D01*
X118748172Y-91269515D01*
X118798968Y-91317490D01*
X118815763Y-91385311D01*
X118793225Y-91451446D01*
X118748172Y-91490485D01*
X118596733Y-91567647D01*
X118504790Y-91634447D01*
X118435582Y-91684731D01*
X118435580Y-91684733D01*
X118435579Y-91684733D01*
X118294733Y-91825579D01*
X118294733Y-91825580D01*
X118294731Y-91825582D01*
X118244447Y-91894790D01*
X118177647Y-91986733D01*
X118087213Y-92164219D01*
X118025661Y-92353656D01*
X118025661Y-92353659D01*
X117994500Y-92550403D01*
X117994500Y-92749596D01*
X118025661Y-92946340D01*
X118025661Y-92946343D01*
X118087213Y-93135780D01*
X118100485Y-93161827D01*
X118177647Y-93313266D01*
X118294731Y-93474418D01*
X118435582Y-93615269D01*
X118596734Y-93732353D01*
X118666453Y-93767877D01*
X118748172Y-93809515D01*
X118798968Y-93857490D01*
X118815763Y-93925311D01*
X118793225Y-93991446D01*
X118748172Y-94030485D01*
X118596733Y-94107647D01*
X118504790Y-94174447D01*
X118435582Y-94224731D01*
X118435580Y-94224733D01*
X118435579Y-94224733D01*
X118294733Y-94365579D01*
X118294733Y-94365580D01*
X118294731Y-94365582D01*
X118244447Y-94434790D01*
X118177647Y-94526733D01*
X118087213Y-94704219D01*
X118025661Y-94893656D01*
X118025661Y-94893659D01*
X117994500Y-95090403D01*
X117994500Y-95289596D01*
X118025661Y-95486340D01*
X118025661Y-95486343D01*
X118087213Y-95675780D01*
X118160537Y-95819685D01*
X118177647Y-95853266D01*
X118294731Y-96014418D01*
X118435582Y-96155269D01*
X118596734Y-96272353D01*
X118642506Y-96295675D01*
X118748172Y-96349515D01*
X118798968Y-96397490D01*
X118815763Y-96465311D01*
X118793225Y-96531446D01*
X118748172Y-96570485D01*
X118596733Y-96647647D01*
X118510377Y-96710389D01*
X118435582Y-96764731D01*
X118435580Y-96764733D01*
X118435579Y-96764733D01*
X118294733Y-96905579D01*
X118294733Y-96905580D01*
X118294731Y-96905582D01*
X118244447Y-96974790D01*
X118177647Y-97066733D01*
X118087213Y-97244219D01*
X118025661Y-97433656D01*
X118025661Y-97433659D01*
X117994500Y-97630403D01*
X117994500Y-97829596D01*
X118025661Y-98026340D01*
X118025661Y-98026343D01*
X118087213Y-98215780D01*
X118177647Y-98393266D01*
X118294731Y-98554418D01*
X118435582Y-98695269D01*
X118596734Y-98812353D01*
X118666453Y-98847877D01*
X118748172Y-98889515D01*
X118798968Y-98937490D01*
X118815763Y-99005311D01*
X118793225Y-99071446D01*
X118748172Y-99110485D01*
X118596733Y-99187647D01*
X118504790Y-99254447D01*
X118435582Y-99304731D01*
X118435580Y-99304733D01*
X118435579Y-99304733D01*
X118294733Y-99445579D01*
X118294733Y-99445580D01*
X118294731Y-99445582D01*
X118244447Y-99514790D01*
X118177647Y-99606733D01*
X118087213Y-99784219D01*
X118025661Y-99973656D01*
X118025661Y-99973659D01*
X117994500Y-100170403D01*
X117994500Y-100369596D01*
X118025661Y-100566340D01*
X118025661Y-100566343D01*
X118087213Y-100755780D01*
X118100485Y-100781827D01*
X118177647Y-100933266D01*
X118294731Y-101094418D01*
X118435582Y-101235269D01*
X118596734Y-101352353D01*
X118666453Y-101387877D01*
X118748172Y-101429515D01*
X118798968Y-101477490D01*
X118815763Y-101545311D01*
X118793225Y-101611446D01*
X118748172Y-101650485D01*
X118596733Y-101727647D01*
X118504790Y-101794447D01*
X118435582Y-101844731D01*
X118435580Y-101844733D01*
X118435579Y-101844733D01*
X118294733Y-101985579D01*
X118294733Y-101985580D01*
X118294731Y-101985582D01*
X118244447Y-102054790D01*
X118177647Y-102146733D01*
X118087213Y-102324219D01*
X118025661Y-102513656D01*
X118025661Y-102513659D01*
X117994500Y-102710403D01*
X117994500Y-102909596D01*
X118025661Y-103106340D01*
X118025661Y-103106343D01*
X118087213Y-103295780D01*
X118100485Y-103321827D01*
X118177647Y-103473266D01*
X118294731Y-103634418D01*
X118435582Y-103775269D01*
X118596734Y-103892353D01*
X118666453Y-103927877D01*
X118748172Y-103969515D01*
X118798968Y-104017490D01*
X118815763Y-104085311D01*
X118793225Y-104151446D01*
X118748172Y-104190485D01*
X118596733Y-104267647D01*
X118504790Y-104334447D01*
X118435582Y-104384731D01*
X118435580Y-104384733D01*
X118435579Y-104384733D01*
X118294733Y-104525579D01*
X118294733Y-104525580D01*
X118294731Y-104525582D01*
X118244447Y-104594790D01*
X118177647Y-104686733D01*
X118087213Y-104864219D01*
X118025661Y-105053656D01*
X118025661Y-105053659D01*
X117994500Y-105250403D01*
X117994500Y-105449596D01*
X118025661Y-105646340D01*
X118025661Y-105646343D01*
X118087213Y-105835780D01*
X118100485Y-105861827D01*
X118177647Y-106013266D01*
X118294731Y-106174418D01*
X118435582Y-106315269D01*
X118596734Y-106432353D01*
X118666453Y-106467877D01*
X118748172Y-106509515D01*
X118798968Y-106557490D01*
X118815763Y-106625311D01*
X118793225Y-106691446D01*
X118748172Y-106730485D01*
X118596733Y-106807647D01*
X118504790Y-106874447D01*
X118435582Y-106924731D01*
X118435580Y-106924733D01*
X118435579Y-106924733D01*
X118294733Y-107065579D01*
X118294733Y-107065580D01*
X118294731Y-107065582D01*
X118244447Y-107134790D01*
X118177647Y-107226733D01*
X118087213Y-107404219D01*
X118025661Y-107593656D01*
X118025661Y-107593659D01*
X117994500Y-107790403D01*
X117994500Y-107989596D01*
X118025661Y-108186340D01*
X118025661Y-108186343D01*
X118087213Y-108375780D01*
X118100485Y-108401827D01*
X118177647Y-108553266D01*
X118294731Y-108714418D01*
X118435582Y-108855269D01*
X118596734Y-108972353D01*
X118666453Y-109007877D01*
X118748172Y-109049515D01*
X118798968Y-109097490D01*
X118815763Y-109165311D01*
X118793225Y-109231446D01*
X118748172Y-109270485D01*
X118596733Y-109347647D01*
X118504790Y-109414447D01*
X118435582Y-109464731D01*
X118435580Y-109464733D01*
X118435579Y-109464733D01*
X118294733Y-109605579D01*
X118294733Y-109605580D01*
X118294731Y-109605582D01*
X118244447Y-109674790D01*
X118177647Y-109766733D01*
X118087213Y-109944219D01*
X118025661Y-110133656D01*
X118025661Y-110133659D01*
X117994500Y-110330403D01*
X117994500Y-110529596D01*
X118025661Y-110726340D01*
X118025661Y-110726343D01*
X118087213Y-110915780D01*
X118087215Y-110915783D01*
X118177647Y-111093266D01*
X118294731Y-111254418D01*
X118435582Y-111395269D01*
X118596734Y-111512353D01*
X118774217Y-111602785D01*
X118774219Y-111602786D01*
X118963657Y-111664338D01*
X118963658Y-111664338D01*
X118963661Y-111664339D01*
X119160403Y-111695500D01*
X119160404Y-111695500D01*
X119359596Y-111695500D01*
X119359597Y-111695500D01*
X119556339Y-111664339D01*
X119556342Y-111664338D01*
X119556343Y-111664338D01*
X119745780Y-111602786D01*
X119745780Y-111602785D01*
X119745783Y-111602785D01*
X119923266Y-111512353D01*
X120084418Y-111395269D01*
X120225269Y-111254418D01*
X120342353Y-111093266D01*
X120419515Y-110941827D01*
X120467490Y-110891031D01*
X120535311Y-110874236D01*
X120601446Y-110896773D01*
X120640485Y-110941827D01*
X120717647Y-111093266D01*
X120834731Y-111254418D01*
X120975582Y-111395269D01*
X121136734Y-111512353D01*
X121314217Y-111602785D01*
X121314219Y-111602786D01*
X121503657Y-111664338D01*
X121503658Y-111664338D01*
X121503661Y-111664339D01*
X121700403Y-111695500D01*
X121700404Y-111695500D01*
X121899596Y-111695500D01*
X121899597Y-111695500D01*
X122096339Y-111664339D01*
X122096342Y-111664338D01*
X122096343Y-111664338D01*
X122285780Y-111602786D01*
X122285780Y-111602785D01*
X122285783Y-111602785D01*
X122463266Y-111512353D01*
X122624418Y-111395269D01*
X122765269Y-111254418D01*
X122882353Y-111093266D01*
X122972785Y-110915783D01*
X122980827Y-110891031D01*
X123034338Y-110726343D01*
X123034338Y-110726342D01*
X123034339Y-110726339D01*
X123065500Y-110529597D01*
X123065500Y-110330403D01*
X123034339Y-110133661D01*
X123034338Y-110133657D01*
X123034338Y-110133656D01*
X122972786Y-109944219D01*
X122882352Y-109766733D01*
X122765269Y-109605582D01*
X122624418Y-109464731D01*
X122463266Y-109347647D01*
X122311827Y-109270485D01*
X122261031Y-109222510D01*
X122244236Y-109154689D01*
X122266773Y-109088554D01*
X122311827Y-109049515D01*
X122321116Y-109044781D01*
X122463266Y-108972353D01*
X122624418Y-108855269D01*
X122765269Y-108714418D01*
X122882353Y-108553266D01*
X122972785Y-108375783D01*
X122985140Y-108337758D01*
X123034338Y-108186343D01*
X123034338Y-108186342D01*
X123034339Y-108186339D01*
X123065500Y-107989597D01*
X123065500Y-107790403D01*
X123034339Y-107593661D01*
X123034338Y-107593657D01*
X123034338Y-107593656D01*
X122972786Y-107404219D01*
X122882352Y-107226733D01*
X122765269Y-107065582D01*
X122624418Y-106924731D01*
X122463266Y-106807647D01*
X122311827Y-106730485D01*
X122261031Y-106682510D01*
X122244236Y-106614689D01*
X122266773Y-106548554D01*
X122311827Y-106509515D01*
X122321116Y-106504781D01*
X122463266Y-106432353D01*
X122624418Y-106315269D01*
X122765269Y-106174418D01*
X122882353Y-106013266D01*
X122972785Y-105835783D01*
X122985140Y-105797758D01*
X123034338Y-105646343D01*
X123034338Y-105646342D01*
X123034339Y-105646339D01*
X123065500Y-105449597D01*
X123065500Y-105250403D01*
X123034339Y-105053661D01*
X123034338Y-105053657D01*
X123034338Y-105053656D01*
X122972786Y-104864219D01*
X122882352Y-104686733D01*
X122765269Y-104525582D01*
X122624418Y-104384731D01*
X122463266Y-104267647D01*
X122311827Y-104190485D01*
X122261031Y-104142510D01*
X122244236Y-104074689D01*
X122266773Y-104008554D01*
X122311827Y-103969515D01*
X122321116Y-103964781D01*
X122463266Y-103892353D01*
X122624418Y-103775269D01*
X122765269Y-103634418D01*
X122882353Y-103473266D01*
X122972785Y-103295783D01*
X122985140Y-103257758D01*
X123034338Y-103106343D01*
X123034338Y-103106342D01*
X123034339Y-103106339D01*
X123065500Y-102909597D01*
X123065500Y-102710403D01*
X123034339Y-102513661D01*
X123034338Y-102513657D01*
X123034338Y-102513656D01*
X122972786Y-102324219D01*
X122882352Y-102146733D01*
X122765269Y-101985582D01*
X122624418Y-101844731D01*
X122463266Y-101727647D01*
X122311827Y-101650485D01*
X122261031Y-101602510D01*
X122244236Y-101534689D01*
X122266773Y-101468554D01*
X122311827Y-101429515D01*
X122321116Y-101424781D01*
X122463266Y-101352353D01*
X122624418Y-101235269D01*
X122765269Y-101094418D01*
X122882353Y-100933266D01*
X122972785Y-100755783D01*
X122985140Y-100717758D01*
X123034338Y-100566343D01*
X123034338Y-100566342D01*
X123034339Y-100566339D01*
X123065500Y-100369597D01*
X123065500Y-100170403D01*
X123034339Y-99973661D01*
X123034338Y-99973657D01*
X123034338Y-99973656D01*
X122972786Y-99784219D01*
X122952548Y-99744499D01*
X122882353Y-99606734D01*
X122765269Y-99445582D01*
X122624418Y-99304731D01*
X122463266Y-99187647D01*
X122311827Y-99110485D01*
X122261031Y-99062510D01*
X122244236Y-98994689D01*
X122266773Y-98928554D01*
X122311827Y-98889515D01*
X122321116Y-98884781D01*
X122368263Y-98860759D01*
X130095500Y-98860759D01*
X130095500Y-99019240D01*
X130126414Y-99174656D01*
X130126416Y-99174664D01*
X130187059Y-99321071D01*
X130187064Y-99321080D01*
X130275103Y-99452838D01*
X130275106Y-99452842D01*
X130387157Y-99564893D01*
X130387161Y-99564896D01*
X130518919Y-99652935D01*
X130518925Y-99652938D01*
X130518926Y-99652939D01*
X130665336Y-99713584D01*
X130789021Y-99738186D01*
X130820759Y-99744499D01*
X130820763Y-99744500D01*
X130820764Y-99744500D01*
X130979237Y-99744500D01*
X130979238Y-99744499D01*
X131134664Y-99713584D01*
X131281074Y-99652939D01*
X131412839Y-99564896D01*
X131524896Y-99452839D01*
X131612939Y-99321074D01*
X131673584Y-99174664D01*
X131704500Y-99019236D01*
X131704500Y-98860764D01*
X131704499Y-98860759D01*
X132635500Y-98860759D01*
X132635500Y-99019240D01*
X132666414Y-99174656D01*
X132666416Y-99174664D01*
X132727059Y-99321071D01*
X132727064Y-99321080D01*
X132815103Y-99452838D01*
X132815106Y-99452842D01*
X132927157Y-99564893D01*
X132927161Y-99564896D01*
X133058919Y-99652935D01*
X133058925Y-99652938D01*
X133058926Y-99652939D01*
X133205336Y-99713584D01*
X133329021Y-99738186D01*
X133360759Y-99744499D01*
X133360763Y-99744500D01*
X133360764Y-99744500D01*
X133519237Y-99744500D01*
X133519238Y-99744499D01*
X133674664Y-99713584D01*
X133821074Y-99652939D01*
X133952839Y-99564896D01*
X134064896Y-99452839D01*
X134152939Y-99321074D01*
X134213584Y-99174664D01*
X134244500Y-99019236D01*
X134244500Y-98860764D01*
X134244499Y-98860759D01*
X135175500Y-98860759D01*
X135175500Y-99019240D01*
X135206414Y-99174656D01*
X135206416Y-99174664D01*
X135267059Y-99321071D01*
X135267064Y-99321080D01*
X135355103Y-99452838D01*
X135355106Y-99452842D01*
X135467157Y-99564893D01*
X135467161Y-99564896D01*
X135598919Y-99652935D01*
X135598925Y-99652938D01*
X135598926Y-99652939D01*
X135745336Y-99713584D01*
X135869021Y-99738186D01*
X135900759Y-99744499D01*
X135900763Y-99744500D01*
X135900764Y-99744500D01*
X136059237Y-99744500D01*
X136059238Y-99744499D01*
X136214664Y-99713584D01*
X136361074Y-99652939D01*
X136492839Y-99564896D01*
X136604896Y-99452839D01*
X136692939Y-99321074D01*
X136753584Y-99174664D01*
X136784500Y-99019236D01*
X136784500Y-98946010D01*
X155136500Y-98946010D01*
X155136500Y-99104491D01*
X155167414Y-99259907D01*
X155167416Y-99259915D01*
X155228059Y-99406322D01*
X155228064Y-99406331D01*
X155316103Y-99538089D01*
X155316106Y-99538093D01*
X155428157Y-99650144D01*
X155428161Y-99650147D01*
X155559919Y-99738186D01*
X155559928Y-99738191D01*
X155593095Y-99751929D01*
X155706336Y-99798835D01*
X155841715Y-99825763D01*
X155861759Y-99829750D01*
X155861763Y-99829751D01*
X155861764Y-99829751D01*
X156020237Y-99829751D01*
X156020238Y-99829750D01*
X156175664Y-99798835D01*
X156322074Y-99738190D01*
X156453839Y-99650147D01*
X156565896Y-99538090D01*
X156653939Y-99406325D01*
X156714584Y-99259915D01*
X156745500Y-99104487D01*
X156745500Y-98946015D01*
X156745499Y-98946010D01*
X157676500Y-98946010D01*
X157676500Y-99104491D01*
X157707414Y-99259907D01*
X157707416Y-99259915D01*
X157768059Y-99406322D01*
X157768064Y-99406331D01*
X157856103Y-99538089D01*
X157856106Y-99538093D01*
X157968157Y-99650144D01*
X157968161Y-99650147D01*
X158099919Y-99738186D01*
X158099928Y-99738191D01*
X158133095Y-99751929D01*
X158246336Y-99798835D01*
X158381715Y-99825763D01*
X158401759Y-99829750D01*
X158401763Y-99829751D01*
X158401764Y-99829751D01*
X158560237Y-99829751D01*
X158560238Y-99829750D01*
X158715664Y-99798835D01*
X158862074Y-99738190D01*
X158993839Y-99650147D01*
X159105896Y-99538090D01*
X159193939Y-99406325D01*
X159254584Y-99259915D01*
X159285500Y-99104487D01*
X159285500Y-98946015D01*
X159254584Y-98790587D01*
X159193939Y-98644177D01*
X159193938Y-98644176D01*
X159193935Y-98644170D01*
X159105896Y-98512412D01*
X159105893Y-98512408D01*
X158993842Y-98400357D01*
X158993838Y-98400354D01*
X158862080Y-98312315D01*
X158862071Y-98312310D01*
X158715664Y-98251667D01*
X158715656Y-98251665D01*
X158560240Y-98220751D01*
X158560236Y-98220751D01*
X158401764Y-98220751D01*
X158401759Y-98220751D01*
X158246343Y-98251665D01*
X158246335Y-98251667D01*
X158099928Y-98312310D01*
X158099919Y-98312315D01*
X157968161Y-98400354D01*
X157968157Y-98400357D01*
X157856106Y-98512408D01*
X157856103Y-98512412D01*
X157768064Y-98644170D01*
X157768059Y-98644179D01*
X157707416Y-98790586D01*
X157707414Y-98790594D01*
X157676500Y-98946010D01*
X156745499Y-98946010D01*
X156714584Y-98790587D01*
X156653939Y-98644177D01*
X156653938Y-98644176D01*
X156653935Y-98644170D01*
X156565896Y-98512412D01*
X156565893Y-98512408D01*
X156453842Y-98400357D01*
X156453838Y-98400354D01*
X156322080Y-98312315D01*
X156322071Y-98312310D01*
X156175664Y-98251667D01*
X156175656Y-98251665D01*
X156020240Y-98220751D01*
X156020236Y-98220751D01*
X155861764Y-98220751D01*
X155861759Y-98220751D01*
X155706343Y-98251665D01*
X155706335Y-98251667D01*
X155559928Y-98312310D01*
X155559919Y-98312315D01*
X155428161Y-98400354D01*
X155428157Y-98400357D01*
X155316106Y-98512408D01*
X155316103Y-98512412D01*
X155228064Y-98644170D01*
X155228059Y-98644179D01*
X155167416Y-98790586D01*
X155167414Y-98790594D01*
X155136500Y-98946010D01*
X136784500Y-98946010D01*
X136784500Y-98860764D01*
X136753584Y-98705336D01*
X136692939Y-98558926D01*
X136692938Y-98558925D01*
X136692935Y-98558919D01*
X136604896Y-98427161D01*
X136604893Y-98427157D01*
X136492842Y-98315106D01*
X136492838Y-98315103D01*
X136361080Y-98227064D01*
X136361071Y-98227059D01*
X136214664Y-98166416D01*
X136214656Y-98166414D01*
X136059240Y-98135500D01*
X136059236Y-98135500D01*
X135900764Y-98135500D01*
X135900759Y-98135500D01*
X135745343Y-98166414D01*
X135745335Y-98166416D01*
X135598928Y-98227059D01*
X135598919Y-98227064D01*
X135467161Y-98315103D01*
X135467157Y-98315106D01*
X135355106Y-98427157D01*
X135355103Y-98427161D01*
X135267064Y-98558919D01*
X135267059Y-98558928D01*
X135206416Y-98705335D01*
X135206414Y-98705343D01*
X135175500Y-98860759D01*
X134244499Y-98860759D01*
X134213584Y-98705336D01*
X134152939Y-98558926D01*
X134152938Y-98558925D01*
X134152935Y-98558919D01*
X134064896Y-98427161D01*
X134064893Y-98427157D01*
X133952842Y-98315106D01*
X133952838Y-98315103D01*
X133821080Y-98227064D01*
X133821071Y-98227059D01*
X133674664Y-98166416D01*
X133674656Y-98166414D01*
X133519240Y-98135500D01*
X133519236Y-98135500D01*
X133360764Y-98135500D01*
X133360759Y-98135500D01*
X133205343Y-98166414D01*
X133205335Y-98166416D01*
X133058928Y-98227059D01*
X133058919Y-98227064D01*
X132927161Y-98315103D01*
X132927157Y-98315106D01*
X132815106Y-98427157D01*
X132815103Y-98427161D01*
X132727064Y-98558919D01*
X132727059Y-98558928D01*
X132666416Y-98705335D01*
X132666414Y-98705343D01*
X132635500Y-98860759D01*
X131704499Y-98860759D01*
X131673584Y-98705336D01*
X131612939Y-98558926D01*
X131612938Y-98558925D01*
X131612935Y-98558919D01*
X131524896Y-98427161D01*
X131524893Y-98427157D01*
X131412842Y-98315106D01*
X131412838Y-98315103D01*
X131281080Y-98227064D01*
X131281071Y-98227059D01*
X131134664Y-98166416D01*
X131134656Y-98166414D01*
X130979240Y-98135500D01*
X130979236Y-98135500D01*
X130820764Y-98135500D01*
X130820759Y-98135500D01*
X130665343Y-98166414D01*
X130665335Y-98166416D01*
X130518928Y-98227059D01*
X130518919Y-98227064D01*
X130387161Y-98315103D01*
X130387157Y-98315106D01*
X130275106Y-98427157D01*
X130275103Y-98427161D01*
X130187064Y-98558919D01*
X130187059Y-98558928D01*
X130126416Y-98705335D01*
X130126414Y-98705343D01*
X130095500Y-98860759D01*
X122368263Y-98860759D01*
X122463266Y-98812353D01*
X122624418Y-98695269D01*
X122765269Y-98554418D01*
X122882353Y-98393266D01*
X122972785Y-98215783D01*
X122985140Y-98177758D01*
X123034338Y-98026343D01*
X123034338Y-98026342D01*
X123034339Y-98026339D01*
X123065500Y-97829597D01*
X123065500Y-97630403D01*
X123034339Y-97433661D01*
X123034338Y-97433657D01*
X123034338Y-97433656D01*
X122972786Y-97244219D01*
X122940047Y-97179965D01*
X122882353Y-97066734D01*
X122765269Y-96905582D01*
X122624418Y-96764731D01*
X122463266Y-96647647D01*
X122311827Y-96570485D01*
X122261031Y-96522510D01*
X122244236Y-96454689D01*
X122266773Y-96388554D01*
X122311827Y-96349515D01*
X122321116Y-96344781D01*
X122463266Y-96272353D01*
X122624418Y-96155269D01*
X122765269Y-96014418D01*
X122882353Y-95853266D01*
X122972785Y-95675783D01*
X122985140Y-95637758D01*
X123034338Y-95486343D01*
X123034338Y-95486342D01*
X123034339Y-95486339D01*
X123065500Y-95289597D01*
X123065500Y-95090403D01*
X123034339Y-94893661D01*
X123034338Y-94893657D01*
X123034338Y-94893656D01*
X122972786Y-94704219D01*
X122882352Y-94526733D01*
X122765269Y-94365582D01*
X122624418Y-94224731D01*
X122463266Y-94107647D01*
X122311827Y-94030485D01*
X122261031Y-93982510D01*
X122244236Y-93914689D01*
X122266773Y-93848554D01*
X122311827Y-93809515D01*
X122321116Y-93804781D01*
X122463266Y-93732353D01*
X122624418Y-93615269D01*
X122765269Y-93474418D01*
X122882353Y-93313266D01*
X122972785Y-93135783D01*
X122985140Y-93097758D01*
X123034338Y-92946343D01*
X123034338Y-92946342D01*
X123034339Y-92946339D01*
X123065500Y-92749597D01*
X123065500Y-92550403D01*
X123034339Y-92353661D01*
X123034338Y-92353657D01*
X123034338Y-92353656D01*
X122972786Y-92164219D01*
X122882352Y-91986733D01*
X122765269Y-91825582D01*
X122624418Y-91684731D01*
X122463266Y-91567647D01*
X122311827Y-91490485D01*
X122261031Y-91442510D01*
X122244236Y-91374689D01*
X122266773Y-91308554D01*
X122311827Y-91269515D01*
X122321116Y-91264781D01*
X122463266Y-91192353D01*
X122624418Y-91075269D01*
X122765269Y-90934418D01*
X122882353Y-90773266D01*
X122972785Y-90595783D01*
X122985140Y-90557758D01*
X123034338Y-90406343D01*
X123034338Y-90406342D01*
X123034339Y-90406339D01*
X123065500Y-90209597D01*
X123065500Y-90010403D01*
X123034339Y-89813661D01*
X123034338Y-89813657D01*
X123034338Y-89813656D01*
X122972786Y-89624219D01*
X122882352Y-89446733D01*
X122765269Y-89285582D01*
X122624418Y-89144731D01*
X122463266Y-89027647D01*
X122311827Y-88950485D01*
X122261031Y-88902510D01*
X122244236Y-88834689D01*
X122266773Y-88768554D01*
X122311827Y-88729515D01*
X122321116Y-88724781D01*
X122463266Y-88652353D01*
X122624418Y-88535269D01*
X122765269Y-88394418D01*
X122882353Y-88233266D01*
X122972785Y-88055783D01*
X122985140Y-88017758D01*
X123034338Y-87866343D01*
X123034338Y-87866342D01*
X123034339Y-87866339D01*
X123065500Y-87669597D01*
X123065500Y-87470403D01*
X123034339Y-87273661D01*
X123034338Y-87273657D01*
X123034338Y-87273656D01*
X122972786Y-87084219D01*
X122882352Y-86906733D01*
X122765269Y-86745582D01*
X122624418Y-86604731D01*
X122463266Y-86487647D01*
X122311827Y-86410485D01*
X122261031Y-86362510D01*
X122244236Y-86294689D01*
X122266773Y-86228554D01*
X122311827Y-86189515D01*
X122321116Y-86184781D01*
X122463266Y-86112353D01*
X122624418Y-85995269D01*
X122765269Y-85854418D01*
X122882353Y-85693266D01*
X122972785Y-85515783D01*
X122985140Y-85477758D01*
X123034338Y-85326343D01*
X123034338Y-85326342D01*
X123034339Y-85326339D01*
X123065500Y-85129597D01*
X123065500Y-84930403D01*
X123034339Y-84733661D01*
X123034338Y-84733657D01*
X123034338Y-84733656D01*
X122972786Y-84544219D01*
X122882352Y-84366733D01*
X122765269Y-84205582D01*
X122624418Y-84064731D01*
X122463266Y-83947647D01*
X122311827Y-83870485D01*
X122261031Y-83822510D01*
X122244236Y-83754689D01*
X122266773Y-83688554D01*
X122311827Y-83649515D01*
X122321116Y-83644781D01*
X122463266Y-83572353D01*
X122624418Y-83455269D01*
X122765269Y-83314418D01*
X122882353Y-83153266D01*
X122972785Y-82975783D01*
X122985140Y-82937758D01*
X123034338Y-82786343D01*
X123034338Y-82786342D01*
X123034339Y-82786339D01*
X123065500Y-82589597D01*
X123065500Y-82400000D01*
X127600000Y-82400000D01*
X127600000Y-95400000D01*
X129450500Y-95400000D01*
X129517539Y-95419685D01*
X129563294Y-95472489D01*
X129574500Y-95524000D01*
X129574500Y-97272870D01*
X129574501Y-97272876D01*
X129580908Y-97332483D01*
X129631202Y-97467328D01*
X129631206Y-97467335D01*
X129717452Y-97582544D01*
X129717455Y-97582547D01*
X129832664Y-97668793D01*
X129832671Y-97668797D01*
X129967517Y-97719091D01*
X129967516Y-97719091D01*
X129974444Y-97719835D01*
X130027127Y-97725500D01*
X131772872Y-97725499D01*
X131832483Y-97719091D01*
X131967331Y-97668796D01*
X132082546Y-97582546D01*
X132168796Y-97467331D01*
X132219091Y-97332483D01*
X132219091Y-97332481D01*
X132220874Y-97324938D01*
X132223757Y-97325619D01*
X132245147Y-97273896D01*
X132302517Y-97234014D01*
X132372340Y-97231480D01*
X132429425Y-97263965D01*
X132576495Y-97411035D01*
X132745286Y-97533670D01*
X132833116Y-97578421D01*
X132931179Y-97628387D01*
X132931181Y-97628387D01*
X132931184Y-97628389D01*
X133037545Y-97662948D01*
X133129610Y-97692862D01*
X133335676Y-97725500D01*
X133335681Y-97725500D01*
X133544324Y-97725500D01*
X133750389Y-97692862D01*
X133948816Y-97628389D01*
X134134714Y-97533670D01*
X134303505Y-97411035D01*
X134451035Y-97263505D01*
X134573670Y-97094714D01*
X134599515Y-97043990D01*
X134647489Y-96993194D01*
X134715310Y-96976398D01*
X134781445Y-96998935D01*
X134820485Y-97043990D01*
X134846328Y-97094712D01*
X134908269Y-97179965D01*
X134968965Y-97263505D01*
X135116495Y-97411035D01*
X135285286Y-97533670D01*
X135373116Y-97578421D01*
X135471179Y-97628387D01*
X135471181Y-97628387D01*
X135471184Y-97628389D01*
X135577545Y-97662948D01*
X135669610Y-97692862D01*
X135875676Y-97725500D01*
X135875681Y-97725500D01*
X136084324Y-97725500D01*
X136290389Y-97692862D01*
X136488816Y-97628389D01*
X136674714Y-97533670D01*
X136843505Y-97411035D01*
X136991035Y-97263505D01*
X137113670Y-97094714D01*
X137208389Y-96908816D01*
X137272862Y-96710389D01*
X137305500Y-96504324D01*
X137305500Y-96295675D01*
X137272862Y-96089610D01*
X137227232Y-95949177D01*
X137208389Y-95891184D01*
X137208387Y-95891181D01*
X137208387Y-95891179D01*
X137113669Y-95705285D01*
X137092234Y-95675783D01*
X137034911Y-95596885D01*
X137011432Y-95531080D01*
X137027257Y-95463026D01*
X137077363Y-95414331D01*
X137135230Y-95400000D01*
X140400000Y-95400000D01*
X140400000Y-84200000D01*
X151800000Y-84200000D01*
X151800061Y-84235574D01*
X151800061Y-84235575D01*
X151803613Y-86295500D01*
X151820000Y-95800000D01*
X154491500Y-95800000D01*
X154558539Y-95819685D01*
X154604294Y-95872489D01*
X154615500Y-95924000D01*
X154615500Y-97358121D01*
X154615501Y-97358127D01*
X154621908Y-97417734D01*
X154672202Y-97552579D01*
X154672206Y-97552586D01*
X154758452Y-97667795D01*
X154758455Y-97667798D01*
X154873664Y-97754044D01*
X154873671Y-97754048D01*
X155008517Y-97804342D01*
X155008516Y-97804342D01*
X155015444Y-97805086D01*
X155068127Y-97810751D01*
X156813872Y-97810750D01*
X156873483Y-97804342D01*
X157008331Y-97754047D01*
X157123546Y-97667797D01*
X157209796Y-97552582D01*
X157260091Y-97417734D01*
X157260091Y-97417732D01*
X157261874Y-97410189D01*
X157264757Y-97410870D01*
X157286147Y-97359147D01*
X157343517Y-97319265D01*
X157413340Y-97316731D01*
X157470425Y-97349216D01*
X157617495Y-97496286D01*
X157786286Y-97618921D01*
X157874116Y-97663672D01*
X157972179Y-97713638D01*
X157972181Y-97713638D01*
X157972184Y-97713640D01*
X158078545Y-97748199D01*
X158170610Y-97778113D01*
X158376676Y-97810751D01*
X158376681Y-97810751D01*
X158585324Y-97810751D01*
X158791389Y-97778113D01*
X158989816Y-97713640D01*
X159175714Y-97618921D01*
X159344505Y-97496286D01*
X159492035Y-97348756D01*
X159614670Y-97179965D01*
X159709389Y-96994067D01*
X159773862Y-96795640D01*
X159778757Y-96764733D01*
X159806500Y-96589575D01*
X159806500Y-96380926D01*
X159787512Y-96261048D01*
X159773862Y-96174862D01*
X159773861Y-96174858D01*
X159773861Y-96174857D01*
X159709390Y-95976438D01*
X159707528Y-95971942D01*
X159709639Y-95971067D01*
X159698451Y-95911709D01*
X159724684Y-95846951D01*
X159781763Y-95806655D01*
X159821840Y-95800000D01*
X167740000Y-95800000D01*
X167700000Y-84200000D01*
X167624000Y-84200000D01*
X167556961Y-84180315D01*
X167511206Y-84127511D01*
X167500000Y-84076000D01*
X167500000Y-72350000D01*
X152000000Y-72350000D01*
X152000000Y-84076000D01*
X151993624Y-84097712D01*
X151991827Y-84120273D01*
X151983969Y-84130594D01*
X151980315Y-84143039D01*
X151963214Y-84157856D01*
X151949504Y-84175866D01*
X151930983Y-84185784D01*
X151927511Y-84188794D01*
X151923896Y-84189580D01*
X151918391Y-84192529D01*
X151897854Y-84200000D01*
X151800000Y-84200000D01*
X140400000Y-84200000D01*
X140400000Y-82400000D01*
X138124000Y-82400000D01*
X138056961Y-82380315D01*
X138011206Y-82327511D01*
X138000000Y-82276000D01*
X138000000Y-72000000D01*
X131500000Y-72000000D01*
X131500000Y-82276000D01*
X131480315Y-82343039D01*
X131427511Y-82388794D01*
X131376000Y-82400000D01*
X127600000Y-82400000D01*
X123065500Y-82400000D01*
X123065500Y-82390403D01*
X123034339Y-82193661D01*
X123034338Y-82193657D01*
X123034338Y-82193656D01*
X122972786Y-82004219D01*
X122882352Y-81826733D01*
X122765269Y-81665582D01*
X122624418Y-81524731D01*
X122463266Y-81407647D01*
X122463262Y-81407645D01*
X122311277Y-81330204D01*
X122260481Y-81282229D01*
X122243686Y-81214408D01*
X122266224Y-81148273D01*
X122311277Y-81109234D01*
X122463005Y-81031924D01*
X122500863Y-81004418D01*
X122500863Y-81004417D01*
X121937574Y-80441128D01*
X121996853Y-80425245D01*
X122113147Y-80358102D01*
X122208102Y-80263147D01*
X122275245Y-80146853D01*
X122291128Y-80087574D01*
X122854417Y-80650863D01*
X122854418Y-80650863D01*
X122881924Y-80613005D01*
X122972320Y-80435594D01*
X123033852Y-80246222D01*
X123065000Y-80049563D01*
X123065000Y-79850436D01*
X123033852Y-79653777D01*
X122972320Y-79464405D01*
X122881924Y-79286994D01*
X122854417Y-79249135D01*
X122854417Y-79249134D01*
X122291128Y-79812424D01*
X122275245Y-79753147D01*
X122208102Y-79636853D01*
X122113147Y-79541898D01*
X121996853Y-79474755D01*
X121937574Y-79458871D01*
X122500864Y-78895581D01*
X122500863Y-78895580D01*
X122463008Y-78868077D01*
X122310727Y-78790485D01*
X122259931Y-78742510D01*
X122243136Y-78674689D01*
X122265674Y-78608554D01*
X122310727Y-78569515D01*
X122463005Y-78491924D01*
X122500863Y-78464418D01*
X122500863Y-78464417D01*
X121937574Y-77901128D01*
X121996853Y-77885245D01*
X122113147Y-77818102D01*
X122208102Y-77723147D01*
X122275245Y-77606853D01*
X122291128Y-77547574D01*
X122854417Y-78110863D01*
X122854418Y-78110863D01*
X122881924Y-78073005D01*
X122972320Y-77895594D01*
X123033852Y-77706222D01*
X123065000Y-77509563D01*
X123065000Y-77310436D01*
X123033852Y-77113777D01*
X122972320Y-76924405D01*
X122881924Y-76746994D01*
X122854417Y-76709135D01*
X122854417Y-76709134D01*
X122291128Y-77272424D01*
X122275245Y-77213147D01*
X122208102Y-77096853D01*
X122113147Y-77001898D01*
X121996853Y-76934755D01*
X121937574Y-76918871D01*
X122500864Y-76355581D01*
X122500863Y-76355580D01*
X122463008Y-76328077D01*
X122311277Y-76250765D01*
X122260481Y-76202790D01*
X122243686Y-76134969D01*
X122266224Y-76068834D01*
X122311277Y-76029795D01*
X122311827Y-76029515D01*
X122463266Y-75952353D01*
X122624418Y-75835269D01*
X122765269Y-75694418D01*
X122882353Y-75533266D01*
X122972785Y-75355783D01*
X122980827Y-75331031D01*
X123034338Y-75166343D01*
X123034338Y-75166342D01*
X123034339Y-75166339D01*
X123065500Y-74969597D01*
X123065500Y-74770403D01*
X123034339Y-74573661D01*
X123034338Y-74573657D01*
X123034338Y-74573656D01*
X122972786Y-74384219D01*
X122882352Y-74206733D01*
X122765269Y-74045582D01*
X122624418Y-73904731D01*
X122463266Y-73787647D01*
X122311827Y-73710485D01*
X122261031Y-73662510D01*
X122244236Y-73594689D01*
X122266773Y-73528554D01*
X122311827Y-73489515D01*
X122333612Y-73478415D01*
X122463266Y-73412353D01*
X122624418Y-73295269D01*
X122765269Y-73154418D01*
X122823754Y-73073920D01*
X129249499Y-73073920D01*
X129278340Y-73218907D01*
X129278343Y-73218917D01*
X129334912Y-73355488D01*
X129334919Y-73355501D01*
X129417048Y-73478415D01*
X129417051Y-73478419D01*
X129521580Y-73582948D01*
X129521584Y-73582951D01*
X129644498Y-73665080D01*
X129644511Y-73665087D01*
X129722076Y-73697215D01*
X129781087Y-73721658D01*
X129781091Y-73721658D01*
X129781092Y-73721659D01*
X129926079Y-73750500D01*
X129926082Y-73750500D01*
X130073920Y-73750500D01*
X130171462Y-73731096D01*
X130218913Y-73721658D01*
X130355495Y-73665084D01*
X130478416Y-73582951D01*
X130582951Y-73478416D01*
X130665084Y-73355495D01*
X130721658Y-73218913D01*
X130750500Y-73073918D01*
X130750500Y-72926082D01*
X130750500Y-72926079D01*
X130721659Y-72781092D01*
X130721658Y-72781091D01*
X130721658Y-72781087D01*
X130718820Y-72774236D01*
X130665087Y-72644511D01*
X130665080Y-72644498D01*
X130582951Y-72521584D01*
X130582948Y-72521580D01*
X130478419Y-72417051D01*
X130478415Y-72417048D01*
X130355501Y-72334919D01*
X130355488Y-72334912D01*
X130218917Y-72278343D01*
X130218907Y-72278340D01*
X130073920Y-72249500D01*
X130073918Y-72249500D01*
X129926082Y-72249500D01*
X129926080Y-72249500D01*
X129781092Y-72278340D01*
X129781082Y-72278343D01*
X129644511Y-72334912D01*
X129644498Y-72334919D01*
X129521584Y-72417048D01*
X129521580Y-72417051D01*
X129417051Y-72521580D01*
X129417048Y-72521584D01*
X129334919Y-72644498D01*
X129334912Y-72644511D01*
X129278343Y-72781082D01*
X129278340Y-72781092D01*
X129249500Y-72926079D01*
X129249500Y-72926082D01*
X129249500Y-73073918D01*
X129249500Y-73073920D01*
X129249499Y-73073920D01*
X122823754Y-73073920D01*
X122882353Y-72993266D01*
X122972785Y-72815783D01*
X123034339Y-72626339D01*
X123065500Y-72429597D01*
X123065500Y-72230403D01*
X123034339Y-72033661D01*
X123034338Y-72033657D01*
X123034338Y-72033656D01*
X122972786Y-71844219D01*
X122882352Y-71666733D01*
X122765269Y-71505582D01*
X122624418Y-71364731D01*
X122463266Y-71247647D01*
X122311827Y-71170485D01*
X122261031Y-71122510D01*
X122244236Y-71054689D01*
X122266773Y-70988554D01*
X122311827Y-70949515D01*
X122321116Y-70944781D01*
X122463266Y-70872353D01*
X122624418Y-70755269D01*
X122765269Y-70614418D01*
X122882353Y-70453266D01*
X122972785Y-70275783D01*
X122980827Y-70251031D01*
X123034338Y-70086343D01*
X123034338Y-70086342D01*
X123034339Y-70086339D01*
X123065500Y-69889597D01*
X123065500Y-69690403D01*
X123034339Y-69493661D01*
X123034338Y-69493657D01*
X123034338Y-69493656D01*
X122972786Y-69304219D01*
X122882352Y-69126733D01*
X122765269Y-68965582D01*
X122624418Y-68824731D01*
X122463266Y-68707647D01*
X122311827Y-68630485D01*
X122261031Y-68582510D01*
X122244236Y-68514689D01*
X122266773Y-68448554D01*
X122311827Y-68409515D01*
X122321116Y-68404781D01*
X122463266Y-68332353D01*
X122624418Y-68215269D01*
X122765269Y-68074418D01*
X122882353Y-67913266D01*
X122972785Y-67735783D01*
X122985140Y-67697758D01*
X123034338Y-67546343D01*
X123034338Y-67546342D01*
X123034339Y-67546339D01*
X123065500Y-67349597D01*
X123065500Y-67150403D01*
X123034339Y-66953661D01*
X123034338Y-66953657D01*
X123034338Y-66953656D01*
X122972786Y-66764219D01*
X122882352Y-66586733D01*
X122800389Y-66473920D01*
X127749499Y-66473920D01*
X127778340Y-66618907D01*
X127778343Y-66618917D01*
X127834912Y-66755488D01*
X127834919Y-66755501D01*
X127917048Y-66878415D01*
X127917051Y-66878419D01*
X128021580Y-66982948D01*
X128021584Y-66982951D01*
X128144498Y-67065080D01*
X128144511Y-67065087D01*
X128281082Y-67121656D01*
X128281087Y-67121658D01*
X128281091Y-67121658D01*
X128281092Y-67121659D01*
X128426079Y-67150500D01*
X128426082Y-67150500D01*
X128573920Y-67150500D01*
X128671462Y-67131096D01*
X128718913Y-67121658D01*
X128855495Y-67065084D01*
X128978416Y-66982951D01*
X129082951Y-66878416D01*
X129165084Y-66755495D01*
X129221658Y-66618913D01*
X129250500Y-66473918D01*
X129250500Y-66326082D01*
X129250500Y-66326079D01*
X129221659Y-66181092D01*
X129221658Y-66181091D01*
X129221658Y-66181087D01*
X129178633Y-66077215D01*
X129165087Y-66044511D01*
X129165080Y-66044498D01*
X129082951Y-65921584D01*
X129082948Y-65921580D01*
X128978419Y-65817051D01*
X128978415Y-65817048D01*
X128855501Y-65734919D01*
X128855488Y-65734912D01*
X128718917Y-65678343D01*
X128718907Y-65678340D01*
X128573920Y-65649500D01*
X128573918Y-65649500D01*
X128426082Y-65649500D01*
X128426080Y-65649500D01*
X128281092Y-65678340D01*
X128281082Y-65678343D01*
X128144511Y-65734912D01*
X128144498Y-65734919D01*
X128021584Y-65817048D01*
X128021580Y-65817051D01*
X127917051Y-65921580D01*
X127917048Y-65921584D01*
X127834919Y-66044498D01*
X127834912Y-66044511D01*
X127778343Y-66181082D01*
X127778340Y-66181092D01*
X127749500Y-66326079D01*
X127749500Y-66326082D01*
X127749500Y-66473918D01*
X127749500Y-66473920D01*
X127749499Y-66473920D01*
X122800389Y-66473920D01*
X122765269Y-66425582D01*
X122624418Y-66284731D01*
X122463266Y-66167647D01*
X122311827Y-66090485D01*
X122261031Y-66042510D01*
X122244236Y-65974689D01*
X122266773Y-65908554D01*
X122311827Y-65869515D01*
X122321116Y-65864781D01*
X122463266Y-65792353D01*
X122624418Y-65675269D01*
X122765269Y-65534418D01*
X122882353Y-65373266D01*
X122932972Y-65273920D01*
X131049499Y-65273920D01*
X131078340Y-65418907D01*
X131078343Y-65418917D01*
X131134912Y-65555488D01*
X131134919Y-65555501D01*
X131217048Y-65678415D01*
X131217051Y-65678419D01*
X131321580Y-65782948D01*
X131321584Y-65782951D01*
X131444498Y-65865080D01*
X131444511Y-65865087D01*
X131580899Y-65921580D01*
X131581087Y-65921658D01*
X131581091Y-65921658D01*
X131581092Y-65921659D01*
X131726079Y-65950500D01*
X131726082Y-65950500D01*
X131873920Y-65950500D01*
X131971462Y-65931096D01*
X132018913Y-65921658D01*
X132155495Y-65865084D01*
X132278416Y-65782951D01*
X132382951Y-65678416D01*
X132465084Y-65555495D01*
X132521658Y-65418913D01*
X132550500Y-65273918D01*
X132550500Y-65126082D01*
X132550500Y-65126079D01*
X132521659Y-64981092D01*
X132521658Y-64981091D01*
X132521658Y-64981087D01*
X132521656Y-64981082D01*
X132465087Y-64844511D01*
X132465080Y-64844498D01*
X132382951Y-64721584D01*
X132382948Y-64721580D01*
X132278419Y-64617051D01*
X132278415Y-64617048D01*
X132155501Y-64534919D01*
X132155488Y-64534912D01*
X132018917Y-64478343D01*
X132018907Y-64478340D01*
X131873920Y-64449500D01*
X131873918Y-64449500D01*
X131726082Y-64449500D01*
X131726080Y-64449500D01*
X131581092Y-64478340D01*
X131581082Y-64478343D01*
X131444511Y-64534912D01*
X131444498Y-64534919D01*
X131321584Y-64617048D01*
X131321580Y-64617051D01*
X131217051Y-64721580D01*
X131217048Y-64721584D01*
X131134919Y-64844498D01*
X131134912Y-64844511D01*
X131078343Y-64981082D01*
X131078340Y-64981092D01*
X131049500Y-65126079D01*
X131049500Y-65126082D01*
X131049500Y-65273918D01*
X131049500Y-65273920D01*
X131049499Y-65273920D01*
X122932972Y-65273920D01*
X122972785Y-65195783D01*
X122978962Y-65176773D01*
X123009863Y-65081672D01*
X123009863Y-65081671D01*
X123034337Y-65006347D01*
X123034337Y-65006343D01*
X123034339Y-65006339D01*
X123065500Y-64809597D01*
X123065500Y-64610403D01*
X123034339Y-64413661D01*
X123034338Y-64413657D01*
X123034338Y-64413656D01*
X122972786Y-64224219D01*
X122898497Y-64078419D01*
X122882353Y-64046734D01*
X122765269Y-63885582D01*
X122624418Y-63744731D01*
X122526955Y-63673920D01*
X154449499Y-63673920D01*
X154478340Y-63818907D01*
X154478343Y-63818917D01*
X154534912Y-63955488D01*
X154534919Y-63955501D01*
X154617048Y-64078415D01*
X154617051Y-64078419D01*
X154721580Y-64182948D01*
X154721584Y-64182951D01*
X154844498Y-64265080D01*
X154844511Y-64265087D01*
X154981082Y-64321656D01*
X154981087Y-64321658D01*
X154981091Y-64321658D01*
X154981092Y-64321659D01*
X155126079Y-64350500D01*
X155126082Y-64350500D01*
X155273920Y-64350500D01*
X155371462Y-64331096D01*
X155418913Y-64321658D01*
X155441404Y-64312341D01*
X155510872Y-64304873D01*
X155573351Y-64336148D01*
X155603417Y-64379450D01*
X155634914Y-64455492D01*
X155634919Y-64455501D01*
X155717048Y-64578415D01*
X155717051Y-64578419D01*
X155821580Y-64682948D01*
X155821584Y-64682951D01*
X155944498Y-64765080D01*
X155944511Y-64765087D01*
X156051969Y-64809597D01*
X156081087Y-64821658D01*
X156081091Y-64821658D01*
X156081092Y-64821659D01*
X156226079Y-64850500D01*
X156226082Y-64850500D01*
X156373920Y-64850500D01*
X156471462Y-64831096D01*
X156518913Y-64821658D01*
X156655495Y-64765084D01*
X156778416Y-64682951D01*
X156882951Y-64578416D01*
X156912020Y-64534912D01*
X156965080Y-64455501D01*
X156965080Y-64455500D01*
X156965084Y-64455495D01*
X157021658Y-64318913D01*
X157036714Y-64243225D01*
X157050500Y-64173920D01*
X157050500Y-64026079D01*
X157021659Y-63881092D01*
X157021658Y-63881091D01*
X157021658Y-63881087D01*
X157021656Y-63881082D01*
X156965087Y-63744511D01*
X156965080Y-63744498D01*
X156882951Y-63621584D01*
X156882948Y-63621580D01*
X156778419Y-63517051D01*
X156778415Y-63517048D01*
X156655501Y-63434919D01*
X156655488Y-63434912D01*
X156518917Y-63378343D01*
X156518907Y-63378340D01*
X156373920Y-63349500D01*
X156373918Y-63349500D01*
X156226082Y-63349500D01*
X156226080Y-63349500D01*
X156081092Y-63378340D01*
X156081083Y-63378343D01*
X156058591Y-63387659D01*
X155989122Y-63395125D01*
X155926644Y-63363848D01*
X155896582Y-63320548D01*
X155865087Y-63244511D01*
X155865080Y-63244498D01*
X155782951Y-63121584D01*
X155782948Y-63121580D01*
X155678419Y-63017051D01*
X155678415Y-63017048D01*
X155555501Y-62934919D01*
X155555488Y-62934912D01*
X155418917Y-62878343D01*
X155418907Y-62878340D01*
X155273920Y-62849500D01*
X155273918Y-62849500D01*
X155126082Y-62849500D01*
X155126080Y-62849500D01*
X154981092Y-62878340D01*
X154981082Y-62878343D01*
X154844511Y-62934912D01*
X154844498Y-62934919D01*
X154721584Y-63017048D01*
X154721580Y-63017051D01*
X154617051Y-63121580D01*
X154617048Y-63121584D01*
X154534919Y-63244498D01*
X154534912Y-63244511D01*
X154478343Y-63381082D01*
X154478340Y-63381092D01*
X154449500Y-63526079D01*
X154449500Y-63526082D01*
X154449500Y-63673918D01*
X154449500Y-63673920D01*
X154449499Y-63673920D01*
X122526955Y-63673920D01*
X122463266Y-63627647D01*
X122312802Y-63550982D01*
X122312375Y-63550764D01*
X122311827Y-63550485D01*
X122311826Y-63550484D01*
X122311769Y-63550455D01*
X122286411Y-63526480D01*
X122261031Y-63502510D01*
X122261022Y-63502477D01*
X122260998Y-63502454D01*
X122252604Y-63468479D01*
X122244236Y-63434689D01*
X122244247Y-63434656D01*
X122244239Y-63434624D01*
X122255297Y-63402229D01*
X122266773Y-63368554D01*
X122266801Y-63368529D01*
X122266811Y-63368501D01*
X122267085Y-63368283D01*
X122311827Y-63329515D01*
X122329426Y-63320548D01*
X122463266Y-63252353D01*
X122624418Y-63135269D01*
X122765269Y-62994418D01*
X122882353Y-62833266D01*
X122972785Y-62655783D01*
X122985140Y-62617758D01*
X123034338Y-62466343D01*
X123034338Y-62466342D01*
X123034339Y-62466339D01*
X123065500Y-62269597D01*
X123065500Y-62070403D01*
X123034339Y-61873661D01*
X123034338Y-61873657D01*
X123034338Y-61873656D01*
X122972786Y-61684219D01*
X122882352Y-61506733D01*
X122765269Y-61345582D01*
X122624418Y-61204731D01*
X122463266Y-61087647D01*
X122311827Y-61010485D01*
X122261031Y-60962510D01*
X122244236Y-60894689D01*
X122266773Y-60828554D01*
X122311827Y-60789515D01*
X122321116Y-60784781D01*
X122463266Y-60712353D01*
X122624418Y-60595269D01*
X122765269Y-60454418D01*
X122882353Y-60293266D01*
X122972785Y-60115783D01*
X122980827Y-60091031D01*
X123034338Y-59926343D01*
X123034338Y-59926342D01*
X123034339Y-59926339D01*
X123065500Y-59729597D01*
X123065500Y-59530403D01*
X123034339Y-59333661D01*
X123034338Y-59333657D01*
X123034338Y-59333656D01*
X122972786Y-59144219D01*
X122942964Y-59085690D01*
X122882353Y-58966734D01*
X122765269Y-58805582D01*
X122624418Y-58664731D01*
X122463266Y-58547647D01*
X122311827Y-58470485D01*
X122261031Y-58422510D01*
X122244236Y-58354689D01*
X122266773Y-58288554D01*
X122311827Y-58249515D01*
X122327251Y-58241656D01*
X122463266Y-58172353D01*
X122624418Y-58055269D01*
X122765269Y-57914418D01*
X122882353Y-57753266D01*
X122972785Y-57575783D01*
X122985140Y-57537758D01*
X123034338Y-57386343D01*
X123034338Y-57386342D01*
X123034339Y-57386339D01*
X123065500Y-57189597D01*
X123065500Y-56990403D01*
X123034339Y-56793661D01*
X123034338Y-56793657D01*
X123034338Y-56793656D01*
X122972786Y-56604219D01*
X122882352Y-56426733D01*
X122765269Y-56265582D01*
X122624418Y-56124731D01*
X122463266Y-56007647D01*
X122311827Y-55930485D01*
X122261031Y-55882510D01*
X122244236Y-55814689D01*
X122266773Y-55748554D01*
X122311827Y-55709515D01*
X122327806Y-55701373D01*
X122463266Y-55632353D01*
X122624418Y-55515269D01*
X122669003Y-55470684D01*
X125049500Y-55470684D01*
X125049500Y-55709315D01*
X125049501Y-55709332D01*
X125073476Y-55891446D01*
X125080649Y-55945924D01*
X125105808Y-56039817D01*
X125142415Y-56176436D01*
X125233734Y-56396902D01*
X125233740Y-56396914D01*
X125353062Y-56603586D01*
X125353064Y-56603589D01*
X125353065Y-56603590D01*
X125498337Y-56792912D01*
X125498343Y-56792919D01*
X125667080Y-56961656D01*
X125667086Y-56961661D01*
X125856414Y-57106938D01*
X126063086Y-57226260D01*
X126063091Y-57226262D01*
X126063097Y-57226265D01*
X126158109Y-57265620D01*
X126283564Y-57317585D01*
X126514076Y-57379351D01*
X126750678Y-57410500D01*
X126750685Y-57410500D01*
X126989315Y-57410500D01*
X126989322Y-57410500D01*
X127225924Y-57379351D01*
X127456436Y-57317585D01*
X127676914Y-57226260D01*
X127883586Y-57106938D01*
X128072914Y-56961661D01*
X128241661Y-56792914D01*
X128386938Y-56603586D01*
X128506260Y-56396914D01*
X128597585Y-56176436D01*
X128659351Y-55945924D01*
X128690500Y-55709322D01*
X128690500Y-55470678D01*
X128659351Y-55234076D01*
X128597585Y-55003564D01*
X128506260Y-54783086D01*
X128386938Y-54576414D01*
X128241661Y-54387086D01*
X128241656Y-54387080D01*
X128072919Y-54218343D01*
X128072912Y-54218337D01*
X127883590Y-54073065D01*
X127883589Y-54073064D01*
X127883586Y-54073062D01*
X127676914Y-53953740D01*
X127676902Y-53953734D01*
X127456436Y-53862415D01*
X127225920Y-53800648D01*
X126989332Y-53769501D01*
X126989327Y-53769500D01*
X126989322Y-53769500D01*
X126750678Y-53769500D01*
X126750672Y-53769500D01*
X126750667Y-53769501D01*
X126514079Y-53800648D01*
X126283563Y-53862415D01*
X126063097Y-53953734D01*
X126063083Y-53953741D01*
X125856409Y-54073065D01*
X125667087Y-54218337D01*
X125667080Y-54218343D01*
X125498343Y-54387080D01*
X125498337Y-54387087D01*
X125353065Y-54576409D01*
X125233741Y-54783083D01*
X125233734Y-54783097D01*
X125142415Y-55003563D01*
X125080648Y-55234079D01*
X125049501Y-55470667D01*
X125049500Y-55470684D01*
X122669003Y-55470684D01*
X122765269Y-55374418D01*
X122882353Y-55213266D01*
X122972785Y-55035783D01*
X123034339Y-54846339D01*
X123065500Y-54649597D01*
X123065500Y-54450403D01*
X123034339Y-54253661D01*
X123034338Y-54253657D01*
X123034338Y-54253656D01*
X122972786Y-54064219D01*
X122972785Y-54064217D01*
X122882353Y-53886734D01*
X122765269Y-53725582D01*
X122624418Y-53584731D01*
X122463266Y-53467647D01*
X122384379Y-53427452D01*
X122285780Y-53377213D01*
X122096342Y-53315661D01*
X121948782Y-53292290D01*
X121899597Y-53284500D01*
X121700403Y-53284500D01*
X121634822Y-53294887D01*
X121503659Y-53315661D01*
X121503656Y-53315661D01*
X121314219Y-53377213D01*
X121136733Y-53467647D01*
X121044790Y-53534447D01*
X120975582Y-53584731D01*
X120975580Y-53584733D01*
X120975579Y-53584733D01*
X120834733Y-53725579D01*
X120834733Y-53725580D01*
X120834731Y-53725582D01*
X120780192Y-53800649D01*
X120749817Y-53842456D01*
X120694487Y-53885121D01*
X120624873Y-53891100D01*
X120563078Y-53858494D01*
X120528721Y-53797655D01*
X120525499Y-53769570D01*
X120525499Y-53737129D01*
X120525498Y-53737123D01*
X120525497Y-53737116D01*
X120519091Y-53677517D01*
X120468796Y-53542669D01*
X120468795Y-53542668D01*
X120468793Y-53542664D01*
X120382547Y-53427455D01*
X120382544Y-53427452D01*
X120267335Y-53341206D01*
X120267328Y-53341202D01*
X120132482Y-53290908D01*
X120132483Y-53290908D01*
X120072883Y-53284501D01*
X120072881Y-53284500D01*
X120072873Y-53284500D01*
X120072864Y-53284500D01*
X118447129Y-53284500D01*
X118447123Y-53284501D01*
X118387516Y-53290908D01*
X118252671Y-53341202D01*
X118252664Y-53341206D01*
X118137455Y-53427452D01*
X118137452Y-53427455D01*
X118051206Y-53542664D01*
X118051202Y-53542671D01*
X118000908Y-53677517D01*
X117995741Y-53725580D01*
X117994501Y-53737123D01*
X117994500Y-53737135D01*
X116200500Y-53737135D01*
X116200500Y-51506092D01*
X116201097Y-51493939D01*
X116209805Y-51405519D01*
X116214665Y-51356171D01*
X116219403Y-51332349D01*
X116257816Y-51205719D01*
X116267113Y-51183278D01*
X116329485Y-51066587D01*
X116342982Y-51046387D01*
X116426924Y-50944103D01*
X116444103Y-50926924D01*
X116546387Y-50842982D01*
X116566587Y-50829485D01*
X116683278Y-50767113D01*
X116705719Y-50757816D01*
X116832349Y-50719403D01*
X116856173Y-50714665D01*
X116985170Y-50701960D01*
X116993939Y-50701097D01*
X117006092Y-50700500D01*
X117039882Y-50700500D01*
X134960118Y-50700500D01*
X134993908Y-50700500D01*
X135006061Y-50701097D01*
G37*
%TD.AperFunction*%
%TD*%
M02*
