%TF.GenerationSoftware,KiCad,Pcbnew,9.0.7-9.0.7~ubuntu24.04.1*%
%TF.CreationDate,2026-01-13T16:37:34+01:00*%
%TF.ProjectId,can_uart,63616e5f-7561-4727-942e-6b696361645f,1.0*%
%TF.SameCoordinates,Original*%
%TF.FileFunction,Paste,Top*%
%TF.FilePolarity,Positive*%
%FSLAX46Y46*%
G04 Gerber Fmt 4.6, Leading zero omitted, Abs format (unit mm)*
G04 Created by KiCad (PCBNEW 9.0.7-9.0.7~ubuntu24.04.1) date 2026-01-13 16:37:34*
%MOMM*%
%LPD*%
G01*
G04 APERTURE LIST*
G04 Aperture macros list*
%AMRoundRect*
0 Rectangle with rounded corners*
0 $1 Rounding radius*
0 $2 $3 $4 $5 $6 $7 $8 $9 X,Y pos of 4 corners*
0 Add a 4 corners polygon primitive as box body*
4,1,4,$2,$3,$4,$5,$6,$7,$8,$9,$2,$3,0*
0 Add four circle primitives for the rounded corners*
1,1,$1+$1,$2,$3*
1,1,$1+$1,$4,$5*
1,1,$1+$1,$6,$7*
1,1,$1+$1,$8,$9*
0 Add four rect primitives between the rounded corners*
20,1,$1+$1,$2,$3,$4,$5,0*
20,1,$1+$1,$4,$5,$6,$7,0*
20,1,$1+$1,$6,$7,$8,$9,0*
20,1,$1+$1,$8,$9,$2,$3,0*%
G04 Aperture macros list end*
%ADD10RoundRect,0.250000X0.350000X-0.275000X0.350000X0.275000X-0.350000X0.275000X-0.350000X-0.275000X0*%
%ADD11RoundRect,0.250000X-0.337500X-0.475000X0.337500X-0.475000X0.337500X0.475000X-0.337500X0.475000X0*%
%ADD12R,0.650000X1.850000*%
%ADD13RoundRect,0.237500X-0.300000X-0.237500X0.300000X-0.237500X0.300000X0.237500X-0.300000X0.237500X0*%
%ADD14RoundRect,0.150000X0.150000X-0.587500X0.150000X0.587500X-0.150000X0.587500X-0.150000X-0.587500X0*%
%ADD15RoundRect,0.237500X0.300000X0.237500X-0.300000X0.237500X-0.300000X-0.237500X0.300000X-0.237500X0*%
%ADD16RoundRect,0.150000X-0.150000X0.875000X-0.150000X-0.875000X0.150000X-0.875000X0.150000X0.875000X0*%
%ADD17RoundRect,0.237500X-0.250000X-0.237500X0.250000X-0.237500X0.250000X0.237500X-0.250000X0.237500X0*%
%ADD18RoundRect,0.250000X0.337500X0.475000X-0.337500X0.475000X-0.337500X-0.475000X0.337500X-0.475000X0*%
%ADD19RoundRect,0.150000X0.150000X-0.512500X0.150000X0.512500X-0.150000X0.512500X-0.150000X-0.512500X0*%
%ADD20RoundRect,0.250000X-0.350000X0.275000X-0.350000X-0.275000X0.350000X-0.275000X0.350000X0.275000X0*%
G04 APERTURE END LIST*
D10*
%TO.C,FB1*%
X165537500Y-90650000D03*
X165537500Y-88350000D03*
%TD*%
D11*
%TO.C,C3*%
X163500000Y-92750000D03*
X165575000Y-92750000D03*
%TD*%
D12*
%TO.C,IC1*%
X132845000Y-83825000D03*
X134115000Y-83825000D03*
X135385000Y-83825000D03*
X136655000Y-83825000D03*
X136655000Y-73175000D03*
X135385000Y-73175000D03*
X134115000Y-73175000D03*
X132845000Y-73175000D03*
%TD*%
D13*
%TO.C,C9*%
X129637500Y-86250000D03*
X131362500Y-86250000D03*
%TD*%
D14*
%TO.C,D1*%
X133750000Y-90000000D03*
X135650000Y-90000000D03*
X134700000Y-88125000D03*
%TD*%
D15*
%TO.C,C7*%
X161862500Y-64250000D03*
X160137500Y-64250000D03*
%TD*%
D10*
%TO.C,FB4*%
X162000000Y-68650000D03*
X162000000Y-66350000D03*
%TD*%
D16*
%TO.C,U1*%
X165465000Y-73600000D03*
X164195000Y-73600000D03*
X162925000Y-73600000D03*
X161655000Y-73600000D03*
X160385000Y-73600000D03*
X159115000Y-73600000D03*
X157845000Y-73600000D03*
X156575000Y-73600000D03*
X155305000Y-73600000D03*
X154035000Y-73600000D03*
X154035000Y-82900000D03*
X155305000Y-82900000D03*
X156575000Y-82900000D03*
X157845000Y-82900000D03*
X159115000Y-82900000D03*
X160385000Y-82900000D03*
X161655000Y-82900000D03*
X162925000Y-82900000D03*
X164195000Y-82900000D03*
X165465000Y-82900000D03*
%TD*%
D13*
%TO.C,C1*%
X159887500Y-87250000D03*
X161612500Y-87250000D03*
%TD*%
D17*
%TO.C,R1*%
X153837500Y-85500000D03*
X155662500Y-85500000D03*
%TD*%
D15*
%TO.C,C2*%
X161612500Y-85500000D03*
X159887500Y-85500000D03*
%TD*%
D11*
%TO.C,C4*%
X163462500Y-86250000D03*
X165537500Y-86250000D03*
%TD*%
D18*
%TO.C,C5*%
X166537500Y-64150000D03*
X164462500Y-64150000D03*
%TD*%
D11*
%TO.C,C6*%
X164462500Y-70500000D03*
X166537500Y-70500000D03*
%TD*%
D10*
%TO.C,FB3*%
X164500000Y-68550000D03*
X164500000Y-66250000D03*
%TD*%
D19*
%TO.C,D2*%
X156261000Y-91122751D03*
X158161000Y-91122751D03*
X157211000Y-88847751D03*
%TD*%
D15*
%TO.C,C8*%
X162112500Y-70750000D03*
X160387500Y-70750000D03*
%TD*%
D13*
%TO.C,C10*%
X129637500Y-70750000D03*
X131362500Y-70750000D03*
%TD*%
D20*
%TO.C,FB2*%
X163537500Y-88350000D03*
X163537500Y-90650000D03*
%TD*%
M02*
