%TF.GenerationSoftware,KiCad,Pcbnew,9.0.7-9.0.7~ubuntu24.04.1*%
%TF.CreationDate,2026-01-13T16:37:34+01:00*%
%TF.ProjectId,can_uart,63616e5f-7561-4727-942e-6b696361645f,1.0*%
%TF.SameCoordinates,Original*%
%TF.FileFunction,Profile,NP*%
%FSLAX46Y46*%
G04 Gerber Fmt 4.6, Leading zero omitted, Abs format (unit mm)*
G04 Created by KiCad (PCBNEW 9.0.7-9.0.7~ubuntu24.04.1) date 2026-01-13 16:37:34*
%MOMM*%
%LPD*%
G01*
G04 APERTURE LIST*
%TA.AperFunction,Profile*%
%ADD10C,0.150000*%
%TD*%
G04 APERTURE END LIST*
D10*
X118000000Y-116000000D02*
G75*
G02*
X116000000Y-114000000I0J2000000D01*
G01*
X166000000Y-58170000D02*
G75*
G02*
X165000000Y-59170000I-1000000J0D01*
G01*
X185000000Y-50500000D02*
X167000000Y-50500000D01*
X164000000Y-104100000D02*
X162000000Y-102100000D01*
X116000000Y-114000000D02*
X116000000Y-51500000D01*
X128490000Y-55590000D02*
G75*
G02*
X125250000Y-55590000I-1620000J0D01*
G01*
X125250000Y-55590000D02*
G75*
G02*
X128490000Y-55590000I1620000J0D01*
G01*
X135000000Y-50500000D02*
G75*
G02*
X136000000Y-51500000I0J-1000000D01*
G01*
X166000000Y-51500000D02*
X166000000Y-58170000D01*
X186000000Y-114000000D02*
X186000000Y-51500000D01*
X176750000Y-56870000D02*
G75*
G02*
X173510000Y-56870000I-1620000J0D01*
G01*
X173510000Y-56870000D02*
G75*
G02*
X176750000Y-56870000I1620000J0D01*
G01*
X165000000Y-59170000D02*
X137000000Y-59170000D01*
X186000000Y-114000000D02*
G75*
G02*
X184000000Y-116000000I-2000000J0D01*
G01*
X116000000Y-51500000D02*
G75*
G02*
X117000000Y-50500000I1000000J0D01*
G01*
X137000000Y-59170000D02*
G75*
G02*
X136000000Y-58170000I0J1000000D01*
G01*
X127000000Y-116000000D02*
X127000000Y-104100000D01*
X129000000Y-102100000D02*
X162000000Y-102100000D01*
X117000000Y-50500000D02*
X135000000Y-50500000D01*
X185000000Y-50500000D02*
G75*
G02*
X186000000Y-51500000I0J-1000000D01*
G01*
X136000000Y-51500000D02*
X136000000Y-58170000D01*
X164000000Y-116000000D02*
X184000000Y-116000000D01*
X118000000Y-116000000D02*
X127000000Y-116000000D01*
X164000000Y-104100000D02*
X164000000Y-116000000D01*
X166000000Y-51500000D02*
G75*
G02*
X167000000Y-50500000I1000000J0D01*
G01*
X127000000Y-104100000D02*
X129000000Y-102100000D01*
M02*
