M48
; DRILL file {KiCad 9.0.7-9.0.7~ubuntu24.04.1} date 2026-01-13T16:37:38+0100
; FORMAT={-:-/ absolute / metric / decimal}
; #@! TF.CreationDate,2026-01-13T16:37:38+01:00
; #@! TF.GenerationSoftware,Kicad,Pcbnew,9.0.7-9.0.7~ubuntu24.04.1
; #@! TF.FileFunction,Plated,1,4,PTH
FMAT,2
METRIC
; #@! TA.AperFunction,Plated,PTH,ViaDrill
T1C0.300
; #@! TA.AperFunction,Plated,PTH,ComponentDrill
T2C1.020
; #@! TA.AperFunction,Plated,PTH,ComponentDrill
T3C1.100
%
G90
G05
T1
X128.5Y-66.4
X129.637Y-69.75
X129.637Y-87.2
X130.0Y-73.0
X131.8Y-65.2
X134.7Y-89.3
X136.655Y-71.75
X136.655Y-85.2
X153.838Y-86.438
X154.035Y-71.785
X155.2Y-63.6
X155.305Y-71.805
X156.3Y-64.1
X157.211Y-90.0
X158.9Y-85.5
X159.0Y-87.25
X160.137Y-65.25
X160.387Y-69.75
X162.5Y-90.65
X163.5Y-94.1
X164.195Y-71.805
X165.465Y-71.785
X166.537Y-62.9
X166.537Y-69.25
T2
X119.26Y-54.55
X119.26Y-57.09
X119.26Y-59.63
X119.26Y-62.17
X119.26Y-64.71
X119.26Y-67.25
X119.26Y-69.79
X119.26Y-72.33
X119.26Y-74.87
X119.26Y-77.41
X119.26Y-79.95
X119.26Y-82.49
X119.26Y-85.03
X119.26Y-87.57
X119.26Y-90.11
X119.26Y-92.65
X119.26Y-95.19
X119.26Y-97.73
X119.26Y-100.27
X119.26Y-102.81
X119.26Y-105.35
X119.26Y-107.89
X119.26Y-110.43
X121.8Y-54.55
X121.8Y-57.09
X121.8Y-59.63
X121.8Y-62.17
X121.8Y-64.71
X121.8Y-67.25
X121.8Y-69.79
X121.8Y-72.33
X121.8Y-74.87
X121.8Y-77.41
X121.8Y-79.95
X121.8Y-82.49
X121.8Y-85.03
X121.8Y-87.57
X121.8Y-90.11
X121.8Y-92.65
X121.8Y-95.19
X121.8Y-97.73
X121.8Y-100.27
X121.8Y-102.81
X121.8Y-105.35
X121.8Y-107.89
X121.8Y-110.43
X180.2Y-54.55
X180.2Y-57.09
X180.2Y-59.63
X180.2Y-62.17
X180.2Y-64.71
X180.2Y-67.25
X180.2Y-69.79
X180.2Y-72.33
X180.2Y-74.87
X180.2Y-77.41
X180.2Y-79.95
X180.2Y-82.49
X180.2Y-85.03
X180.2Y-87.57
X180.2Y-90.11
X180.2Y-92.65
X180.2Y-95.19
X180.2Y-97.73
X180.2Y-100.27
X180.2Y-102.81
X180.2Y-105.35
X180.2Y-107.89
X180.2Y-110.43
X182.74Y-54.55
X182.74Y-57.09
X182.74Y-59.63
X182.74Y-62.17
X182.74Y-64.71
X182.74Y-67.25
X182.74Y-69.79
X182.74Y-72.33
X182.74Y-74.87
X182.74Y-77.41
X182.74Y-79.95
X182.74Y-82.49
X182.74Y-85.03
X182.74Y-87.57
X182.74Y-90.11
X182.74Y-92.65
X182.74Y-95.19
X182.74Y-97.73
X182.74Y-100.27
X182.74Y-102.81
X182.74Y-105.35
X182.74Y-107.89
X182.74Y-110.43
T3
X130.9Y-96.4
X133.44Y-96.4
X135.98Y-96.4
X155.941Y-96.485
X158.481Y-96.485
M30
