%TF.GenerationSoftware,KiCad,Pcbnew,9.0.7-9.0.7~ubuntu24.04.1*%
%TF.CreationDate,2026-01-13T16:37:34+01:00*%
%TF.ProjectId,can_uart,63616e5f-7561-4727-942e-6b696361645f,1.0*%
%TF.SameCoordinates,Original*%
%TF.FileFunction,Legend,Top*%
%TF.FilePolarity,Positive*%
%FSLAX46Y46*%
G04 Gerber Fmt 4.6, Leading zero omitted, Abs format (unit mm)*
G04 Created by KiCad (PCBNEW 9.0.7-9.0.7~ubuntu24.04.1) date 2026-01-13 16:37:34*
%MOMM*%
%LPD*%
G01*
G04 APERTURE LIST*
%ADD10C,0.150000*%
%ADD11C,0.254000*%
%ADD12C,0.120000*%
%ADD13C,0.200000*%
%ADD14C,0.100000*%
G04 APERTURE END LIST*
D10*
X166954166Y-89181009D02*
X166620833Y-89181009D01*
X166620833Y-89704819D02*
X166620833Y-88704819D01*
X166620833Y-88704819D02*
X167097023Y-88704819D01*
X167811309Y-89181009D02*
X167954166Y-89228628D01*
X167954166Y-89228628D02*
X168001785Y-89276247D01*
X168001785Y-89276247D02*
X168049404Y-89371485D01*
X168049404Y-89371485D02*
X168049404Y-89514342D01*
X168049404Y-89514342D02*
X168001785Y-89609580D01*
X168001785Y-89609580D02*
X167954166Y-89657200D01*
X167954166Y-89657200D02*
X167858928Y-89704819D01*
X167858928Y-89704819D02*
X167477976Y-89704819D01*
X167477976Y-89704819D02*
X167477976Y-88704819D01*
X167477976Y-88704819D02*
X167811309Y-88704819D01*
X167811309Y-88704819D02*
X167906547Y-88752438D01*
X167906547Y-88752438D02*
X167954166Y-88800057D01*
X167954166Y-88800057D02*
X168001785Y-88895295D01*
X168001785Y-88895295D02*
X168001785Y-88990533D01*
X168001785Y-88990533D02*
X167954166Y-89085771D01*
X167954166Y-89085771D02*
X167906547Y-89133390D01*
X167906547Y-89133390D02*
X167811309Y-89181009D01*
X167811309Y-89181009D02*
X167477976Y-89181009D01*
X169001785Y-89704819D02*
X168430357Y-89704819D01*
X168716071Y-89704819D02*
X168716071Y-88704819D01*
X168716071Y-88704819D02*
X168620833Y-88847676D01*
X168620833Y-88847676D02*
X168525595Y-88942914D01*
X168525595Y-88942914D02*
X168430357Y-88990533D01*
X161370833Y-93109580D02*
X161323214Y-93157200D01*
X161323214Y-93157200D02*
X161180357Y-93204819D01*
X161180357Y-93204819D02*
X161085119Y-93204819D01*
X161085119Y-93204819D02*
X160942262Y-93157200D01*
X160942262Y-93157200D02*
X160847024Y-93061961D01*
X160847024Y-93061961D02*
X160799405Y-92966723D01*
X160799405Y-92966723D02*
X160751786Y-92776247D01*
X160751786Y-92776247D02*
X160751786Y-92633390D01*
X160751786Y-92633390D02*
X160799405Y-92442914D01*
X160799405Y-92442914D02*
X160847024Y-92347676D01*
X160847024Y-92347676D02*
X160942262Y-92252438D01*
X160942262Y-92252438D02*
X161085119Y-92204819D01*
X161085119Y-92204819D02*
X161180357Y-92204819D01*
X161180357Y-92204819D02*
X161323214Y-92252438D01*
X161323214Y-92252438D02*
X161370833Y-92300057D01*
X161704167Y-92204819D02*
X162323214Y-92204819D01*
X162323214Y-92204819D02*
X161989881Y-92585771D01*
X161989881Y-92585771D02*
X162132738Y-92585771D01*
X162132738Y-92585771D02*
X162227976Y-92633390D01*
X162227976Y-92633390D02*
X162275595Y-92681009D01*
X162275595Y-92681009D02*
X162323214Y-92776247D01*
X162323214Y-92776247D02*
X162323214Y-93014342D01*
X162323214Y-93014342D02*
X162275595Y-93109580D01*
X162275595Y-93109580D02*
X162227976Y-93157200D01*
X162227976Y-93157200D02*
X162132738Y-93204819D01*
X162132738Y-93204819D02*
X161847024Y-93204819D01*
X161847024Y-93204819D02*
X161751786Y-93157200D01*
X161751786Y-93157200D02*
X161704167Y-93109580D01*
D11*
X138260237Y-79074318D02*
X138260237Y-77804318D01*
X139590714Y-78953365D02*
X139530238Y-79013842D01*
X139530238Y-79013842D02*
X139348809Y-79074318D01*
X139348809Y-79074318D02*
X139227857Y-79074318D01*
X139227857Y-79074318D02*
X139046428Y-79013842D01*
X139046428Y-79013842D02*
X138925476Y-78892889D01*
X138925476Y-78892889D02*
X138864999Y-78771937D01*
X138864999Y-78771937D02*
X138804523Y-78530032D01*
X138804523Y-78530032D02*
X138804523Y-78348603D01*
X138804523Y-78348603D02*
X138864999Y-78106699D01*
X138864999Y-78106699D02*
X138925476Y-77985746D01*
X138925476Y-77985746D02*
X139046428Y-77864794D01*
X139046428Y-77864794D02*
X139227857Y-77804318D01*
X139227857Y-77804318D02*
X139348809Y-77804318D01*
X139348809Y-77804318D02*
X139530238Y-77864794D01*
X139530238Y-77864794D02*
X139590714Y-77925270D01*
X140800238Y-79074318D02*
X140074523Y-79074318D01*
X140437380Y-79074318D02*
X140437380Y-77804318D01*
X140437380Y-77804318D02*
X140316428Y-77985746D01*
X140316428Y-77985746D02*
X140195476Y-78106699D01*
X140195476Y-78106699D02*
X140074523Y-78167175D01*
X182576667Y-113304318D02*
X182576667Y-114211461D01*
X182576667Y-114211461D02*
X182516190Y-114392889D01*
X182516190Y-114392889D02*
X182395238Y-114513842D01*
X182395238Y-114513842D02*
X182213809Y-114574318D01*
X182213809Y-114574318D02*
X182092857Y-114574318D01*
X183725714Y-113727651D02*
X183725714Y-114574318D01*
X183423333Y-113243842D02*
X183120952Y-114150984D01*
X183120952Y-114150984D02*
X183907143Y-114150984D01*
D10*
X130333333Y-88109580D02*
X130285714Y-88157200D01*
X130285714Y-88157200D02*
X130142857Y-88204819D01*
X130142857Y-88204819D02*
X130047619Y-88204819D01*
X130047619Y-88204819D02*
X129904762Y-88157200D01*
X129904762Y-88157200D02*
X129809524Y-88061961D01*
X129809524Y-88061961D02*
X129761905Y-87966723D01*
X129761905Y-87966723D02*
X129714286Y-87776247D01*
X129714286Y-87776247D02*
X129714286Y-87633390D01*
X129714286Y-87633390D02*
X129761905Y-87442914D01*
X129761905Y-87442914D02*
X129809524Y-87347676D01*
X129809524Y-87347676D02*
X129904762Y-87252438D01*
X129904762Y-87252438D02*
X130047619Y-87204819D01*
X130047619Y-87204819D02*
X130142857Y-87204819D01*
X130142857Y-87204819D02*
X130285714Y-87252438D01*
X130285714Y-87252438D02*
X130333333Y-87300057D01*
X130809524Y-88204819D02*
X131000000Y-88204819D01*
X131000000Y-88204819D02*
X131095238Y-88157200D01*
X131095238Y-88157200D02*
X131142857Y-88109580D01*
X131142857Y-88109580D02*
X131238095Y-87966723D01*
X131238095Y-87966723D02*
X131285714Y-87776247D01*
X131285714Y-87776247D02*
X131285714Y-87395295D01*
X131285714Y-87395295D02*
X131238095Y-87300057D01*
X131238095Y-87300057D02*
X131190476Y-87252438D01*
X131190476Y-87252438D02*
X131095238Y-87204819D01*
X131095238Y-87204819D02*
X130904762Y-87204819D01*
X130904762Y-87204819D02*
X130809524Y-87252438D01*
X130809524Y-87252438D02*
X130761905Y-87300057D01*
X130761905Y-87300057D02*
X130714286Y-87395295D01*
X130714286Y-87395295D02*
X130714286Y-87633390D01*
X130714286Y-87633390D02*
X130761905Y-87728628D01*
X130761905Y-87728628D02*
X130809524Y-87776247D01*
X130809524Y-87776247D02*
X130904762Y-87823866D01*
X130904762Y-87823866D02*
X131095238Y-87823866D01*
X131095238Y-87823866D02*
X131190476Y-87776247D01*
X131190476Y-87776247D02*
X131238095Y-87728628D01*
X131238095Y-87728628D02*
X131285714Y-87633390D01*
X136761905Y-89517319D02*
X136761905Y-88517319D01*
X136761905Y-88517319D02*
X137000000Y-88517319D01*
X137000000Y-88517319D02*
X137142857Y-88564938D01*
X137142857Y-88564938D02*
X137238095Y-88660176D01*
X137238095Y-88660176D02*
X137285714Y-88755414D01*
X137285714Y-88755414D02*
X137333333Y-88945890D01*
X137333333Y-88945890D02*
X137333333Y-89088747D01*
X137333333Y-89088747D02*
X137285714Y-89279223D01*
X137285714Y-89279223D02*
X137238095Y-89374461D01*
X137238095Y-89374461D02*
X137142857Y-89469700D01*
X137142857Y-89469700D02*
X137000000Y-89517319D01*
X137000000Y-89517319D02*
X136761905Y-89517319D01*
X138285714Y-89517319D02*
X137714286Y-89517319D01*
X138000000Y-89517319D02*
X138000000Y-88517319D01*
X138000000Y-88517319D02*
X137904762Y-88660176D01*
X137904762Y-88660176D02*
X137809524Y-88755414D01*
X137809524Y-88755414D02*
X137714286Y-88803033D01*
X158083333Y-64609580D02*
X158035714Y-64657200D01*
X158035714Y-64657200D02*
X157892857Y-64704819D01*
X157892857Y-64704819D02*
X157797619Y-64704819D01*
X157797619Y-64704819D02*
X157654762Y-64657200D01*
X157654762Y-64657200D02*
X157559524Y-64561961D01*
X157559524Y-64561961D02*
X157511905Y-64466723D01*
X157511905Y-64466723D02*
X157464286Y-64276247D01*
X157464286Y-64276247D02*
X157464286Y-64133390D01*
X157464286Y-64133390D02*
X157511905Y-63942914D01*
X157511905Y-63942914D02*
X157559524Y-63847676D01*
X157559524Y-63847676D02*
X157654762Y-63752438D01*
X157654762Y-63752438D02*
X157797619Y-63704819D01*
X157797619Y-63704819D02*
X157892857Y-63704819D01*
X157892857Y-63704819D02*
X158035714Y-63752438D01*
X158035714Y-63752438D02*
X158083333Y-63800057D01*
X158416667Y-63704819D02*
X159083333Y-63704819D01*
X159083333Y-63704819D02*
X158654762Y-64704819D01*
X158916666Y-67431009D02*
X158583333Y-67431009D01*
X158583333Y-67954819D02*
X158583333Y-66954819D01*
X158583333Y-66954819D02*
X159059523Y-66954819D01*
X159773809Y-67431009D02*
X159916666Y-67478628D01*
X159916666Y-67478628D02*
X159964285Y-67526247D01*
X159964285Y-67526247D02*
X160011904Y-67621485D01*
X160011904Y-67621485D02*
X160011904Y-67764342D01*
X160011904Y-67764342D02*
X159964285Y-67859580D01*
X159964285Y-67859580D02*
X159916666Y-67907200D01*
X159916666Y-67907200D02*
X159821428Y-67954819D01*
X159821428Y-67954819D02*
X159440476Y-67954819D01*
X159440476Y-67954819D02*
X159440476Y-66954819D01*
X159440476Y-66954819D02*
X159773809Y-66954819D01*
X159773809Y-66954819D02*
X159869047Y-67002438D01*
X159869047Y-67002438D02*
X159916666Y-67050057D01*
X159916666Y-67050057D02*
X159964285Y-67145295D01*
X159964285Y-67145295D02*
X159964285Y-67240533D01*
X159964285Y-67240533D02*
X159916666Y-67335771D01*
X159916666Y-67335771D02*
X159869047Y-67383390D01*
X159869047Y-67383390D02*
X159773809Y-67431009D01*
X159773809Y-67431009D02*
X159440476Y-67431009D01*
X160869047Y-67288152D02*
X160869047Y-67954819D01*
X160630952Y-66907200D02*
X160392857Y-67621485D01*
X160392857Y-67621485D02*
X161011904Y-67621485D01*
X166738095Y-77704819D02*
X166738095Y-78514342D01*
X166738095Y-78514342D02*
X166785714Y-78609580D01*
X166785714Y-78609580D02*
X166833333Y-78657200D01*
X166833333Y-78657200D02*
X166928571Y-78704819D01*
X166928571Y-78704819D02*
X167119047Y-78704819D01*
X167119047Y-78704819D02*
X167214285Y-78657200D01*
X167214285Y-78657200D02*
X167261904Y-78609580D01*
X167261904Y-78609580D02*
X167309523Y-78514342D01*
X167309523Y-78514342D02*
X167309523Y-77704819D01*
X168309523Y-78704819D02*
X167738095Y-78704819D01*
X168023809Y-78704819D02*
X168023809Y-77704819D01*
X168023809Y-77704819D02*
X167928571Y-77847676D01*
X167928571Y-77847676D02*
X167833333Y-77942914D01*
X167833333Y-77942914D02*
X167738095Y-77990533D01*
X157833333Y-87609580D02*
X157785714Y-87657200D01*
X157785714Y-87657200D02*
X157642857Y-87704819D01*
X157642857Y-87704819D02*
X157547619Y-87704819D01*
X157547619Y-87704819D02*
X157404762Y-87657200D01*
X157404762Y-87657200D02*
X157309524Y-87561961D01*
X157309524Y-87561961D02*
X157261905Y-87466723D01*
X157261905Y-87466723D02*
X157214286Y-87276247D01*
X157214286Y-87276247D02*
X157214286Y-87133390D01*
X157214286Y-87133390D02*
X157261905Y-86942914D01*
X157261905Y-86942914D02*
X157309524Y-86847676D01*
X157309524Y-86847676D02*
X157404762Y-86752438D01*
X157404762Y-86752438D02*
X157547619Y-86704819D01*
X157547619Y-86704819D02*
X157642857Y-86704819D01*
X157642857Y-86704819D02*
X157785714Y-86752438D01*
X157785714Y-86752438D02*
X157833333Y-86800057D01*
X158785714Y-87704819D02*
X158214286Y-87704819D01*
X158500000Y-87704819D02*
X158500000Y-86704819D01*
X158500000Y-86704819D02*
X158404762Y-86847676D01*
X158404762Y-86847676D02*
X158309524Y-86942914D01*
X158309524Y-86942914D02*
X158214286Y-86990533D01*
X154583333Y-87454819D02*
X154250000Y-86978628D01*
X154011905Y-87454819D02*
X154011905Y-86454819D01*
X154011905Y-86454819D02*
X154392857Y-86454819D01*
X154392857Y-86454819D02*
X154488095Y-86502438D01*
X154488095Y-86502438D02*
X154535714Y-86550057D01*
X154535714Y-86550057D02*
X154583333Y-86645295D01*
X154583333Y-86645295D02*
X154583333Y-86788152D01*
X154583333Y-86788152D02*
X154535714Y-86883390D01*
X154535714Y-86883390D02*
X154488095Y-86931009D01*
X154488095Y-86931009D02*
X154392857Y-86978628D01*
X154392857Y-86978628D02*
X154011905Y-86978628D01*
X155535714Y-87454819D02*
X154964286Y-87454819D01*
X155250000Y-87454819D02*
X155250000Y-86454819D01*
X155250000Y-86454819D02*
X155154762Y-86597676D01*
X155154762Y-86597676D02*
X155059524Y-86692914D01*
X155059524Y-86692914D02*
X154964286Y-86740533D01*
X157833333Y-85859580D02*
X157785714Y-85907200D01*
X157785714Y-85907200D02*
X157642857Y-85954819D01*
X157642857Y-85954819D02*
X157547619Y-85954819D01*
X157547619Y-85954819D02*
X157404762Y-85907200D01*
X157404762Y-85907200D02*
X157309524Y-85811961D01*
X157309524Y-85811961D02*
X157261905Y-85716723D01*
X157261905Y-85716723D02*
X157214286Y-85526247D01*
X157214286Y-85526247D02*
X157214286Y-85383390D01*
X157214286Y-85383390D02*
X157261905Y-85192914D01*
X157261905Y-85192914D02*
X157309524Y-85097676D01*
X157309524Y-85097676D02*
X157404762Y-85002438D01*
X157404762Y-85002438D02*
X157547619Y-84954819D01*
X157547619Y-84954819D02*
X157642857Y-84954819D01*
X157642857Y-84954819D02*
X157785714Y-85002438D01*
X157785714Y-85002438D02*
X157833333Y-85050057D01*
X158214286Y-85050057D02*
X158261905Y-85002438D01*
X158261905Y-85002438D02*
X158357143Y-84954819D01*
X158357143Y-84954819D02*
X158595238Y-84954819D01*
X158595238Y-84954819D02*
X158690476Y-85002438D01*
X158690476Y-85002438D02*
X158738095Y-85050057D01*
X158738095Y-85050057D02*
X158785714Y-85145295D01*
X158785714Y-85145295D02*
X158785714Y-85240533D01*
X158785714Y-85240533D02*
X158738095Y-85383390D01*
X158738095Y-85383390D02*
X158166667Y-85954819D01*
X158166667Y-85954819D02*
X158785714Y-85954819D01*
X167370833Y-86609580D02*
X167323214Y-86657200D01*
X167323214Y-86657200D02*
X167180357Y-86704819D01*
X167180357Y-86704819D02*
X167085119Y-86704819D01*
X167085119Y-86704819D02*
X166942262Y-86657200D01*
X166942262Y-86657200D02*
X166847024Y-86561961D01*
X166847024Y-86561961D02*
X166799405Y-86466723D01*
X166799405Y-86466723D02*
X166751786Y-86276247D01*
X166751786Y-86276247D02*
X166751786Y-86133390D01*
X166751786Y-86133390D02*
X166799405Y-85942914D01*
X166799405Y-85942914D02*
X166847024Y-85847676D01*
X166847024Y-85847676D02*
X166942262Y-85752438D01*
X166942262Y-85752438D02*
X167085119Y-85704819D01*
X167085119Y-85704819D02*
X167180357Y-85704819D01*
X167180357Y-85704819D02*
X167323214Y-85752438D01*
X167323214Y-85752438D02*
X167370833Y-85800057D01*
X168227976Y-86038152D02*
X168227976Y-86704819D01*
X167989881Y-85657200D02*
X167751786Y-86371485D01*
X167751786Y-86371485D02*
X168370833Y-86371485D01*
D11*
X126776667Y-99104318D02*
X126776667Y-100011461D01*
X126776667Y-100011461D02*
X126716190Y-100192889D01*
X126716190Y-100192889D02*
X126595238Y-100313842D01*
X126595238Y-100313842D02*
X126413809Y-100374318D01*
X126413809Y-100374318D02*
X126292857Y-100374318D01*
X128046667Y-100374318D02*
X127320952Y-100374318D01*
X127683809Y-100374318D02*
X127683809Y-99104318D01*
X127683809Y-99104318D02*
X127562857Y-99285746D01*
X127562857Y-99285746D02*
X127441905Y-99406699D01*
X127441905Y-99406699D02*
X127320952Y-99467175D01*
X151826667Y-99054318D02*
X151826667Y-99961461D01*
X151826667Y-99961461D02*
X151766190Y-100142889D01*
X151766190Y-100142889D02*
X151645238Y-100263842D01*
X151645238Y-100263842D02*
X151463809Y-100324318D01*
X151463809Y-100324318D02*
X151342857Y-100324318D01*
X152370952Y-99175270D02*
X152431428Y-99114794D01*
X152431428Y-99114794D02*
X152552381Y-99054318D01*
X152552381Y-99054318D02*
X152854762Y-99054318D01*
X152854762Y-99054318D02*
X152975714Y-99114794D01*
X152975714Y-99114794D02*
X153036190Y-99175270D01*
X153036190Y-99175270D02*
X153096667Y-99296222D01*
X153096667Y-99296222D02*
X153096667Y-99417175D01*
X153096667Y-99417175D02*
X153036190Y-99598603D01*
X153036190Y-99598603D02*
X152310476Y-100324318D01*
X152310476Y-100324318D02*
X153096667Y-100324318D01*
D10*
X168333333Y-64509580D02*
X168285714Y-64557200D01*
X168285714Y-64557200D02*
X168142857Y-64604819D01*
X168142857Y-64604819D02*
X168047619Y-64604819D01*
X168047619Y-64604819D02*
X167904762Y-64557200D01*
X167904762Y-64557200D02*
X167809524Y-64461961D01*
X167809524Y-64461961D02*
X167761905Y-64366723D01*
X167761905Y-64366723D02*
X167714286Y-64176247D01*
X167714286Y-64176247D02*
X167714286Y-64033390D01*
X167714286Y-64033390D02*
X167761905Y-63842914D01*
X167761905Y-63842914D02*
X167809524Y-63747676D01*
X167809524Y-63747676D02*
X167904762Y-63652438D01*
X167904762Y-63652438D02*
X168047619Y-63604819D01*
X168047619Y-63604819D02*
X168142857Y-63604819D01*
X168142857Y-63604819D02*
X168285714Y-63652438D01*
X168285714Y-63652438D02*
X168333333Y-63700057D01*
X169238095Y-63604819D02*
X168761905Y-63604819D01*
X168761905Y-63604819D02*
X168714286Y-64081009D01*
X168714286Y-64081009D02*
X168761905Y-64033390D01*
X168761905Y-64033390D02*
X168857143Y-63985771D01*
X168857143Y-63985771D02*
X169095238Y-63985771D01*
X169095238Y-63985771D02*
X169190476Y-64033390D01*
X169190476Y-64033390D02*
X169238095Y-64081009D01*
X169238095Y-64081009D02*
X169285714Y-64176247D01*
X169285714Y-64176247D02*
X169285714Y-64414342D01*
X169285714Y-64414342D02*
X169238095Y-64509580D01*
X169238095Y-64509580D02*
X169190476Y-64557200D01*
X169190476Y-64557200D02*
X169095238Y-64604819D01*
X169095238Y-64604819D02*
X168857143Y-64604819D01*
X168857143Y-64604819D02*
X168761905Y-64557200D01*
X168761905Y-64557200D02*
X168714286Y-64509580D01*
X168333333Y-70859580D02*
X168285714Y-70907200D01*
X168285714Y-70907200D02*
X168142857Y-70954819D01*
X168142857Y-70954819D02*
X168047619Y-70954819D01*
X168047619Y-70954819D02*
X167904762Y-70907200D01*
X167904762Y-70907200D02*
X167809524Y-70811961D01*
X167809524Y-70811961D02*
X167761905Y-70716723D01*
X167761905Y-70716723D02*
X167714286Y-70526247D01*
X167714286Y-70526247D02*
X167714286Y-70383390D01*
X167714286Y-70383390D02*
X167761905Y-70192914D01*
X167761905Y-70192914D02*
X167809524Y-70097676D01*
X167809524Y-70097676D02*
X167904762Y-70002438D01*
X167904762Y-70002438D02*
X168047619Y-69954819D01*
X168047619Y-69954819D02*
X168142857Y-69954819D01*
X168142857Y-69954819D02*
X168285714Y-70002438D01*
X168285714Y-70002438D02*
X168333333Y-70050057D01*
X169190476Y-69954819D02*
X169000000Y-69954819D01*
X169000000Y-69954819D02*
X168904762Y-70002438D01*
X168904762Y-70002438D02*
X168857143Y-70050057D01*
X168857143Y-70050057D02*
X168761905Y-70192914D01*
X168761905Y-70192914D02*
X168714286Y-70383390D01*
X168714286Y-70383390D02*
X168714286Y-70764342D01*
X168714286Y-70764342D02*
X168761905Y-70859580D01*
X168761905Y-70859580D02*
X168809524Y-70907200D01*
X168809524Y-70907200D02*
X168904762Y-70954819D01*
X168904762Y-70954819D02*
X169095238Y-70954819D01*
X169095238Y-70954819D02*
X169190476Y-70907200D01*
X169190476Y-70907200D02*
X169238095Y-70859580D01*
X169238095Y-70859580D02*
X169285714Y-70764342D01*
X169285714Y-70764342D02*
X169285714Y-70526247D01*
X169285714Y-70526247D02*
X169238095Y-70431009D01*
X169238095Y-70431009D02*
X169190476Y-70383390D01*
X169190476Y-70383390D02*
X169095238Y-70335771D01*
X169095238Y-70335771D02*
X168904762Y-70335771D01*
X168904762Y-70335771D02*
X168809524Y-70383390D01*
X168809524Y-70383390D02*
X168761905Y-70431009D01*
X168761905Y-70431009D02*
X168714286Y-70526247D01*
X165916666Y-67331009D02*
X165583333Y-67331009D01*
X165583333Y-67854819D02*
X165583333Y-66854819D01*
X165583333Y-66854819D02*
X166059523Y-66854819D01*
X166773809Y-67331009D02*
X166916666Y-67378628D01*
X166916666Y-67378628D02*
X166964285Y-67426247D01*
X166964285Y-67426247D02*
X167011904Y-67521485D01*
X167011904Y-67521485D02*
X167011904Y-67664342D01*
X167011904Y-67664342D02*
X166964285Y-67759580D01*
X166964285Y-67759580D02*
X166916666Y-67807200D01*
X166916666Y-67807200D02*
X166821428Y-67854819D01*
X166821428Y-67854819D02*
X166440476Y-67854819D01*
X166440476Y-67854819D02*
X166440476Y-66854819D01*
X166440476Y-66854819D02*
X166773809Y-66854819D01*
X166773809Y-66854819D02*
X166869047Y-66902438D01*
X166869047Y-66902438D02*
X166916666Y-66950057D01*
X166916666Y-66950057D02*
X166964285Y-67045295D01*
X166964285Y-67045295D02*
X166964285Y-67140533D01*
X166964285Y-67140533D02*
X166916666Y-67235771D01*
X166916666Y-67235771D02*
X166869047Y-67283390D01*
X166869047Y-67283390D02*
X166773809Y-67331009D01*
X166773809Y-67331009D02*
X166440476Y-67331009D01*
X167345238Y-66854819D02*
X167964285Y-66854819D01*
X167964285Y-66854819D02*
X167630952Y-67235771D01*
X167630952Y-67235771D02*
X167773809Y-67235771D01*
X167773809Y-67235771D02*
X167869047Y-67283390D01*
X167869047Y-67283390D02*
X167916666Y-67331009D01*
X167916666Y-67331009D02*
X167964285Y-67426247D01*
X167964285Y-67426247D02*
X167964285Y-67664342D01*
X167964285Y-67664342D02*
X167916666Y-67759580D01*
X167916666Y-67759580D02*
X167869047Y-67807200D01*
X167869047Y-67807200D02*
X167773809Y-67854819D01*
X167773809Y-67854819D02*
X167488095Y-67854819D01*
X167488095Y-67854819D02*
X167392857Y-67807200D01*
X167392857Y-67807200D02*
X167345238Y-67759580D01*
D11*
X121576667Y-113304318D02*
X121576667Y-114211461D01*
X121576667Y-114211461D02*
X121516190Y-114392889D01*
X121516190Y-114392889D02*
X121395238Y-114513842D01*
X121395238Y-114513842D02*
X121213809Y-114574318D01*
X121213809Y-114574318D02*
X121092857Y-114574318D01*
X122060476Y-113304318D02*
X122846667Y-113304318D01*
X122846667Y-113304318D02*
X122423333Y-113788127D01*
X122423333Y-113788127D02*
X122604762Y-113788127D01*
X122604762Y-113788127D02*
X122725714Y-113848603D01*
X122725714Y-113848603D02*
X122786190Y-113909080D01*
X122786190Y-113909080D02*
X122846667Y-114030032D01*
X122846667Y-114030032D02*
X122846667Y-114332413D01*
X122846667Y-114332413D02*
X122786190Y-114453365D01*
X122786190Y-114453365D02*
X122725714Y-114513842D01*
X122725714Y-114513842D02*
X122604762Y-114574318D01*
X122604762Y-114574318D02*
X122241905Y-114574318D01*
X122241905Y-114574318D02*
X122120952Y-114513842D01*
X122120952Y-114513842D02*
X122060476Y-114453365D01*
D10*
X153722905Y-90440070D02*
X153722905Y-89440070D01*
X153722905Y-89440070D02*
X153961000Y-89440070D01*
X153961000Y-89440070D02*
X154103857Y-89487689D01*
X154103857Y-89487689D02*
X154199095Y-89582927D01*
X154199095Y-89582927D02*
X154246714Y-89678165D01*
X154246714Y-89678165D02*
X154294333Y-89868641D01*
X154294333Y-89868641D02*
X154294333Y-90011498D01*
X154294333Y-90011498D02*
X154246714Y-90201974D01*
X154246714Y-90201974D02*
X154199095Y-90297212D01*
X154199095Y-90297212D02*
X154103857Y-90392451D01*
X154103857Y-90392451D02*
X153961000Y-90440070D01*
X153961000Y-90440070D02*
X153722905Y-90440070D01*
X154675286Y-89535308D02*
X154722905Y-89487689D01*
X154722905Y-89487689D02*
X154818143Y-89440070D01*
X154818143Y-89440070D02*
X155056238Y-89440070D01*
X155056238Y-89440070D02*
X155151476Y-89487689D01*
X155151476Y-89487689D02*
X155199095Y-89535308D01*
X155199095Y-89535308D02*
X155246714Y-89630546D01*
X155246714Y-89630546D02*
X155246714Y-89725784D01*
X155246714Y-89725784D02*
X155199095Y-89868641D01*
X155199095Y-89868641D02*
X154627667Y-90440070D01*
X154627667Y-90440070D02*
X155246714Y-90440070D01*
X158333333Y-71109580D02*
X158285714Y-71157200D01*
X158285714Y-71157200D02*
X158142857Y-71204819D01*
X158142857Y-71204819D02*
X158047619Y-71204819D01*
X158047619Y-71204819D02*
X157904762Y-71157200D01*
X157904762Y-71157200D02*
X157809524Y-71061961D01*
X157809524Y-71061961D02*
X157761905Y-70966723D01*
X157761905Y-70966723D02*
X157714286Y-70776247D01*
X157714286Y-70776247D02*
X157714286Y-70633390D01*
X157714286Y-70633390D02*
X157761905Y-70442914D01*
X157761905Y-70442914D02*
X157809524Y-70347676D01*
X157809524Y-70347676D02*
X157904762Y-70252438D01*
X157904762Y-70252438D02*
X158047619Y-70204819D01*
X158047619Y-70204819D02*
X158142857Y-70204819D01*
X158142857Y-70204819D02*
X158285714Y-70252438D01*
X158285714Y-70252438D02*
X158333333Y-70300057D01*
X158904762Y-70633390D02*
X158809524Y-70585771D01*
X158809524Y-70585771D02*
X158761905Y-70538152D01*
X158761905Y-70538152D02*
X158714286Y-70442914D01*
X158714286Y-70442914D02*
X158714286Y-70395295D01*
X158714286Y-70395295D02*
X158761905Y-70300057D01*
X158761905Y-70300057D02*
X158809524Y-70252438D01*
X158809524Y-70252438D02*
X158904762Y-70204819D01*
X158904762Y-70204819D02*
X159095238Y-70204819D01*
X159095238Y-70204819D02*
X159190476Y-70252438D01*
X159190476Y-70252438D02*
X159238095Y-70300057D01*
X159238095Y-70300057D02*
X159285714Y-70395295D01*
X159285714Y-70395295D02*
X159285714Y-70442914D01*
X159285714Y-70442914D02*
X159238095Y-70538152D01*
X159238095Y-70538152D02*
X159190476Y-70585771D01*
X159190476Y-70585771D02*
X159095238Y-70633390D01*
X159095238Y-70633390D02*
X158904762Y-70633390D01*
X158904762Y-70633390D02*
X158809524Y-70681009D01*
X158809524Y-70681009D02*
X158761905Y-70728628D01*
X158761905Y-70728628D02*
X158714286Y-70823866D01*
X158714286Y-70823866D02*
X158714286Y-71014342D01*
X158714286Y-71014342D02*
X158761905Y-71109580D01*
X158761905Y-71109580D02*
X158809524Y-71157200D01*
X158809524Y-71157200D02*
X158904762Y-71204819D01*
X158904762Y-71204819D02*
X159095238Y-71204819D01*
X159095238Y-71204819D02*
X159190476Y-71157200D01*
X159190476Y-71157200D02*
X159238095Y-71109580D01*
X159238095Y-71109580D02*
X159285714Y-71014342D01*
X159285714Y-71014342D02*
X159285714Y-70823866D01*
X159285714Y-70823866D02*
X159238095Y-70728628D01*
X159238095Y-70728628D02*
X159190476Y-70681009D01*
X159190476Y-70681009D02*
X159095238Y-70633390D01*
X126607142Y-71109580D02*
X126559523Y-71157200D01*
X126559523Y-71157200D02*
X126416666Y-71204819D01*
X126416666Y-71204819D02*
X126321428Y-71204819D01*
X126321428Y-71204819D02*
X126178571Y-71157200D01*
X126178571Y-71157200D02*
X126083333Y-71061961D01*
X126083333Y-71061961D02*
X126035714Y-70966723D01*
X126035714Y-70966723D02*
X125988095Y-70776247D01*
X125988095Y-70776247D02*
X125988095Y-70633390D01*
X125988095Y-70633390D02*
X126035714Y-70442914D01*
X126035714Y-70442914D02*
X126083333Y-70347676D01*
X126083333Y-70347676D02*
X126178571Y-70252438D01*
X126178571Y-70252438D02*
X126321428Y-70204819D01*
X126321428Y-70204819D02*
X126416666Y-70204819D01*
X126416666Y-70204819D02*
X126559523Y-70252438D01*
X126559523Y-70252438D02*
X126607142Y-70300057D01*
X127559523Y-71204819D02*
X126988095Y-71204819D01*
X127273809Y-71204819D02*
X127273809Y-70204819D01*
X127273809Y-70204819D02*
X127178571Y-70347676D01*
X127178571Y-70347676D02*
X127083333Y-70442914D01*
X127083333Y-70442914D02*
X126988095Y-70490533D01*
X128178571Y-70204819D02*
X128273809Y-70204819D01*
X128273809Y-70204819D02*
X128369047Y-70252438D01*
X128369047Y-70252438D02*
X128416666Y-70300057D01*
X128416666Y-70300057D02*
X128464285Y-70395295D01*
X128464285Y-70395295D02*
X128511904Y-70585771D01*
X128511904Y-70585771D02*
X128511904Y-70823866D01*
X128511904Y-70823866D02*
X128464285Y-71014342D01*
X128464285Y-71014342D02*
X128416666Y-71109580D01*
X128416666Y-71109580D02*
X128369047Y-71157200D01*
X128369047Y-71157200D02*
X128273809Y-71204819D01*
X128273809Y-71204819D02*
X128178571Y-71204819D01*
X128178571Y-71204819D02*
X128083333Y-71157200D01*
X128083333Y-71157200D02*
X128035714Y-71109580D01*
X128035714Y-71109580D02*
X127988095Y-71014342D01*
X127988095Y-71014342D02*
X127940476Y-70823866D01*
X127940476Y-70823866D02*
X127940476Y-70585771D01*
X127940476Y-70585771D02*
X127988095Y-70395295D01*
X127988095Y-70395295D02*
X128035714Y-70300057D01*
X128035714Y-70300057D02*
X128083333Y-70252438D01*
X128083333Y-70252438D02*
X128178571Y-70204819D01*
X160454166Y-89431009D02*
X160120833Y-89431009D01*
X160120833Y-89954819D02*
X160120833Y-88954819D01*
X160120833Y-88954819D02*
X160597023Y-88954819D01*
X161311309Y-89431009D02*
X161454166Y-89478628D01*
X161454166Y-89478628D02*
X161501785Y-89526247D01*
X161501785Y-89526247D02*
X161549404Y-89621485D01*
X161549404Y-89621485D02*
X161549404Y-89764342D01*
X161549404Y-89764342D02*
X161501785Y-89859580D01*
X161501785Y-89859580D02*
X161454166Y-89907200D01*
X161454166Y-89907200D02*
X161358928Y-89954819D01*
X161358928Y-89954819D02*
X160977976Y-89954819D01*
X160977976Y-89954819D02*
X160977976Y-88954819D01*
X160977976Y-88954819D02*
X161311309Y-88954819D01*
X161311309Y-88954819D02*
X161406547Y-89002438D01*
X161406547Y-89002438D02*
X161454166Y-89050057D01*
X161454166Y-89050057D02*
X161501785Y-89145295D01*
X161501785Y-89145295D02*
X161501785Y-89240533D01*
X161501785Y-89240533D02*
X161454166Y-89335771D01*
X161454166Y-89335771D02*
X161406547Y-89383390D01*
X161406547Y-89383390D02*
X161311309Y-89431009D01*
X161311309Y-89431009D02*
X160977976Y-89431009D01*
X161930357Y-89050057D02*
X161977976Y-89002438D01*
X161977976Y-89002438D02*
X162073214Y-88954819D01*
X162073214Y-88954819D02*
X162311309Y-88954819D01*
X162311309Y-88954819D02*
X162406547Y-89002438D01*
X162406547Y-89002438D02*
X162454166Y-89050057D01*
X162454166Y-89050057D02*
X162501785Y-89145295D01*
X162501785Y-89145295D02*
X162501785Y-89240533D01*
X162501785Y-89240533D02*
X162454166Y-89383390D01*
X162454166Y-89383390D02*
X161882738Y-89954819D01*
X161882738Y-89954819D02*
X162501785Y-89954819D01*
D12*
%TO.C,FB1*%
X164977500Y-89910242D02*
X164977500Y-89089758D01*
X166097500Y-89910242D02*
X166097500Y-89089758D01*
%TO.C,C3*%
X164276248Y-92015000D02*
X164798752Y-92015000D01*
X164276248Y-93485000D02*
X164798752Y-93485000D01*
D13*
%TO.C,IC1*%
X131825000Y-74450000D02*
X137675000Y-74450000D01*
X131825000Y-82550000D02*
X131825000Y-74450000D01*
X132170000Y-84750000D02*
X132170000Y-82900000D01*
X137675000Y-74450000D02*
X137675000Y-82550000D01*
X137675000Y-82550000D02*
X131825000Y-82550000D01*
%TO.C,J4*%
X178970000Y-53155000D02*
X183970000Y-53155000D01*
X178970000Y-111825000D02*
X178970000Y-53155000D01*
D14*
X180200000Y-52550000D02*
X180200000Y-52550000D01*
X180200000Y-52650000D02*
X180200000Y-52650000D01*
D13*
X183970000Y-53155000D02*
X183970000Y-111825000D01*
X183970000Y-111825000D02*
X178970000Y-111825000D01*
D14*
X180200000Y-52550000D02*
G75*
G02*
X180200000Y-52650000I0J-50000D01*
G01*
X180200000Y-52650000D02*
G75*
G02*
X180200000Y-52550000I0J50000D01*
G01*
D12*
%TO.C,C9*%
X130353733Y-85740000D02*
X130646267Y-85740000D01*
X130353733Y-86760000D02*
X130646267Y-86760000D01*
%TO.C,D1*%
X133140000Y-88302500D02*
X134140000Y-88302500D01*
X133140000Y-89822500D02*
X133140000Y-88302500D01*
X133190000Y-89822500D02*
X133140000Y-89822500D01*
X135090000Y-89822500D02*
X134310000Y-89822500D01*
X135260000Y-88302500D02*
X136260000Y-88302500D01*
X136260000Y-88302500D02*
X136260000Y-89822500D01*
X136260000Y-89822500D02*
X136210000Y-89822500D01*
X134650000Y-90602500D02*
X134320000Y-90362500D01*
X134650000Y-90122500D01*
X134650000Y-90602500D01*
G36*
X134650000Y-90602500D02*
G01*
X134320000Y-90362500D01*
X134650000Y-90122500D01*
X134650000Y-90602500D01*
G37*
%TO.C,C7*%
X161146267Y-63740000D02*
X160853733Y-63740000D01*
X161146267Y-64760000D02*
X160853733Y-64760000D01*
%TO.C,FB4*%
X161440000Y-67910242D02*
X161440000Y-67089758D01*
X162560000Y-67910242D02*
X162560000Y-67089758D01*
%TO.C,U1*%
X153240000Y-74390000D02*
X153475000Y-74390000D01*
X153240000Y-82110000D02*
X153240000Y-74390000D01*
X153475000Y-82110000D02*
X153240000Y-82110000D01*
X166025000Y-74390000D02*
X166260000Y-74390000D01*
X166260000Y-74390000D02*
X166260000Y-82110000D01*
X166260000Y-82110000D02*
X166025000Y-82110000D01*
X166500000Y-73940000D02*
X166030000Y-73600000D01*
X166500000Y-73260000D01*
X166500000Y-73940000D01*
G36*
X166500000Y-73940000D02*
G01*
X166030000Y-73600000D01*
X166500000Y-73260000D01*
X166500000Y-73940000D01*
G37*
%TO.C,C1*%
X160603733Y-86740000D02*
X160896267Y-86740000D01*
X160603733Y-87760000D02*
X160896267Y-87760000D01*
%TO.C,R1*%
X154495276Y-84977500D02*
X155004724Y-84977500D01*
X154495276Y-86022500D02*
X155004724Y-86022500D01*
%TO.C,C2*%
X160896267Y-84990000D02*
X160603733Y-84990000D01*
X160896267Y-86010000D02*
X160603733Y-86010000D01*
%TO.C,C4*%
X164238748Y-85515000D02*
X164761252Y-85515000D01*
X164238748Y-86985000D02*
X164761252Y-86985000D01*
D13*
%TO.C,J1*%
X128800000Y-96400000D02*
X128800000Y-96400000D01*
X128800000Y-96400000D02*
X128800000Y-96400000D01*
X128900000Y-96400000D02*
X128900000Y-96400000D01*
X129400000Y-93300000D02*
X137480000Y-93300000D01*
X129400000Y-99500000D02*
X129400000Y-93300000D01*
X130000000Y-99500000D02*
X129400000Y-99500000D01*
X132400000Y-99500000D02*
X131800000Y-99500000D01*
X135100000Y-99500000D02*
X134200000Y-99500000D01*
X137480000Y-93300000D02*
X137480000Y-99500000D01*
X137480000Y-99500000D02*
X136900000Y-99500000D01*
X128800000Y-96400000D02*
G75*
G02*
X128900000Y-96400000I50000J0D01*
G01*
X128900000Y-96400000D02*
G75*
G02*
X128800000Y-96400000I-50000J0D01*
G01*
X128900000Y-96400000D02*
G75*
G02*
X128800000Y-96400000I-50000J0D01*
G01*
%TO.C,J2*%
X153841000Y-96485251D02*
X153841000Y-96485251D01*
X153841000Y-96485251D02*
X153841000Y-96485251D01*
X153941000Y-96485251D02*
X153941000Y-96485251D01*
X154441000Y-93385251D02*
X159981000Y-93385251D01*
X154441000Y-99585251D02*
X154441000Y-93385251D01*
X155041000Y-99585251D02*
X154441000Y-99585251D01*
X159981000Y-93385251D02*
X159981000Y-99585251D01*
X159981000Y-99585251D02*
X159241000Y-99585251D01*
X153841000Y-96485251D02*
G75*
G02*
X153941000Y-96485251I50000J0D01*
G01*
X153941000Y-96485251D02*
G75*
G02*
X153841000Y-96485251I-50000J0D01*
G01*
X153941000Y-96485251D02*
G75*
G02*
X153841000Y-96485251I-50000J0D01*
G01*
D12*
%TO.C,C5*%
X165761252Y-63415000D02*
X165238748Y-63415000D01*
X165761252Y-64885000D02*
X165238748Y-64885000D01*
%TO.C,C6*%
X165238748Y-69765000D02*
X165761252Y-69765000D01*
X165238748Y-71235000D02*
X165761252Y-71235000D01*
%TO.C,FB3*%
X163940000Y-67810242D02*
X163940000Y-66989758D01*
X165060000Y-67810242D02*
X165060000Y-66989758D01*
D13*
%TO.C,J3*%
X118030000Y-53155000D02*
X123030000Y-53155000D01*
X118030000Y-111825000D02*
X118030000Y-53155000D01*
D14*
X119260000Y-52550000D02*
X119260000Y-52550000D01*
X119260000Y-52650000D02*
X119260000Y-52650000D01*
D13*
X123030000Y-53155000D02*
X123030000Y-111825000D01*
X123030000Y-111825000D02*
X118030000Y-111825000D01*
D14*
X119260000Y-52550000D02*
G75*
G02*
X119260000Y-52650000I0J-50000D01*
G01*
X119260000Y-52650000D02*
G75*
G02*
X119260000Y-52550000I0J50000D01*
G01*
D12*
%TO.C,D2*%
X155651000Y-89075251D02*
X156651000Y-89075251D01*
X155651000Y-90895251D02*
X155651000Y-89075251D01*
X155701000Y-90895251D02*
X155651000Y-90895251D01*
X157601000Y-90895251D02*
X156821000Y-90895251D01*
X157771000Y-89075251D02*
X158771000Y-89075251D01*
X158771000Y-89075251D02*
X158771000Y-90895251D01*
X158771000Y-90895251D02*
X158721000Y-90895251D01*
X157161000Y-91675251D02*
X156831000Y-91435251D01*
X157161000Y-91195251D01*
X157161000Y-91675251D01*
G36*
X157161000Y-91675251D02*
G01*
X156831000Y-91435251D01*
X157161000Y-91195251D01*
X157161000Y-91675251D01*
G37*
%TO.C,C8*%
X161396267Y-70240000D02*
X161103733Y-70240000D01*
X161396267Y-71260000D02*
X161103733Y-71260000D01*
%TO.C,C10*%
X130353733Y-70240000D02*
X130646267Y-70240000D01*
X130353733Y-71260000D02*
X130646267Y-71260000D01*
%TO.C,FB2*%
X162977500Y-89089758D02*
X162977500Y-89910242D01*
X164097500Y-89089758D02*
X164097500Y-89910242D01*
%TD*%
M02*
