%TF.GenerationSoftware,KiCad,Pcbnew,9.0.7-9.0.7~ubuntu24.04.1*%
%TF.CreationDate,2026-01-13T16:37:34+01:00*%
%TF.ProjectId,can_uart,63616e5f-7561-4727-942e-6b696361645f,1.0*%
%TF.SameCoordinates,Original*%
%TF.FileFunction,Copper,L1,Top*%
%TF.FilePolarity,Positive*%
%FSLAX46Y46*%
G04 Gerber Fmt 4.6, Leading zero omitted, Abs format (unit mm)*
G04 Created by KiCad (PCBNEW 9.0.7-9.0.7~ubuntu24.04.1) date 2026-01-13 16:37:34*
%MOMM*%
%LPD*%
G01*
G04 APERTURE LIST*
G04 Aperture macros list*
%AMRoundRect*
0 Rectangle with rounded corners*
0 $1 Rounding radius*
0 $2 $3 $4 $5 $6 $7 $8 $9 X,Y pos of 4 corners*
0 Add a 4 corners polygon primitive as box body*
4,1,4,$2,$3,$4,$5,$6,$7,$8,$9,$2,$3,0*
0 Add four circle primitives for the rounded corners*
1,1,$1+$1,$2,$3*
1,1,$1+$1,$4,$5*
1,1,$1+$1,$6,$7*
1,1,$1+$1,$8,$9*
0 Add four rect primitives between the rounded corners*
20,1,$1+$1,$2,$3,$4,$5,0*
20,1,$1+$1,$4,$5,$6,$7,0*
20,1,$1+$1,$6,$7,$8,$9,0*
20,1,$1+$1,$8,$9,$2,$3,0*%
G04 Aperture macros list end*
%TA.AperFunction,SMDPad,CuDef*%
%ADD10RoundRect,0.250000X0.350000X-0.275000X0.350000X0.275000X-0.350000X0.275000X-0.350000X-0.275000X0*%
%TD*%
%TA.AperFunction,SMDPad,CuDef*%
%ADD11RoundRect,0.250000X-0.337500X-0.475000X0.337500X-0.475000X0.337500X0.475000X-0.337500X0.475000X0*%
%TD*%
%TA.AperFunction,SMDPad,CuDef*%
%ADD12R,0.650000X1.850000*%
%TD*%
%TA.AperFunction,ComponentPad*%
%ADD13R,1.530000X1.530000*%
%TD*%
%TA.AperFunction,ComponentPad*%
%ADD14C,1.530000*%
%TD*%
%TA.AperFunction,SMDPad,CuDef*%
%ADD15RoundRect,0.237500X-0.300000X-0.237500X0.300000X-0.237500X0.300000X0.237500X-0.300000X0.237500X0*%
%TD*%
%TA.AperFunction,SMDPad,CuDef*%
%ADD16RoundRect,0.150000X0.150000X-0.587500X0.150000X0.587500X-0.150000X0.587500X-0.150000X-0.587500X0*%
%TD*%
%TA.AperFunction,SMDPad,CuDef*%
%ADD17RoundRect,0.237500X0.300000X0.237500X-0.300000X0.237500X-0.300000X-0.237500X0.300000X-0.237500X0*%
%TD*%
%TA.AperFunction,SMDPad,CuDef*%
%ADD18RoundRect,0.150000X-0.150000X0.875000X-0.150000X-0.875000X0.150000X-0.875000X0.150000X0.875000X0*%
%TD*%
%TA.AperFunction,SMDPad,CuDef*%
%ADD19RoundRect,0.237500X-0.250000X-0.237500X0.250000X-0.237500X0.250000X0.237500X-0.250000X0.237500X0*%
%TD*%
%TA.AperFunction,ComponentPad*%
%ADD20R,1.650000X1.650000*%
%TD*%
%TA.AperFunction,ComponentPad*%
%ADD21C,1.650000*%
%TD*%
%TA.AperFunction,SMDPad,CuDef*%
%ADD22RoundRect,0.250000X0.337500X0.475000X-0.337500X0.475000X-0.337500X-0.475000X0.337500X-0.475000X0*%
%TD*%
%TA.AperFunction,SMDPad,CuDef*%
%ADD23RoundRect,0.150000X0.150000X-0.512500X0.150000X0.512500X-0.150000X0.512500X-0.150000X-0.512500X0*%
%TD*%
%TA.AperFunction,SMDPad,CuDef*%
%ADD24RoundRect,0.250000X-0.350000X0.275000X-0.350000X-0.275000X0.350000X-0.275000X0.350000X0.275000X0*%
%TD*%
%TA.AperFunction,ViaPad*%
%ADD25C,0.500000*%
%TD*%
%TA.AperFunction,Conductor*%
%ADD26C,0.400000*%
%TD*%
%TA.AperFunction,Conductor*%
%ADD27C,0.200000*%
%TD*%
G04 APERTURE END LIST*
D10*
%TO.P,FB1,1*%
%TO.N,/can/VISOIN*%
X165537500Y-90650000D03*
%TO.P,FB1,2*%
%TO.N,/can/VISOOUT*%
X165537500Y-88350000D03*
%TD*%
D11*
%TO.P,C3,1*%
%TO.N,CAN_GND_ISO*%
X163500000Y-92750000D03*
%TO.P,C3,2*%
%TO.N,/can/VISOIN*%
X165575000Y-92750000D03*
%TD*%
D12*
%TO.P,IC1,1,VCC1*%
%TO.N,+3V*%
X132845000Y-83825000D03*
%TO.P,IC1,2,OUTA*%
%TO.N,O_UART_TX*%
X134115000Y-83825000D03*
%TO.P,IC1,3,INB*%
%TO.N,O_UART_RX*%
X135385000Y-83825000D03*
%TO.P,IC1,4,GND1*%
%TO.N,GNDREF*%
X136655000Y-83825000D03*
%TO.P,IC1,5,GND2*%
%TO.N,GND*%
X136655000Y-73175000D03*
%TO.P,IC1,6,OUTB*%
%TO.N,UART_TX*%
X135385000Y-73175000D03*
%TO.P,IC1,7,INA*%
%TO.N,UART_RX*%
X134115000Y-73175000D03*
%TO.P,IC1,8,VCC2*%
%TO.N,+3V3*%
X132845000Y-73175000D03*
%TD*%
D13*
%TO.P,J4,1,Pin_1*%
%TO.N,unconnected-(J4-Pin_1-Pad1)*%
X180200000Y-54550000D03*
D14*
%TO.P,J4,2,Pin_2*%
%TO.N,unconnected-(J4-Pin_2-Pad2)*%
X182740000Y-54550000D03*
%TO.P,J4,3,Pin_3*%
%TO.N,CAN_RX*%
X180200000Y-57090000D03*
%TO.P,J4,4,Pin_4*%
%TO.N,unconnected-(J4-Pin_4-Pad4)*%
X182740000Y-57090000D03*
%TO.P,J4,5,Pin_5*%
%TO.N,CAN_TX*%
X180200000Y-59630000D03*
%TO.P,J4,6,Pin_6*%
%TO.N,unconnected-(J4-Pin_6-Pad6)*%
X182740000Y-59630000D03*
%TO.P,J4,7,Pin_7*%
%TO.N,unconnected-(J4-Pin_7-Pad7)*%
X180200000Y-62170000D03*
%TO.P,J4,8,Pin_8*%
%TO.N,unconnected-(J4-Pin_8-Pad8)*%
X182740000Y-62170000D03*
%TO.P,J4,9,Pin_9*%
%TO.N,GND*%
X180200000Y-64710000D03*
%TO.P,J4,10,Pin_10*%
%TO.N,unconnected-(J4-Pin_10-Pad10)*%
X182740000Y-64710000D03*
%TO.P,J4,11,Pin_11*%
%TO.N,unconnected-(J4-Pin_11-Pad11)*%
X180200000Y-67250000D03*
%TO.P,J4,12,Pin_12*%
%TO.N,unconnected-(J4-Pin_12-Pad12)*%
X182740000Y-67250000D03*
%TO.P,J4,13,Pin_13*%
%TO.N,unconnected-(J4-Pin_13-Pad13)*%
X180200000Y-69790000D03*
%TO.P,J4,14,Pin_14*%
%TO.N,unconnected-(J4-Pin_14-Pad14)*%
X182740000Y-69790000D03*
%TO.P,J4,15,Pin_15*%
%TO.N,unconnected-(J4-Pin_15-Pad15)*%
X180200000Y-72330000D03*
%TO.P,J4,16,Pin_16*%
%TO.N,unconnected-(J4-Pin_16-Pad16)*%
X182740000Y-72330000D03*
%TO.P,J4,17,Pin_17*%
%TO.N,unconnected-(J4-Pin_17-Pad17)*%
X180200000Y-74870000D03*
%TO.P,J4,18,Pin_18*%
%TO.N,unconnected-(J4-Pin_18-Pad18)*%
X182740000Y-74870000D03*
%TO.P,J4,19,Pin_19*%
%TO.N,unconnected-(J4-Pin_19-Pad19)*%
X180200000Y-77410000D03*
%TO.P,J4,20,Pin_20*%
%TO.N,GND*%
X182740000Y-77410000D03*
%TO.P,J4,21,Pin_21*%
%TO.N,unconnected-(J4-Pin_21-Pad21)*%
X180200000Y-79950000D03*
%TO.P,J4,22,Pin_22*%
%TO.N,unconnected-(J4-Pin_22-Pad22)*%
X182740000Y-79950000D03*
%TO.P,J4,23,Pin_23*%
%TO.N,unconnected-(J4-Pin_23-Pad23)*%
X180200000Y-82490000D03*
%TO.P,J4,24,Pin_24*%
%TO.N,unconnected-(J4-Pin_24-Pad24)*%
X182740000Y-82490000D03*
%TO.P,J4,25,Pin_25*%
%TO.N,unconnected-(J4-Pin_25-Pad25)*%
X180200000Y-85030000D03*
%TO.P,J4,26,Pin_26*%
%TO.N,unconnected-(J4-Pin_26-Pad26)*%
X182740000Y-85030000D03*
%TO.P,J4,27,Pin_27*%
%TO.N,unconnected-(J4-Pin_27-Pad27)*%
X180200000Y-87570000D03*
%TO.P,J4,28,Pin_28*%
%TO.N,unconnected-(J4-Pin_28-Pad28)*%
X182740000Y-87570000D03*
%TO.P,J4,29,Pin_29*%
%TO.N,unconnected-(J4-Pin_29-Pad29)*%
X180200000Y-90110000D03*
%TO.P,J4,30,Pin_30*%
%TO.N,unconnected-(J4-Pin_30-Pad30)*%
X182740000Y-90110000D03*
%TO.P,J4,31,Pin_31*%
%TO.N,unconnected-(J4-Pin_31-Pad31)*%
X180200000Y-92650000D03*
%TO.P,J4,32,Pin_32*%
%TO.N,unconnected-(J4-Pin_32-Pad32)*%
X182740000Y-92650000D03*
%TO.P,J4,33,Pin_33*%
%TO.N,unconnected-(J4-Pin_33-Pad33)*%
X180200000Y-95190000D03*
%TO.P,J4,34,Pin_34*%
%TO.N,unconnected-(J4-Pin_34-Pad34)*%
X182740000Y-95190000D03*
%TO.P,J4,35,Pin_35*%
%TO.N,unconnected-(J4-Pin_35-Pad35)*%
X180200000Y-97730000D03*
%TO.P,J4,36,Pin_36*%
%TO.N,unconnected-(J4-Pin_36-Pad36)*%
X182740000Y-97730000D03*
%TO.P,J4,37,Pin_37*%
%TO.N,unconnected-(J4-Pin_37-Pad37)*%
X180200000Y-100270000D03*
%TO.P,J4,38,Pin_38*%
%TO.N,unconnected-(J4-Pin_38-Pad38)*%
X182740000Y-100270000D03*
%TO.P,J4,39,Pin_39*%
%TO.N,unconnected-(J4-Pin_39-Pad39)*%
X180200000Y-102810000D03*
%TO.P,J4,40,Pin_40*%
%TO.N,unconnected-(J4-Pin_40-Pad40)*%
X182740000Y-102810000D03*
%TO.P,J4,41,Pin_41*%
%TO.N,unconnected-(J4-Pin_41-Pad41)*%
X180200000Y-105350000D03*
%TO.P,J4,42,Pin_42*%
%TO.N,unconnected-(J4-Pin_42-Pad42)*%
X182740000Y-105350000D03*
%TO.P,J4,43,Pin_43*%
%TO.N,unconnected-(J4-Pin_43-Pad43)*%
X180200000Y-107890000D03*
%TO.P,J4,44,Pin_44*%
%TO.N,unconnected-(J4-Pin_44-Pad44)*%
X182740000Y-107890000D03*
%TO.P,J4,45,Pin_45*%
%TO.N,unconnected-(J4-Pin_45-Pad45)*%
X180200000Y-110430000D03*
%TO.P,J4,46,Pin_46*%
%TO.N,unconnected-(J4-Pin_46-Pad46)*%
X182740000Y-110430000D03*
%TD*%
D15*
%TO.P,C9,1*%
%TO.N,GNDREF*%
X129637500Y-86250000D03*
%TO.P,C9,2*%
%TO.N,+3V*%
X131362500Y-86250000D03*
%TD*%
D16*
%TO.P,D1,1,K*%
%TO.N,O_UART_TX*%
X133750000Y-90000000D03*
%TO.P,D1,2,K*%
%TO.N,O_UART_RX*%
X135650000Y-90000000D03*
%TO.P,D1,3,A*%
%TO.N,GNDREF*%
X134700000Y-88125000D03*
%TD*%
D17*
%TO.P,C7,1*%
%TO.N,+3V3*%
X161862500Y-64250000D03*
%TO.P,C7,2*%
%TO.N,GND*%
X160137500Y-64250000D03*
%TD*%
D10*
%TO.P,FB4,1*%
%TO.N,/can/VIO*%
X162000000Y-68650000D03*
%TO.P,FB4,2*%
%TO.N,+3V3*%
X162000000Y-66350000D03*
%TD*%
D18*
%TO.P,U1,1,GND1*%
%TO.N,GND*%
X165465000Y-73600000D03*
%TO.P,U1,2,GND1*%
X164195000Y-73600000D03*
%TO.P,U1,3,VCC*%
%TO.N,/can/VCC*%
X162925000Y-73600000D03*
%TO.P,U1,4,VIO*%
%TO.N,/can/VIO*%
X161655000Y-73600000D03*
%TO.P,U1,5,RXD*%
%TO.N,CAN_RX*%
X160385000Y-73600000D03*
%TO.P,U1,6,SILENT*%
%TO.N,unconnected-(U1-SILENT-Pad6)*%
X159115000Y-73600000D03*
%TO.P,U1,7,TXD*%
%TO.N,CAN_TX*%
X157845000Y-73600000D03*
%TO.P,U1,8,STBY*%
%TO.N,unconnected-(U1-STBY-Pad8)*%
X156575000Y-73600000D03*
%TO.P,U1,9,AUXIN*%
%TO.N,GND*%
X155305000Y-73600000D03*
%TO.P,U1,10,GND1*%
X154035000Y-73600000D03*
%TO.P,U1,11,GND2*%
%TO.N,CAN_GND_ISO*%
X154035000Y-82900000D03*
%TO.P,U1,12,RS*%
%TO.N,/can/RS*%
X155305000Y-82900000D03*
%TO.P,U1,13,CANL*%
%TO.N,CAN_N*%
X156575000Y-82900000D03*
%TO.P,U1,14,CANH*%
%TO.N,CAN_P*%
X157845000Y-82900000D03*
%TO.P,U1,15,GND2*%
%TO.N,CAN_GND_ISO*%
X159115000Y-82900000D03*
%TO.P,U1,16,VISOIN*%
%TO.N,/can/VISOIN*%
X160385000Y-82900000D03*
%TO.P,U1,17,AUXOUT*%
%TO.N,unconnected-(U1-AUXOUT-Pad17)*%
X161655000Y-82900000D03*
%TO.P,U1,18,GNDISO*%
%TO.N,/can/GNDISO*%
X162925000Y-82900000D03*
%TO.P,U1,19,VISOOUT*%
%TO.N,/can/VISOOUT*%
X164195000Y-82900000D03*
%TO.P,U1,20,GNDISO*%
%TO.N,/can/GNDISO*%
X165465000Y-82900000D03*
%TD*%
D15*
%TO.P,C1,1*%
%TO.N,CAN_GND_ISO*%
X159887500Y-87250000D03*
%TO.P,C1,2*%
%TO.N,/can/VISOIN*%
X161612500Y-87250000D03*
%TD*%
D19*
%TO.P,R1,1*%
%TO.N,CAN_GND_ISO*%
X153837500Y-85500000D03*
%TO.P,R1,2*%
%TO.N,/can/RS*%
X155662500Y-85500000D03*
%TD*%
D17*
%TO.P,C2,1*%
%TO.N,/can/VISOIN*%
X161612500Y-85500000D03*
%TO.P,C2,2*%
%TO.N,CAN_GND_ISO*%
X159887500Y-85500000D03*
%TD*%
D11*
%TO.P,C4,1*%
%TO.N,/can/GNDISO*%
X163462500Y-86250000D03*
%TO.P,C4,2*%
%TO.N,/can/VISOOUT*%
X165537500Y-86250000D03*
%TD*%
D20*
%TO.P,J1,1,Pin_1*%
%TO.N,+3V*%
X130900000Y-96400000D03*
D21*
%TO.P,J1,2,Pin_2*%
%TO.N,O_UART_TX*%
X133440000Y-96400000D03*
%TO.P,J1,3,Pin_3*%
%TO.N,O_UART_RX*%
X135980000Y-96400000D03*
%TD*%
D20*
%TO.P,J2,1,Pin_1*%
%TO.N,CAN_N*%
X155941000Y-96485251D03*
D21*
%TO.P,J2,2,Pin_2*%
%TO.N,CAN_P*%
X158481000Y-96485251D03*
%TD*%
D22*
%TO.P,C5,1*%
%TO.N,GND*%
X166537500Y-64150000D03*
%TO.P,C5,2*%
%TO.N,+5V*%
X164462500Y-64150000D03*
%TD*%
D11*
%TO.P,C6,1*%
%TO.N,/can/VCC*%
X164462500Y-70500000D03*
%TO.P,C6,2*%
%TO.N,GND*%
X166537500Y-70500000D03*
%TD*%
D10*
%TO.P,FB3,1*%
%TO.N,/can/VCC*%
X164500000Y-68550000D03*
%TO.P,FB3,2*%
%TO.N,+5V*%
X164500000Y-66250000D03*
%TD*%
D13*
%TO.P,J3,1,Pin_1*%
%TO.N,unconnected-(J3-Pin_1-Pad1)*%
X119260000Y-54550000D03*
D14*
%TO.P,J3,2,Pin_2*%
%TO.N,unconnected-(J3-Pin_2-Pad2)*%
X121800000Y-54550000D03*
%TO.P,J3,3,Pin_3*%
%TO.N,unconnected-(J3-Pin_3-Pad3)*%
X119260000Y-57090000D03*
%TO.P,J3,4,Pin_4*%
%TO.N,unconnected-(J3-Pin_4-Pad4)*%
X121800000Y-57090000D03*
%TO.P,J3,5,Pin_5*%
%TO.N,unconnected-(J3-Pin_5-Pad5)*%
X119260000Y-59630000D03*
%TO.P,J3,6,Pin_6*%
%TO.N,unconnected-(J3-Pin_6-Pad6)*%
X121800000Y-59630000D03*
%TO.P,J3,7,Pin_7*%
%TO.N,unconnected-(J3-Pin_7-Pad7)*%
X119260000Y-62170000D03*
%TO.P,J3,8,Pin_8*%
%TO.N,unconnected-(J3-Pin_8-Pad8)*%
X121800000Y-62170000D03*
%TO.P,J3,9,Pin_9*%
%TO.N,unconnected-(J3-Pin_9-Pad9)*%
X119260000Y-64710000D03*
%TO.P,J3,10,Pin_10*%
%TO.N,unconnected-(J3-Pin_10-Pad10)*%
X121800000Y-64710000D03*
%TO.P,J3,11,Pin_11*%
%TO.N,unconnected-(J3-Pin_11-Pad11)*%
X119260000Y-67250000D03*
%TO.P,J3,12,Pin_12*%
%TO.N,unconnected-(J3-Pin_12-Pad12)*%
X121800000Y-67250000D03*
%TO.P,J3,13,Pin_13*%
%TO.N,unconnected-(J3-Pin_13-Pad13)*%
X119260000Y-69790000D03*
%TO.P,J3,14,Pin_14*%
%TO.N,unconnected-(J3-Pin_14-Pad14)*%
X121800000Y-69790000D03*
%TO.P,J3,15,Pin_15*%
%TO.N,unconnected-(J3-Pin_15-Pad15)*%
X119260000Y-72330000D03*
%TO.P,J3,16,Pin_16*%
%TO.N,unconnected-(J3-Pin_16-Pad16)*%
X121800000Y-72330000D03*
%TO.P,J3,17,Pin_17*%
%TO.N,unconnected-(J3-Pin_17-Pad17)*%
X119260000Y-74870000D03*
%TO.P,J3,18,Pin_18*%
%TO.N,unconnected-(J3-Pin_18-Pad18)*%
X121800000Y-74870000D03*
%TO.P,J3,19,Pin_19*%
%TO.N,unconnected-(J3-Pin_19-Pad19)*%
X119260000Y-77410000D03*
%TO.P,J3,20,Pin_20*%
%TO.N,GND*%
X121800000Y-77410000D03*
%TO.P,J3,21,Pin_21*%
%TO.N,unconnected-(J3-Pin_21-Pad21)*%
X119260000Y-79950000D03*
%TO.P,J3,22,Pin_22*%
%TO.N,GND*%
X121800000Y-79950000D03*
%TO.P,J3,23,Pin_23*%
%TO.N,unconnected-(J3-Pin_23-Pad23)*%
X119260000Y-82490000D03*
%TO.P,J3,24,Pin_24*%
%TO.N,unconnected-(J3-Pin_24-Pad24)*%
X121800000Y-82490000D03*
%TO.P,J3,25,Pin_25*%
%TO.N,+3V3*%
X119260000Y-85030000D03*
%TO.P,J3,26,Pin_26*%
%TO.N,unconnected-(J3-Pin_26-Pad26)*%
X121800000Y-85030000D03*
%TO.P,J3,27,Pin_27*%
%TO.N,+5V*%
X119260000Y-87570000D03*
%TO.P,J3,28,Pin_28*%
%TO.N,UART_TX*%
X121800000Y-87570000D03*
%TO.P,J3,29,Pin_29*%
%TO.N,unconnected-(J3-Pin_29-Pad29)*%
X119260000Y-90110000D03*
%TO.P,J3,30,Pin_30*%
%TO.N,UART_RX*%
X121800000Y-90110000D03*
%TO.P,J3,31,Pin_31*%
%TO.N,unconnected-(J3-Pin_31-Pad31)*%
X119260000Y-92650000D03*
%TO.P,J3,32,Pin_32*%
%TO.N,unconnected-(J3-Pin_32-Pad32)*%
X121800000Y-92650000D03*
%TO.P,J3,33,Pin_33*%
%TO.N,unconnected-(J3-Pin_33-Pad33)*%
X119260000Y-95190000D03*
%TO.P,J3,34,Pin_34*%
%TO.N,unconnected-(J3-Pin_34-Pad34)*%
X121800000Y-95190000D03*
%TO.P,J3,35,Pin_35*%
%TO.N,unconnected-(J3-Pin_35-Pad35)*%
X119260000Y-97730000D03*
%TO.P,J3,36,Pin_36*%
%TO.N,unconnected-(J3-Pin_36-Pad36)*%
X121800000Y-97730000D03*
%TO.P,J3,37,Pin_37*%
%TO.N,unconnected-(J3-Pin_37-Pad37)*%
X119260000Y-100270000D03*
%TO.P,J3,38,Pin_38*%
%TO.N,unconnected-(J3-Pin_38-Pad38)*%
X121800000Y-100270000D03*
%TO.P,J3,39,Pin_39*%
%TO.N,unconnected-(J3-Pin_39-Pad39)*%
X119260000Y-102810000D03*
%TO.P,J3,40,Pin_40*%
%TO.N,unconnected-(J3-Pin_40-Pad40)*%
X121800000Y-102810000D03*
%TO.P,J3,41,Pin_41*%
%TO.N,unconnected-(J3-Pin_41-Pad41)*%
X119260000Y-105350000D03*
%TO.P,J3,42,Pin_42*%
%TO.N,unconnected-(J3-Pin_42-Pad42)*%
X121800000Y-105350000D03*
%TO.P,J3,43,Pin_43*%
%TO.N,unconnected-(J3-Pin_43-Pad43)*%
X119260000Y-107890000D03*
%TO.P,J3,44,Pin_44*%
%TO.N,unconnected-(J3-Pin_44-Pad44)*%
X121800000Y-107890000D03*
%TO.P,J3,45,Pin_45*%
%TO.N,unconnected-(J3-Pin_45-Pad45)*%
X119260000Y-110430000D03*
%TO.P,J3,46,Pin_46*%
%TO.N,unconnected-(J3-Pin_46-Pad46)*%
X121800000Y-110430000D03*
%TD*%
D23*
%TO.P,D2,1,A1*%
%TO.N,CAN_N*%
X156261000Y-91122751D03*
%TO.P,D2,2,A2*%
%TO.N,CAN_P*%
X158161000Y-91122751D03*
%TO.P,D2,3,common*%
%TO.N,CAN_GND_ISO*%
X157211000Y-88847751D03*
%TD*%
D17*
%TO.P,C8,1*%
%TO.N,/can/VIO*%
X162112500Y-70750000D03*
%TO.P,C8,2*%
%TO.N,GND*%
X160387500Y-70750000D03*
%TD*%
D15*
%TO.P,C10,1*%
%TO.N,GND*%
X129637500Y-70750000D03*
%TO.P,C10,2*%
%TO.N,+3V3*%
X131362500Y-70750000D03*
%TD*%
D24*
%TO.P,FB2,1*%
%TO.N,/can/GNDISO*%
X163537500Y-88350000D03*
%TO.P,FB2,2*%
%TO.N,CAN_GND_ISO*%
X163537500Y-90650000D03*
%TD*%
D25*
%TO.N,GND*%
X166537500Y-69250000D03*
X165465000Y-71785000D03*
X154035000Y-71785000D03*
X129637500Y-69750000D03*
X136655000Y-71750000D03*
X155305000Y-71805000D03*
X160137500Y-65250000D03*
X160387500Y-69750000D03*
X166537500Y-62900000D03*
X164195000Y-71805000D03*
%TO.N,+3V3*%
X131800000Y-65200000D03*
X128500000Y-66400000D03*
X156300000Y-64100000D03*
X130000000Y-73000000D03*
%TO.N,+5V*%
X155200000Y-63600000D03*
%TO.N,CAN_GND_ISO*%
X153837500Y-86437500D03*
X162500000Y-90650000D03*
X158900000Y-85500000D03*
X157211000Y-90000000D03*
X159000000Y-87250000D03*
X163500000Y-94100000D03*
%TO.N,GNDREF*%
X129637500Y-87200000D03*
X136655000Y-85200000D03*
X134700000Y-89300000D03*
%TD*%
D26*
%TO.N,GND*%
X165465000Y-71785000D02*
X165465000Y-73600000D01*
X129637500Y-69750000D02*
X129637500Y-70750000D01*
X164195000Y-71805000D02*
X164195000Y-73600000D01*
X166537500Y-62900000D02*
X166537500Y-64150000D01*
X136655000Y-71750000D02*
X136655000Y-73175000D01*
X160387500Y-69750000D02*
X160387500Y-70750000D01*
X155305000Y-71805000D02*
X155305000Y-73600000D01*
X160137500Y-65250000D02*
X160137500Y-64250000D01*
X166537500Y-69250000D02*
X166537500Y-70500000D01*
X154035000Y-71785000D02*
X154035000Y-73600000D01*
%TO.N,+3V3*%
X120500000Y-83790000D02*
X120500000Y-69000000D01*
X158000000Y-63000000D02*
X157400000Y-63000000D01*
X157400000Y-63000000D02*
X156300000Y-64100000D01*
X120500000Y-69000000D02*
X121000000Y-68500000D01*
X131000000Y-73000000D02*
X130000000Y-73000000D01*
X131800000Y-65200000D02*
X131750000Y-65250000D01*
X132845000Y-73175000D02*
X132845000Y-71445000D01*
X161862500Y-64250000D02*
X161862500Y-65112500D01*
X161862500Y-63462500D02*
X161400000Y-63000000D01*
X128050000Y-65250000D02*
X128500000Y-65700000D01*
X128950000Y-65250000D02*
X128500000Y-65700000D01*
X161862500Y-64250000D02*
X161862500Y-63462500D01*
X161400000Y-63000000D02*
X158000000Y-63000000D01*
X121000000Y-68500000D02*
X123000000Y-68500000D01*
X161862500Y-65112500D02*
X162000000Y-65250000D01*
X126250000Y-65250000D02*
X128050000Y-65250000D01*
X131362500Y-72637500D02*
X131362500Y-70750000D01*
X128500000Y-65700000D02*
X128500000Y-66400000D01*
X131750000Y-65250000D02*
X128950000Y-65250000D01*
X123000000Y-68500000D02*
X126250000Y-65250000D01*
X119260000Y-85030000D02*
X120500000Y-83790000D01*
X131362500Y-72637500D02*
X131000000Y-73000000D01*
X162000000Y-65250000D02*
X162000000Y-66350000D01*
X132845000Y-71445000D02*
X132150000Y-70750000D01*
X132150000Y-70750000D02*
X131362500Y-70750000D01*
%TO.N,+5V*%
X155200000Y-63600000D02*
X156400000Y-62400000D01*
X156400000Y-62400000D02*
X163900000Y-62400000D01*
X164500000Y-66250000D02*
X164500000Y-64187500D01*
X164462500Y-62962500D02*
X164462500Y-64150000D01*
X163900000Y-62400000D02*
X164462500Y-62962500D01*
%TO.N,/can/VISOIN*%
X165575000Y-92750000D02*
X164750000Y-92750000D01*
X164600000Y-92600000D02*
X164600000Y-92000000D01*
X164200000Y-91600000D02*
X162212500Y-91600000D01*
X165537500Y-90650000D02*
X165537500Y-92712500D01*
X162212500Y-91600000D02*
X161612500Y-91000000D01*
X164750000Y-92750000D02*
X164600000Y-92600000D01*
X160385000Y-84185000D02*
X160700000Y-84500000D01*
X161300000Y-84500000D02*
X161612500Y-84812500D01*
X164600000Y-92000000D02*
X164200000Y-91600000D01*
X160700000Y-84500000D02*
X161300000Y-84500000D01*
X161612500Y-87250000D02*
X161612500Y-85500000D01*
X161612500Y-87250000D02*
X161612500Y-91000000D01*
X161612500Y-84812500D02*
X161612500Y-85500000D01*
X160385000Y-82900000D02*
X160385000Y-84185000D01*
X165537500Y-92712500D02*
X165575000Y-92750000D01*
%TO.N,CAN_GND_ISO*%
X157211000Y-90000000D02*
X157211000Y-88847751D01*
X154035000Y-84365000D02*
X153837500Y-84562500D01*
X159115000Y-82900000D02*
X159115000Y-84315000D01*
X162500000Y-90650000D02*
X163537500Y-90650000D01*
X159000000Y-87250000D02*
X159887500Y-87250000D01*
X154035000Y-82900000D02*
X154035000Y-84365000D01*
X153837500Y-86437500D02*
X153837500Y-85500000D01*
X159300000Y-84500000D02*
X159600000Y-84500000D01*
X159600000Y-84500000D02*
X159887500Y-84787500D01*
X163500000Y-92750000D02*
X163500000Y-94100000D01*
X159887500Y-84787500D02*
X159887500Y-85500000D01*
X159115000Y-84315000D02*
X159300000Y-84500000D01*
X158900000Y-85500000D02*
X159887500Y-85500000D01*
X153837500Y-84562500D02*
X153837500Y-85500000D01*
%TO.N,/can/VISOOUT*%
X164195000Y-84445000D02*
X164195000Y-82900000D01*
X165537500Y-88350000D02*
X165537500Y-86250000D01*
X165537500Y-86250000D02*
X165537500Y-85287500D01*
X165000000Y-84750000D02*
X164500000Y-84750000D01*
X165537500Y-85287500D02*
X165000000Y-84750000D01*
X164500000Y-84750000D02*
X164195000Y-84445000D01*
%TO.N,/can/GNDISO*%
X166750000Y-89000000D02*
X166250000Y-89500000D01*
X163537500Y-89287500D02*
X163537500Y-88350000D01*
X166750000Y-85500000D02*
X166750000Y-89000000D01*
X165465000Y-82900000D02*
X165465000Y-84215000D01*
X163750000Y-89500000D02*
X163537500Y-89287500D01*
X166250000Y-89500000D02*
X163750000Y-89500000D01*
X165465000Y-84215000D02*
X166750000Y-85500000D01*
X163537500Y-88350000D02*
X163537500Y-86325000D01*
X163462500Y-84962500D02*
X163462500Y-86250000D01*
X163537500Y-86325000D02*
X163462500Y-86250000D01*
X162925000Y-82900000D02*
X162925000Y-84425000D01*
X162925000Y-84425000D02*
X163462500Y-84962500D01*
%TO.N,/can/VCC*%
X162925000Y-72075000D02*
X162925000Y-73600000D01*
X164462500Y-70500000D02*
X163500000Y-70500000D01*
X164462500Y-70500000D02*
X164462500Y-68587500D01*
X163250000Y-71750000D02*
X162925000Y-72075000D01*
X164462500Y-68587500D02*
X164500000Y-68550000D01*
X163500000Y-70500000D02*
X163250000Y-70750000D01*
X163250000Y-70750000D02*
X163250000Y-71750000D01*
%TO.N,/can/VIO*%
X162112500Y-71887500D02*
X162112500Y-70750000D01*
X162112500Y-69712500D02*
X162000000Y-69600000D01*
X162000000Y-69600000D02*
X162000000Y-68650000D01*
X162112500Y-70750000D02*
X162112500Y-69712500D01*
X161655000Y-72345000D02*
X162112500Y-71887500D01*
X161655000Y-73600000D02*
X161655000Y-72345000D01*
%TO.N,GNDREF*%
X136655000Y-85200000D02*
X136655000Y-83825000D01*
X134700000Y-89300000D02*
X134700000Y-88125000D01*
X129637500Y-87200000D02*
X129637500Y-86250000D01*
D27*
%TO.N,O_UART_TX*%
X134115000Y-86135000D02*
X134115000Y-83825000D01*
X133750000Y-92000000D02*
X133750000Y-90000000D01*
X133750000Y-86500000D02*
X134115000Y-86135000D01*
X133460000Y-96460000D02*
X133460000Y-92290000D01*
X133460000Y-92290000D02*
X133750000Y-92000000D01*
X133750000Y-90000000D02*
X133750000Y-86500000D01*
%TO.N,O_UART_RX*%
X135650000Y-86400000D02*
X135385000Y-86135000D01*
X136000000Y-96460000D02*
X136000000Y-92250000D01*
X135650000Y-90000000D02*
X135650000Y-86400000D01*
X136000000Y-92250000D02*
X135650000Y-91900000D01*
X135385000Y-86135000D02*
X135385000Y-83825000D01*
X135650000Y-91900000D02*
X135650000Y-90000000D01*
%TO.N,UART_RX*%
X133400000Y-68500000D02*
X134115000Y-69215000D01*
X123890000Y-90110000D02*
X125500000Y-88500000D01*
X134115000Y-69215000D02*
X134115000Y-73175000D01*
X125500000Y-71000000D02*
X128000000Y-68500000D01*
X121800000Y-90110000D02*
X123890000Y-90110000D01*
X125500000Y-88500000D02*
X125500000Y-71000000D01*
X128000000Y-68500000D02*
X133400000Y-68500000D01*
%TO.N,UART_TX*%
X135385000Y-73175000D02*
X135385000Y-69635000D01*
X124750000Y-71000000D02*
X124750000Y-86500000D01*
X135385000Y-69635000D02*
X133750000Y-68000000D01*
X124750000Y-86500000D02*
X123680000Y-87570000D01*
X123680000Y-87570000D02*
X121800000Y-87570000D01*
X133750000Y-68000000D02*
X127750000Y-68000000D01*
X127750000Y-68000000D02*
X124750000Y-71000000D01*
%TO.N,CAN_RX*%
X160385000Y-73600000D02*
X160385000Y-72185000D01*
X155320536Y-60691000D02*
X176599000Y-60691000D01*
X158300000Y-70100000D02*
X154300000Y-70100000D01*
X153091000Y-68891000D02*
X153091000Y-62920536D01*
X176599000Y-60691000D02*
X180200000Y-57090000D01*
X154300000Y-70100000D02*
X153091000Y-68891000D01*
X153091000Y-62920536D02*
X155320536Y-60691000D01*
X160385000Y-72185000D02*
X158300000Y-70100000D01*
%TO.N,CAN_TX*%
X181400000Y-58430000D02*
X180200000Y-59630000D01*
X157845000Y-72045000D02*
X156300000Y-70500000D01*
X157845000Y-73600000D02*
X157845000Y-72045000D01*
X155200000Y-60400000D02*
X176000000Y-60400000D01*
X178800000Y-55800000D02*
X181000000Y-55800000D01*
X152800000Y-62800000D02*
X155200000Y-60400000D01*
X152800000Y-69250000D02*
X152800000Y-62800000D01*
X178250000Y-56350000D02*
X178800000Y-55800000D01*
X154050000Y-70500000D02*
X152800000Y-69250000D01*
X178250000Y-58150000D02*
X178250000Y-56350000D01*
X181000000Y-55800000D02*
X181400000Y-56200000D01*
X181400000Y-56200000D02*
X181400000Y-58430000D01*
X156300000Y-70500000D02*
X154050000Y-70500000D01*
X176000000Y-60400000D02*
X178250000Y-58150000D01*
D26*
%TO.N,/can/RS*%
X155305000Y-84305000D02*
X155662500Y-84662500D01*
X155662500Y-84662500D02*
X155662500Y-85500000D01*
X155305000Y-82900000D02*
X155305000Y-84305000D01*
D27*
%TO.N,CAN_P*%
X157436000Y-95440251D02*
X157436000Y-92841502D01*
X158161000Y-90129000D02*
X157702000Y-89670000D01*
X158161000Y-92116502D02*
X158161000Y-91122751D01*
X157435000Y-84847501D02*
X157845000Y-84437501D01*
X157436000Y-92841502D02*
X158161000Y-92116502D01*
X158481000Y-96485251D02*
X157436000Y-95440251D01*
X157506402Y-87994251D02*
X157436000Y-87994251D01*
X157702000Y-89670000D02*
X157702000Y-88189849D01*
X157702000Y-88189849D02*
X157506402Y-87994251D01*
X157845000Y-84437501D02*
X157845000Y-82900000D01*
X157436000Y-87994251D02*
X157436000Y-85925545D01*
X158161000Y-91122751D02*
X158161000Y-90129000D01*
X157435000Y-85924545D02*
X157435000Y-84847501D01*
X157436000Y-85925545D02*
X157435000Y-85924545D01*
%TO.N,CAN_N*%
X156720000Y-89670000D02*
X156720000Y-88189849D01*
X156915598Y-87994251D02*
X156986000Y-87994251D01*
X156720000Y-88189849D02*
X156915598Y-87994251D01*
X156985000Y-84847501D02*
X156575000Y-84437501D01*
X156986000Y-87994251D02*
X156986000Y-86097751D01*
X155941000Y-96485251D02*
X156986000Y-95440251D01*
X156261000Y-91122751D02*
X156261000Y-90129000D01*
X156986000Y-92841502D02*
X156261000Y-92116502D01*
X156575000Y-84437501D02*
X156575000Y-82900000D01*
X156261000Y-90129000D02*
X156720000Y-89670000D01*
X156985000Y-86096751D02*
X156985000Y-84847501D01*
X156986000Y-86097751D02*
X156985000Y-86096751D01*
X156261000Y-92116502D02*
X156261000Y-91122751D01*
X156986000Y-95440251D02*
X156986000Y-92841502D01*
D26*
%TO.N,+3V*%
X132250000Y-86250000D02*
X132845000Y-85655000D01*
X132845000Y-85655000D02*
X132845000Y-83825000D01*
X130900000Y-91200000D02*
X131362500Y-90737500D01*
X131362500Y-86250000D02*
X131362500Y-90737500D01*
X131362500Y-86250000D02*
X132250000Y-86250000D01*
X130900000Y-96400000D02*
X130900000Y-91200000D01*
%TD*%
%TA.AperFunction,Conductor*%
%TO.N,GND*%
G36*
X182264755Y-77606853D02*
G01*
X182331898Y-77723147D01*
X182426853Y-77818102D01*
X182543147Y-77885245D01*
X182602425Y-77901128D01*
X182039134Y-78464417D01*
X182076994Y-78491924D01*
X182228722Y-78569234D01*
X182279518Y-78617209D01*
X182296313Y-78685030D01*
X182273776Y-78751165D01*
X182228723Y-78790203D01*
X182076735Y-78867645D01*
X181963997Y-78949555D01*
X181915582Y-78984731D01*
X181915580Y-78984733D01*
X181915579Y-78984733D01*
X181774733Y-79125579D01*
X181774733Y-79125580D01*
X181774731Y-79125582D01*
X181724447Y-79194790D01*
X181657647Y-79286733D01*
X181580485Y-79438172D01*
X181532510Y-79488968D01*
X181464689Y-79505763D01*
X181398554Y-79483225D01*
X181359515Y-79438172D01*
X181282352Y-79286733D01*
X181165269Y-79125582D01*
X181024418Y-78984731D01*
X180863266Y-78867647D01*
X180711827Y-78790485D01*
X180661031Y-78742510D01*
X180644236Y-78674689D01*
X180666773Y-78608554D01*
X180711827Y-78569515D01*
X180721116Y-78564781D01*
X180863266Y-78492353D01*
X181024418Y-78375269D01*
X181165269Y-78234418D01*
X181282353Y-78073266D01*
X181359795Y-77921276D01*
X181407769Y-77870481D01*
X181475590Y-77853686D01*
X181541725Y-77876223D01*
X181580765Y-77921277D01*
X181658077Y-78073008D01*
X181685580Y-78110863D01*
X181685581Y-78110864D01*
X182248871Y-77547574D01*
X182264755Y-77606853D01*
G37*
%TD.AperFunction*%
%TA.AperFunction,Conductor*%
G36*
X181541446Y-75336773D02*
G01*
X181580485Y-75381827D01*
X181657647Y-75533266D01*
X181774731Y-75694418D01*
X181915582Y-75835269D01*
X182076734Y-75952353D01*
X182166909Y-75998299D01*
X182228722Y-76029795D01*
X182279518Y-76077770D01*
X182296313Y-76145591D01*
X182273776Y-76211726D01*
X182228723Y-76250764D01*
X182076993Y-76328075D01*
X182039135Y-76355580D01*
X182039135Y-76355581D01*
X182602425Y-76918871D01*
X182543147Y-76934755D01*
X182426853Y-77001898D01*
X182331898Y-77096853D01*
X182264755Y-77213147D01*
X182248871Y-77272425D01*
X181685581Y-76709135D01*
X181685580Y-76709135D01*
X181658075Y-76746993D01*
X181580764Y-76898723D01*
X181532790Y-76949518D01*
X181464969Y-76966313D01*
X181398834Y-76943775D01*
X181359795Y-76898722D01*
X181282485Y-76746994D01*
X181282353Y-76746734D01*
X181165269Y-76585582D01*
X181024418Y-76444731D01*
X180863266Y-76327647D01*
X180739500Y-76264585D01*
X180711827Y-76250485D01*
X180661031Y-76202510D01*
X180644236Y-76134689D01*
X180666773Y-76068554D01*
X180711827Y-76029515D01*
X180721116Y-76024781D01*
X180863266Y-75952353D01*
X181024418Y-75835269D01*
X181165269Y-75694418D01*
X181282353Y-75533266D01*
X181359515Y-75381827D01*
X181407490Y-75331031D01*
X181475311Y-75314236D01*
X181541446Y-75336773D01*
G37*
%TD.AperFunction*%
%TA.AperFunction,Conductor*%
G36*
X181254417Y-65410863D02*
G01*
X181254418Y-65410863D01*
X181281924Y-65373005D01*
X181359234Y-65221277D01*
X181407208Y-65170481D01*
X181475029Y-65153686D01*
X181541164Y-65176223D01*
X181580204Y-65221277D01*
X181653183Y-65364505D01*
X181657647Y-65373266D01*
X181774731Y-65534418D01*
X181915582Y-65675269D01*
X182076734Y-65792353D01*
X182135312Y-65822200D01*
X182228172Y-65869515D01*
X182278968Y-65917490D01*
X182295763Y-65985311D01*
X182273225Y-66051446D01*
X182228172Y-66090485D01*
X182076733Y-66167647D01*
X181984790Y-66234447D01*
X181915582Y-66284731D01*
X181915580Y-66284733D01*
X181915579Y-66284733D01*
X181774733Y-66425579D01*
X181774733Y-66425580D01*
X181774731Y-66425582D01*
X181739613Y-66473918D01*
X181657647Y-66586733D01*
X181580485Y-66738172D01*
X181532510Y-66788968D01*
X181464689Y-66805763D01*
X181398554Y-66783225D01*
X181359515Y-66738172D01*
X181282352Y-66586733D01*
X181165269Y-66425582D01*
X181024418Y-66284731D01*
X180863266Y-66167647D01*
X180863262Y-66167645D01*
X180711277Y-66090204D01*
X180660481Y-66042229D01*
X180643686Y-65974408D01*
X180666224Y-65908273D01*
X180711277Y-65869234D01*
X180863005Y-65791924D01*
X180900863Y-65764418D01*
X180900863Y-65764417D01*
X180337574Y-65201128D01*
X180396853Y-65185245D01*
X180513147Y-65118102D01*
X180608102Y-65023147D01*
X180675245Y-64906853D01*
X180691128Y-64847574D01*
X181254417Y-65410863D01*
G37*
%TD.AperFunction*%
%TA.AperFunction,Conductor*%
G36*
X181541446Y-62636773D02*
G01*
X181580485Y-62681827D01*
X181657647Y-62833266D01*
X181774731Y-62994418D01*
X181915582Y-63135269D01*
X182076734Y-63252353D01*
X182106660Y-63267601D01*
X182228172Y-63329515D01*
X182278968Y-63377490D01*
X182295763Y-63445311D01*
X182273225Y-63511446D01*
X182228172Y-63550485D01*
X182076733Y-63627647D01*
X181984790Y-63694447D01*
X181915582Y-63744731D01*
X181915580Y-63744733D01*
X181915579Y-63744733D01*
X181774733Y-63885579D01*
X181774733Y-63885580D01*
X181774731Y-63885582D01*
X181764256Y-63900000D01*
X181657645Y-64046735D01*
X181580203Y-64198723D01*
X181532229Y-64249518D01*
X181464408Y-64266313D01*
X181398273Y-64243775D01*
X181359234Y-64198722D01*
X181281924Y-64046994D01*
X181254417Y-64009135D01*
X181254417Y-64009134D01*
X180691128Y-64572424D01*
X180675245Y-64513147D01*
X180608102Y-64396853D01*
X180513147Y-64301898D01*
X180396853Y-64234755D01*
X180337574Y-64218871D01*
X180900864Y-63655581D01*
X180900863Y-63655580D01*
X180863008Y-63628077D01*
X180711277Y-63550765D01*
X180660481Y-63502790D01*
X180643686Y-63434969D01*
X180666224Y-63368834D01*
X180711277Y-63329795D01*
X180711827Y-63329515D01*
X180863266Y-63252353D01*
X181024418Y-63135269D01*
X181165269Y-62994418D01*
X181282353Y-62833266D01*
X181359515Y-62681827D01*
X181407490Y-62631031D01*
X181475311Y-62614236D01*
X181541446Y-62636773D01*
G37*
%TD.AperFunction*%
%TA.AperFunction,Conductor*%
G36*
X135006061Y-50701097D02*
G01*
X135016051Y-50702080D01*
X135143824Y-50714665D01*
X135167652Y-50719404D01*
X135294277Y-50757815D01*
X135316725Y-50767114D01*
X135433406Y-50829482D01*
X135453616Y-50842986D01*
X135555891Y-50926920D01*
X135573079Y-50944108D01*
X135657012Y-51046381D01*
X135670517Y-51066593D01*
X135732883Y-51183271D01*
X135742186Y-51205728D01*
X135780593Y-51332338D01*
X135785335Y-51356180D01*
X135798903Y-51493938D01*
X135799500Y-51506092D01*
X135799500Y-58264486D01*
X135829059Y-58451118D01*
X135887454Y-58630836D01*
X135904725Y-58664731D01*
X135973240Y-58799199D01*
X136084310Y-58952073D01*
X136217927Y-59085690D01*
X136370801Y-59196760D01*
X136450347Y-59237290D01*
X136539163Y-59282545D01*
X136539165Y-59282545D01*
X136539168Y-59282547D01*
X136635497Y-59313846D01*
X136718881Y-59340940D01*
X136905514Y-59370500D01*
X136905519Y-59370500D01*
X165094486Y-59370500D01*
X165281118Y-59340940D01*
X165303526Y-59333659D01*
X165460832Y-59282547D01*
X165629199Y-59196760D01*
X165782073Y-59085690D01*
X165915690Y-58952073D01*
X166026760Y-58799199D01*
X166112547Y-58630832D01*
X166170940Y-58451118D01*
X166176276Y-58417429D01*
X166200500Y-58264486D01*
X166200500Y-56750684D01*
X173309500Y-56750684D01*
X173309500Y-56989315D01*
X173309501Y-56989332D01*
X173324983Y-57106934D01*
X173340649Y-57225924D01*
X173390106Y-57410498D01*
X173402415Y-57456436D01*
X173493734Y-57676902D01*
X173493740Y-57676914D01*
X173613062Y-57883586D01*
X173613064Y-57883589D01*
X173613065Y-57883590D01*
X173758337Y-58072912D01*
X173758343Y-58072919D01*
X173927080Y-58241656D01*
X173927087Y-58241662D01*
X174006464Y-58302570D01*
X174116414Y-58386938D01*
X174323086Y-58506260D01*
X174323091Y-58506262D01*
X174323097Y-58506265D01*
X174418109Y-58545620D01*
X174543564Y-58597585D01*
X174774076Y-58659351D01*
X175010678Y-58690500D01*
X175010685Y-58690500D01*
X175249315Y-58690500D01*
X175249322Y-58690500D01*
X175485924Y-58659351D01*
X175716436Y-58597585D01*
X175936914Y-58506260D01*
X176143586Y-58386938D01*
X176332914Y-58241661D01*
X176501661Y-58072914D01*
X176646938Y-57883586D01*
X176766260Y-57676914D01*
X176857585Y-57456436D01*
X176919351Y-57225924D01*
X176950500Y-56989322D01*
X176950500Y-56750678D01*
X176919351Y-56514076D01*
X176857585Y-56283564D01*
X176789095Y-56118215D01*
X176766265Y-56063097D01*
X176766262Y-56063091D01*
X176766260Y-56063086D01*
X176646938Y-55856414D01*
X176564174Y-55748554D01*
X176501662Y-55667087D01*
X176501656Y-55667080D01*
X176332919Y-55498343D01*
X176332912Y-55498337D01*
X176143590Y-55353065D01*
X176143589Y-55353064D01*
X176143586Y-55353062D01*
X175936914Y-55233740D01*
X175936902Y-55233734D01*
X175716436Y-55142415D01*
X175485920Y-55080648D01*
X175249332Y-55049501D01*
X175249327Y-55049500D01*
X175249322Y-55049500D01*
X175010678Y-55049500D01*
X175010672Y-55049500D01*
X175010667Y-55049501D01*
X174774079Y-55080648D01*
X174543563Y-55142415D01*
X174323097Y-55233734D01*
X174323083Y-55233741D01*
X174116409Y-55353065D01*
X173927087Y-55498337D01*
X173927080Y-55498343D01*
X173758343Y-55667080D01*
X173758337Y-55667087D01*
X173613065Y-55856409D01*
X173493741Y-56063083D01*
X173493734Y-56063097D01*
X173402415Y-56283563D01*
X173340648Y-56514079D01*
X173309501Y-56750667D01*
X173309500Y-56750684D01*
X166200500Y-56750684D01*
X166200500Y-51506092D01*
X166201097Y-51493939D01*
X166209805Y-51405519D01*
X166214665Y-51356171D01*
X166219403Y-51332349D01*
X166257816Y-51205719D01*
X166267113Y-51183278D01*
X166329485Y-51066587D01*
X166342982Y-51046387D01*
X166426924Y-50944103D01*
X166444103Y-50926924D01*
X166546387Y-50842982D01*
X166566587Y-50829485D01*
X166683278Y-50767113D01*
X166705719Y-50757816D01*
X166832349Y-50719403D01*
X166856173Y-50714665D01*
X166985170Y-50701960D01*
X166993939Y-50701097D01*
X167006092Y-50700500D01*
X167039882Y-50700500D01*
X184960118Y-50700500D01*
X184993908Y-50700500D01*
X185006061Y-50701097D01*
X185016051Y-50702080D01*
X185143824Y-50714665D01*
X185167652Y-50719404D01*
X185294277Y-50757815D01*
X185316725Y-50767114D01*
X185433406Y-50829482D01*
X185453616Y-50842986D01*
X185555891Y-50926920D01*
X185573079Y-50944108D01*
X185657012Y-51046381D01*
X185670517Y-51066593D01*
X185732883Y-51183271D01*
X185742186Y-51205728D01*
X185780593Y-51332338D01*
X185785335Y-51356180D01*
X185798903Y-51493938D01*
X185799500Y-51506092D01*
X185799500Y-113995933D01*
X185799235Y-114004043D01*
X185784636Y-114226778D01*
X185782518Y-114242859D01*
X185739769Y-114457771D01*
X185735571Y-114473438D01*
X185665133Y-114680942D01*
X185658926Y-114695928D01*
X185562007Y-114892460D01*
X185553897Y-114906507D01*
X185432154Y-115088708D01*
X185422280Y-115101576D01*
X185277797Y-115266328D01*
X185266328Y-115277797D01*
X185101576Y-115422280D01*
X185088708Y-115432154D01*
X184906507Y-115553897D01*
X184892460Y-115562007D01*
X184695928Y-115658926D01*
X184680942Y-115665133D01*
X184473438Y-115735571D01*
X184457771Y-115739769D01*
X184242859Y-115782518D01*
X184226778Y-115784636D01*
X184004043Y-115799235D01*
X183995933Y-115799500D01*
X164324500Y-115799500D01*
X164257461Y-115779815D01*
X164211706Y-115727011D01*
X164200500Y-115675500D01*
X164200500Y-104060119D01*
X164200499Y-104060116D01*
X164182843Y-104017490D01*
X164169976Y-103986426D01*
X164113574Y-103930024D01*
X162113574Y-101930024D01*
X162039883Y-101899500D01*
X162039882Y-101899500D01*
X129039882Y-101899500D01*
X128960118Y-101899500D01*
X128960116Y-101899500D01*
X128886425Y-101930024D01*
X126830024Y-103986425D01*
X126799500Y-104060116D01*
X126799500Y-115675500D01*
X126779815Y-115742539D01*
X126727011Y-115788294D01*
X126675500Y-115799500D01*
X118004067Y-115799500D01*
X117995957Y-115799235D01*
X117773221Y-115784636D01*
X117757140Y-115782518D01*
X117542228Y-115739769D01*
X117526561Y-115735571D01*
X117319057Y-115665133D01*
X117304071Y-115658926D01*
X117107539Y-115562007D01*
X117093492Y-115553897D01*
X116911291Y-115432154D01*
X116898423Y-115422280D01*
X116733671Y-115277797D01*
X116722202Y-115266328D01*
X116669730Y-115206495D01*
X116577716Y-115101573D01*
X116567845Y-115088708D01*
X116446102Y-114906507D01*
X116437992Y-114892460D01*
X116435196Y-114886791D01*
X116341070Y-114695921D01*
X116334866Y-114680942D01*
X116264428Y-114473438D01*
X116260230Y-114457771D01*
X116248217Y-114397376D01*
X116217479Y-114242848D01*
X116215364Y-114226790D01*
X116200765Y-114004043D01*
X116200500Y-113995933D01*
X116200500Y-53737135D01*
X117994500Y-53737135D01*
X117994500Y-55362870D01*
X117994501Y-55362876D01*
X118000908Y-55422483D01*
X118051202Y-55557328D01*
X118051206Y-55557335D01*
X118137452Y-55672544D01*
X118137455Y-55672547D01*
X118252664Y-55758793D01*
X118252671Y-55758797D01*
X118387517Y-55809091D01*
X118387516Y-55809091D01*
X118394444Y-55809835D01*
X118447127Y-55815500D01*
X118479568Y-55815499D01*
X118546605Y-55835182D01*
X118592361Y-55887984D01*
X118602306Y-55957143D01*
X118573283Y-56020699D01*
X118552455Y-56039816D01*
X118435582Y-56124730D01*
X118294733Y-56265579D01*
X118294733Y-56265580D01*
X118294731Y-56265582D01*
X118250267Y-56326781D01*
X118177647Y-56426733D01*
X118087213Y-56604219D01*
X118025661Y-56793656D01*
X118025661Y-56793659D01*
X117994500Y-56990403D01*
X117994500Y-57189596D01*
X118025661Y-57386340D01*
X118025661Y-57386343D01*
X118087213Y-57575780D01*
X118138744Y-57676914D01*
X118177647Y-57753266D01*
X118294731Y-57914418D01*
X118435582Y-58055269D01*
X118596734Y-58172353D01*
X118666453Y-58207877D01*
X118748172Y-58249515D01*
X118798968Y-58297490D01*
X118815763Y-58365311D01*
X118793225Y-58431446D01*
X118748172Y-58470485D01*
X118596733Y-58547647D01*
X118528000Y-58597585D01*
X118435582Y-58664731D01*
X118435580Y-58664733D01*
X118435579Y-58664733D01*
X118294733Y-58805579D01*
X118294733Y-58805580D01*
X118294731Y-58805582D01*
X118273532Y-58834760D01*
X118177647Y-58966733D01*
X118087213Y-59144219D01*
X118025661Y-59333656D01*
X118025661Y-59333659D01*
X117994500Y-59530403D01*
X117994500Y-59729596D01*
X118025661Y-59926340D01*
X118025661Y-59926343D01*
X118087213Y-60115780D01*
X118087215Y-60115783D01*
X118177647Y-60293266D01*
X118294731Y-60454418D01*
X118435582Y-60595269D01*
X118596734Y-60712353D01*
X118666453Y-60747877D01*
X118748172Y-60789515D01*
X118798968Y-60837490D01*
X118815763Y-60905311D01*
X118793225Y-60971446D01*
X118748172Y-61010485D01*
X118596733Y-61087647D01*
X118435579Y-61204733D01*
X118294733Y-61345579D01*
X118294733Y-61345580D01*
X118294731Y-61345582D01*
X118244447Y-61414790D01*
X118177647Y-61506733D01*
X118087213Y-61684219D01*
X118025661Y-61873656D01*
X118025661Y-61873659D01*
X117994500Y-62070403D01*
X117994500Y-62269596D01*
X118025661Y-62466340D01*
X118025661Y-62466343D01*
X118087213Y-62655780D01*
X118139382Y-62758167D01*
X118177647Y-62833266D01*
X118294731Y-62994418D01*
X118435582Y-63135269D01*
X118596734Y-63252353D01*
X118626660Y-63267601D01*
X118748172Y-63329515D01*
X118798968Y-63377490D01*
X118815763Y-63445311D01*
X118793225Y-63511446D01*
X118748172Y-63550485D01*
X118596733Y-63627647D01*
X118504790Y-63694447D01*
X118435582Y-63744731D01*
X118435580Y-63744733D01*
X118435579Y-63744733D01*
X118294733Y-63885579D01*
X118294733Y-63885580D01*
X118294731Y-63885582D01*
X118284256Y-63900000D01*
X118177647Y-64046733D01*
X118087213Y-64224219D01*
X118025661Y-64413656D01*
X118025661Y-64413659D01*
X118006223Y-64536385D01*
X117994500Y-64610403D01*
X117994500Y-64809597D01*
X118009904Y-64906853D01*
X118025661Y-65006340D01*
X118025661Y-65006343D01*
X118087213Y-65195780D01*
X118161270Y-65341124D01*
X118177647Y-65373266D01*
X118294731Y-65534418D01*
X118435582Y-65675269D01*
X118596734Y-65792353D01*
X118655312Y-65822200D01*
X118748172Y-65869515D01*
X118798968Y-65917490D01*
X118815763Y-65985311D01*
X118793225Y-66051446D01*
X118748172Y-66090485D01*
X118596733Y-66167647D01*
X118504790Y-66234447D01*
X118435582Y-66284731D01*
X118435580Y-66284733D01*
X118435579Y-66284733D01*
X118294733Y-66425579D01*
X118294733Y-66425580D01*
X118294731Y-66425582D01*
X118259613Y-66473918D01*
X118177647Y-66586733D01*
X118087213Y-66764219D01*
X118025661Y-66953656D01*
X118025661Y-66953659D01*
X118025661Y-66953661D01*
X117994500Y-67150403D01*
X117994500Y-67349597D01*
X117998603Y-67375500D01*
X118025661Y-67546340D01*
X118025661Y-67546343D01*
X118087213Y-67735780D01*
X118154706Y-67868241D01*
X118177647Y-67913266D01*
X118294731Y-68074418D01*
X118435582Y-68215269D01*
X118596734Y-68332353D01*
X118666453Y-68367877D01*
X118748172Y-68409515D01*
X118798968Y-68457490D01*
X118815763Y-68525311D01*
X118793225Y-68591446D01*
X118748172Y-68630485D01*
X118596733Y-68707647D01*
X118504790Y-68774447D01*
X118435582Y-68824731D01*
X118435580Y-68824733D01*
X118435579Y-68824733D01*
X118294733Y-68965579D01*
X118294733Y-68965580D01*
X118294731Y-68965582D01*
X118285855Y-68977799D01*
X118177647Y-69126733D01*
X118087213Y-69304219D01*
X118025661Y-69493656D01*
X118025661Y-69493659D01*
X118006031Y-69617601D01*
X117994500Y-69690403D01*
X117994500Y-69889597D01*
X118007182Y-69969667D01*
X118025661Y-70086340D01*
X118025661Y-70086343D01*
X118087213Y-70275780D01*
X118177647Y-70453266D01*
X118294731Y-70614418D01*
X118435582Y-70755269D01*
X118596734Y-70872353D01*
X118652733Y-70900886D01*
X118748172Y-70949515D01*
X118798968Y-70997490D01*
X118815763Y-71065311D01*
X118793225Y-71131446D01*
X118748172Y-71170485D01*
X118596733Y-71247647D01*
X118595236Y-71248735D01*
X118435582Y-71364731D01*
X118435580Y-71364733D01*
X118435579Y-71364733D01*
X118294733Y-71505579D01*
X118294733Y-71505580D01*
X118294731Y-71505582D01*
X118244447Y-71574790D01*
X118177647Y-71666733D01*
X118087213Y-71844219D01*
X118025661Y-72033656D01*
X118025661Y-72033659D01*
X117994500Y-72230403D01*
X117994500Y-72429596D01*
X118025661Y-72626340D01*
X118025661Y-72626343D01*
X118087213Y-72815780D01*
X118143415Y-72926082D01*
X118177647Y-72993266D01*
X118294731Y-73154418D01*
X118435582Y-73295269D01*
X118596734Y-73412353D01*
X118660499Y-73444843D01*
X118748172Y-73489515D01*
X118798968Y-73537490D01*
X118815763Y-73605311D01*
X118793225Y-73671446D01*
X118748172Y-73710485D01*
X118596733Y-73787647D01*
X118504790Y-73854447D01*
X118435582Y-73904731D01*
X118435580Y-73904733D01*
X118435579Y-73904733D01*
X118294733Y-74045579D01*
X118294733Y-74045580D01*
X118294731Y-74045582D01*
X118244447Y-74114790D01*
X118177647Y-74206733D01*
X118087213Y-74384219D01*
X118025661Y-74573656D01*
X118025661Y-74573659D01*
X117994500Y-74770403D01*
X117994500Y-74969596D01*
X118025661Y-75166340D01*
X118025661Y-75166343D01*
X118087213Y-75355780D01*
X118087215Y-75355783D01*
X118177647Y-75533266D01*
X118294731Y-75694418D01*
X118435582Y-75835269D01*
X118596734Y-75952353D01*
X118660499Y-75984843D01*
X118748172Y-76029515D01*
X118798968Y-76077490D01*
X118815763Y-76145311D01*
X118793225Y-76211446D01*
X118748172Y-76250485D01*
X118596733Y-76327647D01*
X118558286Y-76355581D01*
X118435582Y-76444731D01*
X118435580Y-76444733D01*
X118435579Y-76444733D01*
X118294733Y-76585579D01*
X118294733Y-76585580D01*
X118294731Y-76585582D01*
X118244447Y-76654790D01*
X118177647Y-76746733D01*
X118087213Y-76924219D01*
X118025661Y-77113656D01*
X118025661Y-77113659D01*
X117994500Y-77310403D01*
X117994500Y-77509596D01*
X118025661Y-77706340D01*
X118025661Y-77706343D01*
X118087213Y-77895780D01*
X118177514Y-78073005D01*
X118177647Y-78073266D01*
X118294731Y-78234418D01*
X118435582Y-78375269D01*
X118596734Y-78492353D01*
X118666453Y-78527877D01*
X118748172Y-78569515D01*
X118798968Y-78617490D01*
X118815763Y-78685311D01*
X118793225Y-78751446D01*
X118748172Y-78790485D01*
X118596733Y-78867647D01*
X118504790Y-78934447D01*
X118435582Y-78984731D01*
X118435580Y-78984733D01*
X118435579Y-78984733D01*
X118294733Y-79125579D01*
X118294733Y-79125580D01*
X118294731Y-79125582D01*
X118244447Y-79194790D01*
X118177647Y-79286733D01*
X118087213Y-79464219D01*
X118025661Y-79653656D01*
X118025661Y-79653659D01*
X117994500Y-79850403D01*
X117994500Y-80049596D01*
X118025661Y-80246340D01*
X118025661Y-80246343D01*
X118087213Y-80435780D01*
X118087215Y-80435783D01*
X118177647Y-80613266D01*
X118294731Y-80774418D01*
X118435582Y-80915269D01*
X118596734Y-81032353D01*
X118666453Y-81067877D01*
X118748172Y-81109515D01*
X118798968Y-81157490D01*
X118815763Y-81225311D01*
X118793225Y-81291446D01*
X118748172Y-81330485D01*
X118596733Y-81407647D01*
X118504790Y-81474447D01*
X118435582Y-81524731D01*
X118435580Y-81524733D01*
X118435579Y-81524733D01*
X118294733Y-81665579D01*
X118294733Y-81665580D01*
X118294731Y-81665582D01*
X118244447Y-81734790D01*
X118177647Y-81826733D01*
X118087213Y-82004219D01*
X118025661Y-82193656D01*
X118025661Y-82193659D01*
X117994500Y-82390403D01*
X117994500Y-82589596D01*
X118025661Y-82786340D01*
X118025661Y-82786343D01*
X118087213Y-82975780D01*
X118100485Y-83001827D01*
X118177647Y-83153266D01*
X118294731Y-83314418D01*
X118435582Y-83455269D01*
X118596734Y-83572353D01*
X118660499Y-83604843D01*
X118748172Y-83649515D01*
X118798968Y-83697490D01*
X118815763Y-83765311D01*
X118793225Y-83831446D01*
X118748172Y-83870485D01*
X118596733Y-83947647D01*
X118504790Y-84014447D01*
X118435582Y-84064731D01*
X118435580Y-84064733D01*
X118435579Y-84064733D01*
X118294733Y-84205579D01*
X118294733Y-84205580D01*
X118294731Y-84205582D01*
X118272940Y-84235575D01*
X118177647Y-84366733D01*
X118087213Y-84544219D01*
X118025661Y-84733656D01*
X118025661Y-84733659D01*
X117994500Y-84930403D01*
X117994500Y-85129596D01*
X118025661Y-85326340D01*
X118025661Y-85326343D01*
X118087213Y-85515780D01*
X118087215Y-85515783D01*
X118177647Y-85693266D01*
X118294731Y-85854418D01*
X118435582Y-85995269D01*
X118596734Y-86112353D01*
X118666453Y-86147877D01*
X118748172Y-86189515D01*
X118798968Y-86237490D01*
X118815763Y-86305311D01*
X118793225Y-86371446D01*
X118748172Y-86410485D01*
X118596733Y-86487647D01*
X118504790Y-86554447D01*
X118435582Y-86604731D01*
X118435580Y-86604733D01*
X118435579Y-86604733D01*
X118294733Y-86745579D01*
X118294733Y-86745580D01*
X118294731Y-86745582D01*
X118244447Y-86814790D01*
X118177647Y-86906733D01*
X118087213Y-87084219D01*
X118025661Y-87273656D01*
X118025661Y-87273659D01*
X117994500Y-87470403D01*
X117994500Y-87669596D01*
X118025661Y-87866340D01*
X118025661Y-87866343D01*
X118087213Y-88055780D01*
X118124814Y-88129576D01*
X118177647Y-88233266D01*
X118294731Y-88394418D01*
X118435582Y-88535269D01*
X118596734Y-88652353D01*
X118666453Y-88687877D01*
X118748172Y-88729515D01*
X118798968Y-88777490D01*
X118815763Y-88845311D01*
X118793225Y-88911446D01*
X118748172Y-88950485D01*
X118596733Y-89027647D01*
X118504790Y-89094447D01*
X118435582Y-89144731D01*
X118435580Y-89144733D01*
X118435579Y-89144733D01*
X118294733Y-89285579D01*
X118294733Y-89285580D01*
X118294731Y-89285582D01*
X118244447Y-89354790D01*
X118177647Y-89446733D01*
X118087213Y-89624219D01*
X118025661Y-89813656D01*
X118025661Y-89813659D01*
X117994500Y-90010403D01*
X117994500Y-90209596D01*
X118025661Y-90406340D01*
X118025661Y-90406343D01*
X118087213Y-90595780D01*
X118124814Y-90669576D01*
X118177647Y-90773266D01*
X118294731Y-90934418D01*
X118435582Y-91075269D01*
X118596734Y-91192353D01*
X118666453Y-91227877D01*
X118748172Y-91269515D01*
X118798968Y-91317490D01*
X118815763Y-91385311D01*
X118793225Y-91451446D01*
X118748172Y-91490485D01*
X118596733Y-91567647D01*
X118504790Y-91634447D01*
X118435582Y-91684731D01*
X118435580Y-91684733D01*
X118435579Y-91684733D01*
X118294733Y-91825579D01*
X118294733Y-91825580D01*
X118294731Y-91825582D01*
X118244447Y-91894790D01*
X118177647Y-91986733D01*
X118087213Y-92164219D01*
X118025661Y-92353656D01*
X118025661Y-92353659D01*
X117994500Y-92550403D01*
X117994500Y-92749596D01*
X118025661Y-92946340D01*
X118025661Y-92946343D01*
X118087213Y-93135780D01*
X118100485Y-93161827D01*
X118177647Y-93313266D01*
X118294731Y-93474418D01*
X118435582Y-93615269D01*
X118596734Y-93732353D01*
X118666453Y-93767877D01*
X118748172Y-93809515D01*
X118798968Y-93857490D01*
X118815763Y-93925311D01*
X118793225Y-93991446D01*
X118748172Y-94030485D01*
X118596733Y-94107647D01*
X118504790Y-94174447D01*
X118435582Y-94224731D01*
X118435580Y-94224733D01*
X118435579Y-94224733D01*
X118294733Y-94365579D01*
X118294733Y-94365580D01*
X118294731Y-94365582D01*
X118244447Y-94434790D01*
X118177647Y-94526733D01*
X118087213Y-94704219D01*
X118025661Y-94893656D01*
X118025661Y-94893659D01*
X117994500Y-95090403D01*
X117994500Y-95289596D01*
X118025661Y-95486340D01*
X118025661Y-95486343D01*
X118087213Y-95675780D01*
X118160537Y-95819685D01*
X118177647Y-95853266D01*
X118294731Y-96014418D01*
X118435582Y-96155269D01*
X118596734Y-96272353D01*
X118642506Y-96295675D01*
X118748172Y-96349515D01*
X118798968Y-96397490D01*
X118815763Y-96465311D01*
X118793225Y-96531446D01*
X118748172Y-96570485D01*
X118596733Y-96647647D01*
X118510377Y-96710389D01*
X118435582Y-96764731D01*
X118435580Y-96764733D01*
X118435579Y-96764733D01*
X118294733Y-96905579D01*
X118294733Y-96905580D01*
X118294731Y-96905582D01*
X118244447Y-96974790D01*
X118177647Y-97066733D01*
X118087213Y-97244219D01*
X118025661Y-97433656D01*
X118025661Y-97433659D01*
X117994500Y-97630403D01*
X117994500Y-97829596D01*
X118025661Y-98026340D01*
X118025661Y-98026343D01*
X118087213Y-98215780D01*
X118177647Y-98393266D01*
X118294731Y-98554418D01*
X118435582Y-98695269D01*
X118596734Y-98812353D01*
X118666453Y-98847877D01*
X118748172Y-98889515D01*
X118798968Y-98937490D01*
X118815763Y-99005311D01*
X118793225Y-99071446D01*
X118748172Y-99110485D01*
X118596733Y-99187647D01*
X118504790Y-99254447D01*
X118435582Y-99304731D01*
X118435580Y-99304733D01*
X118435579Y-99304733D01*
X118294733Y-99445579D01*
X118294733Y-99445580D01*
X118294731Y-99445582D01*
X118244447Y-99514790D01*
X118177647Y-99606733D01*
X118087213Y-99784219D01*
X118025661Y-99973656D01*
X118025661Y-99973659D01*
X117994500Y-100170403D01*
X117994500Y-100369596D01*
X118025661Y-100566340D01*
X118025661Y-100566343D01*
X118087213Y-100755780D01*
X118100485Y-100781827D01*
X118177647Y-100933266D01*
X118294731Y-101094418D01*
X118435582Y-101235269D01*
X118596734Y-101352353D01*
X118666453Y-101387877D01*
X118748172Y-101429515D01*
X118798968Y-101477490D01*
X118815763Y-101545311D01*
X118793225Y-101611446D01*
X118748172Y-101650485D01*
X118596733Y-101727647D01*
X118504790Y-101794447D01*
X118435582Y-101844731D01*
X118435580Y-101844733D01*
X118435579Y-101844733D01*
X118294733Y-101985579D01*
X118294733Y-101985580D01*
X118294731Y-101985582D01*
X118244447Y-102054790D01*
X118177647Y-102146733D01*
X118087213Y-102324219D01*
X118025661Y-102513656D01*
X118025661Y-102513659D01*
X117994500Y-102710403D01*
X117994500Y-102909596D01*
X118025661Y-103106340D01*
X118025661Y-103106343D01*
X118087213Y-103295780D01*
X118100485Y-103321827D01*
X118177647Y-103473266D01*
X118294731Y-103634418D01*
X118435582Y-103775269D01*
X118596734Y-103892353D01*
X118666453Y-103927877D01*
X118748172Y-103969515D01*
X118798968Y-104017490D01*
X118815763Y-104085311D01*
X118793225Y-104151446D01*
X118748172Y-104190485D01*
X118596733Y-104267647D01*
X118504790Y-104334447D01*
X118435582Y-104384731D01*
X118435580Y-104384733D01*
X118435579Y-104384733D01*
X118294733Y-104525579D01*
X118294733Y-104525580D01*
X118294731Y-104525582D01*
X118244447Y-104594790D01*
X118177647Y-104686733D01*
X118087213Y-104864219D01*
X118025661Y-105053656D01*
X118025661Y-105053659D01*
X117994500Y-105250403D01*
X117994500Y-105449596D01*
X118025661Y-105646340D01*
X118025661Y-105646343D01*
X118087213Y-105835780D01*
X118100485Y-105861827D01*
X118177647Y-106013266D01*
X118294731Y-106174418D01*
X118435582Y-106315269D01*
X118596734Y-106432353D01*
X118666453Y-106467877D01*
X118748172Y-106509515D01*
X118798968Y-106557490D01*
X118815763Y-106625311D01*
X118793225Y-106691446D01*
X118748172Y-106730485D01*
X118596733Y-106807647D01*
X118504790Y-106874447D01*
X118435582Y-106924731D01*
X118435580Y-106924733D01*
X118435579Y-106924733D01*
X118294733Y-107065579D01*
X118294733Y-107065580D01*
X118294731Y-107065582D01*
X118244447Y-107134790D01*
X118177647Y-107226733D01*
X118087213Y-107404219D01*
X118025661Y-107593656D01*
X118025661Y-107593659D01*
X117994500Y-107790403D01*
X117994500Y-107989596D01*
X118025661Y-108186340D01*
X118025661Y-108186343D01*
X118087213Y-108375780D01*
X118100485Y-108401827D01*
X118177647Y-108553266D01*
X118294731Y-108714418D01*
X118435582Y-108855269D01*
X118596734Y-108972353D01*
X118666453Y-109007877D01*
X118748172Y-109049515D01*
X118798968Y-109097490D01*
X118815763Y-109165311D01*
X118793225Y-109231446D01*
X118748172Y-109270485D01*
X118596733Y-109347647D01*
X118504790Y-109414447D01*
X118435582Y-109464731D01*
X118435580Y-109464733D01*
X118435579Y-109464733D01*
X118294733Y-109605579D01*
X118294733Y-109605580D01*
X118294731Y-109605582D01*
X118244447Y-109674790D01*
X118177647Y-109766733D01*
X118087213Y-109944219D01*
X118025661Y-110133656D01*
X118025661Y-110133659D01*
X117994500Y-110330403D01*
X117994500Y-110529596D01*
X118025661Y-110726340D01*
X118025661Y-110726343D01*
X118087213Y-110915780D01*
X118087215Y-110915783D01*
X118177647Y-111093266D01*
X118294731Y-111254418D01*
X118435582Y-111395269D01*
X118596734Y-111512353D01*
X118774217Y-111602785D01*
X118774219Y-111602786D01*
X118963657Y-111664338D01*
X118963658Y-111664338D01*
X118963661Y-111664339D01*
X119160403Y-111695500D01*
X119160404Y-111695500D01*
X119359596Y-111695500D01*
X119359597Y-111695500D01*
X119556339Y-111664339D01*
X119556342Y-111664338D01*
X119556343Y-111664338D01*
X119745780Y-111602786D01*
X119745780Y-111602785D01*
X119745783Y-111602785D01*
X119923266Y-111512353D01*
X120084418Y-111395269D01*
X120225269Y-111254418D01*
X120342353Y-111093266D01*
X120419515Y-110941827D01*
X120467490Y-110891031D01*
X120535311Y-110874236D01*
X120601446Y-110896773D01*
X120640485Y-110941827D01*
X120717647Y-111093266D01*
X120834731Y-111254418D01*
X120975582Y-111395269D01*
X121136734Y-111512353D01*
X121314217Y-111602785D01*
X121314219Y-111602786D01*
X121503657Y-111664338D01*
X121503658Y-111664338D01*
X121503661Y-111664339D01*
X121700403Y-111695500D01*
X121700404Y-111695500D01*
X121899596Y-111695500D01*
X121899597Y-111695500D01*
X122096339Y-111664339D01*
X122096342Y-111664338D01*
X122096343Y-111664338D01*
X122285780Y-111602786D01*
X122285780Y-111602785D01*
X122285783Y-111602785D01*
X122463266Y-111512353D01*
X122624418Y-111395269D01*
X122765269Y-111254418D01*
X122882353Y-111093266D01*
X122972785Y-110915783D01*
X122980827Y-110891031D01*
X123034338Y-110726343D01*
X123034338Y-110726342D01*
X123034339Y-110726339D01*
X123065500Y-110529597D01*
X123065500Y-110330403D01*
X123034339Y-110133661D01*
X123034338Y-110133657D01*
X123034338Y-110133656D01*
X122972786Y-109944219D01*
X122882352Y-109766733D01*
X122765269Y-109605582D01*
X122624418Y-109464731D01*
X122463266Y-109347647D01*
X122311827Y-109270485D01*
X122261031Y-109222510D01*
X122244236Y-109154689D01*
X122266773Y-109088554D01*
X122311827Y-109049515D01*
X122321116Y-109044781D01*
X122463266Y-108972353D01*
X122624418Y-108855269D01*
X122765269Y-108714418D01*
X122882353Y-108553266D01*
X122972785Y-108375783D01*
X122985140Y-108337758D01*
X123034338Y-108186343D01*
X123034338Y-108186342D01*
X123034339Y-108186339D01*
X123065500Y-107989597D01*
X123065500Y-107790403D01*
X123034339Y-107593661D01*
X123034338Y-107593657D01*
X123034338Y-107593656D01*
X122972786Y-107404219D01*
X122882352Y-107226733D01*
X122765269Y-107065582D01*
X122624418Y-106924731D01*
X122463266Y-106807647D01*
X122311827Y-106730485D01*
X122261031Y-106682510D01*
X122244236Y-106614689D01*
X122266773Y-106548554D01*
X122311827Y-106509515D01*
X122321116Y-106504781D01*
X122463266Y-106432353D01*
X122624418Y-106315269D01*
X122765269Y-106174418D01*
X122882353Y-106013266D01*
X122972785Y-105835783D01*
X122985140Y-105797758D01*
X123034338Y-105646343D01*
X123034338Y-105646342D01*
X123034339Y-105646339D01*
X123065500Y-105449597D01*
X123065500Y-105250403D01*
X123034339Y-105053661D01*
X123034338Y-105053657D01*
X123034338Y-105053656D01*
X122972786Y-104864219D01*
X122882352Y-104686733D01*
X122765269Y-104525582D01*
X122624418Y-104384731D01*
X122463266Y-104267647D01*
X122311827Y-104190485D01*
X122261031Y-104142510D01*
X122244236Y-104074689D01*
X122266773Y-104008554D01*
X122311827Y-103969515D01*
X122321116Y-103964781D01*
X122463266Y-103892353D01*
X122624418Y-103775269D01*
X122765269Y-103634418D01*
X122882353Y-103473266D01*
X122972785Y-103295783D01*
X122985140Y-103257758D01*
X123034338Y-103106343D01*
X123034338Y-103106342D01*
X123034339Y-103106339D01*
X123065500Y-102909597D01*
X123065500Y-102710403D01*
X123034339Y-102513661D01*
X123034338Y-102513657D01*
X123034338Y-102513656D01*
X122972786Y-102324219D01*
X122882352Y-102146733D01*
X122765269Y-101985582D01*
X122624418Y-101844731D01*
X122463266Y-101727647D01*
X122311827Y-101650485D01*
X122261031Y-101602510D01*
X122244236Y-101534689D01*
X122266773Y-101468554D01*
X122311827Y-101429515D01*
X122321116Y-101424781D01*
X122463266Y-101352353D01*
X122624418Y-101235269D01*
X122765269Y-101094418D01*
X122882353Y-100933266D01*
X122972785Y-100755783D01*
X122985140Y-100717758D01*
X123034338Y-100566343D01*
X123034338Y-100566342D01*
X123034339Y-100566339D01*
X123065500Y-100369597D01*
X123065500Y-100170403D01*
X123034339Y-99973661D01*
X123034338Y-99973657D01*
X123034338Y-99973656D01*
X122972786Y-99784219D01*
X122952548Y-99744499D01*
X122882353Y-99606734D01*
X122765269Y-99445582D01*
X122624418Y-99304731D01*
X122463266Y-99187647D01*
X122311827Y-99110485D01*
X122261031Y-99062510D01*
X122244236Y-98994689D01*
X122266773Y-98928554D01*
X122311827Y-98889515D01*
X122321116Y-98884781D01*
X122368263Y-98860759D01*
X130095500Y-98860759D01*
X130095500Y-99019240D01*
X130126414Y-99174656D01*
X130126416Y-99174664D01*
X130187059Y-99321071D01*
X130187064Y-99321080D01*
X130275103Y-99452838D01*
X130275106Y-99452842D01*
X130387157Y-99564893D01*
X130387161Y-99564896D01*
X130518919Y-99652935D01*
X130518925Y-99652938D01*
X130518926Y-99652939D01*
X130665336Y-99713584D01*
X130789021Y-99738186D01*
X130820759Y-99744499D01*
X130820763Y-99744500D01*
X130820764Y-99744500D01*
X130979237Y-99744500D01*
X130979238Y-99744499D01*
X131134664Y-99713584D01*
X131281074Y-99652939D01*
X131412839Y-99564896D01*
X131524896Y-99452839D01*
X131612939Y-99321074D01*
X131673584Y-99174664D01*
X131704500Y-99019236D01*
X131704500Y-98860764D01*
X131704499Y-98860759D01*
X132635500Y-98860759D01*
X132635500Y-99019240D01*
X132666414Y-99174656D01*
X132666416Y-99174664D01*
X132727059Y-99321071D01*
X132727064Y-99321080D01*
X132815103Y-99452838D01*
X132815106Y-99452842D01*
X132927157Y-99564893D01*
X132927161Y-99564896D01*
X133058919Y-99652935D01*
X133058925Y-99652938D01*
X133058926Y-99652939D01*
X133205336Y-99713584D01*
X133329021Y-99738186D01*
X133360759Y-99744499D01*
X133360763Y-99744500D01*
X133360764Y-99744500D01*
X133519237Y-99744500D01*
X133519238Y-99744499D01*
X133674664Y-99713584D01*
X133821074Y-99652939D01*
X133952839Y-99564896D01*
X134064896Y-99452839D01*
X134152939Y-99321074D01*
X134213584Y-99174664D01*
X134244500Y-99019236D01*
X134244500Y-98860764D01*
X134244499Y-98860759D01*
X135175500Y-98860759D01*
X135175500Y-99019240D01*
X135206414Y-99174656D01*
X135206416Y-99174664D01*
X135267059Y-99321071D01*
X135267064Y-99321080D01*
X135355103Y-99452838D01*
X135355106Y-99452842D01*
X135467157Y-99564893D01*
X135467161Y-99564896D01*
X135598919Y-99652935D01*
X135598925Y-99652938D01*
X135598926Y-99652939D01*
X135745336Y-99713584D01*
X135869021Y-99738186D01*
X135900759Y-99744499D01*
X135900763Y-99744500D01*
X135900764Y-99744500D01*
X136059237Y-99744500D01*
X136059238Y-99744499D01*
X136214664Y-99713584D01*
X136361074Y-99652939D01*
X136492839Y-99564896D01*
X136604896Y-99452839D01*
X136692939Y-99321074D01*
X136753584Y-99174664D01*
X136784500Y-99019236D01*
X136784500Y-98946010D01*
X155136500Y-98946010D01*
X155136500Y-99104491D01*
X155167414Y-99259907D01*
X155167416Y-99259915D01*
X155228059Y-99406322D01*
X155228064Y-99406331D01*
X155316103Y-99538089D01*
X155316106Y-99538093D01*
X155428157Y-99650144D01*
X155428161Y-99650147D01*
X155559919Y-99738186D01*
X155559928Y-99738191D01*
X155593095Y-99751929D01*
X155706336Y-99798835D01*
X155841715Y-99825763D01*
X155861759Y-99829750D01*
X155861763Y-99829751D01*
X155861764Y-99829751D01*
X156020237Y-99829751D01*
X156020238Y-99829750D01*
X156175664Y-99798835D01*
X156322074Y-99738190D01*
X156453839Y-99650147D01*
X156565896Y-99538090D01*
X156653939Y-99406325D01*
X156714584Y-99259915D01*
X156745500Y-99104487D01*
X156745500Y-98946015D01*
X156745499Y-98946010D01*
X157676500Y-98946010D01*
X157676500Y-99104491D01*
X157707414Y-99259907D01*
X157707416Y-99259915D01*
X157768059Y-99406322D01*
X157768064Y-99406331D01*
X157856103Y-99538089D01*
X157856106Y-99538093D01*
X157968157Y-99650144D01*
X157968161Y-99650147D01*
X158099919Y-99738186D01*
X158099928Y-99738191D01*
X158133095Y-99751929D01*
X158246336Y-99798835D01*
X158381715Y-99825763D01*
X158401759Y-99829750D01*
X158401763Y-99829751D01*
X158401764Y-99829751D01*
X158560237Y-99829751D01*
X158560238Y-99829750D01*
X158715664Y-99798835D01*
X158862074Y-99738190D01*
X158993839Y-99650147D01*
X159105896Y-99538090D01*
X159193939Y-99406325D01*
X159254584Y-99259915D01*
X159285500Y-99104487D01*
X159285500Y-98946015D01*
X159254584Y-98790587D01*
X159193939Y-98644177D01*
X159193938Y-98644176D01*
X159193935Y-98644170D01*
X159105896Y-98512412D01*
X159105893Y-98512408D01*
X158993842Y-98400357D01*
X158993838Y-98400354D01*
X158862080Y-98312315D01*
X158862071Y-98312310D01*
X158715664Y-98251667D01*
X158715656Y-98251665D01*
X158560240Y-98220751D01*
X158560236Y-98220751D01*
X158401764Y-98220751D01*
X158401759Y-98220751D01*
X158246343Y-98251665D01*
X158246335Y-98251667D01*
X158099928Y-98312310D01*
X158099919Y-98312315D01*
X157968161Y-98400354D01*
X157968157Y-98400357D01*
X157856106Y-98512408D01*
X157856103Y-98512412D01*
X157768064Y-98644170D01*
X157768059Y-98644179D01*
X157707416Y-98790586D01*
X157707414Y-98790594D01*
X157676500Y-98946010D01*
X156745499Y-98946010D01*
X156714584Y-98790587D01*
X156653939Y-98644177D01*
X156653938Y-98644176D01*
X156653935Y-98644170D01*
X156565896Y-98512412D01*
X156565893Y-98512408D01*
X156453842Y-98400357D01*
X156453838Y-98400354D01*
X156322080Y-98312315D01*
X156322071Y-98312310D01*
X156175664Y-98251667D01*
X156175656Y-98251665D01*
X156020240Y-98220751D01*
X156020236Y-98220751D01*
X155861764Y-98220751D01*
X155861759Y-98220751D01*
X155706343Y-98251665D01*
X155706335Y-98251667D01*
X155559928Y-98312310D01*
X155559919Y-98312315D01*
X155428161Y-98400354D01*
X155428157Y-98400357D01*
X155316106Y-98512408D01*
X155316103Y-98512412D01*
X155228064Y-98644170D01*
X155228059Y-98644179D01*
X155167416Y-98790586D01*
X155167414Y-98790594D01*
X155136500Y-98946010D01*
X136784500Y-98946010D01*
X136784500Y-98860764D01*
X136753584Y-98705336D01*
X136692939Y-98558926D01*
X136692938Y-98558925D01*
X136692935Y-98558919D01*
X136604896Y-98427161D01*
X136604893Y-98427157D01*
X136492842Y-98315106D01*
X136492838Y-98315103D01*
X136361080Y-98227064D01*
X136361071Y-98227059D01*
X136214664Y-98166416D01*
X136214656Y-98166414D01*
X136059240Y-98135500D01*
X136059236Y-98135500D01*
X135900764Y-98135500D01*
X135900759Y-98135500D01*
X135745343Y-98166414D01*
X135745335Y-98166416D01*
X135598928Y-98227059D01*
X135598919Y-98227064D01*
X135467161Y-98315103D01*
X135467157Y-98315106D01*
X135355106Y-98427157D01*
X135355103Y-98427161D01*
X135267064Y-98558919D01*
X135267059Y-98558928D01*
X135206416Y-98705335D01*
X135206414Y-98705343D01*
X135175500Y-98860759D01*
X134244499Y-98860759D01*
X134213584Y-98705336D01*
X134152939Y-98558926D01*
X134152938Y-98558925D01*
X134152935Y-98558919D01*
X134064896Y-98427161D01*
X134064893Y-98427157D01*
X133952842Y-98315106D01*
X133952838Y-98315103D01*
X133821080Y-98227064D01*
X133821071Y-98227059D01*
X133674664Y-98166416D01*
X133674656Y-98166414D01*
X133519240Y-98135500D01*
X133519236Y-98135500D01*
X133360764Y-98135500D01*
X133360759Y-98135500D01*
X133205343Y-98166414D01*
X133205335Y-98166416D01*
X133058928Y-98227059D01*
X133058919Y-98227064D01*
X132927161Y-98315103D01*
X132927157Y-98315106D01*
X132815106Y-98427157D01*
X132815103Y-98427161D01*
X132727064Y-98558919D01*
X132727059Y-98558928D01*
X132666416Y-98705335D01*
X132666414Y-98705343D01*
X132635500Y-98860759D01*
X131704499Y-98860759D01*
X131673584Y-98705336D01*
X131612939Y-98558926D01*
X131612938Y-98558925D01*
X131612935Y-98558919D01*
X131524896Y-98427161D01*
X131524893Y-98427157D01*
X131412842Y-98315106D01*
X131412838Y-98315103D01*
X131281080Y-98227064D01*
X131281071Y-98227059D01*
X131134664Y-98166416D01*
X131134656Y-98166414D01*
X130979240Y-98135500D01*
X130979236Y-98135500D01*
X130820764Y-98135500D01*
X130820759Y-98135500D01*
X130665343Y-98166414D01*
X130665335Y-98166416D01*
X130518928Y-98227059D01*
X130518919Y-98227064D01*
X130387161Y-98315103D01*
X130387157Y-98315106D01*
X130275106Y-98427157D01*
X130275103Y-98427161D01*
X130187064Y-98558919D01*
X130187059Y-98558928D01*
X130126416Y-98705335D01*
X130126414Y-98705343D01*
X130095500Y-98860759D01*
X122368263Y-98860759D01*
X122463266Y-98812353D01*
X122624418Y-98695269D01*
X122765269Y-98554418D01*
X122882353Y-98393266D01*
X122972785Y-98215783D01*
X122985140Y-98177758D01*
X123034338Y-98026343D01*
X123034338Y-98026342D01*
X123034339Y-98026339D01*
X123065500Y-97829597D01*
X123065500Y-97630403D01*
X123034339Y-97433661D01*
X123034338Y-97433657D01*
X123034338Y-97433656D01*
X122972786Y-97244219D01*
X122940047Y-97179965D01*
X122882353Y-97066734D01*
X122765269Y-96905582D01*
X122624418Y-96764731D01*
X122463266Y-96647647D01*
X122311827Y-96570485D01*
X122261031Y-96522510D01*
X122244236Y-96454689D01*
X122266773Y-96388554D01*
X122311827Y-96349515D01*
X122321116Y-96344781D01*
X122463266Y-96272353D01*
X122624418Y-96155269D01*
X122765269Y-96014418D01*
X122882353Y-95853266D01*
X122972785Y-95675783D01*
X122985140Y-95637758D01*
X123034338Y-95486343D01*
X123034338Y-95486342D01*
X123034339Y-95486339D01*
X123065500Y-95289597D01*
X123065500Y-95090403D01*
X123034339Y-94893661D01*
X123034338Y-94893657D01*
X123034338Y-94893656D01*
X122972786Y-94704219D01*
X122882352Y-94526733D01*
X122765269Y-94365582D01*
X122624418Y-94224731D01*
X122463266Y-94107647D01*
X122311827Y-94030485D01*
X122261031Y-93982510D01*
X122244236Y-93914689D01*
X122266773Y-93848554D01*
X122311827Y-93809515D01*
X122321116Y-93804781D01*
X122463266Y-93732353D01*
X122624418Y-93615269D01*
X122765269Y-93474418D01*
X122882353Y-93313266D01*
X122972785Y-93135783D01*
X122985140Y-93097758D01*
X123034338Y-92946343D01*
X123034338Y-92946342D01*
X123034339Y-92946339D01*
X123065500Y-92749597D01*
X123065500Y-92550403D01*
X123034339Y-92353661D01*
X123034338Y-92353657D01*
X123034338Y-92353656D01*
X122972786Y-92164219D01*
X122882352Y-91986733D01*
X122765269Y-91825582D01*
X122624418Y-91684731D01*
X122463266Y-91567647D01*
X122311827Y-91490485D01*
X122261031Y-91442510D01*
X122244236Y-91374689D01*
X122266773Y-91308554D01*
X122311827Y-91269515D01*
X122321116Y-91264781D01*
X122463266Y-91192353D01*
X122624418Y-91075269D01*
X122765269Y-90934418D01*
X122882353Y-90773266D01*
X122882357Y-90773256D01*
X122884534Y-90769707D01*
X122936348Y-90722833D01*
X122990260Y-90710500D01*
X123803331Y-90710500D01*
X123803347Y-90710501D01*
X123810943Y-90710501D01*
X123969054Y-90710501D01*
X123969057Y-90710501D01*
X124121785Y-90669577D01*
X124171904Y-90640639D01*
X124258716Y-90590520D01*
X124370520Y-90478716D01*
X124370520Y-90478714D01*
X124380728Y-90468507D01*
X124380730Y-90468504D01*
X125858506Y-88990728D01*
X125858511Y-88990724D01*
X125868714Y-88980520D01*
X125868716Y-88980520D01*
X125980520Y-88868716D01*
X126033012Y-88777797D01*
X126059577Y-88731785D01*
X126100501Y-88579057D01*
X126100501Y-88420943D01*
X126100501Y-88413348D01*
X126100500Y-88413330D01*
X126100500Y-71300097D01*
X126120185Y-71233058D01*
X126136819Y-71212416D01*
X126312581Y-71036654D01*
X128600001Y-71036654D01*
X128610319Y-71137652D01*
X128664546Y-71301300D01*
X128664551Y-71301311D01*
X128755052Y-71448034D01*
X128755055Y-71448038D01*
X128876961Y-71569944D01*
X128876965Y-71569947D01*
X129023688Y-71660448D01*
X129023699Y-71660453D01*
X129187347Y-71714680D01*
X129288351Y-71724999D01*
X129387500Y-71724998D01*
X129387500Y-71000000D01*
X128600001Y-71000000D01*
X128600001Y-71036654D01*
X126312581Y-71036654D01*
X126885890Y-70463345D01*
X128600000Y-70463345D01*
X128600000Y-70500000D01*
X129387500Y-70500000D01*
X129387500Y-69774999D01*
X129288360Y-69775000D01*
X129288344Y-69775001D01*
X129187347Y-69785319D01*
X129023699Y-69839546D01*
X129023688Y-69839551D01*
X128876965Y-69930052D01*
X128876961Y-69930055D01*
X128755055Y-70051961D01*
X128755052Y-70051965D01*
X128664551Y-70198688D01*
X128664546Y-70198699D01*
X128610319Y-70362347D01*
X128600000Y-70463345D01*
X126885890Y-70463345D01*
X128212416Y-69136819D01*
X128273739Y-69103334D01*
X128300097Y-69100500D01*
X133099903Y-69100500D01*
X133166942Y-69120185D01*
X133187584Y-69136819D01*
X133478181Y-69427416D01*
X133511666Y-69488739D01*
X133514500Y-69515097D01*
X133514500Y-70824481D01*
X133508262Y-70845723D01*
X133506684Y-70867809D01*
X133498610Y-70878595D01*
X133494815Y-70891520D01*
X133478084Y-70906016D01*
X133464815Y-70923745D01*
X133452190Y-70928454D01*
X133442011Y-70937275D01*
X133420098Y-70940425D01*
X133399352Y-70948165D01*
X133386187Y-70945301D01*
X133372853Y-70947219D01*
X133352713Y-70938021D01*
X133331078Y-70933316D01*
X133313346Y-70920043D01*
X133309297Y-70918194D01*
X133302823Y-70912166D01*
X133291546Y-70900890D01*
X133291542Y-70900886D01*
X132596546Y-70205888D01*
X132596545Y-70205887D01*
X132481807Y-70129222D01*
X132354330Y-70076420D01*
X132354324Y-70076418D01*
X132286088Y-70062845D01*
X132224178Y-70030459D01*
X132222600Y-70028910D01*
X132174306Y-69980616D01*
X132123350Y-69929660D01*
X132030358Y-69872302D01*
X131976518Y-69839093D01*
X131976513Y-69839091D01*
X131975069Y-69838612D01*
X131812753Y-69784826D01*
X131812751Y-69784825D01*
X131711678Y-69774500D01*
X131013330Y-69774500D01*
X131013312Y-69774501D01*
X130912247Y-69784825D01*
X130748484Y-69839092D01*
X130748481Y-69839093D01*
X130601648Y-69929661D01*
X130587325Y-69943984D01*
X130526001Y-69977468D01*
X130456309Y-69972482D01*
X130411965Y-69943982D01*
X130398038Y-69930055D01*
X130398034Y-69930052D01*
X130251311Y-69839551D01*
X130251300Y-69839546D01*
X130087652Y-69785319D01*
X129986654Y-69775000D01*
X129887500Y-69775000D01*
X129887500Y-71724999D01*
X129986640Y-71724999D01*
X129986654Y-71724998D01*
X130087652Y-71714680D01*
X130251300Y-71660453D01*
X130251311Y-71660448D01*
X130398035Y-71569947D01*
X130411960Y-71556021D01*
X130415837Y-71553903D01*
X130418218Y-71550180D01*
X130446229Y-71537306D01*
X130473282Y-71522533D01*
X130477689Y-71522848D01*
X130481704Y-71521003D01*
X130512225Y-71525316D01*
X130542973Y-71527514D01*
X130547742Y-71530335D01*
X130550886Y-71530780D01*
X130564919Y-71540499D01*
X130580623Y-71549790D01*
X130584087Y-71552777D01*
X130601650Y-71570340D01*
X130611499Y-71576415D01*
X130618977Y-71582863D01*
X130632793Y-71604248D01*
X130649821Y-71623180D01*
X130652423Y-71634633D01*
X130656893Y-71641551D01*
X130656923Y-71654435D01*
X130662000Y-71676771D01*
X130662000Y-72175500D01*
X130642315Y-72242539D01*
X130589511Y-72288294D01*
X130538000Y-72299500D01*
X130294658Y-72299500D01*
X130247206Y-72290061D01*
X130218917Y-72278343D01*
X130218907Y-72278340D01*
X130073920Y-72249500D01*
X130073918Y-72249500D01*
X129926082Y-72249500D01*
X129926080Y-72249500D01*
X129781092Y-72278340D01*
X129781082Y-72278343D01*
X129644511Y-72334912D01*
X129644498Y-72334919D01*
X129521584Y-72417048D01*
X129521580Y-72417051D01*
X129417051Y-72521580D01*
X129417048Y-72521584D01*
X129334919Y-72644498D01*
X129334912Y-72644511D01*
X129278343Y-72781082D01*
X129278340Y-72781092D01*
X129249500Y-72926079D01*
X129249500Y-72926082D01*
X129249500Y-73073918D01*
X129249500Y-73073920D01*
X129249499Y-73073920D01*
X129278340Y-73218907D01*
X129278343Y-73218917D01*
X129334912Y-73355488D01*
X129334919Y-73355501D01*
X129417048Y-73478415D01*
X129417051Y-73478419D01*
X129521580Y-73582948D01*
X129521584Y-73582951D01*
X129644498Y-73665080D01*
X129644511Y-73665087D01*
X129754113Y-73710485D01*
X129781087Y-73721658D01*
X129781091Y-73721658D01*
X129781092Y-73721659D01*
X129926079Y-73750500D01*
X129926082Y-73750500D01*
X130073920Y-73750500D01*
X130204198Y-73724585D01*
X130218913Y-73721658D01*
X130233372Y-73715668D01*
X130247206Y-73709939D01*
X130294658Y-73700500D01*
X131068996Y-73700500D01*
X131160040Y-73682389D01*
X131204328Y-73673580D01*
X131295873Y-73635661D01*
X131328548Y-73622127D01*
X131398017Y-73614658D01*
X131460496Y-73645933D01*
X131496148Y-73706022D01*
X131500000Y-73736688D01*
X131500000Y-82276000D01*
X131480315Y-82343039D01*
X131427511Y-82388794D01*
X131376000Y-82400000D01*
X127600000Y-82400000D01*
X127600000Y-95400000D01*
X129450500Y-95400000D01*
X129517539Y-95419685D01*
X129563294Y-95472489D01*
X129574500Y-95524000D01*
X129574500Y-97272870D01*
X129574501Y-97272876D01*
X129580908Y-97332483D01*
X129631202Y-97467328D01*
X129631206Y-97467335D01*
X129717452Y-97582544D01*
X129717455Y-97582547D01*
X129832664Y-97668793D01*
X129832671Y-97668797D01*
X129967517Y-97719091D01*
X129967516Y-97719091D01*
X129974444Y-97719835D01*
X130027127Y-97725500D01*
X131772872Y-97725499D01*
X131832483Y-97719091D01*
X131967331Y-97668796D01*
X132082546Y-97582546D01*
X132168796Y-97467331D01*
X132219091Y-97332483D01*
X132219091Y-97332481D01*
X132220874Y-97324938D01*
X132223757Y-97325619D01*
X132245147Y-97273896D01*
X132302517Y-97234014D01*
X132372340Y-97231480D01*
X132429425Y-97263965D01*
X132576495Y-97411035D01*
X132745286Y-97533670D01*
X132833116Y-97578421D01*
X132931179Y-97628387D01*
X132931181Y-97628387D01*
X132931184Y-97628389D01*
X133037545Y-97662948D01*
X133129610Y-97692862D01*
X133335676Y-97725500D01*
X133335681Y-97725500D01*
X133544324Y-97725500D01*
X133750389Y-97692862D01*
X133948816Y-97628389D01*
X134134714Y-97533670D01*
X134303505Y-97411035D01*
X134451035Y-97263505D01*
X134573670Y-97094714D01*
X134599515Y-97043990D01*
X134647489Y-96993194D01*
X134715310Y-96976398D01*
X134781445Y-96998935D01*
X134820485Y-97043990D01*
X134846328Y-97094712D01*
X134908269Y-97179965D01*
X134968965Y-97263505D01*
X135116495Y-97411035D01*
X135285286Y-97533670D01*
X135373116Y-97578421D01*
X135471179Y-97628387D01*
X135471181Y-97628387D01*
X135471184Y-97628389D01*
X135577545Y-97662948D01*
X135669610Y-97692862D01*
X135875676Y-97725500D01*
X135875681Y-97725500D01*
X136084324Y-97725500D01*
X136290389Y-97692862D01*
X136488816Y-97628389D01*
X136674714Y-97533670D01*
X136843505Y-97411035D01*
X136991035Y-97263505D01*
X137113670Y-97094714D01*
X137208389Y-96908816D01*
X137272862Y-96710389D01*
X137305500Y-96504324D01*
X137305500Y-96295675D01*
X137272862Y-96089610D01*
X137234345Y-95971067D01*
X137208389Y-95891184D01*
X137208387Y-95891181D01*
X137208387Y-95891179D01*
X137113669Y-95705285D01*
X137092234Y-95675783D01*
X137034911Y-95596885D01*
X137011432Y-95531080D01*
X137027257Y-95463026D01*
X137077363Y-95414331D01*
X137135230Y-95400000D01*
X140400000Y-95400000D01*
X140400000Y-84200000D01*
X151800000Y-84200000D01*
X151800061Y-84235574D01*
X151800061Y-84235575D01*
X151803613Y-86295500D01*
X151820000Y-95800000D01*
X154491500Y-95800000D01*
X154558539Y-95819685D01*
X154604294Y-95872489D01*
X154615500Y-95924000D01*
X154615500Y-97358121D01*
X154615501Y-97358127D01*
X154621908Y-97417734D01*
X154672202Y-97552579D01*
X154672206Y-97552586D01*
X154758452Y-97667795D01*
X154758455Y-97667798D01*
X154873664Y-97754044D01*
X154873671Y-97754048D01*
X155008517Y-97804342D01*
X155008516Y-97804342D01*
X155015444Y-97805086D01*
X155068127Y-97810751D01*
X156813872Y-97810750D01*
X156873483Y-97804342D01*
X157008331Y-97754047D01*
X157123546Y-97667797D01*
X157209796Y-97552582D01*
X157260091Y-97417734D01*
X157260091Y-97417732D01*
X157261874Y-97410189D01*
X157264757Y-97410870D01*
X157286147Y-97359147D01*
X157343517Y-97319265D01*
X157413340Y-97316731D01*
X157470425Y-97349216D01*
X157617495Y-97496286D01*
X157786286Y-97618921D01*
X157874116Y-97663672D01*
X157972179Y-97713638D01*
X157972181Y-97713638D01*
X157972184Y-97713640D01*
X158078545Y-97748199D01*
X158170610Y-97778113D01*
X158376676Y-97810751D01*
X158376681Y-97810751D01*
X158585324Y-97810751D01*
X158791389Y-97778113D01*
X158989816Y-97713640D01*
X159175714Y-97618921D01*
X159344505Y-97496286D01*
X159492035Y-97348756D01*
X159614670Y-97179965D01*
X159709389Y-96994067D01*
X159773862Y-96795640D01*
X159778757Y-96764733D01*
X159806500Y-96589575D01*
X159806500Y-96380926D01*
X159787512Y-96261048D01*
X159773862Y-96174862D01*
X159773861Y-96174858D01*
X159773861Y-96174857D01*
X159709390Y-95976438D01*
X159707528Y-95971942D01*
X159709639Y-95971067D01*
X159698451Y-95911709D01*
X159724684Y-95846951D01*
X159781763Y-95806655D01*
X159821840Y-95800000D01*
X167740000Y-95800000D01*
X167700000Y-84200000D01*
X167624000Y-84200000D01*
X167556961Y-84180315D01*
X167511206Y-84127511D01*
X167500000Y-84076000D01*
X167500000Y-72350000D01*
X166210602Y-72350000D01*
X166143563Y-72330315D01*
X166122921Y-72313681D01*
X166016561Y-72207321D01*
X166016552Y-72207314D01*
X165875196Y-72123717D01*
X165875193Y-72123716D01*
X165717494Y-72077900D01*
X165717497Y-72077900D01*
X165715000Y-72077703D01*
X165715000Y-72226000D01*
X165695315Y-72293039D01*
X165642511Y-72338794D01*
X165591000Y-72350000D01*
X165339000Y-72350000D01*
X165271961Y-72330315D01*
X165226206Y-72277511D01*
X165215000Y-72226000D01*
X165215000Y-72077703D01*
X165212503Y-72077900D01*
X165054806Y-72123716D01*
X165054803Y-72123717D01*
X164913447Y-72207314D01*
X164907278Y-72212100D01*
X164905457Y-72209753D01*
X164856358Y-72236564D01*
X164786666Y-72231580D01*
X164753930Y-72210541D01*
X164752722Y-72212100D01*
X164746552Y-72207314D01*
X164605196Y-72123717D01*
X164605193Y-72123716D01*
X164447494Y-72077900D01*
X164447497Y-72077900D01*
X164445000Y-72077703D01*
X164445000Y-72226000D01*
X164425315Y-72293039D01*
X164372511Y-72338794D01*
X164321000Y-72350000D01*
X164069000Y-72350000D01*
X164067901Y-72349677D01*
X164066799Y-72349980D01*
X164034469Y-72339860D01*
X164001961Y-72330315D01*
X164001212Y-72329450D01*
X164000120Y-72329109D01*
X163978379Y-72303100D01*
X163956206Y-72277511D01*
X163955802Y-72276091D01*
X163955309Y-72275501D01*
X163954412Y-72271197D01*
X163945968Y-72241466D01*
X163917160Y-72012296D01*
X163921520Y-71985373D01*
X163922320Y-71960313D01*
X163921812Y-71960159D01*
X163922386Y-71958266D01*
X163922391Y-71958113D01*
X163922618Y-71957499D01*
X163923578Y-71954337D01*
X163923802Y-71953215D01*
X163934693Y-71898458D01*
X163949254Y-71825255D01*
X163981638Y-71763348D01*
X164042354Y-71728773D01*
X164071834Y-71726109D01*
X164071834Y-71725500D01*
X164074990Y-71725499D01*
X164074991Y-71725500D01*
X164850008Y-71725499D01*
X164850016Y-71725498D01*
X164850019Y-71725498D01*
X164906302Y-71719748D01*
X164952797Y-71714999D01*
X165119334Y-71659814D01*
X165268656Y-71567712D01*
X165392712Y-71443656D01*
X165394752Y-71440347D01*
X165396745Y-71438555D01*
X165397193Y-71437989D01*
X165397289Y-71438065D01*
X165446694Y-71393623D01*
X165515656Y-71382395D01*
X165579740Y-71410234D01*
X165605829Y-71440339D01*
X165607681Y-71443341D01*
X165607683Y-71443344D01*
X165731654Y-71567315D01*
X165880875Y-71659356D01*
X165880880Y-71659358D01*
X166047302Y-71714505D01*
X166047309Y-71714506D01*
X166150019Y-71724999D01*
X166287499Y-71724999D01*
X166787500Y-71724999D01*
X166924972Y-71724999D01*
X166924986Y-71724998D01*
X167027697Y-71714505D01*
X167194119Y-71659358D01*
X167194124Y-71659356D01*
X167343345Y-71567315D01*
X167467315Y-71443345D01*
X167559356Y-71294124D01*
X167559358Y-71294119D01*
X167614505Y-71127697D01*
X167614506Y-71127690D01*
X167624999Y-71024986D01*
X167625000Y-71024973D01*
X167625000Y-70750000D01*
X166787500Y-70750000D01*
X166787500Y-71724999D01*
X166287499Y-71724999D01*
X166287500Y-71724998D01*
X166287500Y-70250000D01*
X166787500Y-70250000D01*
X167624999Y-70250000D01*
X167624999Y-69975028D01*
X167624998Y-69975013D01*
X167614505Y-69872302D01*
X167559358Y-69705880D01*
X167559356Y-69705875D01*
X167467315Y-69556654D01*
X167343345Y-69432684D01*
X167194124Y-69340643D01*
X167194119Y-69340641D01*
X167027697Y-69285494D01*
X167027690Y-69285493D01*
X166924986Y-69275000D01*
X166787500Y-69275000D01*
X166787500Y-70250000D01*
X166287500Y-70250000D01*
X166287500Y-69275000D01*
X166150027Y-69275000D01*
X166150012Y-69275001D01*
X166047302Y-69285494D01*
X165880880Y-69340641D01*
X165880875Y-69340643D01*
X165731654Y-69432684D01*
X165607683Y-69556655D01*
X165607679Y-69556660D01*
X165605826Y-69559665D01*
X165604018Y-69561290D01*
X165603202Y-69562323D01*
X165603025Y-69562183D01*
X165553874Y-69606385D01*
X165484911Y-69617601D01*
X165420831Y-69589752D01*
X165406531Y-69575705D01*
X165399997Y-69568155D01*
X165392712Y-69556344D01*
X165370887Y-69534519D01*
X165367968Y-69531146D01*
X165355250Y-69503254D01*
X165340564Y-69476358D01*
X165340892Y-69471764D01*
X165338981Y-69467572D01*
X165343361Y-69437234D01*
X165345548Y-69406666D01*
X165348421Y-69402194D01*
X165348967Y-69398420D01*
X165356221Y-69390057D01*
X165374049Y-69362319D01*
X165407400Y-69328968D01*
X165442712Y-69293656D01*
X165534814Y-69144334D01*
X165589999Y-68977797D01*
X165600500Y-68875009D01*
X165600499Y-68224992D01*
X165599505Y-68215266D01*
X165589999Y-68122203D01*
X165589998Y-68122200D01*
X165574165Y-68074419D01*
X165534814Y-67955666D01*
X165442712Y-67806344D01*
X165318656Y-67682288D01*
X165169334Y-67590186D01*
X165002797Y-67535001D01*
X165002795Y-67535000D01*
X164900010Y-67524500D01*
X164099998Y-67524500D01*
X164099980Y-67524501D01*
X163997203Y-67535000D01*
X163997200Y-67535001D01*
X163830668Y-67590185D01*
X163830663Y-67590187D01*
X163681342Y-67682289D01*
X163557289Y-67806342D01*
X163465187Y-67955663D01*
X163465186Y-67955666D01*
X163410001Y-68122203D01*
X163410001Y-68122204D01*
X163410000Y-68122204D01*
X163399500Y-68224983D01*
X163399500Y-68875001D01*
X163399501Y-68875019D01*
X163410000Y-68977796D01*
X163410001Y-68977799D01*
X163465185Y-69144331D01*
X163465187Y-69144336D01*
X163498008Y-69197548D01*
X163547737Y-69278172D01*
X163557289Y-69293657D01*
X163588451Y-69324819D01*
X163621936Y-69386142D01*
X163616952Y-69455834D01*
X163588451Y-69500181D01*
X163532289Y-69556342D01*
X163440187Y-69705663D01*
X163440184Y-69705670D01*
X163430253Y-69735640D01*
X163423167Y-69745873D01*
X163420305Y-69757989D01*
X163403652Y-69774058D01*
X163390479Y-69793084D01*
X163377766Y-69799037D01*
X163370027Y-69806506D01*
X163336744Y-69818249D01*
X163322595Y-69821064D01*
X163322593Y-69821064D01*
X163322591Y-69821065D01*
X163306379Y-69824289D01*
X163295669Y-69826420D01*
X163265078Y-69839092D01*
X163168191Y-69879223D01*
X163112329Y-69916550D01*
X163111913Y-69916828D01*
X163074937Y-69941535D01*
X163048393Y-69959271D01*
X163047269Y-69957589D01*
X163025044Y-69967020D01*
X162994658Y-69980856D01*
X162993004Y-69980616D01*
X162991466Y-69981269D01*
X162958551Y-69975622D01*
X162925511Y-69970834D01*
X162923832Y-69969667D01*
X162922602Y-69969456D01*
X162895841Y-69951719D01*
X162892556Y-69948866D01*
X162873350Y-69929660D01*
X162863314Y-69923469D01*
X162855691Y-69916849D01*
X162842061Y-69895587D01*
X162825177Y-69876815D01*
X162822513Y-69865095D01*
X162817983Y-69858028D01*
X162817997Y-69845221D01*
X162813000Y-69823228D01*
X162813000Y-69643506D01*
X162808221Y-69619481D01*
X162805998Y-69608307D01*
X162812224Y-69538717D01*
X162839934Y-69496434D01*
X162880534Y-69455834D01*
X162942712Y-69393656D01*
X163034814Y-69244334D01*
X163089999Y-69077797D01*
X163100500Y-68975009D01*
X163100499Y-68324992D01*
X163089999Y-68222203D01*
X163034814Y-68055666D01*
X162942712Y-67906344D01*
X162818656Y-67782288D01*
X162682484Y-67698297D01*
X162669336Y-67690187D01*
X162669331Y-67690185D01*
X162645499Y-67682288D01*
X162502797Y-67635001D01*
X162502795Y-67635000D01*
X162400010Y-67624500D01*
X161599998Y-67624500D01*
X161599980Y-67624501D01*
X161497203Y-67635000D01*
X161497200Y-67635001D01*
X161330668Y-67690185D01*
X161330663Y-67690187D01*
X161181342Y-67782289D01*
X161057289Y-67906342D01*
X160965187Y-68055663D01*
X160965185Y-68055668D01*
X160943139Y-68122200D01*
X160910001Y-68222203D01*
X160910001Y-68222204D01*
X160910000Y-68222204D01*
X160899500Y-68324983D01*
X160899500Y-68975001D01*
X160899501Y-68975019D01*
X160910000Y-69077796D01*
X160910001Y-69077799D01*
X160965185Y-69244331D01*
X160965187Y-69244336D01*
X160991898Y-69287642D01*
X161057288Y-69393656D01*
X161181344Y-69517712D01*
X161240596Y-69554258D01*
X161287321Y-69606204D01*
X161297705Y-69638777D01*
X161299500Y-69649212D01*
X161299500Y-69668994D01*
X161324653Y-69795447D01*
X161324934Y-69797078D01*
X161321095Y-69830239D01*
X161318119Y-69863498D01*
X161317091Y-69864820D01*
X161316899Y-69866484D01*
X161295736Y-69892310D01*
X161275256Y-69918676D01*
X161273677Y-69919232D01*
X161272616Y-69920528D01*
X161240845Y-69930814D01*
X161209366Y-69941920D01*
X161207737Y-69941535D01*
X161206144Y-69942051D01*
X161173857Y-69933529D01*
X161141369Y-69925852D01*
X161138639Y-69924233D01*
X161138588Y-69924220D01*
X161138553Y-69924182D01*
X161137632Y-69923636D01*
X161001311Y-69839551D01*
X161001300Y-69839546D01*
X160837652Y-69785319D01*
X160736654Y-69775000D01*
X160637500Y-69775000D01*
X160637500Y-70626000D01*
X160617815Y-70693039D01*
X160565011Y-70738794D01*
X160513500Y-70750000D01*
X160261500Y-70750000D01*
X160194461Y-70730315D01*
X160148706Y-70677511D01*
X160137500Y-70626000D01*
X160137500Y-69774999D01*
X160038360Y-69775000D01*
X160038344Y-69775001D01*
X159937347Y-69785319D01*
X159773699Y-69839546D01*
X159773688Y-69839551D01*
X159626965Y-69930052D01*
X159626961Y-69930055D01*
X159505054Y-70051962D01*
X159433311Y-70168274D01*
X159381362Y-70214998D01*
X159312400Y-70226219D01*
X159248318Y-70198375D01*
X159240092Y-70190857D01*
X158787590Y-69738355D01*
X158787588Y-69738352D01*
X158668717Y-69619481D01*
X158668716Y-69619480D01*
X158574351Y-69564999D01*
X158574350Y-69564998D01*
X158531783Y-69540422D01*
X158475881Y-69525443D01*
X158379057Y-69499499D01*
X158220943Y-69499499D01*
X158213347Y-69499499D01*
X158213331Y-69499500D01*
X154600097Y-69499500D01*
X154533058Y-69479815D01*
X154512416Y-69463181D01*
X153727819Y-68678584D01*
X153694334Y-68617261D01*
X153691500Y-68590903D01*
X153691500Y-63673920D01*
X154449499Y-63673920D01*
X154478340Y-63818907D01*
X154478343Y-63818917D01*
X154534912Y-63955488D01*
X154534919Y-63955501D01*
X154617048Y-64078415D01*
X154617051Y-64078419D01*
X154721580Y-64182948D01*
X154721584Y-64182951D01*
X154844498Y-64265080D01*
X154844511Y-64265087D01*
X154940564Y-64304873D01*
X154981087Y-64321658D01*
X154981091Y-64321658D01*
X154981092Y-64321659D01*
X155126079Y-64350500D01*
X155126082Y-64350500D01*
X155273920Y-64350500D01*
X155371462Y-64331096D01*
X155418913Y-64321658D01*
X155441404Y-64312341D01*
X155510872Y-64304873D01*
X155573351Y-64336148D01*
X155603417Y-64379450D01*
X155634914Y-64455492D01*
X155634919Y-64455501D01*
X155717048Y-64578415D01*
X155717051Y-64578419D01*
X155821580Y-64682948D01*
X155821584Y-64682951D01*
X155944498Y-64765080D01*
X155944511Y-64765087D01*
X156051969Y-64809597D01*
X156081087Y-64821658D01*
X156081091Y-64821658D01*
X156081092Y-64821659D01*
X156226079Y-64850500D01*
X156226082Y-64850500D01*
X156373920Y-64850500D01*
X156471462Y-64831096D01*
X156518913Y-64821658D01*
X156655495Y-64765084D01*
X156778416Y-64682951D01*
X156882951Y-64578416D01*
X156910855Y-64536654D01*
X159100001Y-64536654D01*
X159110319Y-64637652D01*
X159164546Y-64801300D01*
X159164551Y-64801311D01*
X159255052Y-64948034D01*
X159255055Y-64948038D01*
X159376961Y-65069944D01*
X159376965Y-65069947D01*
X159523688Y-65160448D01*
X159523699Y-65160453D01*
X159687347Y-65214680D01*
X159788351Y-65224999D01*
X159887500Y-65224998D01*
X159887500Y-64500000D01*
X159100001Y-64500000D01*
X159100001Y-64536654D01*
X156910855Y-64536654D01*
X156965084Y-64455495D01*
X156976802Y-64427202D01*
X156981434Y-64420269D01*
X156982532Y-64415226D01*
X157003679Y-64386976D01*
X157653838Y-63736819D01*
X157715161Y-63703334D01*
X157741519Y-63700500D01*
X157931007Y-63700500D01*
X158992230Y-63700500D01*
X159059269Y-63720185D01*
X159105024Y-63772989D01*
X159114968Y-63842147D01*
X159111415Y-63857226D01*
X159110319Y-63862346D01*
X159100000Y-63963345D01*
X159100000Y-64000000D01*
X160013500Y-64000000D01*
X160080539Y-64019685D01*
X160126294Y-64072489D01*
X160137500Y-64124000D01*
X160137500Y-64250000D01*
X160263500Y-64250000D01*
X160330539Y-64269685D01*
X160376294Y-64322489D01*
X160387500Y-64374000D01*
X160387500Y-65224999D01*
X160486640Y-65224999D01*
X160486654Y-65224998D01*
X160587652Y-65214680D01*
X160751300Y-65160453D01*
X160751311Y-65160448D01*
X160898035Y-65069947D01*
X160911960Y-65056021D01*
X160915837Y-65053903D01*
X160918218Y-65050180D01*
X160946229Y-65037306D01*
X160973282Y-65022533D01*
X160977689Y-65022848D01*
X160981704Y-65021003D01*
X161012225Y-65025316D01*
X161042973Y-65027514D01*
X161047742Y-65030335D01*
X161050886Y-65030780D01*
X161064919Y-65040499D01*
X161080623Y-65049790D01*
X161084087Y-65052777D01*
X161101650Y-65070340D01*
X161111499Y-65076415D01*
X161118977Y-65082863D01*
X161132793Y-65104248D01*
X161149821Y-65123180D01*
X161152423Y-65134633D01*
X161156893Y-65141551D01*
X161156923Y-65154435D01*
X161162000Y-65176771D01*
X161162000Y-65181494D01*
X161162000Y-65181496D01*
X161161999Y-65181496D01*
X161188918Y-65316822D01*
X161188921Y-65316832D01*
X161203456Y-65351922D01*
X161210925Y-65421391D01*
X161179650Y-65483870D01*
X161176577Y-65487055D01*
X161057287Y-65606345D01*
X160965187Y-65755663D01*
X160965185Y-65755668D01*
X160953171Y-65791924D01*
X160910001Y-65922203D01*
X160910001Y-65922204D01*
X160910000Y-65922204D01*
X160899500Y-66024983D01*
X160899500Y-66675001D01*
X160899501Y-66675019D01*
X160910000Y-66777796D01*
X160910001Y-66777799D01*
X160965185Y-66944331D01*
X160965187Y-66944336D01*
X160970939Y-66953661D01*
X161057288Y-67093656D01*
X161181344Y-67217712D01*
X161330666Y-67309814D01*
X161497203Y-67364999D01*
X161599991Y-67375500D01*
X162400008Y-67375499D01*
X162400016Y-67375498D01*
X162400019Y-67375498D01*
X162456302Y-67369748D01*
X162502797Y-67364999D01*
X162669334Y-67309814D01*
X162818656Y-67217712D01*
X162942712Y-67093656D01*
X163034814Y-66944334D01*
X163089999Y-66777797D01*
X163100500Y-66675009D01*
X163100499Y-66024992D01*
X163100294Y-66022989D01*
X163089999Y-65922203D01*
X163089998Y-65922200D01*
X163072447Y-65869234D01*
X163034814Y-65755666D01*
X162942712Y-65606344D01*
X162818656Y-65482288D01*
X162818655Y-65482287D01*
X162759402Y-65445739D01*
X162712678Y-65393791D01*
X162700500Y-65340201D01*
X162700500Y-65181004D01*
X162700499Y-65181002D01*
X162682270Y-65089356D01*
X162688497Y-65019765D01*
X162716205Y-64977483D01*
X162745340Y-64948350D01*
X162835908Y-64801516D01*
X162890174Y-64637753D01*
X162900500Y-64536677D01*
X162900499Y-63963324D01*
X162894030Y-63900000D01*
X162890174Y-63862247D01*
X162875812Y-63818907D01*
X162835908Y-63698484D01*
X162745340Y-63551650D01*
X162623350Y-63429660D01*
X162623349Y-63429659D01*
X162623348Y-63429658D01*
X162608737Y-63420646D01*
X162586925Y-63396395D01*
X162564181Y-63373007D01*
X162563068Y-63369872D01*
X162562012Y-63368698D01*
X162552310Y-63339769D01*
X162536080Y-63258172D01*
X162535434Y-63256612D01*
X162533922Y-63249162D01*
X162536422Y-63219950D01*
X162536157Y-63190643D01*
X162539366Y-63185548D01*
X162539880Y-63179547D01*
X162557776Y-63156323D01*
X162573398Y-63131526D01*
X162578852Y-63128975D01*
X162582529Y-63124204D01*
X162610139Y-63114342D01*
X162636688Y-63101927D01*
X162647127Y-63101132D01*
X162648328Y-63100704D01*
X162649422Y-63100958D01*
X162655445Y-63100500D01*
X163375399Y-63100500D01*
X163442438Y-63120185D01*
X163488193Y-63172989D01*
X163498137Y-63242147D01*
X163480938Y-63289594D01*
X163464817Y-63315730D01*
X163440187Y-63355663D01*
X163440185Y-63355668D01*
X163426690Y-63396395D01*
X163385001Y-63522203D01*
X163385001Y-63522204D01*
X163385000Y-63522204D01*
X163374500Y-63624983D01*
X163374500Y-64675001D01*
X163374501Y-64675019D01*
X163385000Y-64777796D01*
X163385001Y-64777799D01*
X163440185Y-64944331D01*
X163440187Y-64944336D01*
X163442663Y-64948350D01*
X163532096Y-65093345D01*
X163532289Y-65093657D01*
X163661451Y-65222819D01*
X163659695Y-65224574D01*
X163693294Y-65272032D01*
X163696427Y-65341831D01*
X163663685Y-65399947D01*
X163557287Y-65506345D01*
X163465187Y-65655663D01*
X163465185Y-65655668D01*
X163457647Y-65678416D01*
X163410001Y-65822203D01*
X163410001Y-65822204D01*
X163410000Y-65822204D01*
X163399500Y-65924983D01*
X163399500Y-66575001D01*
X163399501Y-66575019D01*
X163410000Y-66677796D01*
X163410001Y-66677799D01*
X163438638Y-66764219D01*
X163465186Y-66844334D01*
X163557288Y-66993656D01*
X163681344Y-67117712D01*
X163830666Y-67209814D01*
X163997203Y-67264999D01*
X164099991Y-67275500D01*
X164900008Y-67275499D01*
X164900016Y-67275498D01*
X164900019Y-67275498D01*
X164956302Y-67269748D01*
X165002797Y-67264999D01*
X165169334Y-67209814D01*
X165318656Y-67117712D01*
X165442712Y-66993656D01*
X165534814Y-66844334D01*
X165589999Y-66677797D01*
X165600500Y-66575009D01*
X165600499Y-65924992D01*
X165600158Y-65921658D01*
X165589999Y-65822203D01*
X165589998Y-65822200D01*
X165580107Y-65792352D01*
X165534814Y-65655666D01*
X165442712Y-65506344D01*
X165318656Y-65382288D01*
X165312989Y-65377807D01*
X165313911Y-65376640D01*
X165304871Y-65366587D01*
X165287152Y-65354008D01*
X165281972Y-65341124D01*
X165272686Y-65330798D01*
X165269196Y-65309344D01*
X165261091Y-65289181D01*
X165263699Y-65275541D01*
X165261470Y-65261834D01*
X165270132Y-65241901D01*
X165274215Y-65220555D01*
X165287077Y-65202913D01*
X165289319Y-65197755D01*
X165294646Y-65191776D01*
X165295688Y-65190679D01*
X165392712Y-65093656D01*
X165401535Y-65079351D01*
X165410427Y-65069999D01*
X165429935Y-65058698D01*
X165446694Y-65043623D01*
X165459582Y-65041524D01*
X165470886Y-65034977D01*
X165493406Y-65036017D01*
X165515656Y-65032395D01*
X165527635Y-65037599D01*
X165540681Y-65038202D01*
X165559060Y-65051250D01*
X165579740Y-65060234D01*
X165592573Y-65075042D01*
X165597653Y-65078649D01*
X165599344Y-65082856D01*
X165605829Y-65090339D01*
X165607681Y-65093341D01*
X165607683Y-65093344D01*
X165731654Y-65217315D01*
X165880875Y-65309356D01*
X165880880Y-65309358D01*
X166047302Y-65364505D01*
X166047309Y-65364506D01*
X166150019Y-65374999D01*
X166287499Y-65374999D01*
X166787500Y-65374999D01*
X166924972Y-65374999D01*
X166924986Y-65374998D01*
X167027697Y-65364505D01*
X167194119Y-65309358D01*
X167194124Y-65309356D01*
X167343345Y-65217315D01*
X167467315Y-65093345D01*
X167559356Y-64944124D01*
X167559358Y-64944119D01*
X167614505Y-64777697D01*
X167614506Y-64777690D01*
X167624999Y-64674986D01*
X167625000Y-64674973D01*
X167625000Y-64400000D01*
X166787500Y-64400000D01*
X166787500Y-65374999D01*
X166287499Y-65374999D01*
X166287500Y-65374998D01*
X166287500Y-63900000D01*
X166787500Y-63900000D01*
X167624999Y-63900000D01*
X167624999Y-63625028D01*
X167624998Y-63625013D01*
X167614505Y-63522302D01*
X167559358Y-63355880D01*
X167559356Y-63355875D01*
X167467315Y-63206654D01*
X167343345Y-63082684D01*
X167194124Y-62990643D01*
X167194119Y-62990641D01*
X167027697Y-62935494D01*
X167027690Y-62935493D01*
X166924986Y-62925000D01*
X166787500Y-62925000D01*
X166787500Y-63900000D01*
X166287500Y-63900000D01*
X166287500Y-62925000D01*
X166150027Y-62925000D01*
X166150012Y-62925001D01*
X166047302Y-62935494D01*
X165880880Y-62990641D01*
X165880875Y-62990643D01*
X165731654Y-63082684D01*
X165607683Y-63206655D01*
X165607679Y-63206660D01*
X165605826Y-63209665D01*
X165604018Y-63211290D01*
X165603202Y-63212323D01*
X165603025Y-63212183D01*
X165553874Y-63256385D01*
X165484911Y-63267601D01*
X165420831Y-63239752D01*
X165394753Y-63209653D01*
X165394737Y-63209628D01*
X165392712Y-63206344D01*
X165268656Y-63082288D01*
X165268655Y-63082287D01*
X165221902Y-63053449D01*
X165175178Y-63001500D01*
X165163000Y-62947911D01*
X165163000Y-62893504D01*
X165136081Y-62758177D01*
X165136080Y-62758176D01*
X165136080Y-62758172D01*
X165104457Y-62681827D01*
X165083278Y-62630695D01*
X165083271Y-62630682D01*
X165031671Y-62553458D01*
X165006612Y-62515954D01*
X164346545Y-61855887D01*
X164231807Y-61779222D01*
X164104332Y-61726421D01*
X164104322Y-61726418D01*
X163968996Y-61699500D01*
X163968994Y-61699500D01*
X163968993Y-61699500D01*
X156331007Y-61699500D01*
X156331003Y-61699500D01*
X156222590Y-61721065D01*
X156222589Y-61721065D01*
X156198974Y-61725763D01*
X156195671Y-61726420D01*
X156068190Y-61779224D01*
X155953454Y-61855887D01*
X154913025Y-62896316D01*
X154872799Y-62923195D01*
X154844510Y-62934913D01*
X154844498Y-62934919D01*
X154721584Y-63017048D01*
X154721580Y-63017051D01*
X154617051Y-63121580D01*
X154617048Y-63121584D01*
X154534919Y-63244498D01*
X154534912Y-63244511D01*
X154478343Y-63381082D01*
X154478340Y-63381092D01*
X154449500Y-63526079D01*
X154449500Y-63526082D01*
X154449500Y-63673918D01*
X154449500Y-63673920D01*
X154449499Y-63673920D01*
X153691500Y-63673920D01*
X153691500Y-63220633D01*
X153711185Y-63153594D01*
X153727819Y-63132952D01*
X155532952Y-61327819D01*
X155594275Y-61294334D01*
X155620633Y-61291500D01*
X176512331Y-61291500D01*
X176512347Y-61291501D01*
X176519943Y-61291501D01*
X176678054Y-61291501D01*
X176678057Y-61291501D01*
X176830785Y-61250577D01*
X176910192Y-61204731D01*
X176967716Y-61171520D01*
X177079520Y-61059716D01*
X177079520Y-61059714D01*
X177089724Y-61049511D01*
X177089728Y-61049506D01*
X178725935Y-59413298D01*
X178787256Y-59379815D01*
X178856948Y-59384799D01*
X178912881Y-59426671D01*
X178937298Y-59492135D01*
X178936088Y-59520372D01*
X178934500Y-59530400D01*
X178934500Y-59729596D01*
X178965661Y-59926340D01*
X178965661Y-59926343D01*
X179027213Y-60115780D01*
X179027215Y-60115783D01*
X179117647Y-60293266D01*
X179234731Y-60454418D01*
X179375582Y-60595269D01*
X179536734Y-60712353D01*
X179606453Y-60747877D01*
X179688172Y-60789515D01*
X179738968Y-60837490D01*
X179755763Y-60905311D01*
X179733225Y-60971446D01*
X179688172Y-61010485D01*
X179536733Y-61087647D01*
X179375579Y-61204733D01*
X179234733Y-61345579D01*
X179234733Y-61345580D01*
X179234731Y-61345582D01*
X179184447Y-61414790D01*
X179117647Y-61506733D01*
X179027213Y-61684219D01*
X178965661Y-61873656D01*
X178965661Y-61873659D01*
X178934500Y-62070403D01*
X178934500Y-62269596D01*
X178965661Y-62466340D01*
X178965661Y-62466343D01*
X179027213Y-62655780D01*
X179079382Y-62758167D01*
X179117647Y-62833266D01*
X179234731Y-62994418D01*
X179375582Y-63135269D01*
X179536734Y-63252353D01*
X179609830Y-63289597D01*
X179688722Y-63329795D01*
X179739518Y-63377770D01*
X179756313Y-63445591D01*
X179733776Y-63511726D01*
X179688723Y-63550764D01*
X179536993Y-63628075D01*
X179499135Y-63655580D01*
X179499135Y-63655581D01*
X180062425Y-64218871D01*
X180003147Y-64234755D01*
X179886853Y-64301898D01*
X179791898Y-64396853D01*
X179724755Y-64513147D01*
X179708871Y-64572425D01*
X179145581Y-64009135D01*
X179145580Y-64009135D01*
X179118077Y-64046990D01*
X179027679Y-64224405D01*
X178966147Y-64413777D01*
X178935000Y-64610436D01*
X178935000Y-64809563D01*
X178966147Y-65006222D01*
X179027679Y-65195594D01*
X179118077Y-65373008D01*
X179145580Y-65410863D01*
X179145581Y-65410864D01*
X179708871Y-64847574D01*
X179724755Y-64906853D01*
X179791898Y-65023147D01*
X179886853Y-65118102D01*
X180003147Y-65185245D01*
X180062425Y-65201128D01*
X179499134Y-65764417D01*
X179536994Y-65791924D01*
X179688722Y-65869234D01*
X179739518Y-65917209D01*
X179756313Y-65985030D01*
X179733776Y-66051165D01*
X179688723Y-66090203D01*
X179536735Y-66167645D01*
X179423997Y-66249555D01*
X179375582Y-66284731D01*
X179375580Y-66284733D01*
X179375579Y-66284733D01*
X179234733Y-66425579D01*
X179234733Y-66425580D01*
X179234731Y-66425582D01*
X179199613Y-66473918D01*
X179117647Y-66586733D01*
X179027213Y-66764219D01*
X178965661Y-66953656D01*
X178965661Y-66953659D01*
X178965661Y-66953661D01*
X178934500Y-67150403D01*
X178934500Y-67349597D01*
X178938603Y-67375500D01*
X178965661Y-67546340D01*
X178965661Y-67546343D01*
X179027213Y-67735780D01*
X179094706Y-67868241D01*
X179117647Y-67913266D01*
X179234731Y-68074418D01*
X179375582Y-68215269D01*
X179536734Y-68332353D01*
X179606453Y-68367877D01*
X179688172Y-68409515D01*
X179738968Y-68457490D01*
X179755763Y-68525311D01*
X179733225Y-68591446D01*
X179688172Y-68630485D01*
X179536733Y-68707647D01*
X179444790Y-68774447D01*
X179375582Y-68824731D01*
X179375580Y-68824733D01*
X179375579Y-68824733D01*
X179234733Y-68965579D01*
X179234733Y-68965580D01*
X179234731Y-68965582D01*
X179225855Y-68977799D01*
X179117647Y-69126733D01*
X179027213Y-69304219D01*
X178965661Y-69493656D01*
X178965661Y-69493659D01*
X178946031Y-69617601D01*
X178934500Y-69690403D01*
X178934500Y-69889597D01*
X178947182Y-69969667D01*
X178965661Y-70086340D01*
X178965661Y-70086343D01*
X179027213Y-70275780D01*
X179117647Y-70453266D01*
X179234731Y-70614418D01*
X179375582Y-70755269D01*
X179536734Y-70872353D01*
X179592733Y-70900886D01*
X179688172Y-70949515D01*
X179738968Y-70997490D01*
X179755763Y-71065311D01*
X179733225Y-71131446D01*
X179688172Y-71170485D01*
X179536733Y-71247647D01*
X179535236Y-71248735D01*
X179375582Y-71364731D01*
X179375580Y-71364733D01*
X179375579Y-71364733D01*
X179234733Y-71505579D01*
X179234733Y-71505580D01*
X179234731Y-71505582D01*
X179184447Y-71574790D01*
X179117647Y-71666733D01*
X179027213Y-71844219D01*
X178965661Y-72033656D01*
X178965661Y-72033659D01*
X178934500Y-72230403D01*
X178934500Y-72429596D01*
X178965661Y-72626340D01*
X178965661Y-72626343D01*
X179027213Y-72815780D01*
X179083415Y-72926082D01*
X179117647Y-72993266D01*
X179234731Y-73154418D01*
X179375582Y-73295269D01*
X179536734Y-73412353D01*
X179600499Y-73444843D01*
X179688172Y-73489515D01*
X179738968Y-73537490D01*
X179755763Y-73605311D01*
X179733225Y-73671446D01*
X179688172Y-73710485D01*
X179536733Y-73787647D01*
X179444790Y-73854447D01*
X179375582Y-73904731D01*
X179375580Y-73904733D01*
X179375579Y-73904733D01*
X179234733Y-74045579D01*
X179234733Y-74045580D01*
X179234731Y-74045582D01*
X179184447Y-74114790D01*
X179117647Y-74206733D01*
X179027213Y-74384219D01*
X178965661Y-74573656D01*
X178965661Y-74573659D01*
X178934500Y-74770403D01*
X178934500Y-74969596D01*
X178965661Y-75166340D01*
X178965661Y-75166343D01*
X179027213Y-75355780D01*
X179027215Y-75355783D01*
X179117647Y-75533266D01*
X179234731Y-75694418D01*
X179375582Y-75835269D01*
X179536734Y-75952353D01*
X179600499Y-75984843D01*
X179688172Y-76029515D01*
X179738968Y-76077490D01*
X179755763Y-76145311D01*
X179733225Y-76211446D01*
X179688172Y-76250485D01*
X179536733Y-76327647D01*
X179498286Y-76355581D01*
X179375582Y-76444731D01*
X179375580Y-76444733D01*
X179375579Y-76444733D01*
X179234733Y-76585579D01*
X179234733Y-76585580D01*
X179234731Y-76585582D01*
X179184447Y-76654790D01*
X179117647Y-76746733D01*
X179027213Y-76924219D01*
X178965661Y-77113656D01*
X178965661Y-77113659D01*
X178934500Y-77310403D01*
X178934500Y-77509596D01*
X178965661Y-77706340D01*
X178965661Y-77706343D01*
X179027213Y-77895780D01*
X179117514Y-78073005D01*
X179117647Y-78073266D01*
X179234731Y-78234418D01*
X179375582Y-78375269D01*
X179536734Y-78492353D01*
X179606453Y-78527877D01*
X179688172Y-78569515D01*
X179738968Y-78617490D01*
X179755763Y-78685311D01*
X179733225Y-78751446D01*
X179688172Y-78790485D01*
X179536733Y-78867647D01*
X179444790Y-78934447D01*
X179375582Y-78984731D01*
X179375580Y-78984733D01*
X179375579Y-78984733D01*
X179234733Y-79125579D01*
X179234733Y-79125580D01*
X179234731Y-79125582D01*
X179184447Y-79194790D01*
X179117647Y-79286733D01*
X179027213Y-79464219D01*
X178965661Y-79653656D01*
X178965661Y-79653659D01*
X178934500Y-79850403D01*
X178934500Y-80049596D01*
X178965661Y-80246340D01*
X178965661Y-80246343D01*
X179027213Y-80435780D01*
X179027215Y-80435783D01*
X179117647Y-80613266D01*
X179234731Y-80774418D01*
X179375582Y-80915269D01*
X179536734Y-81032353D01*
X179606453Y-81067877D01*
X179688172Y-81109515D01*
X179738968Y-81157490D01*
X179755763Y-81225311D01*
X179733225Y-81291446D01*
X179688172Y-81330485D01*
X179536733Y-81407647D01*
X179444790Y-81474447D01*
X179375582Y-81524731D01*
X179375580Y-81524733D01*
X179375579Y-81524733D01*
X179234733Y-81665579D01*
X179234733Y-81665580D01*
X179234731Y-81665582D01*
X179184447Y-81734790D01*
X179117647Y-81826733D01*
X179027213Y-82004219D01*
X178965661Y-82193656D01*
X178965661Y-82193659D01*
X178934500Y-82390403D01*
X178934500Y-82589596D01*
X178965661Y-82786340D01*
X178965661Y-82786343D01*
X179027213Y-82975780D01*
X179040485Y-83001827D01*
X179117647Y-83153266D01*
X179234731Y-83314418D01*
X179375582Y-83455269D01*
X179536734Y-83572353D01*
X179600499Y-83604843D01*
X179688172Y-83649515D01*
X179738968Y-83697490D01*
X179755763Y-83765311D01*
X179733225Y-83831446D01*
X179688172Y-83870485D01*
X179536733Y-83947647D01*
X179444790Y-84014447D01*
X179375582Y-84064731D01*
X179375580Y-84064733D01*
X179375579Y-84064733D01*
X179234733Y-84205579D01*
X179234733Y-84205580D01*
X179234731Y-84205582D01*
X179212940Y-84235575D01*
X179117647Y-84366733D01*
X179027213Y-84544219D01*
X178965661Y-84733656D01*
X178965661Y-84733659D01*
X178934500Y-84930403D01*
X178934500Y-85129596D01*
X178965661Y-85326340D01*
X178965661Y-85326343D01*
X179027213Y-85515780D01*
X179027215Y-85515783D01*
X179117647Y-85693266D01*
X179234731Y-85854418D01*
X179375582Y-85995269D01*
X179536734Y-86112353D01*
X179606453Y-86147877D01*
X179688172Y-86189515D01*
X179738968Y-86237490D01*
X179755763Y-86305311D01*
X179733225Y-86371446D01*
X179688172Y-86410485D01*
X179536733Y-86487647D01*
X179444790Y-86554447D01*
X179375582Y-86604731D01*
X179375580Y-86604733D01*
X179375579Y-86604733D01*
X179234733Y-86745579D01*
X179234733Y-86745580D01*
X179234731Y-86745582D01*
X179184447Y-86814790D01*
X179117647Y-86906733D01*
X179027213Y-87084219D01*
X178965661Y-87273656D01*
X178965661Y-87273659D01*
X178934500Y-87470403D01*
X178934500Y-87669596D01*
X178965661Y-87866340D01*
X178965661Y-87866343D01*
X179027213Y-88055780D01*
X179064814Y-88129576D01*
X179117647Y-88233266D01*
X179234731Y-88394418D01*
X179375582Y-88535269D01*
X179536734Y-88652353D01*
X179606453Y-88687877D01*
X179688172Y-88729515D01*
X179738968Y-88777490D01*
X179755763Y-88845311D01*
X179733225Y-88911446D01*
X179688172Y-88950485D01*
X179536733Y-89027647D01*
X179444790Y-89094447D01*
X179375582Y-89144731D01*
X179375580Y-89144733D01*
X179375579Y-89144733D01*
X179234733Y-89285579D01*
X179234733Y-89285580D01*
X179234731Y-89285582D01*
X179184447Y-89354790D01*
X179117647Y-89446733D01*
X179027213Y-89624219D01*
X178965661Y-89813656D01*
X178965661Y-89813659D01*
X178934500Y-90010403D01*
X178934500Y-90209596D01*
X178965661Y-90406340D01*
X178965661Y-90406343D01*
X179027213Y-90595780D01*
X179064814Y-90669576D01*
X179117647Y-90773266D01*
X179234731Y-90934418D01*
X179375582Y-91075269D01*
X179536734Y-91192353D01*
X179606453Y-91227877D01*
X179688172Y-91269515D01*
X179738968Y-91317490D01*
X179755763Y-91385311D01*
X179733225Y-91451446D01*
X179688172Y-91490485D01*
X179536733Y-91567647D01*
X179444790Y-91634447D01*
X179375582Y-91684731D01*
X179375580Y-91684733D01*
X179375579Y-91684733D01*
X179234733Y-91825579D01*
X179234733Y-91825580D01*
X179234731Y-91825582D01*
X179184447Y-91894790D01*
X179117647Y-91986733D01*
X179027213Y-92164219D01*
X178965661Y-92353656D01*
X178965661Y-92353659D01*
X178934500Y-92550403D01*
X178934500Y-92749596D01*
X178965661Y-92946340D01*
X178965661Y-92946343D01*
X179027213Y-93135780D01*
X179040485Y-93161827D01*
X179117647Y-93313266D01*
X179234731Y-93474418D01*
X179375582Y-93615269D01*
X179536734Y-93732353D01*
X179606453Y-93767877D01*
X179688172Y-93809515D01*
X179738968Y-93857490D01*
X179755763Y-93925311D01*
X179733225Y-93991446D01*
X179688172Y-94030485D01*
X179536733Y-94107647D01*
X179444790Y-94174447D01*
X179375582Y-94224731D01*
X179375580Y-94224733D01*
X179375579Y-94224733D01*
X179234733Y-94365579D01*
X179234733Y-94365580D01*
X179234731Y-94365582D01*
X179184447Y-94434790D01*
X179117647Y-94526733D01*
X179027213Y-94704219D01*
X178965661Y-94893656D01*
X178965661Y-94893659D01*
X178934500Y-95090403D01*
X178934500Y-95289596D01*
X178965661Y-95486340D01*
X178965661Y-95486343D01*
X179027213Y-95675780D01*
X179100537Y-95819685D01*
X179117647Y-95853266D01*
X179234731Y-96014418D01*
X179375582Y-96155269D01*
X179536734Y-96272353D01*
X179582506Y-96295675D01*
X179688172Y-96349515D01*
X179738968Y-96397490D01*
X179755763Y-96465311D01*
X179733225Y-96531446D01*
X179688172Y-96570485D01*
X179536733Y-96647647D01*
X179450377Y-96710389D01*
X179375582Y-96764731D01*
X179375580Y-96764733D01*
X179375579Y-96764733D01*
X179234733Y-96905579D01*
X179234733Y-96905580D01*
X179234731Y-96905582D01*
X179184447Y-96974790D01*
X179117647Y-97066733D01*
X179027213Y-97244219D01*
X178965661Y-97433656D01*
X178965661Y-97433659D01*
X178934500Y-97630403D01*
X178934500Y-97829596D01*
X178965661Y-98026340D01*
X178965661Y-98026343D01*
X179027213Y-98215780D01*
X179117647Y-98393266D01*
X179234731Y-98554418D01*
X179375582Y-98695269D01*
X179536734Y-98812353D01*
X179606453Y-98847877D01*
X179688172Y-98889515D01*
X179738968Y-98937490D01*
X179755763Y-99005311D01*
X179733225Y-99071446D01*
X179688172Y-99110485D01*
X179536733Y-99187647D01*
X179444790Y-99254447D01*
X179375582Y-99304731D01*
X179375580Y-99304733D01*
X179375579Y-99304733D01*
X179234733Y-99445579D01*
X179234733Y-99445580D01*
X179234731Y-99445582D01*
X179184447Y-99514790D01*
X179117647Y-99606733D01*
X179027213Y-99784219D01*
X178965661Y-99973656D01*
X178965661Y-99973659D01*
X178934500Y-100170403D01*
X178934500Y-100369596D01*
X178965661Y-100566340D01*
X178965661Y-100566343D01*
X179027213Y-100755780D01*
X179040485Y-100781827D01*
X179117647Y-100933266D01*
X179234731Y-101094418D01*
X179375582Y-101235269D01*
X179536734Y-101352353D01*
X179606453Y-101387877D01*
X179688172Y-101429515D01*
X179738968Y-101477490D01*
X179755763Y-101545311D01*
X179733225Y-101611446D01*
X179688172Y-101650485D01*
X179536733Y-101727647D01*
X179444790Y-101794447D01*
X179375582Y-101844731D01*
X179375580Y-101844733D01*
X179375579Y-101844733D01*
X179234733Y-101985579D01*
X179234733Y-101985580D01*
X179234731Y-101985582D01*
X179184447Y-102054790D01*
X179117647Y-102146733D01*
X179027213Y-102324219D01*
X178965661Y-102513656D01*
X178965661Y-102513659D01*
X178934500Y-102710403D01*
X178934500Y-102909596D01*
X178965661Y-103106340D01*
X178965661Y-103106343D01*
X179027213Y-103295780D01*
X179040485Y-103321827D01*
X179117647Y-103473266D01*
X179234731Y-103634418D01*
X179375582Y-103775269D01*
X179536734Y-103892353D01*
X179606453Y-103927877D01*
X179688172Y-103969515D01*
X179738968Y-104017490D01*
X179755763Y-104085311D01*
X179733225Y-104151446D01*
X179688172Y-104190485D01*
X179536733Y-104267647D01*
X179444790Y-104334447D01*
X179375582Y-104384731D01*
X179375580Y-104384733D01*
X179375579Y-104384733D01*
X179234733Y-104525579D01*
X179234733Y-104525580D01*
X179234731Y-104525582D01*
X179184447Y-104594790D01*
X179117647Y-104686733D01*
X179027213Y-104864219D01*
X178965661Y-105053656D01*
X178965661Y-105053659D01*
X178934500Y-105250403D01*
X178934500Y-105449596D01*
X178965661Y-105646340D01*
X178965661Y-105646343D01*
X179027213Y-105835780D01*
X179040485Y-105861827D01*
X179117647Y-106013266D01*
X179234731Y-106174418D01*
X179375582Y-106315269D01*
X179536734Y-106432353D01*
X179606453Y-106467877D01*
X179688172Y-106509515D01*
X179738968Y-106557490D01*
X179755763Y-106625311D01*
X179733225Y-106691446D01*
X179688172Y-106730485D01*
X179536733Y-106807647D01*
X179444790Y-106874447D01*
X179375582Y-106924731D01*
X179375580Y-106924733D01*
X179375579Y-106924733D01*
X179234733Y-107065579D01*
X179234733Y-107065580D01*
X179234731Y-107065582D01*
X179184447Y-107134790D01*
X179117647Y-107226733D01*
X179027213Y-107404219D01*
X178965661Y-107593656D01*
X178965661Y-107593659D01*
X178934500Y-107790403D01*
X178934500Y-107989596D01*
X178965661Y-108186340D01*
X178965661Y-108186343D01*
X179027213Y-108375780D01*
X179040485Y-108401827D01*
X179117647Y-108553266D01*
X179234731Y-108714418D01*
X179375582Y-108855269D01*
X179536734Y-108972353D01*
X179606453Y-109007877D01*
X179688172Y-109049515D01*
X179738968Y-109097490D01*
X179755763Y-109165311D01*
X179733225Y-109231446D01*
X179688172Y-109270485D01*
X179536733Y-109347647D01*
X179444790Y-109414447D01*
X179375582Y-109464731D01*
X179375580Y-109464733D01*
X179375579Y-109464733D01*
X179234733Y-109605579D01*
X179234733Y-109605580D01*
X179234731Y-109605582D01*
X179184447Y-109674790D01*
X179117647Y-109766733D01*
X179027213Y-109944219D01*
X178965661Y-110133656D01*
X178965661Y-110133659D01*
X178934500Y-110330403D01*
X178934500Y-110529596D01*
X178965661Y-110726340D01*
X178965661Y-110726343D01*
X179027213Y-110915780D01*
X179027215Y-110915783D01*
X179117647Y-111093266D01*
X179234731Y-111254418D01*
X179375582Y-111395269D01*
X179536734Y-111512353D01*
X179714217Y-111602785D01*
X179714219Y-111602786D01*
X179903657Y-111664338D01*
X179903658Y-111664338D01*
X179903661Y-111664339D01*
X180100403Y-111695500D01*
X180100404Y-111695500D01*
X180299596Y-111695500D01*
X180299597Y-111695500D01*
X180496339Y-111664339D01*
X180496342Y-111664338D01*
X180496343Y-111664338D01*
X180685780Y-111602786D01*
X180685780Y-111602785D01*
X180685783Y-111602785D01*
X180863266Y-111512353D01*
X181024418Y-111395269D01*
X181165269Y-111254418D01*
X181282353Y-111093266D01*
X181359515Y-110941827D01*
X181407490Y-110891031D01*
X181475311Y-110874236D01*
X181541446Y-110896773D01*
X181580485Y-110941827D01*
X181657647Y-111093266D01*
X181774731Y-111254418D01*
X181915582Y-111395269D01*
X182076734Y-111512353D01*
X182254217Y-111602785D01*
X182254219Y-111602786D01*
X182443657Y-111664338D01*
X182443658Y-111664338D01*
X182443661Y-111664339D01*
X182640403Y-111695500D01*
X182640404Y-111695500D01*
X182839596Y-111695500D01*
X182839597Y-111695500D01*
X183036339Y-111664339D01*
X183036342Y-111664338D01*
X183036343Y-111664338D01*
X183225780Y-111602786D01*
X183225780Y-111602785D01*
X183225783Y-111602785D01*
X183403266Y-111512353D01*
X183564418Y-111395269D01*
X183705269Y-111254418D01*
X183822353Y-111093266D01*
X183912785Y-110915783D01*
X183920827Y-110891031D01*
X183974338Y-110726343D01*
X183974338Y-110726342D01*
X183974339Y-110726339D01*
X184005500Y-110529597D01*
X184005500Y-110330403D01*
X183974339Y-110133661D01*
X183974338Y-110133657D01*
X183974338Y-110133656D01*
X183912786Y-109944219D01*
X183822352Y-109766733D01*
X183705269Y-109605582D01*
X183564418Y-109464731D01*
X183403266Y-109347647D01*
X183251827Y-109270485D01*
X183201031Y-109222510D01*
X183184236Y-109154689D01*
X183206773Y-109088554D01*
X183251827Y-109049515D01*
X183261116Y-109044781D01*
X183403266Y-108972353D01*
X183564418Y-108855269D01*
X183705269Y-108714418D01*
X183822353Y-108553266D01*
X183912785Y-108375783D01*
X183925140Y-108337758D01*
X183974338Y-108186343D01*
X183974338Y-108186342D01*
X183974339Y-108186339D01*
X184005500Y-107989597D01*
X184005500Y-107790403D01*
X183974339Y-107593661D01*
X183974338Y-107593657D01*
X183974338Y-107593656D01*
X183912786Y-107404219D01*
X183822352Y-107226733D01*
X183705269Y-107065582D01*
X183564418Y-106924731D01*
X183403266Y-106807647D01*
X183251827Y-106730485D01*
X183201031Y-106682510D01*
X183184236Y-106614689D01*
X183206773Y-106548554D01*
X183251827Y-106509515D01*
X183261116Y-106504781D01*
X183403266Y-106432353D01*
X183564418Y-106315269D01*
X183705269Y-106174418D01*
X183822353Y-106013266D01*
X183912785Y-105835783D01*
X183925140Y-105797758D01*
X183974338Y-105646343D01*
X183974338Y-105646342D01*
X183974339Y-105646339D01*
X184005500Y-105449597D01*
X184005500Y-105250403D01*
X183974339Y-105053661D01*
X183974338Y-105053657D01*
X183974338Y-105053656D01*
X183912786Y-104864219D01*
X183822352Y-104686733D01*
X183705269Y-104525582D01*
X183564418Y-104384731D01*
X183403266Y-104267647D01*
X183251827Y-104190485D01*
X183201031Y-104142510D01*
X183184236Y-104074689D01*
X183206773Y-104008554D01*
X183251827Y-103969515D01*
X183261116Y-103964781D01*
X183403266Y-103892353D01*
X183564418Y-103775269D01*
X183705269Y-103634418D01*
X183822353Y-103473266D01*
X183912785Y-103295783D01*
X183925140Y-103257758D01*
X183974338Y-103106343D01*
X183974338Y-103106342D01*
X183974339Y-103106339D01*
X184005500Y-102909597D01*
X184005500Y-102710403D01*
X183974339Y-102513661D01*
X183974338Y-102513657D01*
X183974338Y-102513656D01*
X183912786Y-102324219D01*
X183822352Y-102146733D01*
X183705269Y-101985582D01*
X183564418Y-101844731D01*
X183403266Y-101727647D01*
X183251827Y-101650485D01*
X183201031Y-101602510D01*
X183184236Y-101534689D01*
X183206773Y-101468554D01*
X183251827Y-101429515D01*
X183261116Y-101424781D01*
X183403266Y-101352353D01*
X183564418Y-101235269D01*
X183705269Y-101094418D01*
X183822353Y-100933266D01*
X183912785Y-100755783D01*
X183925140Y-100717758D01*
X183974338Y-100566343D01*
X183974338Y-100566342D01*
X183974339Y-100566339D01*
X184005500Y-100369597D01*
X184005500Y-100170403D01*
X183974339Y-99973661D01*
X183974338Y-99973657D01*
X183974338Y-99973656D01*
X183912786Y-99784219D01*
X183892548Y-99744499D01*
X183822353Y-99606734D01*
X183705269Y-99445582D01*
X183564418Y-99304731D01*
X183403266Y-99187647D01*
X183251827Y-99110485D01*
X183201031Y-99062510D01*
X183184236Y-98994689D01*
X183206773Y-98928554D01*
X183251827Y-98889515D01*
X183261116Y-98884781D01*
X183403266Y-98812353D01*
X183564418Y-98695269D01*
X183705269Y-98554418D01*
X183822353Y-98393266D01*
X183912785Y-98215783D01*
X183925140Y-98177758D01*
X183974338Y-98026343D01*
X183974338Y-98026342D01*
X183974339Y-98026339D01*
X184005500Y-97829597D01*
X184005500Y-97630403D01*
X183974339Y-97433661D01*
X183974338Y-97433657D01*
X183974338Y-97433656D01*
X183912786Y-97244219D01*
X183880047Y-97179965D01*
X183822353Y-97066734D01*
X183705269Y-96905582D01*
X183564418Y-96764731D01*
X183403266Y-96647647D01*
X183251827Y-96570485D01*
X183201031Y-96522510D01*
X183184236Y-96454689D01*
X183206773Y-96388554D01*
X183251827Y-96349515D01*
X183261116Y-96344781D01*
X183403266Y-96272353D01*
X183564418Y-96155269D01*
X183705269Y-96014418D01*
X183822353Y-95853266D01*
X183912785Y-95675783D01*
X183925140Y-95637758D01*
X183974338Y-95486343D01*
X183974338Y-95486342D01*
X183974339Y-95486339D01*
X184005500Y-95289597D01*
X184005500Y-95090403D01*
X183974339Y-94893661D01*
X183974338Y-94893657D01*
X183974338Y-94893656D01*
X183912786Y-94704219D01*
X183822352Y-94526733D01*
X183705269Y-94365582D01*
X183564418Y-94224731D01*
X183403266Y-94107647D01*
X183251827Y-94030485D01*
X183201031Y-93982510D01*
X183184236Y-93914689D01*
X183206773Y-93848554D01*
X183251827Y-93809515D01*
X183261116Y-93804781D01*
X183403266Y-93732353D01*
X183564418Y-93615269D01*
X183705269Y-93474418D01*
X183822353Y-93313266D01*
X183912785Y-93135783D01*
X183925140Y-93097758D01*
X183974338Y-92946343D01*
X183974338Y-92946342D01*
X183974339Y-92946339D01*
X184005500Y-92749597D01*
X184005500Y-92550403D01*
X183974339Y-92353661D01*
X183974338Y-92353657D01*
X183974338Y-92353656D01*
X183912786Y-92164219D01*
X183822352Y-91986733D01*
X183705269Y-91825582D01*
X183564418Y-91684731D01*
X183403266Y-91567647D01*
X183251827Y-91490485D01*
X183201031Y-91442510D01*
X183184236Y-91374689D01*
X183206773Y-91308554D01*
X183251827Y-91269515D01*
X183261116Y-91264781D01*
X183403266Y-91192353D01*
X183564418Y-91075269D01*
X183705269Y-90934418D01*
X183822353Y-90773266D01*
X183912785Y-90595783D01*
X183925140Y-90557758D01*
X183974338Y-90406343D01*
X183974338Y-90406342D01*
X183974339Y-90406339D01*
X184005500Y-90209597D01*
X184005500Y-90010403D01*
X183974339Y-89813661D01*
X183974338Y-89813657D01*
X183974338Y-89813656D01*
X183912786Y-89624219D01*
X183852890Y-89506666D01*
X183822353Y-89446734D01*
X183705269Y-89285582D01*
X183564418Y-89144731D01*
X183403266Y-89027647D01*
X183330816Y-88990732D01*
X183251827Y-88950485D01*
X183201031Y-88902510D01*
X183184236Y-88834689D01*
X183206773Y-88768554D01*
X183251827Y-88729515D01*
X183261116Y-88724781D01*
X183403266Y-88652353D01*
X183564418Y-88535269D01*
X183705269Y-88394418D01*
X183822353Y-88233266D01*
X183912785Y-88055783D01*
X183925140Y-88017758D01*
X183974338Y-87866343D01*
X183974338Y-87866342D01*
X183974339Y-87866339D01*
X184005500Y-87669597D01*
X184005500Y-87470403D01*
X183974339Y-87273661D01*
X183974338Y-87273657D01*
X183974338Y-87273656D01*
X183912786Y-87084219D01*
X183852890Y-86966666D01*
X183822353Y-86906734D01*
X183705269Y-86745582D01*
X183564418Y-86604731D01*
X183403266Y-86487647D01*
X183251827Y-86410485D01*
X183201031Y-86362510D01*
X183184236Y-86294689D01*
X183206773Y-86228554D01*
X183251827Y-86189515D01*
X183261116Y-86184781D01*
X183403266Y-86112353D01*
X183564418Y-85995269D01*
X183705269Y-85854418D01*
X183822353Y-85693266D01*
X183912785Y-85515783D01*
X183920827Y-85491031D01*
X183974338Y-85326343D01*
X183974338Y-85326342D01*
X183974339Y-85326339D01*
X184005500Y-85129597D01*
X184005500Y-84930403D01*
X183974339Y-84733661D01*
X183974338Y-84733657D01*
X183974338Y-84733656D01*
X183912786Y-84544219D01*
X183822352Y-84366733D01*
X183705269Y-84205582D01*
X183564418Y-84064731D01*
X183403266Y-83947647D01*
X183251827Y-83870485D01*
X183201031Y-83822510D01*
X183184236Y-83754689D01*
X183206773Y-83688554D01*
X183251827Y-83649515D01*
X183261116Y-83644781D01*
X183403266Y-83572353D01*
X183564418Y-83455269D01*
X183705269Y-83314418D01*
X183822353Y-83153266D01*
X183912785Y-82975783D01*
X183925140Y-82937758D01*
X183974338Y-82786343D01*
X183974338Y-82786342D01*
X183974339Y-82786339D01*
X184005500Y-82589597D01*
X184005500Y-82390403D01*
X183974339Y-82193661D01*
X183974338Y-82193657D01*
X183974338Y-82193656D01*
X183912786Y-82004219D01*
X183822352Y-81826733D01*
X183705269Y-81665582D01*
X183564418Y-81524731D01*
X183403266Y-81407647D01*
X183251827Y-81330485D01*
X183201031Y-81282510D01*
X183184236Y-81214689D01*
X183206773Y-81148554D01*
X183251827Y-81109515D01*
X183261116Y-81104781D01*
X183403266Y-81032353D01*
X183564418Y-80915269D01*
X183705269Y-80774418D01*
X183822353Y-80613266D01*
X183912785Y-80435783D01*
X183920827Y-80411031D01*
X183974338Y-80246343D01*
X183974338Y-80246342D01*
X183974339Y-80246339D01*
X184005500Y-80049597D01*
X184005500Y-79850403D01*
X183974339Y-79653661D01*
X183974338Y-79653657D01*
X183974338Y-79653656D01*
X183912786Y-79464219D01*
X183822352Y-79286733D01*
X183705269Y-79125582D01*
X183564418Y-78984731D01*
X183403266Y-78867647D01*
X183403262Y-78867645D01*
X183251277Y-78790204D01*
X183200481Y-78742229D01*
X183183686Y-78674408D01*
X183206224Y-78608273D01*
X183251277Y-78569234D01*
X183403005Y-78491924D01*
X183440863Y-78464418D01*
X183440863Y-78464417D01*
X182877574Y-77901128D01*
X182936853Y-77885245D01*
X183053147Y-77818102D01*
X183148102Y-77723147D01*
X183215245Y-77606853D01*
X183231128Y-77547574D01*
X183794417Y-78110863D01*
X183794418Y-78110863D01*
X183821924Y-78073005D01*
X183912320Y-77895594D01*
X183973852Y-77706222D01*
X184005000Y-77509563D01*
X184005000Y-77310436D01*
X183973852Y-77113777D01*
X183912320Y-76924405D01*
X183821924Y-76746994D01*
X183794417Y-76709135D01*
X183794417Y-76709134D01*
X183231128Y-77272424D01*
X183215245Y-77213147D01*
X183148102Y-77096853D01*
X183053147Y-77001898D01*
X182936853Y-76934755D01*
X182877574Y-76918871D01*
X183440864Y-76355581D01*
X183440863Y-76355580D01*
X183403008Y-76328077D01*
X183251277Y-76250765D01*
X183200481Y-76202790D01*
X183183686Y-76134969D01*
X183206224Y-76068834D01*
X183251277Y-76029795D01*
X183251827Y-76029515D01*
X183403266Y-75952353D01*
X183564418Y-75835269D01*
X183705269Y-75694418D01*
X183822353Y-75533266D01*
X183912785Y-75355783D01*
X183920827Y-75331031D01*
X183974338Y-75166343D01*
X183974338Y-75166342D01*
X183974339Y-75166339D01*
X184005500Y-74969597D01*
X184005500Y-74770403D01*
X183974339Y-74573661D01*
X183974338Y-74573657D01*
X183974338Y-74573656D01*
X183912786Y-74384219D01*
X183822352Y-74206733D01*
X183705269Y-74045582D01*
X183564418Y-73904731D01*
X183403266Y-73787647D01*
X183251827Y-73710485D01*
X183201031Y-73662510D01*
X183184236Y-73594689D01*
X183206773Y-73528554D01*
X183251827Y-73489515D01*
X183273612Y-73478415D01*
X183403266Y-73412353D01*
X183564418Y-73295269D01*
X183705269Y-73154418D01*
X183822353Y-72993266D01*
X183912785Y-72815783D01*
X183925140Y-72777758D01*
X183974338Y-72626343D01*
X183974338Y-72626342D01*
X183974339Y-72626339D01*
X184005500Y-72429597D01*
X184005500Y-72230403D01*
X183974339Y-72033661D01*
X183974338Y-72033657D01*
X183974338Y-72033656D01*
X183912786Y-71844219D01*
X183871580Y-71763348D01*
X183822353Y-71666734D01*
X183705269Y-71505582D01*
X183564418Y-71364731D01*
X183403266Y-71247647D01*
X183251827Y-71170485D01*
X183201031Y-71122510D01*
X183184236Y-71054689D01*
X183206773Y-70988554D01*
X183251827Y-70949515D01*
X183275849Y-70937275D01*
X183403266Y-70872353D01*
X183564418Y-70755269D01*
X183705269Y-70614418D01*
X183822353Y-70453266D01*
X183912785Y-70275783D01*
X183921162Y-70250000D01*
X183974338Y-70086343D01*
X183974338Y-70086342D01*
X183974339Y-70086339D01*
X184005500Y-69889597D01*
X184005500Y-69690403D01*
X183974339Y-69493661D01*
X183974338Y-69493657D01*
X183974338Y-69493656D01*
X183912786Y-69304219D01*
X183882273Y-69244334D01*
X183822353Y-69126734D01*
X183705269Y-68965582D01*
X183564418Y-68824731D01*
X183403266Y-68707647D01*
X183325825Y-68668189D01*
X183251827Y-68630485D01*
X183201031Y-68582510D01*
X183184236Y-68514689D01*
X183206773Y-68448554D01*
X183251827Y-68409515D01*
X183261116Y-68404781D01*
X183403266Y-68332353D01*
X183564418Y-68215269D01*
X183705269Y-68074418D01*
X183822353Y-67913266D01*
X183912785Y-67735783D01*
X183925140Y-67697758D01*
X183974338Y-67546343D01*
X183974338Y-67546342D01*
X183974339Y-67546339D01*
X184005500Y-67349597D01*
X184005500Y-67150403D01*
X183974339Y-66953661D01*
X183974338Y-66953657D01*
X183974338Y-66953656D01*
X183912786Y-66764219D01*
X183822352Y-66586733D01*
X183705269Y-66425582D01*
X183564418Y-66284731D01*
X183403266Y-66167647D01*
X183329391Y-66130006D01*
X183251827Y-66090485D01*
X183201031Y-66042510D01*
X183184236Y-65974689D01*
X183206773Y-65908554D01*
X183251827Y-65869515D01*
X183261116Y-65864781D01*
X183403266Y-65792353D01*
X183564418Y-65675269D01*
X183705269Y-65534418D01*
X183822353Y-65373266D01*
X183912785Y-65195783D01*
X183926220Y-65154435D01*
X183974338Y-65006343D01*
X183974338Y-65006342D01*
X183974339Y-65006339D01*
X184005500Y-64809597D01*
X184005500Y-64610403D01*
X183974339Y-64413661D01*
X183974338Y-64413657D01*
X183974338Y-64413656D01*
X183912786Y-64224219D01*
X183838497Y-64078419D01*
X183822353Y-64046734D01*
X183705269Y-63885582D01*
X183564418Y-63744731D01*
X183403266Y-63627647D01*
X183254113Y-63551650D01*
X183251827Y-63550485D01*
X183201031Y-63502510D01*
X183184236Y-63434689D01*
X183206773Y-63368554D01*
X183251827Y-63329515D01*
X183261116Y-63324781D01*
X183403266Y-63252353D01*
X183564418Y-63135269D01*
X183705269Y-62994418D01*
X183822353Y-62833266D01*
X183912785Y-62655783D01*
X183925140Y-62617758D01*
X183974338Y-62466343D01*
X183974338Y-62466342D01*
X183974339Y-62466339D01*
X184005500Y-62269597D01*
X184005500Y-62070403D01*
X183974339Y-61873661D01*
X183974338Y-61873657D01*
X183974338Y-61873656D01*
X183912786Y-61684219D01*
X183822352Y-61506733D01*
X183705269Y-61345582D01*
X183564418Y-61204731D01*
X183403266Y-61087647D01*
X183251827Y-61010485D01*
X183201031Y-60962510D01*
X183184236Y-60894689D01*
X183206773Y-60828554D01*
X183251827Y-60789515D01*
X183261116Y-60784781D01*
X183403266Y-60712353D01*
X183564418Y-60595269D01*
X183705269Y-60454418D01*
X183822353Y-60293266D01*
X183912785Y-60115783D01*
X183920827Y-60091031D01*
X183974338Y-59926343D01*
X183974338Y-59926342D01*
X183974339Y-59926339D01*
X184005500Y-59729597D01*
X184005500Y-59530403D01*
X183974339Y-59333661D01*
X183974338Y-59333657D01*
X183974338Y-59333656D01*
X183912786Y-59144219D01*
X183882964Y-59085690D01*
X183822353Y-58966734D01*
X183705269Y-58805582D01*
X183564418Y-58664731D01*
X183403266Y-58547647D01*
X183251827Y-58470485D01*
X183201031Y-58422510D01*
X183184236Y-58354689D01*
X183206773Y-58288554D01*
X183251827Y-58249515D01*
X183291428Y-58229337D01*
X183403266Y-58172353D01*
X183564418Y-58055269D01*
X183705269Y-57914418D01*
X183822353Y-57753266D01*
X183912785Y-57575783D01*
X183925140Y-57537758D01*
X183974338Y-57386343D01*
X183974338Y-57386342D01*
X183974339Y-57386339D01*
X184005500Y-57189597D01*
X184005500Y-56990403D01*
X183974339Y-56793661D01*
X183974338Y-56793657D01*
X183974338Y-56793656D01*
X183912786Y-56604219D01*
X183865743Y-56511892D01*
X183822353Y-56426734D01*
X183705269Y-56265582D01*
X183564418Y-56124731D01*
X183403266Y-56007647D01*
X183251827Y-55930485D01*
X183201031Y-55882510D01*
X183184236Y-55814689D01*
X183206773Y-55748554D01*
X183251827Y-55709515D01*
X183267806Y-55701373D01*
X183403266Y-55632353D01*
X183564418Y-55515269D01*
X183705269Y-55374418D01*
X183822353Y-55213266D01*
X183912785Y-55035783D01*
X183974339Y-54846339D01*
X184005500Y-54649597D01*
X184005500Y-54450403D01*
X183974339Y-54253661D01*
X183974338Y-54253657D01*
X183974338Y-54253656D01*
X183912786Y-54064219D01*
X183912785Y-54064217D01*
X183822353Y-53886734D01*
X183705269Y-53725582D01*
X183564418Y-53584731D01*
X183403266Y-53467647D01*
X183324379Y-53427452D01*
X183225780Y-53377213D01*
X183036342Y-53315661D01*
X182888782Y-53292290D01*
X182839597Y-53284500D01*
X182640403Y-53284500D01*
X182574822Y-53294887D01*
X182443659Y-53315661D01*
X182443656Y-53315661D01*
X182254219Y-53377213D01*
X182076733Y-53467647D01*
X181984790Y-53534447D01*
X181915582Y-53584731D01*
X181915580Y-53584733D01*
X181915579Y-53584733D01*
X181774733Y-53725579D01*
X181774733Y-53725580D01*
X181774731Y-53725582D01*
X181720192Y-53800649D01*
X181689817Y-53842456D01*
X181634487Y-53885121D01*
X181564873Y-53891100D01*
X181503078Y-53858494D01*
X181468721Y-53797655D01*
X181465499Y-53769570D01*
X181465499Y-53737129D01*
X181465498Y-53737123D01*
X181465497Y-53737116D01*
X181459091Y-53677517D01*
X181408796Y-53542669D01*
X181408795Y-53542668D01*
X181408793Y-53542664D01*
X181322547Y-53427455D01*
X181322544Y-53427452D01*
X181207335Y-53341206D01*
X181207328Y-53341202D01*
X181072482Y-53290908D01*
X181072483Y-53290908D01*
X181012883Y-53284501D01*
X181012881Y-53284500D01*
X181012873Y-53284500D01*
X181012864Y-53284500D01*
X179387129Y-53284500D01*
X179387123Y-53284501D01*
X179327516Y-53290908D01*
X179192671Y-53341202D01*
X179192664Y-53341206D01*
X179077455Y-53427452D01*
X179077452Y-53427455D01*
X178991206Y-53542664D01*
X178991202Y-53542671D01*
X178940908Y-53677517D01*
X178935741Y-53725580D01*
X178934500Y-53737127D01*
X178934500Y-54450403D01*
X178934501Y-55075500D01*
X178914816Y-55142539D01*
X178862013Y-55188294D01*
X178810501Y-55199500D01*
X178720940Y-55199500D01*
X178680019Y-55210464D01*
X178680019Y-55210465D01*
X178644308Y-55220034D01*
X178568214Y-55240423D01*
X178568209Y-55240426D01*
X178431290Y-55319475D01*
X178431282Y-55319481D01*
X177769481Y-55981282D01*
X177769479Y-55981285D01*
X177763646Y-55991388D01*
X177740324Y-56031784D01*
X177690423Y-56118215D01*
X177649499Y-56270943D01*
X177649499Y-56270945D01*
X177649499Y-56439046D01*
X177649500Y-56439059D01*
X177649500Y-57849902D01*
X177629815Y-57916941D01*
X177613181Y-57937583D01*
X175787584Y-59763181D01*
X175726261Y-59796666D01*
X175699903Y-59799500D01*
X155286670Y-59799500D01*
X155286654Y-59799499D01*
X155279058Y-59799499D01*
X155120943Y-59799499D01*
X155044579Y-59819961D01*
X154968214Y-59840423D01*
X154968209Y-59840426D01*
X154831290Y-59919475D01*
X154831282Y-59919481D01*
X152319482Y-62431281D01*
X152319478Y-62431287D01*
X152270594Y-62515957D01*
X152240424Y-62568212D01*
X152240423Y-62568213D01*
X152227148Y-62617758D01*
X152199499Y-62720943D01*
X152199499Y-62720945D01*
X152199499Y-62889046D01*
X152199500Y-62889059D01*
X152199500Y-69163330D01*
X152199499Y-69163348D01*
X152199499Y-69329054D01*
X152199498Y-69329054D01*
X152236615Y-69467572D01*
X152240423Y-69481785D01*
X152244438Y-69488739D01*
X152250651Y-69499500D01*
X152319477Y-69618712D01*
X152319481Y-69618717D01*
X152438349Y-69737585D01*
X152438355Y-69737590D01*
X153565139Y-70864374D01*
X153565149Y-70864385D01*
X153569479Y-70868715D01*
X153569480Y-70868716D01*
X153681284Y-70980520D01*
X153758340Y-71025008D01*
X153818215Y-71059577D01*
X153970943Y-71100501D01*
X153970946Y-71100501D01*
X154136653Y-71100501D01*
X154136669Y-71100500D01*
X155999903Y-71100500D01*
X156066942Y-71120185D01*
X156087584Y-71136819D01*
X156813584Y-71862819D01*
X156847069Y-71924142D01*
X156842085Y-71993834D01*
X156800213Y-72049767D01*
X156734749Y-72074184D01*
X156725903Y-72074500D01*
X156359298Y-72074500D01*
X156322432Y-72077401D01*
X156322426Y-72077402D01*
X156164606Y-72123254D01*
X156164603Y-72123255D01*
X156023140Y-72206915D01*
X156016974Y-72211699D01*
X156015174Y-72209379D01*
X155965913Y-72236230D01*
X155896225Y-72231193D01*
X155863992Y-72210461D01*
X155862722Y-72212100D01*
X155856552Y-72207314D01*
X155715196Y-72123717D01*
X155715193Y-72123716D01*
X155557494Y-72077900D01*
X155557497Y-72077900D01*
X155555000Y-72077703D01*
X155555000Y-72226000D01*
X155535315Y-72293039D01*
X155482511Y-72338794D01*
X155431000Y-72350000D01*
X155179000Y-72350000D01*
X155111961Y-72330315D01*
X155066206Y-72277511D01*
X155055000Y-72226000D01*
X155055000Y-72077703D01*
X155052503Y-72077900D01*
X154894806Y-72123716D01*
X154894803Y-72123717D01*
X154753447Y-72207314D01*
X154747278Y-72212100D01*
X154745457Y-72209753D01*
X154696358Y-72236564D01*
X154626666Y-72231580D01*
X154593930Y-72210541D01*
X154592722Y-72212100D01*
X154586552Y-72207314D01*
X154445196Y-72123717D01*
X154445193Y-72123716D01*
X154287494Y-72077900D01*
X154287497Y-72077900D01*
X154285000Y-72077703D01*
X154285000Y-72226000D01*
X154265315Y-72293039D01*
X154212511Y-72338794D01*
X154161000Y-72350000D01*
X153909000Y-72350000D01*
X153841961Y-72330315D01*
X153796206Y-72277511D01*
X153785000Y-72226000D01*
X153785000Y-72077703D01*
X153782503Y-72077900D01*
X153624806Y-72123716D01*
X153624803Y-72123717D01*
X153483447Y-72207314D01*
X153483438Y-72207321D01*
X153377079Y-72313681D01*
X153315756Y-72347166D01*
X153289398Y-72350000D01*
X152000000Y-72350000D01*
X152000000Y-84076000D01*
X151993624Y-84097712D01*
X151991827Y-84120273D01*
X151983969Y-84130594D01*
X151980315Y-84143039D01*
X151963214Y-84157856D01*
X151949504Y-84175866D01*
X151930983Y-84185784D01*
X151927511Y-84188794D01*
X151923896Y-84189580D01*
X151918391Y-84192529D01*
X151897854Y-84200000D01*
X151800000Y-84200000D01*
X140400000Y-84200000D01*
X140400000Y-82400000D01*
X138124000Y-82400000D01*
X138056961Y-82380315D01*
X138011206Y-82327511D01*
X138000000Y-82276000D01*
X138000000Y-72000000D01*
X137479501Y-72000000D01*
X137412462Y-71980315D01*
X137380235Y-71950311D01*
X137337194Y-71892817D01*
X137337185Y-71892808D01*
X137222093Y-71806649D01*
X137222086Y-71806645D01*
X137087379Y-71756403D01*
X137087372Y-71756401D01*
X137027844Y-71750000D01*
X136905000Y-71750000D01*
X136905000Y-71876000D01*
X136885315Y-71943039D01*
X136832511Y-71988794D01*
X136781000Y-72000000D01*
X136529000Y-72000000D01*
X136461961Y-71980315D01*
X136416206Y-71927511D01*
X136405000Y-71876000D01*
X136405000Y-71750000D01*
X136282155Y-71750000D01*
X136222627Y-71756401D01*
X136222620Y-71756403D01*
X136152833Y-71782432D01*
X136083141Y-71787416D01*
X136021818Y-71753931D01*
X135988334Y-71692607D01*
X135985500Y-71666250D01*
X135985500Y-69555945D01*
X135985499Y-69555941D01*
X135981341Y-69540423D01*
X135968233Y-69491500D01*
X135944577Y-69403215D01*
X135908187Y-69340186D01*
X135865520Y-69266284D01*
X135753716Y-69154480D01*
X135753715Y-69154479D01*
X135749385Y-69150149D01*
X135749374Y-69150139D01*
X134237590Y-67638355D01*
X134237588Y-67638352D01*
X134118717Y-67519481D01*
X134118716Y-67519480D01*
X134031904Y-67469360D01*
X134031904Y-67469359D01*
X134031900Y-67469358D01*
X133981785Y-67440423D01*
X133829057Y-67399499D01*
X133670943Y-67399499D01*
X133663347Y-67399499D01*
X133663331Y-67399500D01*
X127836670Y-67399500D01*
X127836654Y-67399499D01*
X127829058Y-67399499D01*
X127670943Y-67399499D01*
X127594579Y-67419961D01*
X127518214Y-67440423D01*
X127518209Y-67440426D01*
X127381290Y-67519475D01*
X127381282Y-67519481D01*
X124269481Y-70631282D01*
X124269477Y-70631287D01*
X124227308Y-70704328D01*
X124190424Y-70768211D01*
X124190423Y-70768212D01*
X124165868Y-70859851D01*
X124149499Y-70920943D01*
X124149499Y-70920945D01*
X124149499Y-71089046D01*
X124149500Y-71089059D01*
X124149500Y-86199902D01*
X124129815Y-86266941D01*
X124113181Y-86287583D01*
X123467584Y-86933181D01*
X123406261Y-86966666D01*
X123379903Y-86969500D01*
X122990260Y-86969500D01*
X122923221Y-86949815D01*
X122884534Y-86910293D01*
X122882352Y-86906733D01*
X122765269Y-86745582D01*
X122624418Y-86604731D01*
X122463266Y-86487647D01*
X122311827Y-86410485D01*
X122261031Y-86362510D01*
X122244236Y-86294689D01*
X122266773Y-86228554D01*
X122311827Y-86189515D01*
X122321116Y-86184781D01*
X122463266Y-86112353D01*
X122624418Y-85995269D01*
X122765269Y-85854418D01*
X122882353Y-85693266D01*
X122972785Y-85515783D01*
X122980827Y-85491031D01*
X123034338Y-85326343D01*
X123034338Y-85326342D01*
X123034339Y-85326339D01*
X123065500Y-85129597D01*
X123065500Y-84930403D01*
X123034339Y-84733661D01*
X123034338Y-84733657D01*
X123034338Y-84733656D01*
X122972786Y-84544219D01*
X122882352Y-84366733D01*
X122765269Y-84205582D01*
X122624418Y-84064731D01*
X122463266Y-83947647D01*
X122311827Y-83870485D01*
X122261031Y-83822510D01*
X122244236Y-83754689D01*
X122266773Y-83688554D01*
X122311827Y-83649515D01*
X122321116Y-83644781D01*
X122463266Y-83572353D01*
X122624418Y-83455269D01*
X122765269Y-83314418D01*
X122882353Y-83153266D01*
X122972785Y-82975783D01*
X122985140Y-82937758D01*
X123034338Y-82786343D01*
X123034338Y-82786342D01*
X123034339Y-82786339D01*
X123065500Y-82589597D01*
X123065500Y-82390403D01*
X123034339Y-82193661D01*
X123034338Y-82193657D01*
X123034338Y-82193656D01*
X122972786Y-82004219D01*
X122882352Y-81826733D01*
X122765269Y-81665582D01*
X122624418Y-81524731D01*
X122463266Y-81407647D01*
X122399499Y-81375156D01*
X122311277Y-81330204D01*
X122260481Y-81282229D01*
X122243686Y-81214408D01*
X122266224Y-81148273D01*
X122311277Y-81109234D01*
X122463005Y-81031924D01*
X122500863Y-81004418D01*
X122500863Y-81004417D01*
X121937574Y-80441128D01*
X121996853Y-80425245D01*
X122113147Y-80358102D01*
X122208102Y-80263147D01*
X122275245Y-80146853D01*
X122291128Y-80087574D01*
X122854417Y-80650863D01*
X122854418Y-80650863D01*
X122881924Y-80613005D01*
X122972320Y-80435594D01*
X123033852Y-80246222D01*
X123065000Y-80049563D01*
X123065000Y-79850436D01*
X123033852Y-79653777D01*
X122972320Y-79464405D01*
X122881924Y-79286994D01*
X122854417Y-79249135D01*
X122854417Y-79249134D01*
X122291128Y-79812424D01*
X122275245Y-79753147D01*
X122208102Y-79636853D01*
X122113147Y-79541898D01*
X121996853Y-79474755D01*
X121937572Y-79458871D01*
X122500864Y-78895580D01*
X122463008Y-78868077D01*
X122310727Y-78790485D01*
X122259931Y-78742510D01*
X122243136Y-78674689D01*
X122265674Y-78608554D01*
X122310727Y-78569515D01*
X122463005Y-78491924D01*
X122500863Y-78464418D01*
X122500863Y-78464417D01*
X121937574Y-77901128D01*
X121996853Y-77885245D01*
X122113147Y-77818102D01*
X122208102Y-77723147D01*
X122275245Y-77606853D01*
X122291128Y-77547574D01*
X122854417Y-78110863D01*
X122854418Y-78110863D01*
X122881924Y-78073005D01*
X122972320Y-77895594D01*
X123033852Y-77706222D01*
X123065000Y-77509563D01*
X123065000Y-77310436D01*
X123033852Y-77113777D01*
X122972320Y-76924405D01*
X122881924Y-76746994D01*
X122854417Y-76709135D01*
X122854417Y-76709134D01*
X122291128Y-77272424D01*
X122275245Y-77213147D01*
X122208102Y-77096853D01*
X122113147Y-77001898D01*
X121996853Y-76934755D01*
X121937572Y-76918871D01*
X122500864Y-76355580D01*
X122463008Y-76328077D01*
X122311277Y-76250765D01*
X122260481Y-76202790D01*
X122243686Y-76134969D01*
X122266224Y-76068834D01*
X122311277Y-76029795D01*
X122311827Y-76029515D01*
X122463266Y-75952353D01*
X122624418Y-75835269D01*
X122765269Y-75694418D01*
X122882353Y-75533266D01*
X122972785Y-75355783D01*
X122980827Y-75331031D01*
X123034338Y-75166343D01*
X123034338Y-75166342D01*
X123034339Y-75166339D01*
X123065500Y-74969597D01*
X123065500Y-74770403D01*
X123034339Y-74573661D01*
X123034338Y-74573657D01*
X123034338Y-74573656D01*
X122972786Y-74384219D01*
X122882352Y-74206733D01*
X122765269Y-74045582D01*
X122624418Y-73904731D01*
X122463266Y-73787647D01*
X122311827Y-73710485D01*
X122261031Y-73662510D01*
X122244236Y-73594689D01*
X122266773Y-73528554D01*
X122311827Y-73489515D01*
X122333612Y-73478415D01*
X122463266Y-73412353D01*
X122624418Y-73295269D01*
X122765269Y-73154418D01*
X122882353Y-72993266D01*
X122972785Y-72815783D01*
X122985140Y-72777758D01*
X123034338Y-72626343D01*
X123034338Y-72626342D01*
X123034339Y-72626339D01*
X123065500Y-72429597D01*
X123065500Y-72230403D01*
X123034339Y-72033661D01*
X123034338Y-72033657D01*
X123034338Y-72033656D01*
X122972786Y-71844219D01*
X122931580Y-71763348D01*
X122882353Y-71666734D01*
X122765269Y-71505582D01*
X122624418Y-71364731D01*
X122463266Y-71247647D01*
X122311827Y-71170485D01*
X122261031Y-71122510D01*
X122244236Y-71054689D01*
X122266773Y-70988554D01*
X122311827Y-70949515D01*
X122335849Y-70937275D01*
X122463266Y-70872353D01*
X122624418Y-70755269D01*
X122765269Y-70614418D01*
X122882353Y-70453266D01*
X122972785Y-70275783D01*
X122981162Y-70250000D01*
X123034338Y-70086343D01*
X123034338Y-70086342D01*
X123034339Y-70086339D01*
X123065500Y-69889597D01*
X123065500Y-69690403D01*
X123034339Y-69493661D01*
X122990091Y-69357482D01*
X122988097Y-69287642D01*
X123024177Y-69227809D01*
X123083830Y-69197548D01*
X123204328Y-69173580D01*
X123274942Y-69144331D01*
X123331807Y-69120777D01*
X123331808Y-69120776D01*
X123331811Y-69120775D01*
X123446543Y-69044114D01*
X126503838Y-65986819D01*
X126565161Y-65953334D01*
X126591519Y-65950500D01*
X127675500Y-65950500D01*
X127684185Y-65953050D01*
X127693147Y-65951762D01*
X127717187Y-65962740D01*
X127742539Y-65970185D01*
X127748466Y-65977025D01*
X127756703Y-65980787D01*
X127770992Y-66003021D01*
X127788294Y-66022989D01*
X127790581Y-66033503D01*
X127794477Y-66039565D01*
X127799500Y-66074500D01*
X127799500Y-66105342D01*
X127790062Y-66152793D01*
X127778341Y-66181090D01*
X127778340Y-66181093D01*
X127749500Y-66326079D01*
X127749500Y-66326082D01*
X127749500Y-66473918D01*
X127749500Y-66473920D01*
X127749499Y-66473920D01*
X127778340Y-66618907D01*
X127778343Y-66618917D01*
X127834912Y-66755488D01*
X127834919Y-66755501D01*
X127917048Y-66878415D01*
X127917051Y-66878419D01*
X128021580Y-66982948D01*
X128021584Y-66982951D01*
X128144498Y-67065080D01*
X128144511Y-67065087D01*
X128271560Y-67117712D01*
X128281087Y-67121658D01*
X128281091Y-67121658D01*
X128281092Y-67121659D01*
X128426079Y-67150500D01*
X128426082Y-67150500D01*
X128573920Y-67150500D01*
X128671462Y-67131096D01*
X128718913Y-67121658D01*
X128855495Y-67065084D01*
X128978416Y-66982951D01*
X129082951Y-66878416D01*
X129165084Y-66755495D01*
X129221658Y-66618913D01*
X129250500Y-66473918D01*
X129250500Y-66326082D01*
X129250500Y-66326079D01*
X129221659Y-66181093D01*
X129221658Y-66181087D01*
X129209937Y-66152790D01*
X129208311Y-66144616D01*
X129205523Y-66140277D01*
X129200500Y-66105342D01*
X129200500Y-66074500D01*
X129220185Y-66007461D01*
X129272989Y-65961706D01*
X129324500Y-65950500D01*
X131873920Y-65950500D01*
X131971462Y-65931096D01*
X132018913Y-65921658D01*
X132155495Y-65865084D01*
X132278416Y-65782951D01*
X132382951Y-65678416D01*
X132465084Y-65555495D01*
X132521658Y-65418913D01*
X132532067Y-65366587D01*
X132550500Y-65273920D01*
X132550500Y-65126079D01*
X132521659Y-64981092D01*
X132521658Y-64981091D01*
X132521658Y-64981087D01*
X132506435Y-64944336D01*
X132465087Y-64844511D01*
X132465080Y-64844498D01*
X132382951Y-64721584D01*
X132382948Y-64721580D01*
X132278419Y-64617051D01*
X132278415Y-64617048D01*
X132155501Y-64534919D01*
X132155488Y-64534912D01*
X132018917Y-64478343D01*
X132018907Y-64478340D01*
X131873920Y-64449500D01*
X131873918Y-64449500D01*
X131726082Y-64449500D01*
X131726080Y-64449500D01*
X131581092Y-64478340D01*
X131581086Y-64478342D01*
X131438878Y-64537247D01*
X131438520Y-64536385D01*
X131386160Y-64549500D01*
X128881004Y-64549500D01*
X128745677Y-64576418D01*
X128745667Y-64576421D01*
X128618192Y-64629223D01*
X128568890Y-64662165D01*
X128502212Y-64683042D01*
X128434832Y-64664557D01*
X128431110Y-64662165D01*
X128414684Y-64651190D01*
X128381811Y-64629225D01*
X128381808Y-64629223D01*
X128381807Y-64629223D01*
X128254332Y-64576421D01*
X128254322Y-64576418D01*
X128118996Y-64549500D01*
X128118994Y-64549500D01*
X128118993Y-64549500D01*
X126318994Y-64549500D01*
X126181006Y-64549500D01*
X126181004Y-64549500D01*
X126045677Y-64576418D01*
X126045667Y-64576421D01*
X125918192Y-64629222D01*
X125803454Y-64705887D01*
X123277104Y-67232237D01*
X123215781Y-67265722D01*
X123146089Y-67260738D01*
X123090156Y-67218866D01*
X123065806Y-67154288D01*
X123065500Y-67150406D01*
X123060947Y-67121658D01*
X123034339Y-66953661D01*
X123034338Y-66953657D01*
X123034338Y-66953656D01*
X122972786Y-66764219D01*
X122882352Y-66586733D01*
X122765269Y-66425582D01*
X122624418Y-66284731D01*
X122463266Y-66167647D01*
X122389391Y-66130006D01*
X122311827Y-66090485D01*
X122261031Y-66042510D01*
X122244236Y-65974689D01*
X122266773Y-65908554D01*
X122311827Y-65869515D01*
X122321116Y-65864781D01*
X122463266Y-65792353D01*
X122624418Y-65675269D01*
X122765269Y-65534418D01*
X122882353Y-65373266D01*
X122972785Y-65195783D01*
X122986220Y-65154435D01*
X123034338Y-65006343D01*
X123034338Y-65006342D01*
X123034339Y-65006339D01*
X123065500Y-64809597D01*
X123065500Y-64610403D01*
X123034339Y-64413661D01*
X123034338Y-64413657D01*
X123034338Y-64413656D01*
X122972786Y-64224219D01*
X122898497Y-64078419D01*
X122882353Y-64046734D01*
X122765269Y-63885582D01*
X122624418Y-63744731D01*
X122463266Y-63627647D01*
X122314113Y-63551650D01*
X122311827Y-63550485D01*
X122261031Y-63502510D01*
X122244236Y-63434689D01*
X122266773Y-63368554D01*
X122311827Y-63329515D01*
X122321116Y-63324781D01*
X122463266Y-63252353D01*
X122624418Y-63135269D01*
X122765269Y-62994418D01*
X122882353Y-62833266D01*
X122972785Y-62655783D01*
X122985140Y-62617758D01*
X123034338Y-62466343D01*
X123034338Y-62466342D01*
X123034339Y-62466339D01*
X123065500Y-62269597D01*
X123065500Y-62070403D01*
X123034339Y-61873661D01*
X123034338Y-61873657D01*
X123034338Y-61873656D01*
X122972786Y-61684219D01*
X122882352Y-61506733D01*
X122765269Y-61345582D01*
X122624418Y-61204731D01*
X122463266Y-61087647D01*
X122311827Y-61010485D01*
X122261031Y-60962510D01*
X122244236Y-60894689D01*
X122266773Y-60828554D01*
X122311827Y-60789515D01*
X122321116Y-60784781D01*
X122463266Y-60712353D01*
X122624418Y-60595269D01*
X122765269Y-60454418D01*
X122882353Y-60293266D01*
X122972785Y-60115783D01*
X122980827Y-60091031D01*
X123034338Y-59926343D01*
X123034338Y-59926342D01*
X123034339Y-59926339D01*
X123065500Y-59729597D01*
X123065500Y-59530403D01*
X123034339Y-59333661D01*
X123034338Y-59333657D01*
X123034338Y-59333656D01*
X122972786Y-59144219D01*
X122942964Y-59085690D01*
X122882353Y-58966734D01*
X122765269Y-58805582D01*
X122624418Y-58664731D01*
X122463266Y-58547647D01*
X122311827Y-58470485D01*
X122261031Y-58422510D01*
X122244236Y-58354689D01*
X122266773Y-58288554D01*
X122311827Y-58249515D01*
X122351428Y-58229337D01*
X122463266Y-58172353D01*
X122624418Y-58055269D01*
X122765269Y-57914418D01*
X122882353Y-57753266D01*
X122972785Y-57575783D01*
X122985140Y-57537758D01*
X123034338Y-57386343D01*
X123034338Y-57386342D01*
X123034339Y-57386339D01*
X123065500Y-57189597D01*
X123065500Y-56990403D01*
X123034339Y-56793661D01*
X123034338Y-56793657D01*
X123034338Y-56793656D01*
X122972786Y-56604219D01*
X122925743Y-56511892D01*
X122882353Y-56426734D01*
X122765269Y-56265582D01*
X122624418Y-56124731D01*
X122463266Y-56007647D01*
X122311827Y-55930485D01*
X122261031Y-55882510D01*
X122244236Y-55814689D01*
X122266773Y-55748554D01*
X122311827Y-55709515D01*
X122327806Y-55701373D01*
X122463266Y-55632353D01*
X122624418Y-55515269D01*
X122669003Y-55470684D01*
X125049500Y-55470684D01*
X125049500Y-55709315D01*
X125049501Y-55709332D01*
X125074697Y-55900720D01*
X125080649Y-55945924D01*
X125105808Y-56039817D01*
X125142415Y-56176436D01*
X125233734Y-56396902D01*
X125233740Y-56396914D01*
X125353062Y-56603586D01*
X125353064Y-56603589D01*
X125353065Y-56603590D01*
X125498337Y-56792912D01*
X125498343Y-56792919D01*
X125667080Y-56961656D01*
X125667086Y-56961661D01*
X125856414Y-57106938D01*
X126063086Y-57226260D01*
X126063091Y-57226262D01*
X126063097Y-57226265D01*
X126158109Y-57265620D01*
X126283564Y-57317585D01*
X126514076Y-57379351D01*
X126750678Y-57410500D01*
X126750685Y-57410500D01*
X126989315Y-57410500D01*
X126989322Y-57410500D01*
X127225924Y-57379351D01*
X127456436Y-57317585D01*
X127676914Y-57226260D01*
X127883586Y-57106938D01*
X128072914Y-56961661D01*
X128241661Y-56792914D01*
X128386938Y-56603586D01*
X128506260Y-56396914D01*
X128597585Y-56176436D01*
X128659351Y-55945924D01*
X128690500Y-55709322D01*
X128690500Y-55470678D01*
X128659351Y-55234076D01*
X128597585Y-55003564D01*
X128506260Y-54783086D01*
X128386938Y-54576414D01*
X128241661Y-54387086D01*
X128241656Y-54387080D01*
X128072919Y-54218343D01*
X128072912Y-54218337D01*
X127883590Y-54073065D01*
X127883589Y-54073064D01*
X127883586Y-54073062D01*
X127676914Y-53953740D01*
X127676902Y-53953734D01*
X127456436Y-53862415D01*
X127225920Y-53800648D01*
X126989332Y-53769501D01*
X126989327Y-53769500D01*
X126989322Y-53769500D01*
X126750678Y-53769500D01*
X126750672Y-53769500D01*
X126750667Y-53769501D01*
X126514079Y-53800648D01*
X126283563Y-53862415D01*
X126063097Y-53953734D01*
X126063083Y-53953741D01*
X125856409Y-54073065D01*
X125667087Y-54218337D01*
X125667080Y-54218343D01*
X125498343Y-54387080D01*
X125498337Y-54387087D01*
X125353065Y-54576409D01*
X125233741Y-54783083D01*
X125233734Y-54783097D01*
X125142415Y-55003563D01*
X125080648Y-55234079D01*
X125049501Y-55470667D01*
X125049500Y-55470684D01*
X122669003Y-55470684D01*
X122765269Y-55374418D01*
X122882353Y-55213266D01*
X122972785Y-55035783D01*
X123034339Y-54846339D01*
X123065500Y-54649597D01*
X123065500Y-54450403D01*
X123034339Y-54253661D01*
X123034338Y-54253657D01*
X123034338Y-54253656D01*
X122972786Y-54064219D01*
X122972785Y-54064217D01*
X122882353Y-53886734D01*
X122765269Y-53725582D01*
X122624418Y-53584731D01*
X122463266Y-53467647D01*
X122384379Y-53427452D01*
X122285780Y-53377213D01*
X122096342Y-53315661D01*
X121948782Y-53292290D01*
X121899597Y-53284500D01*
X121700403Y-53284500D01*
X121634822Y-53294887D01*
X121503659Y-53315661D01*
X121503656Y-53315661D01*
X121314219Y-53377213D01*
X121136733Y-53467647D01*
X121044790Y-53534447D01*
X120975582Y-53584731D01*
X120975580Y-53584733D01*
X120975579Y-53584733D01*
X120834733Y-53725579D01*
X120834733Y-53725580D01*
X120834731Y-53725582D01*
X120780192Y-53800649D01*
X120749817Y-53842456D01*
X120694487Y-53885121D01*
X120624873Y-53891100D01*
X120563078Y-53858494D01*
X120528721Y-53797655D01*
X120525499Y-53769570D01*
X120525499Y-53737129D01*
X120525498Y-53737123D01*
X120525497Y-53737116D01*
X120519091Y-53677517D01*
X120468796Y-53542669D01*
X120468795Y-53542668D01*
X120468793Y-53542664D01*
X120382547Y-53427455D01*
X120382544Y-53427452D01*
X120267335Y-53341206D01*
X120267328Y-53341202D01*
X120132482Y-53290908D01*
X120132483Y-53290908D01*
X120072883Y-53284501D01*
X120072881Y-53284500D01*
X120072873Y-53284500D01*
X120072864Y-53284500D01*
X118447129Y-53284500D01*
X118447123Y-53284501D01*
X118387516Y-53290908D01*
X118252671Y-53341202D01*
X118252664Y-53341206D01*
X118137455Y-53427452D01*
X118137452Y-53427455D01*
X118051206Y-53542664D01*
X118051202Y-53542671D01*
X118000908Y-53677517D01*
X117995741Y-53725580D01*
X117994501Y-53737123D01*
X117994500Y-53737135D01*
X116200500Y-53737135D01*
X116200500Y-51506092D01*
X116201097Y-51493939D01*
X116209805Y-51405519D01*
X116214665Y-51356171D01*
X116219403Y-51332349D01*
X116257816Y-51205719D01*
X116267113Y-51183278D01*
X116329485Y-51066587D01*
X116342982Y-51046387D01*
X116426924Y-50944103D01*
X116444103Y-50926924D01*
X116546387Y-50842982D01*
X116566587Y-50829485D01*
X116683278Y-50767113D01*
X116705719Y-50757816D01*
X116832349Y-50719403D01*
X116856173Y-50714665D01*
X116985170Y-50701960D01*
X116993939Y-50701097D01*
X117006092Y-50700500D01*
X117039882Y-50700500D01*
X134960118Y-50700500D01*
X134993908Y-50700500D01*
X135006061Y-50701097D01*
G37*
%TD.AperFunction*%
%TD*%
M02*
