M48
; DRILL file {KiCad 9.0.7-9.0.7~ubuntu24.04.1} date 2026-01-13T16:36:17+0100
; FORMAT={-:-/ absolute / metric / decimal}
; #@! TF.CreationDate,2026-01-13T16:36:17+01:00
; #@! TF.GenerationSoftware,Kicad,Pcbnew,9.0.7-9.0.7~ubuntu24.04.1
; #@! TF.FileFunction,Plated,1,4,PTH
FMAT,2
METRIC
; #@! TA.AperFunction,Plated,PTH,ViaDrill
T1C0.300
; #@! TA.AperFunction,Plated,PTH,ComponentDrill
T2C1.020
; #@! TA.AperFunction,Plated,PTH,ComponentDrill
T3C1.100
%
G90
G05
T1
X128.1Y-77.1
X130.45Y-78.0
X130.55Y-72.85
X134.225Y-61.475
X136.225Y-61.475
X138.475Y-89.415
X138.612Y-73.1
X138.725Y-81.915
X138.8Y-80.3
X139.3Y-90.6
X141.55Y-64.695
X141.55Y-71.95
X144.0Y-102.415
X144.338Y-62.4
X146.725Y-63.075
X148.2Y-79.35
X148.725Y-63.05
X151.0Y-81.4
X158.0Y-83.9
X158.39Y-95.034
X158.39Y-97.034
X159.615Y-83.284
X159.615Y-85.284
X160.5Y-102.415
X161.5Y-90.444
X166.065Y-102.009
X167.25Y-78.809
X169.25Y-90.194
X170.7Y-93.4
X172.615Y-102.309
X173.865Y-78.659
X174.5Y-100.3
T2
X119.26Y-52.56
X119.26Y-55.1
X119.26Y-57.64
X119.26Y-60.18
X119.26Y-62.72
X119.26Y-65.26
X119.26Y-67.8
X119.26Y-70.34
X119.26Y-72.88
X119.26Y-75.42
X119.26Y-77.96
X119.26Y-80.5
X119.26Y-83.04
X119.26Y-85.58
X119.26Y-88.12
X119.26Y-90.66
X119.26Y-93.2
X119.26Y-95.74
X119.26Y-98.28
X119.26Y-100.82
X119.26Y-103.36
X119.26Y-105.9
X119.26Y-108.44
X121.8Y-52.56
X121.8Y-55.1
X121.8Y-57.64
X121.8Y-60.18
X121.8Y-62.72
X121.8Y-65.26
X121.8Y-67.8
X121.8Y-70.34
X121.8Y-72.88
X121.8Y-75.42
X121.8Y-77.96
X121.8Y-80.5
X121.8Y-83.04
X121.8Y-85.58
X121.8Y-88.12
X121.8Y-90.66
X121.8Y-93.2
X121.8Y-95.74
X121.8Y-98.28
X121.8Y-100.82
X121.8Y-103.36
X121.8Y-105.9
X121.8Y-108.44
X180.2Y-52.56
X180.2Y-55.1
X180.2Y-57.64
X180.2Y-60.18
X180.2Y-62.72
X180.2Y-65.26
X180.2Y-67.8
X180.2Y-70.34
X180.2Y-72.88
X180.2Y-75.42
X180.2Y-77.96
X180.2Y-80.5
X180.2Y-83.04
X180.2Y-85.58
X180.2Y-88.12
X180.2Y-90.66
X180.2Y-93.2
X180.2Y-95.74
X180.2Y-98.28
X180.2Y-100.82
X180.2Y-103.36
X180.2Y-105.9
X180.2Y-108.44
X182.74Y-52.56
X182.74Y-55.1
X182.74Y-57.64
X182.74Y-60.18
X182.74Y-62.72
X182.74Y-65.26
X182.74Y-67.8
X182.74Y-70.34
X182.74Y-72.88
X182.74Y-75.42
X182.74Y-77.96
X182.74Y-80.5
X182.74Y-83.04
X182.74Y-85.58
X182.74Y-88.12
X182.74Y-90.66
X182.74Y-93.2
X182.74Y-95.74
X182.74Y-98.28
X182.74Y-100.82
X182.74Y-103.36
X182.74Y-105.9
X182.74Y-108.44
T3
X133.48Y-109.5
X136.02Y-109.5
X150.96Y-109.415
X153.5Y-109.415
M30
