%TF.GenerationSoftware,KiCad,Pcbnew,9.0.7-9.0.7~ubuntu24.04.1*%
%TF.CreationDate,2026-01-13T16:36:12+01:00*%
%TF.ProjectId,analogIO,616e616c-6f67-4494-9f2e-6b696361645f,1.0*%
%TF.SameCoordinates,Original*%
%TF.FileFunction,Soldermask,Bot*%
%TF.FilePolarity,Negative*%
%FSLAX46Y46*%
G04 Gerber Fmt 4.6, Leading zero omitted, Abs format (unit mm)*
G04 Created by KiCad (PCBNEW 9.0.7-9.0.7~ubuntu24.04.1) date 2026-01-13 16:36:12*
%MOMM*%
%LPD*%
G01*
G04 APERTURE LIST*
G04 APERTURE END LIST*
G36*
X133690476Y-111531866D02*
G01*
X133814819Y-111603656D01*
X133916344Y-111705181D01*
X133988134Y-111829524D01*
X134025295Y-111968211D01*
X134025295Y-112111789D01*
X133988134Y-112250476D01*
X133916344Y-112374819D01*
X133814819Y-112476344D01*
X133690476Y-112548134D01*
X133551789Y-112585295D01*
X133408211Y-112585295D01*
X133269524Y-112548134D01*
X133145181Y-112476344D01*
X133043656Y-112374819D01*
X132971866Y-112250476D01*
X132934705Y-112111789D01*
X132934705Y-111968211D01*
X132971866Y-111829524D01*
X133043656Y-111705181D01*
X133145181Y-111603656D01*
X133269524Y-111531866D01*
X133408211Y-111494705D01*
X133551789Y-111494705D01*
X133690476Y-111531866D01*
G37*
G36*
X136230476Y-111531866D02*
G01*
X136354819Y-111603656D01*
X136456344Y-111705181D01*
X136528134Y-111829524D01*
X136565295Y-111968211D01*
X136565295Y-112111789D01*
X136528134Y-112250476D01*
X136456344Y-112374819D01*
X136354819Y-112476344D01*
X136230476Y-112548134D01*
X136091789Y-112585295D01*
X135948211Y-112585295D01*
X135809524Y-112548134D01*
X135685181Y-112476344D01*
X135583656Y-112374819D01*
X135511866Y-112250476D01*
X135474705Y-112111789D01*
X135474705Y-111968211D01*
X135511866Y-111829524D01*
X135583656Y-111705181D01*
X135685181Y-111603656D01*
X135809524Y-111531866D01*
X135948211Y-111494705D01*
X136091789Y-111494705D01*
X136230476Y-111531866D01*
G37*
G36*
X151170476Y-111446866D02*
G01*
X151294819Y-111518656D01*
X151396344Y-111620181D01*
X151468134Y-111744524D01*
X151505295Y-111883211D01*
X151505295Y-112026789D01*
X151468134Y-112165476D01*
X151396344Y-112289819D01*
X151294819Y-112391344D01*
X151170476Y-112463134D01*
X151031789Y-112500295D01*
X150888211Y-112500295D01*
X150749524Y-112463134D01*
X150625181Y-112391344D01*
X150523656Y-112289819D01*
X150451866Y-112165476D01*
X150414705Y-112026789D01*
X150414705Y-111883211D01*
X150451866Y-111744524D01*
X150523656Y-111620181D01*
X150625181Y-111518656D01*
X150749524Y-111446866D01*
X150888211Y-111409705D01*
X151031789Y-111409705D01*
X151170476Y-111446866D01*
G37*
G36*
X153710476Y-111446866D02*
G01*
X153834819Y-111518656D01*
X153936344Y-111620181D01*
X154008134Y-111744524D01*
X154045295Y-111883211D01*
X154045295Y-112026789D01*
X154008134Y-112165476D01*
X153936344Y-112289819D01*
X153834819Y-112391344D01*
X153710476Y-112463134D01*
X153571789Y-112500295D01*
X153428211Y-112500295D01*
X153289524Y-112463134D01*
X153165181Y-112391344D01*
X153063656Y-112289819D01*
X152991866Y-112165476D01*
X152954705Y-112026789D01*
X152954705Y-111883211D01*
X152991866Y-111744524D01*
X153063656Y-111620181D01*
X153165181Y-111518656D01*
X153289524Y-111446866D01*
X153428211Y-111409705D01*
X153571789Y-111409705D01*
X153710476Y-111446866D01*
G37*
G36*
X134305000Y-110325000D02*
G01*
X132655000Y-110325000D01*
X132655000Y-108675000D01*
X134305000Y-108675000D01*
X134305000Y-110325000D01*
G37*
G36*
X136259485Y-108710524D02*
G01*
X136408902Y-108772415D01*
X136543374Y-108862266D01*
X136657734Y-108976626D01*
X136747585Y-109111098D01*
X136809476Y-109260515D01*
X136841027Y-109419136D01*
X136841027Y-109580864D01*
X136809476Y-109739485D01*
X136747585Y-109888902D01*
X136657734Y-110023374D01*
X136543374Y-110137734D01*
X136408902Y-110227585D01*
X136259485Y-110289476D01*
X136100864Y-110321027D01*
X135939136Y-110321027D01*
X135780515Y-110289476D01*
X135631098Y-110227585D01*
X135496626Y-110137734D01*
X135382266Y-110023374D01*
X135292415Y-109888902D01*
X135230524Y-109739485D01*
X135198973Y-109580864D01*
X135198973Y-109419136D01*
X135230524Y-109260515D01*
X135292415Y-109111098D01*
X135382266Y-108976626D01*
X135496626Y-108862266D01*
X135631098Y-108772415D01*
X135780515Y-108710524D01*
X135939136Y-108678973D01*
X136100864Y-108678973D01*
X136259485Y-108710524D01*
G37*
G36*
X151785000Y-110240000D02*
G01*
X150135000Y-110240000D01*
X150135000Y-108590000D01*
X151785000Y-108590000D01*
X151785000Y-110240000D01*
G37*
G36*
X153739485Y-108625524D02*
G01*
X153888902Y-108687415D01*
X154023374Y-108777266D01*
X154137734Y-108891626D01*
X154227585Y-109026098D01*
X154289476Y-109175515D01*
X154321027Y-109334136D01*
X154321027Y-109495864D01*
X154289476Y-109654485D01*
X154227585Y-109803902D01*
X154137734Y-109938374D01*
X154023374Y-110052734D01*
X153888902Y-110142585D01*
X153739485Y-110204476D01*
X153580864Y-110236027D01*
X153419136Y-110236027D01*
X153260515Y-110204476D01*
X153111098Y-110142585D01*
X152976626Y-110052734D01*
X152862266Y-109938374D01*
X152772415Y-109803902D01*
X152710524Y-109654485D01*
X152678973Y-109495864D01*
X152678973Y-109334136D01*
X152710524Y-109175515D01*
X152772415Y-109026098D01*
X152862266Y-108891626D01*
X152976626Y-108777266D01*
X153111098Y-108687415D01*
X153260515Y-108625524D01*
X153419136Y-108593973D01*
X153580864Y-108593973D01*
X153739485Y-108625524D01*
G37*
G36*
X119482068Y-107707941D02*
G01*
X119620619Y-107765330D01*
X119745311Y-107848647D01*
X119851353Y-107954689D01*
X119934670Y-108079381D01*
X119992059Y-108217932D01*
X120021316Y-108365017D01*
X120021316Y-108514983D01*
X119992059Y-108662068D01*
X119934670Y-108800619D01*
X119851353Y-108925311D01*
X119745311Y-109031353D01*
X119620619Y-109114670D01*
X119482068Y-109172059D01*
X119334983Y-109201316D01*
X119185017Y-109201316D01*
X119037932Y-109172059D01*
X118899381Y-109114670D01*
X118774689Y-109031353D01*
X118668647Y-108925311D01*
X118585330Y-108800619D01*
X118527941Y-108662068D01*
X118498684Y-108514983D01*
X118498684Y-108365017D01*
X118527941Y-108217932D01*
X118585330Y-108079381D01*
X118668647Y-107954689D01*
X118774689Y-107848647D01*
X118899381Y-107765330D01*
X119037932Y-107707941D01*
X119185017Y-107678684D01*
X119334983Y-107678684D01*
X119482068Y-107707941D01*
G37*
G36*
X122022068Y-107707941D02*
G01*
X122160619Y-107765330D01*
X122285311Y-107848647D01*
X122391353Y-107954689D01*
X122474670Y-108079381D01*
X122532059Y-108217932D01*
X122561316Y-108365017D01*
X122561316Y-108514983D01*
X122532059Y-108662068D01*
X122474670Y-108800619D01*
X122391353Y-108925311D01*
X122285311Y-109031353D01*
X122160619Y-109114670D01*
X122022068Y-109172059D01*
X121874983Y-109201316D01*
X121725017Y-109201316D01*
X121577932Y-109172059D01*
X121439381Y-109114670D01*
X121314689Y-109031353D01*
X121208647Y-108925311D01*
X121125330Y-108800619D01*
X121067941Y-108662068D01*
X121038684Y-108514983D01*
X121038684Y-108365017D01*
X121067941Y-108217932D01*
X121125330Y-108079381D01*
X121208647Y-107954689D01*
X121314689Y-107848647D01*
X121439381Y-107765330D01*
X121577932Y-107707941D01*
X121725017Y-107678684D01*
X121874983Y-107678684D01*
X122022068Y-107707941D01*
G37*
G36*
X180422068Y-107707941D02*
G01*
X180560619Y-107765330D01*
X180685311Y-107848647D01*
X180791353Y-107954689D01*
X180874670Y-108079381D01*
X180932059Y-108217932D01*
X180961316Y-108365017D01*
X180961316Y-108514983D01*
X180932059Y-108662068D01*
X180874670Y-108800619D01*
X180791353Y-108925311D01*
X180685311Y-109031353D01*
X180560619Y-109114670D01*
X180422068Y-109172059D01*
X180274983Y-109201316D01*
X180125017Y-109201316D01*
X179977932Y-109172059D01*
X179839381Y-109114670D01*
X179714689Y-109031353D01*
X179608647Y-108925311D01*
X179525330Y-108800619D01*
X179467941Y-108662068D01*
X179438684Y-108514983D01*
X179438684Y-108365017D01*
X179467941Y-108217932D01*
X179525330Y-108079381D01*
X179608647Y-107954689D01*
X179714689Y-107848647D01*
X179839381Y-107765330D01*
X179977932Y-107707941D01*
X180125017Y-107678684D01*
X180274983Y-107678684D01*
X180422068Y-107707941D01*
G37*
G36*
X182962068Y-107707941D02*
G01*
X183100619Y-107765330D01*
X183225311Y-107848647D01*
X183331353Y-107954689D01*
X183414670Y-108079381D01*
X183472059Y-108217932D01*
X183501316Y-108365017D01*
X183501316Y-108514983D01*
X183472059Y-108662068D01*
X183414670Y-108800619D01*
X183331353Y-108925311D01*
X183225311Y-109031353D01*
X183100619Y-109114670D01*
X182962068Y-109172059D01*
X182814983Y-109201316D01*
X182665017Y-109201316D01*
X182517932Y-109172059D01*
X182379381Y-109114670D01*
X182254689Y-109031353D01*
X182148647Y-108925311D01*
X182065330Y-108800619D01*
X182007941Y-108662068D01*
X181978684Y-108514983D01*
X181978684Y-108365017D01*
X182007941Y-108217932D01*
X182065330Y-108079381D01*
X182148647Y-107954689D01*
X182254689Y-107848647D01*
X182379381Y-107765330D01*
X182517932Y-107707941D01*
X182665017Y-107678684D01*
X182814983Y-107678684D01*
X182962068Y-107707941D01*
G37*
G36*
X119482068Y-105167941D02*
G01*
X119620619Y-105225330D01*
X119745311Y-105308647D01*
X119851353Y-105414689D01*
X119934670Y-105539381D01*
X119992059Y-105677932D01*
X120021316Y-105825017D01*
X120021316Y-105974983D01*
X119992059Y-106122068D01*
X119934670Y-106260619D01*
X119851353Y-106385311D01*
X119745311Y-106491353D01*
X119620619Y-106574670D01*
X119482068Y-106632059D01*
X119334983Y-106661316D01*
X119185017Y-106661316D01*
X119037932Y-106632059D01*
X118899381Y-106574670D01*
X118774689Y-106491353D01*
X118668647Y-106385311D01*
X118585330Y-106260619D01*
X118527941Y-106122068D01*
X118498684Y-105974983D01*
X118498684Y-105825017D01*
X118527941Y-105677932D01*
X118585330Y-105539381D01*
X118668647Y-105414689D01*
X118774689Y-105308647D01*
X118899381Y-105225330D01*
X119037932Y-105167941D01*
X119185017Y-105138684D01*
X119334983Y-105138684D01*
X119482068Y-105167941D01*
G37*
G36*
X122022068Y-105167941D02*
G01*
X122160619Y-105225330D01*
X122285311Y-105308647D01*
X122391353Y-105414689D01*
X122474670Y-105539381D01*
X122532059Y-105677932D01*
X122561316Y-105825017D01*
X122561316Y-105974983D01*
X122532059Y-106122068D01*
X122474670Y-106260619D01*
X122391353Y-106385311D01*
X122285311Y-106491353D01*
X122160619Y-106574670D01*
X122022068Y-106632059D01*
X121874983Y-106661316D01*
X121725017Y-106661316D01*
X121577932Y-106632059D01*
X121439381Y-106574670D01*
X121314689Y-106491353D01*
X121208647Y-106385311D01*
X121125330Y-106260619D01*
X121067941Y-106122068D01*
X121038684Y-105974983D01*
X121038684Y-105825017D01*
X121067941Y-105677932D01*
X121125330Y-105539381D01*
X121208647Y-105414689D01*
X121314689Y-105308647D01*
X121439381Y-105225330D01*
X121577932Y-105167941D01*
X121725017Y-105138684D01*
X121874983Y-105138684D01*
X122022068Y-105167941D01*
G37*
G36*
X180422068Y-105167941D02*
G01*
X180560619Y-105225330D01*
X180685311Y-105308647D01*
X180791353Y-105414689D01*
X180874670Y-105539381D01*
X180932059Y-105677932D01*
X180961316Y-105825017D01*
X180961316Y-105974983D01*
X180932059Y-106122068D01*
X180874670Y-106260619D01*
X180791353Y-106385311D01*
X180685311Y-106491353D01*
X180560619Y-106574670D01*
X180422068Y-106632059D01*
X180274983Y-106661316D01*
X180125017Y-106661316D01*
X179977932Y-106632059D01*
X179839381Y-106574670D01*
X179714689Y-106491353D01*
X179608647Y-106385311D01*
X179525330Y-106260619D01*
X179467941Y-106122068D01*
X179438684Y-105974983D01*
X179438684Y-105825017D01*
X179467941Y-105677932D01*
X179525330Y-105539381D01*
X179608647Y-105414689D01*
X179714689Y-105308647D01*
X179839381Y-105225330D01*
X179977932Y-105167941D01*
X180125017Y-105138684D01*
X180274983Y-105138684D01*
X180422068Y-105167941D01*
G37*
G36*
X182962068Y-105167941D02*
G01*
X183100619Y-105225330D01*
X183225311Y-105308647D01*
X183331353Y-105414689D01*
X183414670Y-105539381D01*
X183472059Y-105677932D01*
X183501316Y-105825017D01*
X183501316Y-105974983D01*
X183472059Y-106122068D01*
X183414670Y-106260619D01*
X183331353Y-106385311D01*
X183225311Y-106491353D01*
X183100619Y-106574670D01*
X182962068Y-106632059D01*
X182814983Y-106661316D01*
X182665017Y-106661316D01*
X182517932Y-106632059D01*
X182379381Y-106574670D01*
X182254689Y-106491353D01*
X182148647Y-106385311D01*
X182065330Y-106260619D01*
X182007941Y-106122068D01*
X181978684Y-105974983D01*
X181978684Y-105825017D01*
X182007941Y-105677932D01*
X182065330Y-105539381D01*
X182148647Y-105414689D01*
X182254689Y-105308647D01*
X182379381Y-105225330D01*
X182517932Y-105167941D01*
X182665017Y-105138684D01*
X182814983Y-105138684D01*
X182962068Y-105167941D01*
G37*
G36*
X119482068Y-102627941D02*
G01*
X119620619Y-102685330D01*
X119745311Y-102768647D01*
X119851353Y-102874689D01*
X119934670Y-102999381D01*
X119992059Y-103137932D01*
X120021316Y-103285017D01*
X120021316Y-103434983D01*
X119992059Y-103582068D01*
X119934670Y-103720619D01*
X119851353Y-103845311D01*
X119745311Y-103951353D01*
X119620619Y-104034670D01*
X119482068Y-104092059D01*
X119334983Y-104121316D01*
X119185017Y-104121316D01*
X119037932Y-104092059D01*
X118899381Y-104034670D01*
X118774689Y-103951353D01*
X118668647Y-103845311D01*
X118585330Y-103720619D01*
X118527941Y-103582068D01*
X118498684Y-103434983D01*
X118498684Y-103285017D01*
X118527941Y-103137932D01*
X118585330Y-102999381D01*
X118668647Y-102874689D01*
X118774689Y-102768647D01*
X118899381Y-102685330D01*
X119037932Y-102627941D01*
X119185017Y-102598684D01*
X119334983Y-102598684D01*
X119482068Y-102627941D01*
G37*
G36*
X122022068Y-102627941D02*
G01*
X122160619Y-102685330D01*
X122285311Y-102768647D01*
X122391353Y-102874689D01*
X122474670Y-102999381D01*
X122532059Y-103137932D01*
X122561316Y-103285017D01*
X122561316Y-103434983D01*
X122532059Y-103582068D01*
X122474670Y-103720619D01*
X122391353Y-103845311D01*
X122285311Y-103951353D01*
X122160619Y-104034670D01*
X122022068Y-104092059D01*
X121874983Y-104121316D01*
X121725017Y-104121316D01*
X121577932Y-104092059D01*
X121439381Y-104034670D01*
X121314689Y-103951353D01*
X121208647Y-103845311D01*
X121125330Y-103720619D01*
X121067941Y-103582068D01*
X121038684Y-103434983D01*
X121038684Y-103285017D01*
X121067941Y-103137932D01*
X121125330Y-102999381D01*
X121208647Y-102874689D01*
X121314689Y-102768647D01*
X121439381Y-102685330D01*
X121577932Y-102627941D01*
X121725017Y-102598684D01*
X121874983Y-102598684D01*
X122022068Y-102627941D01*
G37*
G36*
X180422068Y-102627941D02*
G01*
X180560619Y-102685330D01*
X180685311Y-102768647D01*
X180791353Y-102874689D01*
X180874670Y-102999381D01*
X180932059Y-103137932D01*
X180961316Y-103285017D01*
X180961316Y-103434983D01*
X180932059Y-103582068D01*
X180874670Y-103720619D01*
X180791353Y-103845311D01*
X180685311Y-103951353D01*
X180560619Y-104034670D01*
X180422068Y-104092059D01*
X180274983Y-104121316D01*
X180125017Y-104121316D01*
X179977932Y-104092059D01*
X179839381Y-104034670D01*
X179714689Y-103951353D01*
X179608647Y-103845311D01*
X179525330Y-103720619D01*
X179467941Y-103582068D01*
X179438684Y-103434983D01*
X179438684Y-103285017D01*
X179467941Y-103137932D01*
X179525330Y-102999381D01*
X179608647Y-102874689D01*
X179714689Y-102768647D01*
X179839381Y-102685330D01*
X179977932Y-102627941D01*
X180125017Y-102598684D01*
X180274983Y-102598684D01*
X180422068Y-102627941D01*
G37*
G36*
X182962068Y-102627941D02*
G01*
X183100619Y-102685330D01*
X183225311Y-102768647D01*
X183331353Y-102874689D01*
X183414670Y-102999381D01*
X183472059Y-103137932D01*
X183501316Y-103285017D01*
X183501316Y-103434983D01*
X183472059Y-103582068D01*
X183414670Y-103720619D01*
X183331353Y-103845311D01*
X183225311Y-103951353D01*
X183100619Y-104034670D01*
X182962068Y-104092059D01*
X182814983Y-104121316D01*
X182665017Y-104121316D01*
X182517932Y-104092059D01*
X182379381Y-104034670D01*
X182254689Y-103951353D01*
X182148647Y-103845311D01*
X182065330Y-103720619D01*
X182007941Y-103582068D01*
X181978684Y-103434983D01*
X181978684Y-103285017D01*
X182007941Y-103137932D01*
X182065330Y-102999381D01*
X182148647Y-102874689D01*
X182254689Y-102768647D01*
X182379381Y-102685330D01*
X182517932Y-102627941D01*
X182665017Y-102598684D01*
X182814983Y-102598684D01*
X182962068Y-102627941D01*
G37*
G36*
X119482068Y-100087941D02*
G01*
X119620619Y-100145330D01*
X119745311Y-100228647D01*
X119851353Y-100334689D01*
X119934670Y-100459381D01*
X119992059Y-100597932D01*
X120021316Y-100745017D01*
X120021316Y-100894983D01*
X119992059Y-101042068D01*
X119934670Y-101180619D01*
X119851353Y-101305311D01*
X119745311Y-101411353D01*
X119620619Y-101494670D01*
X119482068Y-101552059D01*
X119334983Y-101581316D01*
X119185017Y-101581316D01*
X119037932Y-101552059D01*
X118899381Y-101494670D01*
X118774689Y-101411353D01*
X118668647Y-101305311D01*
X118585330Y-101180619D01*
X118527941Y-101042068D01*
X118498684Y-100894983D01*
X118498684Y-100745017D01*
X118527941Y-100597932D01*
X118585330Y-100459381D01*
X118668647Y-100334689D01*
X118774689Y-100228647D01*
X118899381Y-100145330D01*
X119037932Y-100087941D01*
X119185017Y-100058684D01*
X119334983Y-100058684D01*
X119482068Y-100087941D01*
G37*
G36*
X122022068Y-100087941D02*
G01*
X122160619Y-100145330D01*
X122285311Y-100228647D01*
X122391353Y-100334689D01*
X122474670Y-100459381D01*
X122532059Y-100597932D01*
X122561316Y-100745017D01*
X122561316Y-100894983D01*
X122532059Y-101042068D01*
X122474670Y-101180619D01*
X122391353Y-101305311D01*
X122285311Y-101411353D01*
X122160619Y-101494670D01*
X122022068Y-101552059D01*
X121874983Y-101581316D01*
X121725017Y-101581316D01*
X121577932Y-101552059D01*
X121439381Y-101494670D01*
X121314689Y-101411353D01*
X121208647Y-101305311D01*
X121125330Y-101180619D01*
X121067941Y-101042068D01*
X121038684Y-100894983D01*
X121038684Y-100745017D01*
X121067941Y-100597932D01*
X121125330Y-100459381D01*
X121208647Y-100334689D01*
X121314689Y-100228647D01*
X121439381Y-100145330D01*
X121577932Y-100087941D01*
X121725017Y-100058684D01*
X121874983Y-100058684D01*
X122022068Y-100087941D01*
G37*
G36*
X180422068Y-100087941D02*
G01*
X180560619Y-100145330D01*
X180685311Y-100228647D01*
X180791353Y-100334689D01*
X180874670Y-100459381D01*
X180932059Y-100597932D01*
X180961316Y-100745017D01*
X180961316Y-100894983D01*
X180932059Y-101042068D01*
X180874670Y-101180619D01*
X180791353Y-101305311D01*
X180685311Y-101411353D01*
X180560619Y-101494670D01*
X180422068Y-101552059D01*
X180274983Y-101581316D01*
X180125017Y-101581316D01*
X179977932Y-101552059D01*
X179839381Y-101494670D01*
X179714689Y-101411353D01*
X179608647Y-101305311D01*
X179525330Y-101180619D01*
X179467941Y-101042068D01*
X179438684Y-100894983D01*
X179438684Y-100745017D01*
X179467941Y-100597932D01*
X179525330Y-100459381D01*
X179608647Y-100334689D01*
X179714689Y-100228647D01*
X179839381Y-100145330D01*
X179977932Y-100087941D01*
X180125017Y-100058684D01*
X180274983Y-100058684D01*
X180422068Y-100087941D01*
G37*
G36*
X182962068Y-100087941D02*
G01*
X183100619Y-100145330D01*
X183225311Y-100228647D01*
X183331353Y-100334689D01*
X183414670Y-100459381D01*
X183472059Y-100597932D01*
X183501316Y-100745017D01*
X183501316Y-100894983D01*
X183472059Y-101042068D01*
X183414670Y-101180619D01*
X183331353Y-101305311D01*
X183225311Y-101411353D01*
X183100619Y-101494670D01*
X182962068Y-101552059D01*
X182814983Y-101581316D01*
X182665017Y-101581316D01*
X182517932Y-101552059D01*
X182379381Y-101494670D01*
X182254689Y-101411353D01*
X182148647Y-101305311D01*
X182065330Y-101180619D01*
X182007941Y-101042068D01*
X181978684Y-100894983D01*
X181978684Y-100745017D01*
X182007941Y-100597932D01*
X182065330Y-100459381D01*
X182148647Y-100334689D01*
X182254689Y-100228647D01*
X182379381Y-100145330D01*
X182517932Y-100087941D01*
X182665017Y-100058684D01*
X182814983Y-100058684D01*
X182962068Y-100087941D01*
G37*
G36*
X119482068Y-97547941D02*
G01*
X119620619Y-97605330D01*
X119745311Y-97688647D01*
X119851353Y-97794689D01*
X119934670Y-97919381D01*
X119992059Y-98057932D01*
X120021316Y-98205017D01*
X120021316Y-98354983D01*
X119992059Y-98502068D01*
X119934670Y-98640619D01*
X119851353Y-98765311D01*
X119745311Y-98871353D01*
X119620619Y-98954670D01*
X119482068Y-99012059D01*
X119334983Y-99041316D01*
X119185017Y-99041316D01*
X119037932Y-99012059D01*
X118899381Y-98954670D01*
X118774689Y-98871353D01*
X118668647Y-98765311D01*
X118585330Y-98640619D01*
X118527941Y-98502068D01*
X118498684Y-98354983D01*
X118498684Y-98205017D01*
X118527941Y-98057932D01*
X118585330Y-97919381D01*
X118668647Y-97794689D01*
X118774689Y-97688647D01*
X118899381Y-97605330D01*
X119037932Y-97547941D01*
X119185017Y-97518684D01*
X119334983Y-97518684D01*
X119482068Y-97547941D01*
G37*
G36*
X122022068Y-97547941D02*
G01*
X122160619Y-97605330D01*
X122285311Y-97688647D01*
X122391353Y-97794689D01*
X122474670Y-97919381D01*
X122532059Y-98057932D01*
X122561316Y-98205017D01*
X122561316Y-98354983D01*
X122532059Y-98502068D01*
X122474670Y-98640619D01*
X122391353Y-98765311D01*
X122285311Y-98871353D01*
X122160619Y-98954670D01*
X122022068Y-99012059D01*
X121874983Y-99041316D01*
X121725017Y-99041316D01*
X121577932Y-99012059D01*
X121439381Y-98954670D01*
X121314689Y-98871353D01*
X121208647Y-98765311D01*
X121125330Y-98640619D01*
X121067941Y-98502068D01*
X121038684Y-98354983D01*
X121038684Y-98205017D01*
X121067941Y-98057932D01*
X121125330Y-97919381D01*
X121208647Y-97794689D01*
X121314689Y-97688647D01*
X121439381Y-97605330D01*
X121577932Y-97547941D01*
X121725017Y-97518684D01*
X121874983Y-97518684D01*
X122022068Y-97547941D01*
G37*
G36*
X180422068Y-97547941D02*
G01*
X180560619Y-97605330D01*
X180685311Y-97688647D01*
X180791353Y-97794689D01*
X180874670Y-97919381D01*
X180932059Y-98057932D01*
X180961316Y-98205017D01*
X180961316Y-98354983D01*
X180932059Y-98502068D01*
X180874670Y-98640619D01*
X180791353Y-98765311D01*
X180685311Y-98871353D01*
X180560619Y-98954670D01*
X180422068Y-99012059D01*
X180274983Y-99041316D01*
X180125017Y-99041316D01*
X179977932Y-99012059D01*
X179839381Y-98954670D01*
X179714689Y-98871353D01*
X179608647Y-98765311D01*
X179525330Y-98640619D01*
X179467941Y-98502068D01*
X179438684Y-98354983D01*
X179438684Y-98205017D01*
X179467941Y-98057932D01*
X179525330Y-97919381D01*
X179608647Y-97794689D01*
X179714689Y-97688647D01*
X179839381Y-97605330D01*
X179977932Y-97547941D01*
X180125017Y-97518684D01*
X180274983Y-97518684D01*
X180422068Y-97547941D01*
G37*
G36*
X182962068Y-97547941D02*
G01*
X183100619Y-97605330D01*
X183225311Y-97688647D01*
X183331353Y-97794689D01*
X183414670Y-97919381D01*
X183472059Y-98057932D01*
X183501316Y-98205017D01*
X183501316Y-98354983D01*
X183472059Y-98502068D01*
X183414670Y-98640619D01*
X183331353Y-98765311D01*
X183225311Y-98871353D01*
X183100619Y-98954670D01*
X182962068Y-99012059D01*
X182814983Y-99041316D01*
X182665017Y-99041316D01*
X182517932Y-99012059D01*
X182379381Y-98954670D01*
X182254689Y-98871353D01*
X182148647Y-98765311D01*
X182065330Y-98640619D01*
X182007941Y-98502068D01*
X181978684Y-98354983D01*
X181978684Y-98205017D01*
X182007941Y-98057932D01*
X182065330Y-97919381D01*
X182148647Y-97794689D01*
X182254689Y-97688647D01*
X182379381Y-97605330D01*
X182517932Y-97547941D01*
X182665017Y-97518684D01*
X182814983Y-97518684D01*
X182962068Y-97547941D01*
G37*
G36*
X119482068Y-95007941D02*
G01*
X119620619Y-95065330D01*
X119745311Y-95148647D01*
X119851353Y-95254689D01*
X119934670Y-95379381D01*
X119992059Y-95517932D01*
X120021316Y-95665017D01*
X120021316Y-95814983D01*
X119992059Y-95962068D01*
X119934670Y-96100619D01*
X119851353Y-96225311D01*
X119745311Y-96331353D01*
X119620619Y-96414670D01*
X119482068Y-96472059D01*
X119334983Y-96501316D01*
X119185017Y-96501316D01*
X119037932Y-96472059D01*
X118899381Y-96414670D01*
X118774689Y-96331353D01*
X118668647Y-96225311D01*
X118585330Y-96100619D01*
X118527941Y-95962068D01*
X118498684Y-95814983D01*
X118498684Y-95665017D01*
X118527941Y-95517932D01*
X118585330Y-95379381D01*
X118668647Y-95254689D01*
X118774689Y-95148647D01*
X118899381Y-95065330D01*
X119037932Y-95007941D01*
X119185017Y-94978684D01*
X119334983Y-94978684D01*
X119482068Y-95007941D01*
G37*
G36*
X122022068Y-95007941D02*
G01*
X122160619Y-95065330D01*
X122285311Y-95148647D01*
X122391353Y-95254689D01*
X122474670Y-95379381D01*
X122532059Y-95517932D01*
X122561316Y-95665017D01*
X122561316Y-95814983D01*
X122532059Y-95962068D01*
X122474670Y-96100619D01*
X122391353Y-96225311D01*
X122285311Y-96331353D01*
X122160619Y-96414670D01*
X122022068Y-96472059D01*
X121874983Y-96501316D01*
X121725017Y-96501316D01*
X121577932Y-96472059D01*
X121439381Y-96414670D01*
X121314689Y-96331353D01*
X121208647Y-96225311D01*
X121125330Y-96100619D01*
X121067941Y-95962068D01*
X121038684Y-95814983D01*
X121038684Y-95665017D01*
X121067941Y-95517932D01*
X121125330Y-95379381D01*
X121208647Y-95254689D01*
X121314689Y-95148647D01*
X121439381Y-95065330D01*
X121577932Y-95007941D01*
X121725017Y-94978684D01*
X121874983Y-94978684D01*
X122022068Y-95007941D01*
G37*
G36*
X180422068Y-95007941D02*
G01*
X180560619Y-95065330D01*
X180685311Y-95148647D01*
X180791353Y-95254689D01*
X180874670Y-95379381D01*
X180932059Y-95517932D01*
X180961316Y-95665017D01*
X180961316Y-95814983D01*
X180932059Y-95962068D01*
X180874670Y-96100619D01*
X180791353Y-96225311D01*
X180685311Y-96331353D01*
X180560619Y-96414670D01*
X180422068Y-96472059D01*
X180274983Y-96501316D01*
X180125017Y-96501316D01*
X179977932Y-96472059D01*
X179839381Y-96414670D01*
X179714689Y-96331353D01*
X179608647Y-96225311D01*
X179525330Y-96100619D01*
X179467941Y-95962068D01*
X179438684Y-95814983D01*
X179438684Y-95665017D01*
X179467941Y-95517932D01*
X179525330Y-95379381D01*
X179608647Y-95254689D01*
X179714689Y-95148647D01*
X179839381Y-95065330D01*
X179977932Y-95007941D01*
X180125017Y-94978684D01*
X180274983Y-94978684D01*
X180422068Y-95007941D01*
G37*
G36*
X182962068Y-95007941D02*
G01*
X183100619Y-95065330D01*
X183225311Y-95148647D01*
X183331353Y-95254689D01*
X183414670Y-95379381D01*
X183472059Y-95517932D01*
X183501316Y-95665017D01*
X183501316Y-95814983D01*
X183472059Y-95962068D01*
X183414670Y-96100619D01*
X183331353Y-96225311D01*
X183225311Y-96331353D01*
X183100619Y-96414670D01*
X182962068Y-96472059D01*
X182814983Y-96501316D01*
X182665017Y-96501316D01*
X182517932Y-96472059D01*
X182379381Y-96414670D01*
X182254689Y-96331353D01*
X182148647Y-96225311D01*
X182065330Y-96100619D01*
X182007941Y-95962068D01*
X181978684Y-95814983D01*
X181978684Y-95665017D01*
X182007941Y-95517932D01*
X182065330Y-95379381D01*
X182148647Y-95254689D01*
X182254689Y-95148647D01*
X182379381Y-95065330D01*
X182517932Y-95007941D01*
X182665017Y-94978684D01*
X182814983Y-94978684D01*
X182962068Y-95007941D01*
G37*
G36*
X119482068Y-92467941D02*
G01*
X119620619Y-92525330D01*
X119745311Y-92608647D01*
X119851353Y-92714689D01*
X119934670Y-92839381D01*
X119992059Y-92977932D01*
X120021316Y-93125017D01*
X120021316Y-93274983D01*
X119992059Y-93422068D01*
X119934670Y-93560619D01*
X119851353Y-93685311D01*
X119745311Y-93791353D01*
X119620619Y-93874670D01*
X119482068Y-93932059D01*
X119334983Y-93961316D01*
X119185017Y-93961316D01*
X119037932Y-93932059D01*
X118899381Y-93874670D01*
X118774689Y-93791353D01*
X118668647Y-93685311D01*
X118585330Y-93560619D01*
X118527941Y-93422068D01*
X118498684Y-93274983D01*
X118498684Y-93125017D01*
X118527941Y-92977932D01*
X118585330Y-92839381D01*
X118668647Y-92714689D01*
X118774689Y-92608647D01*
X118899381Y-92525330D01*
X119037932Y-92467941D01*
X119185017Y-92438684D01*
X119334983Y-92438684D01*
X119482068Y-92467941D01*
G37*
G36*
X122022068Y-92467941D02*
G01*
X122160619Y-92525330D01*
X122285311Y-92608647D01*
X122391353Y-92714689D01*
X122474670Y-92839381D01*
X122532059Y-92977932D01*
X122561316Y-93125017D01*
X122561316Y-93274983D01*
X122532059Y-93422068D01*
X122474670Y-93560619D01*
X122391353Y-93685311D01*
X122285311Y-93791353D01*
X122160619Y-93874670D01*
X122022068Y-93932059D01*
X121874983Y-93961316D01*
X121725017Y-93961316D01*
X121577932Y-93932059D01*
X121439381Y-93874670D01*
X121314689Y-93791353D01*
X121208647Y-93685311D01*
X121125330Y-93560619D01*
X121067941Y-93422068D01*
X121038684Y-93274983D01*
X121038684Y-93125017D01*
X121067941Y-92977932D01*
X121125330Y-92839381D01*
X121208647Y-92714689D01*
X121314689Y-92608647D01*
X121439381Y-92525330D01*
X121577932Y-92467941D01*
X121725017Y-92438684D01*
X121874983Y-92438684D01*
X122022068Y-92467941D01*
G37*
G36*
X180422068Y-92467941D02*
G01*
X180560619Y-92525330D01*
X180685311Y-92608647D01*
X180791353Y-92714689D01*
X180874670Y-92839381D01*
X180932059Y-92977932D01*
X180961316Y-93125017D01*
X180961316Y-93274983D01*
X180932059Y-93422068D01*
X180874670Y-93560619D01*
X180791353Y-93685311D01*
X180685311Y-93791353D01*
X180560619Y-93874670D01*
X180422068Y-93932059D01*
X180274983Y-93961316D01*
X180125017Y-93961316D01*
X179977932Y-93932059D01*
X179839381Y-93874670D01*
X179714689Y-93791353D01*
X179608647Y-93685311D01*
X179525330Y-93560619D01*
X179467941Y-93422068D01*
X179438684Y-93274983D01*
X179438684Y-93125017D01*
X179467941Y-92977932D01*
X179525330Y-92839381D01*
X179608647Y-92714689D01*
X179714689Y-92608647D01*
X179839381Y-92525330D01*
X179977932Y-92467941D01*
X180125017Y-92438684D01*
X180274983Y-92438684D01*
X180422068Y-92467941D01*
G37*
G36*
X182962068Y-92467941D02*
G01*
X183100619Y-92525330D01*
X183225311Y-92608647D01*
X183331353Y-92714689D01*
X183414670Y-92839381D01*
X183472059Y-92977932D01*
X183501316Y-93125017D01*
X183501316Y-93274983D01*
X183472059Y-93422068D01*
X183414670Y-93560619D01*
X183331353Y-93685311D01*
X183225311Y-93791353D01*
X183100619Y-93874670D01*
X182962068Y-93932059D01*
X182814983Y-93961316D01*
X182665017Y-93961316D01*
X182517932Y-93932059D01*
X182379381Y-93874670D01*
X182254689Y-93791353D01*
X182148647Y-93685311D01*
X182065330Y-93560619D01*
X182007941Y-93422068D01*
X181978684Y-93274983D01*
X181978684Y-93125017D01*
X182007941Y-92977932D01*
X182065330Y-92839381D01*
X182148647Y-92714689D01*
X182254689Y-92608647D01*
X182379381Y-92525330D01*
X182517932Y-92467941D01*
X182665017Y-92438684D01*
X182814983Y-92438684D01*
X182962068Y-92467941D01*
G37*
G36*
X119482068Y-89927941D02*
G01*
X119620619Y-89985330D01*
X119745311Y-90068647D01*
X119851353Y-90174689D01*
X119934670Y-90299381D01*
X119992059Y-90437932D01*
X120021316Y-90585017D01*
X120021316Y-90734983D01*
X119992059Y-90882068D01*
X119934670Y-91020619D01*
X119851353Y-91145311D01*
X119745311Y-91251353D01*
X119620619Y-91334670D01*
X119482068Y-91392059D01*
X119334983Y-91421316D01*
X119185017Y-91421316D01*
X119037932Y-91392059D01*
X118899381Y-91334670D01*
X118774689Y-91251353D01*
X118668647Y-91145311D01*
X118585330Y-91020619D01*
X118527941Y-90882068D01*
X118498684Y-90734983D01*
X118498684Y-90585017D01*
X118527941Y-90437932D01*
X118585330Y-90299381D01*
X118668647Y-90174689D01*
X118774689Y-90068647D01*
X118899381Y-89985330D01*
X119037932Y-89927941D01*
X119185017Y-89898684D01*
X119334983Y-89898684D01*
X119482068Y-89927941D01*
G37*
G36*
X122022068Y-89927941D02*
G01*
X122160619Y-89985330D01*
X122285311Y-90068647D01*
X122391353Y-90174689D01*
X122474670Y-90299381D01*
X122532059Y-90437932D01*
X122561316Y-90585017D01*
X122561316Y-90734983D01*
X122532059Y-90882068D01*
X122474670Y-91020619D01*
X122391353Y-91145311D01*
X122285311Y-91251353D01*
X122160619Y-91334670D01*
X122022068Y-91392059D01*
X121874983Y-91421316D01*
X121725017Y-91421316D01*
X121577932Y-91392059D01*
X121439381Y-91334670D01*
X121314689Y-91251353D01*
X121208647Y-91145311D01*
X121125330Y-91020619D01*
X121067941Y-90882068D01*
X121038684Y-90734983D01*
X121038684Y-90585017D01*
X121067941Y-90437932D01*
X121125330Y-90299381D01*
X121208647Y-90174689D01*
X121314689Y-90068647D01*
X121439381Y-89985330D01*
X121577932Y-89927941D01*
X121725017Y-89898684D01*
X121874983Y-89898684D01*
X122022068Y-89927941D01*
G37*
G36*
X180422068Y-89927941D02*
G01*
X180560619Y-89985330D01*
X180685311Y-90068647D01*
X180791353Y-90174689D01*
X180874670Y-90299381D01*
X180932059Y-90437932D01*
X180961316Y-90585017D01*
X180961316Y-90734983D01*
X180932059Y-90882068D01*
X180874670Y-91020619D01*
X180791353Y-91145311D01*
X180685311Y-91251353D01*
X180560619Y-91334670D01*
X180422068Y-91392059D01*
X180274983Y-91421316D01*
X180125017Y-91421316D01*
X179977932Y-91392059D01*
X179839381Y-91334670D01*
X179714689Y-91251353D01*
X179608647Y-91145311D01*
X179525330Y-91020619D01*
X179467941Y-90882068D01*
X179438684Y-90734983D01*
X179438684Y-90585017D01*
X179467941Y-90437932D01*
X179525330Y-90299381D01*
X179608647Y-90174689D01*
X179714689Y-90068647D01*
X179839381Y-89985330D01*
X179977932Y-89927941D01*
X180125017Y-89898684D01*
X180274983Y-89898684D01*
X180422068Y-89927941D01*
G37*
G36*
X182962068Y-89927941D02*
G01*
X183100619Y-89985330D01*
X183225311Y-90068647D01*
X183331353Y-90174689D01*
X183414670Y-90299381D01*
X183472059Y-90437932D01*
X183501316Y-90585017D01*
X183501316Y-90734983D01*
X183472059Y-90882068D01*
X183414670Y-91020619D01*
X183331353Y-91145311D01*
X183225311Y-91251353D01*
X183100619Y-91334670D01*
X182962068Y-91392059D01*
X182814983Y-91421316D01*
X182665017Y-91421316D01*
X182517932Y-91392059D01*
X182379381Y-91334670D01*
X182254689Y-91251353D01*
X182148647Y-91145311D01*
X182065330Y-91020619D01*
X182007941Y-90882068D01*
X181978684Y-90734983D01*
X181978684Y-90585017D01*
X182007941Y-90437932D01*
X182065330Y-90299381D01*
X182148647Y-90174689D01*
X182254689Y-90068647D01*
X182379381Y-89985330D01*
X182517932Y-89927941D01*
X182665017Y-89898684D01*
X182814983Y-89898684D01*
X182962068Y-89927941D01*
G37*
G36*
X119482068Y-87387941D02*
G01*
X119620619Y-87445330D01*
X119745311Y-87528647D01*
X119851353Y-87634689D01*
X119934670Y-87759381D01*
X119992059Y-87897932D01*
X120021316Y-88045017D01*
X120021316Y-88194983D01*
X119992059Y-88342068D01*
X119934670Y-88480619D01*
X119851353Y-88605311D01*
X119745311Y-88711353D01*
X119620619Y-88794670D01*
X119482068Y-88852059D01*
X119334983Y-88881316D01*
X119185017Y-88881316D01*
X119037932Y-88852059D01*
X118899381Y-88794670D01*
X118774689Y-88711353D01*
X118668647Y-88605311D01*
X118585330Y-88480619D01*
X118527941Y-88342068D01*
X118498684Y-88194983D01*
X118498684Y-88045017D01*
X118527941Y-87897932D01*
X118585330Y-87759381D01*
X118668647Y-87634689D01*
X118774689Y-87528647D01*
X118899381Y-87445330D01*
X119037932Y-87387941D01*
X119185017Y-87358684D01*
X119334983Y-87358684D01*
X119482068Y-87387941D01*
G37*
G36*
X122022068Y-87387941D02*
G01*
X122160619Y-87445330D01*
X122285311Y-87528647D01*
X122391353Y-87634689D01*
X122474670Y-87759381D01*
X122532059Y-87897932D01*
X122561316Y-88045017D01*
X122561316Y-88194983D01*
X122532059Y-88342068D01*
X122474670Y-88480619D01*
X122391353Y-88605311D01*
X122285311Y-88711353D01*
X122160619Y-88794670D01*
X122022068Y-88852059D01*
X121874983Y-88881316D01*
X121725017Y-88881316D01*
X121577932Y-88852059D01*
X121439381Y-88794670D01*
X121314689Y-88711353D01*
X121208647Y-88605311D01*
X121125330Y-88480619D01*
X121067941Y-88342068D01*
X121038684Y-88194983D01*
X121038684Y-88045017D01*
X121067941Y-87897932D01*
X121125330Y-87759381D01*
X121208647Y-87634689D01*
X121314689Y-87528647D01*
X121439381Y-87445330D01*
X121577932Y-87387941D01*
X121725017Y-87358684D01*
X121874983Y-87358684D01*
X122022068Y-87387941D01*
G37*
G36*
X180422068Y-87387941D02*
G01*
X180560619Y-87445330D01*
X180685311Y-87528647D01*
X180791353Y-87634689D01*
X180874670Y-87759381D01*
X180932059Y-87897932D01*
X180961316Y-88045017D01*
X180961316Y-88194983D01*
X180932059Y-88342068D01*
X180874670Y-88480619D01*
X180791353Y-88605311D01*
X180685311Y-88711353D01*
X180560619Y-88794670D01*
X180422068Y-88852059D01*
X180274983Y-88881316D01*
X180125017Y-88881316D01*
X179977932Y-88852059D01*
X179839381Y-88794670D01*
X179714689Y-88711353D01*
X179608647Y-88605311D01*
X179525330Y-88480619D01*
X179467941Y-88342068D01*
X179438684Y-88194983D01*
X179438684Y-88045017D01*
X179467941Y-87897932D01*
X179525330Y-87759381D01*
X179608647Y-87634689D01*
X179714689Y-87528647D01*
X179839381Y-87445330D01*
X179977932Y-87387941D01*
X180125017Y-87358684D01*
X180274983Y-87358684D01*
X180422068Y-87387941D01*
G37*
G36*
X182962068Y-87387941D02*
G01*
X183100619Y-87445330D01*
X183225311Y-87528647D01*
X183331353Y-87634689D01*
X183414670Y-87759381D01*
X183472059Y-87897932D01*
X183501316Y-88045017D01*
X183501316Y-88194983D01*
X183472059Y-88342068D01*
X183414670Y-88480619D01*
X183331353Y-88605311D01*
X183225311Y-88711353D01*
X183100619Y-88794670D01*
X182962068Y-88852059D01*
X182814983Y-88881316D01*
X182665017Y-88881316D01*
X182517932Y-88852059D01*
X182379381Y-88794670D01*
X182254689Y-88711353D01*
X182148647Y-88605311D01*
X182065330Y-88480619D01*
X182007941Y-88342068D01*
X181978684Y-88194983D01*
X181978684Y-88045017D01*
X182007941Y-87897932D01*
X182065330Y-87759381D01*
X182148647Y-87634689D01*
X182254689Y-87528647D01*
X182379381Y-87445330D01*
X182517932Y-87387941D01*
X182665017Y-87358684D01*
X182814983Y-87358684D01*
X182962068Y-87387941D01*
G37*
G36*
X119482068Y-84847941D02*
G01*
X119620619Y-84905330D01*
X119745311Y-84988647D01*
X119851353Y-85094689D01*
X119934670Y-85219381D01*
X119992059Y-85357932D01*
X120021316Y-85505017D01*
X120021316Y-85654983D01*
X119992059Y-85802068D01*
X119934670Y-85940619D01*
X119851353Y-86065311D01*
X119745311Y-86171353D01*
X119620619Y-86254670D01*
X119482068Y-86312059D01*
X119334983Y-86341316D01*
X119185017Y-86341316D01*
X119037932Y-86312059D01*
X118899381Y-86254670D01*
X118774689Y-86171353D01*
X118668647Y-86065311D01*
X118585330Y-85940619D01*
X118527941Y-85802068D01*
X118498684Y-85654983D01*
X118498684Y-85505017D01*
X118527941Y-85357932D01*
X118585330Y-85219381D01*
X118668647Y-85094689D01*
X118774689Y-84988647D01*
X118899381Y-84905330D01*
X119037932Y-84847941D01*
X119185017Y-84818684D01*
X119334983Y-84818684D01*
X119482068Y-84847941D01*
G37*
G36*
X122022068Y-84847941D02*
G01*
X122160619Y-84905330D01*
X122285311Y-84988647D01*
X122391353Y-85094689D01*
X122474670Y-85219381D01*
X122532059Y-85357932D01*
X122561316Y-85505017D01*
X122561316Y-85654983D01*
X122532059Y-85802068D01*
X122474670Y-85940619D01*
X122391353Y-86065311D01*
X122285311Y-86171353D01*
X122160619Y-86254670D01*
X122022068Y-86312059D01*
X121874983Y-86341316D01*
X121725017Y-86341316D01*
X121577932Y-86312059D01*
X121439381Y-86254670D01*
X121314689Y-86171353D01*
X121208647Y-86065311D01*
X121125330Y-85940619D01*
X121067941Y-85802068D01*
X121038684Y-85654983D01*
X121038684Y-85505017D01*
X121067941Y-85357932D01*
X121125330Y-85219381D01*
X121208647Y-85094689D01*
X121314689Y-84988647D01*
X121439381Y-84905330D01*
X121577932Y-84847941D01*
X121725017Y-84818684D01*
X121874983Y-84818684D01*
X122022068Y-84847941D01*
G37*
G36*
X180422068Y-84847941D02*
G01*
X180560619Y-84905330D01*
X180685311Y-84988647D01*
X180791353Y-85094689D01*
X180874670Y-85219381D01*
X180932059Y-85357932D01*
X180961316Y-85505017D01*
X180961316Y-85654983D01*
X180932059Y-85802068D01*
X180874670Y-85940619D01*
X180791353Y-86065311D01*
X180685311Y-86171353D01*
X180560619Y-86254670D01*
X180422068Y-86312059D01*
X180274983Y-86341316D01*
X180125017Y-86341316D01*
X179977932Y-86312059D01*
X179839381Y-86254670D01*
X179714689Y-86171353D01*
X179608647Y-86065311D01*
X179525330Y-85940619D01*
X179467941Y-85802068D01*
X179438684Y-85654983D01*
X179438684Y-85505017D01*
X179467941Y-85357932D01*
X179525330Y-85219381D01*
X179608647Y-85094689D01*
X179714689Y-84988647D01*
X179839381Y-84905330D01*
X179977932Y-84847941D01*
X180125017Y-84818684D01*
X180274983Y-84818684D01*
X180422068Y-84847941D01*
G37*
G36*
X182962068Y-84847941D02*
G01*
X183100619Y-84905330D01*
X183225311Y-84988647D01*
X183331353Y-85094689D01*
X183414670Y-85219381D01*
X183472059Y-85357932D01*
X183501316Y-85505017D01*
X183501316Y-85654983D01*
X183472059Y-85802068D01*
X183414670Y-85940619D01*
X183331353Y-86065311D01*
X183225311Y-86171353D01*
X183100619Y-86254670D01*
X182962068Y-86312059D01*
X182814983Y-86341316D01*
X182665017Y-86341316D01*
X182517932Y-86312059D01*
X182379381Y-86254670D01*
X182254689Y-86171353D01*
X182148647Y-86065311D01*
X182065330Y-85940619D01*
X182007941Y-85802068D01*
X181978684Y-85654983D01*
X181978684Y-85505017D01*
X182007941Y-85357932D01*
X182065330Y-85219381D01*
X182148647Y-85094689D01*
X182254689Y-84988647D01*
X182379381Y-84905330D01*
X182517932Y-84847941D01*
X182665017Y-84818684D01*
X182814983Y-84818684D01*
X182962068Y-84847941D01*
G37*
G36*
X119482068Y-82307941D02*
G01*
X119620619Y-82365330D01*
X119745311Y-82448647D01*
X119851353Y-82554689D01*
X119934670Y-82679381D01*
X119992059Y-82817932D01*
X120021316Y-82965017D01*
X120021316Y-83114983D01*
X119992059Y-83262068D01*
X119934670Y-83400619D01*
X119851353Y-83525311D01*
X119745311Y-83631353D01*
X119620619Y-83714670D01*
X119482068Y-83772059D01*
X119334983Y-83801316D01*
X119185017Y-83801316D01*
X119037932Y-83772059D01*
X118899381Y-83714670D01*
X118774689Y-83631353D01*
X118668647Y-83525311D01*
X118585330Y-83400619D01*
X118527941Y-83262068D01*
X118498684Y-83114983D01*
X118498684Y-82965017D01*
X118527941Y-82817932D01*
X118585330Y-82679381D01*
X118668647Y-82554689D01*
X118774689Y-82448647D01*
X118899381Y-82365330D01*
X119037932Y-82307941D01*
X119185017Y-82278684D01*
X119334983Y-82278684D01*
X119482068Y-82307941D01*
G37*
G36*
X122022068Y-82307941D02*
G01*
X122160619Y-82365330D01*
X122285311Y-82448647D01*
X122391353Y-82554689D01*
X122474670Y-82679381D01*
X122532059Y-82817932D01*
X122561316Y-82965017D01*
X122561316Y-83114983D01*
X122532059Y-83262068D01*
X122474670Y-83400619D01*
X122391353Y-83525311D01*
X122285311Y-83631353D01*
X122160619Y-83714670D01*
X122022068Y-83772059D01*
X121874983Y-83801316D01*
X121725017Y-83801316D01*
X121577932Y-83772059D01*
X121439381Y-83714670D01*
X121314689Y-83631353D01*
X121208647Y-83525311D01*
X121125330Y-83400619D01*
X121067941Y-83262068D01*
X121038684Y-83114983D01*
X121038684Y-82965017D01*
X121067941Y-82817932D01*
X121125330Y-82679381D01*
X121208647Y-82554689D01*
X121314689Y-82448647D01*
X121439381Y-82365330D01*
X121577932Y-82307941D01*
X121725017Y-82278684D01*
X121874983Y-82278684D01*
X122022068Y-82307941D01*
G37*
G36*
X180422068Y-82307941D02*
G01*
X180560619Y-82365330D01*
X180685311Y-82448647D01*
X180791353Y-82554689D01*
X180874670Y-82679381D01*
X180932059Y-82817932D01*
X180961316Y-82965017D01*
X180961316Y-83114983D01*
X180932059Y-83262068D01*
X180874670Y-83400619D01*
X180791353Y-83525311D01*
X180685311Y-83631353D01*
X180560619Y-83714670D01*
X180422068Y-83772059D01*
X180274983Y-83801316D01*
X180125017Y-83801316D01*
X179977932Y-83772059D01*
X179839381Y-83714670D01*
X179714689Y-83631353D01*
X179608647Y-83525311D01*
X179525330Y-83400619D01*
X179467941Y-83262068D01*
X179438684Y-83114983D01*
X179438684Y-82965017D01*
X179467941Y-82817932D01*
X179525330Y-82679381D01*
X179608647Y-82554689D01*
X179714689Y-82448647D01*
X179839381Y-82365330D01*
X179977932Y-82307941D01*
X180125017Y-82278684D01*
X180274983Y-82278684D01*
X180422068Y-82307941D01*
G37*
G36*
X182962068Y-82307941D02*
G01*
X183100619Y-82365330D01*
X183225311Y-82448647D01*
X183331353Y-82554689D01*
X183414670Y-82679381D01*
X183472059Y-82817932D01*
X183501316Y-82965017D01*
X183501316Y-83114983D01*
X183472059Y-83262068D01*
X183414670Y-83400619D01*
X183331353Y-83525311D01*
X183225311Y-83631353D01*
X183100619Y-83714670D01*
X182962068Y-83772059D01*
X182814983Y-83801316D01*
X182665017Y-83801316D01*
X182517932Y-83772059D01*
X182379381Y-83714670D01*
X182254689Y-83631353D01*
X182148647Y-83525311D01*
X182065330Y-83400619D01*
X182007941Y-83262068D01*
X181978684Y-83114983D01*
X181978684Y-82965017D01*
X182007941Y-82817932D01*
X182065330Y-82679381D01*
X182148647Y-82554689D01*
X182254689Y-82448647D01*
X182379381Y-82365330D01*
X182517932Y-82307941D01*
X182665017Y-82278684D01*
X182814983Y-82278684D01*
X182962068Y-82307941D01*
G37*
G36*
X119482068Y-79767941D02*
G01*
X119620619Y-79825330D01*
X119745311Y-79908647D01*
X119851353Y-80014689D01*
X119934670Y-80139381D01*
X119992059Y-80277932D01*
X120021316Y-80425017D01*
X120021316Y-80574983D01*
X119992059Y-80722068D01*
X119934670Y-80860619D01*
X119851353Y-80985311D01*
X119745311Y-81091353D01*
X119620619Y-81174670D01*
X119482068Y-81232059D01*
X119334983Y-81261316D01*
X119185017Y-81261316D01*
X119037932Y-81232059D01*
X118899381Y-81174670D01*
X118774689Y-81091353D01*
X118668647Y-80985311D01*
X118585330Y-80860619D01*
X118527941Y-80722068D01*
X118498684Y-80574983D01*
X118498684Y-80425017D01*
X118527941Y-80277932D01*
X118585330Y-80139381D01*
X118668647Y-80014689D01*
X118774689Y-79908647D01*
X118899381Y-79825330D01*
X119037932Y-79767941D01*
X119185017Y-79738684D01*
X119334983Y-79738684D01*
X119482068Y-79767941D01*
G37*
G36*
X122022068Y-79767941D02*
G01*
X122160619Y-79825330D01*
X122285311Y-79908647D01*
X122391353Y-80014689D01*
X122474670Y-80139381D01*
X122532059Y-80277932D01*
X122561316Y-80425017D01*
X122561316Y-80574983D01*
X122532059Y-80722068D01*
X122474670Y-80860619D01*
X122391353Y-80985311D01*
X122285311Y-81091353D01*
X122160619Y-81174670D01*
X122022068Y-81232059D01*
X121874983Y-81261316D01*
X121725017Y-81261316D01*
X121577932Y-81232059D01*
X121439381Y-81174670D01*
X121314689Y-81091353D01*
X121208647Y-80985311D01*
X121125330Y-80860619D01*
X121067941Y-80722068D01*
X121038684Y-80574983D01*
X121038684Y-80425017D01*
X121067941Y-80277932D01*
X121125330Y-80139381D01*
X121208647Y-80014689D01*
X121314689Y-79908647D01*
X121439381Y-79825330D01*
X121577932Y-79767941D01*
X121725017Y-79738684D01*
X121874983Y-79738684D01*
X122022068Y-79767941D01*
G37*
G36*
X180422068Y-79767941D02*
G01*
X180560619Y-79825330D01*
X180685311Y-79908647D01*
X180791353Y-80014689D01*
X180874670Y-80139381D01*
X180932059Y-80277932D01*
X180961316Y-80425017D01*
X180961316Y-80574983D01*
X180932059Y-80722068D01*
X180874670Y-80860619D01*
X180791353Y-80985311D01*
X180685311Y-81091353D01*
X180560619Y-81174670D01*
X180422068Y-81232059D01*
X180274983Y-81261316D01*
X180125017Y-81261316D01*
X179977932Y-81232059D01*
X179839381Y-81174670D01*
X179714689Y-81091353D01*
X179608647Y-80985311D01*
X179525330Y-80860619D01*
X179467941Y-80722068D01*
X179438684Y-80574983D01*
X179438684Y-80425017D01*
X179467941Y-80277932D01*
X179525330Y-80139381D01*
X179608647Y-80014689D01*
X179714689Y-79908647D01*
X179839381Y-79825330D01*
X179977932Y-79767941D01*
X180125017Y-79738684D01*
X180274983Y-79738684D01*
X180422068Y-79767941D01*
G37*
G36*
X182962068Y-79767941D02*
G01*
X183100619Y-79825330D01*
X183225311Y-79908647D01*
X183331353Y-80014689D01*
X183414670Y-80139381D01*
X183472059Y-80277932D01*
X183501316Y-80425017D01*
X183501316Y-80574983D01*
X183472059Y-80722068D01*
X183414670Y-80860619D01*
X183331353Y-80985311D01*
X183225311Y-81091353D01*
X183100619Y-81174670D01*
X182962068Y-81232059D01*
X182814983Y-81261316D01*
X182665017Y-81261316D01*
X182517932Y-81232059D01*
X182379381Y-81174670D01*
X182254689Y-81091353D01*
X182148647Y-80985311D01*
X182065330Y-80860619D01*
X182007941Y-80722068D01*
X181978684Y-80574983D01*
X181978684Y-80425017D01*
X182007941Y-80277932D01*
X182065330Y-80139381D01*
X182148647Y-80014689D01*
X182254689Y-79908647D01*
X182379381Y-79825330D01*
X182517932Y-79767941D01*
X182665017Y-79738684D01*
X182814983Y-79738684D01*
X182962068Y-79767941D01*
G37*
G36*
X119482068Y-77227941D02*
G01*
X119620619Y-77285330D01*
X119745311Y-77368647D01*
X119851353Y-77474689D01*
X119934670Y-77599381D01*
X119992059Y-77737932D01*
X120021316Y-77885017D01*
X120021316Y-78034983D01*
X119992059Y-78182068D01*
X119934670Y-78320619D01*
X119851353Y-78445311D01*
X119745311Y-78551353D01*
X119620619Y-78634670D01*
X119482068Y-78692059D01*
X119334983Y-78721316D01*
X119185017Y-78721316D01*
X119037932Y-78692059D01*
X118899381Y-78634670D01*
X118774689Y-78551353D01*
X118668647Y-78445311D01*
X118585330Y-78320619D01*
X118527941Y-78182068D01*
X118498684Y-78034983D01*
X118498684Y-77885017D01*
X118527941Y-77737932D01*
X118585330Y-77599381D01*
X118668647Y-77474689D01*
X118774689Y-77368647D01*
X118899381Y-77285330D01*
X119037932Y-77227941D01*
X119185017Y-77198684D01*
X119334983Y-77198684D01*
X119482068Y-77227941D01*
G37*
G36*
X122022068Y-77227941D02*
G01*
X122160619Y-77285330D01*
X122285311Y-77368647D01*
X122391353Y-77474689D01*
X122474670Y-77599381D01*
X122532059Y-77737932D01*
X122561316Y-77885017D01*
X122561316Y-78034983D01*
X122532059Y-78182068D01*
X122474670Y-78320619D01*
X122391353Y-78445311D01*
X122285311Y-78551353D01*
X122160619Y-78634670D01*
X122022068Y-78692059D01*
X121874983Y-78721316D01*
X121725017Y-78721316D01*
X121577932Y-78692059D01*
X121439381Y-78634670D01*
X121314689Y-78551353D01*
X121208647Y-78445311D01*
X121125330Y-78320619D01*
X121067941Y-78182068D01*
X121038684Y-78034983D01*
X121038684Y-77885017D01*
X121067941Y-77737932D01*
X121125330Y-77599381D01*
X121208647Y-77474689D01*
X121314689Y-77368647D01*
X121439381Y-77285330D01*
X121577932Y-77227941D01*
X121725017Y-77198684D01*
X121874983Y-77198684D01*
X122022068Y-77227941D01*
G37*
G36*
X180422068Y-77227941D02*
G01*
X180560619Y-77285330D01*
X180685311Y-77368647D01*
X180791353Y-77474689D01*
X180874670Y-77599381D01*
X180932059Y-77737932D01*
X180961316Y-77885017D01*
X180961316Y-78034983D01*
X180932059Y-78182068D01*
X180874670Y-78320619D01*
X180791353Y-78445311D01*
X180685311Y-78551353D01*
X180560619Y-78634670D01*
X180422068Y-78692059D01*
X180274983Y-78721316D01*
X180125017Y-78721316D01*
X179977932Y-78692059D01*
X179839381Y-78634670D01*
X179714689Y-78551353D01*
X179608647Y-78445311D01*
X179525330Y-78320619D01*
X179467941Y-78182068D01*
X179438684Y-78034983D01*
X179438684Y-77885017D01*
X179467941Y-77737932D01*
X179525330Y-77599381D01*
X179608647Y-77474689D01*
X179714689Y-77368647D01*
X179839381Y-77285330D01*
X179977932Y-77227941D01*
X180125017Y-77198684D01*
X180274983Y-77198684D01*
X180422068Y-77227941D01*
G37*
G36*
X182962068Y-77227941D02*
G01*
X183100619Y-77285330D01*
X183225311Y-77368647D01*
X183331353Y-77474689D01*
X183414670Y-77599381D01*
X183472059Y-77737932D01*
X183501316Y-77885017D01*
X183501316Y-78034983D01*
X183472059Y-78182068D01*
X183414670Y-78320619D01*
X183331353Y-78445311D01*
X183225311Y-78551353D01*
X183100619Y-78634670D01*
X182962068Y-78692059D01*
X182814983Y-78721316D01*
X182665017Y-78721316D01*
X182517932Y-78692059D01*
X182379381Y-78634670D01*
X182254689Y-78551353D01*
X182148647Y-78445311D01*
X182065330Y-78320619D01*
X182007941Y-78182068D01*
X181978684Y-78034983D01*
X181978684Y-77885017D01*
X182007941Y-77737932D01*
X182065330Y-77599381D01*
X182148647Y-77474689D01*
X182254689Y-77368647D01*
X182379381Y-77285330D01*
X182517932Y-77227941D01*
X182665017Y-77198684D01*
X182814983Y-77198684D01*
X182962068Y-77227941D01*
G37*
G36*
X119482068Y-74687941D02*
G01*
X119620619Y-74745330D01*
X119745311Y-74828647D01*
X119851353Y-74934689D01*
X119934670Y-75059381D01*
X119992059Y-75197932D01*
X120021316Y-75345017D01*
X120021316Y-75494983D01*
X119992059Y-75642068D01*
X119934670Y-75780619D01*
X119851353Y-75905311D01*
X119745311Y-76011353D01*
X119620619Y-76094670D01*
X119482068Y-76152059D01*
X119334983Y-76181316D01*
X119185017Y-76181316D01*
X119037932Y-76152059D01*
X118899381Y-76094670D01*
X118774689Y-76011353D01*
X118668647Y-75905311D01*
X118585330Y-75780619D01*
X118527941Y-75642068D01*
X118498684Y-75494983D01*
X118498684Y-75345017D01*
X118527941Y-75197932D01*
X118585330Y-75059381D01*
X118668647Y-74934689D01*
X118774689Y-74828647D01*
X118899381Y-74745330D01*
X119037932Y-74687941D01*
X119185017Y-74658684D01*
X119334983Y-74658684D01*
X119482068Y-74687941D01*
G37*
G36*
X122022068Y-74687941D02*
G01*
X122160619Y-74745330D01*
X122285311Y-74828647D01*
X122391353Y-74934689D01*
X122474670Y-75059381D01*
X122532059Y-75197932D01*
X122561316Y-75345017D01*
X122561316Y-75494983D01*
X122532059Y-75642068D01*
X122474670Y-75780619D01*
X122391353Y-75905311D01*
X122285311Y-76011353D01*
X122160619Y-76094670D01*
X122022068Y-76152059D01*
X121874983Y-76181316D01*
X121725017Y-76181316D01*
X121577932Y-76152059D01*
X121439381Y-76094670D01*
X121314689Y-76011353D01*
X121208647Y-75905311D01*
X121125330Y-75780619D01*
X121067941Y-75642068D01*
X121038684Y-75494983D01*
X121038684Y-75345017D01*
X121067941Y-75197932D01*
X121125330Y-75059381D01*
X121208647Y-74934689D01*
X121314689Y-74828647D01*
X121439381Y-74745330D01*
X121577932Y-74687941D01*
X121725017Y-74658684D01*
X121874983Y-74658684D01*
X122022068Y-74687941D01*
G37*
G36*
X180422068Y-74687941D02*
G01*
X180560619Y-74745330D01*
X180685311Y-74828647D01*
X180791353Y-74934689D01*
X180874670Y-75059381D01*
X180932059Y-75197932D01*
X180961316Y-75345017D01*
X180961316Y-75494983D01*
X180932059Y-75642068D01*
X180874670Y-75780619D01*
X180791353Y-75905311D01*
X180685311Y-76011353D01*
X180560619Y-76094670D01*
X180422068Y-76152059D01*
X180274983Y-76181316D01*
X180125017Y-76181316D01*
X179977932Y-76152059D01*
X179839381Y-76094670D01*
X179714689Y-76011353D01*
X179608647Y-75905311D01*
X179525330Y-75780619D01*
X179467941Y-75642068D01*
X179438684Y-75494983D01*
X179438684Y-75345017D01*
X179467941Y-75197932D01*
X179525330Y-75059381D01*
X179608647Y-74934689D01*
X179714689Y-74828647D01*
X179839381Y-74745330D01*
X179977932Y-74687941D01*
X180125017Y-74658684D01*
X180274983Y-74658684D01*
X180422068Y-74687941D01*
G37*
G36*
X182962068Y-74687941D02*
G01*
X183100619Y-74745330D01*
X183225311Y-74828647D01*
X183331353Y-74934689D01*
X183414670Y-75059381D01*
X183472059Y-75197932D01*
X183501316Y-75345017D01*
X183501316Y-75494983D01*
X183472059Y-75642068D01*
X183414670Y-75780619D01*
X183331353Y-75905311D01*
X183225311Y-76011353D01*
X183100619Y-76094670D01*
X182962068Y-76152059D01*
X182814983Y-76181316D01*
X182665017Y-76181316D01*
X182517932Y-76152059D01*
X182379381Y-76094670D01*
X182254689Y-76011353D01*
X182148647Y-75905311D01*
X182065330Y-75780619D01*
X182007941Y-75642068D01*
X181978684Y-75494983D01*
X181978684Y-75345017D01*
X182007941Y-75197932D01*
X182065330Y-75059381D01*
X182148647Y-74934689D01*
X182254689Y-74828647D01*
X182379381Y-74745330D01*
X182517932Y-74687941D01*
X182665017Y-74658684D01*
X182814983Y-74658684D01*
X182962068Y-74687941D01*
G37*
G36*
X119482068Y-72147941D02*
G01*
X119620619Y-72205330D01*
X119745311Y-72288647D01*
X119851353Y-72394689D01*
X119934670Y-72519381D01*
X119992059Y-72657932D01*
X120021316Y-72805017D01*
X120021316Y-72954983D01*
X119992059Y-73102068D01*
X119934670Y-73240619D01*
X119851353Y-73365311D01*
X119745311Y-73471353D01*
X119620619Y-73554670D01*
X119482068Y-73612059D01*
X119334983Y-73641316D01*
X119185017Y-73641316D01*
X119037932Y-73612059D01*
X118899381Y-73554670D01*
X118774689Y-73471353D01*
X118668647Y-73365311D01*
X118585330Y-73240619D01*
X118527941Y-73102068D01*
X118498684Y-72954983D01*
X118498684Y-72805017D01*
X118527941Y-72657932D01*
X118585330Y-72519381D01*
X118668647Y-72394689D01*
X118774689Y-72288647D01*
X118899381Y-72205330D01*
X119037932Y-72147941D01*
X119185017Y-72118684D01*
X119334983Y-72118684D01*
X119482068Y-72147941D01*
G37*
G36*
X122022068Y-72147941D02*
G01*
X122160619Y-72205330D01*
X122285311Y-72288647D01*
X122391353Y-72394689D01*
X122474670Y-72519381D01*
X122532059Y-72657932D01*
X122561316Y-72805017D01*
X122561316Y-72954983D01*
X122532059Y-73102068D01*
X122474670Y-73240619D01*
X122391353Y-73365311D01*
X122285311Y-73471353D01*
X122160619Y-73554670D01*
X122022068Y-73612059D01*
X121874983Y-73641316D01*
X121725017Y-73641316D01*
X121577932Y-73612059D01*
X121439381Y-73554670D01*
X121314689Y-73471353D01*
X121208647Y-73365311D01*
X121125330Y-73240619D01*
X121067941Y-73102068D01*
X121038684Y-72954983D01*
X121038684Y-72805017D01*
X121067941Y-72657932D01*
X121125330Y-72519381D01*
X121208647Y-72394689D01*
X121314689Y-72288647D01*
X121439381Y-72205330D01*
X121577932Y-72147941D01*
X121725017Y-72118684D01*
X121874983Y-72118684D01*
X122022068Y-72147941D01*
G37*
G36*
X180422068Y-72147941D02*
G01*
X180560619Y-72205330D01*
X180685311Y-72288647D01*
X180791353Y-72394689D01*
X180874670Y-72519381D01*
X180932059Y-72657932D01*
X180961316Y-72805017D01*
X180961316Y-72954983D01*
X180932059Y-73102068D01*
X180874670Y-73240619D01*
X180791353Y-73365311D01*
X180685311Y-73471353D01*
X180560619Y-73554670D01*
X180422068Y-73612059D01*
X180274983Y-73641316D01*
X180125017Y-73641316D01*
X179977932Y-73612059D01*
X179839381Y-73554670D01*
X179714689Y-73471353D01*
X179608647Y-73365311D01*
X179525330Y-73240619D01*
X179467941Y-73102068D01*
X179438684Y-72954983D01*
X179438684Y-72805017D01*
X179467941Y-72657932D01*
X179525330Y-72519381D01*
X179608647Y-72394689D01*
X179714689Y-72288647D01*
X179839381Y-72205330D01*
X179977932Y-72147941D01*
X180125017Y-72118684D01*
X180274983Y-72118684D01*
X180422068Y-72147941D01*
G37*
G36*
X182962068Y-72147941D02*
G01*
X183100619Y-72205330D01*
X183225311Y-72288647D01*
X183331353Y-72394689D01*
X183414670Y-72519381D01*
X183472059Y-72657932D01*
X183501316Y-72805017D01*
X183501316Y-72954983D01*
X183472059Y-73102068D01*
X183414670Y-73240619D01*
X183331353Y-73365311D01*
X183225311Y-73471353D01*
X183100619Y-73554670D01*
X182962068Y-73612059D01*
X182814983Y-73641316D01*
X182665017Y-73641316D01*
X182517932Y-73612059D01*
X182379381Y-73554670D01*
X182254689Y-73471353D01*
X182148647Y-73365311D01*
X182065330Y-73240619D01*
X182007941Y-73102068D01*
X181978684Y-72954983D01*
X181978684Y-72805017D01*
X182007941Y-72657932D01*
X182065330Y-72519381D01*
X182148647Y-72394689D01*
X182254689Y-72288647D01*
X182379381Y-72205330D01*
X182517932Y-72147941D01*
X182665017Y-72118684D01*
X182814983Y-72118684D01*
X182962068Y-72147941D01*
G37*
G36*
X119482068Y-69607941D02*
G01*
X119620619Y-69665330D01*
X119745311Y-69748647D01*
X119851353Y-69854689D01*
X119934670Y-69979381D01*
X119992059Y-70117932D01*
X120021316Y-70265017D01*
X120021316Y-70414983D01*
X119992059Y-70562068D01*
X119934670Y-70700619D01*
X119851353Y-70825311D01*
X119745311Y-70931353D01*
X119620619Y-71014670D01*
X119482068Y-71072059D01*
X119334983Y-71101316D01*
X119185017Y-71101316D01*
X119037932Y-71072059D01*
X118899381Y-71014670D01*
X118774689Y-70931353D01*
X118668647Y-70825311D01*
X118585330Y-70700619D01*
X118527941Y-70562068D01*
X118498684Y-70414983D01*
X118498684Y-70265017D01*
X118527941Y-70117932D01*
X118585330Y-69979381D01*
X118668647Y-69854689D01*
X118774689Y-69748647D01*
X118899381Y-69665330D01*
X119037932Y-69607941D01*
X119185017Y-69578684D01*
X119334983Y-69578684D01*
X119482068Y-69607941D01*
G37*
G36*
X122022068Y-69607941D02*
G01*
X122160619Y-69665330D01*
X122285311Y-69748647D01*
X122391353Y-69854689D01*
X122474670Y-69979381D01*
X122532059Y-70117932D01*
X122561316Y-70265017D01*
X122561316Y-70414983D01*
X122532059Y-70562068D01*
X122474670Y-70700619D01*
X122391353Y-70825311D01*
X122285311Y-70931353D01*
X122160619Y-71014670D01*
X122022068Y-71072059D01*
X121874983Y-71101316D01*
X121725017Y-71101316D01*
X121577932Y-71072059D01*
X121439381Y-71014670D01*
X121314689Y-70931353D01*
X121208647Y-70825311D01*
X121125330Y-70700619D01*
X121067941Y-70562068D01*
X121038684Y-70414983D01*
X121038684Y-70265017D01*
X121067941Y-70117932D01*
X121125330Y-69979381D01*
X121208647Y-69854689D01*
X121314689Y-69748647D01*
X121439381Y-69665330D01*
X121577932Y-69607941D01*
X121725017Y-69578684D01*
X121874983Y-69578684D01*
X122022068Y-69607941D01*
G37*
G36*
X180422068Y-69607941D02*
G01*
X180560619Y-69665330D01*
X180685311Y-69748647D01*
X180791353Y-69854689D01*
X180874670Y-69979381D01*
X180932059Y-70117932D01*
X180961316Y-70265017D01*
X180961316Y-70414983D01*
X180932059Y-70562068D01*
X180874670Y-70700619D01*
X180791353Y-70825311D01*
X180685311Y-70931353D01*
X180560619Y-71014670D01*
X180422068Y-71072059D01*
X180274983Y-71101316D01*
X180125017Y-71101316D01*
X179977932Y-71072059D01*
X179839381Y-71014670D01*
X179714689Y-70931353D01*
X179608647Y-70825311D01*
X179525330Y-70700619D01*
X179467941Y-70562068D01*
X179438684Y-70414983D01*
X179438684Y-70265017D01*
X179467941Y-70117932D01*
X179525330Y-69979381D01*
X179608647Y-69854689D01*
X179714689Y-69748647D01*
X179839381Y-69665330D01*
X179977932Y-69607941D01*
X180125017Y-69578684D01*
X180274983Y-69578684D01*
X180422068Y-69607941D01*
G37*
G36*
X182962068Y-69607941D02*
G01*
X183100619Y-69665330D01*
X183225311Y-69748647D01*
X183331353Y-69854689D01*
X183414670Y-69979381D01*
X183472059Y-70117932D01*
X183501316Y-70265017D01*
X183501316Y-70414983D01*
X183472059Y-70562068D01*
X183414670Y-70700619D01*
X183331353Y-70825311D01*
X183225311Y-70931353D01*
X183100619Y-71014670D01*
X182962068Y-71072059D01*
X182814983Y-71101316D01*
X182665017Y-71101316D01*
X182517932Y-71072059D01*
X182379381Y-71014670D01*
X182254689Y-70931353D01*
X182148647Y-70825311D01*
X182065330Y-70700619D01*
X182007941Y-70562068D01*
X181978684Y-70414983D01*
X181978684Y-70265017D01*
X182007941Y-70117932D01*
X182065330Y-69979381D01*
X182148647Y-69854689D01*
X182254689Y-69748647D01*
X182379381Y-69665330D01*
X182517932Y-69607941D01*
X182665017Y-69578684D01*
X182814983Y-69578684D01*
X182962068Y-69607941D01*
G37*
G36*
X119482068Y-67067941D02*
G01*
X119620619Y-67125330D01*
X119745311Y-67208647D01*
X119851353Y-67314689D01*
X119934670Y-67439381D01*
X119992059Y-67577932D01*
X120021316Y-67725017D01*
X120021316Y-67874983D01*
X119992059Y-68022068D01*
X119934670Y-68160619D01*
X119851353Y-68285311D01*
X119745311Y-68391353D01*
X119620619Y-68474670D01*
X119482068Y-68532059D01*
X119334983Y-68561316D01*
X119185017Y-68561316D01*
X119037932Y-68532059D01*
X118899381Y-68474670D01*
X118774689Y-68391353D01*
X118668647Y-68285311D01*
X118585330Y-68160619D01*
X118527941Y-68022068D01*
X118498684Y-67874983D01*
X118498684Y-67725017D01*
X118527941Y-67577932D01*
X118585330Y-67439381D01*
X118668647Y-67314689D01*
X118774689Y-67208647D01*
X118899381Y-67125330D01*
X119037932Y-67067941D01*
X119185017Y-67038684D01*
X119334983Y-67038684D01*
X119482068Y-67067941D01*
G37*
G36*
X122022068Y-67067941D02*
G01*
X122160619Y-67125330D01*
X122285311Y-67208647D01*
X122391353Y-67314689D01*
X122474670Y-67439381D01*
X122532059Y-67577932D01*
X122561316Y-67725017D01*
X122561316Y-67874983D01*
X122532059Y-68022068D01*
X122474670Y-68160619D01*
X122391353Y-68285311D01*
X122285311Y-68391353D01*
X122160619Y-68474670D01*
X122022068Y-68532059D01*
X121874983Y-68561316D01*
X121725017Y-68561316D01*
X121577932Y-68532059D01*
X121439381Y-68474670D01*
X121314689Y-68391353D01*
X121208647Y-68285311D01*
X121125330Y-68160619D01*
X121067941Y-68022068D01*
X121038684Y-67874983D01*
X121038684Y-67725017D01*
X121067941Y-67577932D01*
X121125330Y-67439381D01*
X121208647Y-67314689D01*
X121314689Y-67208647D01*
X121439381Y-67125330D01*
X121577932Y-67067941D01*
X121725017Y-67038684D01*
X121874983Y-67038684D01*
X122022068Y-67067941D01*
G37*
G36*
X180422068Y-67067941D02*
G01*
X180560619Y-67125330D01*
X180685311Y-67208647D01*
X180791353Y-67314689D01*
X180874670Y-67439381D01*
X180932059Y-67577932D01*
X180961316Y-67725017D01*
X180961316Y-67874983D01*
X180932059Y-68022068D01*
X180874670Y-68160619D01*
X180791353Y-68285311D01*
X180685311Y-68391353D01*
X180560619Y-68474670D01*
X180422068Y-68532059D01*
X180274983Y-68561316D01*
X180125017Y-68561316D01*
X179977932Y-68532059D01*
X179839381Y-68474670D01*
X179714689Y-68391353D01*
X179608647Y-68285311D01*
X179525330Y-68160619D01*
X179467941Y-68022068D01*
X179438684Y-67874983D01*
X179438684Y-67725017D01*
X179467941Y-67577932D01*
X179525330Y-67439381D01*
X179608647Y-67314689D01*
X179714689Y-67208647D01*
X179839381Y-67125330D01*
X179977932Y-67067941D01*
X180125017Y-67038684D01*
X180274983Y-67038684D01*
X180422068Y-67067941D01*
G37*
G36*
X182962068Y-67067941D02*
G01*
X183100619Y-67125330D01*
X183225311Y-67208647D01*
X183331353Y-67314689D01*
X183414670Y-67439381D01*
X183472059Y-67577932D01*
X183501316Y-67725017D01*
X183501316Y-67874983D01*
X183472059Y-68022068D01*
X183414670Y-68160619D01*
X183331353Y-68285311D01*
X183225311Y-68391353D01*
X183100619Y-68474670D01*
X182962068Y-68532059D01*
X182814983Y-68561316D01*
X182665017Y-68561316D01*
X182517932Y-68532059D01*
X182379381Y-68474670D01*
X182254689Y-68391353D01*
X182148647Y-68285311D01*
X182065330Y-68160619D01*
X182007941Y-68022068D01*
X181978684Y-67874983D01*
X181978684Y-67725017D01*
X182007941Y-67577932D01*
X182065330Y-67439381D01*
X182148647Y-67314689D01*
X182254689Y-67208647D01*
X182379381Y-67125330D01*
X182517932Y-67067941D01*
X182665017Y-67038684D01*
X182814983Y-67038684D01*
X182962068Y-67067941D01*
G37*
G36*
X119482068Y-64527941D02*
G01*
X119620619Y-64585330D01*
X119745311Y-64668647D01*
X119851353Y-64774689D01*
X119934670Y-64899381D01*
X119992059Y-65037932D01*
X120021316Y-65185017D01*
X120021316Y-65334983D01*
X119992059Y-65482068D01*
X119934670Y-65620619D01*
X119851353Y-65745311D01*
X119745311Y-65851353D01*
X119620619Y-65934670D01*
X119482068Y-65992059D01*
X119334983Y-66021316D01*
X119185017Y-66021316D01*
X119037932Y-65992059D01*
X118899381Y-65934670D01*
X118774689Y-65851353D01*
X118668647Y-65745311D01*
X118585330Y-65620619D01*
X118527941Y-65482068D01*
X118498684Y-65334983D01*
X118498684Y-65185017D01*
X118527941Y-65037932D01*
X118585330Y-64899381D01*
X118668647Y-64774689D01*
X118774689Y-64668647D01*
X118899381Y-64585330D01*
X119037932Y-64527941D01*
X119185017Y-64498684D01*
X119334983Y-64498684D01*
X119482068Y-64527941D01*
G37*
G36*
X122022068Y-64527941D02*
G01*
X122160619Y-64585330D01*
X122285311Y-64668647D01*
X122391353Y-64774689D01*
X122474670Y-64899381D01*
X122532059Y-65037932D01*
X122561316Y-65185017D01*
X122561316Y-65334983D01*
X122532059Y-65482068D01*
X122474670Y-65620619D01*
X122391353Y-65745311D01*
X122285311Y-65851353D01*
X122160619Y-65934670D01*
X122022068Y-65992059D01*
X121874983Y-66021316D01*
X121725017Y-66021316D01*
X121577932Y-65992059D01*
X121439381Y-65934670D01*
X121314689Y-65851353D01*
X121208647Y-65745311D01*
X121125330Y-65620619D01*
X121067941Y-65482068D01*
X121038684Y-65334983D01*
X121038684Y-65185017D01*
X121067941Y-65037932D01*
X121125330Y-64899381D01*
X121208647Y-64774689D01*
X121314689Y-64668647D01*
X121439381Y-64585330D01*
X121577932Y-64527941D01*
X121725017Y-64498684D01*
X121874983Y-64498684D01*
X122022068Y-64527941D01*
G37*
G36*
X180422068Y-64527941D02*
G01*
X180560619Y-64585330D01*
X180685311Y-64668647D01*
X180791353Y-64774689D01*
X180874670Y-64899381D01*
X180932059Y-65037932D01*
X180961316Y-65185017D01*
X180961316Y-65334983D01*
X180932059Y-65482068D01*
X180874670Y-65620619D01*
X180791353Y-65745311D01*
X180685311Y-65851353D01*
X180560619Y-65934670D01*
X180422068Y-65992059D01*
X180274983Y-66021316D01*
X180125017Y-66021316D01*
X179977932Y-65992059D01*
X179839381Y-65934670D01*
X179714689Y-65851353D01*
X179608647Y-65745311D01*
X179525330Y-65620619D01*
X179467941Y-65482068D01*
X179438684Y-65334983D01*
X179438684Y-65185017D01*
X179467941Y-65037932D01*
X179525330Y-64899381D01*
X179608647Y-64774689D01*
X179714689Y-64668647D01*
X179839381Y-64585330D01*
X179977932Y-64527941D01*
X180125017Y-64498684D01*
X180274983Y-64498684D01*
X180422068Y-64527941D01*
G37*
G36*
X182962068Y-64527941D02*
G01*
X183100619Y-64585330D01*
X183225311Y-64668647D01*
X183331353Y-64774689D01*
X183414670Y-64899381D01*
X183472059Y-65037932D01*
X183501316Y-65185017D01*
X183501316Y-65334983D01*
X183472059Y-65482068D01*
X183414670Y-65620619D01*
X183331353Y-65745311D01*
X183225311Y-65851353D01*
X183100619Y-65934670D01*
X182962068Y-65992059D01*
X182814983Y-66021316D01*
X182665017Y-66021316D01*
X182517932Y-65992059D01*
X182379381Y-65934670D01*
X182254689Y-65851353D01*
X182148647Y-65745311D01*
X182065330Y-65620619D01*
X182007941Y-65482068D01*
X181978684Y-65334983D01*
X181978684Y-65185017D01*
X182007941Y-65037932D01*
X182065330Y-64899381D01*
X182148647Y-64774689D01*
X182254689Y-64668647D01*
X182379381Y-64585330D01*
X182517932Y-64527941D01*
X182665017Y-64498684D01*
X182814983Y-64498684D01*
X182962068Y-64527941D01*
G37*
G36*
X119482068Y-61987941D02*
G01*
X119620619Y-62045330D01*
X119745311Y-62128647D01*
X119851353Y-62234689D01*
X119934670Y-62359381D01*
X119992059Y-62497932D01*
X120021316Y-62645017D01*
X120021316Y-62794983D01*
X119992059Y-62942068D01*
X119934670Y-63080619D01*
X119851353Y-63205311D01*
X119745311Y-63311353D01*
X119620619Y-63394670D01*
X119482068Y-63452059D01*
X119334983Y-63481316D01*
X119185017Y-63481316D01*
X119037932Y-63452059D01*
X118899381Y-63394670D01*
X118774689Y-63311353D01*
X118668647Y-63205311D01*
X118585330Y-63080619D01*
X118527941Y-62942068D01*
X118498684Y-62794983D01*
X118498684Y-62645017D01*
X118527941Y-62497932D01*
X118585330Y-62359381D01*
X118668647Y-62234689D01*
X118774689Y-62128647D01*
X118899381Y-62045330D01*
X119037932Y-61987941D01*
X119185017Y-61958684D01*
X119334983Y-61958684D01*
X119482068Y-61987941D01*
G37*
G36*
X122022068Y-61987941D02*
G01*
X122160619Y-62045330D01*
X122285311Y-62128647D01*
X122391353Y-62234689D01*
X122474670Y-62359381D01*
X122532059Y-62497932D01*
X122561316Y-62645017D01*
X122561316Y-62794983D01*
X122532059Y-62942068D01*
X122474670Y-63080619D01*
X122391353Y-63205311D01*
X122285311Y-63311353D01*
X122160619Y-63394670D01*
X122022068Y-63452059D01*
X121874983Y-63481316D01*
X121725017Y-63481316D01*
X121577932Y-63452059D01*
X121439381Y-63394670D01*
X121314689Y-63311353D01*
X121208647Y-63205311D01*
X121125330Y-63080619D01*
X121067941Y-62942068D01*
X121038684Y-62794983D01*
X121038684Y-62645017D01*
X121067941Y-62497932D01*
X121125330Y-62359381D01*
X121208647Y-62234689D01*
X121314689Y-62128647D01*
X121439381Y-62045330D01*
X121577932Y-61987941D01*
X121725017Y-61958684D01*
X121874983Y-61958684D01*
X122022068Y-61987941D01*
G37*
G36*
X180422068Y-61987941D02*
G01*
X180560619Y-62045330D01*
X180685311Y-62128647D01*
X180791353Y-62234689D01*
X180874670Y-62359381D01*
X180932059Y-62497932D01*
X180961316Y-62645017D01*
X180961316Y-62794983D01*
X180932059Y-62942068D01*
X180874670Y-63080619D01*
X180791353Y-63205311D01*
X180685311Y-63311353D01*
X180560619Y-63394670D01*
X180422068Y-63452059D01*
X180274983Y-63481316D01*
X180125017Y-63481316D01*
X179977932Y-63452059D01*
X179839381Y-63394670D01*
X179714689Y-63311353D01*
X179608647Y-63205311D01*
X179525330Y-63080619D01*
X179467941Y-62942068D01*
X179438684Y-62794983D01*
X179438684Y-62645017D01*
X179467941Y-62497932D01*
X179525330Y-62359381D01*
X179608647Y-62234689D01*
X179714689Y-62128647D01*
X179839381Y-62045330D01*
X179977932Y-61987941D01*
X180125017Y-61958684D01*
X180274983Y-61958684D01*
X180422068Y-61987941D01*
G37*
G36*
X182962068Y-61987941D02*
G01*
X183100619Y-62045330D01*
X183225311Y-62128647D01*
X183331353Y-62234689D01*
X183414670Y-62359381D01*
X183472059Y-62497932D01*
X183501316Y-62645017D01*
X183501316Y-62794983D01*
X183472059Y-62942068D01*
X183414670Y-63080619D01*
X183331353Y-63205311D01*
X183225311Y-63311353D01*
X183100619Y-63394670D01*
X182962068Y-63452059D01*
X182814983Y-63481316D01*
X182665017Y-63481316D01*
X182517932Y-63452059D01*
X182379381Y-63394670D01*
X182254689Y-63311353D01*
X182148647Y-63205311D01*
X182065330Y-63080619D01*
X182007941Y-62942068D01*
X181978684Y-62794983D01*
X181978684Y-62645017D01*
X182007941Y-62497932D01*
X182065330Y-62359381D01*
X182148647Y-62234689D01*
X182254689Y-62128647D01*
X182379381Y-62045330D01*
X182517932Y-61987941D01*
X182665017Y-61958684D01*
X182814983Y-61958684D01*
X182962068Y-61987941D01*
G37*
G36*
X119482068Y-59447941D02*
G01*
X119620619Y-59505330D01*
X119745311Y-59588647D01*
X119851353Y-59694689D01*
X119934670Y-59819381D01*
X119992059Y-59957932D01*
X120021316Y-60105017D01*
X120021316Y-60254983D01*
X119992059Y-60402068D01*
X119934670Y-60540619D01*
X119851353Y-60665311D01*
X119745311Y-60771353D01*
X119620619Y-60854670D01*
X119482068Y-60912059D01*
X119334983Y-60941316D01*
X119185017Y-60941316D01*
X119037932Y-60912059D01*
X118899381Y-60854670D01*
X118774689Y-60771353D01*
X118668647Y-60665311D01*
X118585330Y-60540619D01*
X118527941Y-60402068D01*
X118498684Y-60254983D01*
X118498684Y-60105017D01*
X118527941Y-59957932D01*
X118585330Y-59819381D01*
X118668647Y-59694689D01*
X118774689Y-59588647D01*
X118899381Y-59505330D01*
X119037932Y-59447941D01*
X119185017Y-59418684D01*
X119334983Y-59418684D01*
X119482068Y-59447941D01*
G37*
G36*
X122022068Y-59447941D02*
G01*
X122160619Y-59505330D01*
X122285311Y-59588647D01*
X122391353Y-59694689D01*
X122474670Y-59819381D01*
X122532059Y-59957932D01*
X122561316Y-60105017D01*
X122561316Y-60254983D01*
X122532059Y-60402068D01*
X122474670Y-60540619D01*
X122391353Y-60665311D01*
X122285311Y-60771353D01*
X122160619Y-60854670D01*
X122022068Y-60912059D01*
X121874983Y-60941316D01*
X121725017Y-60941316D01*
X121577932Y-60912059D01*
X121439381Y-60854670D01*
X121314689Y-60771353D01*
X121208647Y-60665311D01*
X121125330Y-60540619D01*
X121067941Y-60402068D01*
X121038684Y-60254983D01*
X121038684Y-60105017D01*
X121067941Y-59957932D01*
X121125330Y-59819381D01*
X121208647Y-59694689D01*
X121314689Y-59588647D01*
X121439381Y-59505330D01*
X121577932Y-59447941D01*
X121725017Y-59418684D01*
X121874983Y-59418684D01*
X122022068Y-59447941D01*
G37*
G36*
X180422068Y-59447941D02*
G01*
X180560619Y-59505330D01*
X180685311Y-59588647D01*
X180791353Y-59694689D01*
X180874670Y-59819381D01*
X180932059Y-59957932D01*
X180961316Y-60105017D01*
X180961316Y-60254983D01*
X180932059Y-60402068D01*
X180874670Y-60540619D01*
X180791353Y-60665311D01*
X180685311Y-60771353D01*
X180560619Y-60854670D01*
X180422068Y-60912059D01*
X180274983Y-60941316D01*
X180125017Y-60941316D01*
X179977932Y-60912059D01*
X179839381Y-60854670D01*
X179714689Y-60771353D01*
X179608647Y-60665311D01*
X179525330Y-60540619D01*
X179467941Y-60402068D01*
X179438684Y-60254983D01*
X179438684Y-60105017D01*
X179467941Y-59957932D01*
X179525330Y-59819381D01*
X179608647Y-59694689D01*
X179714689Y-59588647D01*
X179839381Y-59505330D01*
X179977932Y-59447941D01*
X180125017Y-59418684D01*
X180274983Y-59418684D01*
X180422068Y-59447941D01*
G37*
G36*
X182962068Y-59447941D02*
G01*
X183100619Y-59505330D01*
X183225311Y-59588647D01*
X183331353Y-59694689D01*
X183414670Y-59819381D01*
X183472059Y-59957932D01*
X183501316Y-60105017D01*
X183501316Y-60254983D01*
X183472059Y-60402068D01*
X183414670Y-60540619D01*
X183331353Y-60665311D01*
X183225311Y-60771353D01*
X183100619Y-60854670D01*
X182962068Y-60912059D01*
X182814983Y-60941316D01*
X182665017Y-60941316D01*
X182517932Y-60912059D01*
X182379381Y-60854670D01*
X182254689Y-60771353D01*
X182148647Y-60665311D01*
X182065330Y-60540619D01*
X182007941Y-60402068D01*
X181978684Y-60254983D01*
X181978684Y-60105017D01*
X182007941Y-59957932D01*
X182065330Y-59819381D01*
X182148647Y-59694689D01*
X182254689Y-59588647D01*
X182379381Y-59505330D01*
X182517932Y-59447941D01*
X182665017Y-59418684D01*
X182814983Y-59418684D01*
X182962068Y-59447941D01*
G37*
G36*
X119482068Y-56907941D02*
G01*
X119620619Y-56965330D01*
X119745311Y-57048647D01*
X119851353Y-57154689D01*
X119934670Y-57279381D01*
X119992059Y-57417932D01*
X120021316Y-57565017D01*
X120021316Y-57714983D01*
X119992059Y-57862068D01*
X119934670Y-58000619D01*
X119851353Y-58125311D01*
X119745311Y-58231353D01*
X119620619Y-58314670D01*
X119482068Y-58372059D01*
X119334983Y-58401316D01*
X119185017Y-58401316D01*
X119037932Y-58372059D01*
X118899381Y-58314670D01*
X118774689Y-58231353D01*
X118668647Y-58125311D01*
X118585330Y-58000619D01*
X118527941Y-57862068D01*
X118498684Y-57714983D01*
X118498684Y-57565017D01*
X118527941Y-57417932D01*
X118585330Y-57279381D01*
X118668647Y-57154689D01*
X118774689Y-57048647D01*
X118899381Y-56965330D01*
X119037932Y-56907941D01*
X119185017Y-56878684D01*
X119334983Y-56878684D01*
X119482068Y-56907941D01*
G37*
G36*
X122022068Y-56907941D02*
G01*
X122160619Y-56965330D01*
X122285311Y-57048647D01*
X122391353Y-57154689D01*
X122474670Y-57279381D01*
X122532059Y-57417932D01*
X122561316Y-57565017D01*
X122561316Y-57714983D01*
X122532059Y-57862068D01*
X122474670Y-58000619D01*
X122391353Y-58125311D01*
X122285311Y-58231353D01*
X122160619Y-58314670D01*
X122022068Y-58372059D01*
X121874983Y-58401316D01*
X121725017Y-58401316D01*
X121577932Y-58372059D01*
X121439381Y-58314670D01*
X121314689Y-58231353D01*
X121208647Y-58125311D01*
X121125330Y-58000619D01*
X121067941Y-57862068D01*
X121038684Y-57714983D01*
X121038684Y-57565017D01*
X121067941Y-57417932D01*
X121125330Y-57279381D01*
X121208647Y-57154689D01*
X121314689Y-57048647D01*
X121439381Y-56965330D01*
X121577932Y-56907941D01*
X121725017Y-56878684D01*
X121874983Y-56878684D01*
X122022068Y-56907941D01*
G37*
G36*
X180422068Y-56907941D02*
G01*
X180560619Y-56965330D01*
X180685311Y-57048647D01*
X180791353Y-57154689D01*
X180874670Y-57279381D01*
X180932059Y-57417932D01*
X180961316Y-57565017D01*
X180961316Y-57714983D01*
X180932059Y-57862068D01*
X180874670Y-58000619D01*
X180791353Y-58125311D01*
X180685311Y-58231353D01*
X180560619Y-58314670D01*
X180422068Y-58372059D01*
X180274983Y-58401316D01*
X180125017Y-58401316D01*
X179977932Y-58372059D01*
X179839381Y-58314670D01*
X179714689Y-58231353D01*
X179608647Y-58125311D01*
X179525330Y-58000619D01*
X179467941Y-57862068D01*
X179438684Y-57714983D01*
X179438684Y-57565017D01*
X179467941Y-57417932D01*
X179525330Y-57279381D01*
X179608647Y-57154689D01*
X179714689Y-57048647D01*
X179839381Y-56965330D01*
X179977932Y-56907941D01*
X180125017Y-56878684D01*
X180274983Y-56878684D01*
X180422068Y-56907941D01*
G37*
G36*
X182962068Y-56907941D02*
G01*
X183100619Y-56965330D01*
X183225311Y-57048647D01*
X183331353Y-57154689D01*
X183414670Y-57279381D01*
X183472059Y-57417932D01*
X183501316Y-57565017D01*
X183501316Y-57714983D01*
X183472059Y-57862068D01*
X183414670Y-58000619D01*
X183331353Y-58125311D01*
X183225311Y-58231353D01*
X183100619Y-58314670D01*
X182962068Y-58372059D01*
X182814983Y-58401316D01*
X182665017Y-58401316D01*
X182517932Y-58372059D01*
X182379381Y-58314670D01*
X182254689Y-58231353D01*
X182148647Y-58125311D01*
X182065330Y-58000619D01*
X182007941Y-57862068D01*
X181978684Y-57714983D01*
X181978684Y-57565017D01*
X182007941Y-57417932D01*
X182065330Y-57279381D01*
X182148647Y-57154689D01*
X182254689Y-57048647D01*
X182379381Y-56965330D01*
X182517932Y-56907941D01*
X182665017Y-56878684D01*
X182814983Y-56878684D01*
X182962068Y-56907941D01*
G37*
G36*
X119482068Y-54367941D02*
G01*
X119620619Y-54425330D01*
X119745311Y-54508647D01*
X119851353Y-54614689D01*
X119934670Y-54739381D01*
X119992059Y-54877932D01*
X120021316Y-55025017D01*
X120021316Y-55174983D01*
X119992059Y-55322068D01*
X119934670Y-55460619D01*
X119851353Y-55585311D01*
X119745311Y-55691353D01*
X119620619Y-55774670D01*
X119482068Y-55832059D01*
X119334983Y-55861316D01*
X119185017Y-55861316D01*
X119037932Y-55832059D01*
X118899381Y-55774670D01*
X118774689Y-55691353D01*
X118668647Y-55585311D01*
X118585330Y-55460619D01*
X118527941Y-55322068D01*
X118498684Y-55174983D01*
X118498684Y-55025017D01*
X118527941Y-54877932D01*
X118585330Y-54739381D01*
X118668647Y-54614689D01*
X118774689Y-54508647D01*
X118899381Y-54425330D01*
X119037932Y-54367941D01*
X119185017Y-54338684D01*
X119334983Y-54338684D01*
X119482068Y-54367941D01*
G37*
G36*
X122022068Y-54367941D02*
G01*
X122160619Y-54425330D01*
X122285311Y-54508647D01*
X122391353Y-54614689D01*
X122474670Y-54739381D01*
X122532059Y-54877932D01*
X122561316Y-55025017D01*
X122561316Y-55174983D01*
X122532059Y-55322068D01*
X122474670Y-55460619D01*
X122391353Y-55585311D01*
X122285311Y-55691353D01*
X122160619Y-55774670D01*
X122022068Y-55832059D01*
X121874983Y-55861316D01*
X121725017Y-55861316D01*
X121577932Y-55832059D01*
X121439381Y-55774670D01*
X121314689Y-55691353D01*
X121208647Y-55585311D01*
X121125330Y-55460619D01*
X121067941Y-55322068D01*
X121038684Y-55174983D01*
X121038684Y-55025017D01*
X121067941Y-54877932D01*
X121125330Y-54739381D01*
X121208647Y-54614689D01*
X121314689Y-54508647D01*
X121439381Y-54425330D01*
X121577932Y-54367941D01*
X121725017Y-54338684D01*
X121874983Y-54338684D01*
X122022068Y-54367941D01*
G37*
G36*
X180422068Y-54367941D02*
G01*
X180560619Y-54425330D01*
X180685311Y-54508647D01*
X180791353Y-54614689D01*
X180874670Y-54739381D01*
X180932059Y-54877932D01*
X180961316Y-55025017D01*
X180961316Y-55174983D01*
X180932059Y-55322068D01*
X180874670Y-55460619D01*
X180791353Y-55585311D01*
X180685311Y-55691353D01*
X180560619Y-55774670D01*
X180422068Y-55832059D01*
X180274983Y-55861316D01*
X180125017Y-55861316D01*
X179977932Y-55832059D01*
X179839381Y-55774670D01*
X179714689Y-55691353D01*
X179608647Y-55585311D01*
X179525330Y-55460619D01*
X179467941Y-55322068D01*
X179438684Y-55174983D01*
X179438684Y-55025017D01*
X179467941Y-54877932D01*
X179525330Y-54739381D01*
X179608647Y-54614689D01*
X179714689Y-54508647D01*
X179839381Y-54425330D01*
X179977932Y-54367941D01*
X180125017Y-54338684D01*
X180274983Y-54338684D01*
X180422068Y-54367941D01*
G37*
G36*
X182962068Y-54367941D02*
G01*
X183100619Y-54425330D01*
X183225311Y-54508647D01*
X183331353Y-54614689D01*
X183414670Y-54739381D01*
X183472059Y-54877932D01*
X183501316Y-55025017D01*
X183501316Y-55174983D01*
X183472059Y-55322068D01*
X183414670Y-55460619D01*
X183331353Y-55585311D01*
X183225311Y-55691353D01*
X183100619Y-55774670D01*
X182962068Y-55832059D01*
X182814983Y-55861316D01*
X182665017Y-55861316D01*
X182517932Y-55832059D01*
X182379381Y-55774670D01*
X182254689Y-55691353D01*
X182148647Y-55585311D01*
X182065330Y-55460619D01*
X182007941Y-55322068D01*
X181978684Y-55174983D01*
X181978684Y-55025017D01*
X182007941Y-54877932D01*
X182065330Y-54739381D01*
X182148647Y-54614689D01*
X182254689Y-54508647D01*
X182379381Y-54425330D01*
X182517932Y-54367941D01*
X182665017Y-54338684D01*
X182814983Y-54338684D01*
X182962068Y-54367941D01*
G37*
G36*
X120025000Y-53325000D02*
G01*
X118495000Y-53325000D01*
X118495000Y-51795000D01*
X120025000Y-51795000D01*
X120025000Y-53325000D01*
G37*
G36*
X180965000Y-53325000D02*
G01*
X179435000Y-53325000D01*
X179435000Y-51795000D01*
X180965000Y-51795000D01*
X180965000Y-53325000D01*
G37*
G36*
X122022068Y-51827941D02*
G01*
X122160619Y-51885330D01*
X122285311Y-51968647D01*
X122391353Y-52074689D01*
X122474670Y-52199381D01*
X122532059Y-52337932D01*
X122561316Y-52485017D01*
X122561316Y-52634983D01*
X122532059Y-52782068D01*
X122474670Y-52920619D01*
X122391353Y-53045311D01*
X122285311Y-53151353D01*
X122160619Y-53234670D01*
X122022068Y-53292059D01*
X121874983Y-53321316D01*
X121725017Y-53321316D01*
X121577932Y-53292059D01*
X121439381Y-53234670D01*
X121314689Y-53151353D01*
X121208647Y-53045311D01*
X121125330Y-52920619D01*
X121067941Y-52782068D01*
X121038684Y-52634983D01*
X121038684Y-52485017D01*
X121067941Y-52337932D01*
X121125330Y-52199381D01*
X121208647Y-52074689D01*
X121314689Y-51968647D01*
X121439381Y-51885330D01*
X121577932Y-51827941D01*
X121725017Y-51798684D01*
X121874983Y-51798684D01*
X122022068Y-51827941D01*
G37*
G36*
X182962068Y-51827941D02*
G01*
X183100619Y-51885330D01*
X183225311Y-51968647D01*
X183331353Y-52074689D01*
X183414670Y-52199381D01*
X183472059Y-52337932D01*
X183501316Y-52485017D01*
X183501316Y-52634983D01*
X183472059Y-52782068D01*
X183414670Y-52920619D01*
X183331353Y-53045311D01*
X183225311Y-53151353D01*
X183100619Y-53234670D01*
X182962068Y-53292059D01*
X182814983Y-53321316D01*
X182665017Y-53321316D01*
X182517932Y-53292059D01*
X182379381Y-53234670D01*
X182254689Y-53151353D01*
X182148647Y-53045311D01*
X182065330Y-52920619D01*
X182007941Y-52782068D01*
X181978684Y-52634983D01*
X181978684Y-52485017D01*
X182007941Y-52337932D01*
X182065330Y-52199381D01*
X182148647Y-52074689D01*
X182254689Y-51968647D01*
X182379381Y-51885330D01*
X182517932Y-51827941D01*
X182665017Y-51798684D01*
X182814983Y-51798684D01*
X182962068Y-51827941D01*
G37*
M02*
