%TF.GenerationSoftware,KiCad,Pcbnew,9.0.7-9.0.7~ubuntu24.04.1*%
%TF.CreationDate,2026-01-13T16:36:11+01:00*%
%TF.ProjectId,analogIO,616e616c-6f67-4494-9f2e-6b696361645f,1.0*%
%TF.SameCoordinates,Original*%
%TF.FileFunction,Copper,L3,Inr*%
%TF.FilePolarity,Positive*%
%FSLAX46Y46*%
G04 Gerber Fmt 4.6, Leading zero omitted, Abs format (unit mm)*
G04 Created by KiCad (PCBNEW 9.0.7-9.0.7~ubuntu24.04.1) date 2026-01-13 16:36:11*
%MOMM*%
%LPD*%
G01*
G04 APERTURE LIST*
%TA.AperFunction,ComponentPad*%
%ADD10R,1.530000X1.530000*%
%TD*%
%TA.AperFunction,ComponentPad*%
%ADD11C,1.530000*%
%TD*%
%TA.AperFunction,ComponentPad*%
%ADD12R,1.650000X1.650000*%
%TD*%
%TA.AperFunction,ComponentPad*%
%ADD13C,1.650000*%
%TD*%
%TA.AperFunction,ViaPad*%
%ADD14C,0.500000*%
%TD*%
G04 APERTURE END LIST*
D10*
%TO.N,unconnected-(J4-Pin_1-Pad1)*%
%TO.C,J4*%
X180200000Y-52560000D03*
D11*
%TO.N,unconnected-(J4-Pin_2-Pad2)*%
X182740000Y-52560000D03*
%TO.N,unconnected-(J4-Pin_3-Pad3)*%
X180200000Y-55100000D03*
%TO.N,unconnected-(J4-Pin_4-Pad4)*%
X182740000Y-55100000D03*
%TO.N,unconnected-(J4-Pin_5-Pad5)*%
X180200000Y-57640000D03*
%TO.N,unconnected-(J4-Pin_6-Pad6)*%
X182740000Y-57640000D03*
%TO.N,unconnected-(J4-Pin_7-Pad7)*%
X180200000Y-60180000D03*
%TO.N,unconnected-(J4-Pin_8-Pad8)*%
X182740000Y-60180000D03*
%TO.N,GND*%
X180200000Y-62720000D03*
%TO.N,unconnected-(J4-Pin_10-Pad10)*%
X182740000Y-62720000D03*
%TO.N,AO_1*%
X180200000Y-65260000D03*
%TO.N,unconnected-(J4-Pin_12-Pad12)*%
X182740000Y-65260000D03*
%TO.N,unconnected-(J4-Pin_13-Pad13)*%
X180200000Y-67800000D03*
%TO.N,unconnected-(J4-Pin_14-Pad14)*%
X182740000Y-67800000D03*
%TO.N,unconnected-(J4-Pin_15-Pad15)*%
X180200000Y-70340000D03*
%TO.N,unconnected-(J4-Pin_16-Pad16)*%
X182740000Y-70340000D03*
%TO.N,unconnected-(J4-Pin_17-Pad17)*%
X180200000Y-72880000D03*
%TO.N,unconnected-(J4-Pin_18-Pad18)*%
X182740000Y-72880000D03*
%TO.N,unconnected-(J4-Pin_19-Pad19)*%
X180200000Y-75420000D03*
%TO.N,GND*%
X182740000Y-75420000D03*
%TO.N,unconnected-(J4-Pin_21-Pad21)*%
X180200000Y-77960000D03*
%TO.N,unconnected-(J4-Pin_22-Pad22)*%
X182740000Y-77960000D03*
%TO.N,unconnected-(J4-Pin_23-Pad23)*%
X180200000Y-80500000D03*
%TO.N,unconnected-(J4-Pin_24-Pad24)*%
X182740000Y-80500000D03*
%TO.N,unconnected-(J4-Pin_25-Pad25)*%
X180200000Y-83040000D03*
%TO.N,unconnected-(J4-Pin_26-Pad26)*%
X182740000Y-83040000D03*
%TO.N,unconnected-(J4-Pin_27-Pad27)*%
X180200000Y-85580000D03*
%TO.N,unconnected-(J4-Pin_28-Pad28)*%
X182740000Y-85580000D03*
%TO.N,unconnected-(J4-Pin_29-Pad29)*%
X180200000Y-88120000D03*
%TO.N,unconnected-(J4-Pin_30-Pad30)*%
X182740000Y-88120000D03*
%TO.N,unconnected-(J4-Pin_31-Pad31)*%
X180200000Y-90660000D03*
%TO.N,unconnected-(J4-Pin_32-Pad32)*%
X182740000Y-90660000D03*
%TO.N,unconnected-(J4-Pin_33-Pad33)*%
X180200000Y-93200000D03*
%TO.N,unconnected-(J4-Pin_34-Pad34)*%
X182740000Y-93200000D03*
%TO.N,AI_0*%
X180200000Y-95740000D03*
%TO.N,unconnected-(J4-Pin_36-Pad36)*%
X182740000Y-95740000D03*
%TO.N,AI_1*%
X180200000Y-98280000D03*
%TO.N,unconnected-(J4-Pin_38-Pad38)*%
X182740000Y-98280000D03*
%TO.N,unconnected-(J4-Pin_39-Pad39)*%
X180200000Y-100820000D03*
%TO.N,unconnected-(J4-Pin_40-Pad40)*%
X182740000Y-100820000D03*
%TO.N,unconnected-(J4-Pin_41-Pad41)*%
X180200000Y-103360000D03*
%TO.N,unconnected-(J4-Pin_42-Pad42)*%
X182740000Y-103360000D03*
%TO.N,unconnected-(J4-Pin_43-Pad43)*%
X180200000Y-105900000D03*
%TO.N,unconnected-(J4-Pin_44-Pad44)*%
X182740000Y-105900000D03*
%TO.N,unconnected-(J4-Pin_45-Pad45)*%
X180200000Y-108440000D03*
%TO.N,unconnected-(J4-Pin_46-Pad46)*%
X182740000Y-108440000D03*
%TD*%
D10*
%TO.N,unconnected-(J3-Pin_1-Pad1)*%
%TO.C,J3*%
X119260000Y-52560000D03*
D11*
%TO.N,unconnected-(J3-Pin_2-Pad2)*%
X121800000Y-52560000D03*
%TO.N,unconnected-(J3-Pin_3-Pad3)*%
X119260000Y-55100000D03*
%TO.N,unconnected-(J3-Pin_4-Pad4)*%
X121800000Y-55100000D03*
%TO.N,unconnected-(J3-Pin_5-Pad5)*%
X119260000Y-57640000D03*
%TO.N,unconnected-(J3-Pin_6-Pad6)*%
X121800000Y-57640000D03*
%TO.N,unconnected-(J3-Pin_7-Pad7)*%
X119260000Y-60180000D03*
%TO.N,unconnected-(J3-Pin_8-Pad8)*%
X121800000Y-60180000D03*
%TO.N,unconnected-(J3-Pin_9-Pad9)*%
X119260000Y-62720000D03*
%TO.N,+15V*%
X121800000Y-62720000D03*
%TO.N,unconnected-(J3-Pin_11-Pad11)*%
X119260000Y-65260000D03*
%TO.N,unconnected-(J3-Pin_12-Pad12)*%
X121800000Y-65260000D03*
%TO.N,unconnected-(J3-Pin_13-Pad13)*%
X119260000Y-67800000D03*
%TO.N,unconnected-(J3-Pin_14-Pad14)*%
X121800000Y-67800000D03*
%TO.N,unconnected-(J3-Pin_15-Pad15)*%
X119260000Y-70340000D03*
%TO.N,unconnected-(J3-Pin_16-Pad16)*%
X121800000Y-70340000D03*
%TO.N,unconnected-(J3-Pin_17-Pad17)*%
X119260000Y-72880000D03*
%TO.N,unconnected-(J3-Pin_18-Pad18)*%
X121800000Y-72880000D03*
%TO.N,GND*%
X119260000Y-75420000D03*
X121800000Y-75420000D03*
%TO.N,unconnected-(J3-Pin_21-Pad21)*%
X119260000Y-77960000D03*
%TO.N,GND*%
X121800000Y-77960000D03*
%TO.N,unconnected-(J3-Pin_23-Pad23)*%
X119260000Y-80500000D03*
%TO.N,unconnected-(J3-Pin_24-Pad24)*%
X121800000Y-80500000D03*
%TO.N,+3V3*%
X119260000Y-83040000D03*
%TO.N,-15V*%
X121800000Y-83040000D03*
%TO.N,+5V*%
X119260000Y-85580000D03*
%TO.N,unconnected-(J3-Pin_28-Pad28)*%
X121800000Y-85580000D03*
%TO.N,unconnected-(J3-Pin_29-Pad29)*%
X119260000Y-88120000D03*
%TO.N,unconnected-(J3-Pin_30-Pad30)*%
X121800000Y-88120000D03*
%TO.N,unconnected-(J3-Pin_31-Pad31)*%
X119260000Y-90660000D03*
%TO.N,AO_0*%
X121800000Y-90660000D03*
%TO.N,unconnected-(J3-Pin_33-Pad33)*%
X119260000Y-93200000D03*
%TO.N,unconnected-(J3-Pin_34-Pad34)*%
X121800000Y-93200000D03*
%TO.N,unconnected-(J3-Pin_35-Pad35)*%
X119260000Y-95740000D03*
%TO.N,unconnected-(J3-Pin_36-Pad36)*%
X121800000Y-95740000D03*
%TO.N,unconnected-(J3-Pin_37-Pad37)*%
X119260000Y-98280000D03*
%TO.N,unconnected-(J3-Pin_38-Pad38)*%
X121800000Y-98280000D03*
%TO.N,unconnected-(J3-Pin_39-Pad39)*%
X119260000Y-100820000D03*
%TO.N,unconnected-(J3-Pin_40-Pad40)*%
X121800000Y-100820000D03*
%TO.N,unconnected-(J3-Pin_41-Pad41)*%
X119260000Y-103360000D03*
%TO.N,unconnected-(J3-Pin_42-Pad42)*%
X121800000Y-103360000D03*
%TO.N,unconnected-(J3-Pin_43-Pad43)*%
X119260000Y-105900000D03*
%TO.N,unconnected-(J3-Pin_44-Pad44)*%
X121800000Y-105900000D03*
%TO.N,unconnected-(J3-Pin_45-Pad45)*%
X119260000Y-108440000D03*
%TO.N,unconnected-(J3-Pin_46-Pad46)*%
X121800000Y-108440000D03*
%TD*%
D12*
%TO.N,ANALOG_OUT0*%
%TO.C,J2*%
X133480000Y-109500000D03*
D13*
%TO.N,ANALOG_OUT1*%
X136020000Y-109500000D03*
%TD*%
D12*
%TO.N,ANALOG_IN0*%
%TO.C,J1*%
X150960000Y-109415000D03*
D13*
%TO.N,ANALOG_IN1*%
X153500000Y-109415000D03*
%TD*%
D14*
%TO.N,+15V*%
X130550000Y-72850000D03*
X138612500Y-73100000D03*
X139300000Y-90600000D03*
X170700000Y-93400000D03*
%TO.N,GND*%
X159615000Y-83283750D03*
X161500000Y-90443750D03*
X158390000Y-97033750D03*
X148200000Y-79350000D03*
X158390000Y-95033750D03*
X141550000Y-64695000D03*
X146725000Y-63075000D03*
X136225000Y-61475000D03*
X173865000Y-78658750D03*
X138725000Y-81915000D03*
X141550000Y-71950000D03*
X134225000Y-61475000D03*
X167250000Y-78808750D03*
X166065000Y-102008750D03*
X138475000Y-89415000D03*
X159615000Y-85283750D03*
X144000000Y-102415000D03*
X148725000Y-63050000D03*
X172615000Y-102308750D03*
X169250000Y-90193750D03*
X160500000Y-102415000D03*
X130450000Y-78000000D03*
%TO.N,-15V*%
X138800000Y-80300000D03*
X158000000Y-83900000D03*
X144337500Y-62400000D03*
%TO.N,+3V3*%
X174500000Y-100300000D03*
%TO.N,+5V*%
X151000000Y-81400000D03*
X128100000Y-77100000D03*
%TD*%
%TA.AperFunction,Conductor*%
%TO.N,GND*%
G36*
X121324755Y-78156853D02*
G01*
X121391898Y-78273147D01*
X121486853Y-78368102D01*
X121603147Y-78435245D01*
X121662425Y-78451128D01*
X121099134Y-79014417D01*
X121136994Y-79041924D01*
X121288722Y-79119234D01*
X121339518Y-79167209D01*
X121356313Y-79235030D01*
X121333776Y-79301165D01*
X121288723Y-79340203D01*
X121136735Y-79417645D01*
X121023997Y-79499555D01*
X120975582Y-79534731D01*
X120975580Y-79534733D01*
X120975579Y-79534733D01*
X120834733Y-79675579D01*
X120834733Y-79675580D01*
X120834731Y-79675582D01*
X120804602Y-79717051D01*
X120717647Y-79836733D01*
X120640485Y-79988172D01*
X120592510Y-80038968D01*
X120524689Y-80055763D01*
X120458554Y-80033225D01*
X120419515Y-79988172D01*
X120342352Y-79836733D01*
X120225269Y-79675582D01*
X120084418Y-79534731D01*
X119923266Y-79417647D01*
X119771827Y-79340485D01*
X119721031Y-79292510D01*
X119704236Y-79224689D01*
X119726773Y-79158554D01*
X119771827Y-79119515D01*
X119781116Y-79114781D01*
X119923266Y-79042353D01*
X120084418Y-78925269D01*
X120225269Y-78784418D01*
X120342353Y-78623266D01*
X120419795Y-78471276D01*
X120467769Y-78420481D01*
X120535590Y-78403686D01*
X120601725Y-78426223D01*
X120640765Y-78471277D01*
X120718077Y-78623008D01*
X120745580Y-78660863D01*
X120745581Y-78660864D01*
X121308871Y-78097574D01*
X121324755Y-78156853D01*
G37*
%TD.AperFunction*%
%TA.AperFunction,Conductor*%
G36*
X121324755Y-75616853D02*
G01*
X121391898Y-75733147D01*
X121486853Y-75828102D01*
X121603147Y-75895245D01*
X121662425Y-75911128D01*
X121099134Y-76474417D01*
X121136999Y-76501928D01*
X121289272Y-76579516D01*
X121340068Y-76627490D01*
X121356863Y-76695311D01*
X121334325Y-76761446D01*
X121289272Y-76800484D01*
X121136996Y-76878073D01*
X121136995Y-76878074D01*
X121099135Y-76905580D01*
X121099135Y-76905581D01*
X121662425Y-77468871D01*
X121603147Y-77484755D01*
X121486853Y-77551898D01*
X121391898Y-77646853D01*
X121324755Y-77763147D01*
X121308871Y-77822425D01*
X120745581Y-77259135D01*
X120745580Y-77259135D01*
X120718075Y-77296993D01*
X120640764Y-77448723D01*
X120592790Y-77499518D01*
X120524969Y-77516313D01*
X120458834Y-77493775D01*
X120419795Y-77448722D01*
X120388299Y-77386909D01*
X120342353Y-77296734D01*
X120225269Y-77135582D01*
X120084418Y-76994731D01*
X119923266Y-76877647D01*
X119923262Y-76877645D01*
X119771277Y-76800204D01*
X119720481Y-76752229D01*
X119703686Y-76684408D01*
X119726224Y-76618273D01*
X119771277Y-76579234D01*
X119923005Y-76501924D01*
X119960863Y-76474418D01*
X119960863Y-76474417D01*
X119397574Y-75911128D01*
X119456853Y-75895245D01*
X119573147Y-75828102D01*
X119668102Y-75733147D01*
X119735245Y-75616853D01*
X119751128Y-75557574D01*
X120314417Y-76120863D01*
X120314418Y-76120863D01*
X120341924Y-76083005D01*
X120419515Y-75930727D01*
X120467490Y-75879931D01*
X120535311Y-75863136D01*
X120601446Y-75885674D01*
X120640485Y-75930727D01*
X120718077Y-76083008D01*
X120745580Y-76120863D01*
X120745581Y-76120864D01*
X121308871Y-75557574D01*
X121324755Y-75616853D01*
G37*
%TD.AperFunction*%
%TA.AperFunction,Conductor*%
G36*
X120601446Y-73346773D02*
G01*
X120640485Y-73391827D01*
X120717647Y-73543266D01*
X120834731Y-73704418D01*
X120975582Y-73845269D01*
X121136734Y-73962353D01*
X121226909Y-74008299D01*
X121288722Y-74039795D01*
X121339518Y-74087770D01*
X121356313Y-74155591D01*
X121333776Y-74221726D01*
X121288723Y-74260764D01*
X121136993Y-74338075D01*
X121099135Y-74365580D01*
X121099135Y-74365581D01*
X121662425Y-74928871D01*
X121603147Y-74944755D01*
X121486853Y-75011898D01*
X121391898Y-75106853D01*
X121324755Y-75223147D01*
X121308871Y-75282425D01*
X120745581Y-74719135D01*
X120745580Y-74719135D01*
X120718074Y-74756995D01*
X120718073Y-74756996D01*
X120640484Y-74909272D01*
X120592510Y-74960068D01*
X120524689Y-74976863D01*
X120458554Y-74954325D01*
X120419516Y-74909272D01*
X120341928Y-74756999D01*
X120314417Y-74719135D01*
X120314417Y-74719134D01*
X119751128Y-75282424D01*
X119735245Y-75223147D01*
X119668102Y-75106853D01*
X119573147Y-75011898D01*
X119456853Y-74944755D01*
X119397574Y-74928871D01*
X119960864Y-74365581D01*
X119960863Y-74365580D01*
X119923008Y-74338077D01*
X119771277Y-74260765D01*
X119720481Y-74212790D01*
X119703686Y-74144969D01*
X119726224Y-74078834D01*
X119771277Y-74039795D01*
X119771827Y-74039515D01*
X119923266Y-73962353D01*
X120084418Y-73845269D01*
X120225269Y-73704418D01*
X120342353Y-73543266D01*
X120419515Y-73391827D01*
X120467490Y-73341031D01*
X120535311Y-73324236D01*
X120601446Y-73346773D01*
G37*
%TD.AperFunction*%
%TA.AperFunction,Conductor*%
G36*
X182264755Y-75616853D02*
G01*
X182331898Y-75733147D01*
X182426853Y-75828102D01*
X182543147Y-75895245D01*
X182602425Y-75911128D01*
X182039134Y-76474417D01*
X182076994Y-76501924D01*
X182228722Y-76579234D01*
X182279518Y-76627209D01*
X182296313Y-76695030D01*
X182273776Y-76761165D01*
X182228723Y-76800203D01*
X182076735Y-76877645D01*
X182001498Y-76932309D01*
X181915582Y-76994731D01*
X181915580Y-76994733D01*
X181915579Y-76994733D01*
X181774733Y-77135579D01*
X181774733Y-77135580D01*
X181774731Y-77135582D01*
X181746878Y-77173918D01*
X181657647Y-77296733D01*
X181580485Y-77448172D01*
X181532510Y-77498968D01*
X181464689Y-77515763D01*
X181398554Y-77493225D01*
X181359515Y-77448172D01*
X181317877Y-77366453D01*
X181282353Y-77296734D01*
X181165269Y-77135582D01*
X181024418Y-76994731D01*
X180863266Y-76877647D01*
X180711827Y-76800485D01*
X180661031Y-76752510D01*
X180644236Y-76684689D01*
X180666773Y-76618554D01*
X180711827Y-76579515D01*
X180721116Y-76574781D01*
X180863266Y-76502353D01*
X181024418Y-76385269D01*
X181165269Y-76244418D01*
X181282353Y-76083266D01*
X181359795Y-75931276D01*
X181407769Y-75880481D01*
X181475590Y-75863686D01*
X181541725Y-75886223D01*
X181580765Y-75931277D01*
X181658077Y-76083008D01*
X181685580Y-76120863D01*
X181685581Y-76120864D01*
X182248871Y-75557574D01*
X182264755Y-75616853D01*
G37*
%TD.AperFunction*%
%TA.AperFunction,Conductor*%
G36*
X181541446Y-73346773D02*
G01*
X181580485Y-73391827D01*
X181657647Y-73543266D01*
X181774731Y-73704418D01*
X181915582Y-73845269D01*
X182076734Y-73962353D01*
X182166909Y-74008299D01*
X182228722Y-74039795D01*
X182279518Y-74087770D01*
X182296313Y-74155591D01*
X182273776Y-74221726D01*
X182228723Y-74260764D01*
X182076993Y-74338075D01*
X182039135Y-74365580D01*
X182039135Y-74365581D01*
X182602425Y-74928871D01*
X182543147Y-74944755D01*
X182426853Y-75011898D01*
X182331898Y-75106853D01*
X182264755Y-75223147D01*
X182248871Y-75282425D01*
X181685581Y-74719135D01*
X181685580Y-74719135D01*
X181658075Y-74756993D01*
X181580764Y-74908723D01*
X181532790Y-74959518D01*
X181464969Y-74976313D01*
X181398834Y-74953775D01*
X181359795Y-74908722D01*
X181282486Y-74756996D01*
X181282353Y-74756734D01*
X181165269Y-74595582D01*
X181024418Y-74454731D01*
X180863266Y-74337647D01*
X180711827Y-74260485D01*
X180661031Y-74212510D01*
X180644236Y-74144689D01*
X180666773Y-74078554D01*
X180711827Y-74039515D01*
X180721116Y-74034781D01*
X180863266Y-73962353D01*
X181024418Y-73845269D01*
X181165269Y-73704418D01*
X181282353Y-73543266D01*
X181359515Y-73391827D01*
X181407490Y-73341031D01*
X181475311Y-73324236D01*
X181541446Y-73346773D01*
G37*
%TD.AperFunction*%
%TA.AperFunction,Conductor*%
G36*
X181254417Y-63420863D02*
G01*
X181254418Y-63420863D01*
X181281924Y-63383005D01*
X181359234Y-63231277D01*
X181407208Y-63180481D01*
X181475029Y-63163686D01*
X181541164Y-63186223D01*
X181580204Y-63231277D01*
X181657514Y-63383005D01*
X181657647Y-63383266D01*
X181774731Y-63544418D01*
X181915582Y-63685269D01*
X182076734Y-63802353D01*
X182146453Y-63837877D01*
X182228172Y-63879515D01*
X182278968Y-63927490D01*
X182295763Y-63995311D01*
X182273225Y-64061446D01*
X182228172Y-64100485D01*
X182076733Y-64177647D01*
X181984790Y-64244447D01*
X181915582Y-64294731D01*
X181915580Y-64294733D01*
X181915579Y-64294733D01*
X181774733Y-64435579D01*
X181774733Y-64435580D01*
X181774731Y-64435582D01*
X181724447Y-64504790D01*
X181657647Y-64596733D01*
X181580485Y-64748172D01*
X181532510Y-64798968D01*
X181464689Y-64815763D01*
X181398554Y-64793225D01*
X181359515Y-64748172D01*
X181282352Y-64596733D01*
X181165269Y-64435582D01*
X181024418Y-64294731D01*
X180863266Y-64177647D01*
X180863262Y-64177645D01*
X180711277Y-64100204D01*
X180660481Y-64052229D01*
X180643686Y-63984408D01*
X180666224Y-63918273D01*
X180711277Y-63879234D01*
X180863005Y-63801924D01*
X180900863Y-63774418D01*
X180900863Y-63774417D01*
X180337574Y-63211128D01*
X180396853Y-63195245D01*
X180513147Y-63128102D01*
X180608102Y-63033147D01*
X180675245Y-62916853D01*
X180691128Y-62857574D01*
X181254417Y-63420863D01*
G37*
%TD.AperFunction*%
%TA.AperFunction,Conductor*%
G36*
X181541446Y-60646773D02*
G01*
X181580485Y-60691827D01*
X181657647Y-60843266D01*
X181774731Y-61004418D01*
X181915582Y-61145269D01*
X182076734Y-61262353D01*
X182146453Y-61297877D01*
X182228172Y-61339515D01*
X182278968Y-61387490D01*
X182295763Y-61455311D01*
X182273225Y-61521446D01*
X182228172Y-61560485D01*
X182076733Y-61637647D01*
X181984790Y-61704447D01*
X181915582Y-61754731D01*
X181915580Y-61754733D01*
X181915579Y-61754733D01*
X181774733Y-61895579D01*
X181774733Y-61895580D01*
X181774731Y-61895582D01*
X181739555Y-61943997D01*
X181657645Y-62056735D01*
X181580203Y-62208723D01*
X181532229Y-62259518D01*
X181464408Y-62276313D01*
X181398273Y-62253775D01*
X181359234Y-62208722D01*
X181281924Y-62056994D01*
X181254417Y-62019135D01*
X181254417Y-62019134D01*
X180691128Y-62582424D01*
X180675245Y-62523147D01*
X180608102Y-62406853D01*
X180513147Y-62311898D01*
X180396853Y-62244755D01*
X180337574Y-62228871D01*
X180900864Y-61665581D01*
X180900863Y-61665580D01*
X180863008Y-61638077D01*
X180711277Y-61560765D01*
X180660481Y-61512790D01*
X180643686Y-61444969D01*
X180666224Y-61378834D01*
X180711277Y-61339795D01*
X180711827Y-61339515D01*
X180863266Y-61262353D01*
X181024418Y-61145269D01*
X181165269Y-61004418D01*
X181282353Y-60843266D01*
X181359515Y-60691827D01*
X181407490Y-60641031D01*
X181475311Y-60624236D01*
X181541446Y-60646773D01*
G37*
%TD.AperFunction*%
%TA.AperFunction,Conductor*%
G36*
X135006061Y-48701097D02*
G01*
X135016051Y-48702080D01*
X135143824Y-48714665D01*
X135167652Y-48719404D01*
X135294277Y-48757815D01*
X135316725Y-48767114D01*
X135433406Y-48829482D01*
X135453616Y-48842986D01*
X135555891Y-48926920D01*
X135573079Y-48944108D01*
X135657012Y-49046381D01*
X135670517Y-49066593D01*
X135732883Y-49183271D01*
X135742186Y-49205728D01*
X135780593Y-49332338D01*
X135785335Y-49356180D01*
X135798903Y-49493938D01*
X135799500Y-49506092D01*
X135799500Y-56264486D01*
X135829059Y-56451118D01*
X135887454Y-56630836D01*
X135917854Y-56690498D01*
X135973240Y-56799199D01*
X136084310Y-56952073D01*
X136217927Y-57085690D01*
X136370801Y-57196760D01*
X136450347Y-57237290D01*
X136539163Y-57282545D01*
X136539165Y-57282545D01*
X136539168Y-57282547D01*
X136635497Y-57313846D01*
X136718881Y-57340940D01*
X136905514Y-57370500D01*
X136905519Y-57370500D01*
X165094486Y-57370500D01*
X165281118Y-57340940D01*
X165460832Y-57282547D01*
X165629199Y-57196760D01*
X165782073Y-57085690D01*
X165915690Y-56952073D01*
X166026760Y-56799199D01*
X166112547Y-56630832D01*
X166170940Y-56451118D01*
X166181106Y-56386934D01*
X166200500Y-56264486D01*
X166200500Y-54750684D01*
X173309500Y-54750684D01*
X173309500Y-54989315D01*
X173309501Y-54989332D01*
X173337182Y-55199596D01*
X173340649Y-55225924D01*
X173340739Y-55226260D01*
X173402415Y-55456436D01*
X173493734Y-55676902D01*
X173493740Y-55676914D01*
X173613062Y-55883586D01*
X173613064Y-55883589D01*
X173613065Y-55883590D01*
X173758337Y-56072912D01*
X173758343Y-56072919D01*
X173927080Y-56241656D01*
X173927087Y-56241662D01*
X173956825Y-56264481D01*
X174116414Y-56386938D01*
X174323086Y-56506260D01*
X174323091Y-56506262D01*
X174323097Y-56506265D01*
X174418109Y-56545620D01*
X174543564Y-56597585D01*
X174774076Y-56659351D01*
X175010678Y-56690500D01*
X175010685Y-56690500D01*
X175249315Y-56690500D01*
X175249322Y-56690500D01*
X175485924Y-56659351D01*
X175716436Y-56597585D01*
X175936914Y-56506260D01*
X176143586Y-56386938D01*
X176332914Y-56241661D01*
X176501661Y-56072914D01*
X176646938Y-55883586D01*
X176766260Y-55676914D01*
X176857585Y-55456436D01*
X176919351Y-55225924D01*
X176950500Y-54989322D01*
X176950500Y-54750678D01*
X176919351Y-54514076D01*
X176857585Y-54283564D01*
X176766260Y-54063086D01*
X176646938Y-53856414D01*
X176534065Y-53709315D01*
X176501662Y-53667087D01*
X176501656Y-53667080D01*
X176332919Y-53498343D01*
X176332912Y-53498337D01*
X176143590Y-53353065D01*
X176143589Y-53353064D01*
X176143586Y-53353062D01*
X175936914Y-53233740D01*
X175936902Y-53233734D01*
X175716436Y-53142415D01*
X175485920Y-53080648D01*
X175249332Y-53049501D01*
X175249327Y-53049500D01*
X175249322Y-53049500D01*
X175010678Y-53049500D01*
X175010672Y-53049500D01*
X175010667Y-53049501D01*
X174774079Y-53080648D01*
X174543563Y-53142415D01*
X174323097Y-53233734D01*
X174323083Y-53233741D01*
X174116409Y-53353065D01*
X173927087Y-53498337D01*
X173927080Y-53498343D01*
X173758343Y-53667080D01*
X173758337Y-53667087D01*
X173613065Y-53856409D01*
X173493741Y-54063083D01*
X173493734Y-54063097D01*
X173402415Y-54283563D01*
X173340648Y-54514079D01*
X173309501Y-54750667D01*
X173309500Y-54750684D01*
X166200500Y-54750684D01*
X166200500Y-51747135D01*
X178934500Y-51747135D01*
X178934500Y-53372870D01*
X178934501Y-53372876D01*
X178940908Y-53432483D01*
X178991202Y-53567328D01*
X178991206Y-53567335D01*
X179077452Y-53682544D01*
X179077455Y-53682547D01*
X179192664Y-53768793D01*
X179192671Y-53768797D01*
X179327517Y-53819091D01*
X179327516Y-53819091D01*
X179334444Y-53819835D01*
X179387127Y-53825500D01*
X179419568Y-53825499D01*
X179486605Y-53845182D01*
X179532361Y-53897984D01*
X179542306Y-53967143D01*
X179513283Y-54030699D01*
X179492455Y-54049816D01*
X179375582Y-54134730D01*
X179234733Y-54275579D01*
X179234733Y-54275580D01*
X179234731Y-54275582D01*
X179228932Y-54283564D01*
X179117647Y-54436733D01*
X179027213Y-54614219D01*
X178965661Y-54803656D01*
X178965661Y-54803659D01*
X178934500Y-55000403D01*
X178934500Y-55199596D01*
X178965661Y-55396340D01*
X178965661Y-55396343D01*
X179027213Y-55585780D01*
X179117647Y-55763266D01*
X179234731Y-55924418D01*
X179375582Y-56065269D01*
X179536734Y-56182353D01*
X179606453Y-56217877D01*
X179688172Y-56259515D01*
X179738968Y-56307490D01*
X179755763Y-56375311D01*
X179733225Y-56441446D01*
X179688172Y-56480485D01*
X179536733Y-56557647D01*
X179481764Y-56597585D01*
X179375582Y-56674731D01*
X179375580Y-56674733D01*
X179375579Y-56674733D01*
X179234733Y-56815579D01*
X179234733Y-56815580D01*
X179234731Y-56815582D01*
X179184447Y-56884790D01*
X179117647Y-56976733D01*
X179027213Y-57154219D01*
X178965661Y-57343656D01*
X178965661Y-57343659D01*
X178934500Y-57540403D01*
X178934500Y-57739596D01*
X178965661Y-57936340D01*
X178965661Y-57936343D01*
X179027213Y-58125780D01*
X179040485Y-58151827D01*
X179117647Y-58303266D01*
X179234731Y-58464418D01*
X179375582Y-58605269D01*
X179536734Y-58722353D01*
X179606453Y-58757877D01*
X179688172Y-58799515D01*
X179738968Y-58847490D01*
X179755763Y-58915311D01*
X179733225Y-58981446D01*
X179688172Y-59020485D01*
X179536733Y-59097647D01*
X179444790Y-59164447D01*
X179375582Y-59214731D01*
X179375580Y-59214733D01*
X179375579Y-59214733D01*
X179234733Y-59355579D01*
X179234733Y-59355580D01*
X179234731Y-59355582D01*
X179184447Y-59424790D01*
X179117647Y-59516733D01*
X179027213Y-59694219D01*
X178965661Y-59883656D01*
X178965661Y-59883659D01*
X178934500Y-60080403D01*
X178934500Y-60279596D01*
X178965661Y-60476340D01*
X178965661Y-60476343D01*
X179027213Y-60665780D01*
X179027215Y-60665783D01*
X179117647Y-60843266D01*
X179234731Y-61004418D01*
X179375582Y-61145269D01*
X179536734Y-61262353D01*
X179626909Y-61308299D01*
X179688722Y-61339795D01*
X179739518Y-61387770D01*
X179756313Y-61455591D01*
X179733776Y-61521726D01*
X179688723Y-61560764D01*
X179536993Y-61638075D01*
X179499135Y-61665580D01*
X179499135Y-61665581D01*
X180062425Y-62228871D01*
X180003147Y-62244755D01*
X179886853Y-62311898D01*
X179791898Y-62406853D01*
X179724755Y-62523147D01*
X179708871Y-62582425D01*
X179145581Y-62019135D01*
X179145580Y-62019135D01*
X179118077Y-62056990D01*
X179027679Y-62234405D01*
X178966147Y-62423777D01*
X178935000Y-62620436D01*
X178935000Y-62819563D01*
X178966147Y-63016222D01*
X179027679Y-63205594D01*
X179118077Y-63383008D01*
X179145580Y-63420863D01*
X179145581Y-63420864D01*
X179708871Y-62857574D01*
X179724755Y-62916853D01*
X179791898Y-63033147D01*
X179886853Y-63128102D01*
X180003147Y-63195245D01*
X180062425Y-63211128D01*
X179499134Y-63774417D01*
X179536994Y-63801924D01*
X179688722Y-63879234D01*
X179739518Y-63927209D01*
X179756313Y-63995030D01*
X179733776Y-64061165D01*
X179688723Y-64100203D01*
X179536735Y-64177645D01*
X179423997Y-64259555D01*
X179375582Y-64294731D01*
X179375580Y-64294733D01*
X179375579Y-64294733D01*
X179234733Y-64435579D01*
X179234733Y-64435580D01*
X179234731Y-64435582D01*
X179184447Y-64504790D01*
X179117647Y-64596733D01*
X179027213Y-64774219D01*
X178965661Y-64963656D01*
X178965661Y-64963659D01*
X178934500Y-65160403D01*
X178934500Y-65359596D01*
X178965661Y-65556340D01*
X178965661Y-65556343D01*
X179027213Y-65745780D01*
X179040485Y-65771827D01*
X179117647Y-65923266D01*
X179234731Y-66084418D01*
X179375582Y-66225269D01*
X179536734Y-66342353D01*
X179606453Y-66377877D01*
X179688172Y-66419515D01*
X179738968Y-66467490D01*
X179755763Y-66535311D01*
X179733225Y-66601446D01*
X179688172Y-66640485D01*
X179536733Y-66717647D01*
X179444790Y-66784447D01*
X179375582Y-66834731D01*
X179375580Y-66834733D01*
X179375579Y-66834733D01*
X179234733Y-66975579D01*
X179234733Y-66975580D01*
X179234731Y-66975582D01*
X179184447Y-67044790D01*
X179117647Y-67136733D01*
X179027213Y-67314219D01*
X178965661Y-67503656D01*
X178965661Y-67503659D01*
X178934500Y-67700403D01*
X178934500Y-67899596D01*
X178965661Y-68096340D01*
X178965661Y-68096343D01*
X179027213Y-68285780D01*
X179040485Y-68311827D01*
X179117647Y-68463266D01*
X179234731Y-68624418D01*
X179375582Y-68765269D01*
X179536734Y-68882353D01*
X179606453Y-68917877D01*
X179688172Y-68959515D01*
X179738968Y-69007490D01*
X179755763Y-69075311D01*
X179733225Y-69141446D01*
X179688172Y-69180485D01*
X179536733Y-69257647D01*
X179444790Y-69324447D01*
X179375582Y-69374731D01*
X179375580Y-69374733D01*
X179375579Y-69374733D01*
X179234733Y-69515579D01*
X179234733Y-69515580D01*
X179234731Y-69515582D01*
X179184447Y-69584790D01*
X179117647Y-69676733D01*
X179027213Y-69854219D01*
X178965661Y-70043656D01*
X178965661Y-70043659D01*
X178934500Y-70240403D01*
X178934500Y-70439596D01*
X178965661Y-70636340D01*
X178965661Y-70636343D01*
X179027213Y-70825780D01*
X179040485Y-70851827D01*
X179117647Y-71003266D01*
X179234731Y-71164418D01*
X179375582Y-71305269D01*
X179536734Y-71422353D01*
X179606453Y-71457877D01*
X179688172Y-71499515D01*
X179738968Y-71547490D01*
X179755763Y-71615311D01*
X179733225Y-71681446D01*
X179688172Y-71720485D01*
X179536733Y-71797647D01*
X179444790Y-71864447D01*
X179375582Y-71914731D01*
X179375580Y-71914733D01*
X179375579Y-71914733D01*
X179234733Y-72055579D01*
X179234733Y-72055580D01*
X179234731Y-72055582D01*
X179202823Y-72099500D01*
X179117647Y-72216733D01*
X179027213Y-72394219D01*
X178965661Y-72583656D01*
X178965661Y-72583659D01*
X178934500Y-72780403D01*
X178934500Y-72979596D01*
X178965661Y-73176340D01*
X178965661Y-73176343D01*
X179027213Y-73365780D01*
X179103289Y-73515087D01*
X179117647Y-73543266D01*
X179234731Y-73704418D01*
X179375582Y-73845269D01*
X179536734Y-73962353D01*
X179606453Y-73997877D01*
X179688172Y-74039515D01*
X179738968Y-74087490D01*
X179755763Y-74155311D01*
X179733225Y-74221446D01*
X179688172Y-74260485D01*
X179536733Y-74337647D01*
X179498286Y-74365581D01*
X179375582Y-74454731D01*
X179375580Y-74454733D01*
X179375579Y-74454733D01*
X179234733Y-74595579D01*
X179234733Y-74595580D01*
X179234731Y-74595582D01*
X179184447Y-74664790D01*
X179117647Y-74756733D01*
X179027213Y-74934219D01*
X178965661Y-75123656D01*
X178965661Y-75123659D01*
X178934500Y-75320403D01*
X178934500Y-75519596D01*
X178965661Y-75716340D01*
X178965661Y-75716343D01*
X179027213Y-75905780D01*
X179117514Y-76083005D01*
X179117647Y-76083266D01*
X179234731Y-76244418D01*
X179375582Y-76385269D01*
X179536734Y-76502353D01*
X179606453Y-76537877D01*
X179688172Y-76579515D01*
X179738968Y-76627490D01*
X179755763Y-76695311D01*
X179733225Y-76761446D01*
X179688172Y-76800485D01*
X179536733Y-76877647D01*
X179498286Y-76905581D01*
X179375582Y-76994731D01*
X179375580Y-76994733D01*
X179375579Y-76994733D01*
X179234733Y-77135579D01*
X179234733Y-77135580D01*
X179234731Y-77135582D01*
X179206878Y-77173918D01*
X179117647Y-77296733D01*
X179027213Y-77474219D01*
X178965661Y-77663656D01*
X178965661Y-77663659D01*
X178934500Y-77860403D01*
X178934500Y-78059596D01*
X178965661Y-78256340D01*
X178965661Y-78256343D01*
X179027213Y-78445780D01*
X179040485Y-78471827D01*
X179117647Y-78623266D01*
X179234731Y-78784418D01*
X179375582Y-78925269D01*
X179536734Y-79042353D01*
X179606453Y-79077877D01*
X179688172Y-79119515D01*
X179738968Y-79167490D01*
X179755763Y-79235311D01*
X179733225Y-79301446D01*
X179688172Y-79340485D01*
X179536733Y-79417647D01*
X179444790Y-79484447D01*
X179375582Y-79534731D01*
X179375580Y-79534733D01*
X179375579Y-79534733D01*
X179234733Y-79675579D01*
X179234733Y-79675580D01*
X179234731Y-79675582D01*
X179204602Y-79717051D01*
X179117647Y-79836733D01*
X179027213Y-80014219D01*
X178965661Y-80203656D01*
X178965661Y-80203659D01*
X178934500Y-80400403D01*
X178934500Y-80599596D01*
X178965661Y-80796340D01*
X178965661Y-80796343D01*
X179027213Y-80985780D01*
X179057135Y-81044505D01*
X179117647Y-81163266D01*
X179234731Y-81324418D01*
X179375582Y-81465269D01*
X179536734Y-81582353D01*
X179606453Y-81617877D01*
X179688172Y-81659515D01*
X179738968Y-81707490D01*
X179755763Y-81775311D01*
X179733225Y-81841446D01*
X179688172Y-81880485D01*
X179536733Y-81957647D01*
X179444790Y-82024447D01*
X179375582Y-82074731D01*
X179375580Y-82074733D01*
X179375579Y-82074733D01*
X179234733Y-82215579D01*
X179234733Y-82215580D01*
X179234731Y-82215582D01*
X179184447Y-82284790D01*
X179117647Y-82376733D01*
X179027213Y-82554219D01*
X178965661Y-82743656D01*
X178965661Y-82743659D01*
X178965661Y-82743661D01*
X178934500Y-82940403D01*
X178934500Y-83139597D01*
X178940636Y-83178340D01*
X178965661Y-83336340D01*
X178965661Y-83336343D01*
X179027213Y-83525780D01*
X179036754Y-83544505D01*
X179117647Y-83703266D01*
X179234731Y-83864418D01*
X179375582Y-84005269D01*
X179536734Y-84122353D01*
X179606453Y-84157877D01*
X179688172Y-84199515D01*
X179738968Y-84247490D01*
X179755763Y-84315311D01*
X179733225Y-84381446D01*
X179688172Y-84420485D01*
X179536733Y-84497647D01*
X179444790Y-84564447D01*
X179375582Y-84614731D01*
X179375580Y-84614733D01*
X179375579Y-84614733D01*
X179234733Y-84755579D01*
X179234733Y-84755580D01*
X179234731Y-84755582D01*
X179184447Y-84824790D01*
X179117647Y-84916733D01*
X179027213Y-85094219D01*
X178965661Y-85283656D01*
X178965661Y-85283659D01*
X178934500Y-85480403D01*
X178934500Y-85679596D01*
X178965661Y-85876340D01*
X178965661Y-85876343D01*
X179027213Y-86065780D01*
X179040485Y-86091827D01*
X179117647Y-86243266D01*
X179234731Y-86404418D01*
X179375582Y-86545269D01*
X179536734Y-86662353D01*
X179606453Y-86697877D01*
X179688172Y-86739515D01*
X179738968Y-86787490D01*
X179755763Y-86855311D01*
X179733225Y-86921446D01*
X179688172Y-86960485D01*
X179536733Y-87037647D01*
X179444790Y-87104447D01*
X179375582Y-87154731D01*
X179375580Y-87154733D01*
X179375579Y-87154733D01*
X179234733Y-87295579D01*
X179234733Y-87295580D01*
X179234731Y-87295582D01*
X179184447Y-87364790D01*
X179117647Y-87456733D01*
X179027213Y-87634219D01*
X178965661Y-87823656D01*
X178965661Y-87823659D01*
X178934500Y-88020403D01*
X178934500Y-88219596D01*
X178965661Y-88416340D01*
X178965661Y-88416343D01*
X179027213Y-88605780D01*
X179040485Y-88631827D01*
X179117647Y-88783266D01*
X179234731Y-88944418D01*
X179375582Y-89085269D01*
X179536734Y-89202353D01*
X179606453Y-89237877D01*
X179688172Y-89279515D01*
X179738968Y-89327490D01*
X179755763Y-89395311D01*
X179733225Y-89461446D01*
X179688172Y-89500485D01*
X179536733Y-89577647D01*
X179444790Y-89644447D01*
X179375582Y-89694731D01*
X179375580Y-89694733D01*
X179375579Y-89694733D01*
X179234733Y-89835579D01*
X179234733Y-89835580D01*
X179234731Y-89835582D01*
X179203664Y-89878342D01*
X179117647Y-89996733D01*
X179027213Y-90174219D01*
X178965661Y-90363656D01*
X178965661Y-90363659D01*
X178934500Y-90560403D01*
X178934500Y-90759596D01*
X178965661Y-90956340D01*
X178965661Y-90956343D01*
X179027213Y-91145780D01*
X179040485Y-91171827D01*
X179117647Y-91323266D01*
X179234731Y-91484418D01*
X179375582Y-91625269D01*
X179536734Y-91742353D01*
X179606453Y-91777877D01*
X179688172Y-91819515D01*
X179738968Y-91867490D01*
X179755763Y-91935311D01*
X179733225Y-92001446D01*
X179688172Y-92040485D01*
X179536733Y-92117647D01*
X179444790Y-92184447D01*
X179375582Y-92234731D01*
X179375580Y-92234733D01*
X179375579Y-92234733D01*
X179234733Y-92375579D01*
X179234733Y-92375580D01*
X179234731Y-92375582D01*
X179184447Y-92444790D01*
X179117647Y-92536733D01*
X179027213Y-92714219D01*
X178965661Y-92903656D01*
X178965661Y-92903659D01*
X178943353Y-93044505D01*
X178934500Y-93100403D01*
X178934500Y-93299597D01*
X178938694Y-93326079D01*
X178965661Y-93496340D01*
X178965661Y-93496343D01*
X179027213Y-93685780D01*
X179040485Y-93711827D01*
X179117647Y-93863266D01*
X179234731Y-94024418D01*
X179375582Y-94165269D01*
X179536734Y-94282353D01*
X179606453Y-94317877D01*
X179688172Y-94359515D01*
X179738968Y-94407490D01*
X179755763Y-94475311D01*
X179733225Y-94541446D01*
X179688172Y-94580485D01*
X179536733Y-94657647D01*
X179444790Y-94724447D01*
X179375582Y-94774731D01*
X179375580Y-94774733D01*
X179375579Y-94774733D01*
X179234733Y-94915579D01*
X179234733Y-94915580D01*
X179234731Y-94915582D01*
X179184447Y-94984790D01*
X179117647Y-95076733D01*
X179027213Y-95254219D01*
X178965661Y-95443656D01*
X178965661Y-95443659D01*
X178934500Y-95640403D01*
X178934500Y-95839596D01*
X178965661Y-96036340D01*
X178965661Y-96036343D01*
X179027213Y-96225780D01*
X179040485Y-96251827D01*
X179117647Y-96403266D01*
X179234731Y-96564418D01*
X179375582Y-96705269D01*
X179536734Y-96822353D01*
X179606453Y-96857877D01*
X179688172Y-96899515D01*
X179738968Y-96947490D01*
X179755763Y-97015311D01*
X179733225Y-97081446D01*
X179688172Y-97120485D01*
X179536733Y-97197647D01*
X179444790Y-97264447D01*
X179375582Y-97314731D01*
X179375580Y-97314733D01*
X179375579Y-97314733D01*
X179234733Y-97455579D01*
X179234733Y-97455580D01*
X179234731Y-97455582D01*
X179184447Y-97524790D01*
X179117647Y-97616733D01*
X179027213Y-97794219D01*
X178965661Y-97983656D01*
X178965661Y-97983659D01*
X178934500Y-98180403D01*
X178934500Y-98379596D01*
X178965661Y-98576340D01*
X178965661Y-98576343D01*
X179027213Y-98765780D01*
X179040485Y-98791827D01*
X179117647Y-98943266D01*
X179234731Y-99104418D01*
X179375582Y-99245269D01*
X179536734Y-99362353D01*
X179606453Y-99397877D01*
X179688172Y-99439515D01*
X179738968Y-99487490D01*
X179755763Y-99555311D01*
X179733225Y-99621446D01*
X179688172Y-99660485D01*
X179536733Y-99737647D01*
X179444790Y-99804447D01*
X179375582Y-99854731D01*
X179375580Y-99854733D01*
X179375579Y-99854733D01*
X179234733Y-99995579D01*
X179234733Y-99995580D01*
X179234731Y-99995582D01*
X179184447Y-100064790D01*
X179117647Y-100156733D01*
X179027213Y-100334219D01*
X178965661Y-100523656D01*
X178965661Y-100523659D01*
X178934500Y-100720403D01*
X178934500Y-100919597D01*
X178941705Y-100965087D01*
X178965661Y-101116340D01*
X178965661Y-101116343D01*
X179027213Y-101305780D01*
X179040485Y-101331827D01*
X179117647Y-101483266D01*
X179234731Y-101644418D01*
X179375582Y-101785269D01*
X179536734Y-101902353D01*
X179606453Y-101937877D01*
X179688172Y-101979515D01*
X179738968Y-102027490D01*
X179755763Y-102095311D01*
X179733225Y-102161446D01*
X179688172Y-102200485D01*
X179536733Y-102277647D01*
X179444790Y-102344447D01*
X179375582Y-102394731D01*
X179375580Y-102394733D01*
X179375579Y-102394733D01*
X179234733Y-102535579D01*
X179234733Y-102535580D01*
X179234731Y-102535582D01*
X179184447Y-102604790D01*
X179117647Y-102696733D01*
X179027213Y-102874219D01*
X178965661Y-103063656D01*
X178965661Y-103063659D01*
X178934500Y-103260403D01*
X178934500Y-103459596D01*
X178965661Y-103656340D01*
X178965661Y-103656343D01*
X179027213Y-103845780D01*
X179040485Y-103871827D01*
X179117647Y-104023266D01*
X179234731Y-104184418D01*
X179375582Y-104325269D01*
X179536734Y-104442353D01*
X179606453Y-104477877D01*
X179688172Y-104519515D01*
X179738968Y-104567490D01*
X179755763Y-104635311D01*
X179733225Y-104701446D01*
X179688172Y-104740485D01*
X179536733Y-104817647D01*
X179444790Y-104884447D01*
X179375582Y-104934731D01*
X179375580Y-104934733D01*
X179375579Y-104934733D01*
X179234733Y-105075579D01*
X179234733Y-105075580D01*
X179234731Y-105075582D01*
X179184447Y-105144790D01*
X179117647Y-105236733D01*
X179027213Y-105414219D01*
X178965661Y-105603656D01*
X178965661Y-105603659D01*
X178934500Y-105800403D01*
X178934500Y-105999596D01*
X178965661Y-106196340D01*
X178965661Y-106196343D01*
X179027213Y-106385780D01*
X179040485Y-106411827D01*
X179117647Y-106563266D01*
X179234731Y-106724418D01*
X179375582Y-106865269D01*
X179536734Y-106982353D01*
X179606453Y-107017877D01*
X179688172Y-107059515D01*
X179738968Y-107107490D01*
X179755763Y-107175311D01*
X179733225Y-107241446D01*
X179688172Y-107280485D01*
X179536733Y-107357647D01*
X179444790Y-107424447D01*
X179375582Y-107474731D01*
X179375580Y-107474733D01*
X179375579Y-107474733D01*
X179234733Y-107615579D01*
X179234733Y-107615580D01*
X179234731Y-107615582D01*
X179184447Y-107684790D01*
X179117647Y-107776733D01*
X179027213Y-107954219D01*
X178965661Y-108143656D01*
X178965661Y-108143659D01*
X178951597Y-108232455D01*
X178934500Y-108340403D01*
X178934500Y-108539597D01*
X178941615Y-108584518D01*
X178965661Y-108736340D01*
X178965661Y-108736342D01*
X179027213Y-108925780D01*
X179060536Y-108991179D01*
X179117647Y-109103266D01*
X179234731Y-109264418D01*
X179375582Y-109405269D01*
X179536734Y-109522353D01*
X179697602Y-109604319D01*
X179714219Y-109612786D01*
X179903657Y-109674338D01*
X179903658Y-109674338D01*
X179903661Y-109674339D01*
X180100403Y-109705500D01*
X180100404Y-109705500D01*
X180299596Y-109705500D01*
X180299597Y-109705500D01*
X180496339Y-109674339D01*
X180496342Y-109674338D01*
X180496343Y-109674338D01*
X180685780Y-109612786D01*
X180685780Y-109612785D01*
X180685783Y-109612785D01*
X180863266Y-109522353D01*
X181024418Y-109405269D01*
X181165269Y-109264418D01*
X181282353Y-109103266D01*
X181359515Y-108951827D01*
X181407490Y-108901031D01*
X181475311Y-108884236D01*
X181541446Y-108906773D01*
X181580485Y-108951827D01*
X181657647Y-109103266D01*
X181774731Y-109264418D01*
X181915582Y-109405269D01*
X182076734Y-109522353D01*
X182237602Y-109604319D01*
X182254219Y-109612786D01*
X182443657Y-109674338D01*
X182443658Y-109674338D01*
X182443661Y-109674339D01*
X182640403Y-109705500D01*
X182640404Y-109705500D01*
X182839596Y-109705500D01*
X182839597Y-109705500D01*
X183036339Y-109674339D01*
X183036342Y-109674338D01*
X183036343Y-109674338D01*
X183225780Y-109612786D01*
X183225780Y-109612785D01*
X183225783Y-109612785D01*
X183403266Y-109522353D01*
X183564418Y-109405269D01*
X183705269Y-109264418D01*
X183822353Y-109103266D01*
X183912785Y-108925783D01*
X183919155Y-108906179D01*
X183974339Y-108736342D01*
X183974338Y-108736340D01*
X183974339Y-108736339D01*
X184005500Y-108539597D01*
X184005500Y-108340403D01*
X183974339Y-108143661D01*
X183974338Y-108143657D01*
X183974338Y-108143656D01*
X183912786Y-107954219D01*
X183822352Y-107776733D01*
X183705269Y-107615582D01*
X183564418Y-107474731D01*
X183403266Y-107357647D01*
X183251827Y-107280485D01*
X183201031Y-107232510D01*
X183184236Y-107164689D01*
X183206773Y-107098554D01*
X183251827Y-107059515D01*
X183261116Y-107054781D01*
X183403266Y-106982353D01*
X183564418Y-106865269D01*
X183705269Y-106724418D01*
X183822353Y-106563266D01*
X183912785Y-106385783D01*
X183925140Y-106347758D01*
X183974338Y-106196343D01*
X183974338Y-106196342D01*
X183974339Y-106196339D01*
X184005500Y-105999597D01*
X184005500Y-105800403D01*
X183974339Y-105603661D01*
X183974338Y-105603657D01*
X183974338Y-105603656D01*
X183912786Y-105414219D01*
X183822352Y-105236733D01*
X183705269Y-105075582D01*
X183564418Y-104934731D01*
X183403266Y-104817647D01*
X183251827Y-104740485D01*
X183201031Y-104692510D01*
X183184236Y-104624689D01*
X183206773Y-104558554D01*
X183251827Y-104519515D01*
X183261116Y-104514781D01*
X183403266Y-104442353D01*
X183564418Y-104325269D01*
X183705269Y-104184418D01*
X183822353Y-104023266D01*
X183912785Y-103845783D01*
X183925140Y-103807758D01*
X183974338Y-103656343D01*
X183974338Y-103656342D01*
X183974339Y-103656339D01*
X184005500Y-103459597D01*
X184005500Y-103260403D01*
X183974339Y-103063661D01*
X183974338Y-103063657D01*
X183974338Y-103063656D01*
X183912786Y-102874219D01*
X183822352Y-102696733D01*
X183705269Y-102535582D01*
X183564418Y-102394731D01*
X183403266Y-102277647D01*
X183251827Y-102200485D01*
X183201031Y-102152510D01*
X183184236Y-102084689D01*
X183206773Y-102018554D01*
X183251827Y-101979515D01*
X183261116Y-101974781D01*
X183403266Y-101902353D01*
X183564418Y-101785269D01*
X183705269Y-101644418D01*
X183822353Y-101483266D01*
X183912785Y-101305783D01*
X183925140Y-101267758D01*
X183974338Y-101116343D01*
X183974338Y-101116342D01*
X183974339Y-101116339D01*
X184005500Y-100919597D01*
X184005500Y-100720403D01*
X183974339Y-100523661D01*
X183974338Y-100523657D01*
X183974338Y-100523656D01*
X183912786Y-100334219D01*
X183883267Y-100276285D01*
X183822353Y-100156734D01*
X183705269Y-99995582D01*
X183564418Y-99854731D01*
X183403266Y-99737647D01*
X183251827Y-99660485D01*
X183201031Y-99612510D01*
X183184236Y-99544689D01*
X183206773Y-99478554D01*
X183251827Y-99439515D01*
X183261116Y-99434781D01*
X183403266Y-99362353D01*
X183564418Y-99245269D01*
X183705269Y-99104418D01*
X183822353Y-98943266D01*
X183912785Y-98765783D01*
X183925140Y-98727758D01*
X183974338Y-98576343D01*
X183974338Y-98576342D01*
X183974339Y-98576339D01*
X184005500Y-98379597D01*
X184005500Y-98180403D01*
X183974339Y-97983661D01*
X183974338Y-97983657D01*
X183974338Y-97983656D01*
X183912786Y-97794219D01*
X183822352Y-97616733D01*
X183705269Y-97455582D01*
X183564418Y-97314731D01*
X183403266Y-97197647D01*
X183251827Y-97120485D01*
X183201031Y-97072510D01*
X183184236Y-97004689D01*
X183206773Y-96938554D01*
X183251827Y-96899515D01*
X183261116Y-96894781D01*
X183403266Y-96822353D01*
X183564418Y-96705269D01*
X183705269Y-96564418D01*
X183822353Y-96403266D01*
X183912785Y-96225783D01*
X183925140Y-96187758D01*
X183974338Y-96036343D01*
X183974338Y-96036342D01*
X183974339Y-96036339D01*
X184005500Y-95839597D01*
X184005500Y-95640403D01*
X183974339Y-95443661D01*
X183974338Y-95443657D01*
X183974338Y-95443656D01*
X183912786Y-95254219D01*
X183822352Y-95076733D01*
X183705269Y-94915582D01*
X183564418Y-94774731D01*
X183403266Y-94657647D01*
X183251827Y-94580485D01*
X183201031Y-94532510D01*
X183184236Y-94464689D01*
X183206773Y-94398554D01*
X183251827Y-94359515D01*
X183261116Y-94354781D01*
X183403266Y-94282353D01*
X183564418Y-94165269D01*
X183705269Y-94024418D01*
X183822353Y-93863266D01*
X183912785Y-93685783D01*
X183925140Y-93647758D01*
X183974338Y-93496343D01*
X183974338Y-93496342D01*
X183974339Y-93496339D01*
X184005500Y-93299597D01*
X184005500Y-93100403D01*
X183974339Y-92903661D01*
X183974338Y-92903657D01*
X183974338Y-92903656D01*
X183912786Y-92714219D01*
X183822352Y-92536733D01*
X183705269Y-92375582D01*
X183564418Y-92234731D01*
X183403266Y-92117647D01*
X183251827Y-92040485D01*
X183201031Y-91992510D01*
X183184236Y-91924689D01*
X183206773Y-91858554D01*
X183251827Y-91819515D01*
X183261116Y-91814781D01*
X183403266Y-91742353D01*
X183564418Y-91625269D01*
X183705269Y-91484418D01*
X183822353Y-91323266D01*
X183912785Y-91145783D01*
X183925140Y-91107758D01*
X183974338Y-90956343D01*
X183974338Y-90956342D01*
X183974339Y-90956339D01*
X184005500Y-90759597D01*
X184005500Y-90560403D01*
X183974339Y-90363661D01*
X183974338Y-90363657D01*
X183974338Y-90363656D01*
X183912786Y-90174219D01*
X183822352Y-89996733D01*
X183705269Y-89835582D01*
X183564418Y-89694731D01*
X183403266Y-89577647D01*
X183251827Y-89500485D01*
X183201031Y-89452510D01*
X183184236Y-89384689D01*
X183206773Y-89318554D01*
X183251827Y-89279515D01*
X183261116Y-89274781D01*
X183403266Y-89202353D01*
X183564418Y-89085269D01*
X183705269Y-88944418D01*
X183822353Y-88783266D01*
X183912785Y-88605783D01*
X183925140Y-88567758D01*
X183974338Y-88416343D01*
X183974338Y-88416342D01*
X183974339Y-88416339D01*
X184005500Y-88219597D01*
X184005500Y-88020403D01*
X183974339Y-87823661D01*
X183974338Y-87823657D01*
X183974338Y-87823656D01*
X183912786Y-87634219D01*
X183822352Y-87456733D01*
X183705269Y-87295582D01*
X183564418Y-87154731D01*
X183403266Y-87037647D01*
X183251827Y-86960485D01*
X183201031Y-86912510D01*
X183184236Y-86844689D01*
X183206773Y-86778554D01*
X183251827Y-86739515D01*
X183261116Y-86734781D01*
X183403266Y-86662353D01*
X183564418Y-86545269D01*
X183705269Y-86404418D01*
X183822353Y-86243266D01*
X183912785Y-86065783D01*
X183925140Y-86027758D01*
X183974338Y-85876343D01*
X183974338Y-85876342D01*
X183974339Y-85876339D01*
X184005500Y-85679597D01*
X184005500Y-85480403D01*
X183974339Y-85283661D01*
X183974338Y-85283657D01*
X183974338Y-85283656D01*
X183912786Y-85094219D01*
X183822352Y-84916733D01*
X183705269Y-84755582D01*
X183564418Y-84614731D01*
X183403266Y-84497647D01*
X183251827Y-84420485D01*
X183201031Y-84372510D01*
X183184236Y-84304689D01*
X183206773Y-84238554D01*
X183251827Y-84199515D01*
X183261116Y-84194781D01*
X183403266Y-84122353D01*
X183564418Y-84005269D01*
X183705269Y-83864418D01*
X183822353Y-83703266D01*
X183912785Y-83525783D01*
X183925140Y-83487758D01*
X183974338Y-83336343D01*
X183974338Y-83336342D01*
X183974339Y-83336339D01*
X184005500Y-83139597D01*
X184005500Y-82940403D01*
X183974339Y-82743661D01*
X183974338Y-82743657D01*
X183974338Y-82743656D01*
X183912786Y-82554219D01*
X183822352Y-82376733D01*
X183705269Y-82215582D01*
X183564418Y-82074731D01*
X183403266Y-81957647D01*
X183251827Y-81880485D01*
X183201031Y-81832510D01*
X183184236Y-81764689D01*
X183206773Y-81698554D01*
X183251827Y-81659515D01*
X183261116Y-81654781D01*
X183403266Y-81582353D01*
X183564418Y-81465269D01*
X183705269Y-81324418D01*
X183822353Y-81163266D01*
X183912785Y-80985783D01*
X183925140Y-80947758D01*
X183974338Y-80796343D01*
X183974338Y-80796342D01*
X183974339Y-80796339D01*
X184005500Y-80599597D01*
X184005500Y-80400403D01*
X183974339Y-80203661D01*
X183974338Y-80203657D01*
X183974338Y-80203656D01*
X183912786Y-80014219D01*
X183822352Y-79836733D01*
X183705269Y-79675582D01*
X183564418Y-79534731D01*
X183403266Y-79417647D01*
X183251827Y-79340485D01*
X183201031Y-79292510D01*
X183184236Y-79224689D01*
X183206773Y-79158554D01*
X183251827Y-79119515D01*
X183261116Y-79114781D01*
X183403266Y-79042353D01*
X183564418Y-78925269D01*
X183705269Y-78784418D01*
X183822353Y-78623266D01*
X183912785Y-78445783D01*
X183921006Y-78420481D01*
X183974338Y-78256343D01*
X183974338Y-78256342D01*
X183974339Y-78256339D01*
X184005500Y-78059597D01*
X184005500Y-77860403D01*
X183974339Y-77663661D01*
X183974338Y-77663657D01*
X183974338Y-77663656D01*
X183912786Y-77474219D01*
X183899514Y-77448172D01*
X183822353Y-77296734D01*
X183705269Y-77135582D01*
X183564418Y-76994731D01*
X183403266Y-76877647D01*
X183403262Y-76877645D01*
X183251277Y-76800204D01*
X183200481Y-76752229D01*
X183183686Y-76684408D01*
X183206224Y-76618273D01*
X183251277Y-76579234D01*
X183403005Y-76501924D01*
X183440863Y-76474418D01*
X183440863Y-76474417D01*
X182877574Y-75911128D01*
X182936853Y-75895245D01*
X183053147Y-75828102D01*
X183148102Y-75733147D01*
X183215245Y-75616853D01*
X183231128Y-75557574D01*
X183794417Y-76120863D01*
X183794418Y-76120863D01*
X183821924Y-76083005D01*
X183912320Y-75905594D01*
X183973852Y-75716222D01*
X184005000Y-75519563D01*
X184005000Y-75320436D01*
X183973852Y-75123777D01*
X183912320Y-74934405D01*
X183821924Y-74756994D01*
X183794417Y-74719135D01*
X183794417Y-74719134D01*
X183231128Y-75282424D01*
X183215245Y-75223147D01*
X183148102Y-75106853D01*
X183053147Y-75011898D01*
X182936853Y-74944755D01*
X182877574Y-74928871D01*
X183440864Y-74365581D01*
X183440863Y-74365580D01*
X183403008Y-74338077D01*
X183251277Y-74260765D01*
X183200481Y-74212790D01*
X183183686Y-74144969D01*
X183206224Y-74078834D01*
X183251277Y-74039795D01*
X183251827Y-74039515D01*
X183403266Y-73962353D01*
X183564418Y-73845269D01*
X183705269Y-73704418D01*
X183822353Y-73543266D01*
X183912785Y-73365783D01*
X183924927Y-73328415D01*
X183974338Y-73176343D01*
X183974338Y-73176342D01*
X183974339Y-73176339D01*
X184005500Y-72979597D01*
X184005500Y-72780403D01*
X183974339Y-72583661D01*
X183974338Y-72583657D01*
X183974338Y-72583656D01*
X183912786Y-72394219D01*
X183899514Y-72368172D01*
X183822353Y-72216734D01*
X183705269Y-72055582D01*
X183564418Y-71914731D01*
X183403266Y-71797647D01*
X183251827Y-71720485D01*
X183201031Y-71672510D01*
X183184236Y-71604689D01*
X183206773Y-71538554D01*
X183251827Y-71499515D01*
X183261116Y-71494781D01*
X183403266Y-71422353D01*
X183564418Y-71305269D01*
X183705269Y-71164418D01*
X183822353Y-71003266D01*
X183912785Y-70825783D01*
X183925140Y-70787758D01*
X183974338Y-70636343D01*
X183974338Y-70636342D01*
X183974339Y-70636339D01*
X184005500Y-70439597D01*
X184005500Y-70240403D01*
X183974339Y-70043661D01*
X183974338Y-70043657D01*
X183974338Y-70043656D01*
X183912786Y-69854219D01*
X183822352Y-69676733D01*
X183705269Y-69515582D01*
X183564418Y-69374731D01*
X183403266Y-69257647D01*
X183251827Y-69180485D01*
X183201031Y-69132510D01*
X183184236Y-69064689D01*
X183206773Y-68998554D01*
X183251827Y-68959515D01*
X183261116Y-68954781D01*
X183403266Y-68882353D01*
X183564418Y-68765269D01*
X183705269Y-68624418D01*
X183822353Y-68463266D01*
X183912785Y-68285783D01*
X183925140Y-68247758D01*
X183974338Y-68096343D01*
X183974338Y-68096342D01*
X183974339Y-68096339D01*
X184005500Y-67899597D01*
X184005500Y-67700403D01*
X183974339Y-67503661D01*
X183974338Y-67503657D01*
X183974338Y-67503656D01*
X183912786Y-67314219D01*
X183822352Y-67136733D01*
X183705269Y-66975582D01*
X183564418Y-66834731D01*
X183403266Y-66717647D01*
X183251827Y-66640485D01*
X183201031Y-66592510D01*
X183184236Y-66524689D01*
X183206773Y-66458554D01*
X183251827Y-66419515D01*
X183261116Y-66414781D01*
X183403266Y-66342353D01*
X183564418Y-66225269D01*
X183705269Y-66084418D01*
X183822353Y-65923266D01*
X183912785Y-65745783D01*
X183925140Y-65707758D01*
X183974338Y-65556343D01*
X183974338Y-65556342D01*
X183974339Y-65556339D01*
X184005500Y-65359597D01*
X184005500Y-65160403D01*
X183974339Y-64963661D01*
X183974338Y-64963657D01*
X183974338Y-64963656D01*
X183912786Y-64774219D01*
X183822352Y-64596733D01*
X183705269Y-64435582D01*
X183564418Y-64294731D01*
X183403266Y-64177647D01*
X183251827Y-64100485D01*
X183201031Y-64052510D01*
X183184236Y-63984689D01*
X183206773Y-63918554D01*
X183251827Y-63879515D01*
X183261116Y-63874781D01*
X183403266Y-63802353D01*
X183564418Y-63685269D01*
X183705269Y-63544418D01*
X183822353Y-63383266D01*
X183912785Y-63205783D01*
X183925140Y-63167758D01*
X183974338Y-63016343D01*
X183974338Y-63016342D01*
X183974339Y-63016339D01*
X184005500Y-62819597D01*
X184005500Y-62620403D01*
X183974339Y-62423661D01*
X183974338Y-62423657D01*
X183974338Y-62423656D01*
X183912786Y-62234219D01*
X183822483Y-62056990D01*
X183822353Y-62056734D01*
X183705269Y-61895582D01*
X183564418Y-61754731D01*
X183403266Y-61637647D01*
X183251827Y-61560485D01*
X183201031Y-61512510D01*
X183184236Y-61444689D01*
X183206773Y-61378554D01*
X183251827Y-61339515D01*
X183261116Y-61334781D01*
X183403266Y-61262353D01*
X183564418Y-61145269D01*
X183705269Y-61004418D01*
X183822353Y-60843266D01*
X183912785Y-60665783D01*
X183920827Y-60641031D01*
X183974338Y-60476343D01*
X183974338Y-60476342D01*
X183974339Y-60476339D01*
X184005500Y-60279597D01*
X184005500Y-60080403D01*
X183974339Y-59883661D01*
X183974338Y-59883657D01*
X183974338Y-59883656D01*
X183912786Y-59694219D01*
X183822352Y-59516733D01*
X183705269Y-59355582D01*
X183564418Y-59214731D01*
X183403266Y-59097647D01*
X183251827Y-59020485D01*
X183201031Y-58972510D01*
X183184236Y-58904689D01*
X183206773Y-58838554D01*
X183251827Y-58799515D01*
X183261116Y-58794781D01*
X183403266Y-58722353D01*
X183564418Y-58605269D01*
X183705269Y-58464418D01*
X183822353Y-58303266D01*
X183912785Y-58125783D01*
X183925140Y-58087758D01*
X183974338Y-57936343D01*
X183974338Y-57936342D01*
X183974339Y-57936339D01*
X184005500Y-57739597D01*
X184005500Y-57540403D01*
X183974339Y-57343661D01*
X183974338Y-57343657D01*
X183974338Y-57343656D01*
X183912786Y-57154219D01*
X183822352Y-56976733D01*
X183804436Y-56952074D01*
X183705269Y-56815582D01*
X183564418Y-56674731D01*
X183403266Y-56557647D01*
X183251827Y-56480485D01*
X183201031Y-56432510D01*
X183184236Y-56364689D01*
X183206773Y-56298554D01*
X183251827Y-56259515D01*
X183261116Y-56254781D01*
X183403266Y-56182353D01*
X183564418Y-56065269D01*
X183705269Y-55924418D01*
X183822353Y-55763266D01*
X183912785Y-55585783D01*
X183925140Y-55547758D01*
X183974338Y-55396343D01*
X183974338Y-55396342D01*
X183974339Y-55396339D01*
X184005500Y-55199597D01*
X184005500Y-55000403D01*
X183974339Y-54803661D01*
X183974338Y-54803657D01*
X183974338Y-54803656D01*
X183912786Y-54614219D01*
X183861762Y-54514079D01*
X183822353Y-54436734D01*
X183705269Y-54275582D01*
X183564418Y-54134731D01*
X183403266Y-54017647D01*
X183251827Y-53940485D01*
X183201031Y-53892510D01*
X183184236Y-53824689D01*
X183206773Y-53758554D01*
X183251827Y-53719515D01*
X183271832Y-53709322D01*
X183403266Y-53642353D01*
X183564418Y-53525269D01*
X183705269Y-53384418D01*
X183822353Y-53223266D01*
X183912785Y-53045783D01*
X183974339Y-52856339D01*
X184005500Y-52659597D01*
X184005500Y-52460403D01*
X183974339Y-52263661D01*
X183974338Y-52263657D01*
X183974338Y-52263656D01*
X183912786Y-52074219D01*
X183851396Y-51953734D01*
X183822353Y-51896734D01*
X183705269Y-51735582D01*
X183564418Y-51594731D01*
X183403266Y-51477647D01*
X183324379Y-51437452D01*
X183225780Y-51387213D01*
X183036342Y-51325661D01*
X182888782Y-51302290D01*
X182839597Y-51294500D01*
X182640403Y-51294500D01*
X182574822Y-51304887D01*
X182443659Y-51325661D01*
X182443656Y-51325661D01*
X182254219Y-51387213D01*
X182076733Y-51477647D01*
X181984790Y-51544447D01*
X181915582Y-51594731D01*
X181915580Y-51594733D01*
X181915579Y-51594733D01*
X181774733Y-51735579D01*
X181774733Y-51735580D01*
X181774731Y-51735582D01*
X181742772Y-51779570D01*
X181689817Y-51852456D01*
X181634487Y-51895121D01*
X181564873Y-51901100D01*
X181503078Y-51868494D01*
X181468721Y-51807655D01*
X181465499Y-51779570D01*
X181465499Y-51747129D01*
X181465498Y-51747123D01*
X181465497Y-51747116D01*
X181459091Y-51687517D01*
X181408796Y-51552669D01*
X181408795Y-51552668D01*
X181408793Y-51552664D01*
X181322547Y-51437455D01*
X181322544Y-51437452D01*
X181207335Y-51351206D01*
X181207328Y-51351202D01*
X181072482Y-51300908D01*
X181072483Y-51300908D01*
X181012883Y-51294501D01*
X181012881Y-51294500D01*
X181012873Y-51294500D01*
X181012864Y-51294500D01*
X179387129Y-51294500D01*
X179387123Y-51294501D01*
X179327516Y-51300908D01*
X179192671Y-51351202D01*
X179192664Y-51351206D01*
X179077455Y-51437452D01*
X179077452Y-51437455D01*
X178991206Y-51552664D01*
X178991202Y-51552671D01*
X178940908Y-51687517D01*
X178935741Y-51735580D01*
X178934501Y-51747123D01*
X178934500Y-51747135D01*
X166200500Y-51747135D01*
X166200500Y-49506092D01*
X166201097Y-49493939D01*
X166209805Y-49405519D01*
X166214665Y-49356171D01*
X166219403Y-49332349D01*
X166257816Y-49205719D01*
X166267113Y-49183278D01*
X166329485Y-49066587D01*
X166342982Y-49046387D01*
X166426924Y-48944103D01*
X166444103Y-48926924D01*
X166546387Y-48842982D01*
X166566587Y-48829485D01*
X166683278Y-48767113D01*
X166705719Y-48757816D01*
X166832349Y-48719403D01*
X166856173Y-48714665D01*
X166985170Y-48701960D01*
X166993939Y-48701097D01*
X167006092Y-48700500D01*
X167039882Y-48700500D01*
X184960118Y-48700500D01*
X184993908Y-48700500D01*
X185006061Y-48701097D01*
X185016051Y-48702080D01*
X185143824Y-48714665D01*
X185167652Y-48719404D01*
X185294277Y-48757815D01*
X185316725Y-48767114D01*
X185433406Y-48829482D01*
X185453616Y-48842986D01*
X185555891Y-48926920D01*
X185573079Y-48944108D01*
X185657012Y-49046381D01*
X185670517Y-49066593D01*
X185732883Y-49183271D01*
X185742186Y-49205728D01*
X185780593Y-49332338D01*
X185785335Y-49356180D01*
X185798903Y-49493938D01*
X185799500Y-49506092D01*
X185799500Y-111995933D01*
X185799235Y-112004043D01*
X185784636Y-112226778D01*
X185782518Y-112242859D01*
X185739769Y-112457771D01*
X185735571Y-112473438D01*
X185665133Y-112680942D01*
X185658926Y-112695928D01*
X185562007Y-112892460D01*
X185553897Y-112906507D01*
X185432154Y-113088708D01*
X185422280Y-113101576D01*
X185277797Y-113266328D01*
X185266328Y-113277797D01*
X185101576Y-113422280D01*
X185088708Y-113432154D01*
X184906507Y-113553897D01*
X184892460Y-113562007D01*
X184695928Y-113658926D01*
X184680942Y-113665133D01*
X184473438Y-113735571D01*
X184457771Y-113739769D01*
X184242859Y-113782518D01*
X184226778Y-113784636D01*
X184004043Y-113799235D01*
X183995933Y-113799500D01*
X163960116Y-113799500D01*
X163886425Y-113830024D01*
X163886424Y-113830025D01*
X161953269Y-115763181D01*
X161891946Y-115796666D01*
X161865588Y-115799500D01*
X129134412Y-115799500D01*
X129067373Y-115779815D01*
X129046731Y-115763181D01*
X127113574Y-113830024D01*
X127039883Y-113799500D01*
X127039882Y-113799500D01*
X118004067Y-113799500D01*
X117995957Y-113799235D01*
X117773221Y-113784636D01*
X117757140Y-113782518D01*
X117542228Y-113739769D01*
X117526561Y-113735571D01*
X117319057Y-113665133D01*
X117304071Y-113658926D01*
X117107539Y-113562007D01*
X117093492Y-113553897D01*
X116981500Y-113479066D01*
X116911291Y-113432154D01*
X116898423Y-113422280D01*
X116850237Y-113380022D01*
X158039500Y-113380022D01*
X158039500Y-113619977D01*
X158070818Y-113857868D01*
X158070819Y-113857873D01*
X158070820Y-113857879D01*
X158070821Y-113857881D01*
X158132924Y-114089656D01*
X158224749Y-114311340D01*
X158224753Y-114311350D01*
X158344728Y-114519153D01*
X158490802Y-114709520D01*
X158490808Y-114709527D01*
X158660472Y-114879191D01*
X158660479Y-114879197D01*
X158850846Y-115025271D01*
X159058649Y-115145246D01*
X159058650Y-115145246D01*
X159058653Y-115145248D01*
X159280342Y-115237075D01*
X159512121Y-115299180D01*
X159680139Y-115321299D01*
X159750022Y-115330500D01*
X159750023Y-115330500D01*
X159989978Y-115330500D01*
X160043992Y-115323388D01*
X160227879Y-115299180D01*
X160459658Y-115237075D01*
X160681347Y-115145248D01*
X160889154Y-115025271D01*
X161079522Y-114879196D01*
X161249196Y-114709522D01*
X161395271Y-114519154D01*
X161515248Y-114311347D01*
X161607075Y-114089658D01*
X161669180Y-113857879D01*
X161700500Y-113619977D01*
X161700500Y-113380023D01*
X161669180Y-113142121D01*
X161607075Y-112910342D01*
X161515248Y-112688653D01*
X161503289Y-112667940D01*
X161395271Y-112480846D01*
X161249197Y-112290479D01*
X161249191Y-112290472D01*
X161079527Y-112120808D01*
X161079520Y-112120802D01*
X160889153Y-111974728D01*
X160681350Y-111854753D01*
X160681340Y-111854749D01*
X160459656Y-111762924D01*
X160343768Y-111731872D01*
X160227879Y-111700820D01*
X160227873Y-111700819D01*
X160227868Y-111700818D01*
X159989978Y-111669500D01*
X159989977Y-111669500D01*
X159750023Y-111669500D01*
X159750022Y-111669500D01*
X159512131Y-111700818D01*
X159512124Y-111700819D01*
X159512121Y-111700820D01*
X159463138Y-111713944D01*
X159280343Y-111762924D01*
X159058659Y-111854749D01*
X159058649Y-111854753D01*
X158850846Y-111974728D01*
X158660479Y-112120802D01*
X158660472Y-112120808D01*
X158490808Y-112290472D01*
X158490802Y-112290479D01*
X158344728Y-112480846D01*
X158224753Y-112688649D01*
X158224749Y-112688659D01*
X158132924Y-112910343D01*
X158070821Y-113142118D01*
X158070818Y-113142131D01*
X158039500Y-113380022D01*
X116850237Y-113380022D01*
X116733671Y-113277797D01*
X116722202Y-113266328D01*
X116669730Y-113206495D01*
X116577716Y-113101573D01*
X116567845Y-113088708D01*
X116446102Y-112906507D01*
X116437992Y-112892460D01*
X116399094Y-112813583D01*
X116341070Y-112695921D01*
X116334866Y-112680942D01*
X116330452Y-112667940D01*
X116316409Y-112626569D01*
X116264428Y-112473438D01*
X116260230Y-112457771D01*
X116236023Y-112336074D01*
X116217479Y-112242848D01*
X116215364Y-112226790D01*
X116200765Y-112004043D01*
X116200500Y-111995933D01*
X116200500Y-111960759D01*
X132675500Y-111960759D01*
X132675500Y-112119240D01*
X132706414Y-112274656D01*
X132706416Y-112274664D01*
X132767059Y-112421071D01*
X132767064Y-112421080D01*
X132855103Y-112552838D01*
X132855106Y-112552842D01*
X132967157Y-112664893D01*
X132967161Y-112664896D01*
X133098919Y-112752935D01*
X133098928Y-112752940D01*
X133132095Y-112766678D01*
X133245336Y-112813584D01*
X133400759Y-112844499D01*
X133400763Y-112844500D01*
X133400764Y-112844500D01*
X133559237Y-112844500D01*
X133559238Y-112844499D01*
X133714664Y-112813584D01*
X133861074Y-112752939D01*
X133992839Y-112664896D01*
X134104896Y-112552839D01*
X134192939Y-112421074D01*
X134253584Y-112274664D01*
X134284500Y-112119236D01*
X134284500Y-111960764D01*
X134284499Y-111960759D01*
X135215500Y-111960759D01*
X135215500Y-112119240D01*
X135246414Y-112274656D01*
X135246416Y-112274664D01*
X135307059Y-112421071D01*
X135307064Y-112421080D01*
X135395103Y-112552838D01*
X135395106Y-112552842D01*
X135507157Y-112664893D01*
X135507161Y-112664896D01*
X135638919Y-112752935D01*
X135638928Y-112752940D01*
X135672095Y-112766678D01*
X135785336Y-112813584D01*
X135940759Y-112844499D01*
X135940763Y-112844500D01*
X135940764Y-112844500D01*
X136099237Y-112844500D01*
X136099238Y-112844499D01*
X136254664Y-112813584D01*
X136401074Y-112752939D01*
X136532839Y-112664896D01*
X136644896Y-112552839D01*
X136732939Y-112421074D01*
X136793584Y-112274664D01*
X136824500Y-112119236D01*
X136824500Y-111960764D01*
X136807592Y-111875759D01*
X150155500Y-111875759D01*
X150155500Y-112034240D01*
X150186414Y-112189656D01*
X150186416Y-112189664D01*
X150247059Y-112336071D01*
X150247064Y-112336080D01*
X150335103Y-112467838D01*
X150335106Y-112467842D01*
X150447157Y-112579893D01*
X150447161Y-112579896D01*
X150578919Y-112667935D01*
X150578925Y-112667938D01*
X150578926Y-112667939D01*
X150725336Y-112728584D01*
X150880759Y-112759499D01*
X150880763Y-112759500D01*
X150880764Y-112759500D01*
X151039237Y-112759500D01*
X151039238Y-112759499D01*
X151194664Y-112728584D01*
X151341074Y-112667939D01*
X151472839Y-112579896D01*
X151584896Y-112467839D01*
X151672939Y-112336074D01*
X151733584Y-112189664D01*
X151764500Y-112034236D01*
X151764500Y-111875764D01*
X151764499Y-111875759D01*
X152695500Y-111875759D01*
X152695500Y-112034240D01*
X152726414Y-112189656D01*
X152726416Y-112189664D01*
X152787059Y-112336071D01*
X152787064Y-112336080D01*
X152875103Y-112467838D01*
X152875106Y-112467842D01*
X152987157Y-112579893D01*
X152987161Y-112579896D01*
X153118919Y-112667935D01*
X153118925Y-112667938D01*
X153118926Y-112667939D01*
X153265336Y-112728584D01*
X153420759Y-112759499D01*
X153420763Y-112759500D01*
X153420764Y-112759500D01*
X153579237Y-112759500D01*
X153579238Y-112759499D01*
X153734664Y-112728584D01*
X153881074Y-112667939D01*
X154012839Y-112579896D01*
X154124896Y-112467839D01*
X154212939Y-112336074D01*
X154273584Y-112189664D01*
X154304500Y-112034236D01*
X154304500Y-111875764D01*
X154273584Y-111720336D01*
X154212939Y-111573926D01*
X154212938Y-111573925D01*
X154212935Y-111573919D01*
X154124896Y-111442161D01*
X154124893Y-111442157D01*
X154012842Y-111330106D01*
X154012838Y-111330103D01*
X153881080Y-111242064D01*
X153881071Y-111242059D01*
X153734664Y-111181416D01*
X153734656Y-111181414D01*
X153579240Y-111150500D01*
X153579236Y-111150500D01*
X153420764Y-111150500D01*
X153420759Y-111150500D01*
X153265343Y-111181414D01*
X153265335Y-111181416D01*
X153118928Y-111242059D01*
X153118919Y-111242064D01*
X152987161Y-111330103D01*
X152987157Y-111330106D01*
X152875106Y-111442157D01*
X152875103Y-111442161D01*
X152787064Y-111573919D01*
X152787059Y-111573928D01*
X152726416Y-111720335D01*
X152726414Y-111720343D01*
X152695500Y-111875759D01*
X151764499Y-111875759D01*
X151733584Y-111720336D01*
X151672939Y-111573926D01*
X151672938Y-111573925D01*
X151672935Y-111573919D01*
X151584896Y-111442161D01*
X151584893Y-111442157D01*
X151472842Y-111330106D01*
X151472838Y-111330103D01*
X151341080Y-111242064D01*
X151341071Y-111242059D01*
X151194664Y-111181416D01*
X151194656Y-111181414D01*
X151039240Y-111150500D01*
X151039236Y-111150500D01*
X150880764Y-111150500D01*
X150880759Y-111150500D01*
X150725343Y-111181414D01*
X150725335Y-111181416D01*
X150578928Y-111242059D01*
X150578919Y-111242064D01*
X150447161Y-111330103D01*
X150447157Y-111330106D01*
X150335106Y-111442157D01*
X150335103Y-111442161D01*
X150247064Y-111573919D01*
X150247059Y-111573928D01*
X150186416Y-111720335D01*
X150186414Y-111720343D01*
X150155500Y-111875759D01*
X136807592Y-111875759D01*
X136793584Y-111805336D01*
X136732939Y-111658926D01*
X136732938Y-111658925D01*
X136732935Y-111658919D01*
X136644896Y-111527161D01*
X136644893Y-111527157D01*
X136532842Y-111415106D01*
X136532838Y-111415103D01*
X136401080Y-111327064D01*
X136401071Y-111327059D01*
X136254664Y-111266416D01*
X136254656Y-111266414D01*
X136099240Y-111235500D01*
X136099236Y-111235500D01*
X135940764Y-111235500D01*
X135940759Y-111235500D01*
X135785343Y-111266414D01*
X135785335Y-111266416D01*
X135638928Y-111327059D01*
X135638919Y-111327064D01*
X135507161Y-111415103D01*
X135507157Y-111415106D01*
X135395106Y-111527157D01*
X135395103Y-111527161D01*
X135307064Y-111658919D01*
X135307059Y-111658928D01*
X135246416Y-111805335D01*
X135246414Y-111805343D01*
X135215500Y-111960759D01*
X134284499Y-111960759D01*
X134253584Y-111805336D01*
X134192939Y-111658926D01*
X134192938Y-111658925D01*
X134192935Y-111658919D01*
X134104896Y-111527161D01*
X134104893Y-111527157D01*
X133992842Y-111415106D01*
X133992838Y-111415103D01*
X133861080Y-111327064D01*
X133861071Y-111327059D01*
X133714664Y-111266416D01*
X133714656Y-111266414D01*
X133559240Y-111235500D01*
X133559236Y-111235500D01*
X133400764Y-111235500D01*
X133400759Y-111235500D01*
X133245343Y-111266414D01*
X133245335Y-111266416D01*
X133098928Y-111327059D01*
X133098919Y-111327064D01*
X132967161Y-111415103D01*
X132967157Y-111415106D01*
X132855106Y-111527157D01*
X132855103Y-111527161D01*
X132767064Y-111658919D01*
X132767059Y-111658928D01*
X132706416Y-111805335D01*
X132706414Y-111805343D01*
X132675500Y-111960759D01*
X116200500Y-111960759D01*
X116200500Y-51747135D01*
X117994500Y-51747135D01*
X117994500Y-53372870D01*
X117994501Y-53372876D01*
X118000908Y-53432483D01*
X118051202Y-53567328D01*
X118051206Y-53567335D01*
X118137452Y-53682544D01*
X118137455Y-53682547D01*
X118252664Y-53768793D01*
X118252671Y-53768797D01*
X118387517Y-53819091D01*
X118387516Y-53819091D01*
X118394444Y-53819835D01*
X118447127Y-53825500D01*
X118479568Y-53825499D01*
X118546605Y-53845182D01*
X118592361Y-53897984D01*
X118602306Y-53967143D01*
X118573283Y-54030699D01*
X118552455Y-54049816D01*
X118435582Y-54134730D01*
X118294733Y-54275579D01*
X118294733Y-54275580D01*
X118294731Y-54275582D01*
X118288932Y-54283564D01*
X118177647Y-54436733D01*
X118087213Y-54614219D01*
X118025661Y-54803656D01*
X118025661Y-54803659D01*
X117994500Y-55000403D01*
X117994500Y-55199596D01*
X118025661Y-55396340D01*
X118025661Y-55396343D01*
X118087213Y-55585780D01*
X118177647Y-55763266D01*
X118294731Y-55924418D01*
X118435582Y-56065269D01*
X118596734Y-56182353D01*
X118666453Y-56217877D01*
X118748172Y-56259515D01*
X118798968Y-56307490D01*
X118815763Y-56375311D01*
X118793225Y-56441446D01*
X118748172Y-56480485D01*
X118596733Y-56557647D01*
X118541764Y-56597585D01*
X118435582Y-56674731D01*
X118435580Y-56674733D01*
X118435579Y-56674733D01*
X118294733Y-56815579D01*
X118294733Y-56815580D01*
X118294731Y-56815582D01*
X118244447Y-56884790D01*
X118177647Y-56976733D01*
X118087213Y-57154219D01*
X118025661Y-57343656D01*
X118025661Y-57343659D01*
X117994500Y-57540403D01*
X117994500Y-57739596D01*
X118025661Y-57936340D01*
X118025661Y-57936343D01*
X118087213Y-58125780D01*
X118100485Y-58151827D01*
X118177647Y-58303266D01*
X118294731Y-58464418D01*
X118435582Y-58605269D01*
X118596734Y-58722353D01*
X118666453Y-58757877D01*
X118748172Y-58799515D01*
X118798968Y-58847490D01*
X118815763Y-58915311D01*
X118793225Y-58981446D01*
X118748172Y-59020485D01*
X118596733Y-59097647D01*
X118504790Y-59164447D01*
X118435582Y-59214731D01*
X118435580Y-59214733D01*
X118435579Y-59214733D01*
X118294733Y-59355579D01*
X118294733Y-59355580D01*
X118294731Y-59355582D01*
X118244447Y-59424790D01*
X118177647Y-59516733D01*
X118087213Y-59694219D01*
X118025661Y-59883656D01*
X118025661Y-59883659D01*
X117994500Y-60080403D01*
X117994500Y-60279596D01*
X118025661Y-60476340D01*
X118025661Y-60476343D01*
X118087213Y-60665780D01*
X118087215Y-60665783D01*
X118177647Y-60843266D01*
X118294731Y-61004418D01*
X118435582Y-61145269D01*
X118596734Y-61262353D01*
X118666453Y-61297877D01*
X118748172Y-61339515D01*
X118798968Y-61387490D01*
X118815763Y-61455311D01*
X118793225Y-61521446D01*
X118748172Y-61560485D01*
X118596733Y-61637647D01*
X118504790Y-61704447D01*
X118435582Y-61754731D01*
X118435580Y-61754733D01*
X118435579Y-61754733D01*
X118294733Y-61895579D01*
X118294733Y-61895580D01*
X118294731Y-61895582D01*
X118244447Y-61964790D01*
X118177647Y-62056733D01*
X118087213Y-62234219D01*
X118025661Y-62423656D01*
X118025661Y-62423659D01*
X117994500Y-62620403D01*
X117994500Y-62819596D01*
X118025661Y-63016340D01*
X118025661Y-63016343D01*
X118087213Y-63205780D01*
X118100485Y-63231827D01*
X118177647Y-63383266D01*
X118294731Y-63544418D01*
X118435582Y-63685269D01*
X118596734Y-63802353D01*
X118666453Y-63837877D01*
X118748172Y-63879515D01*
X118798968Y-63927490D01*
X118815763Y-63995311D01*
X118793225Y-64061446D01*
X118748172Y-64100485D01*
X118596733Y-64177647D01*
X118504790Y-64244447D01*
X118435582Y-64294731D01*
X118435580Y-64294733D01*
X118435579Y-64294733D01*
X118294733Y-64435579D01*
X118294733Y-64435580D01*
X118294731Y-64435582D01*
X118244447Y-64504790D01*
X118177647Y-64596733D01*
X118087213Y-64774219D01*
X118025661Y-64963656D01*
X118025661Y-64963659D01*
X117994500Y-65160403D01*
X117994500Y-65359596D01*
X118025661Y-65556340D01*
X118025661Y-65556343D01*
X118087213Y-65745780D01*
X118100485Y-65771827D01*
X118177647Y-65923266D01*
X118294731Y-66084418D01*
X118435582Y-66225269D01*
X118596734Y-66342353D01*
X118666453Y-66377877D01*
X118748172Y-66419515D01*
X118798968Y-66467490D01*
X118815763Y-66535311D01*
X118793225Y-66601446D01*
X118748172Y-66640485D01*
X118596733Y-66717647D01*
X118504790Y-66784447D01*
X118435582Y-66834731D01*
X118435580Y-66834733D01*
X118435579Y-66834733D01*
X118294733Y-66975579D01*
X118294733Y-66975580D01*
X118294731Y-66975582D01*
X118244447Y-67044790D01*
X118177647Y-67136733D01*
X118087213Y-67314219D01*
X118025661Y-67503656D01*
X118025661Y-67503659D01*
X117994500Y-67700403D01*
X117994500Y-67899596D01*
X118025661Y-68096340D01*
X118025661Y-68096343D01*
X118087213Y-68285780D01*
X118100485Y-68311827D01*
X118177647Y-68463266D01*
X118294731Y-68624418D01*
X118435582Y-68765269D01*
X118596734Y-68882353D01*
X118666453Y-68917877D01*
X118748172Y-68959515D01*
X118798968Y-69007490D01*
X118815763Y-69075311D01*
X118793225Y-69141446D01*
X118748172Y-69180485D01*
X118596733Y-69257647D01*
X118504790Y-69324447D01*
X118435582Y-69374731D01*
X118435580Y-69374733D01*
X118435579Y-69374733D01*
X118294733Y-69515579D01*
X118294733Y-69515580D01*
X118294731Y-69515582D01*
X118244447Y-69584790D01*
X118177647Y-69676733D01*
X118087213Y-69854219D01*
X118025661Y-70043656D01*
X118025661Y-70043659D01*
X117994500Y-70240403D01*
X117994500Y-70439596D01*
X118025661Y-70636340D01*
X118025661Y-70636343D01*
X118087213Y-70825780D01*
X118100485Y-70851827D01*
X118177647Y-71003266D01*
X118294731Y-71164418D01*
X118435582Y-71305269D01*
X118596734Y-71422353D01*
X118666453Y-71457877D01*
X118748172Y-71499515D01*
X118798968Y-71547490D01*
X118815763Y-71615311D01*
X118793225Y-71681446D01*
X118748172Y-71720485D01*
X118596733Y-71797647D01*
X118504790Y-71864447D01*
X118435582Y-71914731D01*
X118435580Y-71914733D01*
X118435579Y-71914733D01*
X118294733Y-72055579D01*
X118294733Y-72055580D01*
X118294731Y-72055582D01*
X118262823Y-72099500D01*
X118177647Y-72216733D01*
X118087213Y-72394219D01*
X118025661Y-72583656D01*
X118025661Y-72583659D01*
X117994500Y-72780403D01*
X117994500Y-72979596D01*
X118025661Y-73176340D01*
X118025661Y-73176343D01*
X118087213Y-73365780D01*
X118163289Y-73515087D01*
X118177647Y-73543266D01*
X118294731Y-73704418D01*
X118435582Y-73845269D01*
X118596734Y-73962353D01*
X118686909Y-74008299D01*
X118748722Y-74039795D01*
X118799518Y-74087770D01*
X118816313Y-74155591D01*
X118793776Y-74221726D01*
X118748723Y-74260764D01*
X118596993Y-74338075D01*
X118559135Y-74365580D01*
X118559135Y-74365581D01*
X119122425Y-74928871D01*
X119063147Y-74944755D01*
X118946853Y-75011898D01*
X118851898Y-75106853D01*
X118784755Y-75223147D01*
X118768871Y-75282425D01*
X118205581Y-74719135D01*
X118205580Y-74719135D01*
X118178077Y-74756990D01*
X118087679Y-74934405D01*
X118026147Y-75123777D01*
X117995000Y-75320436D01*
X117995000Y-75519563D01*
X118026147Y-75716222D01*
X118087679Y-75905594D01*
X118178077Y-76083008D01*
X118205580Y-76120863D01*
X118205581Y-76120864D01*
X118768871Y-75557574D01*
X118784755Y-75616853D01*
X118851898Y-75733147D01*
X118946853Y-75828102D01*
X119063147Y-75895245D01*
X119122425Y-75911128D01*
X118559134Y-76474417D01*
X118596994Y-76501924D01*
X118748722Y-76579234D01*
X118799518Y-76627209D01*
X118816313Y-76695030D01*
X118793776Y-76761165D01*
X118748723Y-76800203D01*
X118596735Y-76877645D01*
X118521498Y-76932309D01*
X118435582Y-76994731D01*
X118435580Y-76994733D01*
X118435579Y-76994733D01*
X118294733Y-77135579D01*
X118294733Y-77135580D01*
X118294731Y-77135582D01*
X118266878Y-77173918D01*
X118177647Y-77296733D01*
X118087213Y-77474219D01*
X118025661Y-77663656D01*
X118025661Y-77663659D01*
X117994500Y-77860403D01*
X117994500Y-78059596D01*
X118025661Y-78256340D01*
X118025661Y-78256343D01*
X118087213Y-78445780D01*
X118100485Y-78471827D01*
X118177647Y-78623266D01*
X118294731Y-78784418D01*
X118435582Y-78925269D01*
X118596734Y-79042353D01*
X118666453Y-79077877D01*
X118748172Y-79119515D01*
X118798968Y-79167490D01*
X118815763Y-79235311D01*
X118793225Y-79301446D01*
X118748172Y-79340485D01*
X118596733Y-79417647D01*
X118504790Y-79484447D01*
X118435582Y-79534731D01*
X118435580Y-79534733D01*
X118435579Y-79534733D01*
X118294733Y-79675579D01*
X118294733Y-79675580D01*
X118294731Y-79675582D01*
X118264602Y-79717051D01*
X118177647Y-79836733D01*
X118087213Y-80014219D01*
X118025661Y-80203656D01*
X118025661Y-80203659D01*
X117994500Y-80400403D01*
X117994500Y-80599596D01*
X118025661Y-80796340D01*
X118025661Y-80796343D01*
X118087213Y-80985780D01*
X118117135Y-81044505D01*
X118177647Y-81163266D01*
X118294731Y-81324418D01*
X118435582Y-81465269D01*
X118596734Y-81582353D01*
X118666453Y-81617877D01*
X118748172Y-81659515D01*
X118798968Y-81707490D01*
X118815763Y-81775311D01*
X118793225Y-81841446D01*
X118748172Y-81880485D01*
X118596733Y-81957647D01*
X118504790Y-82024447D01*
X118435582Y-82074731D01*
X118435580Y-82074733D01*
X118435579Y-82074733D01*
X118294733Y-82215579D01*
X118294733Y-82215580D01*
X118294731Y-82215582D01*
X118244447Y-82284790D01*
X118177647Y-82376733D01*
X118087213Y-82554219D01*
X118025661Y-82743656D01*
X118025661Y-82743659D01*
X118025661Y-82743661D01*
X117994500Y-82940403D01*
X117994500Y-83139597D01*
X118000636Y-83178340D01*
X118025661Y-83336340D01*
X118025661Y-83336343D01*
X118087213Y-83525780D01*
X118096754Y-83544505D01*
X118177647Y-83703266D01*
X118294731Y-83864418D01*
X118435582Y-84005269D01*
X118596734Y-84122353D01*
X118666453Y-84157877D01*
X118748172Y-84199515D01*
X118798968Y-84247490D01*
X118815763Y-84315311D01*
X118793225Y-84381446D01*
X118748172Y-84420485D01*
X118596733Y-84497647D01*
X118504790Y-84564447D01*
X118435582Y-84614731D01*
X118435580Y-84614733D01*
X118435579Y-84614733D01*
X118294733Y-84755579D01*
X118294733Y-84755580D01*
X118294731Y-84755582D01*
X118244447Y-84824790D01*
X118177647Y-84916733D01*
X118087213Y-85094219D01*
X118025661Y-85283656D01*
X118025661Y-85283659D01*
X117994500Y-85480403D01*
X117994500Y-85679596D01*
X118025661Y-85876340D01*
X118025661Y-85876343D01*
X118087213Y-86065780D01*
X118100485Y-86091827D01*
X118177647Y-86243266D01*
X118294731Y-86404418D01*
X118435582Y-86545269D01*
X118596734Y-86662353D01*
X118666453Y-86697877D01*
X118748172Y-86739515D01*
X118798968Y-86787490D01*
X118815763Y-86855311D01*
X118793225Y-86921446D01*
X118748172Y-86960485D01*
X118596733Y-87037647D01*
X118504790Y-87104447D01*
X118435582Y-87154731D01*
X118435580Y-87154733D01*
X118435579Y-87154733D01*
X118294733Y-87295579D01*
X118294733Y-87295580D01*
X118294731Y-87295582D01*
X118244447Y-87364790D01*
X118177647Y-87456733D01*
X118087213Y-87634219D01*
X118025661Y-87823656D01*
X118025661Y-87823659D01*
X117994500Y-88020403D01*
X117994500Y-88219596D01*
X118025661Y-88416340D01*
X118025661Y-88416343D01*
X118087213Y-88605780D01*
X118100485Y-88631827D01*
X118177647Y-88783266D01*
X118294731Y-88944418D01*
X118435582Y-89085269D01*
X118596734Y-89202353D01*
X118666453Y-89237877D01*
X118748172Y-89279515D01*
X118798968Y-89327490D01*
X118815763Y-89395311D01*
X118793225Y-89461446D01*
X118748172Y-89500485D01*
X118596733Y-89577647D01*
X118504790Y-89644447D01*
X118435582Y-89694731D01*
X118435580Y-89694733D01*
X118435579Y-89694733D01*
X118294733Y-89835579D01*
X118294733Y-89835580D01*
X118294731Y-89835582D01*
X118263664Y-89878342D01*
X118177647Y-89996733D01*
X118087213Y-90174219D01*
X118025661Y-90363656D01*
X118025661Y-90363659D01*
X117994500Y-90560403D01*
X117994500Y-90759596D01*
X118025661Y-90956340D01*
X118025661Y-90956343D01*
X118087213Y-91145780D01*
X118100485Y-91171827D01*
X118177647Y-91323266D01*
X118294731Y-91484418D01*
X118435582Y-91625269D01*
X118596734Y-91742353D01*
X118666453Y-91777877D01*
X118748172Y-91819515D01*
X118798968Y-91867490D01*
X118815763Y-91935311D01*
X118793225Y-92001446D01*
X118748172Y-92040485D01*
X118596733Y-92117647D01*
X118504790Y-92184447D01*
X118435582Y-92234731D01*
X118435580Y-92234733D01*
X118435579Y-92234733D01*
X118294733Y-92375579D01*
X118294733Y-92375580D01*
X118294731Y-92375582D01*
X118244447Y-92444790D01*
X118177647Y-92536733D01*
X118087213Y-92714219D01*
X118025661Y-92903656D01*
X118025661Y-92903659D01*
X118003353Y-93044505D01*
X117994500Y-93100403D01*
X117994500Y-93299597D01*
X117998694Y-93326079D01*
X118025661Y-93496340D01*
X118025661Y-93496343D01*
X118087213Y-93685780D01*
X118100485Y-93711827D01*
X118177647Y-93863266D01*
X118294731Y-94024418D01*
X118435582Y-94165269D01*
X118596734Y-94282353D01*
X118666453Y-94317877D01*
X118748172Y-94359515D01*
X118798968Y-94407490D01*
X118815763Y-94475311D01*
X118793225Y-94541446D01*
X118748172Y-94580485D01*
X118596733Y-94657647D01*
X118504790Y-94724447D01*
X118435582Y-94774731D01*
X118435580Y-94774733D01*
X118435579Y-94774733D01*
X118294733Y-94915579D01*
X118294733Y-94915580D01*
X118294731Y-94915582D01*
X118244447Y-94984790D01*
X118177647Y-95076733D01*
X118087213Y-95254219D01*
X118025661Y-95443656D01*
X118025661Y-95443659D01*
X117994500Y-95640403D01*
X117994500Y-95839596D01*
X118025661Y-96036340D01*
X118025661Y-96036343D01*
X118087213Y-96225780D01*
X118100485Y-96251827D01*
X118177647Y-96403266D01*
X118294731Y-96564418D01*
X118435582Y-96705269D01*
X118596734Y-96822353D01*
X118666453Y-96857877D01*
X118748172Y-96899515D01*
X118798968Y-96947490D01*
X118815763Y-97015311D01*
X118793225Y-97081446D01*
X118748172Y-97120485D01*
X118596733Y-97197647D01*
X118504790Y-97264447D01*
X118435582Y-97314731D01*
X118435580Y-97314733D01*
X118435579Y-97314733D01*
X118294733Y-97455579D01*
X118294733Y-97455580D01*
X118294731Y-97455582D01*
X118244447Y-97524790D01*
X118177647Y-97616733D01*
X118087213Y-97794219D01*
X118025661Y-97983656D01*
X118025661Y-97983659D01*
X117994500Y-98180403D01*
X117994500Y-98379596D01*
X118025661Y-98576340D01*
X118025661Y-98576343D01*
X118087213Y-98765780D01*
X118100485Y-98791827D01*
X118177647Y-98943266D01*
X118294731Y-99104418D01*
X118435582Y-99245269D01*
X118596734Y-99362353D01*
X118666453Y-99397877D01*
X118748172Y-99439515D01*
X118798968Y-99487490D01*
X118815763Y-99555311D01*
X118793225Y-99621446D01*
X118748172Y-99660485D01*
X118596733Y-99737647D01*
X118504790Y-99804447D01*
X118435582Y-99854731D01*
X118435580Y-99854733D01*
X118435579Y-99854733D01*
X118294733Y-99995579D01*
X118294733Y-99995580D01*
X118294731Y-99995582D01*
X118244447Y-100064790D01*
X118177647Y-100156733D01*
X118087213Y-100334219D01*
X118025661Y-100523656D01*
X118025661Y-100523659D01*
X117994500Y-100720403D01*
X117994500Y-100919597D01*
X118001705Y-100965087D01*
X118025661Y-101116340D01*
X118025661Y-101116343D01*
X118087213Y-101305780D01*
X118100485Y-101331827D01*
X118177647Y-101483266D01*
X118294731Y-101644418D01*
X118435582Y-101785269D01*
X118596734Y-101902353D01*
X118666453Y-101937877D01*
X118748172Y-101979515D01*
X118798968Y-102027490D01*
X118815763Y-102095311D01*
X118793225Y-102161446D01*
X118748172Y-102200485D01*
X118596733Y-102277647D01*
X118504790Y-102344447D01*
X118435582Y-102394731D01*
X118435580Y-102394733D01*
X118435579Y-102394733D01*
X118294733Y-102535579D01*
X118294733Y-102535580D01*
X118294731Y-102535582D01*
X118244447Y-102604790D01*
X118177647Y-102696733D01*
X118087213Y-102874219D01*
X118025661Y-103063656D01*
X118025661Y-103063659D01*
X117994500Y-103260403D01*
X117994500Y-103459596D01*
X118025661Y-103656340D01*
X118025661Y-103656343D01*
X118087213Y-103845780D01*
X118100485Y-103871827D01*
X118177647Y-104023266D01*
X118294731Y-104184418D01*
X118435582Y-104325269D01*
X118596734Y-104442353D01*
X118666453Y-104477877D01*
X118748172Y-104519515D01*
X118798968Y-104567490D01*
X118815763Y-104635311D01*
X118793225Y-104701446D01*
X118748172Y-104740485D01*
X118596733Y-104817647D01*
X118504790Y-104884447D01*
X118435582Y-104934731D01*
X118435580Y-104934733D01*
X118435579Y-104934733D01*
X118294733Y-105075579D01*
X118294733Y-105075580D01*
X118294731Y-105075582D01*
X118244447Y-105144790D01*
X118177647Y-105236733D01*
X118087213Y-105414219D01*
X118025661Y-105603656D01*
X118025661Y-105603659D01*
X117994500Y-105800403D01*
X117994500Y-105999596D01*
X118025661Y-106196340D01*
X118025661Y-106196343D01*
X118087213Y-106385780D01*
X118100485Y-106411827D01*
X118177647Y-106563266D01*
X118294731Y-106724418D01*
X118435582Y-106865269D01*
X118596734Y-106982353D01*
X118666453Y-107017877D01*
X118748172Y-107059515D01*
X118798968Y-107107490D01*
X118815763Y-107175311D01*
X118793225Y-107241446D01*
X118748172Y-107280485D01*
X118596733Y-107357647D01*
X118504790Y-107424447D01*
X118435582Y-107474731D01*
X118435580Y-107474733D01*
X118435579Y-107474733D01*
X118294733Y-107615579D01*
X118294733Y-107615580D01*
X118294731Y-107615582D01*
X118244447Y-107684790D01*
X118177647Y-107776733D01*
X118087213Y-107954219D01*
X118025661Y-108143656D01*
X118025661Y-108143659D01*
X118011597Y-108232455D01*
X117994500Y-108340403D01*
X117994500Y-108539597D01*
X118001615Y-108584518D01*
X118025661Y-108736340D01*
X118025661Y-108736342D01*
X118087213Y-108925780D01*
X118120536Y-108991179D01*
X118177647Y-109103266D01*
X118294731Y-109264418D01*
X118435582Y-109405269D01*
X118596734Y-109522353D01*
X118757602Y-109604319D01*
X118774219Y-109612786D01*
X118963657Y-109674338D01*
X118963658Y-109674338D01*
X118963661Y-109674339D01*
X119160403Y-109705500D01*
X119160404Y-109705500D01*
X119359596Y-109705500D01*
X119359597Y-109705500D01*
X119556339Y-109674339D01*
X119556342Y-109674338D01*
X119556343Y-109674338D01*
X119745780Y-109612786D01*
X119745780Y-109612785D01*
X119745783Y-109612785D01*
X119923266Y-109522353D01*
X120084418Y-109405269D01*
X120225269Y-109264418D01*
X120342353Y-109103266D01*
X120419515Y-108951827D01*
X120467490Y-108901031D01*
X120535311Y-108884236D01*
X120601446Y-108906773D01*
X120640485Y-108951827D01*
X120717647Y-109103266D01*
X120834731Y-109264418D01*
X120975582Y-109405269D01*
X121136734Y-109522353D01*
X121297602Y-109604319D01*
X121314219Y-109612786D01*
X121503657Y-109674338D01*
X121503658Y-109674338D01*
X121503661Y-109674339D01*
X121700403Y-109705500D01*
X121700404Y-109705500D01*
X121899596Y-109705500D01*
X121899597Y-109705500D01*
X122096339Y-109674339D01*
X122096342Y-109674338D01*
X122096343Y-109674338D01*
X122285780Y-109612786D01*
X122285780Y-109612785D01*
X122285783Y-109612785D01*
X122463266Y-109522353D01*
X122624418Y-109405269D01*
X122765269Y-109264418D01*
X122882353Y-109103266D01*
X122972785Y-108925783D01*
X122979155Y-108906179D01*
X123034339Y-108736342D01*
X123034338Y-108736340D01*
X123034339Y-108736339D01*
X123051635Y-108627135D01*
X132154500Y-108627135D01*
X132154500Y-110372870D01*
X132154501Y-110372876D01*
X132160908Y-110432483D01*
X132211202Y-110567328D01*
X132211206Y-110567335D01*
X132297452Y-110682544D01*
X132297455Y-110682547D01*
X132412664Y-110768793D01*
X132412671Y-110768797D01*
X132547517Y-110819091D01*
X132547516Y-110819091D01*
X132554444Y-110819835D01*
X132607127Y-110825500D01*
X134352872Y-110825499D01*
X134412483Y-110819091D01*
X134547331Y-110768796D01*
X134662546Y-110682546D01*
X134748796Y-110567331D01*
X134799091Y-110432483D01*
X134799091Y-110432481D01*
X134800874Y-110424938D01*
X134803757Y-110425619D01*
X134825147Y-110373896D01*
X134882517Y-110334014D01*
X134952340Y-110331480D01*
X135009425Y-110363965D01*
X135156495Y-110511035D01*
X135325286Y-110633670D01*
X135413116Y-110678421D01*
X135511179Y-110728387D01*
X135511181Y-110728387D01*
X135511184Y-110728389D01*
X135548452Y-110740498D01*
X135709610Y-110792862D01*
X135915676Y-110825500D01*
X135915681Y-110825500D01*
X136124324Y-110825500D01*
X136330389Y-110792862D01*
X136528816Y-110728389D01*
X136714714Y-110633670D01*
X136883505Y-110511035D01*
X137031035Y-110363505D01*
X137153670Y-110194714D01*
X137248389Y-110008816D01*
X137312862Y-109810389D01*
X137329475Y-109705500D01*
X137345500Y-109604324D01*
X137345500Y-109395675D01*
X137312862Y-109189610D01*
X137248387Y-108991179D01*
X137153669Y-108805285D01*
X137031035Y-108636495D01*
X136936675Y-108542135D01*
X149634500Y-108542135D01*
X149634500Y-110287870D01*
X149634501Y-110287876D01*
X149640908Y-110347483D01*
X149691202Y-110482328D01*
X149691206Y-110482335D01*
X149777452Y-110597544D01*
X149777455Y-110597547D01*
X149892664Y-110683793D01*
X149892671Y-110683797D01*
X150027517Y-110734091D01*
X150027516Y-110734091D01*
X150034444Y-110734835D01*
X150087127Y-110740500D01*
X151832872Y-110740499D01*
X151892483Y-110734091D01*
X152027331Y-110683796D01*
X152142546Y-110597546D01*
X152228796Y-110482331D01*
X152279091Y-110347483D01*
X152279091Y-110347481D01*
X152280874Y-110339938D01*
X152283757Y-110340619D01*
X152305147Y-110288896D01*
X152362517Y-110249014D01*
X152432340Y-110246480D01*
X152489425Y-110278965D01*
X152636495Y-110426035D01*
X152805286Y-110548670D01*
X152893116Y-110593421D01*
X152991179Y-110643387D01*
X152991181Y-110643387D01*
X152991184Y-110643389D01*
X153097545Y-110677948D01*
X153189610Y-110707862D01*
X153395676Y-110740500D01*
X153395681Y-110740500D01*
X153604324Y-110740500D01*
X153810389Y-110707862D01*
X154008816Y-110643389D01*
X154194714Y-110548670D01*
X154363505Y-110426035D01*
X154511035Y-110278505D01*
X154633670Y-110109714D01*
X154728389Y-109923816D01*
X154792862Y-109725389D01*
X154796012Y-109705500D01*
X154825500Y-109519324D01*
X154825500Y-109310675D01*
X154792862Y-109104610D01*
X154756006Y-108991179D01*
X154728389Y-108906184D01*
X154728387Y-108906181D01*
X154728387Y-108906179D01*
X154676979Y-108805285D01*
X154633670Y-108720286D01*
X154511035Y-108551495D01*
X154363505Y-108403965D01*
X154194714Y-108281330D01*
X154175639Y-108271611D01*
X154008820Y-108186612D01*
X153810389Y-108122137D01*
X153604324Y-108089500D01*
X153604319Y-108089500D01*
X153395681Y-108089500D01*
X153395676Y-108089500D01*
X153189610Y-108122137D01*
X152991179Y-108186612D01*
X152805285Y-108281330D01*
X152636496Y-108403964D01*
X152489426Y-108551034D01*
X152428103Y-108584518D01*
X152358411Y-108579534D01*
X152302478Y-108537662D01*
X152283515Y-108489444D01*
X152280876Y-108490068D01*
X152279092Y-108482520D01*
X152228797Y-108347671D01*
X152228793Y-108347664D01*
X152142547Y-108232455D01*
X152142544Y-108232452D01*
X152027335Y-108146206D01*
X152027328Y-108146202D01*
X151892482Y-108095908D01*
X151892483Y-108095908D01*
X151832883Y-108089501D01*
X151832881Y-108089500D01*
X151832873Y-108089500D01*
X151832864Y-108089500D01*
X150087129Y-108089500D01*
X150087123Y-108089501D01*
X150027516Y-108095908D01*
X149892671Y-108146202D01*
X149892664Y-108146206D01*
X149777455Y-108232452D01*
X149777452Y-108232455D01*
X149691206Y-108347664D01*
X149691202Y-108347671D01*
X149640908Y-108482517D01*
X149634501Y-108542116D01*
X149634500Y-108542135D01*
X136936675Y-108542135D01*
X136883505Y-108488965D01*
X136714714Y-108366330D01*
X136528820Y-108271612D01*
X136330389Y-108207137D01*
X136124324Y-108174500D01*
X136124319Y-108174500D01*
X135915681Y-108174500D01*
X135915676Y-108174500D01*
X135709610Y-108207137D01*
X135511179Y-108271612D01*
X135325285Y-108366330D01*
X135156496Y-108488964D01*
X135009426Y-108636034D01*
X134948103Y-108669518D01*
X134878411Y-108664534D01*
X134822478Y-108622662D01*
X134803515Y-108574444D01*
X134800876Y-108575068D01*
X134799092Y-108567520D01*
X134789621Y-108542128D01*
X134783055Y-108524522D01*
X134748797Y-108432671D01*
X134748793Y-108432664D01*
X134662547Y-108317455D01*
X134662544Y-108317452D01*
X134547335Y-108231206D01*
X134547328Y-108231202D01*
X134412482Y-108180908D01*
X134412483Y-108180908D01*
X134352883Y-108174501D01*
X134352881Y-108174500D01*
X134352873Y-108174500D01*
X134352864Y-108174500D01*
X132607129Y-108174500D01*
X132607123Y-108174501D01*
X132547516Y-108180908D01*
X132412671Y-108231202D01*
X132412664Y-108231206D01*
X132297455Y-108317452D01*
X132297452Y-108317455D01*
X132211206Y-108432664D01*
X132211202Y-108432671D01*
X132160908Y-108567517D01*
X132154501Y-108627116D01*
X132154500Y-108627135D01*
X123051635Y-108627135D01*
X123065500Y-108539597D01*
X123065500Y-108340403D01*
X123034339Y-108143661D01*
X123034338Y-108143657D01*
X123034338Y-108143656D01*
X122972786Y-107954219D01*
X122882352Y-107776733D01*
X122765269Y-107615582D01*
X122624418Y-107474731D01*
X122463266Y-107357647D01*
X122311827Y-107280485D01*
X122261031Y-107232510D01*
X122244236Y-107164689D01*
X122266773Y-107098554D01*
X122311827Y-107059515D01*
X122321116Y-107054781D01*
X122463266Y-106982353D01*
X122624418Y-106865269D01*
X122765269Y-106724418D01*
X122882353Y-106563266D01*
X122972785Y-106385783D01*
X122985140Y-106347758D01*
X123034338Y-106196343D01*
X123034338Y-106196342D01*
X123034339Y-106196339D01*
X123065500Y-105999597D01*
X123065500Y-105800403D01*
X123034339Y-105603661D01*
X123034338Y-105603657D01*
X123034338Y-105603656D01*
X122972786Y-105414219D01*
X122882352Y-105236733D01*
X122765269Y-105075582D01*
X122624418Y-104934731D01*
X122463266Y-104817647D01*
X122311827Y-104740485D01*
X122261031Y-104692510D01*
X122244236Y-104624689D01*
X122266773Y-104558554D01*
X122311827Y-104519515D01*
X122321116Y-104514781D01*
X122463266Y-104442353D01*
X122624418Y-104325269D01*
X122765269Y-104184418D01*
X122882353Y-104023266D01*
X122972785Y-103845783D01*
X122985140Y-103807758D01*
X123034338Y-103656343D01*
X123034338Y-103656342D01*
X123034339Y-103656339D01*
X123065500Y-103459597D01*
X123065500Y-103260403D01*
X123034339Y-103063661D01*
X123034338Y-103063657D01*
X123034338Y-103063656D01*
X122972786Y-102874219D01*
X122882352Y-102696733D01*
X122765269Y-102535582D01*
X122624418Y-102394731D01*
X122463266Y-102277647D01*
X122311827Y-102200485D01*
X122261031Y-102152510D01*
X122244236Y-102084689D01*
X122266773Y-102018554D01*
X122311827Y-101979515D01*
X122321116Y-101974781D01*
X122463266Y-101902353D01*
X122624418Y-101785269D01*
X122765269Y-101644418D01*
X122882353Y-101483266D01*
X122972785Y-101305783D01*
X122985140Y-101267758D01*
X123034338Y-101116343D01*
X123034338Y-101116342D01*
X123034339Y-101116339D01*
X123065500Y-100919597D01*
X123065500Y-100720403D01*
X123034339Y-100523661D01*
X123034338Y-100523657D01*
X123034338Y-100523656D01*
X122985686Y-100373920D01*
X173749499Y-100373920D01*
X173778340Y-100518907D01*
X173778343Y-100518917D01*
X173834912Y-100655488D01*
X173834919Y-100655501D01*
X173917048Y-100778415D01*
X173917051Y-100778419D01*
X174021580Y-100882948D01*
X174021584Y-100882951D01*
X174144498Y-100965080D01*
X174144511Y-100965087D01*
X174281082Y-101021656D01*
X174281087Y-101021658D01*
X174281091Y-101021658D01*
X174281092Y-101021659D01*
X174426079Y-101050500D01*
X174426082Y-101050500D01*
X174573920Y-101050500D01*
X174671462Y-101031096D01*
X174718913Y-101021658D01*
X174855495Y-100965084D01*
X174978416Y-100882951D01*
X175082951Y-100778416D01*
X175165084Y-100655495D01*
X175221658Y-100518913D01*
X175250500Y-100373918D01*
X175250500Y-100226082D01*
X175250500Y-100226079D01*
X175221659Y-100081092D01*
X175221658Y-100081091D01*
X175221658Y-100081087D01*
X175186240Y-99995580D01*
X175165087Y-99944511D01*
X175165080Y-99944498D01*
X175082951Y-99821584D01*
X175082948Y-99821580D01*
X174978419Y-99717051D01*
X174978415Y-99717048D01*
X174855501Y-99634919D01*
X174855488Y-99634912D01*
X174718917Y-99578343D01*
X174718907Y-99578340D01*
X174573920Y-99549500D01*
X174573918Y-99549500D01*
X174426082Y-99549500D01*
X174426080Y-99549500D01*
X174281092Y-99578340D01*
X174281082Y-99578343D01*
X174144511Y-99634912D01*
X174144498Y-99634919D01*
X174021584Y-99717048D01*
X174021580Y-99717051D01*
X173917051Y-99821580D01*
X173917048Y-99821584D01*
X173834919Y-99944498D01*
X173834912Y-99944511D01*
X173778343Y-100081082D01*
X173778340Y-100081092D01*
X173749500Y-100226079D01*
X173749500Y-100226082D01*
X173749500Y-100373918D01*
X173749500Y-100373920D01*
X173749499Y-100373920D01*
X122985686Y-100373920D01*
X122972786Y-100334219D01*
X122943267Y-100276285D01*
X122882353Y-100156734D01*
X122765269Y-99995582D01*
X122624418Y-99854731D01*
X122463266Y-99737647D01*
X122311827Y-99660485D01*
X122261031Y-99612510D01*
X122244236Y-99544689D01*
X122266773Y-99478554D01*
X122311827Y-99439515D01*
X122321116Y-99434781D01*
X122463266Y-99362353D01*
X122624418Y-99245269D01*
X122765269Y-99104418D01*
X122882353Y-98943266D01*
X122972785Y-98765783D01*
X122985140Y-98727758D01*
X123034338Y-98576343D01*
X123034338Y-98576342D01*
X123034339Y-98576339D01*
X123065500Y-98379597D01*
X123065500Y-98180403D01*
X123034339Y-97983661D01*
X123034338Y-97983657D01*
X123034338Y-97983656D01*
X122972786Y-97794219D01*
X122882352Y-97616733D01*
X122765269Y-97455582D01*
X122624418Y-97314731D01*
X122463266Y-97197647D01*
X122311827Y-97120485D01*
X122261031Y-97072510D01*
X122244236Y-97004689D01*
X122266773Y-96938554D01*
X122311827Y-96899515D01*
X122321116Y-96894781D01*
X122463266Y-96822353D01*
X122624418Y-96705269D01*
X122765269Y-96564418D01*
X122882353Y-96403266D01*
X122972785Y-96225783D01*
X122985140Y-96187758D01*
X123034338Y-96036343D01*
X123034338Y-96036342D01*
X123034339Y-96036339D01*
X123065500Y-95839597D01*
X123065500Y-95640403D01*
X123034339Y-95443661D01*
X123034338Y-95443657D01*
X123034338Y-95443656D01*
X122972786Y-95254219D01*
X122882352Y-95076733D01*
X122765269Y-94915582D01*
X122624418Y-94774731D01*
X122463266Y-94657647D01*
X122311827Y-94580485D01*
X122261031Y-94532510D01*
X122244236Y-94464689D01*
X122266773Y-94398554D01*
X122311827Y-94359515D01*
X122321116Y-94354781D01*
X122463266Y-94282353D01*
X122624418Y-94165269D01*
X122765269Y-94024418D01*
X122882353Y-93863266D01*
X122972785Y-93685783D01*
X122985140Y-93647758D01*
X123034338Y-93496343D01*
X123034338Y-93496342D01*
X123034339Y-93496339D01*
X123037890Y-93473920D01*
X169949499Y-93473920D01*
X169978340Y-93618907D01*
X169978343Y-93618917D01*
X170034912Y-93755488D01*
X170034919Y-93755501D01*
X170117048Y-93878415D01*
X170117051Y-93878419D01*
X170221580Y-93982948D01*
X170221584Y-93982951D01*
X170344498Y-94065080D01*
X170344511Y-94065087D01*
X170481082Y-94121656D01*
X170481087Y-94121658D01*
X170481091Y-94121658D01*
X170481092Y-94121659D01*
X170626079Y-94150500D01*
X170626082Y-94150500D01*
X170773920Y-94150500D01*
X170871462Y-94131096D01*
X170918913Y-94121658D01*
X171055495Y-94065084D01*
X171178416Y-93982951D01*
X171282951Y-93878416D01*
X171365084Y-93755495D01*
X171421658Y-93618913D01*
X171431096Y-93571462D01*
X171450500Y-93473920D01*
X171450500Y-93326079D01*
X171421659Y-93181092D01*
X171421658Y-93181091D01*
X171421658Y-93181087D01*
X171388238Y-93100403D01*
X171365087Y-93044511D01*
X171365080Y-93044498D01*
X171282951Y-92921584D01*
X171282948Y-92921580D01*
X171178419Y-92817051D01*
X171178415Y-92817048D01*
X171055501Y-92734919D01*
X171055488Y-92734912D01*
X170918917Y-92678343D01*
X170918907Y-92678340D01*
X170773920Y-92649500D01*
X170773918Y-92649500D01*
X170626082Y-92649500D01*
X170626080Y-92649500D01*
X170481092Y-92678340D01*
X170481082Y-92678343D01*
X170344511Y-92734912D01*
X170344498Y-92734919D01*
X170221584Y-92817048D01*
X170221580Y-92817051D01*
X170117051Y-92921580D01*
X170117048Y-92921584D01*
X170034919Y-93044498D01*
X170034912Y-93044511D01*
X169978343Y-93181082D01*
X169978340Y-93181092D01*
X169949500Y-93326079D01*
X169949500Y-93326082D01*
X169949500Y-93473918D01*
X169949500Y-93473920D01*
X169949499Y-93473920D01*
X123037890Y-93473920D01*
X123065500Y-93299597D01*
X123065500Y-93100403D01*
X123034339Y-92903661D01*
X123034338Y-92903657D01*
X123034338Y-92903656D01*
X122972786Y-92714219D01*
X122882352Y-92536733D01*
X122765269Y-92375582D01*
X122624418Y-92234731D01*
X122463266Y-92117647D01*
X122311827Y-92040485D01*
X122261031Y-91992510D01*
X122244236Y-91924689D01*
X122266773Y-91858554D01*
X122311827Y-91819515D01*
X122321116Y-91814781D01*
X122463266Y-91742353D01*
X122624418Y-91625269D01*
X122765269Y-91484418D01*
X122882353Y-91323266D01*
X122972785Y-91145783D01*
X122985140Y-91107758D01*
X123034338Y-90956343D01*
X123034338Y-90956342D01*
X123034339Y-90956339D01*
X123065500Y-90759597D01*
X123065500Y-90673920D01*
X138549499Y-90673920D01*
X138578340Y-90818907D01*
X138578343Y-90818917D01*
X138634912Y-90955488D01*
X138634919Y-90955501D01*
X138717048Y-91078415D01*
X138717051Y-91078419D01*
X138821580Y-91182948D01*
X138821584Y-91182951D01*
X138944498Y-91265080D01*
X138944511Y-91265087D01*
X139081082Y-91321656D01*
X139081087Y-91321658D01*
X139081091Y-91321658D01*
X139081092Y-91321659D01*
X139226079Y-91350500D01*
X139226082Y-91350500D01*
X139373920Y-91350500D01*
X139471462Y-91331096D01*
X139518913Y-91321658D01*
X139655495Y-91265084D01*
X139778416Y-91182951D01*
X139882951Y-91078416D01*
X139965084Y-90955495D01*
X140021658Y-90818913D01*
X140050500Y-90673918D01*
X140050500Y-90526082D01*
X140050500Y-90526079D01*
X140021659Y-90381092D01*
X140021658Y-90381091D01*
X140021658Y-90381087D01*
X140014438Y-90363656D01*
X139965087Y-90244511D01*
X139965080Y-90244498D01*
X139882951Y-90121584D01*
X139882948Y-90121580D01*
X139778419Y-90017051D01*
X139778415Y-90017048D01*
X139655501Y-89934919D01*
X139655488Y-89934912D01*
X139518917Y-89878343D01*
X139518907Y-89878340D01*
X139373920Y-89849500D01*
X139373918Y-89849500D01*
X139226082Y-89849500D01*
X139226080Y-89849500D01*
X139081092Y-89878340D01*
X139081082Y-89878343D01*
X138944511Y-89934912D01*
X138944498Y-89934919D01*
X138821584Y-90017048D01*
X138821580Y-90017051D01*
X138717051Y-90121580D01*
X138717048Y-90121584D01*
X138634919Y-90244498D01*
X138634912Y-90244511D01*
X138578343Y-90381082D01*
X138578340Y-90381092D01*
X138549500Y-90526079D01*
X138549500Y-90526082D01*
X138549500Y-90673918D01*
X138549500Y-90673920D01*
X138549499Y-90673920D01*
X123065500Y-90673920D01*
X123065500Y-90560403D01*
X123034339Y-90363661D01*
X123034338Y-90363656D01*
X122972786Y-90174219D01*
X122882352Y-89996733D01*
X122765269Y-89835582D01*
X122624418Y-89694731D01*
X122463266Y-89577647D01*
X122311827Y-89500485D01*
X122261031Y-89452510D01*
X122244236Y-89384689D01*
X122266773Y-89318554D01*
X122311827Y-89279515D01*
X122321116Y-89274781D01*
X122463266Y-89202353D01*
X122624418Y-89085269D01*
X122765269Y-88944418D01*
X122882353Y-88783266D01*
X122972785Y-88605783D01*
X122985140Y-88567758D01*
X123034338Y-88416343D01*
X123034338Y-88416342D01*
X123034339Y-88416339D01*
X123065500Y-88219597D01*
X123065500Y-88020403D01*
X123034339Y-87823661D01*
X123034338Y-87823657D01*
X123034338Y-87823656D01*
X122972786Y-87634219D01*
X122882352Y-87456733D01*
X122765269Y-87295582D01*
X122624418Y-87154731D01*
X122463266Y-87037647D01*
X122311827Y-86960485D01*
X122261031Y-86912510D01*
X122244236Y-86844689D01*
X122266773Y-86778554D01*
X122311827Y-86739515D01*
X122321116Y-86734781D01*
X122463266Y-86662353D01*
X122624418Y-86545269D01*
X122765269Y-86404418D01*
X122882353Y-86243266D01*
X122972785Y-86065783D01*
X122985140Y-86027758D01*
X123034338Y-85876343D01*
X123034338Y-85876342D01*
X123034339Y-85876339D01*
X123065500Y-85679597D01*
X123065500Y-85480403D01*
X123034339Y-85283661D01*
X123034338Y-85283657D01*
X123034338Y-85283656D01*
X122972786Y-85094219D01*
X122882352Y-84916733D01*
X122765269Y-84755582D01*
X122624418Y-84614731D01*
X122463266Y-84497647D01*
X122311827Y-84420485D01*
X122261031Y-84372510D01*
X122244236Y-84304689D01*
X122266773Y-84238554D01*
X122311827Y-84199515D01*
X122321116Y-84194781D01*
X122463266Y-84122353D01*
X122624418Y-84005269D01*
X122655767Y-83973920D01*
X157249499Y-83973920D01*
X157278340Y-84118907D01*
X157278343Y-84118917D01*
X157334912Y-84255488D01*
X157334919Y-84255501D01*
X157417048Y-84378415D01*
X157417051Y-84378419D01*
X157521580Y-84482948D01*
X157521584Y-84482951D01*
X157644498Y-84565080D01*
X157644511Y-84565087D01*
X157781082Y-84621656D01*
X157781087Y-84621658D01*
X157781091Y-84621658D01*
X157781092Y-84621659D01*
X157926079Y-84650500D01*
X157926082Y-84650500D01*
X158073920Y-84650500D01*
X158171462Y-84631096D01*
X158218913Y-84621658D01*
X158355495Y-84565084D01*
X158478416Y-84482951D01*
X158582951Y-84378416D01*
X158665084Y-84255495D01*
X158721658Y-84118913D01*
X158744264Y-84005269D01*
X158750500Y-83973920D01*
X158750500Y-83826079D01*
X158721659Y-83681092D01*
X158721658Y-83681091D01*
X158721658Y-83681087D01*
X158668117Y-83551827D01*
X158665087Y-83544511D01*
X158665080Y-83544498D01*
X158582951Y-83421584D01*
X158582948Y-83421580D01*
X158478419Y-83317051D01*
X158478415Y-83317048D01*
X158355501Y-83234919D01*
X158355488Y-83234912D01*
X158218917Y-83178343D01*
X158218907Y-83178340D01*
X158073920Y-83149500D01*
X158073918Y-83149500D01*
X157926082Y-83149500D01*
X157926080Y-83149500D01*
X157781092Y-83178340D01*
X157781082Y-83178343D01*
X157644511Y-83234912D01*
X157644498Y-83234919D01*
X157521584Y-83317048D01*
X157521580Y-83317051D01*
X157417051Y-83421580D01*
X157417048Y-83421584D01*
X157334919Y-83544498D01*
X157334912Y-83544511D01*
X157278343Y-83681082D01*
X157278340Y-83681092D01*
X157249500Y-83826079D01*
X157249500Y-83826082D01*
X157249500Y-83973918D01*
X157249500Y-83973920D01*
X157249499Y-83973920D01*
X122655767Y-83973920D01*
X122765269Y-83864418D01*
X122882353Y-83703266D01*
X122972785Y-83525783D01*
X122985140Y-83487758D01*
X123034338Y-83336343D01*
X123034338Y-83336342D01*
X123034339Y-83336339D01*
X123065500Y-83139597D01*
X123065500Y-82940403D01*
X123034339Y-82743661D01*
X123034338Y-82743657D01*
X123034338Y-82743656D01*
X122972786Y-82554219D01*
X122882352Y-82376733D01*
X122765269Y-82215582D01*
X122624418Y-82074731D01*
X122463266Y-81957647D01*
X122311827Y-81880485D01*
X122261031Y-81832510D01*
X122244236Y-81764689D01*
X122266773Y-81698554D01*
X122311827Y-81659515D01*
X122321116Y-81654781D01*
X122463266Y-81582353D01*
X122612511Y-81473920D01*
X150249499Y-81473920D01*
X150278340Y-81618907D01*
X150278343Y-81618917D01*
X150334912Y-81755488D01*
X150334919Y-81755501D01*
X150417048Y-81878415D01*
X150417051Y-81878419D01*
X150521580Y-81982948D01*
X150521584Y-81982951D01*
X150644498Y-82065080D01*
X150644511Y-82065087D01*
X150781082Y-82121656D01*
X150781087Y-82121658D01*
X150781091Y-82121658D01*
X150781092Y-82121659D01*
X150926079Y-82150500D01*
X150926082Y-82150500D01*
X151073920Y-82150500D01*
X151171462Y-82131096D01*
X151218913Y-82121658D01*
X151355495Y-82065084D01*
X151478416Y-81982951D01*
X151582951Y-81878416D01*
X151665084Y-81755495D01*
X151721658Y-81618913D01*
X151750500Y-81473918D01*
X151750500Y-81326082D01*
X151750500Y-81326079D01*
X151721659Y-81181092D01*
X151721658Y-81181091D01*
X151721658Y-81181087D01*
X151714276Y-81163266D01*
X151665087Y-81044511D01*
X151665080Y-81044498D01*
X151582951Y-80921584D01*
X151582948Y-80921580D01*
X151478419Y-80817051D01*
X151478415Y-80817048D01*
X151355501Y-80734919D01*
X151355488Y-80734912D01*
X151218917Y-80678343D01*
X151218907Y-80678340D01*
X151073920Y-80649500D01*
X151073918Y-80649500D01*
X150926082Y-80649500D01*
X150926080Y-80649500D01*
X150781092Y-80678340D01*
X150781082Y-80678343D01*
X150644511Y-80734912D01*
X150644498Y-80734919D01*
X150521584Y-80817048D01*
X150521580Y-80817051D01*
X150417051Y-80921580D01*
X150417048Y-80921584D01*
X150334919Y-81044498D01*
X150334912Y-81044511D01*
X150278343Y-81181082D01*
X150278340Y-81181092D01*
X150249500Y-81326079D01*
X150249500Y-81326082D01*
X150249500Y-81473918D01*
X150249500Y-81473920D01*
X150249499Y-81473920D01*
X122612511Y-81473920D01*
X122624418Y-81465269D01*
X122765269Y-81324418D01*
X122882353Y-81163266D01*
X122972785Y-80985783D01*
X122985140Y-80947758D01*
X123034338Y-80796343D01*
X123034338Y-80796342D01*
X123034339Y-80796339D01*
X123065500Y-80599597D01*
X123065500Y-80400403D01*
X123061306Y-80373920D01*
X138049499Y-80373920D01*
X138078340Y-80518907D01*
X138078343Y-80518917D01*
X138134912Y-80655488D01*
X138134919Y-80655501D01*
X138217048Y-80778415D01*
X138217051Y-80778419D01*
X138321580Y-80882948D01*
X138321584Y-80882951D01*
X138444498Y-80965080D01*
X138444511Y-80965087D01*
X138581082Y-81021656D01*
X138581087Y-81021658D01*
X138581091Y-81021658D01*
X138581092Y-81021659D01*
X138726079Y-81050500D01*
X138726082Y-81050500D01*
X138873920Y-81050500D01*
X138971462Y-81031096D01*
X139018913Y-81021658D01*
X139125578Y-80977476D01*
X139155488Y-80965087D01*
X139155488Y-80965086D01*
X139155495Y-80965084D01*
X139278416Y-80882951D01*
X139382951Y-80778416D01*
X139465084Y-80655495D01*
X139521658Y-80518913D01*
X139550500Y-80373918D01*
X139550500Y-80226082D01*
X139550500Y-80226079D01*
X139521659Y-80081092D01*
X139521658Y-80081091D01*
X139521658Y-80081087D01*
X139521656Y-80081082D01*
X139465087Y-79944511D01*
X139465080Y-79944498D01*
X139382951Y-79821584D01*
X139382948Y-79821580D01*
X139278419Y-79717051D01*
X139278415Y-79717048D01*
X139155501Y-79634919D01*
X139155488Y-79634912D01*
X139018917Y-79578343D01*
X139018907Y-79578340D01*
X138873920Y-79549500D01*
X138873918Y-79549500D01*
X138726082Y-79549500D01*
X138726080Y-79549500D01*
X138581092Y-79578340D01*
X138581082Y-79578343D01*
X138444511Y-79634912D01*
X138444498Y-79634919D01*
X138321584Y-79717048D01*
X138321580Y-79717051D01*
X138217051Y-79821580D01*
X138217048Y-79821584D01*
X138134919Y-79944498D01*
X138134912Y-79944511D01*
X138078343Y-80081082D01*
X138078340Y-80081092D01*
X138049500Y-80226079D01*
X138049500Y-80226082D01*
X138049500Y-80373918D01*
X138049500Y-80373920D01*
X138049499Y-80373920D01*
X123061306Y-80373920D01*
X123039998Y-80239388D01*
X123034338Y-80203657D01*
X123034338Y-80203656D01*
X122972786Y-80014219D01*
X122882352Y-79836733D01*
X122765269Y-79675582D01*
X122624418Y-79534731D01*
X122463266Y-79417647D01*
X122463262Y-79417645D01*
X122311277Y-79340204D01*
X122260481Y-79292229D01*
X122243686Y-79224408D01*
X122266224Y-79158273D01*
X122311277Y-79119234D01*
X122463005Y-79041924D01*
X122500863Y-79014418D01*
X122500863Y-79014417D01*
X121937574Y-78451128D01*
X121996853Y-78435245D01*
X122113147Y-78368102D01*
X122208102Y-78273147D01*
X122275245Y-78156853D01*
X122291128Y-78097574D01*
X122854417Y-78660863D01*
X122854418Y-78660863D01*
X122881924Y-78623005D01*
X122972320Y-78445594D01*
X123033852Y-78256222D01*
X123065000Y-78059563D01*
X123065000Y-77860436D01*
X123033852Y-77663777D01*
X122972320Y-77474405D01*
X122881924Y-77296994D01*
X122854417Y-77259135D01*
X122854417Y-77259134D01*
X122291128Y-77822424D01*
X122275245Y-77763147D01*
X122208102Y-77646853D01*
X122113147Y-77551898D01*
X121996853Y-77484755D01*
X121937574Y-77468871D01*
X122232525Y-77173920D01*
X127349499Y-77173920D01*
X127378340Y-77318907D01*
X127378343Y-77318917D01*
X127434912Y-77455488D01*
X127434919Y-77455501D01*
X127517048Y-77578415D01*
X127517051Y-77578419D01*
X127621580Y-77682948D01*
X127621584Y-77682951D01*
X127744498Y-77765080D01*
X127744511Y-77765087D01*
X127881082Y-77821656D01*
X127881087Y-77821658D01*
X127881091Y-77821658D01*
X127881092Y-77821659D01*
X128026079Y-77850500D01*
X128026082Y-77850500D01*
X128173920Y-77850500D01*
X128271462Y-77831096D01*
X128318913Y-77821658D01*
X128455495Y-77765084D01*
X128578416Y-77682951D01*
X128682951Y-77578416D01*
X128765084Y-77455495D01*
X128767890Y-77448722D01*
X128821656Y-77318917D01*
X128821658Y-77318913D01*
X128850500Y-77173918D01*
X128850500Y-77026082D01*
X128850500Y-77026079D01*
X128821659Y-76881092D01*
X128821658Y-76881091D01*
X128821658Y-76881087D01*
X128788272Y-76800485D01*
X128765087Y-76744511D01*
X128765080Y-76744498D01*
X128682951Y-76621584D01*
X128682948Y-76621580D01*
X128578419Y-76517051D01*
X128578415Y-76517048D01*
X128455501Y-76434919D01*
X128455488Y-76434912D01*
X128318917Y-76378343D01*
X128318907Y-76378340D01*
X128173920Y-76349500D01*
X128173918Y-76349500D01*
X128026082Y-76349500D01*
X128026080Y-76349500D01*
X127881092Y-76378340D01*
X127881082Y-76378343D01*
X127744511Y-76434912D01*
X127744498Y-76434919D01*
X127621584Y-76517048D01*
X127621580Y-76517051D01*
X127517051Y-76621580D01*
X127517048Y-76621584D01*
X127434919Y-76744498D01*
X127434912Y-76744511D01*
X127378343Y-76881082D01*
X127378340Y-76881092D01*
X127349500Y-77026079D01*
X127349500Y-77026082D01*
X127349500Y-77173918D01*
X127349500Y-77173920D01*
X127349499Y-77173920D01*
X122232525Y-77173920D01*
X122474136Y-76932309D01*
X122500864Y-76905580D01*
X122463008Y-76878077D01*
X122310727Y-76800485D01*
X122259931Y-76752510D01*
X122243136Y-76684689D01*
X122265674Y-76618554D01*
X122310727Y-76579515D01*
X122463005Y-76501924D01*
X122500863Y-76474418D01*
X122500863Y-76474417D01*
X121937574Y-75911128D01*
X121996853Y-75895245D01*
X122113147Y-75828102D01*
X122208102Y-75733147D01*
X122275245Y-75616853D01*
X122291128Y-75557574D01*
X122854417Y-76120863D01*
X122854418Y-76120863D01*
X122881924Y-76083005D01*
X122972320Y-75905594D01*
X123033852Y-75716222D01*
X123065000Y-75519563D01*
X123065000Y-75320436D01*
X123033852Y-75123777D01*
X122972320Y-74934405D01*
X122881924Y-74756994D01*
X122854417Y-74719135D01*
X122854417Y-74719134D01*
X122291128Y-75282424D01*
X122275245Y-75223147D01*
X122208102Y-75106853D01*
X122113147Y-75011898D01*
X121996853Y-74944755D01*
X121937574Y-74928871D01*
X122500864Y-74365581D01*
X122500863Y-74365580D01*
X122463008Y-74338077D01*
X122311277Y-74260765D01*
X122260481Y-74212790D01*
X122243686Y-74144969D01*
X122266224Y-74078834D01*
X122311277Y-74039795D01*
X122311827Y-74039515D01*
X122463266Y-73962353D01*
X122624418Y-73845269D01*
X122765269Y-73704418D01*
X122882353Y-73543266D01*
X122972785Y-73365783D01*
X122984927Y-73328415D01*
X123034338Y-73176343D01*
X123034338Y-73176342D01*
X123034339Y-73176339D01*
X123065500Y-72979597D01*
X123065500Y-72923920D01*
X129799499Y-72923920D01*
X129828340Y-73068907D01*
X129828343Y-73068917D01*
X129884912Y-73205488D01*
X129884919Y-73205501D01*
X129967048Y-73328415D01*
X129967051Y-73328419D01*
X130071580Y-73432948D01*
X130071584Y-73432951D01*
X130194498Y-73515080D01*
X130194511Y-73515087D01*
X130331082Y-73571656D01*
X130331087Y-73571658D01*
X130331091Y-73571658D01*
X130331092Y-73571659D01*
X130476079Y-73600500D01*
X130476082Y-73600500D01*
X130623920Y-73600500D01*
X130734944Y-73578415D01*
X130768913Y-73571658D01*
X130905495Y-73515084D01*
X131028416Y-73432951D01*
X131132951Y-73328416D01*
X131215084Y-73205495D01*
X131228163Y-73173920D01*
X137861999Y-73173920D01*
X137890840Y-73318907D01*
X137890843Y-73318917D01*
X137947412Y-73455488D01*
X137947419Y-73455501D01*
X138029548Y-73578415D01*
X138029551Y-73578419D01*
X138134080Y-73682948D01*
X138134084Y-73682951D01*
X138256998Y-73765080D01*
X138257011Y-73765087D01*
X138393582Y-73821656D01*
X138393587Y-73821658D01*
X138393591Y-73821658D01*
X138393592Y-73821659D01*
X138538579Y-73850500D01*
X138538582Y-73850500D01*
X138686420Y-73850500D01*
X138783962Y-73831096D01*
X138831413Y-73821658D01*
X138967995Y-73765084D01*
X139090916Y-73682951D01*
X139195451Y-73578416D01*
X139277584Y-73455495D01*
X139334158Y-73318913D01*
X139362518Y-73176343D01*
X139363000Y-73173920D01*
X139363000Y-73026079D01*
X139334159Y-72881092D01*
X139334158Y-72881091D01*
X139334158Y-72881087D01*
X139334156Y-72881082D01*
X139277587Y-72744511D01*
X139277580Y-72744498D01*
X139195451Y-72621584D01*
X139195448Y-72621580D01*
X139090919Y-72517051D01*
X139090915Y-72517048D01*
X138968001Y-72434919D01*
X138967988Y-72434912D01*
X138831417Y-72378343D01*
X138831407Y-72378340D01*
X138686420Y-72349500D01*
X138686418Y-72349500D01*
X138538582Y-72349500D01*
X138538580Y-72349500D01*
X138393592Y-72378340D01*
X138393582Y-72378343D01*
X138257011Y-72434912D01*
X138256998Y-72434919D01*
X138134084Y-72517048D01*
X138134080Y-72517051D01*
X138029551Y-72621580D01*
X138029548Y-72621584D01*
X137947419Y-72744498D01*
X137947412Y-72744511D01*
X137890843Y-72881082D01*
X137890840Y-72881092D01*
X137862000Y-73026079D01*
X137862000Y-73026082D01*
X137862000Y-73173918D01*
X137862000Y-73173920D01*
X137861999Y-73173920D01*
X131228163Y-73173920D01*
X131271658Y-73068913D01*
X131286202Y-72995798D01*
X131300500Y-72923920D01*
X131300500Y-72776079D01*
X131271659Y-72631092D01*
X131271658Y-72631091D01*
X131271658Y-72631087D01*
X131252013Y-72583659D01*
X131215087Y-72494511D01*
X131215080Y-72494498D01*
X131132951Y-72371584D01*
X131132948Y-72371580D01*
X131028419Y-72267051D01*
X131028415Y-72267048D01*
X130905501Y-72184919D01*
X130905488Y-72184912D01*
X130768917Y-72128343D01*
X130768907Y-72128340D01*
X130623920Y-72099500D01*
X130623918Y-72099500D01*
X130476082Y-72099500D01*
X130476080Y-72099500D01*
X130331092Y-72128340D01*
X130331082Y-72128343D01*
X130194511Y-72184912D01*
X130194498Y-72184919D01*
X130071584Y-72267048D01*
X130071580Y-72267051D01*
X129967051Y-72371580D01*
X129967048Y-72371584D01*
X129884919Y-72494498D01*
X129884912Y-72494511D01*
X129828343Y-72631082D01*
X129828340Y-72631092D01*
X129799500Y-72776079D01*
X129799500Y-72776082D01*
X129799500Y-72923918D01*
X129799500Y-72923920D01*
X129799499Y-72923920D01*
X123065500Y-72923920D01*
X123065500Y-72780403D01*
X123034339Y-72583661D01*
X123034338Y-72583657D01*
X123034338Y-72583656D01*
X122972786Y-72394219D01*
X122959514Y-72368172D01*
X122882353Y-72216734D01*
X122765269Y-72055582D01*
X122624418Y-71914731D01*
X122463266Y-71797647D01*
X122311827Y-71720485D01*
X122261031Y-71672510D01*
X122244236Y-71604689D01*
X122266773Y-71538554D01*
X122311827Y-71499515D01*
X122321116Y-71494781D01*
X122463266Y-71422353D01*
X122624418Y-71305269D01*
X122765269Y-71164418D01*
X122882353Y-71003266D01*
X122972785Y-70825783D01*
X122985140Y-70787758D01*
X123034338Y-70636343D01*
X123034338Y-70636342D01*
X123034339Y-70636339D01*
X123065500Y-70439597D01*
X123065500Y-70240403D01*
X123034339Y-70043661D01*
X123034338Y-70043657D01*
X123034338Y-70043656D01*
X122972786Y-69854219D01*
X122882352Y-69676733D01*
X122765269Y-69515582D01*
X122624418Y-69374731D01*
X122463266Y-69257647D01*
X122311827Y-69180485D01*
X122261031Y-69132510D01*
X122244236Y-69064689D01*
X122266773Y-68998554D01*
X122311827Y-68959515D01*
X122321116Y-68954781D01*
X122463266Y-68882353D01*
X122624418Y-68765269D01*
X122765269Y-68624418D01*
X122882353Y-68463266D01*
X122972785Y-68285783D01*
X122985140Y-68247758D01*
X123034338Y-68096343D01*
X123034338Y-68096342D01*
X123034339Y-68096339D01*
X123065500Y-67899597D01*
X123065500Y-67700403D01*
X123034339Y-67503661D01*
X123034338Y-67503657D01*
X123034338Y-67503656D01*
X122972786Y-67314219D01*
X122882352Y-67136733D01*
X122765269Y-66975582D01*
X122624418Y-66834731D01*
X122463266Y-66717647D01*
X122311827Y-66640485D01*
X122261031Y-66592510D01*
X122244236Y-66524689D01*
X122266773Y-66458554D01*
X122311827Y-66419515D01*
X122321116Y-66414781D01*
X122463266Y-66342353D01*
X122624418Y-66225269D01*
X122765269Y-66084418D01*
X122882353Y-65923266D01*
X122972785Y-65745783D01*
X122985140Y-65707758D01*
X123034338Y-65556343D01*
X123034338Y-65556342D01*
X123034339Y-65556339D01*
X123065500Y-65359597D01*
X123065500Y-65160403D01*
X123034339Y-64963661D01*
X123034338Y-64963657D01*
X123034338Y-64963656D01*
X122972786Y-64774219D01*
X122882352Y-64596733D01*
X122765269Y-64435582D01*
X122624418Y-64294731D01*
X122463266Y-64177647D01*
X122311827Y-64100485D01*
X122261031Y-64052510D01*
X122244236Y-63984689D01*
X122266773Y-63918554D01*
X122311827Y-63879515D01*
X122321116Y-63874781D01*
X122463266Y-63802353D01*
X122624418Y-63685269D01*
X122765269Y-63544418D01*
X122882353Y-63383266D01*
X122972785Y-63205783D01*
X122985140Y-63167758D01*
X123034338Y-63016343D01*
X123034338Y-63016342D01*
X123034339Y-63016339D01*
X123065500Y-62819597D01*
X123065500Y-62620403D01*
X123042299Y-62473920D01*
X143586999Y-62473920D01*
X143615840Y-62618907D01*
X143615843Y-62618917D01*
X143672412Y-62755488D01*
X143672419Y-62755501D01*
X143754548Y-62878415D01*
X143754551Y-62878419D01*
X143859080Y-62982948D01*
X143859084Y-62982951D01*
X143981998Y-63065080D01*
X143982011Y-63065087D01*
X144118582Y-63121656D01*
X144118587Y-63121658D01*
X144118591Y-63121658D01*
X144118592Y-63121659D01*
X144263579Y-63150500D01*
X144263582Y-63150500D01*
X144411420Y-63150500D01*
X144508962Y-63131096D01*
X144556413Y-63121658D01*
X144692995Y-63065084D01*
X144815916Y-62982951D01*
X144920451Y-62878416D01*
X145002584Y-62755495D01*
X145059158Y-62618913D01*
X145059159Y-62618907D01*
X145064636Y-62591377D01*
X145064636Y-62591375D01*
X145076696Y-62530743D01*
X145088000Y-62473918D01*
X145088000Y-62326082D01*
X145088000Y-62326079D01*
X145059159Y-62181092D01*
X145059158Y-62181091D01*
X145059158Y-62181087D01*
X145059156Y-62181082D01*
X145002587Y-62044511D01*
X145002580Y-62044498D01*
X144920451Y-61921584D01*
X144920448Y-61921580D01*
X144815919Y-61817051D01*
X144815915Y-61817048D01*
X144693001Y-61734919D01*
X144692988Y-61734912D01*
X144556417Y-61678343D01*
X144556407Y-61678340D01*
X144411420Y-61649500D01*
X144411418Y-61649500D01*
X144263582Y-61649500D01*
X144263580Y-61649500D01*
X144118592Y-61678340D01*
X144118582Y-61678343D01*
X143982011Y-61734912D01*
X143981998Y-61734919D01*
X143859084Y-61817048D01*
X143859080Y-61817051D01*
X143754551Y-61921580D01*
X143754548Y-61921584D01*
X143672419Y-62044498D01*
X143672412Y-62044511D01*
X143615843Y-62181082D01*
X143615840Y-62181092D01*
X143587000Y-62326079D01*
X143587000Y-62326082D01*
X143587000Y-62473918D01*
X143587000Y-62473920D01*
X143586999Y-62473920D01*
X123042299Y-62473920D01*
X123034339Y-62423661D01*
X123034338Y-62423657D01*
X123034338Y-62423656D01*
X123013105Y-62358308D01*
X122972786Y-62234219D01*
X122882483Y-62056990D01*
X122882353Y-62056734D01*
X122765269Y-61895582D01*
X122624418Y-61754731D01*
X122463266Y-61637647D01*
X122311827Y-61560485D01*
X122261031Y-61512510D01*
X122244236Y-61444689D01*
X122266773Y-61378554D01*
X122311827Y-61339515D01*
X122321116Y-61334781D01*
X122463266Y-61262353D01*
X122624418Y-61145269D01*
X122765269Y-61004418D01*
X122882353Y-60843266D01*
X122972785Y-60665783D01*
X122980827Y-60641031D01*
X123034338Y-60476343D01*
X123034338Y-60476342D01*
X123034339Y-60476339D01*
X123065500Y-60279597D01*
X123065500Y-60080403D01*
X123034339Y-59883661D01*
X123034338Y-59883657D01*
X123034338Y-59883656D01*
X122972786Y-59694219D01*
X122882352Y-59516733D01*
X122765269Y-59355582D01*
X122624418Y-59214731D01*
X122463266Y-59097647D01*
X122311827Y-59020485D01*
X122261031Y-58972510D01*
X122244236Y-58904689D01*
X122266773Y-58838554D01*
X122311827Y-58799515D01*
X122321116Y-58794781D01*
X122463266Y-58722353D01*
X122624418Y-58605269D01*
X122765269Y-58464418D01*
X122882353Y-58303266D01*
X122972785Y-58125783D01*
X122985140Y-58087758D01*
X123034338Y-57936343D01*
X123034338Y-57936342D01*
X123034339Y-57936339D01*
X123065500Y-57739597D01*
X123065500Y-57540403D01*
X123034339Y-57343661D01*
X123034338Y-57343657D01*
X123034338Y-57343656D01*
X122972786Y-57154219D01*
X122882352Y-56976733D01*
X122864436Y-56952074D01*
X122765269Y-56815582D01*
X122624418Y-56674731D01*
X122463266Y-56557647D01*
X122311827Y-56480485D01*
X122261031Y-56432510D01*
X122244236Y-56364689D01*
X122266773Y-56298554D01*
X122311827Y-56259515D01*
X122321116Y-56254781D01*
X122463266Y-56182353D01*
X122624418Y-56065269D01*
X122765269Y-55924418D01*
X122882353Y-55763266D01*
X122972785Y-55585783D01*
X122985140Y-55547758D01*
X123034338Y-55396343D01*
X123034338Y-55396342D01*
X123034339Y-55396339D01*
X123065500Y-55199597D01*
X123065500Y-55000403D01*
X123034339Y-54803661D01*
X123034338Y-54803657D01*
X123034338Y-54803656D01*
X122972786Y-54614219D01*
X122921762Y-54514079D01*
X122882353Y-54436734D01*
X122765269Y-54275582D01*
X122624418Y-54134731D01*
X122463266Y-54017647D01*
X122311827Y-53940485D01*
X122261031Y-53892510D01*
X122244236Y-53824689D01*
X122266773Y-53758554D01*
X122311827Y-53719515D01*
X122331832Y-53709322D01*
X122463266Y-53642353D01*
X122624418Y-53525269D01*
X122679003Y-53470684D01*
X125049500Y-53470684D01*
X125049500Y-53709315D01*
X125049501Y-53709332D01*
X125080648Y-53945920D01*
X125142415Y-54176436D01*
X125233734Y-54396902D01*
X125233740Y-54396914D01*
X125353062Y-54603586D01*
X125353064Y-54603589D01*
X125353065Y-54603590D01*
X125498337Y-54792912D01*
X125498343Y-54792919D01*
X125667080Y-54961656D01*
X125667086Y-54961661D01*
X125856414Y-55106938D01*
X126063086Y-55226260D01*
X126063091Y-55226262D01*
X126063097Y-55226265D01*
X126158109Y-55265620D01*
X126283564Y-55317585D01*
X126514076Y-55379351D01*
X126750678Y-55410500D01*
X126750685Y-55410500D01*
X126989315Y-55410500D01*
X126989322Y-55410500D01*
X127225924Y-55379351D01*
X127456436Y-55317585D01*
X127676914Y-55226260D01*
X127883586Y-55106938D01*
X128072914Y-54961661D01*
X128241661Y-54792914D01*
X128386938Y-54603586D01*
X128506260Y-54396914D01*
X128597585Y-54176436D01*
X128659351Y-53945924D01*
X128690500Y-53709322D01*
X128690500Y-53470678D01*
X128659351Y-53234076D01*
X128597585Y-53003564D01*
X128506260Y-52783086D01*
X128386938Y-52576414D01*
X128241661Y-52387086D01*
X128241656Y-52387080D01*
X128072919Y-52218343D01*
X128072912Y-52218337D01*
X127883590Y-52073065D01*
X127883589Y-52073064D01*
X127883586Y-52073062D01*
X127676914Y-51953740D01*
X127676902Y-51953734D01*
X127456436Y-51862415D01*
X127419269Y-51852456D01*
X127225924Y-51800649D01*
X127225923Y-51800648D01*
X127225920Y-51800648D01*
X126989332Y-51769501D01*
X126989327Y-51769500D01*
X126989322Y-51769500D01*
X126750678Y-51769500D01*
X126750672Y-51769500D01*
X126750667Y-51769501D01*
X126514079Y-51800648D01*
X126283563Y-51862415D01*
X126063097Y-51953734D01*
X126063083Y-51953741D01*
X125856409Y-52073065D01*
X125667087Y-52218337D01*
X125667080Y-52218343D01*
X125498343Y-52387080D01*
X125498337Y-52387087D01*
X125353065Y-52576409D01*
X125233741Y-52783083D01*
X125233734Y-52783097D01*
X125142415Y-53003563D01*
X125080648Y-53234079D01*
X125049501Y-53470667D01*
X125049500Y-53470684D01*
X122679003Y-53470684D01*
X122765269Y-53384418D01*
X122882353Y-53223266D01*
X122972785Y-53045783D01*
X123034339Y-52856339D01*
X123065500Y-52659597D01*
X123065500Y-52460403D01*
X123034339Y-52263661D01*
X123034338Y-52263657D01*
X123034338Y-52263656D01*
X122972786Y-52074219D01*
X122911396Y-51953734D01*
X122882353Y-51896734D01*
X122765269Y-51735582D01*
X122624418Y-51594731D01*
X122463266Y-51477647D01*
X122384379Y-51437452D01*
X122285780Y-51387213D01*
X122096342Y-51325661D01*
X121948782Y-51302290D01*
X121899597Y-51294500D01*
X121700403Y-51294500D01*
X121634822Y-51304887D01*
X121503659Y-51325661D01*
X121503656Y-51325661D01*
X121314219Y-51387213D01*
X121136733Y-51477647D01*
X121044790Y-51544447D01*
X120975582Y-51594731D01*
X120975580Y-51594733D01*
X120975579Y-51594733D01*
X120834733Y-51735579D01*
X120834733Y-51735580D01*
X120834731Y-51735582D01*
X120802772Y-51779570D01*
X120749817Y-51852456D01*
X120694487Y-51895121D01*
X120624873Y-51901100D01*
X120563078Y-51868494D01*
X120528721Y-51807655D01*
X120525499Y-51779570D01*
X120525499Y-51747129D01*
X120525498Y-51747123D01*
X120525497Y-51747116D01*
X120519091Y-51687517D01*
X120468796Y-51552669D01*
X120468795Y-51552668D01*
X120468793Y-51552664D01*
X120382547Y-51437455D01*
X120382544Y-51437452D01*
X120267335Y-51351206D01*
X120267328Y-51351202D01*
X120132482Y-51300908D01*
X120132483Y-51300908D01*
X120072883Y-51294501D01*
X120072881Y-51294500D01*
X120072873Y-51294500D01*
X120072864Y-51294500D01*
X118447129Y-51294500D01*
X118447123Y-51294501D01*
X118387516Y-51300908D01*
X118252671Y-51351202D01*
X118252664Y-51351206D01*
X118137455Y-51437452D01*
X118137452Y-51437455D01*
X118051206Y-51552664D01*
X118051202Y-51552671D01*
X118000908Y-51687517D01*
X117995741Y-51735580D01*
X117994501Y-51747123D01*
X117994500Y-51747135D01*
X116200500Y-51747135D01*
X116200500Y-49506092D01*
X116201097Y-49493939D01*
X116209805Y-49405519D01*
X116214665Y-49356171D01*
X116219403Y-49332349D01*
X116257816Y-49205719D01*
X116267113Y-49183278D01*
X116329485Y-49066587D01*
X116342982Y-49046387D01*
X116426924Y-48944103D01*
X116444103Y-48926924D01*
X116546387Y-48842982D01*
X116566587Y-48829485D01*
X116683278Y-48767113D01*
X116705719Y-48757816D01*
X116832349Y-48719403D01*
X116856173Y-48714665D01*
X116985170Y-48701960D01*
X116993939Y-48701097D01*
X117006092Y-48700500D01*
X117039882Y-48700500D01*
X134960118Y-48700500D01*
X134993908Y-48700500D01*
X135006061Y-48701097D01*
G37*
%TD.AperFunction*%
%TD*%
M02*
