%TF.GenerationSoftware,KiCad,Pcbnew,9.0.7-9.0.7~ubuntu24.04.1*%
%TF.CreationDate,2026-01-13T16:36:12+01:00*%
%TF.ProjectId,analogIO,616e616c-6f67-4494-9f2e-6b696361645f,1.0*%
%TF.SameCoordinates,Original*%
%TF.FileFunction,Legend,Top*%
%TF.FilePolarity,Positive*%
%FSLAX46Y46*%
G04 Gerber Fmt 4.6, Leading zero omitted, Abs format (unit mm)*
G04 Created by KiCad (PCBNEW 9.0.7-9.0.7~ubuntu24.04.1) date 2026-01-13 16:36:12*
%MOMM*%
%LPD*%
G01*
G04 APERTURE LIST*
%ADD10C,0.150000*%
%ADD11C,0.254000*%
%ADD12C,0.120000*%
%ADD13C,0.200000*%
%ADD14C,0.100000*%
G04 APERTURE END LIST*
D10*
X167222142Y-106054819D02*
X166888809Y-105578628D01*
X166650714Y-106054819D02*
X166650714Y-105054819D01*
X166650714Y-105054819D02*
X167031666Y-105054819D01*
X167031666Y-105054819D02*
X167126904Y-105102438D01*
X167126904Y-105102438D02*
X167174523Y-105150057D01*
X167174523Y-105150057D02*
X167222142Y-105245295D01*
X167222142Y-105245295D02*
X167222142Y-105388152D01*
X167222142Y-105388152D02*
X167174523Y-105483390D01*
X167174523Y-105483390D02*
X167126904Y-105531009D01*
X167126904Y-105531009D02*
X167031666Y-105578628D01*
X167031666Y-105578628D02*
X166650714Y-105578628D01*
X168174523Y-106054819D02*
X167603095Y-106054819D01*
X167888809Y-106054819D02*
X167888809Y-105054819D01*
X167888809Y-105054819D02*
X167793571Y-105197676D01*
X167793571Y-105197676D02*
X167698333Y-105292914D01*
X167698333Y-105292914D02*
X167603095Y-105340533D01*
X169031666Y-105388152D02*
X169031666Y-106054819D01*
X168793571Y-105007200D02*
X168555476Y-105721485D01*
X168555476Y-105721485D02*
X169174523Y-105721485D01*
X131357142Y-63954819D02*
X131023809Y-63478628D01*
X130785714Y-63954819D02*
X130785714Y-62954819D01*
X130785714Y-62954819D02*
X131166666Y-62954819D01*
X131166666Y-62954819D02*
X131261904Y-63002438D01*
X131261904Y-63002438D02*
X131309523Y-63050057D01*
X131309523Y-63050057D02*
X131357142Y-63145295D01*
X131357142Y-63145295D02*
X131357142Y-63288152D01*
X131357142Y-63288152D02*
X131309523Y-63383390D01*
X131309523Y-63383390D02*
X131261904Y-63431009D01*
X131261904Y-63431009D02*
X131166666Y-63478628D01*
X131166666Y-63478628D02*
X130785714Y-63478628D01*
X131738095Y-63050057D02*
X131785714Y-63002438D01*
X131785714Y-63002438D02*
X131880952Y-62954819D01*
X131880952Y-62954819D02*
X132119047Y-62954819D01*
X132119047Y-62954819D02*
X132214285Y-63002438D01*
X132214285Y-63002438D02*
X132261904Y-63050057D01*
X132261904Y-63050057D02*
X132309523Y-63145295D01*
X132309523Y-63145295D02*
X132309523Y-63240533D01*
X132309523Y-63240533D02*
X132261904Y-63383390D01*
X132261904Y-63383390D02*
X131690476Y-63954819D01*
X131690476Y-63954819D02*
X132309523Y-63954819D01*
X133214285Y-62954819D02*
X132738095Y-62954819D01*
X132738095Y-62954819D02*
X132690476Y-63431009D01*
X132690476Y-63431009D02*
X132738095Y-63383390D01*
X132738095Y-63383390D02*
X132833333Y-63335771D01*
X132833333Y-63335771D02*
X133071428Y-63335771D01*
X133071428Y-63335771D02*
X133166666Y-63383390D01*
X133166666Y-63383390D02*
X133214285Y-63431009D01*
X133214285Y-63431009D02*
X133261904Y-63526247D01*
X133261904Y-63526247D02*
X133261904Y-63764342D01*
X133261904Y-63764342D02*
X133214285Y-63859580D01*
X133214285Y-63859580D02*
X133166666Y-63907200D01*
X133166666Y-63907200D02*
X133071428Y-63954819D01*
X133071428Y-63954819D02*
X132833333Y-63954819D01*
X132833333Y-63954819D02*
X132738095Y-63907200D01*
X132738095Y-63907200D02*
X132690476Y-63859580D01*
X143463095Y-71399819D02*
X143463095Y-72209342D01*
X143463095Y-72209342D02*
X143510714Y-72304580D01*
X143510714Y-72304580D02*
X143558333Y-72352200D01*
X143558333Y-72352200D02*
X143653571Y-72399819D01*
X143653571Y-72399819D02*
X143844047Y-72399819D01*
X143844047Y-72399819D02*
X143939285Y-72352200D01*
X143939285Y-72352200D02*
X143986904Y-72304580D01*
X143986904Y-72304580D02*
X144034523Y-72209342D01*
X144034523Y-72209342D02*
X144034523Y-71399819D01*
X144415476Y-71399819D02*
X145034523Y-71399819D01*
X145034523Y-71399819D02*
X144701190Y-71780771D01*
X144701190Y-71780771D02*
X144844047Y-71780771D01*
X144844047Y-71780771D02*
X144939285Y-71828390D01*
X144939285Y-71828390D02*
X144986904Y-71876009D01*
X144986904Y-71876009D02*
X145034523Y-71971247D01*
X145034523Y-71971247D02*
X145034523Y-72209342D01*
X145034523Y-72209342D02*
X144986904Y-72304580D01*
X144986904Y-72304580D02*
X144939285Y-72352200D01*
X144939285Y-72352200D02*
X144844047Y-72399819D01*
X144844047Y-72399819D02*
X144558333Y-72399819D01*
X144558333Y-72399819D02*
X144463095Y-72352200D01*
X144463095Y-72352200D02*
X144415476Y-72304580D01*
X127057142Y-81804819D02*
X126723809Y-81328628D01*
X126485714Y-81804819D02*
X126485714Y-80804819D01*
X126485714Y-80804819D02*
X126866666Y-80804819D01*
X126866666Y-80804819D02*
X126961904Y-80852438D01*
X126961904Y-80852438D02*
X127009523Y-80900057D01*
X127009523Y-80900057D02*
X127057142Y-80995295D01*
X127057142Y-80995295D02*
X127057142Y-81138152D01*
X127057142Y-81138152D02*
X127009523Y-81233390D01*
X127009523Y-81233390D02*
X126961904Y-81281009D01*
X126961904Y-81281009D02*
X126866666Y-81328628D01*
X126866666Y-81328628D02*
X126485714Y-81328628D01*
X127438095Y-80900057D02*
X127485714Y-80852438D01*
X127485714Y-80852438D02*
X127580952Y-80804819D01*
X127580952Y-80804819D02*
X127819047Y-80804819D01*
X127819047Y-80804819D02*
X127914285Y-80852438D01*
X127914285Y-80852438D02*
X127961904Y-80900057D01*
X127961904Y-80900057D02*
X128009523Y-80995295D01*
X128009523Y-80995295D02*
X128009523Y-81090533D01*
X128009523Y-81090533D02*
X127961904Y-81233390D01*
X127961904Y-81233390D02*
X127390476Y-81804819D01*
X127390476Y-81804819D02*
X128009523Y-81804819D01*
X128961904Y-81804819D02*
X128390476Y-81804819D01*
X128676190Y-81804819D02*
X128676190Y-80804819D01*
X128676190Y-80804819D02*
X128580952Y-80947676D01*
X128580952Y-80947676D02*
X128485714Y-81042914D01*
X128485714Y-81042914D02*
X128390476Y-81090533D01*
X140938095Y-92904819D02*
X141509523Y-92904819D01*
X141223809Y-93904819D02*
X141223809Y-92904819D01*
X142271428Y-93238152D02*
X142271428Y-93904819D01*
X142033333Y-92857200D02*
X141795238Y-93571485D01*
X141795238Y-93571485D02*
X142414285Y-93571485D01*
X168338095Y-88254819D02*
X168338095Y-89064342D01*
X168338095Y-89064342D02*
X168385714Y-89159580D01*
X168385714Y-89159580D02*
X168433333Y-89207200D01*
X168433333Y-89207200D02*
X168528571Y-89254819D01*
X168528571Y-89254819D02*
X168719047Y-89254819D01*
X168719047Y-89254819D02*
X168814285Y-89207200D01*
X168814285Y-89207200D02*
X168861904Y-89159580D01*
X168861904Y-89159580D02*
X168909523Y-89064342D01*
X168909523Y-89064342D02*
X168909523Y-88254819D01*
X169909523Y-89254819D02*
X169338095Y-89254819D01*
X169623809Y-89254819D02*
X169623809Y-88254819D01*
X169623809Y-88254819D02*
X169528571Y-88397676D01*
X169528571Y-88397676D02*
X169433333Y-88492914D01*
X169433333Y-88492914D02*
X169338095Y-88540533D01*
X143333333Y-63609580D02*
X143285714Y-63657200D01*
X143285714Y-63657200D02*
X143142857Y-63704819D01*
X143142857Y-63704819D02*
X143047619Y-63704819D01*
X143047619Y-63704819D02*
X142904762Y-63657200D01*
X142904762Y-63657200D02*
X142809524Y-63561961D01*
X142809524Y-63561961D02*
X142761905Y-63466723D01*
X142761905Y-63466723D02*
X142714286Y-63276247D01*
X142714286Y-63276247D02*
X142714286Y-63133390D01*
X142714286Y-63133390D02*
X142761905Y-62942914D01*
X142761905Y-62942914D02*
X142809524Y-62847676D01*
X142809524Y-62847676D02*
X142904762Y-62752438D01*
X142904762Y-62752438D02*
X143047619Y-62704819D01*
X143047619Y-62704819D02*
X143142857Y-62704819D01*
X143142857Y-62704819D02*
X143285714Y-62752438D01*
X143285714Y-62752438D02*
X143333333Y-62800057D01*
X144190476Y-62704819D02*
X144000000Y-62704819D01*
X144000000Y-62704819D02*
X143904762Y-62752438D01*
X143904762Y-62752438D02*
X143857143Y-62800057D01*
X143857143Y-62800057D02*
X143761905Y-62942914D01*
X143761905Y-62942914D02*
X143714286Y-63133390D01*
X143714286Y-63133390D02*
X143714286Y-63514342D01*
X143714286Y-63514342D02*
X143761905Y-63609580D01*
X143761905Y-63609580D02*
X143809524Y-63657200D01*
X143809524Y-63657200D02*
X143904762Y-63704819D01*
X143904762Y-63704819D02*
X144095238Y-63704819D01*
X144095238Y-63704819D02*
X144190476Y-63657200D01*
X144190476Y-63657200D02*
X144238095Y-63609580D01*
X144238095Y-63609580D02*
X144285714Y-63514342D01*
X144285714Y-63514342D02*
X144285714Y-63276247D01*
X144285714Y-63276247D02*
X144238095Y-63181009D01*
X144238095Y-63181009D02*
X144190476Y-63133390D01*
X144190476Y-63133390D02*
X144095238Y-63085771D01*
X144095238Y-63085771D02*
X143904762Y-63085771D01*
X143904762Y-63085771D02*
X143809524Y-63133390D01*
X143809524Y-63133390D02*
X143761905Y-63181009D01*
X143761905Y-63181009D02*
X143714286Y-63276247D01*
X137933333Y-82259580D02*
X137885714Y-82307200D01*
X137885714Y-82307200D02*
X137742857Y-82354819D01*
X137742857Y-82354819D02*
X137647619Y-82354819D01*
X137647619Y-82354819D02*
X137504762Y-82307200D01*
X137504762Y-82307200D02*
X137409524Y-82211961D01*
X137409524Y-82211961D02*
X137361905Y-82116723D01*
X137361905Y-82116723D02*
X137314286Y-81926247D01*
X137314286Y-81926247D02*
X137314286Y-81783390D01*
X137314286Y-81783390D02*
X137361905Y-81592914D01*
X137361905Y-81592914D02*
X137409524Y-81497676D01*
X137409524Y-81497676D02*
X137504762Y-81402438D01*
X137504762Y-81402438D02*
X137647619Y-81354819D01*
X137647619Y-81354819D02*
X137742857Y-81354819D01*
X137742857Y-81354819D02*
X137885714Y-81402438D01*
X137885714Y-81402438D02*
X137933333Y-81450057D01*
X138504762Y-81783390D02*
X138409524Y-81735771D01*
X138409524Y-81735771D02*
X138361905Y-81688152D01*
X138361905Y-81688152D02*
X138314286Y-81592914D01*
X138314286Y-81592914D02*
X138314286Y-81545295D01*
X138314286Y-81545295D02*
X138361905Y-81450057D01*
X138361905Y-81450057D02*
X138409524Y-81402438D01*
X138409524Y-81402438D02*
X138504762Y-81354819D01*
X138504762Y-81354819D02*
X138695238Y-81354819D01*
X138695238Y-81354819D02*
X138790476Y-81402438D01*
X138790476Y-81402438D02*
X138838095Y-81450057D01*
X138838095Y-81450057D02*
X138885714Y-81545295D01*
X138885714Y-81545295D02*
X138885714Y-81592914D01*
X138885714Y-81592914D02*
X138838095Y-81688152D01*
X138838095Y-81688152D02*
X138790476Y-81735771D01*
X138790476Y-81735771D02*
X138695238Y-81783390D01*
X138695238Y-81783390D02*
X138504762Y-81783390D01*
X138504762Y-81783390D02*
X138409524Y-81831009D01*
X138409524Y-81831009D02*
X138361905Y-81878628D01*
X138361905Y-81878628D02*
X138314286Y-81973866D01*
X138314286Y-81973866D02*
X138314286Y-82164342D01*
X138314286Y-82164342D02*
X138361905Y-82259580D01*
X138361905Y-82259580D02*
X138409524Y-82307200D01*
X138409524Y-82307200D02*
X138504762Y-82354819D01*
X138504762Y-82354819D02*
X138695238Y-82354819D01*
X138695238Y-82354819D02*
X138790476Y-82307200D01*
X138790476Y-82307200D02*
X138838095Y-82259580D01*
X138838095Y-82259580D02*
X138885714Y-82164342D01*
X138885714Y-82164342D02*
X138885714Y-81973866D01*
X138885714Y-81973866D02*
X138838095Y-81878628D01*
X138838095Y-81878628D02*
X138790476Y-81831009D01*
X138790476Y-81831009D02*
X138695238Y-81783390D01*
X168833333Y-83254819D02*
X168500000Y-82778628D01*
X168261905Y-83254819D02*
X168261905Y-82254819D01*
X168261905Y-82254819D02*
X168642857Y-82254819D01*
X168642857Y-82254819D02*
X168738095Y-82302438D01*
X168738095Y-82302438D02*
X168785714Y-82350057D01*
X168785714Y-82350057D02*
X168833333Y-82445295D01*
X168833333Y-82445295D02*
X168833333Y-82588152D01*
X168833333Y-82588152D02*
X168785714Y-82683390D01*
X168785714Y-82683390D02*
X168738095Y-82731009D01*
X168738095Y-82731009D02*
X168642857Y-82778628D01*
X168642857Y-82778628D02*
X168261905Y-82778628D01*
X169738095Y-82254819D02*
X169261905Y-82254819D01*
X169261905Y-82254819D02*
X169214286Y-82731009D01*
X169214286Y-82731009D02*
X169261905Y-82683390D01*
X169261905Y-82683390D02*
X169357143Y-82635771D01*
X169357143Y-82635771D02*
X169595238Y-82635771D01*
X169595238Y-82635771D02*
X169690476Y-82683390D01*
X169690476Y-82683390D02*
X169738095Y-82731009D01*
X169738095Y-82731009D02*
X169785714Y-82826247D01*
X169785714Y-82826247D02*
X169785714Y-83064342D01*
X169785714Y-83064342D02*
X169738095Y-83159580D01*
X169738095Y-83159580D02*
X169690476Y-83207200D01*
X169690476Y-83207200D02*
X169595238Y-83254819D01*
X169595238Y-83254819D02*
X169357143Y-83254819D01*
X169357143Y-83254819D02*
X169261905Y-83207200D01*
X169261905Y-83207200D02*
X169214286Y-83159580D01*
X155761905Y-105369819D02*
X155761905Y-104369819D01*
X155761905Y-104369819D02*
X156000000Y-104369819D01*
X156000000Y-104369819D02*
X156142857Y-104417438D01*
X156142857Y-104417438D02*
X156238095Y-104512676D01*
X156238095Y-104512676D02*
X156285714Y-104607914D01*
X156285714Y-104607914D02*
X156333333Y-104798390D01*
X156333333Y-104798390D02*
X156333333Y-104941247D01*
X156333333Y-104941247D02*
X156285714Y-105131723D01*
X156285714Y-105131723D02*
X156238095Y-105226961D01*
X156238095Y-105226961D02*
X156142857Y-105322200D01*
X156142857Y-105322200D02*
X156000000Y-105369819D01*
X156000000Y-105369819D02*
X155761905Y-105369819D01*
X157190476Y-104703152D02*
X157190476Y-105369819D01*
X156952381Y-104322200D02*
X156714286Y-105036485D01*
X156714286Y-105036485D02*
X157333333Y-105036485D01*
X135438095Y-76304819D02*
X136009523Y-76304819D01*
X135723809Y-77304819D02*
X135723809Y-76304819D01*
X136819047Y-76304819D02*
X136342857Y-76304819D01*
X136342857Y-76304819D02*
X136295238Y-76781009D01*
X136295238Y-76781009D02*
X136342857Y-76733390D01*
X136342857Y-76733390D02*
X136438095Y-76685771D01*
X136438095Y-76685771D02*
X136676190Y-76685771D01*
X136676190Y-76685771D02*
X136771428Y-76733390D01*
X136771428Y-76733390D02*
X136819047Y-76781009D01*
X136819047Y-76781009D02*
X136866666Y-76876247D01*
X136866666Y-76876247D02*
X136866666Y-77114342D01*
X136866666Y-77114342D02*
X136819047Y-77209580D01*
X136819047Y-77209580D02*
X136771428Y-77257200D01*
X136771428Y-77257200D02*
X136676190Y-77304819D01*
X136676190Y-77304819D02*
X136438095Y-77304819D01*
X136438095Y-77304819D02*
X136342857Y-77257200D01*
X136342857Y-77257200D02*
X136295238Y-77209580D01*
X172533333Y-85263569D02*
X172200000Y-84787378D01*
X171961905Y-85263569D02*
X171961905Y-84263569D01*
X171961905Y-84263569D02*
X172342857Y-84263569D01*
X172342857Y-84263569D02*
X172438095Y-84311188D01*
X172438095Y-84311188D02*
X172485714Y-84358807D01*
X172485714Y-84358807D02*
X172533333Y-84454045D01*
X172533333Y-84454045D02*
X172533333Y-84596902D01*
X172533333Y-84596902D02*
X172485714Y-84692140D01*
X172485714Y-84692140D02*
X172438095Y-84739759D01*
X172438095Y-84739759D02*
X172342857Y-84787378D01*
X172342857Y-84787378D02*
X171961905Y-84787378D01*
X172866667Y-84263569D02*
X173533333Y-84263569D01*
X173533333Y-84263569D02*
X173104762Y-85263569D01*
X167633333Y-98354819D02*
X167300000Y-97878628D01*
X167061905Y-98354819D02*
X167061905Y-97354819D01*
X167061905Y-97354819D02*
X167442857Y-97354819D01*
X167442857Y-97354819D02*
X167538095Y-97402438D01*
X167538095Y-97402438D02*
X167585714Y-97450057D01*
X167585714Y-97450057D02*
X167633333Y-97545295D01*
X167633333Y-97545295D02*
X167633333Y-97688152D01*
X167633333Y-97688152D02*
X167585714Y-97783390D01*
X167585714Y-97783390D02*
X167538095Y-97831009D01*
X167538095Y-97831009D02*
X167442857Y-97878628D01*
X167442857Y-97878628D02*
X167061905Y-97878628D01*
X168490476Y-97354819D02*
X168300000Y-97354819D01*
X168300000Y-97354819D02*
X168204762Y-97402438D01*
X168204762Y-97402438D02*
X168157143Y-97450057D01*
X168157143Y-97450057D02*
X168061905Y-97592914D01*
X168061905Y-97592914D02*
X168014286Y-97783390D01*
X168014286Y-97783390D02*
X168014286Y-98164342D01*
X168014286Y-98164342D02*
X168061905Y-98259580D01*
X168061905Y-98259580D02*
X168109524Y-98307200D01*
X168109524Y-98307200D02*
X168204762Y-98354819D01*
X168204762Y-98354819D02*
X168395238Y-98354819D01*
X168395238Y-98354819D02*
X168490476Y-98307200D01*
X168490476Y-98307200D02*
X168538095Y-98259580D01*
X168538095Y-98259580D02*
X168585714Y-98164342D01*
X168585714Y-98164342D02*
X168585714Y-97926247D01*
X168585714Y-97926247D02*
X168538095Y-97831009D01*
X168538095Y-97831009D02*
X168490476Y-97783390D01*
X168490476Y-97783390D02*
X168395238Y-97735771D01*
X168395238Y-97735771D02*
X168204762Y-97735771D01*
X168204762Y-97735771D02*
X168109524Y-97783390D01*
X168109524Y-97783390D02*
X168061905Y-97831009D01*
X168061905Y-97831009D02*
X168014286Y-97926247D01*
X172761905Y-102763569D02*
X172761905Y-101763569D01*
X172761905Y-101763569D02*
X173000000Y-101763569D01*
X173000000Y-101763569D02*
X173142857Y-101811188D01*
X173142857Y-101811188D02*
X173238095Y-101906426D01*
X173238095Y-101906426D02*
X173285714Y-102001664D01*
X173285714Y-102001664D02*
X173333333Y-102192140D01*
X173333333Y-102192140D02*
X173333333Y-102334997D01*
X173333333Y-102334997D02*
X173285714Y-102525473D01*
X173285714Y-102525473D02*
X173238095Y-102620711D01*
X173238095Y-102620711D02*
X173142857Y-102715950D01*
X173142857Y-102715950D02*
X173000000Y-102763569D01*
X173000000Y-102763569D02*
X172761905Y-102763569D01*
X173714286Y-101858807D02*
X173761905Y-101811188D01*
X173761905Y-101811188D02*
X173857143Y-101763569D01*
X173857143Y-101763569D02*
X174095238Y-101763569D01*
X174095238Y-101763569D02*
X174190476Y-101811188D01*
X174190476Y-101811188D02*
X174238095Y-101858807D01*
X174238095Y-101858807D02*
X174285714Y-101954045D01*
X174285714Y-101954045D02*
X174285714Y-102049283D01*
X174285714Y-102049283D02*
X174238095Y-102192140D01*
X174238095Y-102192140D02*
X173666667Y-102763569D01*
X173666667Y-102763569D02*
X174285714Y-102763569D01*
X171357142Y-100754819D02*
X171023809Y-100278628D01*
X170785714Y-100754819D02*
X170785714Y-99754819D01*
X170785714Y-99754819D02*
X171166666Y-99754819D01*
X171166666Y-99754819D02*
X171261904Y-99802438D01*
X171261904Y-99802438D02*
X171309523Y-99850057D01*
X171309523Y-99850057D02*
X171357142Y-99945295D01*
X171357142Y-99945295D02*
X171357142Y-100088152D01*
X171357142Y-100088152D02*
X171309523Y-100183390D01*
X171309523Y-100183390D02*
X171261904Y-100231009D01*
X171261904Y-100231009D02*
X171166666Y-100278628D01*
X171166666Y-100278628D02*
X170785714Y-100278628D01*
X172309523Y-100754819D02*
X171738095Y-100754819D01*
X172023809Y-100754819D02*
X172023809Y-99754819D01*
X172023809Y-99754819D02*
X171928571Y-99897676D01*
X171928571Y-99897676D02*
X171833333Y-99992914D01*
X171833333Y-99992914D02*
X171738095Y-100040533D01*
X172690476Y-99850057D02*
X172738095Y-99802438D01*
X172738095Y-99802438D02*
X172833333Y-99754819D01*
X172833333Y-99754819D02*
X173071428Y-99754819D01*
X173071428Y-99754819D02*
X173166666Y-99802438D01*
X173166666Y-99802438D02*
X173214285Y-99850057D01*
X173214285Y-99850057D02*
X173261904Y-99945295D01*
X173261904Y-99945295D02*
X173261904Y-100040533D01*
X173261904Y-100040533D02*
X173214285Y-100183390D01*
X173214285Y-100183390D02*
X172642857Y-100754819D01*
X172642857Y-100754819D02*
X173261904Y-100754819D01*
X173838095Y-93354819D02*
X174409523Y-93354819D01*
X174123809Y-94354819D02*
X174123809Y-93354819D01*
X174695238Y-93450057D02*
X174742857Y-93402438D01*
X174742857Y-93402438D02*
X174838095Y-93354819D01*
X174838095Y-93354819D02*
X175076190Y-93354819D01*
X175076190Y-93354819D02*
X175171428Y-93402438D01*
X175171428Y-93402438D02*
X175219047Y-93450057D01*
X175219047Y-93450057D02*
X175266666Y-93545295D01*
X175266666Y-93545295D02*
X175266666Y-93640533D01*
X175266666Y-93640533D02*
X175219047Y-93783390D01*
X175219047Y-93783390D02*
X174647619Y-94354819D01*
X174647619Y-94354819D02*
X175266666Y-94354819D01*
X145357142Y-87304819D02*
X145023809Y-86828628D01*
X144785714Y-87304819D02*
X144785714Y-86304819D01*
X144785714Y-86304819D02*
X145166666Y-86304819D01*
X145166666Y-86304819D02*
X145261904Y-86352438D01*
X145261904Y-86352438D02*
X145309523Y-86400057D01*
X145309523Y-86400057D02*
X145357142Y-86495295D01*
X145357142Y-86495295D02*
X145357142Y-86638152D01*
X145357142Y-86638152D02*
X145309523Y-86733390D01*
X145309523Y-86733390D02*
X145261904Y-86781009D01*
X145261904Y-86781009D02*
X145166666Y-86828628D01*
X145166666Y-86828628D02*
X144785714Y-86828628D01*
X146309523Y-87304819D02*
X145738095Y-87304819D01*
X146023809Y-87304819D02*
X146023809Y-86304819D01*
X146023809Y-86304819D02*
X145928571Y-86447676D01*
X145928571Y-86447676D02*
X145833333Y-86542914D01*
X145833333Y-86542914D02*
X145738095Y-86590533D01*
X147166666Y-86304819D02*
X146976190Y-86304819D01*
X146976190Y-86304819D02*
X146880952Y-86352438D01*
X146880952Y-86352438D02*
X146833333Y-86400057D01*
X146833333Y-86400057D02*
X146738095Y-86542914D01*
X146738095Y-86542914D02*
X146690476Y-86733390D01*
X146690476Y-86733390D02*
X146690476Y-87114342D01*
X146690476Y-87114342D02*
X146738095Y-87209580D01*
X146738095Y-87209580D02*
X146785714Y-87257200D01*
X146785714Y-87257200D02*
X146880952Y-87304819D01*
X146880952Y-87304819D02*
X147071428Y-87304819D01*
X147071428Y-87304819D02*
X147166666Y-87257200D01*
X147166666Y-87257200D02*
X147214285Y-87209580D01*
X147214285Y-87209580D02*
X147261904Y-87114342D01*
X147261904Y-87114342D02*
X147261904Y-86876247D01*
X147261904Y-86876247D02*
X147214285Y-86781009D01*
X147214285Y-86781009D02*
X147166666Y-86733390D01*
X147166666Y-86733390D02*
X147071428Y-86685771D01*
X147071428Y-86685771D02*
X146880952Y-86685771D01*
X146880952Y-86685771D02*
X146785714Y-86733390D01*
X146785714Y-86733390D02*
X146738095Y-86781009D01*
X146738095Y-86781009D02*
X146690476Y-86876247D01*
X147082142Y-69649819D02*
X146748809Y-69173628D01*
X146510714Y-69649819D02*
X146510714Y-68649819D01*
X146510714Y-68649819D02*
X146891666Y-68649819D01*
X146891666Y-68649819D02*
X146986904Y-68697438D01*
X146986904Y-68697438D02*
X147034523Y-68745057D01*
X147034523Y-68745057D02*
X147082142Y-68840295D01*
X147082142Y-68840295D02*
X147082142Y-68983152D01*
X147082142Y-68983152D02*
X147034523Y-69078390D01*
X147034523Y-69078390D02*
X146986904Y-69126009D01*
X146986904Y-69126009D02*
X146891666Y-69173628D01*
X146891666Y-69173628D02*
X146510714Y-69173628D01*
X147463095Y-68745057D02*
X147510714Y-68697438D01*
X147510714Y-68697438D02*
X147605952Y-68649819D01*
X147605952Y-68649819D02*
X147844047Y-68649819D01*
X147844047Y-68649819D02*
X147939285Y-68697438D01*
X147939285Y-68697438D02*
X147986904Y-68745057D01*
X147986904Y-68745057D02*
X148034523Y-68840295D01*
X148034523Y-68840295D02*
X148034523Y-68935533D01*
X148034523Y-68935533D02*
X147986904Y-69078390D01*
X147986904Y-69078390D02*
X147415476Y-69649819D01*
X147415476Y-69649819D02*
X148034523Y-69649819D01*
X148891666Y-68983152D02*
X148891666Y-69649819D01*
X148653571Y-68602200D02*
X148415476Y-69316485D01*
X148415476Y-69316485D02*
X149034523Y-69316485D01*
X172457142Y-81254819D02*
X172123809Y-80778628D01*
X171885714Y-81254819D02*
X171885714Y-80254819D01*
X171885714Y-80254819D02*
X172266666Y-80254819D01*
X172266666Y-80254819D02*
X172361904Y-80302438D01*
X172361904Y-80302438D02*
X172409523Y-80350057D01*
X172409523Y-80350057D02*
X172457142Y-80445295D01*
X172457142Y-80445295D02*
X172457142Y-80588152D01*
X172457142Y-80588152D02*
X172409523Y-80683390D01*
X172409523Y-80683390D02*
X172361904Y-80731009D01*
X172361904Y-80731009D02*
X172266666Y-80778628D01*
X172266666Y-80778628D02*
X171885714Y-80778628D01*
X173409523Y-81254819D02*
X172838095Y-81254819D01*
X173123809Y-81254819D02*
X173123809Y-80254819D01*
X173123809Y-80254819D02*
X173028571Y-80397676D01*
X173028571Y-80397676D02*
X172933333Y-80492914D01*
X172933333Y-80492914D02*
X172838095Y-80540533D01*
X174361904Y-81254819D02*
X173790476Y-81254819D01*
X174076190Y-81254819D02*
X174076190Y-80254819D01*
X174076190Y-80254819D02*
X173980952Y-80397676D01*
X173980952Y-80397676D02*
X173885714Y-80492914D01*
X173885714Y-80492914D02*
X173790476Y-80540533D01*
X161433333Y-82354819D02*
X161100000Y-81878628D01*
X160861905Y-82354819D02*
X160861905Y-81354819D01*
X160861905Y-81354819D02*
X161242857Y-81354819D01*
X161242857Y-81354819D02*
X161338095Y-81402438D01*
X161338095Y-81402438D02*
X161385714Y-81450057D01*
X161385714Y-81450057D02*
X161433333Y-81545295D01*
X161433333Y-81545295D02*
X161433333Y-81688152D01*
X161433333Y-81688152D02*
X161385714Y-81783390D01*
X161385714Y-81783390D02*
X161338095Y-81831009D01*
X161338095Y-81831009D02*
X161242857Y-81878628D01*
X161242857Y-81878628D02*
X160861905Y-81878628D01*
X162385714Y-82354819D02*
X161814286Y-82354819D01*
X162100000Y-82354819D02*
X162100000Y-81354819D01*
X162100000Y-81354819D02*
X162004762Y-81497676D01*
X162004762Y-81497676D02*
X161909524Y-81592914D01*
X161909524Y-81592914D02*
X161814286Y-81640533D01*
X147261905Y-100369819D02*
X147261905Y-99369819D01*
X147261905Y-99369819D02*
X147500000Y-99369819D01*
X147500000Y-99369819D02*
X147642857Y-99417438D01*
X147642857Y-99417438D02*
X147738095Y-99512676D01*
X147738095Y-99512676D02*
X147785714Y-99607914D01*
X147785714Y-99607914D02*
X147833333Y-99798390D01*
X147833333Y-99798390D02*
X147833333Y-99941247D01*
X147833333Y-99941247D02*
X147785714Y-100131723D01*
X147785714Y-100131723D02*
X147738095Y-100226961D01*
X147738095Y-100226961D02*
X147642857Y-100322200D01*
X147642857Y-100322200D02*
X147500000Y-100369819D01*
X147500000Y-100369819D02*
X147261905Y-100369819D01*
X148166667Y-99369819D02*
X148785714Y-99369819D01*
X148785714Y-99369819D02*
X148452381Y-99750771D01*
X148452381Y-99750771D02*
X148595238Y-99750771D01*
X148595238Y-99750771D02*
X148690476Y-99798390D01*
X148690476Y-99798390D02*
X148738095Y-99846009D01*
X148738095Y-99846009D02*
X148785714Y-99941247D01*
X148785714Y-99941247D02*
X148785714Y-100179342D01*
X148785714Y-100179342D02*
X148738095Y-100274580D01*
X148738095Y-100274580D02*
X148690476Y-100322200D01*
X148690476Y-100322200D02*
X148595238Y-100369819D01*
X148595238Y-100369819D02*
X148309524Y-100369819D01*
X148309524Y-100369819D02*
X148214286Y-100322200D01*
X148214286Y-100322200D02*
X148166667Y-100274580D01*
X146057142Y-62759580D02*
X146009523Y-62807200D01*
X146009523Y-62807200D02*
X145866666Y-62854819D01*
X145866666Y-62854819D02*
X145771428Y-62854819D01*
X145771428Y-62854819D02*
X145628571Y-62807200D01*
X145628571Y-62807200D02*
X145533333Y-62711961D01*
X145533333Y-62711961D02*
X145485714Y-62616723D01*
X145485714Y-62616723D02*
X145438095Y-62426247D01*
X145438095Y-62426247D02*
X145438095Y-62283390D01*
X145438095Y-62283390D02*
X145485714Y-62092914D01*
X145485714Y-62092914D02*
X145533333Y-61997676D01*
X145533333Y-61997676D02*
X145628571Y-61902438D01*
X145628571Y-61902438D02*
X145771428Y-61854819D01*
X145771428Y-61854819D02*
X145866666Y-61854819D01*
X145866666Y-61854819D02*
X146009523Y-61902438D01*
X146009523Y-61902438D02*
X146057142Y-61950057D01*
X147009523Y-62854819D02*
X146438095Y-62854819D01*
X146723809Y-62854819D02*
X146723809Y-61854819D01*
X146723809Y-61854819D02*
X146628571Y-61997676D01*
X146628571Y-61997676D02*
X146533333Y-62092914D01*
X146533333Y-62092914D02*
X146438095Y-62140533D01*
X147628571Y-61854819D02*
X147723809Y-61854819D01*
X147723809Y-61854819D02*
X147819047Y-61902438D01*
X147819047Y-61902438D02*
X147866666Y-61950057D01*
X147866666Y-61950057D02*
X147914285Y-62045295D01*
X147914285Y-62045295D02*
X147961904Y-62235771D01*
X147961904Y-62235771D02*
X147961904Y-62473866D01*
X147961904Y-62473866D02*
X147914285Y-62664342D01*
X147914285Y-62664342D02*
X147866666Y-62759580D01*
X147866666Y-62759580D02*
X147819047Y-62807200D01*
X147819047Y-62807200D02*
X147723809Y-62854819D01*
X147723809Y-62854819D02*
X147628571Y-62854819D01*
X147628571Y-62854819D02*
X147533333Y-62807200D01*
X147533333Y-62807200D02*
X147485714Y-62759580D01*
X147485714Y-62759580D02*
X147438095Y-62664342D01*
X147438095Y-62664342D02*
X147390476Y-62473866D01*
X147390476Y-62473866D02*
X147390476Y-62235771D01*
X147390476Y-62235771D02*
X147438095Y-62045295D01*
X147438095Y-62045295D02*
X147485714Y-61950057D01*
X147485714Y-61950057D02*
X147533333Y-61902438D01*
X147533333Y-61902438D02*
X147628571Y-61854819D01*
X158633333Y-85659580D02*
X158585714Y-85707200D01*
X158585714Y-85707200D02*
X158442857Y-85754819D01*
X158442857Y-85754819D02*
X158347619Y-85754819D01*
X158347619Y-85754819D02*
X158204762Y-85707200D01*
X158204762Y-85707200D02*
X158109524Y-85611961D01*
X158109524Y-85611961D02*
X158061905Y-85516723D01*
X158061905Y-85516723D02*
X158014286Y-85326247D01*
X158014286Y-85326247D02*
X158014286Y-85183390D01*
X158014286Y-85183390D02*
X158061905Y-84992914D01*
X158061905Y-84992914D02*
X158109524Y-84897676D01*
X158109524Y-84897676D02*
X158204762Y-84802438D01*
X158204762Y-84802438D02*
X158347619Y-84754819D01*
X158347619Y-84754819D02*
X158442857Y-84754819D01*
X158442857Y-84754819D02*
X158585714Y-84802438D01*
X158585714Y-84802438D02*
X158633333Y-84850057D01*
X158966667Y-84754819D02*
X159585714Y-84754819D01*
X159585714Y-84754819D02*
X159252381Y-85135771D01*
X159252381Y-85135771D02*
X159395238Y-85135771D01*
X159395238Y-85135771D02*
X159490476Y-85183390D01*
X159490476Y-85183390D02*
X159538095Y-85231009D01*
X159538095Y-85231009D02*
X159585714Y-85326247D01*
X159585714Y-85326247D02*
X159585714Y-85564342D01*
X159585714Y-85564342D02*
X159538095Y-85659580D01*
X159538095Y-85659580D02*
X159490476Y-85707200D01*
X159490476Y-85707200D02*
X159395238Y-85754819D01*
X159395238Y-85754819D02*
X159109524Y-85754819D01*
X159109524Y-85754819D02*
X159014286Y-85707200D01*
X159014286Y-85707200D02*
X158966667Y-85659580D01*
X133858333Y-89774580D02*
X133810714Y-89822200D01*
X133810714Y-89822200D02*
X133667857Y-89869819D01*
X133667857Y-89869819D02*
X133572619Y-89869819D01*
X133572619Y-89869819D02*
X133429762Y-89822200D01*
X133429762Y-89822200D02*
X133334524Y-89726961D01*
X133334524Y-89726961D02*
X133286905Y-89631723D01*
X133286905Y-89631723D02*
X133239286Y-89441247D01*
X133239286Y-89441247D02*
X133239286Y-89298390D01*
X133239286Y-89298390D02*
X133286905Y-89107914D01*
X133286905Y-89107914D02*
X133334524Y-89012676D01*
X133334524Y-89012676D02*
X133429762Y-88917438D01*
X133429762Y-88917438D02*
X133572619Y-88869819D01*
X133572619Y-88869819D02*
X133667857Y-88869819D01*
X133667857Y-88869819D02*
X133810714Y-88917438D01*
X133810714Y-88917438D02*
X133858333Y-88965057D01*
X134191667Y-88869819D02*
X134858333Y-88869819D01*
X134858333Y-88869819D02*
X134429762Y-89869819D01*
X164083333Y-82454819D02*
X163750000Y-81978628D01*
X163511905Y-82454819D02*
X163511905Y-81454819D01*
X163511905Y-81454819D02*
X163892857Y-81454819D01*
X163892857Y-81454819D02*
X163988095Y-81502438D01*
X163988095Y-81502438D02*
X164035714Y-81550057D01*
X164035714Y-81550057D02*
X164083333Y-81645295D01*
X164083333Y-81645295D02*
X164083333Y-81788152D01*
X164083333Y-81788152D02*
X164035714Y-81883390D01*
X164035714Y-81883390D02*
X163988095Y-81931009D01*
X163988095Y-81931009D02*
X163892857Y-81978628D01*
X163892857Y-81978628D02*
X163511905Y-81978628D01*
X164416667Y-81454819D02*
X165035714Y-81454819D01*
X165035714Y-81454819D02*
X164702381Y-81835771D01*
X164702381Y-81835771D02*
X164845238Y-81835771D01*
X164845238Y-81835771D02*
X164940476Y-81883390D01*
X164940476Y-81883390D02*
X164988095Y-81931009D01*
X164988095Y-81931009D02*
X165035714Y-82026247D01*
X165035714Y-82026247D02*
X165035714Y-82264342D01*
X165035714Y-82264342D02*
X164988095Y-82359580D01*
X164988095Y-82359580D02*
X164940476Y-82407200D01*
X164940476Y-82407200D02*
X164845238Y-82454819D01*
X164845238Y-82454819D02*
X164559524Y-82454819D01*
X164559524Y-82454819D02*
X164464286Y-82407200D01*
X164464286Y-82407200D02*
X164416667Y-82359580D01*
D11*
X182326667Y-111304318D02*
X182326667Y-112211461D01*
X182326667Y-112211461D02*
X182266190Y-112392889D01*
X182266190Y-112392889D02*
X182145238Y-112513842D01*
X182145238Y-112513842D02*
X181963809Y-112574318D01*
X181963809Y-112574318D02*
X181842857Y-112574318D01*
X183475714Y-111727651D02*
X183475714Y-112574318D01*
X183173333Y-111243842D02*
X182870952Y-112150984D01*
X182870952Y-112150984D02*
X183657143Y-112150984D01*
D10*
X171361905Y-77354819D02*
X171361905Y-76354819D01*
X171361905Y-76354819D02*
X171600000Y-76354819D01*
X171600000Y-76354819D02*
X171742857Y-76402438D01*
X171742857Y-76402438D02*
X171838095Y-76497676D01*
X171838095Y-76497676D02*
X171885714Y-76592914D01*
X171885714Y-76592914D02*
X171933333Y-76783390D01*
X171933333Y-76783390D02*
X171933333Y-76926247D01*
X171933333Y-76926247D02*
X171885714Y-77116723D01*
X171885714Y-77116723D02*
X171838095Y-77211961D01*
X171838095Y-77211961D02*
X171742857Y-77307200D01*
X171742857Y-77307200D02*
X171600000Y-77354819D01*
X171600000Y-77354819D02*
X171361905Y-77354819D01*
X172885714Y-77354819D02*
X172314286Y-77354819D01*
X172600000Y-77354819D02*
X172600000Y-76354819D01*
X172600000Y-76354819D02*
X172504762Y-76497676D01*
X172504762Y-76497676D02*
X172409524Y-76592914D01*
X172409524Y-76592914D02*
X172314286Y-76640533D01*
X167033333Y-78954819D02*
X166700000Y-78478628D01*
X166461905Y-78954819D02*
X166461905Y-77954819D01*
X166461905Y-77954819D02*
X166842857Y-77954819D01*
X166842857Y-77954819D02*
X166938095Y-78002438D01*
X166938095Y-78002438D02*
X166985714Y-78050057D01*
X166985714Y-78050057D02*
X167033333Y-78145295D01*
X167033333Y-78145295D02*
X167033333Y-78288152D01*
X167033333Y-78288152D02*
X166985714Y-78383390D01*
X166985714Y-78383390D02*
X166938095Y-78431009D01*
X166938095Y-78431009D02*
X166842857Y-78478628D01*
X166842857Y-78478628D02*
X166461905Y-78478628D01*
X167509524Y-78954819D02*
X167700000Y-78954819D01*
X167700000Y-78954819D02*
X167795238Y-78907200D01*
X167795238Y-78907200D02*
X167842857Y-78859580D01*
X167842857Y-78859580D02*
X167938095Y-78716723D01*
X167938095Y-78716723D02*
X167985714Y-78526247D01*
X167985714Y-78526247D02*
X167985714Y-78145295D01*
X167985714Y-78145295D02*
X167938095Y-78050057D01*
X167938095Y-78050057D02*
X167890476Y-78002438D01*
X167890476Y-78002438D02*
X167795238Y-77954819D01*
X167795238Y-77954819D02*
X167604762Y-77954819D01*
X167604762Y-77954819D02*
X167509524Y-78002438D01*
X167509524Y-78002438D02*
X167461905Y-78050057D01*
X167461905Y-78050057D02*
X167414286Y-78145295D01*
X167414286Y-78145295D02*
X167414286Y-78383390D01*
X167414286Y-78383390D02*
X167461905Y-78478628D01*
X167461905Y-78478628D02*
X167509524Y-78526247D01*
X167509524Y-78526247D02*
X167604762Y-78573866D01*
X167604762Y-78573866D02*
X167795238Y-78573866D01*
X167795238Y-78573866D02*
X167890476Y-78526247D01*
X167890476Y-78526247D02*
X167938095Y-78478628D01*
X167938095Y-78478628D02*
X167985714Y-78383390D01*
X134582142Y-68149819D02*
X134248809Y-67673628D01*
X134010714Y-68149819D02*
X134010714Y-67149819D01*
X134010714Y-67149819D02*
X134391666Y-67149819D01*
X134391666Y-67149819D02*
X134486904Y-67197438D01*
X134486904Y-67197438D02*
X134534523Y-67245057D01*
X134534523Y-67245057D02*
X134582142Y-67340295D01*
X134582142Y-67340295D02*
X134582142Y-67483152D01*
X134582142Y-67483152D02*
X134534523Y-67578390D01*
X134534523Y-67578390D02*
X134486904Y-67626009D01*
X134486904Y-67626009D02*
X134391666Y-67673628D01*
X134391666Y-67673628D02*
X134010714Y-67673628D01*
X134963095Y-67245057D02*
X135010714Y-67197438D01*
X135010714Y-67197438D02*
X135105952Y-67149819D01*
X135105952Y-67149819D02*
X135344047Y-67149819D01*
X135344047Y-67149819D02*
X135439285Y-67197438D01*
X135439285Y-67197438D02*
X135486904Y-67245057D01*
X135486904Y-67245057D02*
X135534523Y-67340295D01*
X135534523Y-67340295D02*
X135534523Y-67435533D01*
X135534523Y-67435533D02*
X135486904Y-67578390D01*
X135486904Y-67578390D02*
X134915476Y-68149819D01*
X134915476Y-68149819D02*
X135534523Y-68149819D01*
X135867857Y-67149819D02*
X136486904Y-67149819D01*
X136486904Y-67149819D02*
X136153571Y-67530771D01*
X136153571Y-67530771D02*
X136296428Y-67530771D01*
X136296428Y-67530771D02*
X136391666Y-67578390D01*
X136391666Y-67578390D02*
X136439285Y-67626009D01*
X136439285Y-67626009D02*
X136486904Y-67721247D01*
X136486904Y-67721247D02*
X136486904Y-67959342D01*
X136486904Y-67959342D02*
X136439285Y-68054580D01*
X136439285Y-68054580D02*
X136391666Y-68102200D01*
X136391666Y-68102200D02*
X136296428Y-68149819D01*
X136296428Y-68149819D02*
X136010714Y-68149819D01*
X136010714Y-68149819D02*
X135915476Y-68102200D01*
X135915476Y-68102200D02*
X135867857Y-68054580D01*
X160333333Y-93959580D02*
X160285714Y-94007200D01*
X160285714Y-94007200D02*
X160142857Y-94054819D01*
X160142857Y-94054819D02*
X160047619Y-94054819D01*
X160047619Y-94054819D02*
X159904762Y-94007200D01*
X159904762Y-94007200D02*
X159809524Y-93911961D01*
X159809524Y-93911961D02*
X159761905Y-93816723D01*
X159761905Y-93816723D02*
X159714286Y-93626247D01*
X159714286Y-93626247D02*
X159714286Y-93483390D01*
X159714286Y-93483390D02*
X159761905Y-93292914D01*
X159761905Y-93292914D02*
X159809524Y-93197676D01*
X159809524Y-93197676D02*
X159904762Y-93102438D01*
X159904762Y-93102438D02*
X160047619Y-93054819D01*
X160047619Y-93054819D02*
X160142857Y-93054819D01*
X160142857Y-93054819D02*
X160285714Y-93102438D01*
X160285714Y-93102438D02*
X160333333Y-93150057D01*
X161190476Y-93388152D02*
X161190476Y-94054819D01*
X160952381Y-93007200D02*
X160714286Y-93721485D01*
X160714286Y-93721485D02*
X161333333Y-93721485D01*
X140763095Y-88869819D02*
X140763095Y-89679342D01*
X140763095Y-89679342D02*
X140810714Y-89774580D01*
X140810714Y-89774580D02*
X140858333Y-89822200D01*
X140858333Y-89822200D02*
X140953571Y-89869819D01*
X140953571Y-89869819D02*
X141144047Y-89869819D01*
X141144047Y-89869819D02*
X141239285Y-89822200D01*
X141239285Y-89822200D02*
X141286904Y-89774580D01*
X141286904Y-89774580D02*
X141334523Y-89679342D01*
X141334523Y-89679342D02*
X141334523Y-88869819D01*
X141763095Y-88965057D02*
X141810714Y-88917438D01*
X141810714Y-88917438D02*
X141905952Y-88869819D01*
X141905952Y-88869819D02*
X142144047Y-88869819D01*
X142144047Y-88869819D02*
X142239285Y-88917438D01*
X142239285Y-88917438D02*
X142286904Y-88965057D01*
X142286904Y-88965057D02*
X142334523Y-89060295D01*
X142334523Y-89060295D02*
X142334523Y-89155533D01*
X142334523Y-89155533D02*
X142286904Y-89298390D01*
X142286904Y-89298390D02*
X141715476Y-89869819D01*
X141715476Y-89869819D02*
X142334523Y-89869819D01*
X171333333Y-96254819D02*
X171000000Y-95778628D01*
X170761905Y-96254819D02*
X170761905Y-95254819D01*
X170761905Y-95254819D02*
X171142857Y-95254819D01*
X171142857Y-95254819D02*
X171238095Y-95302438D01*
X171238095Y-95302438D02*
X171285714Y-95350057D01*
X171285714Y-95350057D02*
X171333333Y-95445295D01*
X171333333Y-95445295D02*
X171333333Y-95588152D01*
X171333333Y-95588152D02*
X171285714Y-95683390D01*
X171285714Y-95683390D02*
X171238095Y-95731009D01*
X171238095Y-95731009D02*
X171142857Y-95778628D01*
X171142857Y-95778628D02*
X170761905Y-95778628D01*
X171904762Y-95683390D02*
X171809524Y-95635771D01*
X171809524Y-95635771D02*
X171761905Y-95588152D01*
X171761905Y-95588152D02*
X171714286Y-95492914D01*
X171714286Y-95492914D02*
X171714286Y-95445295D01*
X171714286Y-95445295D02*
X171761905Y-95350057D01*
X171761905Y-95350057D02*
X171809524Y-95302438D01*
X171809524Y-95302438D02*
X171904762Y-95254819D01*
X171904762Y-95254819D02*
X172095238Y-95254819D01*
X172095238Y-95254819D02*
X172190476Y-95302438D01*
X172190476Y-95302438D02*
X172238095Y-95350057D01*
X172238095Y-95350057D02*
X172285714Y-95445295D01*
X172285714Y-95445295D02*
X172285714Y-95492914D01*
X172285714Y-95492914D02*
X172238095Y-95588152D01*
X172238095Y-95588152D02*
X172190476Y-95635771D01*
X172190476Y-95635771D02*
X172095238Y-95683390D01*
X172095238Y-95683390D02*
X171904762Y-95683390D01*
X171904762Y-95683390D02*
X171809524Y-95731009D01*
X171809524Y-95731009D02*
X171761905Y-95778628D01*
X171761905Y-95778628D02*
X171714286Y-95873866D01*
X171714286Y-95873866D02*
X171714286Y-96064342D01*
X171714286Y-96064342D02*
X171761905Y-96159580D01*
X171761905Y-96159580D02*
X171809524Y-96207200D01*
X171809524Y-96207200D02*
X171904762Y-96254819D01*
X171904762Y-96254819D02*
X172095238Y-96254819D01*
X172095238Y-96254819D02*
X172190476Y-96207200D01*
X172190476Y-96207200D02*
X172238095Y-96159580D01*
X172238095Y-96159580D02*
X172285714Y-96064342D01*
X172285714Y-96064342D02*
X172285714Y-95873866D01*
X172285714Y-95873866D02*
X172238095Y-95778628D01*
X172238095Y-95778628D02*
X172190476Y-95731009D01*
X172190476Y-95731009D02*
X172095238Y-95683390D01*
X163083333Y-98954819D02*
X162750000Y-98478628D01*
X162511905Y-98954819D02*
X162511905Y-97954819D01*
X162511905Y-97954819D02*
X162892857Y-97954819D01*
X162892857Y-97954819D02*
X162988095Y-98002438D01*
X162988095Y-98002438D02*
X163035714Y-98050057D01*
X163035714Y-98050057D02*
X163083333Y-98145295D01*
X163083333Y-98145295D02*
X163083333Y-98288152D01*
X163083333Y-98288152D02*
X163035714Y-98383390D01*
X163035714Y-98383390D02*
X162988095Y-98431009D01*
X162988095Y-98431009D02*
X162892857Y-98478628D01*
X162892857Y-98478628D02*
X162511905Y-98478628D01*
X163940476Y-98288152D02*
X163940476Y-98954819D01*
X163702381Y-97907200D02*
X163464286Y-98621485D01*
X163464286Y-98621485D02*
X164083333Y-98621485D01*
D11*
X121576667Y-111304318D02*
X121576667Y-112211461D01*
X121576667Y-112211461D02*
X121516190Y-112392889D01*
X121516190Y-112392889D02*
X121395238Y-112513842D01*
X121395238Y-112513842D02*
X121213809Y-112574318D01*
X121213809Y-112574318D02*
X121092857Y-112574318D01*
X122060476Y-111304318D02*
X122846667Y-111304318D01*
X122846667Y-111304318D02*
X122423333Y-111788127D01*
X122423333Y-111788127D02*
X122604762Y-111788127D01*
X122604762Y-111788127D02*
X122725714Y-111848603D01*
X122725714Y-111848603D02*
X122786190Y-111909080D01*
X122786190Y-111909080D02*
X122846667Y-112030032D01*
X122846667Y-112030032D02*
X122846667Y-112332413D01*
X122846667Y-112332413D02*
X122786190Y-112453365D01*
X122786190Y-112453365D02*
X122725714Y-112513842D01*
X122725714Y-112513842D02*
X122604762Y-112574318D01*
X122604762Y-112574318D02*
X122241905Y-112574318D01*
X122241905Y-112574318D02*
X122120952Y-112513842D01*
X122120952Y-112513842D02*
X122060476Y-112453365D01*
D10*
X150257142Y-65354819D02*
X149923809Y-64878628D01*
X149685714Y-65354819D02*
X149685714Y-64354819D01*
X149685714Y-64354819D02*
X150066666Y-64354819D01*
X150066666Y-64354819D02*
X150161904Y-64402438D01*
X150161904Y-64402438D02*
X150209523Y-64450057D01*
X150209523Y-64450057D02*
X150257142Y-64545295D01*
X150257142Y-64545295D02*
X150257142Y-64688152D01*
X150257142Y-64688152D02*
X150209523Y-64783390D01*
X150209523Y-64783390D02*
X150161904Y-64831009D01*
X150161904Y-64831009D02*
X150066666Y-64878628D01*
X150066666Y-64878628D02*
X149685714Y-64878628D01*
X150638095Y-64450057D02*
X150685714Y-64402438D01*
X150685714Y-64402438D02*
X150780952Y-64354819D01*
X150780952Y-64354819D02*
X151019047Y-64354819D01*
X151019047Y-64354819D02*
X151114285Y-64402438D01*
X151114285Y-64402438D02*
X151161904Y-64450057D01*
X151161904Y-64450057D02*
X151209523Y-64545295D01*
X151209523Y-64545295D02*
X151209523Y-64640533D01*
X151209523Y-64640533D02*
X151161904Y-64783390D01*
X151161904Y-64783390D02*
X150590476Y-65354819D01*
X150590476Y-65354819D02*
X151209523Y-65354819D01*
X152066666Y-64354819D02*
X151876190Y-64354819D01*
X151876190Y-64354819D02*
X151780952Y-64402438D01*
X151780952Y-64402438D02*
X151733333Y-64450057D01*
X151733333Y-64450057D02*
X151638095Y-64592914D01*
X151638095Y-64592914D02*
X151590476Y-64783390D01*
X151590476Y-64783390D02*
X151590476Y-65164342D01*
X151590476Y-65164342D02*
X151638095Y-65259580D01*
X151638095Y-65259580D02*
X151685714Y-65307200D01*
X151685714Y-65307200D02*
X151780952Y-65354819D01*
X151780952Y-65354819D02*
X151971428Y-65354819D01*
X151971428Y-65354819D02*
X152066666Y-65307200D01*
X152066666Y-65307200D02*
X152114285Y-65259580D01*
X152114285Y-65259580D02*
X152161904Y-65164342D01*
X152161904Y-65164342D02*
X152161904Y-64926247D01*
X152161904Y-64926247D02*
X152114285Y-64831009D01*
X152114285Y-64831009D02*
X152066666Y-64783390D01*
X152066666Y-64783390D02*
X151971428Y-64735771D01*
X151971428Y-64735771D02*
X151780952Y-64735771D01*
X151780952Y-64735771D02*
X151685714Y-64783390D01*
X151685714Y-64783390D02*
X151638095Y-64831009D01*
X151638095Y-64831009D02*
X151590476Y-64926247D01*
X140638095Y-75804819D02*
X141209523Y-75804819D01*
X140923809Y-76804819D02*
X140923809Y-75804819D01*
X141971428Y-75804819D02*
X141780952Y-75804819D01*
X141780952Y-75804819D02*
X141685714Y-75852438D01*
X141685714Y-75852438D02*
X141638095Y-75900057D01*
X141638095Y-75900057D02*
X141542857Y-76042914D01*
X141542857Y-76042914D02*
X141495238Y-76233390D01*
X141495238Y-76233390D02*
X141495238Y-76614342D01*
X141495238Y-76614342D02*
X141542857Y-76709580D01*
X141542857Y-76709580D02*
X141590476Y-76757200D01*
X141590476Y-76757200D02*
X141685714Y-76804819D01*
X141685714Y-76804819D02*
X141876190Y-76804819D01*
X141876190Y-76804819D02*
X141971428Y-76757200D01*
X141971428Y-76757200D02*
X142019047Y-76709580D01*
X142019047Y-76709580D02*
X142066666Y-76614342D01*
X142066666Y-76614342D02*
X142066666Y-76376247D01*
X142066666Y-76376247D02*
X142019047Y-76281009D01*
X142019047Y-76281009D02*
X141971428Y-76233390D01*
X141971428Y-76233390D02*
X141876190Y-76185771D01*
X141876190Y-76185771D02*
X141685714Y-76185771D01*
X141685714Y-76185771D02*
X141590476Y-76233390D01*
X141590476Y-76233390D02*
X141542857Y-76281009D01*
X141542857Y-76281009D02*
X141495238Y-76376247D01*
D11*
X129326667Y-112304318D02*
X129326667Y-113211461D01*
X129326667Y-113211461D02*
X129266190Y-113392889D01*
X129266190Y-113392889D02*
X129145238Y-113513842D01*
X129145238Y-113513842D02*
X128963809Y-113574318D01*
X128963809Y-113574318D02*
X128842857Y-113574318D01*
X129870952Y-112425270D02*
X129931428Y-112364794D01*
X129931428Y-112364794D02*
X130052381Y-112304318D01*
X130052381Y-112304318D02*
X130354762Y-112304318D01*
X130354762Y-112304318D02*
X130475714Y-112364794D01*
X130475714Y-112364794D02*
X130536190Y-112425270D01*
X130536190Y-112425270D02*
X130596667Y-112546222D01*
X130596667Y-112546222D02*
X130596667Y-112667175D01*
X130596667Y-112667175D02*
X130536190Y-112848603D01*
X130536190Y-112848603D02*
X129810476Y-113574318D01*
X129810476Y-113574318D02*
X130596667Y-113574318D01*
D10*
X159633333Y-88643330D02*
X159585714Y-88690950D01*
X159585714Y-88690950D02*
X159442857Y-88738569D01*
X159442857Y-88738569D02*
X159347619Y-88738569D01*
X159347619Y-88738569D02*
X159204762Y-88690950D01*
X159204762Y-88690950D02*
X159109524Y-88595711D01*
X159109524Y-88595711D02*
X159061905Y-88500473D01*
X159061905Y-88500473D02*
X159014286Y-88309997D01*
X159014286Y-88309997D02*
X159014286Y-88167140D01*
X159014286Y-88167140D02*
X159061905Y-87976664D01*
X159061905Y-87976664D02*
X159109524Y-87881426D01*
X159109524Y-87881426D02*
X159204762Y-87786188D01*
X159204762Y-87786188D02*
X159347619Y-87738569D01*
X159347619Y-87738569D02*
X159442857Y-87738569D01*
X159442857Y-87738569D02*
X159585714Y-87786188D01*
X159585714Y-87786188D02*
X159633333Y-87833807D01*
X160014286Y-87833807D02*
X160061905Y-87786188D01*
X160061905Y-87786188D02*
X160157143Y-87738569D01*
X160157143Y-87738569D02*
X160395238Y-87738569D01*
X160395238Y-87738569D02*
X160490476Y-87786188D01*
X160490476Y-87786188D02*
X160538095Y-87833807D01*
X160538095Y-87833807D02*
X160585714Y-87929045D01*
X160585714Y-87929045D02*
X160585714Y-88024283D01*
X160585714Y-88024283D02*
X160538095Y-88167140D01*
X160538095Y-88167140D02*
X159966667Y-88738569D01*
X159966667Y-88738569D02*
X160585714Y-88738569D01*
X147557142Y-79204819D02*
X147223809Y-78728628D01*
X146985714Y-79204819D02*
X146985714Y-78204819D01*
X146985714Y-78204819D02*
X147366666Y-78204819D01*
X147366666Y-78204819D02*
X147461904Y-78252438D01*
X147461904Y-78252438D02*
X147509523Y-78300057D01*
X147509523Y-78300057D02*
X147557142Y-78395295D01*
X147557142Y-78395295D02*
X147557142Y-78538152D01*
X147557142Y-78538152D02*
X147509523Y-78633390D01*
X147509523Y-78633390D02*
X147461904Y-78681009D01*
X147461904Y-78681009D02*
X147366666Y-78728628D01*
X147366666Y-78728628D02*
X146985714Y-78728628D01*
X147938095Y-78300057D02*
X147985714Y-78252438D01*
X147985714Y-78252438D02*
X148080952Y-78204819D01*
X148080952Y-78204819D02*
X148319047Y-78204819D01*
X148319047Y-78204819D02*
X148414285Y-78252438D01*
X148414285Y-78252438D02*
X148461904Y-78300057D01*
X148461904Y-78300057D02*
X148509523Y-78395295D01*
X148509523Y-78395295D02*
X148509523Y-78490533D01*
X148509523Y-78490533D02*
X148461904Y-78633390D01*
X148461904Y-78633390D02*
X147890476Y-79204819D01*
X147890476Y-79204819D02*
X148509523Y-79204819D01*
X149128571Y-78204819D02*
X149223809Y-78204819D01*
X149223809Y-78204819D02*
X149319047Y-78252438D01*
X149319047Y-78252438D02*
X149366666Y-78300057D01*
X149366666Y-78300057D02*
X149414285Y-78395295D01*
X149414285Y-78395295D02*
X149461904Y-78585771D01*
X149461904Y-78585771D02*
X149461904Y-78823866D01*
X149461904Y-78823866D02*
X149414285Y-79014342D01*
X149414285Y-79014342D02*
X149366666Y-79109580D01*
X149366666Y-79109580D02*
X149319047Y-79157200D01*
X149319047Y-79157200D02*
X149223809Y-79204819D01*
X149223809Y-79204819D02*
X149128571Y-79204819D01*
X149128571Y-79204819D02*
X149033333Y-79157200D01*
X149033333Y-79157200D02*
X148985714Y-79109580D01*
X148985714Y-79109580D02*
X148938095Y-79014342D01*
X148938095Y-79014342D02*
X148890476Y-78823866D01*
X148890476Y-78823866D02*
X148890476Y-78585771D01*
X148890476Y-78585771D02*
X148938095Y-78395295D01*
X148938095Y-78395295D02*
X148985714Y-78300057D01*
X148985714Y-78300057D02*
X149033333Y-78252438D01*
X149033333Y-78252438D02*
X149128571Y-78204819D01*
D11*
X146826667Y-112219318D02*
X146826667Y-113126461D01*
X146826667Y-113126461D02*
X146766190Y-113307889D01*
X146766190Y-113307889D02*
X146645238Y-113428842D01*
X146645238Y-113428842D02*
X146463809Y-113489318D01*
X146463809Y-113489318D02*
X146342857Y-113489318D01*
X148096667Y-113489318D02*
X147370952Y-113489318D01*
X147733809Y-113489318D02*
X147733809Y-112219318D01*
X147733809Y-112219318D02*
X147612857Y-112400746D01*
X147612857Y-112400746D02*
X147491905Y-112521699D01*
X147491905Y-112521699D02*
X147370952Y-112582175D01*
D10*
X132307142Y-81804819D02*
X131973809Y-81328628D01*
X131735714Y-81804819D02*
X131735714Y-80804819D01*
X131735714Y-80804819D02*
X132116666Y-80804819D01*
X132116666Y-80804819D02*
X132211904Y-80852438D01*
X132211904Y-80852438D02*
X132259523Y-80900057D01*
X132259523Y-80900057D02*
X132307142Y-80995295D01*
X132307142Y-80995295D02*
X132307142Y-81138152D01*
X132307142Y-81138152D02*
X132259523Y-81233390D01*
X132259523Y-81233390D02*
X132211904Y-81281009D01*
X132211904Y-81281009D02*
X132116666Y-81328628D01*
X132116666Y-81328628D02*
X131735714Y-81328628D01*
X133259523Y-81804819D02*
X132688095Y-81804819D01*
X132973809Y-81804819D02*
X132973809Y-80804819D01*
X132973809Y-80804819D02*
X132878571Y-80947676D01*
X132878571Y-80947676D02*
X132783333Y-81042914D01*
X132783333Y-81042914D02*
X132688095Y-81090533D01*
X133592857Y-80804819D02*
X134259523Y-80804819D01*
X134259523Y-80804819D02*
X133830952Y-81804819D01*
X135438095Y-93054819D02*
X136009523Y-93054819D01*
X135723809Y-94054819D02*
X135723809Y-93054819D01*
X136247619Y-93054819D02*
X136866666Y-93054819D01*
X136866666Y-93054819D02*
X136533333Y-93435771D01*
X136533333Y-93435771D02*
X136676190Y-93435771D01*
X136676190Y-93435771D02*
X136771428Y-93483390D01*
X136771428Y-93483390D02*
X136819047Y-93531009D01*
X136819047Y-93531009D02*
X136866666Y-93626247D01*
X136866666Y-93626247D02*
X136866666Y-93864342D01*
X136866666Y-93864342D02*
X136819047Y-93959580D01*
X136819047Y-93959580D02*
X136771428Y-94007200D01*
X136771428Y-94007200D02*
X136676190Y-94054819D01*
X136676190Y-94054819D02*
X136390476Y-94054819D01*
X136390476Y-94054819D02*
X136295238Y-94007200D01*
X136295238Y-94007200D02*
X136247619Y-93959580D01*
X137833333Y-63859580D02*
X137785714Y-63907200D01*
X137785714Y-63907200D02*
X137642857Y-63954819D01*
X137642857Y-63954819D02*
X137547619Y-63954819D01*
X137547619Y-63954819D02*
X137404762Y-63907200D01*
X137404762Y-63907200D02*
X137309524Y-63811961D01*
X137309524Y-63811961D02*
X137261905Y-63716723D01*
X137261905Y-63716723D02*
X137214286Y-63526247D01*
X137214286Y-63526247D02*
X137214286Y-63383390D01*
X137214286Y-63383390D02*
X137261905Y-63192914D01*
X137261905Y-63192914D02*
X137309524Y-63097676D01*
X137309524Y-63097676D02*
X137404762Y-63002438D01*
X137404762Y-63002438D02*
X137547619Y-62954819D01*
X137547619Y-62954819D02*
X137642857Y-62954819D01*
X137642857Y-62954819D02*
X137785714Y-63002438D01*
X137785714Y-63002438D02*
X137833333Y-63050057D01*
X138309524Y-63954819D02*
X138500000Y-63954819D01*
X138500000Y-63954819D02*
X138595238Y-63907200D01*
X138595238Y-63907200D02*
X138642857Y-63859580D01*
X138642857Y-63859580D02*
X138738095Y-63716723D01*
X138738095Y-63716723D02*
X138785714Y-63526247D01*
X138785714Y-63526247D02*
X138785714Y-63145295D01*
X138785714Y-63145295D02*
X138738095Y-63050057D01*
X138738095Y-63050057D02*
X138690476Y-63002438D01*
X138690476Y-63002438D02*
X138595238Y-62954819D01*
X138595238Y-62954819D02*
X138404762Y-62954819D01*
X138404762Y-62954819D02*
X138309524Y-63002438D01*
X138309524Y-63002438D02*
X138261905Y-63050057D01*
X138261905Y-63050057D02*
X138214286Y-63145295D01*
X138214286Y-63145295D02*
X138214286Y-63383390D01*
X138214286Y-63383390D02*
X138261905Y-63478628D01*
X138261905Y-63478628D02*
X138309524Y-63526247D01*
X138309524Y-63526247D02*
X138404762Y-63573866D01*
X138404762Y-63573866D02*
X138595238Y-63573866D01*
X138595238Y-63573866D02*
X138690476Y-63526247D01*
X138690476Y-63526247D02*
X138738095Y-63478628D01*
X138738095Y-63478628D02*
X138785714Y-63383390D01*
X160333333Y-99054819D02*
X160000000Y-98578628D01*
X159761905Y-99054819D02*
X159761905Y-98054819D01*
X159761905Y-98054819D02*
X160142857Y-98054819D01*
X160142857Y-98054819D02*
X160238095Y-98102438D01*
X160238095Y-98102438D02*
X160285714Y-98150057D01*
X160285714Y-98150057D02*
X160333333Y-98245295D01*
X160333333Y-98245295D02*
X160333333Y-98388152D01*
X160333333Y-98388152D02*
X160285714Y-98483390D01*
X160285714Y-98483390D02*
X160238095Y-98531009D01*
X160238095Y-98531009D02*
X160142857Y-98578628D01*
X160142857Y-98578628D02*
X159761905Y-98578628D01*
X160714286Y-98150057D02*
X160761905Y-98102438D01*
X160761905Y-98102438D02*
X160857143Y-98054819D01*
X160857143Y-98054819D02*
X161095238Y-98054819D01*
X161095238Y-98054819D02*
X161190476Y-98102438D01*
X161190476Y-98102438D02*
X161238095Y-98150057D01*
X161238095Y-98150057D02*
X161285714Y-98245295D01*
X161285714Y-98245295D02*
X161285714Y-98340533D01*
X161285714Y-98340533D02*
X161238095Y-98483390D01*
X161238095Y-98483390D02*
X160666667Y-99054819D01*
X160666667Y-99054819D02*
X161285714Y-99054819D01*
X136558333Y-72304580D02*
X136510714Y-72352200D01*
X136510714Y-72352200D02*
X136367857Y-72399819D01*
X136367857Y-72399819D02*
X136272619Y-72399819D01*
X136272619Y-72399819D02*
X136129762Y-72352200D01*
X136129762Y-72352200D02*
X136034524Y-72256961D01*
X136034524Y-72256961D02*
X135986905Y-72161723D01*
X135986905Y-72161723D02*
X135939286Y-71971247D01*
X135939286Y-71971247D02*
X135939286Y-71828390D01*
X135939286Y-71828390D02*
X135986905Y-71637914D01*
X135986905Y-71637914D02*
X136034524Y-71542676D01*
X136034524Y-71542676D02*
X136129762Y-71447438D01*
X136129762Y-71447438D02*
X136272619Y-71399819D01*
X136272619Y-71399819D02*
X136367857Y-71399819D01*
X136367857Y-71399819D02*
X136510714Y-71447438D01*
X136510714Y-71447438D02*
X136558333Y-71495057D01*
X137463095Y-71399819D02*
X136986905Y-71399819D01*
X136986905Y-71399819D02*
X136939286Y-71876009D01*
X136939286Y-71876009D02*
X136986905Y-71828390D01*
X136986905Y-71828390D02*
X137082143Y-71780771D01*
X137082143Y-71780771D02*
X137320238Y-71780771D01*
X137320238Y-71780771D02*
X137415476Y-71828390D01*
X137415476Y-71828390D02*
X137463095Y-71876009D01*
X137463095Y-71876009D02*
X137510714Y-71971247D01*
X137510714Y-71971247D02*
X137510714Y-72209342D01*
X137510714Y-72209342D02*
X137463095Y-72304580D01*
X137463095Y-72304580D02*
X137415476Y-72352200D01*
X137415476Y-72352200D02*
X137320238Y-72399819D01*
X137320238Y-72399819D02*
X137082143Y-72399819D01*
X137082143Y-72399819D02*
X136986905Y-72352200D01*
X136986905Y-72352200D02*
X136939286Y-72304580D01*
X145157142Y-83154819D02*
X144823809Y-82678628D01*
X144585714Y-83154819D02*
X144585714Y-82154819D01*
X144585714Y-82154819D02*
X144966666Y-82154819D01*
X144966666Y-82154819D02*
X145061904Y-82202438D01*
X145061904Y-82202438D02*
X145109523Y-82250057D01*
X145109523Y-82250057D02*
X145157142Y-82345295D01*
X145157142Y-82345295D02*
X145157142Y-82488152D01*
X145157142Y-82488152D02*
X145109523Y-82583390D01*
X145109523Y-82583390D02*
X145061904Y-82631009D01*
X145061904Y-82631009D02*
X144966666Y-82678628D01*
X144966666Y-82678628D02*
X144585714Y-82678628D01*
X146109523Y-83154819D02*
X145538095Y-83154819D01*
X145823809Y-83154819D02*
X145823809Y-82154819D01*
X145823809Y-82154819D02*
X145728571Y-82297676D01*
X145728571Y-82297676D02*
X145633333Y-82392914D01*
X145633333Y-82392914D02*
X145538095Y-82440533D01*
X146680952Y-82583390D02*
X146585714Y-82535771D01*
X146585714Y-82535771D02*
X146538095Y-82488152D01*
X146538095Y-82488152D02*
X146490476Y-82392914D01*
X146490476Y-82392914D02*
X146490476Y-82345295D01*
X146490476Y-82345295D02*
X146538095Y-82250057D01*
X146538095Y-82250057D02*
X146585714Y-82202438D01*
X146585714Y-82202438D02*
X146680952Y-82154819D01*
X146680952Y-82154819D02*
X146871428Y-82154819D01*
X146871428Y-82154819D02*
X146966666Y-82202438D01*
X146966666Y-82202438D02*
X147014285Y-82250057D01*
X147014285Y-82250057D02*
X147061904Y-82345295D01*
X147061904Y-82345295D02*
X147061904Y-82392914D01*
X147061904Y-82392914D02*
X147014285Y-82488152D01*
X147014285Y-82488152D02*
X146966666Y-82535771D01*
X146966666Y-82535771D02*
X146871428Y-82583390D01*
X146871428Y-82583390D02*
X146680952Y-82583390D01*
X146680952Y-82583390D02*
X146585714Y-82631009D01*
X146585714Y-82631009D02*
X146538095Y-82678628D01*
X146538095Y-82678628D02*
X146490476Y-82773866D01*
X146490476Y-82773866D02*
X146490476Y-82964342D01*
X146490476Y-82964342D02*
X146538095Y-83059580D01*
X146538095Y-83059580D02*
X146585714Y-83107200D01*
X146585714Y-83107200D02*
X146680952Y-83154819D01*
X146680952Y-83154819D02*
X146871428Y-83154819D01*
X146871428Y-83154819D02*
X146966666Y-83107200D01*
X146966666Y-83107200D02*
X147014285Y-83059580D01*
X147014285Y-83059580D02*
X147061904Y-82964342D01*
X147061904Y-82964342D02*
X147061904Y-82773866D01*
X147061904Y-82773866D02*
X147014285Y-82678628D01*
X147014285Y-82678628D02*
X146966666Y-82631009D01*
X146966666Y-82631009D02*
X146871428Y-82583390D01*
X129807142Y-78054819D02*
X129473809Y-77578628D01*
X129235714Y-78054819D02*
X129235714Y-77054819D01*
X129235714Y-77054819D02*
X129616666Y-77054819D01*
X129616666Y-77054819D02*
X129711904Y-77102438D01*
X129711904Y-77102438D02*
X129759523Y-77150057D01*
X129759523Y-77150057D02*
X129807142Y-77245295D01*
X129807142Y-77245295D02*
X129807142Y-77388152D01*
X129807142Y-77388152D02*
X129759523Y-77483390D01*
X129759523Y-77483390D02*
X129711904Y-77531009D01*
X129711904Y-77531009D02*
X129616666Y-77578628D01*
X129616666Y-77578628D02*
X129235714Y-77578628D01*
X130759523Y-78054819D02*
X130188095Y-78054819D01*
X130473809Y-78054819D02*
X130473809Y-77054819D01*
X130473809Y-77054819D02*
X130378571Y-77197676D01*
X130378571Y-77197676D02*
X130283333Y-77292914D01*
X130283333Y-77292914D02*
X130188095Y-77340533D01*
X131235714Y-78054819D02*
X131426190Y-78054819D01*
X131426190Y-78054819D02*
X131521428Y-78007200D01*
X131521428Y-78007200D02*
X131569047Y-77959580D01*
X131569047Y-77959580D02*
X131664285Y-77816723D01*
X131664285Y-77816723D02*
X131711904Y-77626247D01*
X131711904Y-77626247D02*
X131711904Y-77245295D01*
X131711904Y-77245295D02*
X131664285Y-77150057D01*
X131664285Y-77150057D02*
X131616666Y-77102438D01*
X131616666Y-77102438D02*
X131521428Y-77054819D01*
X131521428Y-77054819D02*
X131330952Y-77054819D01*
X131330952Y-77054819D02*
X131235714Y-77102438D01*
X131235714Y-77102438D02*
X131188095Y-77150057D01*
X131188095Y-77150057D02*
X131140476Y-77245295D01*
X131140476Y-77245295D02*
X131140476Y-77483390D01*
X131140476Y-77483390D02*
X131188095Y-77578628D01*
X131188095Y-77578628D02*
X131235714Y-77626247D01*
X131235714Y-77626247D02*
X131330952Y-77673866D01*
X131330952Y-77673866D02*
X131521428Y-77673866D01*
X131521428Y-77673866D02*
X131616666Y-77626247D01*
X131616666Y-77626247D02*
X131664285Y-77578628D01*
X131664285Y-77578628D02*
X131711904Y-77483390D01*
X131057142Y-86054819D02*
X130723809Y-85578628D01*
X130485714Y-86054819D02*
X130485714Y-85054819D01*
X130485714Y-85054819D02*
X130866666Y-85054819D01*
X130866666Y-85054819D02*
X130961904Y-85102438D01*
X130961904Y-85102438D02*
X131009523Y-85150057D01*
X131009523Y-85150057D02*
X131057142Y-85245295D01*
X131057142Y-85245295D02*
X131057142Y-85388152D01*
X131057142Y-85388152D02*
X131009523Y-85483390D01*
X131009523Y-85483390D02*
X130961904Y-85531009D01*
X130961904Y-85531009D02*
X130866666Y-85578628D01*
X130866666Y-85578628D02*
X130485714Y-85578628D01*
X132009523Y-86054819D02*
X131438095Y-86054819D01*
X131723809Y-86054819D02*
X131723809Y-85054819D01*
X131723809Y-85054819D02*
X131628571Y-85197676D01*
X131628571Y-85197676D02*
X131533333Y-85292914D01*
X131533333Y-85292914D02*
X131438095Y-85340533D01*
X132914285Y-85054819D02*
X132438095Y-85054819D01*
X132438095Y-85054819D02*
X132390476Y-85531009D01*
X132390476Y-85531009D02*
X132438095Y-85483390D01*
X132438095Y-85483390D02*
X132533333Y-85435771D01*
X132533333Y-85435771D02*
X132771428Y-85435771D01*
X132771428Y-85435771D02*
X132866666Y-85483390D01*
X132866666Y-85483390D02*
X132914285Y-85531009D01*
X132914285Y-85531009D02*
X132961904Y-85626247D01*
X132961904Y-85626247D02*
X132961904Y-85864342D01*
X132961904Y-85864342D02*
X132914285Y-85959580D01*
X132914285Y-85959580D02*
X132866666Y-86007200D01*
X132866666Y-86007200D02*
X132771428Y-86054819D01*
X132771428Y-86054819D02*
X132533333Y-86054819D01*
X132533333Y-86054819D02*
X132438095Y-86007200D01*
X132438095Y-86007200D02*
X132390476Y-85959580D01*
X163257142Y-101654819D02*
X162923809Y-101178628D01*
X162685714Y-101654819D02*
X162685714Y-100654819D01*
X162685714Y-100654819D02*
X163066666Y-100654819D01*
X163066666Y-100654819D02*
X163161904Y-100702438D01*
X163161904Y-100702438D02*
X163209523Y-100750057D01*
X163209523Y-100750057D02*
X163257142Y-100845295D01*
X163257142Y-100845295D02*
X163257142Y-100988152D01*
X163257142Y-100988152D02*
X163209523Y-101083390D01*
X163209523Y-101083390D02*
X163161904Y-101131009D01*
X163161904Y-101131009D02*
X163066666Y-101178628D01*
X163066666Y-101178628D02*
X162685714Y-101178628D01*
X164209523Y-101654819D02*
X163638095Y-101654819D01*
X163923809Y-101654819D02*
X163923809Y-100654819D01*
X163923809Y-100654819D02*
X163828571Y-100797676D01*
X163828571Y-100797676D02*
X163733333Y-100892914D01*
X163733333Y-100892914D02*
X163638095Y-100940533D01*
X164828571Y-100654819D02*
X164923809Y-100654819D01*
X164923809Y-100654819D02*
X165019047Y-100702438D01*
X165019047Y-100702438D02*
X165066666Y-100750057D01*
X165066666Y-100750057D02*
X165114285Y-100845295D01*
X165114285Y-100845295D02*
X165161904Y-101035771D01*
X165161904Y-101035771D02*
X165161904Y-101273866D01*
X165161904Y-101273866D02*
X165114285Y-101464342D01*
X165114285Y-101464342D02*
X165066666Y-101559580D01*
X165066666Y-101559580D02*
X165019047Y-101607200D01*
X165019047Y-101607200D02*
X164923809Y-101654819D01*
X164923809Y-101654819D02*
X164828571Y-101654819D01*
X164828571Y-101654819D02*
X164733333Y-101607200D01*
X164733333Y-101607200D02*
X164685714Y-101559580D01*
X164685714Y-101559580D02*
X164638095Y-101464342D01*
X164638095Y-101464342D02*
X164590476Y-101273866D01*
X164590476Y-101273866D02*
X164590476Y-101035771D01*
X164590476Y-101035771D02*
X164638095Y-100845295D01*
X164638095Y-100845295D02*
X164685714Y-100750057D01*
X164685714Y-100750057D02*
X164733333Y-100702438D01*
X164733333Y-100702438D02*
X164828571Y-100654819D01*
X173738095Y-86488569D02*
X174309523Y-86488569D01*
X174023809Y-87488569D02*
X174023809Y-86488569D01*
X175166666Y-87488569D02*
X174595238Y-87488569D01*
X174880952Y-87488569D02*
X174880952Y-86488569D01*
X174880952Y-86488569D02*
X174785714Y-86631426D01*
X174785714Y-86631426D02*
X174690476Y-86726664D01*
X174690476Y-86726664D02*
X174595238Y-86774283D01*
X168357142Y-76154819D02*
X168023809Y-75678628D01*
X167785714Y-76154819D02*
X167785714Y-75154819D01*
X167785714Y-75154819D02*
X168166666Y-75154819D01*
X168166666Y-75154819D02*
X168261904Y-75202438D01*
X168261904Y-75202438D02*
X168309523Y-75250057D01*
X168309523Y-75250057D02*
X168357142Y-75345295D01*
X168357142Y-75345295D02*
X168357142Y-75488152D01*
X168357142Y-75488152D02*
X168309523Y-75583390D01*
X168309523Y-75583390D02*
X168261904Y-75631009D01*
X168261904Y-75631009D02*
X168166666Y-75678628D01*
X168166666Y-75678628D02*
X167785714Y-75678628D01*
X169309523Y-76154819D02*
X168738095Y-76154819D01*
X169023809Y-76154819D02*
X169023809Y-75154819D01*
X169023809Y-75154819D02*
X168928571Y-75297676D01*
X168928571Y-75297676D02*
X168833333Y-75392914D01*
X168833333Y-75392914D02*
X168738095Y-75440533D01*
X169642857Y-75154819D02*
X170261904Y-75154819D01*
X170261904Y-75154819D02*
X169928571Y-75535771D01*
X169928571Y-75535771D02*
X170071428Y-75535771D01*
X170071428Y-75535771D02*
X170166666Y-75583390D01*
X170166666Y-75583390D02*
X170214285Y-75631009D01*
X170214285Y-75631009D02*
X170261904Y-75726247D01*
X170261904Y-75726247D02*
X170261904Y-75964342D01*
X170261904Y-75964342D02*
X170214285Y-76059580D01*
X170214285Y-76059580D02*
X170166666Y-76107200D01*
X170166666Y-76107200D02*
X170071428Y-76154819D01*
X170071428Y-76154819D02*
X169785714Y-76154819D01*
X169785714Y-76154819D02*
X169690476Y-76107200D01*
X169690476Y-76107200D02*
X169642857Y-76059580D01*
X152657142Y-84554819D02*
X152323809Y-84078628D01*
X152085714Y-84554819D02*
X152085714Y-83554819D01*
X152085714Y-83554819D02*
X152466666Y-83554819D01*
X152466666Y-83554819D02*
X152561904Y-83602438D01*
X152561904Y-83602438D02*
X152609523Y-83650057D01*
X152609523Y-83650057D02*
X152657142Y-83745295D01*
X152657142Y-83745295D02*
X152657142Y-83888152D01*
X152657142Y-83888152D02*
X152609523Y-83983390D01*
X152609523Y-83983390D02*
X152561904Y-84031009D01*
X152561904Y-84031009D02*
X152466666Y-84078628D01*
X152466666Y-84078628D02*
X152085714Y-84078628D01*
X153038095Y-83650057D02*
X153085714Y-83602438D01*
X153085714Y-83602438D02*
X153180952Y-83554819D01*
X153180952Y-83554819D02*
X153419047Y-83554819D01*
X153419047Y-83554819D02*
X153514285Y-83602438D01*
X153514285Y-83602438D02*
X153561904Y-83650057D01*
X153561904Y-83650057D02*
X153609523Y-83745295D01*
X153609523Y-83745295D02*
X153609523Y-83840533D01*
X153609523Y-83840533D02*
X153561904Y-83983390D01*
X153561904Y-83983390D02*
X152990476Y-84554819D01*
X152990476Y-84554819D02*
X153609523Y-84554819D01*
X153990476Y-83650057D02*
X154038095Y-83602438D01*
X154038095Y-83602438D02*
X154133333Y-83554819D01*
X154133333Y-83554819D02*
X154371428Y-83554819D01*
X154371428Y-83554819D02*
X154466666Y-83602438D01*
X154466666Y-83602438D02*
X154514285Y-83650057D01*
X154514285Y-83650057D02*
X154561904Y-83745295D01*
X154561904Y-83745295D02*
X154561904Y-83840533D01*
X154561904Y-83840533D02*
X154514285Y-83983390D01*
X154514285Y-83983390D02*
X153942857Y-84554819D01*
X153942857Y-84554819D02*
X154561904Y-84554819D01*
X170833333Y-92659580D02*
X170785714Y-92707200D01*
X170785714Y-92707200D02*
X170642857Y-92754819D01*
X170642857Y-92754819D02*
X170547619Y-92754819D01*
X170547619Y-92754819D02*
X170404762Y-92707200D01*
X170404762Y-92707200D02*
X170309524Y-92611961D01*
X170309524Y-92611961D02*
X170261905Y-92516723D01*
X170261905Y-92516723D02*
X170214286Y-92326247D01*
X170214286Y-92326247D02*
X170214286Y-92183390D01*
X170214286Y-92183390D02*
X170261905Y-91992914D01*
X170261905Y-91992914D02*
X170309524Y-91897676D01*
X170309524Y-91897676D02*
X170404762Y-91802438D01*
X170404762Y-91802438D02*
X170547619Y-91754819D01*
X170547619Y-91754819D02*
X170642857Y-91754819D01*
X170642857Y-91754819D02*
X170785714Y-91802438D01*
X170785714Y-91802438D02*
X170833333Y-91850057D01*
X171785714Y-92754819D02*
X171214286Y-92754819D01*
X171500000Y-92754819D02*
X171500000Y-91754819D01*
X171500000Y-91754819D02*
X171404762Y-91897676D01*
X171404762Y-91897676D02*
X171309524Y-91992914D01*
X171309524Y-91992914D02*
X171214286Y-92040533D01*
D12*
%TO.C,R14*%
X167342500Y-102804026D02*
X167342500Y-103313474D01*
X168387500Y-102804026D02*
X168387500Y-103313474D01*
%TO.C,R25*%
X133702500Y-63190276D02*
X133702500Y-63699724D01*
X134747500Y-63190276D02*
X134747500Y-63699724D01*
%TO.C,U3*%
X139390000Y-65790000D02*
X143510000Y-65790000D01*
X139390000Y-65885000D02*
X139390000Y-65790000D01*
X139390000Y-70910000D02*
X139390000Y-70815000D01*
X143510000Y-65790000D02*
X143510000Y-65885000D01*
X143510000Y-70815000D02*
X143510000Y-70910000D01*
X143510000Y-70910000D02*
X139390000Y-70910000D01*
X144290000Y-71150000D02*
X143810000Y-71150000D01*
X144050000Y-70820000D01*
X144290000Y-71150000D01*
G36*
X144290000Y-71150000D02*
G01*
X143810000Y-71150000D01*
X144050000Y-70820000D01*
X144290000Y-71150000D01*
G37*
%TO.C,R21*%
X128454724Y-82327500D02*
X127945276Y-82327500D01*
X128454724Y-83372500D02*
X127945276Y-83372500D01*
%TO.C,T4*%
X141000000Y-91000000D02*
X142400000Y-91000000D01*
X141000000Y-92400000D02*
X141000000Y-91000000D01*
X142400000Y-91000000D02*
X142400000Y-92400000D01*
X142400000Y-92400000D02*
X141000000Y-92400000D01*
%TO.C,U1*%
X162805000Y-88248750D02*
X162900000Y-88248750D01*
X162805000Y-92368750D02*
X162805000Y-88248750D01*
X162900000Y-92368750D02*
X162805000Y-92368750D01*
X167830000Y-88248750D02*
X167925000Y-88248750D01*
X167925000Y-88248750D02*
X167925000Y-92368750D01*
X167925000Y-92368750D02*
X167830000Y-92368750D01*
X168165000Y-87948750D02*
X167835000Y-87708750D01*
X168165000Y-87468750D01*
X168165000Y-87948750D01*
G36*
X168165000Y-87948750D02*
G01*
X167835000Y-87708750D01*
X168165000Y-87468750D01*
X168165000Y-87948750D01*
G37*
%TO.C,C6*%
X143621267Y-64185000D02*
X143328733Y-64185000D01*
X143621267Y-65205000D02*
X143328733Y-65205000D01*
%TO.C,C8*%
X140921267Y-81405000D02*
X140628733Y-81405000D01*
X140921267Y-82425000D02*
X140628733Y-82425000D01*
%TO.C,R5*%
X166727500Y-84788474D02*
X166727500Y-84279026D01*
X167772500Y-84788474D02*
X167772500Y-84279026D01*
%TO.C,D4*%
X160010000Y-100765000D02*
X154500000Y-100765000D01*
X160010000Y-104065000D02*
X154500000Y-104065000D01*
X160010000Y-104065000D02*
X160010000Y-100765000D01*
%TO.C,T5*%
X135500000Y-78150000D02*
X136900000Y-78150000D01*
X135500000Y-79550000D02*
X135500000Y-78150000D01*
X136900000Y-78150000D02*
X136900000Y-79550000D01*
X136900000Y-79550000D02*
X135500000Y-79550000D01*
%TO.C,R7*%
X169745276Y-84286250D02*
X170254724Y-84286250D01*
X169745276Y-85331250D02*
X170254724Y-85331250D01*
%TO.C,R6*%
X165542500Y-95804026D02*
X165542500Y-96313474D01*
X166587500Y-95804026D02*
X166587500Y-96313474D01*
%TO.C,D2*%
X169255000Y-101458750D02*
X169255000Y-103158750D01*
X169255000Y-101458750D02*
X171915000Y-101458750D01*
X169255000Y-103158750D02*
X171915000Y-103158750D01*
%TO.C,R12*%
X168560276Y-99786250D02*
X169069724Y-99786250D01*
X168560276Y-100831250D02*
X169069724Y-100831250D01*
%TO.C,T2*%
X171915000Y-93108750D02*
X173315000Y-93108750D01*
X171915000Y-94508750D02*
X171915000Y-93108750D01*
X173315000Y-93108750D02*
X173315000Y-94508750D01*
X173315000Y-94508750D02*
X171915000Y-94508750D01*
%TO.C,R16*%
X143177500Y-87104724D02*
X143177500Y-86595276D01*
X144222500Y-87104724D02*
X144222500Y-86595276D01*
%TO.C,R24*%
X147979724Y-67172500D02*
X147470276Y-67172500D01*
X147979724Y-68217500D02*
X147470276Y-68217500D01*
%TO.C,R11*%
X169745276Y-80261250D02*
X170254724Y-80261250D01*
X169745276Y-81306250D02*
X170254724Y-81306250D01*
%TO.C,R1*%
X161332776Y-82761250D02*
X161842224Y-82761250D01*
X161332776Y-83806250D02*
X161842224Y-83806250D01*
%TO.C,D3*%
X144490000Y-100765000D02*
X144490000Y-104065000D01*
X144490000Y-100765000D02*
X150000000Y-100765000D01*
X144490000Y-104065000D02*
X150000000Y-104065000D01*
%TO.C,C10*%
X146215000Y-65091267D02*
X146215000Y-64798733D01*
X147235000Y-65091267D02*
X147235000Y-64798733D01*
%TO.C,C3*%
X161646267Y-84773750D02*
X161353733Y-84773750D01*
X161646267Y-85793750D02*
X161353733Y-85793750D01*
%TO.C,C7*%
X136628733Y-88905000D02*
X136921267Y-88905000D01*
X136628733Y-89925000D02*
X136921267Y-89925000D01*
%TO.C,R3*%
X163727500Y-84029026D02*
X163727500Y-84538474D01*
X164772500Y-84029026D02*
X164772500Y-84538474D01*
D13*
%TO.C,J4*%
X178970000Y-51165000D02*
X183970000Y-51165000D01*
X178970000Y-109835000D02*
X178970000Y-51165000D01*
D14*
X180200000Y-50560000D02*
X180200000Y-50560000D01*
X180200000Y-50660000D02*
X180200000Y-50660000D01*
D13*
X183970000Y-51165000D02*
X183970000Y-109835000D01*
X183970000Y-109835000D02*
X178970000Y-109835000D01*
D14*
X180200000Y-50560000D02*
G75*
G02*
X180200000Y-50660000I0J-50000D01*
G01*
X180200000Y-50660000D02*
G75*
G02*
X180200000Y-50560000I0J50000D01*
G01*
D12*
%TO.C,D1*%
X170455000Y-77808750D02*
X170455000Y-79508750D01*
X170455000Y-77808750D02*
X173115000Y-77808750D01*
X170455000Y-79508750D02*
X173115000Y-79508750D01*
%TO.C,R9*%
X166727500Y-80529026D02*
X166727500Y-81038474D01*
X167772500Y-80529026D02*
X167772500Y-81038474D01*
%TO.C,R23*%
X134970276Y-65672500D02*
X135479724Y-65672500D01*
X134970276Y-66717500D02*
X135479724Y-66717500D01*
%TO.C,C4*%
X160646267Y-94523750D02*
X160353733Y-94523750D01*
X160646267Y-95543750D02*
X160353733Y-95543750D01*
%TO.C,U2*%
X136715000Y-83105000D02*
X140835000Y-83105000D01*
X136715000Y-83200000D02*
X136715000Y-83105000D01*
X136715000Y-88225000D02*
X136715000Y-88130000D01*
X140835000Y-83105000D02*
X140835000Y-83200000D01*
X140835000Y-88130000D02*
X140835000Y-88225000D01*
X140835000Y-88225000D02*
X136715000Y-88225000D01*
X141615000Y-88465000D02*
X141135000Y-88465000D01*
X141375000Y-88135000D01*
X141615000Y-88465000D01*
G36*
X141615000Y-88465000D02*
G01*
X141135000Y-88465000D01*
X141375000Y-88135000D01*
X141615000Y-88465000D01*
G37*
%TO.C,R8*%
X168560276Y-95286250D02*
X169069724Y-95286250D01*
X168560276Y-96331250D02*
X169069724Y-96331250D01*
%TO.C,R4*%
X162727500Y-96288474D02*
X162727500Y-95779026D01*
X163772500Y-96288474D02*
X163772500Y-95779026D01*
D13*
%TO.C,J3*%
X118030000Y-51165000D02*
X123030000Y-51165000D01*
X118030000Y-109835000D02*
X118030000Y-51165000D01*
D14*
X119260000Y-50560000D02*
X119260000Y-50560000D01*
X119260000Y-50660000D02*
X119260000Y-50660000D01*
D13*
X123030000Y-51165000D02*
X123030000Y-109835000D01*
X123030000Y-109835000D02*
X118030000Y-109835000D01*
D14*
X119260000Y-50560000D02*
G75*
G02*
X119260000Y-50660000I0J-50000D01*
G01*
X119260000Y-50660000D02*
G75*
G02*
X119260000Y-50560000I0J50000D01*
G01*
D12*
%TO.C,R26*%
X148202500Y-64690276D02*
X148202500Y-65199724D01*
X149247500Y-64690276D02*
X149247500Y-65199724D01*
%TO.C,T6*%
X140700000Y-77400000D02*
X142100000Y-77400000D01*
X140700000Y-78800000D02*
X140700000Y-77400000D01*
X142100000Y-77400000D02*
X142100000Y-78800000D01*
X142100000Y-78800000D02*
X140700000Y-78800000D01*
D13*
%TO.C,J2*%
X131380000Y-109500000D02*
X131380000Y-109500000D01*
X131380000Y-109500000D02*
X131380000Y-109500000D01*
X131480000Y-109500000D02*
X131480000Y-109500000D01*
X131980000Y-106400000D02*
X137520000Y-106400000D01*
X131980000Y-112600000D02*
X131980000Y-106400000D01*
X132580000Y-112600000D02*
X131980000Y-112600000D01*
X137520000Y-106400000D02*
X137520000Y-112600000D01*
X137520000Y-112600000D02*
X136780000Y-112600000D01*
X131380000Y-109500000D02*
G75*
G02*
X131480000Y-109500000I50000J0D01*
G01*
X131480000Y-109500000D02*
G75*
G02*
X131380000Y-109500000I-50000J0D01*
G01*
X131480000Y-109500000D02*
G75*
G02*
X131380000Y-109500000I-50000J0D01*
G01*
D12*
%TO.C,C2*%
X160990000Y-88137483D02*
X160990000Y-88430017D01*
X162010000Y-88137483D02*
X162010000Y-88430017D01*
%TO.C,R20*%
X147677500Y-80995276D02*
X147677500Y-81504724D01*
X148722500Y-80995276D02*
X148722500Y-81504724D01*
D13*
%TO.C,J1*%
X148860000Y-109415000D02*
X148860000Y-109415000D01*
X148860000Y-109415000D02*
X148860000Y-109415000D01*
X148960000Y-109415000D02*
X148960000Y-109415000D01*
X149460000Y-106315000D02*
X155000000Y-106315000D01*
X149460000Y-112515000D02*
X149460000Y-106315000D01*
X150060000Y-112515000D02*
X149460000Y-112515000D01*
X155000000Y-106315000D02*
X155000000Y-112515000D01*
X155000000Y-112515000D02*
X154260000Y-112515000D01*
X148860000Y-109415000D02*
G75*
G02*
X148960000Y-109415000I50000J0D01*
G01*
X148960000Y-109415000D02*
G75*
G02*
X148860000Y-109415000I-50000J0D01*
G01*
X148960000Y-109415000D02*
G75*
G02*
X148860000Y-109415000I-50000J0D01*
G01*
D12*
%TO.C,R17*%
X132867224Y-82327500D02*
X132357776Y-82327500D01*
X132867224Y-83372500D02*
X132357776Y-83372500D01*
%TO.C,T3*%
X135500000Y-91150000D02*
X136900000Y-91150000D01*
X135500000Y-92550000D02*
X135500000Y-91150000D01*
X136900000Y-91150000D02*
X136900000Y-92550000D01*
X136900000Y-92550000D02*
X135500000Y-92550000D01*
%TO.C,C9*%
X135715000Y-63591267D02*
X135715000Y-63298733D01*
X136735000Y-63591267D02*
X136735000Y-63298733D01*
%TO.C,R2*%
X160245276Y-96511250D02*
X160754724Y-96511250D01*
X160245276Y-97556250D02*
X160754724Y-97556250D01*
%TO.C,C5*%
X139328733Y-71435000D02*
X139621267Y-71435000D01*
X139328733Y-72455000D02*
X139621267Y-72455000D01*
%TO.C,R18*%
X145945276Y-83627500D02*
X146454724Y-83627500D01*
X145945276Y-84672500D02*
X146454724Y-84672500D01*
%TO.C,R19*%
X129927500Y-79845276D02*
X129927500Y-80354724D01*
X130972500Y-79845276D02*
X130972500Y-80354724D01*
%TO.C,R15*%
X133427500Y-85854724D02*
X133427500Y-85345276D01*
X134472500Y-85854724D02*
X134472500Y-85345276D01*
%TO.C,R10*%
X165542500Y-100313474D02*
X165542500Y-99804026D01*
X166587500Y-100313474D02*
X166587500Y-99804026D01*
%TO.C,T1*%
X171800000Y-86333750D02*
X173200000Y-86333750D01*
X171800000Y-87733750D02*
X171800000Y-86333750D01*
X173200000Y-86333750D02*
X173200000Y-87733750D01*
X173200000Y-87733750D02*
X171800000Y-87733750D01*
%TO.C,R13*%
X168477500Y-78288474D02*
X168477500Y-77779026D01*
X169522500Y-78288474D02*
X169522500Y-77779026D01*
%TO.C,R22*%
X149845276Y-83627500D02*
X150354724Y-83627500D01*
X149845276Y-84672500D02*
X150354724Y-84672500D01*
%TO.C,C1*%
X168740000Y-92430017D02*
X168740000Y-92137483D01*
X169760000Y-92430017D02*
X169760000Y-92137483D01*
%TD*%
M02*
