%TF.GenerationSoftware,KiCad,Pcbnew,9.0.7-9.0.7~ubuntu24.04.1*%
%TF.CreationDate,2026-01-13T16:36:12+01:00*%
%TF.ProjectId,analogIO,616e616c-6f67-4494-9f2e-6b696361645f,1.0*%
%TF.SameCoordinates,Original*%
%TF.FileFunction,Paste,Top*%
%TF.FilePolarity,Positive*%
%FSLAX46Y46*%
G04 Gerber Fmt 4.6, Leading zero omitted, Abs format (unit mm)*
G04 Created by KiCad (PCBNEW 9.0.7-9.0.7~ubuntu24.04.1) date 2026-01-13 16:36:12*
%MOMM*%
%LPD*%
G01*
G04 APERTURE LIST*
G04 Aperture macros list*
%AMRoundRect*
0 Rectangle with rounded corners*
0 $1 Rounding radius*
0 $2 $3 $4 $5 $6 $7 $8 $9 X,Y pos of 4 corners*
0 Add a 4 corners polygon primitive as box body*
4,1,4,$2,$3,$4,$5,$6,$7,$8,$9,$2,$3,0*
0 Add four circle primitives for the rounded corners*
1,1,$1+$1,$2,$3*
1,1,$1+$1,$4,$5*
1,1,$1+$1,$6,$7*
1,1,$1+$1,$8,$9*
0 Add four rect primitives between the rounded corners*
20,1,$1+$1,$2,$3,$4,$5,0*
20,1,$1+$1,$4,$5,$6,$7,0*
20,1,$1+$1,$6,$7,$8,$9,0*
20,1,$1+$1,$8,$9,$2,$3,0*%
G04 Aperture macros list end*
%ADD10RoundRect,0.237500X-0.237500X0.250000X-0.237500X-0.250000X0.237500X-0.250000X0.237500X0.250000X0*%
%ADD11RoundRect,0.150000X0.825000X0.150000X-0.825000X0.150000X-0.825000X-0.150000X0.825000X-0.150000X0*%
%ADD12RoundRect,0.237500X0.250000X0.237500X-0.250000X0.237500X-0.250000X-0.237500X0.250000X-0.237500X0*%
%ADD13RoundRect,0.150000X-0.150000X0.825000X-0.150000X-0.825000X0.150000X-0.825000X0.150000X0.825000X0*%
%ADD14RoundRect,0.237500X0.300000X0.237500X-0.300000X0.237500X-0.300000X-0.237500X0.300000X-0.237500X0*%
%ADD15RoundRect,0.237500X0.237500X-0.250000X0.237500X0.250000X-0.237500X0.250000X-0.237500X-0.250000X0*%
%ADD16RoundRect,0.250000X1.000000X0.650000X-1.000000X0.650000X-1.000000X-0.650000X1.000000X-0.650000X0*%
%ADD17RoundRect,0.237500X-0.250000X-0.237500X0.250000X-0.237500X0.250000X0.237500X-0.250000X0.237500X0*%
%ADD18RoundRect,0.112500X-0.187500X-0.112500X0.187500X-0.112500X0.187500X0.112500X-0.187500X0.112500X0*%
%ADD19RoundRect,0.250000X-1.000000X-0.650000X1.000000X-0.650000X1.000000X0.650000X-1.000000X0.650000X0*%
%ADD20RoundRect,0.237500X0.237500X-0.300000X0.237500X0.300000X-0.237500X0.300000X-0.237500X-0.300000X0*%
%ADD21RoundRect,0.237500X-0.300000X-0.237500X0.300000X-0.237500X0.300000X0.237500X-0.300000X0.237500X0*%
%ADD22RoundRect,0.237500X-0.237500X0.300000X-0.237500X-0.300000X0.237500X-0.300000X0.237500X0.300000X0*%
G04 APERTURE END LIST*
D10*
%TO.C,R14*%
X167865000Y-102146250D03*
X167865000Y-103971250D03*
%TD*%
%TO.C,R25*%
X134225000Y-62532500D03*
X134225000Y-64357500D03*
%TD*%
D11*
%TO.C,U3*%
X143925000Y-70255000D03*
X143925000Y-68985000D03*
X143925000Y-67715000D03*
X143925000Y-66445000D03*
X138975000Y-66445000D03*
X138975000Y-67715000D03*
X138975000Y-68985000D03*
X138975000Y-70255000D03*
%TD*%
D12*
%TO.C,R21*%
X129112500Y-82850000D03*
X127287500Y-82850000D03*
%TD*%
D13*
%TO.C,U1*%
X167270000Y-87833750D03*
X166000000Y-87833750D03*
X164730000Y-87833750D03*
X163460000Y-87833750D03*
X163460000Y-92783750D03*
X164730000Y-92783750D03*
X166000000Y-92783750D03*
X167270000Y-92783750D03*
%TD*%
D14*
%TO.C,C6*%
X144337500Y-64695000D03*
X142612500Y-64695000D03*
%TD*%
%TO.C,C8*%
X141637500Y-81915000D03*
X139912500Y-81915000D03*
%TD*%
D15*
%TO.C,R5*%
X167250000Y-85446250D03*
X167250000Y-83621250D03*
%TD*%
D16*
%TO.C,D4*%
X158500000Y-102415000D03*
X154500000Y-102415000D03*
%TD*%
D17*
%TO.C,R7*%
X169087500Y-84808750D03*
X170912500Y-84808750D03*
%TD*%
D10*
%TO.C,R6*%
X166065000Y-95146250D03*
X166065000Y-96971250D03*
%TD*%
D18*
%TO.C,D2*%
X169815000Y-102308750D03*
X171915000Y-102308750D03*
%TD*%
D17*
%TO.C,R12*%
X167902500Y-100308750D03*
X169727500Y-100308750D03*
%TD*%
D15*
%TO.C,R16*%
X143700000Y-87762500D03*
X143700000Y-85937500D03*
%TD*%
D12*
%TO.C,R24*%
X148637500Y-67695000D03*
X146812500Y-67695000D03*
%TD*%
D17*
%TO.C,R11*%
X169087500Y-80783750D03*
X170912500Y-80783750D03*
%TD*%
%TO.C,R1*%
X160675000Y-83283750D03*
X162500000Y-83283750D03*
%TD*%
D19*
%TO.C,D3*%
X146000000Y-102415000D03*
X150000000Y-102415000D03*
%TD*%
D20*
%TO.C,C10*%
X146725000Y-65807500D03*
X146725000Y-64082500D03*
%TD*%
D14*
%TO.C,C3*%
X162362500Y-85283750D03*
X160637500Y-85283750D03*
%TD*%
D21*
%TO.C,C7*%
X135912500Y-89415000D03*
X137637500Y-89415000D03*
%TD*%
D10*
%TO.C,R3*%
X164250000Y-83371250D03*
X164250000Y-85196250D03*
%TD*%
D18*
%TO.C,D1*%
X171015000Y-78658750D03*
X173115000Y-78658750D03*
%TD*%
D10*
%TO.C,R9*%
X167250000Y-79871250D03*
X167250000Y-81696250D03*
%TD*%
D17*
%TO.C,R23*%
X134312500Y-66195000D03*
X136137500Y-66195000D03*
%TD*%
D14*
%TO.C,C4*%
X161362500Y-95033750D03*
X159637500Y-95033750D03*
%TD*%
D11*
%TO.C,U2*%
X141250000Y-87570000D03*
X141250000Y-86300000D03*
X141250000Y-85030000D03*
X141250000Y-83760000D03*
X136300000Y-83760000D03*
X136300000Y-85030000D03*
X136300000Y-86300000D03*
X136300000Y-87570000D03*
%TD*%
D17*
%TO.C,R8*%
X167902500Y-95808750D03*
X169727500Y-95808750D03*
%TD*%
D15*
%TO.C,R4*%
X163250000Y-96946250D03*
X163250000Y-95121250D03*
%TD*%
D10*
%TO.C,R26*%
X148725000Y-64032500D03*
X148725000Y-65857500D03*
%TD*%
D22*
%TO.C,C2*%
X161500000Y-87421250D03*
X161500000Y-89146250D03*
%TD*%
D10*
%TO.C,R20*%
X148200000Y-80337500D03*
X148200000Y-82162500D03*
%TD*%
D12*
%TO.C,R17*%
X133525000Y-82850000D03*
X131700000Y-82850000D03*
%TD*%
D20*
%TO.C,C9*%
X136225000Y-64307500D03*
X136225000Y-62582500D03*
%TD*%
D17*
%TO.C,R2*%
X159587500Y-97033750D03*
X161412500Y-97033750D03*
%TD*%
D21*
%TO.C,C5*%
X138612500Y-71945000D03*
X140337500Y-71945000D03*
%TD*%
D17*
%TO.C,R18*%
X145287500Y-84150000D03*
X147112500Y-84150000D03*
%TD*%
D10*
%TO.C,R19*%
X130450000Y-79187500D03*
X130450000Y-81012500D03*
%TD*%
D15*
%TO.C,R15*%
X133950000Y-86512500D03*
X133950000Y-84687500D03*
%TD*%
%TO.C,R10*%
X166065000Y-100971250D03*
X166065000Y-99146250D03*
%TD*%
%TO.C,R13*%
X169000000Y-78946250D03*
X169000000Y-77121250D03*
%TD*%
D17*
%TO.C,R22*%
X149187500Y-84150000D03*
X151012500Y-84150000D03*
%TD*%
D20*
%TO.C,C1*%
X169250000Y-93146250D03*
X169250000Y-91421250D03*
%TD*%
M02*
