%TF.GenerationSoftware,KiCad,Pcbnew,9.0.7-9.0.7~ubuntu24.04.1*%
%TF.CreationDate,2026-01-13T16:36:12+01:00*%
%TF.ProjectId,analogIO,616e616c-6f67-4494-9f2e-6b696361645f,1.0*%
%TF.SameCoordinates,Original*%
%TF.FileFunction,Profile,NP*%
%FSLAX46Y46*%
G04 Gerber Fmt 4.6, Leading zero omitted, Abs format (unit mm)*
G04 Created by KiCad (PCBNEW 9.0.7-9.0.7~ubuntu24.04.1) date 2026-01-13 16:36:12*
%MOMM*%
%LPD*%
G01*
G04 APERTURE LIST*
%TA.AperFunction,Profile*%
%ADD10C,0.150000*%
%TD*%
G04 APERTURE END LIST*
D10*
X161500000Y-113500000D02*
G75*
G02*
X158240000Y-113500000I-1630000J0D01*
G01*
X158240000Y-113500000D02*
G75*
G02*
X161500000Y-113500000I1630000J0D01*
G01*
X166000000Y-49500000D02*
G75*
G02*
X167000000Y-48500000I1000000J0D01*
G01*
X128490000Y-53590000D02*
G75*
G02*
X125250000Y-53590000I-1620000J0D01*
G01*
X125250000Y-53590000D02*
G75*
G02*
X128490000Y-53590000I1620000J0D01*
G01*
X116000000Y-112000000D02*
X116000000Y-49500000D01*
X129000000Y-116000000D02*
X162000000Y-116000000D01*
X127000000Y-114000000D02*
X129000000Y-116000000D01*
X166000000Y-49500000D02*
X166000000Y-56170000D01*
X164000000Y-114000000D02*
X184000000Y-114000000D01*
X135000000Y-48500000D02*
G75*
G02*
X136000000Y-49500000I0J-1000000D01*
G01*
X118000000Y-114000000D02*
G75*
G02*
X116000000Y-112000000I0J2000000D01*
G01*
X136000000Y-49500000D02*
X136000000Y-56170000D01*
X186000000Y-112000000D02*
X186000000Y-49500000D01*
X185000000Y-48500000D02*
G75*
G02*
X186000000Y-49500000I0J-1000000D01*
G01*
X166000000Y-56170000D02*
G75*
G02*
X165000000Y-57170000I-1000000J0D01*
G01*
X186000000Y-112000000D02*
G75*
G02*
X184000000Y-114000000I-2000000J0D01*
G01*
X185000000Y-48500000D02*
X167000000Y-48500000D01*
X117000000Y-48500000D02*
X135000000Y-48500000D01*
X165000000Y-57170000D02*
X137000000Y-57170000D01*
X118000000Y-114000000D02*
X127000000Y-114000000D01*
X162000000Y-116000000D02*
X164000000Y-114000000D01*
X176750000Y-54870000D02*
G75*
G02*
X173510000Y-54870000I-1620000J0D01*
G01*
X173510000Y-54870000D02*
G75*
G02*
X176750000Y-54870000I1620000J0D01*
G01*
X116000000Y-49500000D02*
G75*
G02*
X117000000Y-48500000I1000000J0D01*
G01*
X137000000Y-57170000D02*
G75*
G02*
X136000000Y-56170000I0J1000000D01*
G01*
M02*
